<svg width="144" height="145" viewBox="0 0 144 145" fill="none" xmlns="http://www.w3.org/2000/svg">
<g filter="url(#filter0_ddi)">
<circle cx="72" cy="72.9727" r="58" fill="#F6F8FC"/>
</g>
<circle cx="72" cy="72.9727" r="45" fill="#4B5773"/>
<g clip-path="url(#clip0)">
<path d="M81.3356 79.6471C81.1705 79.6471 81.0028 79.5995 80.8544 79.4997C80.4488 79.2272 80.3364 78.6697 80.6016 78.2543C80.6437 78.1887 80.6981 78.106 80.7614 78.008C81.1644 77.3911 81.9133 76.2438 82.4902 75.047C83.3832 73.1929 83.2005 72.5563 83.1549 72.4475C83.1347 72.3999 83.0881 72.2884 82.7641 72.2308C82.2865 72.1463 81.9651 71.6814 82.0477 71.1923C82.1302 70.7031 82.5842 70.374 83.0618 70.4586C84.1067 70.6429 84.5667 71.2561 84.7687 71.7381C85.5308 73.5571 83.8072 76.5792 82.2206 79.0078C82.1601 79.0995 82.1091 79.1778 82.0696 79.2407C81.9019 79.5042 81.6218 79.6471 81.3356 79.6471Z" fill="white"/>
<path d="M84.7078 86.8653H75.9504C75.5026 86.8653 75.1268 86.521 75.0776 86.066C74.9854 85.2181 75.0846 82.2005 75.1637 81.5468C75.334 80.0928 76.3947 77.3387 77.63 75.1429C78.7846 73.091 80.5574 70.6597 82.5391 70.4825C81.9447 68.3173 81.5987 65.6369 81.9236 63.8449C82.1615 62.5006 83.2591 60.6016 84.9493 60.6016C85.1416 60.6016 85.3356 60.6276 85.527 60.678C86.8836 61.0449 88.0768 63.3908 89.0742 67.6528C89.7635 70.5985 90.2675 74.3426 89.839 76.0663C89.3175 78.1758 88.378 79.4328 87.5491 80.5424C86.506 81.9388 85.6052 83.1446 85.5841 85.9725C85.5823 86.467 85.1898 86.8653 84.7078 86.8653ZM76.7968 85.067H83.864C84.0677 82.2454 85.1275 80.8265 86.1566 79.4508C86.9529 78.3844 87.7054 77.3773 88.1391 75.6249C88.4263 74.4685 88.1075 71.2738 87.3963 68.1923C86.4639 64.1488 85.4313 62.5546 85.0775 62.4161C85.0388 62.4062 84.994 62.3999 84.951 62.3999C84.4295 62.3999 83.7903 63.3899 83.6524 64.1695C83.3126 66.0406 83.9185 69.4305 84.6973 71.4248C84.8483 71.8115 84.7201 72.2539 84.3873 72.494C84.0546 72.734 83.605 72.7089 83.3003 72.4328C83.267 72.4022 83.1634 72.3276 82.9254 72.2853C82.9228 72.2844 82.9193 72.2844 82.9166 72.2835C82.8692 72.2746 82.8201 72.2701 82.77 72.2701C82.0474 72.2701 80.7172 73.2609 79.1525 76.0412C77.9084 78.2522 77.0339 80.6872 76.9074 81.7644C76.853 82.2122 76.7933 83.9628 76.7968 85.067Z" fill="white"/>
<path d="M87.3648 92.2598H75.0724C74.5877 92.2598 74.1943 91.8569 74.1943 91.3606V85.9656C74.1943 85.4692 74.5877 85.0664 75.0724 85.0664H86.4867C86.9161 85.0664 87.2822 85.3838 87.3525 85.8181L88.2305 91.2131C88.2726 91.4739 88.2015 91.74 88.0347 91.9423C87.8679 92.1438 87.6229 92.2598 87.3648 92.2598ZM75.9504 90.4614H86.3287L85.743 86.8647H75.9504V90.4614Z" fill="white"/>
<path d="M83.8526 89.564C83.6217 89.564 83.3952 89.4677 83.2319 89.3005C83.0686 89.1333 82.9746 88.9013 82.9746 88.6648C82.9746 88.4283 83.0686 88.1963 83.2319 88.0291C83.3952 87.8618 83.6217 87.7656 83.8526 87.7656C84.0836 87.7656 84.3101 87.8618 84.4734 88.0291C84.6367 88.1963 84.7307 88.4283 84.7307 88.6648C84.7307 88.9013 84.6367 89.1333 84.4734 89.3005C84.3101 89.4677 84.0836 89.564 83.8526 89.564Z" fill="white"/>
<path d="M62.6644 79.6471C62.3781 79.6471 62.0981 79.5042 61.9295 79.2407C61.8891 79.1787 61.8382 79.1004 61.7776 79.0078C60.191 76.5792 58.4674 73.558 59.2295 71.7381C59.4315 71.2561 59.8916 70.6429 60.9364 70.4586C61.4149 70.374 61.8689 70.7031 61.9505 71.1923C62.0331 71.6814 61.7117 72.1472 61.2341 72.2308C60.9101 72.2884 60.8627 72.3999 60.8425 72.4475C60.7968 72.5563 60.6151 73.192 61.5071 75.0461C62.084 76.2438 62.833 77.3911 63.236 78.008C63.3001 78.1051 63.3536 78.1887 63.3958 78.2543C63.6618 78.6697 63.5486 79.2272 63.1429 79.4997C62.9963 79.5995 62.8295 79.6471 62.6644 79.6471Z" fill="white"/>
<path d="M68.0483 86.8662H59.2917C58.8097 86.8662 58.4172 86.4679 58.4137 85.9743C58.3926 83.1464 57.4918 81.9406 56.4487 80.5442C55.6198 79.4346 54.6803 78.1776 54.1588 76.0663C53.7303 74.3435 54.2343 70.5994 54.9235 67.6537C55.921 63.3917 57.1142 61.0449 58.469 60.6789C58.6622 60.6276 58.8562 60.6016 59.0485 60.6016C60.7396 60.6016 61.8362 62.5006 62.0751 63.8485C62.3999 65.6378 62.054 68.3173 61.4596 70.4825C63.4413 70.6596 65.214 73.091 66.3686 75.1429C67.604 77.3378 68.6647 80.0928 68.8359 81.5504C68.9149 82.2005 69.0141 85.2172 68.9219 86.0651C68.8719 86.5219 68.4961 86.8662 68.0483 86.8662ZM60.1355 85.0679H67.2027C67.2071 83.9637 67.1465 82.2139 67.0921 81.7698C66.9657 80.6881 66.0912 78.2531 64.847 76.0421C63.2823 73.2618 61.9521 72.271 61.2295 72.271C61.1795 72.271 61.1312 72.2754 61.0838 72.2844C61.0811 72.2853 61.0776 72.2853 61.075 72.2862C60.837 72.3276 60.7334 72.4031 60.7001 72.4328C60.3954 72.7088 59.9458 72.734 59.6131 72.4939C59.2803 72.2539 59.1521 71.8115 59.3031 71.4248C60.0819 69.4305 60.6869 66.0406 60.348 64.174C60.2093 63.3899 59.57 62.3999 59.0485 62.3999C59.0055 62.3999 58.9607 62.4062 58.9142 62.4188C58.5682 62.5555 57.5357 64.1497 56.6032 68.1923C55.8929 71.2738 55.5733 74.4685 55.8604 75.623C56.2941 77.3764 57.0466 78.3835 57.843 79.4499C58.8711 80.8274 59.9309 82.2463 60.1355 85.0679Z" fill="white"/>
<path d="M68.9262 92.2607H56.6338C56.3757 92.2607 56.1307 92.1447 55.9639 91.9423C55.797 91.7409 55.725 91.4739 55.7681 91.2131L56.6461 85.8181C56.7163 85.3847 57.0833 85.0664 57.5118 85.0664H68.9262C69.4109 85.0664 69.8042 85.4692 69.8042 85.9656V91.3606C69.8042 91.8578 69.4117 92.2607 68.9262 92.2607ZM57.6707 90.4623H68.0482V86.8656H58.2555L57.6707 90.4623Z" fill="white"/>
<path d="M60.1461 89.564C59.9152 89.564 59.6886 89.4677 59.5253 89.3005C59.362 89.1333 59.2681 88.9013 59.2681 88.6648C59.2681 88.4283 59.362 88.1963 59.5253 88.0291C59.6886 87.8618 59.9152 87.7656 60.1461 87.7656C60.377 87.7656 60.6035 87.8618 60.7669 88.0291C60.9302 88.1963 61.0241 88.4283 61.0241 88.6648C61.0241 88.9013 60.9302 89.1333 60.7669 89.3005C60.6035 89.4677 60.377 89.564 60.1461 89.564Z" fill="white"/>
<path d="M71.9994 72.2555C71.9177 72.2555 71.8352 72.2439 71.7553 72.2205L65.1701 70.2684C64.7943 70.1569 64.5361 69.8053 64.5361 69.4052V60.9458C64.5361 60.6635 64.6661 60.3973 64.8865 60.2274C65.1069 60.0574 65.3931 60.0035 65.6583 60.0826L72.2435 62.0347C72.6193 62.1462 72.8774 62.4978 72.8774 62.8979V71.3573C72.8774 71.6396 72.7474 71.9058 72.5271 72.0757C72.3734 72.1935 72.1881 72.2555 71.9994 72.2555ZM66.2922 68.7281L71.1213 70.1596V63.5723L66.2922 62.1408V68.7281Z" fill="white"/>
<path d="M71.9991 72.2565C71.8112 72.2565 71.6251 72.1944 71.4714 72.0757C71.251 71.9058 71.1211 71.6396 71.1211 71.3573V62.8979C71.1211 62.4978 71.3792 62.1453 71.755 62.0347L78.3402 60.0826C78.6054 60.0035 78.8916 60.0574 79.112 60.2274C79.3324 60.3973 79.4623 60.6635 79.4623 60.9458V69.4052C79.4623 69.8053 79.2042 70.1578 78.8284 70.2684L72.2432 72.2205C72.1633 72.2448 72.0808 72.2565 71.9991 72.2565ZM72.8771 63.5741V70.1614L77.7063 68.7299V62.1426L72.8771 63.5741Z" fill="white"/>
<path d="M71.9994 63.7921C71.9168 63.7921 71.8352 63.7805 71.7553 63.7562L65.1701 61.8041C64.7943 61.6926 64.5361 61.341 64.5361 60.9409C64.5361 60.5407 64.7943 60.1883 65.1701 60.0777L71.7553 58.1256C71.9151 58.0779 72.0845 58.0779 72.2435 58.1256L78.8287 60.0777C79.2045 60.1892 79.4626 60.5407 79.4626 60.9409C79.4626 61.341 79.2045 61.6935 78.8287 61.8041L72.2435 63.7562C72.1644 63.7805 72.0819 63.7921 71.9994 63.7921ZM68.5724 60.9409L72.0002 61.9569L75.4281 60.9409L71.9994 59.9248L68.5724 60.9409Z" fill="white"/>
<path d="M82.7576 59.8908C82.4064 59.8908 82.0745 59.6732 81.9393 59.3172C80.2026 54.7503 76.3006 51.7983 71.9992 51.7983C67.6977 51.7983 63.7966 54.7503 62.0599 59.3181C61.8843 59.7811 61.375 60.0095 60.9228 59.8297C60.4707 59.6499 60.2476 59.1283 60.4233 58.6653C62.4252 53.4016 66.9681 50 71.9992 50C77.0303 50 81.574 53.4016 83.5751 58.6653C83.7507 59.1283 83.5268 59.649 83.0755 59.8297C82.971 59.8711 82.863 59.8908 82.7576 59.8908Z" fill="white"/>
</g>
<defs>
<filter id="filter0_ddi" x="0" y="0.972656" width="144" height="144" filterUnits="userSpaceOnUse" color-interpolation-filters="sRGB">
<feFlood flood-opacity="0" result="BackgroundImageFix"/>
<feColorMatrix in="SourceAlpha" type="matrix" values="0 0 0 0 0 0 0 0 0 0 0 0 0 0 0 0 0 0 127 0"/>
<feOffset dx="4" dy="4"/>
<feGaussianBlur stdDeviation="5"/>
<feColorMatrix type="matrix" values="0 0 0 0 0.764706 0 0 0 0 0.815686 0 0 0 0 0.894118 0 0 0 1 0"/>
<feBlend mode="normal" in2="BackgroundImageFix" result="effect1_dropShadow"/>
<feColorMatrix in="SourceAlpha" type="matrix" values="0 0 0 0 0 0 0 0 0 0 0 0 0 0 0 0 0 0 127 0"/>
<feOffset dx="-4" dy="-4"/>
<feGaussianBlur stdDeviation="5"/>
<feColorMatrix type="matrix" values="0 0 0 0 1 0 0 0 0 1 0 0 0 0 1 0 0 0 1 0"/>
<feBlend mode="normal" in2="effect1_dropShadow" result="effect2_dropShadow"/>
<feBlend mode="normal" in="SourceGraphic" in2="effect2_dropShadow" result="shape"/>
<feColorMatrix in="SourceAlpha" type="matrix" values="0 0 0 0 0 0 0 0 0 0 0 0 0 0 0 0 0 0 127 0" result="hardAlpha"/>
<feOffset dx="2" dy="2"/>
<feGaussianBlur stdDeviation="5"/>
<feComposite in2="hardAlpha" operator="arithmetic" k2="-1" k3="1"/>
<feColorMatrix type="matrix" values="0 0 0 0 0.85098 0 0 0 0 0.882353 0 0 0 0 0.937255 0 0 0 0.1 0"/>
<feBlend mode="normal" in2="shape" result="effect3_innerShadow"/>
</filter>
<clipPath id="clip0">
<rect x="54" y="50" width="36" height="42.2609" fill="white"/>
</clipPath>
</defs>
</svg>
