<svg width="179" height="170" viewBox="0 0 179 170" fill="none" xmlns="http://www.w3.org/2000/svg">
<g filter="url(#filter0_d)">
<circle cx="77" cy="91" r="57" fill="white"/>
</g>
<g style="mix-blend-mode:multiply" opacity="0.38">
<circle cx="77.5" cy="91.5" r="71.5" fill="#D5DDEA"/>
</g>
<path d="M92.9965 115.953C92.5312 115.953 92.0701 115.753 91.739 115.365C91.127 114.642 91.1899 113.545 91.8857 112.904C96.4504 108.714 99.2253 102.89 99.7073 96.4998C100.189 90.0792 98.2696 83.9722 94.2959 79.2982C94.2665 79.2677 91.4581 75.9703 89.9701 74.6243C89.2701 73.9927 89.1946 72.895 89.8024 72.1676C90.4102 71.4401 91.4707 71.3617 92.1665 71.9933C93.8222 73.4874 96.6851 76.8458 96.8067 76.9896C101.384 82.3779 103.601 89.3997 103.048 96.7699C102.499 104.066 99.3217 110.726 94.1031 115.518C93.7887 115.81 93.3905 115.953 92.9965 115.953Z" fill="#8493AD"/>
<path d="M78.1992 120.266C77.7339 120.266 77.2728 120.066 76.9417 119.678C76.3297 118.955 76.3926 117.857 77.0884 117.217L86.0586 108.984C89.5754 105.752 91.6712 101.287 91.9604 96.4086C92.2496 91.53 90.6987 86.8299 87.5885 83.1753C87.5634 83.1448 85.5556 80.7708 84.1681 79.5685C83.4555 78.9544 83.3591 77.8523 83.9543 77.1162C84.5454 76.3756 85.6059 76.2755 86.3143 76.894C87.9071 78.2705 90.0155 80.7664 90.1077 80.8753C93.8047 85.2226 95.6533 90.8156 95.3096 96.6264C94.9658 102.433 92.4676 107.751 88.2801 111.602L79.31 119.83C78.9914 120.122 78.5932 120.266 78.1992 120.266Z" fill="#8493AD"/>
<path d="M60.5941 127.101C60.133 127.101 59.6761 126.905 59.345 126.522C58.7288 125.803 58.7875 124.701 59.4791 124.061L80.0602 104.938C85.153 100.26 85.6434 92.1708 81.1709 86.8696L81.0829 86.7782C81.0578 86.752 81.0368 86.7259 81.0117 86.6998C80.6805 86.3121 80.2236 86.0812 79.7164 86.0551C79.2092 86.0246 78.723 86.1988 78.3458 86.5473C77.4991 87.327 77.4446 88.416 78.2032 89.3264C79.9637 91.426 80.1691 93.7956 80.1691 95.3942C80.1691 98.2038 78.8362 100.843 76.1996 103.239L65.9804 112.639C65.2887 113.275 64.2283 113.21 63.6121 112.491C62.9959 111.773 63.063 110.67 63.7546 110.03L73.9822 100.621C75.8895 98.8877 76.8116 97.1801 76.8116 95.3942C76.8116 94.1353 76.6733 92.8111 75.6715 91.6176C73.7098 89.2785 73.9026 85.981 76.1158 83.9424C77.1595 82.9798 78.505 82.5006 79.9009 82.5834C81.2841 82.6662 82.55 83.2934 83.4764 84.3563L83.5686 84.4521C83.5937 84.4782 83.6147 84.5044 83.6398 84.5305C89.3698 91.2691 88.762 101.593 82.2775 107.552L61.7049 126.666C61.3905 126.953 60.9923 127.101 60.5941 127.101Z" fill="#8493AD"/>
<path d="M59.84 107.198C59.3747 107.198 58.9094 106.998 58.5783 106.606L56.1471 103.731C48.1075 94.248 48.9626 79.6817 58.0543 71.2661L66.7856 63.3687C67.4856 62.7371 68.5419 62.8155 69.1497 63.5386C69.7574 64.2661 69.682 65.3638 68.9862 65.9954L60.2675 73.8796C52.5674 81.0146 51.8381 93.3768 58.6663 101.427L61.0975 104.301C61.7095 105.025 61.6382 106.127 60.9466 106.763C60.628 107.054 60.234 107.198 59.84 107.198Z" fill="#8493AD"/>
<path d="M65.5405 102.189C65.0752 102.189 64.6099 101.989 64.2788 101.593L62.2249 99.1532C56.4991 92.4233 57.111 82.0954 63.5913 76.1408L79.0879 61.605C79.7753 60.9604 80.8358 61.017 81.4562 61.7314C82.0766 62.4457 82.0221 63.5478 81.3346 64.1925L65.8255 78.7413C60.7159 83.437 60.2338 91.5565 64.7441 96.8533L66.8022 99.3013C67.4141 100.024 67.3429 101.126 66.6429 101.758C66.3285 102.046 65.9345 102.189 65.5405 102.189Z" fill="#8493AD"/>
<path d="M70.487 96.6129C70.0343 96.6129 69.5816 96.4212 69.2505 96.0466L68.7894 95.5239C64.9205 90.9806 65.3229 84.0547 69.6696 80.0603L95.4903 56.2333C96.1819 55.593 97.2424 55.6583 97.8586 56.3814C98.4747 57.1002 98.4118 58.2022 97.716 58.8425L71.8954 82.6695C68.9361 85.392 68.6594 90.1138 71.2834 93.1935L71.7235 93.6944C72.3481 94.4044 72.302 95.5065 71.6229 96.1555C71.3002 96.4604 70.8936 96.6129 70.487 96.6129Z" fill="#8493AD"/>
<g filter="url(#filter1_d)">
<circle cx="131" cy="48" r="28" fill="white"/>
</g>
<path d="M131 62C138.732 62 145 55.732 145 48C145 40.268 138.732 34 131 34C123.268 34 117 40.268 117 48C117 55.732 123.268 62 131 62Z" stroke="#69F0AE" stroke-width="4"/>
<path fill-rule="evenodd" clip-rule="evenodd" d="M125.234 47.418L123.417 49.168L128.263 53.8346L139.167 43.918L137.35 42.168L128.263 50.3346L125.234 47.418Z" fill="#69F0AE"/>
<defs>
<filter id="filter0_d" x="0" y="16" width="154" height="154" filterUnits="userSpaceOnUse" color-interpolation-filters="sRGB">
<feFlood flood-opacity="0" result="BackgroundImageFix"/>
<feColorMatrix in="SourceAlpha" type="matrix" values="0 0 0 0 0 0 0 0 0 0 0 0 0 0 0 0 0 0 127 0"/>
<feOffset dy="2"/>
<feGaussianBlur stdDeviation="10"/>
<feColorMatrix type="matrix" values="0 0 0 0 0.723333 0 0 0 0 0.728092 0 0 0 0 0.904167 0 0 0 0.24 0"/>
<feBlend mode="normal" in2="BackgroundImageFix" result="effect1_dropShadow"/>
<feBlend mode="normal" in="SourceGraphic" in2="effect1_dropShadow" result="shape"/>
</filter>
<filter id="filter1_d" x="83" y="0" width="96" height="96" filterUnits="userSpaceOnUse" color-interpolation-filters="sRGB">
<feFlood flood-opacity="0" result="BackgroundImageFix"/>
<feColorMatrix in="SourceAlpha" type="matrix" values="0 0 0 0 0 0 0 0 0 0 0 0 0 0 0 0 0 0 127 0"/>
<feOffset/>
<feGaussianBlur stdDeviation="10"/>
<feColorMatrix type="matrix" values="0 0 0 0 0 0 0 0 0 0 0 0 0 0 0 0 0 0 0.1 0"/>
<feBlend mode="normal" in2="BackgroundImageFix" result="effect1_dropShadow"/>
<feBlend mode="normal" in="SourceGraphic" in2="effect1_dropShadow" result="shape"/>
</filter>
</defs>
</svg>
