<svg width="988" height="612" viewBox="0 0 988 612" fill="none" xmlns="http://www.w3.org/2000/svg">
<g style="mix-blend-mode:multiply" opacity="0.38">
<circle cx="495.303" cy="271.228" r="116.311" fill="#D5DDEA"/>
</g>
<g filter="url(#filter0_d)">
<circle cx="495.303" cy="271.23" r="79.1949" fill="url(#paint0_linear)"/>
</g>
<g filter="url(#filter1_d)">
<path d="M517.103 305.474C516.456 305.474 515.815 305.195 515.355 304.656C514.505 303.651 514.592 302.126 515.559 301.236C521.903 295.412 525.759 287.318 526.429 278.437C527.099 269.514 524.431 261.026 518.909 254.531C518.868 254.488 514.965 249.906 512.897 248.035C511.924 247.157 511.819 245.632 512.664 244.621C513.508 243.61 514.982 243.501 515.949 244.378C518.25 246.455 522.229 251.122 522.398 251.322C528.76 258.811 531.841 268.57 531.072 278.813C530.309 288.953 525.893 298.209 518.641 304.868C518.204 305.274 517.65 305.474 517.103 305.474Z" fill="url(#paint1_linear)"/>
<path d="M496.539 311.467C495.892 311.467 495.251 311.188 494.791 310.65C493.941 309.645 494.028 308.119 494.995 307.229L507.462 295.787C512.349 291.295 515.262 285.09 515.664 278.31C516.066 271.53 513.91 264.998 509.588 259.918C509.553 259.876 506.762 256.577 504.834 254.906C503.844 254.052 503.71 252.521 504.537 251.498C505.359 250.468 506.832 250.329 507.817 251.189C510.031 253.102 512.961 256.571 513.089 256.722C518.227 262.764 520.796 270.537 520.318 278.613C519.841 286.682 516.369 294.074 510.549 299.426L498.082 310.861C497.64 311.267 497.086 311.467 496.539 311.467Z" fill="url(#paint2_linear)"/>
<path d="M472.071 320.969C471.43 320.969 470.795 320.696 470.335 320.164C469.479 319.165 469.56 317.633 470.522 316.743L499.125 290.167C506.203 283.665 506.885 272.423 500.669 265.056L500.546 264.929C500.511 264.892 500.482 264.856 500.447 264.82C499.987 264.281 499.352 263.96 498.647 263.924C497.942 263.881 497.267 264.123 496.742 264.608C495.566 265.691 495.49 267.205 496.544 268.47C498.991 271.388 499.276 274.681 499.276 276.903C499.276 280.808 497.424 284.476 493.76 287.806L479.557 300.87C478.596 301.754 477.122 301.663 476.266 300.664C475.409 299.665 475.502 298.134 476.464 297.244L490.678 284.168C493.329 281.758 494.61 279.385 494.61 276.903C494.61 275.153 494.418 273.313 493.026 271.654C490.299 268.403 490.567 263.821 493.643 260.987C495.094 259.65 496.964 258.984 498.904 259.099C500.826 259.214 502.585 260.085 503.873 261.563L504.001 261.696C504.036 261.732 504.065 261.768 504.1 261.805C512.063 271.17 511.219 285.518 502.207 293.799L473.615 320.363C473.178 320.763 472.625 320.969 472.071 320.969Z" fill="url(#paint3_linear)"/>
<path d="M471.023 293.304C470.376 293.304 469.73 293.026 469.269 292.481L465.89 288.486C454.717 275.306 455.906 255.062 468.541 243.366L480.676 232.391C481.649 231.513 483.117 231.622 483.961 232.627C484.806 233.638 484.701 235.163 483.734 236.041L471.617 246.999C460.915 256.915 459.902 274.096 469.392 285.283L472.77 289.279C473.621 290.283 473.522 291.815 472.561 292.699C472.118 293.105 471.57 293.304 471.023 293.304Z" fill="url(#paint4_linear)"/>
<path d="M478.946 286.344C478.299 286.344 477.653 286.065 477.192 285.514L474.338 282.124C466.38 272.771 467.231 258.417 476.237 250.142L497.774 229.94C498.729 229.044 500.203 229.123 501.065 230.116C501.928 231.109 501.852 232.64 500.896 233.536L479.342 253.756C472.241 260.282 471.571 271.566 477.839 278.928L480.699 282.33C481.55 283.335 481.451 284.866 480.478 285.744C480.041 286.144 479.493 286.344 478.946 286.344Z" fill="url(#paint5_linear)"/>
<path d="M485.82 278.594C485.19 278.594 484.561 278.328 484.101 277.807L483.46 277.081C478.083 270.767 478.643 261.141 484.684 255.59L520.569 222.475C521.53 221.585 523.004 221.676 523.86 222.681C524.717 223.68 524.629 225.212 523.662 226.102L487.777 259.216C483.664 263 483.28 269.562 486.926 273.842L487.538 274.538C488.406 275.525 488.342 277.057 487.398 277.959C486.95 278.382 486.385 278.594 485.82 278.594Z" fill="url(#paint6_linear)"/>
</g>
<path d="M624.817 230.991C615.19 200.055 594.79 173.596 567.321 156.417C539.852 139.237 507.133 132.476 475.105 137.36C443.076 142.244 413.86 158.45 392.759 183.035C371.659 207.621 360.072 238.957 360.103 271.356" stroke="#8793AB" stroke-width="2" stroke-linecap="round" stroke-linejoin="round"/>
<path d="M534.034 401.048C561.899 392.781 586.365 375.767 603.814 352.522C621.264 329.278 630.771 300.182 630.931 271.117" stroke="#8793AB" stroke-width="2" stroke-linecap="round" stroke-linejoin="round"/>
<path d="M366.231 312.276C374.932 339.628 392.099 363.509 415.255 380.47C438.41 397.432 466.356 406.597 495.06 406.642" stroke="#8793AB" stroke-width="2" stroke-linecap="round" stroke-linejoin="round"/>
<path d="M495.303 406.75L495.303 437.55" stroke="#8793AB" stroke-width="2" stroke-linecap="round"/>
<path d="M630.921 271.051L802.556 271.051" stroke="#8793AB" stroke-width="2" stroke-linecap="round"/>
<path d="M360.265 271.598H185.761" stroke="#8793AB" stroke-width="2" stroke-linecap="round"/>
<ellipse cx="495.303" cy="452.785" rx="14.9999" ry="15" transform="rotate(-90 495.303 452.785)" stroke="#8793AB" stroke-width="2"/>
<circle cx="624.815" cy="231.017" r="3.98279" transform="rotate(-13.4559 624.815 231.017)" fill="#8793AB"/>
<circle cx="534.004" cy="401.044" r="3.98279" transform="rotate(-13.4559 534.004 401.044)" fill="#8793AB"/>
<circle cx="366.231" cy="312.287" r="3.98279" transform="rotate(-13.4559 366.231 312.287)" fill="#8793AB"/>
<ellipse cx="170.138" cy="271.102" rx="14.9999" ry="15" stroke="#8793AB" stroke-width="2"/>
<ellipse cx="818.103" cy="271.547" rx="14.9999" ry="15" transform="rotate(-180 818.103 271.547)" stroke="#8793AB" stroke-width="2"/>
<path d="M818.103 281.547C823.625 281.547 828.103 277.07 828.103 271.547C828.103 266.024 823.625 261.547 818.103 261.547C812.58 261.547 808.103 266.024 808.103 271.547C808.103 277.07 812.58 281.547 818.103 281.547Z" fill="#69F0AE"/>
<path d="M813.018 270.953L816.768 274.391L822.08 266.578L823.955 268.141L816.768 277.516L811.455 271.578L813.018 270.953Z" fill="white"/>
<path d="M495.303 462.785C500.826 462.785 505.303 458.308 505.303 452.785C505.303 447.262 500.826 442.785 495.303 442.785C489.78 442.785 485.303 447.262 485.303 452.785C485.303 458.308 489.78 462.785 495.303 462.785Z" fill="#69F0AE"/>
<path d="M490.218 452.191L493.968 455.629L499.28 447.816L501.155 449.379L493.968 458.754L488.655 452.816L490.218 452.191Z" fill="white"/>
<path d="M170.138 281.102C175.661 281.102 180.138 276.624 180.138 271.102C180.138 265.579 175.661 261.102 170.138 261.102C164.615 261.102 160.138 265.579 160.138 271.102C160.138 276.624 164.615 281.102 170.138 281.102Z" fill="#69F0AE"/>
<path d="M165.053 270.508L168.803 273.945L174.115 266.133L175.99 267.695L168.803 277.07L163.49 271.133L165.053 270.508Z" fill="white"/>
<g filter="url(#filter2_ddi)">
<rect x="14.0552" y="212.219" width="119.945" height="119.945" rx="59.9725" fill="#F6F8FC"/>
</g>
<path d="M74.0005 260.912C70.6865 260.96 67.8084 262.04 65.6369 264.214C63.5276 266.323 62.392 269.128 62.4401 272.117C62.5315 278.003 61.9819 283.894 60.7995 289.623C60.5874 290.638 61.2424 291.63 62.2538 291.839C63.2498 292.034 64.2565 291.398 64.4698 290.382C65.7072 284.385 66.2861 278.22 66.1912 272.059C66.1619 270.094 66.9049 268.251 68.29 266.867C70.4767 264.68 73.2435 264.664 74.0029 264.664C78.3529 264.728 81.7853 268.201 81.8509 272.405C81.9423 278.308 81.5028 284.225 80.5478 289.99C80.379 291.012 81.0681 291.977 82.0899 292.145C82.1966 292.164 82.2985 292.171 82.4017 292.171C83.3028 292.171 84.0974 291.521 84.2473 290.602C85.2399 284.616 85.6934 278.475 85.602 272.345C85.5001 266.134 80.3509 261.006 74.0005 260.912ZM73.99 271.001C72.9541 271.018 72.1302 271.869 72.1443 272.905C72.2756 281.506 71.181 289.896 68.8889 298.109L68.7459 298.616C68.5291 299.393 68.9498 301 70.5517 301C71.3721 301 72.1232 300.46 72.3576 299.634L72.5006 299.121C74.8923 290.557 76.0349 281.808 75.8955 272.847C75.8791 271.811 74.931 270.984 73.99 271.001ZM57.203 258.553C54.2511 262.184 52.6655 266.769 52.7394 271.462C52.812 276.098 52.4323 280.736 51.6156 285.244C51.4327 286.264 52.1066 287.24 53.1284 287.425C53.2421 287.445 53.3523 287.454 53.4648 287.454C54.3507 287.454 55.1417 286.819 55.3069 285.914C56.1671 281.165 56.5632 276.284 56.4893 271.404C56.4272 267.536 57.6835 263.91 60.1116 260.919C60.7667 260.116 60.6424 258.934 59.8409 258.282C59.0382 257.631 57.8593 257.746 57.203 258.553ZM103.986 270.627C103.957 268.694 103.73 266.757 103.312 264.869C103.089 263.86 102.101 263.228 101.079 263.442C100.069 263.666 99.4277 264.666 99.6504 265.678C100.012 267.319 100.211 269.005 100.236 270.686C100.25 271.584 100.255 272.48 100.247 273.378C100.24 274.412 101.071 275.259 102.107 275.267H102.121C103.15 275.267 103.989 274.437 103.996 273.407C104.004 272.48 104 271.554 103.986 270.627ZM73.6021 241.006C65.4026 240.849 57.8663 243.916 52.2413 249.544C46.8179 254.971 43.8988 262.183 44.0195 269.851C44.0336 270.736 44.0265 271.62 44.0008 272.502C43.9715 273.537 44.7883 274.401 45.8242 274.43H45.8758C46.8859 274.43 47.7214 273.625 47.7507 272.608C47.7765 271.67 47.7835 270.73 47.7695 269.792C47.664 263.148 50.1941 256.896 54.8921 252.195C59.7881 247.292 66.4818 244.651 73.5423 244.756C82.295 244.883 90.5192 249.236 95.5441 256.395C96.1441 257.242 97.316 257.446 98.1551 256.853C99.0047 256.258 99.2097 255.089 98.6133 254.242C92.9004 246.1 83.5513 241.152 73.6021 241.006ZM73.7521 250.958C71.9698 250.929 70.1908 251.122 68.4564 251.534C67.4498 251.772 66.8264 252.783 67.0654 253.791C67.3033 254.796 68.3252 255.416 69.3213 255.181C70.7416 254.846 72.2615 254.683 73.6935 254.709C83.3942 254.851 91.4028 262.626 91.5492 272.039C91.6219 276.686 91.3922 281.366 90.8684 285.95C90.7512 286.978 91.4907 287.907 92.5196 288.024C92.5922 288.033 92.6625 288.037 92.7352 288.037C93.6727 288.037 94.4859 287.331 94.5949 286.374C95.1363 281.631 95.3707 276.789 95.298 271.981C95.1234 260.562 85.4555 251.131 73.7521 250.958Z" fill="#151F35"/>
<g filter="url(#filter3_ddi)">
<rect x="974" y="331.621" width="120" height="120" rx="60" transform="rotate(-180 974 331.621)" fill="#F6F8FC"/>
</g>
<path d="M908.502 278.966H906.759C906.28 278.966 905.888 279.366 905.888 279.855L905.888 290.527C905.888 291.016 906.28 291.416 906.759 291.416H908.502C908.981 291.416 909.373 291.016 909.373 290.527L909.373 279.855C909.373 279.366 908.981 278.966 908.502 278.966ZM915.471 268.295L913.729 268.295C913.249 268.295 912.857 268.695 912.857 269.184L912.857 290.527C912.857 291.016 913.249 291.416 913.729 291.416L915.471 291.416C915.95 291.416 916.342 291.016 916.342 290.527L916.342 269.184C916.342 268.695 915.95 268.295 915.471 268.295ZM919.827 276.298L919.827 290.527C919.827 291.016 920.219 291.416 920.698 291.416L922.44 291.416C922.919 291.416 923.311 291.016 923.311 290.527L923.311 276.298C923.311 275.809 922.919 275.409 922.44 275.409L920.698 275.409C920.219 275.409 919.827 275.809 919.827 276.298ZM933.972 254.286L924.838 244.962C923.858 243.961 922.529 243.395 921.147 243.395L898.918 243.395C896.034 243.406 893.692 245.796 893.692 248.74L893.692 294.974C893.692 297.919 896.034 300.309 898.918 300.309L930.281 300.309C933.166 300.309 935.507 297.919 935.507 294.974L935.507 258.064C935.507 256.654 934.952 255.287 933.972 254.286ZM921.572 247.017C921.877 247.095 922.149 247.251 922.378 247.484L931.512 256.808C931.74 257.042 931.893 257.32 931.969 257.631L921.572 257.631L921.572 247.017ZM932.024 294.974C932.024 295.953 931.24 296.753 930.281 296.753L898.918 296.753C897.96 296.753 897.176 295.953 897.176 294.974L897.176 248.74C897.176 247.762 897.96 246.952 898.918 246.952L918.088 246.952L918.088 258.52C918.088 259.999 919.253 261.18 920.701 261.18L932.024 261.18L932.024 294.974Z" fill="#151F35"/>
<g filter="url(#filter4_ddi)">
<rect x="443.646" y="597.305" width="103.313" height="103.313" rx="51.6565" transform="rotate(-90 443.646 597.305)" fill="#F6F8FC"/>
</g>
<path fill-rule="evenodd" clip-rule="evenodd" d="M495.031 535.422C490.512 535.422 486.85 539.085 486.85 543.603C486.85 548.121 490.512 551.784 495.031 551.784C499.549 551.784 503.211 548.121 503.211 543.603C503.211 539.085 499.549 535.422 495.031 535.422ZM483.35 543.603C483.35 537.152 488.579 531.922 495.031 531.922C501.482 531.922 506.711 537.152 506.711 543.603C506.711 550.054 501.482 555.284 495.031 555.284C488.579 555.284 483.35 550.054 483.35 543.603Z" fill="#151F35"/>
<path fill-rule="evenodd" clip-rule="evenodd" d="M484.077 556.592C486.982 553.687 490.922 552.055 495.031 552.055C499.139 552.055 503.079 553.687 505.984 556.592C508.889 559.497 510.521 563.437 510.521 567.545V569.295L479.541 569.295L479.541 567.545C479.541 563.437 481.173 559.497 484.077 556.592ZM495.031 555.555C491.851 555.555 488.801 556.818 486.552 559.067C484.72 560.898 483.542 563.262 483.169 565.795L506.892 565.795C506.519 563.262 505.341 560.898 503.509 559.067C501.26 556.818 498.211 555.555 495.031 555.555Z" fill="#151F35"/>
<path fill-rule="evenodd" clip-rule="evenodd" d="M470.834 528.637C470.834 524.357 474.304 520.887 478.584 520.887H512.022C516.302 520.887 519.772 524.357 519.772 528.637V562.075C519.772 566.355 516.302 569.825 512.022 569.825H478.584C474.304 569.825 470.834 566.355 470.834 562.075V528.637ZM478.584 524.387C476.237 524.387 474.334 526.29 474.334 528.637V562.075C474.334 564.422 476.237 566.325 478.584 566.325H512.022C514.369 566.325 516.272 564.422 516.272 562.075V528.637C516.272 526.29 514.369 524.387 512.022 524.387H478.584Z" fill="#151F35"/>
<rect x="309.548" y="141.5" width="78.8445" height="78.8445" rx="39.4223" transform="rotate(-90 309.548 141.5)" fill="#DAE0EE"/>
<rect x="322.101" y="128.949" width="53.7388" height="53.7388" rx="26.8694" transform="rotate(-90 322.101 128.949)" fill="#8793AB"/>
<path d="M354.712 99.6187C354.712 102.879 352.069 105.523 348.809 105.523C345.548 105.523 342.905 102.879 342.905 99.6187C342.905 96.3581 345.548 93.7148 348.809 93.7148C352.069 93.7148 354.712 96.3581 354.712 99.6187Z" fill="#F2F5FA"/>
<path fill-rule="evenodd" clip-rule="evenodd" d="M348.809 95.2148C346.376 95.2148 344.405 97.1865 344.405 99.6187C344.405 102.051 346.376 104.023 348.809 104.023C351.241 104.023 353.212 102.051 353.212 99.6187C353.212 97.1865 351.241 95.2148 348.809 95.2148ZM341.405 99.6187C341.405 95.5297 344.72 92.2148 348.809 92.2148C352.898 92.2148 356.212 95.5297 356.212 99.6187C356.212 103.708 352.898 107.023 348.809 107.023C344.72 107.023 341.405 103.708 341.405 99.6187Z" fill="#F2F5FA"/>
<path d="M356.977 113.856C356.977 111.689 356.116 109.612 354.584 108.08C353.053 106.548 350.975 105.688 348.809 105.688C346.642 105.687 344.564 106.548 343.033 108.08C341.501 109.612 340.64 111.689 340.64 113.856L348.809 113.856H356.977Z" fill="#F2F5FA"/>
<path fill-rule="evenodd" clip-rule="evenodd" d="M341.972 107.019C343.785 105.206 346.244 104.187 348.809 104.188C351.373 104.188 353.832 105.206 355.645 107.019C357.458 108.832 358.477 111.292 358.477 113.856C358.477 114.684 357.805 115.356 356.977 115.356L340.64 115.356C340.242 115.356 339.861 115.198 339.579 114.917C339.298 114.635 339.14 114.254 339.14 113.856C339.14 111.292 340.159 108.832 341.972 107.019ZM348.809 107.188C347.04 107.188 345.344 107.89 344.093 109.141C343.203 110.031 342.59 111.148 342.311 112.356L355.306 112.356C355.027 111.148 354.414 110.031 353.524 109.141C352.273 107.89 350.577 107.188 348.809 107.188Z" fill="#F2F5FA"/>
<path fill-rule="evenodd" clip-rule="evenodd" d="M333.964 93.7695C333.964 89.6274 337.322 86.2695 341.464 86.2695H356.476C360.619 86.2695 363.976 89.6274 363.976 93.7695V108.782C363.976 112.924 360.619 116.282 356.476 116.282H341.464C337.322 116.282 333.964 112.924 333.964 108.782V93.7695ZM341.464 89.2695C338.979 89.2695 336.964 91.2843 336.964 93.7695V108.782C336.964 111.267 338.979 113.282 341.464 113.282H356.476C358.962 113.282 360.976 111.267 360.976 108.782V93.7695C360.976 91.2843 358.962 89.2695 356.476 89.2695H341.464Z" fill="#F2F5FA"/>
<path d="M347.012 105.865H350.12V104.723C352.213 104.216 353.694 102.524 353.694 100.621C353.694 98.1472 351.706 96.3711 348.83 96.3711C346.758 96.3711 345.024 97.2803 343.798 98.5913L345.807 100.663C346.42 100.05 347.308 99.6062 348.175 99.6062C349.274 99.6062 350.036 100.198 350.036 100.959C350.036 101.848 348.788 102.503 347.012 102.545V105.865ZM348.577 111.405C349.739 111.405 350.712 110.411 350.712 109.185C350.712 108.043 349.739 107.049 348.577 107.049C347.308 107.049 346.335 108.043 346.335 109.185C346.335 110.411 347.308 111.405 348.577 111.405Z" fill="#8793AB"/>
<path d="M673 334C677.418 334 681 330.418 681 326C681 321.582 677.418 318 673 318C668.582 318 665 321.582 665 326C665 330.418 668.582 334 673 334Z" fill="#6C63FF" fill-opacity="0.2"/>
<path d="M673 330.172C675.305 330.172 677.174 328.303 677.174 325.998C677.174 323.693 675.305 321.824 673 321.824C670.695 321.824 668.826 323.693 668.826 325.998C668.826 328.303 670.695 330.172 673 330.172Z" fill="#6C63FF"/>
<g opacity="0.75">
<path d="M96.5 473C107.822 473 117 463.822 117 452.5C117 441.178 107.822 432 96.5 432C85.1781 432 76 441.178 76 452.5C76 463.822 85.1781 473 96.5 473Z" fill="#6C63FF" fill-opacity="0.2"/>
<path d="M96.5003 463.196C102.407 463.196 107.196 458.407 107.196 452.5C107.196 446.593 102.407 441.805 96.5003 441.805C90.5933 441.805 85.8047 446.593 85.8047 452.5C85.8047 458.407 90.5933 463.196 96.5003 463.196Z" fill="#6C63FF"/>
</g>
<g opacity="0.3">
<path d="M793 534C811.778 534 827 518.778 827 500C827 481.222 811.778 466 793 466C774.222 466 759 481.222 759 500C759 518.778 774.222 534 793 534Z" fill="#6C63FF" fill-opacity="0.2"/>
<path d="M793 517.74C802.797 517.74 810.739 509.798 810.739 500.001C810.739 490.204 802.797 482.262 793 482.262C783.203 482.262 775.261 490.204 775.261 500.001C775.261 509.798 783.203 517.74 793 517.74Z" fill="#6C63FF"/>
</g>
<g opacity="0.4">
<path d="M879 131C887.284 131 894 124.284 894 116C894 107.716 887.284 101 879 101C870.716 101 864 107.716 864 116C864 124.284 870.716 131 879 131Z" fill="#6C63FF" fill-opacity="0.2"/>
<path d="M879 123.828C883.322 123.828 886.826 120.324 886.826 116.002C886.826 111.68 883.322 108.176 879 108.176C874.678 108.176 871.174 111.68 871.174 116.002C871.174 120.324 874.678 123.828 879 123.828Z" fill="#6C63FF"/>
</g>
<g opacity="0.84">
<path d="M458 19C462.971 19 467 14.7467 467 9.5C467 4.25329 462.971 0 458 0C453.029 0 449 4.25329 449 9.5C449 14.7467 453.029 19 458 19Z" fill="#6C63FF" fill-opacity="0.2"/>
<path d="M458 14.456C460.593 14.456 462.696 12.2369 462.696 9.49949C462.696 6.76208 460.593 4.54297 458 4.54297C455.406 4.54297 453.304 6.76208 453.304 9.49949C453.304 12.2369 455.406 14.456 458 14.456Z" fill="#6C63FF"/>
</g>
<path d="M288.5 406C296.508 406 303 399.508 303 391.5C303 383.492 296.508 377 288.5 377C280.492 377 274 383.492 274 391.5C274 399.508 280.492 406 288.5 406Z" fill="#C3D0E4" fill-opacity="0.2"/>
<path d="M288.5 399.064C292.678 399.064 296.065 395.677 296.065 391.499C296.065 387.321 292.678 383.934 288.5 383.934C284.322 383.934 280.935 387.321 280.935 391.499C280.935 395.677 284.322 399.064 288.5 399.064Z" fill="#DAE0EE"/>
<path d="M216.5 67C221.194 67 225 63.1944 225 58.5C225 53.8056 221.194 50 216.5 50C211.806 50 208 53.8056 208 58.5C208 63.1944 211.806 67 216.5 67Z" fill="#C3D0E4" fill-opacity="0.2"/>
<path d="M216.5 62.936C218.949 62.936 220.935 60.9505 220.935 58.5012C220.935 56.0519 218.949 54.0664 216.5 54.0664C214.051 54.0664 212.065 56.0519 212.065 58.5012C212.065 60.9505 214.051 62.936 216.5 62.936Z" fill="#DAE0EE"/>
<defs>
<filter id="filter0_d" x="399.108" y="183.035" width="192.39" height="192.39" filterUnits="userSpaceOnUse" color-interpolation-filters="sRGB">
<feFlood flood-opacity="0" result="BackgroundImageFix"/>
<feColorMatrix in="SourceAlpha" type="matrix" values="0 0 0 0 0 0 0 0 0 0 0 0 0 0 0 0 0 0 127 0"/>
<feOffset dy="8"/>
<feGaussianBlur stdDeviation="8.5"/>
<feColorMatrix type="matrix" values="0 0 0 0 0.264583 0 0 0 0 0.361382 0 0 0 0 0.529167 0 0 0 0.47 0"/>
<feBlend mode="normal" in2="BackgroundImageFix" result="effect1_dropShadow"/>
<feBlend mode="normal" in="SourceGraphic" in2="effect1_dropShadow" result="shape"/>
</filter>
<filter id="filter1_d" x="440.229" y="212.863" width="108.959" height="135.106" filterUnits="userSpaceOnUse" color-interpolation-filters="sRGB">
<feFlood flood-opacity="0" result="BackgroundImageFix"/>
<feColorMatrix in="SourceAlpha" type="matrix" values="0 0 0 0 0 0 0 0 0 0 0 0 0 0 0 0 0 0 127 0"/>
<feOffset dy="9"/>
<feGaussianBlur stdDeviation="9"/>
<feColorMatrix type="matrix" values="0 0 0 0 0.0941176 0 0 0 0 0.133333 0 0 0 0 0.219608 0 0 0 1 0"/>
<feBlend mode="normal" in2="BackgroundImageFix" result="effect1_dropShadow"/>
<feBlend mode="normal" in="SourceGraphic" in2="effect1_dropShadow" result="shape"/>
</filter>
<filter id="filter2_ddi" x="0.0551758" y="198.219" width="147.945" height="147.945" filterUnits="userSpaceOnUse" color-interpolation-filters="sRGB">
<feFlood flood-opacity="0" result="BackgroundImageFix"/>
<feColorMatrix in="SourceAlpha" type="matrix" values="0 0 0 0 0 0 0 0 0 0 0 0 0 0 0 0 0 0 127 0"/>
<feOffset dx="4" dy="4"/>
<feGaussianBlur stdDeviation="5"/>
<feColorMatrix type="matrix" values="0 0 0 0 0.764706 0 0 0 0 0.815686 0 0 0 0 0.894118 0 0 0 1 0"/>
<feBlend mode="normal" in2="BackgroundImageFix" result="effect1_dropShadow"/>
<feColorMatrix in="SourceAlpha" type="matrix" values="0 0 0 0 0 0 0 0 0 0 0 0 0 0 0 0 0 0 127 0"/>
<feOffset dx="-4" dy="-4"/>
<feGaussianBlur stdDeviation="5"/>
<feColorMatrix type="matrix" values="0 0 0 0 1 0 0 0 0 1 0 0 0 0 1 0 0 0 1 0"/>
<feBlend mode="normal" in2="effect1_dropShadow" result="effect2_dropShadow"/>
<feBlend mode="normal" in="SourceGraphic" in2="effect2_dropShadow" result="shape"/>
<feColorMatrix in="SourceAlpha" type="matrix" values="0 0 0 0 0 0 0 0 0 0 0 0 0 0 0 0 0 0 127 0" result="hardAlpha"/>
<feOffset dx="2" dy="2"/>
<feGaussianBlur stdDeviation="5"/>
<feComposite in2="hardAlpha" operator="arithmetic" k2="-1" k3="1"/>
<feColorMatrix type="matrix" values="0 0 0 0 0.85098 0 0 0 0 0.882353 0 0 0 0 0.937255 0 0 0 0.1 0"/>
<feBlend mode="normal" in2="shape" result="effect3_innerShadow"/>
</filter>
<filter id="filter3_ddi" x="840" y="197.621" width="148" height="148" filterUnits="userSpaceOnUse" color-interpolation-filters="sRGB">
<feFlood flood-opacity="0" result="BackgroundImageFix"/>
<feColorMatrix in="SourceAlpha" type="matrix" values="0 0 0 0 0 0 0 0 0 0 0 0 0 0 0 0 0 0 127 0"/>
<feOffset dx="4" dy="4"/>
<feGaussianBlur stdDeviation="5"/>
<feColorMatrix type="matrix" values="0 0 0 0 0.764706 0 0 0 0 0.815686 0 0 0 0 0.894118 0 0 0 1 0"/>
<feBlend mode="normal" in2="BackgroundImageFix" result="effect1_dropShadow"/>
<feColorMatrix in="SourceAlpha" type="matrix" values="0 0 0 0 0 0 0 0 0 0 0 0 0 0 0 0 0 0 127 0"/>
<feOffset dx="-4" dy="-4"/>
<feGaussianBlur stdDeviation="5"/>
<feColorMatrix type="matrix" values="0 0 0 0 1 0 0 0 0 1 0 0 0 0 1 0 0 0 1 0"/>
<feBlend mode="normal" in2="effect1_dropShadow" result="effect2_dropShadow"/>
<feBlend mode="normal" in="SourceGraphic" in2="effect2_dropShadow" result="shape"/>
<feColorMatrix in="SourceAlpha" type="matrix" values="0 0 0 0 0 0 0 0 0 0 0 0 0 0 0 0 0 0 127 0" result="hardAlpha"/>
<feOffset dx="2" dy="2"/>
<feGaussianBlur stdDeviation="5"/>
<feComposite in2="hardAlpha" operator="arithmetic" k2="-1" k3="1"/>
<feColorMatrix type="matrix" values="0 0 0 0 0.85098 0 0 0 0 0.882353 0 0 0 0 0.937255 0 0 0 0.1 0"/>
<feBlend mode="normal" in2="shape" result="effect3_innerShadow"/>
</filter>
<filter id="filter4_ddi" x="429.646" y="479.992" width="131.313" height="131.313" filterUnits="userSpaceOnUse" color-interpolation-filters="sRGB">
<feFlood flood-opacity="0" result="BackgroundImageFix"/>
<feColorMatrix in="SourceAlpha" type="matrix" values="0 0 0 0 0 0 0 0 0 0 0 0 0 0 0 0 0 0 127 0"/>
<feOffset dx="4" dy="4"/>
<feGaussianBlur stdDeviation="5"/>
<feColorMatrix type="matrix" values="0 0 0 0 0.764706 0 0 0 0 0.815686 0 0 0 0 0.894118 0 0 0 1 0"/>
<feBlend mode="normal" in2="BackgroundImageFix" result="effect1_dropShadow"/>
<feColorMatrix in="SourceAlpha" type="matrix" values="0 0 0 0 0 0 0 0 0 0 0 0 0 0 0 0 0 0 127 0"/>
<feOffset dx="-4" dy="-4"/>
<feGaussianBlur stdDeviation="5"/>
<feColorMatrix type="matrix" values="0 0 0 0 1 0 0 0 0 1 0 0 0 0 1 0 0 0 1 0"/>
<feBlend mode="normal" in2="effect1_dropShadow" result="effect2_dropShadow"/>
<feBlend mode="normal" in="SourceGraphic" in2="effect2_dropShadow" result="shape"/>
<feColorMatrix in="SourceAlpha" type="matrix" values="0 0 0 0 0 0 0 0 0 0 0 0 0 0 0 0 0 0 127 0" result="hardAlpha"/>
<feOffset dx="2" dy="2"/>
<feGaussianBlur stdDeviation="5"/>
<feComposite in2="hardAlpha" operator="arithmetic" k2="-1" k3="1"/>
<feColorMatrix type="matrix" values="0 0 0 0 0.85098 0 0 0 0 0.882353 0 0 0 0 0.937255 0 0 0 0.1 0"/>
<feBlend mode="normal" in2="shape" result="effect3_innerShadow"/>
</filter>
<linearGradient id="paint0_linear" x1="495.303" y1="114.254" x2="495.303" y2="350.425" gradientUnits="userSpaceOnUse">
<stop stop-color="#63799C" stop-opacity="0"/>
<stop offset="0.277397" stop-color="#4C5E86" stop-opacity="0.66"/>
<stop offset="1" stop-color="#151F35"/>
</linearGradient>
<linearGradient id="paint1_linear" x1="521.64" y1="243.785" x2="521.64" y2="305.474" gradientUnits="userSpaceOnUse">
<stop stop-color="#EEF2FA"/>
<stop offset="1" stop-color="#F6F8FC"/>
</linearGradient>
<linearGradient id="paint2_linear" x1="507.291" y1="250.625" x2="507.291" y2="311.467" gradientUnits="userSpaceOnUse">
<stop stop-color="#EEF2FA"/>
<stop offset="1" stop-color="#F6F8FC"/>
</linearGradient>
<linearGradient id="paint3_linear" x1="489.652" y1="259.086" x2="489.652" y2="320.969" gradientUnits="userSpaceOnUse">
<stop stop-color="#EEF2FA"/>
<stop offset="1" stop-color="#F6F8FC"/>
</linearGradient>
<linearGradient id="paint4_linear" x1="471.381" y1="231.797" x2="471.381" y2="293.304" gradientUnits="userSpaceOnUse">
<stop stop-color="#EEF2FA"/>
<stop offset="1" stop-color="#F6F8FC"/>
</linearGradient>
<linearGradient id="paint5_linear" x1="485.275" y1="229.316" x2="485.275" y2="286.344" gradientUnits="userSpaceOnUse">
<stop stop-color="#EEF2FA"/>
<stop offset="1" stop-color="#F6F8FC"/>
</linearGradient>
<linearGradient id="paint6_linear" x1="502.107" y1="221.863" x2="502.107" y2="278.594" gradientUnits="userSpaceOnUse">
<stop stop-color="#EEF2FA"/>
<stop offset="1" stop-color="#F6F8FC"/>
</linearGradient>
</defs>
</svg>
