<svg width="196" height="141" viewBox="0 0 196 141" fill="none" xmlns="http://www.w3.org/2000/svg">
<g clip-path="url(#clip0)">
<path d="M196 140.999C185.901 139.52 176.188 138.245 166.862 137.174L170.55 131.207C169.307 130.84 163.844 134.242 163.844 134.242L168.685 116.894C162.433 117.496 159.251 135.217 159.251 135.217L152.266 129.189L155.647 135.946C127.104 133 102.454 131.843 81.7196 131.709L84.8759 126.602C83.6328 126.235 78.1703 129.636 78.1703 129.636L83.0112 112.289C76.7586 112.891 73.577 130.612 73.577 130.612L66.5923 124.583L70.1733 131.74C52.791 131.951 38.6159 132.879 27.6747 133.96C30.8676 125.997 41.711 118.458 41.711 118.458C33.4305 120.482 29.0866 123.916 26.8165 127.126C26.643 117.274 27.8103 99.015 36.4829 78.834C36.4829 78.834 19.3634 109.933 21.5442 130.871L21.8049 134.588C7.29504 136.26 0 138.036 0 138.036L196 140.999Z" fill="#3F3D56"/>
<path d="M104.22 5.64749V131.315C104.218 132.812 103.623 134.247 102.564 135.306C101.505 136.364 100.069 136.958 98.572 136.959H47.5503C46.8086 136.96 46.0739 136.815 45.3883 136.532C44.7027 136.249 44.0797 135.833 43.5551 135.309C43.0304 134.785 42.6143 134.162 42.3307 133.477C42.0471 132.792 41.9016 132.057 41.9023 131.315V5.64749C41.9023 4.90583 42.0483 4.17143 42.3321 3.48621C42.616 2.801 43.032 2.1784 43.5565 1.65397C44.0809 1.12954 44.7036 0.713549 45.3889 0.429759C46.0741 0.145969 46.8086 -6.39032e-05 47.5503 2.64959e-07H55.1856V0.979053C55.1855 2.21228 55.6752 3.39508 56.5471 4.26728C57.419 5.13949 58.6017 5.62968 59.8351 5.63004H85.7851C86.7778 5.63216 87.7447 5.31396 88.5422 4.72272C88.7034 4.60547 88.8563 4.47721 88.9997 4.33885C89.454 3.90517 89.8154 3.38374 90.062 2.8062C90.3086 2.22866 90.4354 1.60704 90.4345 0.979053V2.64959e-07H98.572C99.3138 -0.000226959 100.048 0.145695 100.734 0.429427C101.419 0.71316 102.042 1.12914 102.566 1.6536C103.091 2.17807 103.507 2.80073 103.791 3.48602C104.074 4.17131 104.22 4.90579 104.22 5.64749V5.64749Z" fill="#3F3D56"/>
<path d="M56.116 22.2962C56.8656 22.2962 57.4732 21.6886 57.4732 20.9391C57.4732 20.1896 56.8656 19.582 56.116 19.582C55.3664 19.582 54.7588 20.1896 54.7588 20.9391C54.7588 21.6886 55.3664 22.2962 56.116 22.2962Z" fill="#F2F2F2"/>
<path d="M88.9996 4.33984C88.8561 4.4782 88.7032 4.60646 88.542 4.72371C90.2042 7.64862 92.4562 10.1962 95.155 12.205C97.8538 14.2138 100.941 15.6399 104.22 16.3929V15.788C101.029 15.0354 98.0294 13.6295 95.4097 11.659C92.79 9.68858 90.6073 7.19639 88.9996 4.33984Z" fill="#6C63FF"/>
<path d="M77.4035 5.63086H76.7676C79.0252 11.3668 82.7488 16.4097 87.5663 20.2558C92.3838 24.1019 98.1264 26.6164 104.22 27.5481V26.9471C98.285 26.0254 92.6918 23.5756 87.9901 19.8383C83.2884 16.101 79.64 11.2048 77.4035 5.63086V5.63086Z" fill="#6C63FF"/>
<path d="M65.6889 5.63086H65.0762C70.2006 23.4167 85.6632 36.6562 104.22 38.8062V38.2149C85.9851 36.0746 70.7881 23.0871 65.6889 5.63086Z" fill="#6C63FF"/>
<path d="M51.6574 30.9841H51.3041V30.6309H51.2353V30.9841H50.8818V31.0531H51.2353V31.4063H51.3041V31.0531H51.6574V30.9841Z" fill="#F2F2F2"/>
<path d="M75.505 13.3435H75.1518V12.9902H75.0829V13.3435H74.7295V13.4125H75.0829V13.7657H75.1518V13.4125H75.505V13.3435Z" fill="#F2F2F2"/>
<path d="M55.1467 44.9431H54.7934V44.5898H54.7246V44.9431H54.3711V45.0121H54.7246V45.3653H54.7934V45.0121H55.1467V44.9431Z" fill="#F2F2F2"/>
<path d="M71.4337 34.6677H71.0805V34.3145H71.0117V34.6677H70.6582V34.7367H71.0117V35.0899H71.0805V34.7367H71.4337V34.6677Z" fill="#F2F2F2"/>
<path d="M94.7003 41.0661H94.3471V40.7129H94.2783V41.0661H93.9248V41.1351H94.2783V41.4884H94.3471V41.1351H94.7003V41.0661Z" fill="#F2F2F2"/>
<path d="M90.6291 25.01C91.0574 25.01 91.4046 24.6628 91.4046 24.2345C91.4046 23.8062 91.0574 23.459 90.6291 23.459C90.2007 23.459 89.8535 23.8062 89.8535 24.2345C89.8535 24.6628 90.2007 25.01 90.6291 25.01Z" fill="#FF6584"/>
<path d="M62.8444 42.4199L62.4043 42.4878C62.542 43.368 62.6505 44.2675 62.73 45.1574L63.174 45.1186C63.0945 44.2171 62.984 43.3098 62.8444 42.4199Z" fill="#E6E6E6"/>
<path d="M61.6404 37.1191L61.2139 37.249C61.4717 38.1021 61.7025 38.9764 61.8983 39.8469L62.3345 39.7481C62.1348 38.8679 61.9002 37.9838 61.6404 37.1191Z" fill="#E6E6E6"/>
<path d="M59.7187 32.0352L59.3135 32.2213C59.6857 33.0336 60.0347 33.8672 60.3508 34.7009L60.7676 34.5439C60.4477 33.7005 60.0968 32.8552 59.7187 32.0352Z" fill="#E6E6E6"/>
<path d="M57.1203 27.2695L56.7441 27.508C57.223 28.2602 57.6826 29.0396 58.1091 29.8209L58.5008 29.6076C58.0703 28.8166 57.605 28.0295 57.1203 27.2695Z" fill="#E6E6E6"/>
<path d="M53.8901 22.9023L53.5508 23.1912C54.1286 23.8698 54.6909 24.5793 55.2221 25.2967L55.5789 25.0311C55.0437 24.306 54.4756 23.5886 53.8901 22.9023Z" fill="#E6E6E6"/>
<path d="M50.0945 19.0137L49.7979 19.3452C50.4648 19.9404 51.1182 20.5666 51.7406 21.2044L52.0605 20.8923C51.4304 20.2467 50.7692 19.6147 50.0945 19.0137Z" fill="#E6E6E6"/>
<path d="M45.8058 15.6738L45.5557 16.0422C46.2963 16.5404 47.0292 17.0716 47.733 17.6203L48.0084 17.2694C47.2948 16.7149 46.5542 16.1779 45.8058 15.6738Z" fill="#E6E6E6"/>
<path d="M41.9023 13.3555V13.8595C42.3657 14.1019 42.8253 14.3558 43.2751 14.6156L43.4981 14.2298C42.9745 13.9274 42.4426 13.6359 41.9023 13.3555Z" fill="#E6E6E6"/>
<path d="M62.7432 84.2959C62.8155 83.8624 62.8816 83.4198 62.9399 82.9805L63.3818 83.0391C63.3229 83.4833 63.256 83.9307 63.1829 84.3692L62.7432 84.2959Z" fill="#E6E6E6"/>
<path d="M61.501 89.527L61.927 89.6596C62.1943 88.7981 62.4363 87.9155 62.6458 87.0363L62.2117 86.9336C62.004 87.8034 61.7663 88.6749 61.501 89.527Z" fill="#E6E6E6"/>
<path d="M59.5537 94.535L59.9582 94.7246C60.3428 93.9088 60.7028 93.0682 61.0294 92.2267L60.6133 92.0645C60.2906 92.8968 59.9345 93.7283 59.5537 94.535Z" fill="#E6E6E6"/>
<path d="M56.9346 99.2334L57.3084 99.4761C57.8015 98.7201 58.2746 97.9363 58.715 97.1477L58.3262 96.9297C57.8915 97.7095 57.4223 98.4842 56.9346 99.2334Z" fill="#E6E6E6"/>
<path d="M53.6934 103.525L54.0312 103.818C54.6244 103.134 55.1994 102.422 55.7445 101.702L55.3875 101.436C54.8501 102.147 54.2808 102.85 53.6934 103.525Z" fill="#E6E6E6"/>
<path d="M49.8975 107.333L50.1911 107.668C50.8728 107.073 51.5395 106.445 52.1766 105.808L51.8612 105.492C51.2314 106.123 50.5704 106.742 49.8975 107.333Z" fill="#E6E6E6"/>
<path d="M45.6221 110.589L45.8683 110.962C46.6211 110.465 47.3688 109.935 48.0861 109.389L47.8165 109.033C47.1061 109.575 46.3676 110.098 45.6221 110.589Z" fill="#E6E6E6"/>
<path d="M43.5485 112.378C43.0094 112.682 42.4588 112.977 41.9023 113.256V112.756C42.3832 112.512 42.8602 112.254 43.3274 111.992L43.5485 112.378Z" fill="#E6E6E6"/>
<path d="M62.875 47.9065L63.3207 47.8984C63.3288 48.3484 63.3295 48.8008 63.3225 49.2432L62.8769 49.2362C62.8836 48.7989 62.8831 48.3515 62.875 47.9065Z" fill="#E6E6E6"/>
<path d="M43.8613 58.4785H89.4658C92.8597 58.4785 96.1145 59.8266 98.5144 62.2262C100.914 64.6259 102.262 67.8805 102.262 71.274V72.9678H56.6579C53.2641 72.9678 50.0092 71.6197 47.6094 69.2201C45.2095 66.8204 43.8613 63.5658 43.8613 60.1723V58.4785V58.4785Z" fill="white"/>
<path d="M74.1269 136.782C74.0824 136.709 73.0332 134.957 72.6695 131.32C72.3359 127.983 72.5504 122.358 75.4678 114.512C80.9948 99.6473 74.1941 87.6539 74.1246 87.5345L74.4601 87.3398C74.4778 87.3701 76.2326 90.428 77.2693 95.2971C78.639 101.753 78.1402 108.465 75.8314 114.647C70.3139 129.486 74.4158 136.51 74.4579 136.58L74.1269 136.782Z" fill="#F2F2F2"/>
<path d="M71.9659 86.6598C73.3579 86.6598 74.4864 85.5314 74.4864 84.1395C74.4864 82.7475 73.3579 81.6191 71.9659 81.6191C70.5738 81.6191 69.4453 82.7475 69.4453 84.1395C69.4453 85.5314 70.5738 86.6598 71.9659 86.6598Z" fill="#4247DC"/>
<path d="M79.9151 95.9665C81.3071 95.9665 82.4356 94.8381 82.4356 93.4461C82.4356 92.0542 81.3071 90.9258 79.9151 90.9258C78.523 90.9258 77.3945 92.0542 77.3945 93.4461C77.3945 94.8381 78.523 95.9665 79.9151 95.9665Z" fill="#F2F2F2"/>
<path d="M74.4854 102.172C75.8775 102.172 77.0059 101.043 77.0059 99.6512C77.0059 98.2592 75.8775 97.1309 74.4854 97.1309C73.0933 97.1309 71.9648 98.2592 71.9648 99.6512C71.9648 101.043 73.0933 102.172 74.4854 102.172Z" fill="#4247DC"/>
<path d="M81.0782 107.406C82.4702 107.406 83.5987 106.278 83.5987 104.886C83.5987 103.494 82.4702 102.365 81.0782 102.365C79.6861 102.365 78.5576 103.494 78.5576 104.886C78.5576 106.278 79.6861 107.406 81.0782 107.406Z" fill="#4247DC"/>
<path d="M72.5469 115.548C73.939 115.548 75.0675 114.42 75.0675 113.028C75.0675 111.636 73.939 110.508 72.5469 110.508C71.1549 110.508 70.0264 111.636 70.0264 113.028C70.0264 114.42 71.1549 115.548 72.5469 115.548Z" fill="#F2F2F2"/>
<path d="M75.6494 136.874C75.6494 136.874 73.1288 130.671 80.6905 126.018L75.6494 136.874Z" fill="#F2F2F2"/>
<path d="M72.5491 136.762C72.5491 136.762 71.402 130.165 62.5234 130.221L72.5491 136.762Z" fill="#F2F2F2"/>
<path opacity="0.2" d="M62.515 81.2324C71.0815 81.2324 78.026 74.2885 78.026 65.7227C78.026 57.1568 71.0815 50.2129 62.515 50.2129C53.9484 50.2129 47.0039 57.1568 47.0039 65.7227C47.0039 74.2885 53.9484 81.2324 62.515 81.2324Z" fill="#6C63FF"/>
<path opacity="0.2" d="M62.5151 76.6455C68.5478 76.6455 73.4384 71.7554 73.4384 65.7232C73.4384 59.6909 68.5478 54.8008 62.5151 54.8008C56.4823 54.8008 51.5918 59.6909 51.5918 65.7232C51.5918 71.7554 56.4823 76.6455 62.5151 76.6455Z" fill="#6C63FF"/>
<path d="M62.515 72.9312C66.4966 72.9312 69.7244 69.7037 69.7244 65.7224C69.7244 61.7412 66.4966 58.5137 62.515 58.5137C58.5334 58.5137 55.3057 61.7412 55.3057 65.7224C55.3057 69.7037 58.5334 72.9312 62.515 72.9312Z" fill="#4247DC"/>
<path d="M63.8257 64.1685C63.8258 63.9473 63.7698 63.7297 63.6631 63.5359C63.5564 63.3421 63.4024 63.1785 63.2154 63.0603C63.0285 62.9421 62.8146 62.8731 62.5938 62.8598C62.373 62.8465 62.1524 62.8893 61.9526 62.9842C61.7528 63.079 61.5802 63.223 61.451 63.4025C61.3218 63.582 61.2401 63.7913 61.2136 64.0109C61.187 64.2305 61.2165 64.4533 61.2993 64.6584C61.382 64.8636 61.5154 65.0444 61.6868 65.1841L61.2041 68.5631H63.8257L63.3429 65.1841C63.4939 65.0614 63.6156 64.9065 63.6991 64.7308C63.7826 64.5551 63.8258 64.363 63.8257 64.1685V64.1685Z" fill="white"/>
<path d="M134.967 10.3342C134.967 10.3342 130.642 6.45773 124.827 13.7633C119.012 21.0689 109.917 24.6472 107.829 27.48C107.829 27.48 116.477 23.9017 119.459 22.4108C122.442 20.9198 122.292 21.218 122.292 21.218C122.292 21.218 118.267 24.0508 117.521 26.8836C116.776 29.7164 117.372 32.1019 116.03 34.9347C114.688 37.7675 141.676 36.8729 141.676 36.8729C141.676 36.8729 144.36 32.251 143.615 27.48C142.869 22.709 143.316 10.9306 134.967 10.3342Z" fill="#2F2E41"/>
<path d="M126.789 22.5273C126.789 22.5273 127.729 29.1087 123.699 30.5861C119.67 32.0636 121.147 34.0782 121.147 34.0782L127.192 37.0331L133.639 35.0184L135.789 31.7949C135.789 31.7949 132.296 30.989 133.236 28.5714C134.177 26.1538 134.445 25.3479 134.445 25.3479L126.789 22.5273Z" fill="#FFB9B9"/>
<path opacity="0.1" d="M126.789 22.5273C126.789 22.5273 127.729 29.1087 123.699 30.5861C119.67 32.0636 121.147 34.0782 121.147 34.0782L127.192 37.0331L133.639 35.0184L135.789 31.7949C135.789 31.7949 132.296 30.989 133.236 28.5714C134.177 26.1538 134.445 25.3479 134.445 25.3479L126.789 22.5273Z" fill="black"/>
<path d="M143.713 41.332C143.713 41.332 142.773 53.6888 143.042 54.2261C143.31 54.7633 143.042 73.4328 143.042 73.4328C143.042 73.4328 144.922 83.5062 142.504 84.0435C140.087 84.5807 140.624 72.7612 140.624 72.7612L138.206 57.1809L138.475 41.735L143.713 41.332Z" fill="#FFB9B9"/>
<path opacity="0.1" d="M143.713 41.332C143.713 41.332 142.773 53.6888 143.042 54.2261C143.31 54.7633 143.042 73.4328 143.042 73.4328C143.042 73.4328 144.922 83.5062 142.504 84.0435C140.087 84.5807 140.624 72.7612 140.624 72.7612L138.206 57.1809L138.475 41.735L143.713 41.332Z" fill="black"/>
<path d="M117.52 78.5371C117.52 78.5371 113.087 95.3262 113.222 103.519C113.356 111.712 115.102 123.129 115.102 123.129C115.102 123.129 115.371 128.099 114.968 128.636C114.565 129.173 116.983 131.456 116.983 131.456L119.535 129.979L120.475 128.904V127.964C120.475 127.964 118.998 123.398 120.207 119.771C121.415 116.145 122.087 107.011 120.878 104.191L129.206 79.4773L117.52 78.5371Z" fill="#FFB9B9"/>
<path d="M117.251 129.308C117.251 129.308 115.639 127.293 114.564 127.965C113.49 128.636 111.744 133.203 111.744 133.203C111.744 133.203 105.699 138.978 109.997 139.247C114.296 139.516 116.176 138.038 116.714 136.964C117.251 135.889 122.221 133.068 122.221 133.068C122.221 133.068 121.684 127.965 120.878 127.83C120.072 127.696 118.863 129.845 118.863 129.845L117.251 129.308Z" fill="#2F2E41"/>
<path d="M132.161 79.6114V96.2662C132.176 98.287 132.311 100.305 132.564 102.31C132.967 105.265 130.28 127.292 130.28 127.292L130.549 131.187L133.907 130.919L134.31 127.561L139.146 112.787C139.146 112.787 140.758 103.788 139.952 100.43C139.146 97.0721 144.116 75.582 144.116 75.582L132.161 79.6114Z" fill="#FFB9B9"/>
<path d="M129.474 130.247L130.469 130.031C130.469 130.031 131.221 128.367 132.161 128.77C132.822 129.075 133.449 129.451 134.03 129.89L134.444 130.65C134.444 130.65 135.385 132.665 136.593 134.008C137.802 135.351 139.146 138.306 137.131 138.575C135.116 138.843 132.429 138.978 131.624 138.306C130.818 137.635 131.355 136.56 130.549 136.291C129.743 136.023 129.071 135.217 129.206 134.948C129.34 134.68 129.474 130.247 129.474 130.247Z" fill="#2F2E41"/>
<path d="M132.161 27.1555C135.458 27.1555 138.131 24.4829 138.131 21.1862C138.131 17.8894 135.458 15.2168 132.161 15.2168C128.864 15.2168 126.191 17.8894 126.191 21.1862C126.191 24.4829 128.864 27.1555 132.161 27.1555Z" fill="#FFB9B9"/>
<path d="M120.878 31.6624L122.652 31.043C122.652 31.043 121.953 32.1996 125.714 32.8712C129.475 33.5428 133.37 33.7805 135.116 31.5798C135.116 31.5798 135.788 31.2594 136.728 32.1996C137.668 33.1398 138.206 32.8712 138.206 32.8712L137.534 36.3633L136.191 42.8103L134.445 47.6456L129.475 46.5711L124.102 42.676L122.087 37.4378V32.6026L120.878 31.6624Z" fill="#4247DC"/>
<path d="M137.266 33.5425L138.609 32.6023C138.609 32.6023 143.176 33.4082 143.445 35.5572L139.952 42.2729C140.665 44.1415 140.616 46.2148 139.818 48.0483C138.475 51.1375 138.609 51.8091 138.609 51.8091L137.669 55.8384L120.61 57.1816C120.61 57.1816 119.938 55.5698 119.669 55.3012C119.401 55.0326 119.401 54.0924 119.669 54.0924C119.938 54.0924 119.669 53.6894 119.401 53.2865C119.132 52.8836 118.998 52.7493 119.401 52.212C119.804 51.6747 118.729 46.8395 118.729 46.8395V41.6013L114.162 35.5572C114.162 35.5572 115.774 33.1396 116.58 32.871C117.386 32.6023 121.22 31.543 121.22 31.543L122.087 32.8202L123.296 42.5415L125.042 48.4512L132.395 47.2021L135.251 42.4072L137.132 36.766L137.266 33.5425Z" fill="#4247DC"/>
<path d="M142.37 34.75L143.444 35.5559C143.444 35.5559 144.385 43.0774 144.116 43.6146C143.847 44.1519 139.146 44.6891 139.012 44.4205C138.877 44.1519 142.37 34.75 142.37 34.75Z" fill="#4247DC"/>
<path d="M120.206 30.9904L121.55 39.855C121.55 39.855 120.341 53.0177 120.609 55.7039L120.878 56.5098C120.878 56.5098 120.341 56.2412 120.206 56.7784C120.072 57.3157 120.206 59.0618 120.206 59.0618C120.206 59.0618 119.4 59.8676 119.132 64.3C118.863 68.7323 115.639 79.343 116.848 79.7459C118.057 80.1489 125.311 82.1636 129.206 81.7606C133.102 81.3577 147.071 76.6567 146.937 75.4479C146.803 74.2391 140.086 57.1814 140.086 57.1814C140.086 57.1814 138.878 55.1667 138.878 54.8981C138.878 54.6294 140.489 53.5549 140.086 52.4804C139.683 51.4059 137.534 40.1237 137.534 40.1237L139.012 32.0649L136.997 31.5276L135.519 39.3178C135.519 39.3178 129.743 42.1383 123.699 39.5864L122.356 30.4531L120.206 30.9904Z" fill="#2F2E41"/>
<path d="M126.669 16.9011C126.669 16.9011 136.609 23.751 139.295 20.6619C141.982 17.5727 134.594 14.8864 134.594 14.8864L128.415 14.2148L126.669 16.9011Z" fill="#2F2E41"/>
<path d="M111.225 89.7711C112.248 90.5327 113.514 90.895 114.785 90.7901C116.056 90.6852 117.245 90.1204 118.13 89.2015C119.014 88.2826 119.533 87.0727 119.589 85.7986C119.645 84.5245 119.235 83.2737 118.435 82.2806C117.634 81.2875 116.5 80.6202 115.243 80.404C113.986 80.1878 112.693 80.4373 111.607 81.106C110.521 81.7746 109.716 82.8163 109.343 84.0359C108.97 85.2555 109.055 86.5693 109.581 87.7309L95.8718 99.1445L94.0465 96.9783L93.2263 97.5268L92.3136 96.4436L93.0636 95.8118L92.1509 94.7287L90.9843 95.7115L91.546 96.3781L90.2961 97.4311L89.7345 96.7645L87.9014 98.3089L88.7438 99.3088L89.4104 98.7471L90.3231 99.8303L89.4899 100.532L91.1748 102.532L89.175 104.217L91.211 106.633L111.225 89.7711ZM114.648 82.1147C115.331 82.1731 115.982 82.4328 116.517 82.8608C117.053 83.2889 117.45 83.8662 117.657 84.5197C117.865 85.1732 117.874 85.8735 117.683 86.5322C117.493 87.1908 117.111 87.7782 116.587 88.22C116.062 88.6618 115.419 88.9382 114.737 89.0142C114.056 89.0903 113.367 88.9625 112.758 88.6471C112.149 88.3318 111.648 87.843 111.316 87.2425C110.985 86.6421 110.84 85.9569 110.898 85.2738C110.977 84.3577 111.416 83.5102 112.119 82.9177C112.822 82.3253 113.732 82.0365 114.648 82.1147V82.1147Z" fill="#4247DC"/>
<path d="M113.221 42.9434C113.221 42.9434 114.162 55.3001 113.893 55.8374C113.624 56.3746 113.893 75.0441 113.893 75.0441C113.893 75.0441 112.013 85.1176 114.43 85.6548C116.848 86.1921 116.311 74.3725 116.311 74.3725L118.729 58.7923L118.46 43.3463L113.221 42.9434Z" fill="#FFB9B9"/>
<path d="M115.237 35.1543L114.162 35.5572C114.162 35.5572 112.148 44.0189 112.685 44.0189C113.222 44.0189 119.67 44.8248 119.67 44.5562C119.67 44.2876 118.461 37.7062 118.461 37.7062L115.237 35.1543Z" fill="#4247DC"/>
</g>
<defs>
<clipPath id="clip0">
<rect width="196" height="141" fill="white"/>
</clipPath>
</defs>
</svg>
