<svg width="206" height="141" viewBox="0 0 206 141" fill="none" xmlns="http://www.w3.org/2000/svg">
<g clip-path="url(#clip0)">
<path d="M100.273 7.06545H100.034V6.64632H100.213C100.245 6.64632 100.275 6.6337 100.298 6.61124C100.32 6.58878 100.333 6.55832 100.333 6.52656V4.371C100.333 4.33924 100.32 4.30878 100.298 4.28632C100.275 4.26386 100.245 4.25124 100.213 4.25124H100.034V3.02707C100.034 2.68459 99.9671 2.34546 99.8365 2.02905C99.7059 1.71264 99.5145 1.42515 99.2731 1.18298C99.0318 0.940807 98.7453 0.748709 98.43 0.617649C98.1147 0.486589 97.7768 0.419134 97.4355 0.419136H97.1703V0.119754C97.1703 0.0879929 97.1577 0.057533 97.1353 0.0350749C97.1129 0.0126168 97.0826 0 97.0509 0H94.9029C94.8712 0 94.8409 0.0126168 94.8185 0.0350749C94.7961 0.057533 94.7835 0.0879929 94.7835 0.119754V0.419136H55.9729C55.6316 0.419134 55.2936 0.486589 54.9783 0.617649C54.663 0.748709 54.3765 0.940807 54.1352 1.18298C53.8939 1.42515 53.7025 1.71264 53.5718 2.02905C53.4412 2.34546 53.374 2.68459 53.374 3.02707V58.5261C53.374 58.8686 53.4412 59.2077 53.5718 59.5242C53.7024 59.8406 53.8939 60.1281 54.1352 60.3702C54.3765 60.6124 54.663 60.8045 54.9783 60.9356C55.2936 61.0666 55.6316 61.1341 55.9729 61.1341H97.4355C97.7768 61.1341 98.1147 61.0666 98.43 60.9356C98.7453 60.8045 99.0318 60.6124 99.2731 60.3702C99.5145 60.1281 99.7059 59.8406 99.8365 59.5242C99.9671 59.2077 100.034 58.8686 100.034 58.5261V9.46051H100.273C100.305 9.46051 100.335 9.44789 100.357 9.42544C100.38 9.40298 100.392 9.37252 100.392 9.34076V7.1852C100.392 7.15344 100.38 7.12298 100.357 7.10052C100.335 7.07806 100.305 7.06545 100.273 7.06545Z" fill="#3F3D56"/>
<path d="M98.2442 2.125H55.5215V59.0091H98.2442V2.125Z" fill="#F6F8FC"/>
<path d="M206 118.887H0V119.243H206V118.887Z" fill="#3F3D56"/>
<path d="M48.1076 101.132C48.5053 114.799 40.5474 119.808 30.5605 120.1C30.3285 120.107 30.0976 120.111 29.8677 120.113C29.4046 120.117 28.9459 120.109 28.4918 120.09C19.4596 119.714 12.3101 114.902 11.9402 102.192C11.5574 89.0379 27.8272 71.9471 29.0479 70.6828C29.049 70.6828 29.049 70.6828 29.0501 70.6817C29.0965 70.6335 29.1202 70.6094 29.1202 70.6094C29.1202 70.6094 47.7098 87.4656 48.1076 101.132Z" fill="#4247DC"/>
<path d="M29.841 118.031L36.1851 108.564L29.854 119.05L29.8672 120.115C29.4041 120.118 28.9455 120.111 28.4913 120.092L28.806 106.398L28.7973 106.292L28.809 106.272L28.8391 104.978L21.8916 94.8556L28.8309 104.009L28.8555 104.283L29.0931 93.9367L23.0924 83.4423L29.1102 92.1192L29.0474 70.6846L29.0476 70.6133L29.0496 70.6834L29.4479 87.5768L34.9169 80.7147L29.4658 89.0321L29.5852 98.2865L34.6178 89.2545L29.6037 99.647L29.6701 104.793L36.9888 92.2116L29.6924 106.588L29.841 118.031Z" fill="#3F3D56"/>
<path d="M153.765 18.9232H153.501V11.6605C153.501 11.1085 153.393 10.5619 153.182 10.0519C152.972 9.5419 152.663 9.07852 152.274 8.68819C151.885 8.29786 151.423 7.98824 150.915 7.777C150.407 7.56575 149.862 7.45703 149.312 7.45703H133.979C133.429 7.45703 132.884 7.56575 132.376 7.777C131.868 7.98824 131.406 8.29786 131.017 8.68819C130.628 9.07852 130.319 9.5419 130.109 10.0519C129.898 10.5619 129.79 11.1085 129.79 11.6605V51.5042C129.79 52.0562 129.898 52.6028 130.109 53.1128C130.319 53.6228 130.628 54.0862 131.017 54.4765C131.406 54.8668 131.868 55.1764 132.376 55.3877C132.884 55.5989 133.429 55.7077 133.979 55.7077H149.312C149.862 55.7077 150.407 55.5989 150.915 55.3877C151.423 55.1764 151.885 54.8668 152.274 54.4765C152.663 54.0862 152.972 53.6228 153.182 53.1128C153.393 52.6028 153.501 52.0562 153.501 51.5042V24.0929H153.765V18.9232Z" fill="#3F3D56"/>
<path d="M152.609 11.9082V51.6937C152.609 52.5263 152.28 53.3248 151.693 53.9136C151.107 54.5025 150.311 54.8333 149.481 54.8335H134.074C133.244 54.8333 132.449 54.5025 131.862 53.9136C131.276 53.3248 130.946 52.5263 130.946 51.6937V11.9082C130.946 11.0758 131.276 10.2775 131.862 9.68891C132.449 9.10032 133.244 8.76962 134.074 8.76953H135.943C135.851 8.99597 135.816 9.24163 135.841 9.48488C135.866 9.72814 135.95 9.96151 136.086 10.1644C136.222 10.3674 136.406 10.5337 136.621 10.6486C136.836 10.7636 137.076 10.8237 137.319 10.8237H146.104C146.347 10.8237 146.587 10.7636 146.802 10.6486C147.018 10.5337 147.201 10.3674 147.337 10.1644C147.473 9.96151 147.557 9.72814 147.582 9.48489C147.607 9.24163 147.572 8.99597 147.48 8.76953H149.481C150.311 8.76962 151.106 9.10032 151.693 9.68891C152.279 10.2775 152.609 11.0758 152.609 11.9082V11.9082Z" fill="#F6F8FC"/>
<path d="M150.35 14.0586H137.333V14.544H150.35V14.0586Z" fill="#CCCCCC"/>
<path d="M150.35 15.5977H137.333V16.083H150.35V15.5977Z" fill="#CCCCCC"/>
<path d="M150.35 17.1328H137.333V17.6182H150.35V17.1328Z" fill="#CCCCCC"/>
<path d="M136.154 14.3594H133.205V17.3189H136.154V14.3594Z" fill="#CCCCCC"/>
<path d="M150.35 48.5879H137.333V49.0733H150.35V48.5879Z" fill="#CCCCCC"/>
<path d="M150.35 50.123H137.333V50.6084H150.35V50.123Z" fill="#CCCCCC"/>
<path d="M150.35 51.6602H137.333V52.1455H150.35V51.6602Z" fill="#CCCCCC"/>
<path d="M136.154 48.8867H133.205V51.8462H136.154V48.8867Z" fill="#CCCCCC"/>
<path d="M148.961 67.7305H111.944V66.9648H95.1584V67.7305H57.9883C57.6595 67.7305 57.3339 67.7955 57.0301 67.9217C56.7263 68.048 56.4503 68.2331 56.2178 68.4664C55.9853 68.6998 55.8008 68.9768 55.675 69.2816C55.5491 69.5865 55.4844 69.9132 55.4844 70.2432V121.109C55.4844 121.775 55.7482 122.414 56.2178 122.886C56.6873 123.357 57.3242 123.622 57.9883 123.622H148.961C149.625 123.622 150.262 123.357 150.732 122.886C151.201 122.414 151.465 121.775 151.465 121.109V70.2432C151.465 69.9132 151.4 69.5865 151.274 69.2816C151.149 68.9768 150.964 68.6998 150.732 68.4664C150.499 68.2331 150.223 68.048 149.919 67.9217C149.615 67.7955 149.29 67.7305 148.961 67.7305V67.7305Z" fill="#3F3D56"/>
<path d="M148.107 72.1719H58.8408V122.704H148.107V72.1719Z" fill="#F6F8FC"/>
<path d="M103.398 70.7945C103.904 70.7945 104.314 70.3832 104.314 69.8758C104.314 69.3684 103.904 68.957 103.398 68.957C102.892 68.957 102.482 69.3684 102.482 69.8758C102.482 70.3832 102.892 70.7945 103.398 70.7945Z" fill="#6C63FF"/>
<path d="M153.971 121.786H145.259V121.156C145.259 121.14 145.256 121.124 145.249 121.108C145.243 121.093 145.234 121.079 145.222 121.068C145.211 121.056 145.197 121.047 145.182 121.041C145.167 121.034 145.151 121.031 145.134 121.031H142.148C142.131 121.031 142.115 121.034 142.1 121.041C142.085 121.047 142.071 121.056 142.06 121.068C142.048 121.079 142.039 121.093 142.033 121.108C142.026 121.124 142.023 121.14 142.023 121.156V121.786H140.156V121.156C140.156 121.14 140.153 121.124 140.147 121.108C140.141 121.093 140.131 121.079 140.12 121.068C140.108 121.056 140.095 121.047 140.079 121.041C140.064 121.034 140.048 121.031 140.032 121.031H137.045C137.029 121.031 137.012 121.034 136.997 121.041C136.982 121.047 136.968 121.056 136.957 121.068C136.945 121.079 136.936 121.093 136.93 121.108C136.924 121.124 136.92 121.14 136.92 121.156V121.786H135.054V121.156C135.054 121.14 135.05 121.124 135.044 121.108C135.038 121.093 135.029 121.079 135.017 121.068C135.006 121.056 134.992 121.047 134.977 121.041C134.962 121.034 134.945 121.031 134.929 121.031H131.942C131.926 121.031 131.91 121.034 131.895 121.041C131.88 121.047 131.866 121.056 131.854 121.068C131.843 121.079 131.834 121.093 131.827 121.108C131.821 121.124 131.818 121.14 131.818 121.156V121.786H129.951V121.156C129.951 121.14 129.948 121.124 129.941 121.108C129.935 121.093 129.926 121.079 129.915 121.068C129.903 121.056 129.889 121.047 129.874 121.041C129.859 121.034 129.843 121.031 129.827 121.031H126.84C126.823 121.031 126.807 121.034 126.792 121.041C126.777 121.047 126.763 121.056 126.752 121.068C126.74 121.079 126.731 121.093 126.725 121.108C126.718 121.124 126.715 121.14 126.715 121.156V121.786H124.848V121.156C124.848 121.14 124.845 121.124 124.839 121.108C124.833 121.093 124.823 121.079 124.812 121.068C124.8 121.056 124.787 121.047 124.771 121.041C124.756 121.034 124.74 121.031 124.724 121.031H121.737C121.721 121.031 121.704 121.034 121.689 121.041C121.674 121.047 121.66 121.056 121.649 121.068C121.637 121.079 121.628 121.093 121.622 121.108C121.616 121.124 121.612 121.14 121.612 121.156V121.786H119.746V121.156C119.746 121.14 119.742 121.124 119.736 121.108C119.73 121.093 119.721 121.079 119.709 121.068C119.698 121.056 119.684 121.047 119.669 121.041C119.654 121.034 119.638 121.031 119.621 121.031H116.634C116.618 121.031 116.602 121.034 116.587 121.041C116.572 121.047 116.558 121.056 116.546 121.068C116.535 121.079 116.526 121.093 116.519 121.108C116.513 121.124 116.51 121.14 116.51 121.156V121.786H114.643V121.156C114.643 121.14 114.64 121.124 114.634 121.108C114.627 121.093 114.618 121.079 114.607 121.068C114.595 121.056 114.581 121.047 114.566 121.041C114.551 121.034 114.535 121.031 114.519 121.031H91.1211C91.1047 121.031 91.0886 121.034 91.0735 121.041C91.0584 121.047 91.0446 121.056 91.0331 121.068C91.0215 121.079 91.0124 121.093 91.0061 121.108C90.9998 121.124 90.9966 121.14 90.9966 121.156V121.786H89.1298V121.156C89.1298 121.14 89.1266 121.124 89.1203 121.108C89.1141 121.093 89.1049 121.079 89.0934 121.068C89.0818 121.056 89.0681 121.047 89.053 121.041C89.0379 121.034 89.0217 121.031 89.0054 121.031H86.0184C86.0021 121.031 85.9859 121.034 85.9708 121.041C85.9557 121.047 85.942 121.056 85.9304 121.068C85.9189 121.079 85.9097 121.093 85.9035 121.108C85.8972 121.124 85.894 121.14 85.894 121.156V121.786H84.0272V121.156C84.0272 121.14 84.0239 121.124 84.0177 121.108C84.0114 121.093 84.0023 121.079 83.9907 121.068C83.9792 121.056 83.9654 121.047 83.9503 121.041C83.9352 121.034 83.9191 121.031 83.9027 121.031H80.9158C80.8995 121.031 80.8833 121.034 80.8682 121.041C80.8531 121.047 80.8394 121.056 80.8278 121.068C80.8162 121.079 80.8071 121.093 80.8008 121.108C80.7946 121.124 80.7913 121.14 80.7913 121.156V121.786H78.9245V121.156C78.9245 121.14 78.9213 121.124 78.915 121.108C78.9088 121.093 78.8996 121.079 78.8881 121.068C78.8765 121.056 78.8628 121.047 78.8477 121.041C78.8326 121.034 78.8164 121.031 78.8001 121.031H75.8132C75.7968 121.031 75.7806 121.034 75.7655 121.041C75.7504 121.047 75.7367 121.056 75.7252 121.068C75.7136 121.079 75.7044 121.093 75.6982 121.108C75.6919 121.124 75.6887 121.14 75.6887 121.156V121.786H73.8219V121.156C73.8219 121.14 73.8187 121.124 73.8124 121.108C73.8062 121.093 73.797 121.079 73.7854 121.068C73.7739 121.056 73.7602 121.047 73.7451 121.041C73.73 121.034 73.7138 121.031 73.6974 121.031H70.7105C70.6942 121.031 70.678 121.034 70.6629 121.041C70.6478 121.047 70.6341 121.056 70.6225 121.068C70.6109 121.079 70.6018 121.093 70.5955 121.108C70.5893 121.124 70.5861 121.14 70.5861 121.156V121.786H68.7192V121.156C68.7192 121.14 68.716 121.124 68.7098 121.108C68.7035 121.093 68.6943 121.079 68.6828 121.068C68.6712 121.056 68.6575 121.047 68.6424 121.041C68.6273 121.034 68.6111 121.031 68.5948 121.031H65.6079C65.5915 121.031 65.5753 121.034 65.5602 121.041C65.5451 121.047 65.5314 121.056 65.5199 121.068C65.5083 121.079 65.4991 121.093 65.4929 121.108C65.4866 121.124 65.4834 121.14 65.4834 121.156V121.786H63.6166V121.156C63.6166 121.14 63.6134 121.124 63.6071 121.108C63.6009 121.093 63.5917 121.079 63.5801 121.068C63.5686 121.056 63.5549 121.047 63.5398 121.041C63.5247 121.034 63.5085 121.031 63.4921 121.031H60.5052C60.4889 121.031 60.4727 121.034 60.4576 121.041C60.4425 121.047 60.4288 121.056 60.4172 121.068C60.4057 121.079 60.3965 121.093 60.3902 121.108C60.384 121.124 60.3808 121.14 60.3808 121.156V121.786H54.6559C53.8637 121.786 53.1039 122.102 52.5438 122.664C51.9836 123.226 51.6689 123.988 51.6689 124.783V126.139C51.6689 126.934 51.9836 127.696 52.5438 128.258C53.1039 128.82 53.8637 129.136 54.6559 129.136H153.971C154.763 129.136 155.523 128.82 156.083 128.258C156.643 127.696 156.958 126.934 156.958 126.139V124.783C156.958 124.39 156.88 124 156.73 123.636C156.58 123.273 156.36 122.942 156.083 122.664C155.805 122.386 155.476 122.165 155.114 122.014C154.751 121.864 154.363 121.786 153.971 121.786V121.786Z" fill="#3F3D56"/>
<path d="M119.896 76.1289H94.8467V77.0629H119.896V76.1289Z" fill="#E6E6E6"/>
<path d="M119.896 79.0859H94.8467V80.02H119.896V79.0859Z" fill="#E6E6E6"/>
<path d="M119.896 82.0469H94.8467V82.9809H119.896V82.0469Z" fill="#E6E6E6"/>
<path d="M119.896 76.1289H94.8467V77.0629H119.896V76.1289Z" fill="#CCCCCC"/>
<path d="M119.896 79.0859H94.8467V80.02H119.896V79.0859Z" fill="#CCCCCC"/>
<path d="M119.896 82.0469H94.8467V82.9809H119.896V82.0469Z" fill="#CCCCCC"/>
<path d="M92.5777 76.707H86.9023V82.4022H92.5777V76.707Z" fill="#CCCCCC"/>
<path d="M119.896 109.41H94.8467V110.344H119.896V109.41Z" fill="#CCCCCC"/>
<path d="M119.896 112.367H94.8467V113.301H119.896V112.367Z" fill="#CCCCCC"/>
<path d="M119.896 115.324H94.8467V116.258H119.896V115.324Z" fill="#CCCCCC"/>
<path d="M92.5777 109.988H86.9023V115.683H92.5777V109.988Z" fill="#CCCCCC"/>
<path d="M163.923 55.0022C162.452 53.3937 160.471 52.3451 158.318 52.0339L159.24 51.1982L158.22 51.1465L156.958 52.291L158.099 53.5572L159.118 53.6089L158.354 52.7609C160.527 53.1129 162.487 54.2731 163.846 56.0104C165.204 57.7478 165.861 59.9348 165.685 62.136C165.509 64.3372 164.513 66.3912 162.896 67.8889C161.279 69.3865 159.159 70.2181 156.958 70.2179V70.9298C158.796 70.9297 160.595 70.3925 162.134 69.3836C163.673 68.3748 164.886 66.938 165.625 65.2488C166.363 63.5596 166.596 61.691 166.294 59.8714C165.991 58.0518 165.168 56.3598 163.923 55.0022V55.0022Z" fill="#3F3D56"/>
<path d="M41.4522 55.0022C42.9237 53.3937 44.9039 52.3451 47.0576 52.0339L46.1357 51.1982L47.1556 51.1465L48.4174 52.291L47.2769 53.5572L46.257 53.6089L47.0211 52.7609C44.8487 53.1129 42.888 54.2731 41.5296 56.0104C40.1711 57.7478 39.5145 59.9348 39.6906 62.136C39.8666 64.3372 40.8624 66.3912 42.4796 67.8889C44.0967 69.3865 46.2167 70.2181 48.4173 70.2179V70.9298C46.579 70.9297 44.7805 70.3925 43.2415 69.3836C41.7025 68.3748 40.4896 66.938 39.7509 65.2488C39.0122 63.5596 38.7797 61.691 39.0818 59.8714C39.384 58.0518 40.2076 56.3598 41.4522 55.0022V55.0022Z" fill="#3F3D56"/>
<path d="M93.3795 4.93945H68.3301V5.8735H93.3795V4.93945Z" fill="#CCCCCC"/>
<path d="M93.3795 7.89844H68.3301V8.83249H93.3795V7.89844Z" fill="#CCCCCC"/>
<path d="M93.3795 10.8555H68.3301V11.7895H93.3795V10.8555Z" fill="#CCCCCC"/>
<path d="M66.061 5.51758H60.3857V11.2127H66.061V5.51758Z" fill="#CCCCCC"/>
<path d="M93.2936 49.2559H68.2441V50.1899H93.2936V49.2559Z" fill="#CCCCCC"/>
<path d="M93.2936 52.2129H68.2441V53.1469H93.2936V52.2129Z" fill="#CCCCCC"/>
<path d="M93.2936 55.1719H68.2441V56.1059H93.2936V55.1719Z" fill="#CCCCCC"/>
<path d="M65.9751 49.832H60.2998V55.5272H65.9751V49.832Z" fill="#CCCCCC"/>
<path d="M171.418 58.3616L177.075 50.1204C177.075 50.1204 182 46.157 180.588 45.3853C179.177 44.6136 175.481 48.2316 175.481 48.2316C175.481 48.2316 164.817 56.435 166.576 57.5799C168.334 58.7248 171.418 58.3616 171.418 58.3616Z" fill="#FFB8B8"/>
<path d="M172.239 47.5381H179.565C180.065 44.6381 180.065 41.6735 179.565 38.7734H172.239C173.065 41.6363 173.065 44.6752 172.239 47.5381V47.5381Z" fill="#4247DC"/>
<path d="M191.285 47.9578C189.084 44.2251 184.729 44.0512 184.729 44.0512C184.729 44.0512 180.485 43.5066 177.763 49.1914C175.225 54.4902 171.723 59.6062 177.199 60.8466L178.188 57.7574L178.8 61.0766C179.58 61.1329 180.362 61.1463 181.143 61.1168C187.007 60.9268 192.592 61.1724 192.412 59.0607C192.173 56.2535 193.404 51.5493 191.285 47.9578Z" fill="#2F2E41"/>
<path d="M179.58 70.9648L176.76 77.4734L186.63 79.0298C186.63 79.0298 191.282 72.6627 191.705 72.2383L179.58 70.9648Z" fill="#FFB8B8"/>
<path d="M184.234 56.8161C187.115 56.8161 189.45 54.4722 189.45 51.5809C189.45 48.6896 187.115 46.3457 184.234 46.3457C181.352 46.3457 179.017 48.6896 179.017 51.5809C179.017 54.4722 181.352 56.8161 184.234 56.8161Z" fill="#FFB8B8"/>
<path d="M182.965 55.4012C182.965 55.4012 185.362 60.7779 185.08 61.3439C184.798 61.9098 190.156 58.3726 190.156 58.3726C190.156 58.3726 187.9 54.5523 188.041 53.9863L182.965 55.4012Z" fill="#FFB8B8"/>
<path d="M190.86 57.666C190.86 57.666 195.09 55.2606 197.487 61.9107C197.487 61.9107 205.383 71.2491 203.973 72.947C202.563 74.6449 197.205 68.8438 197.205 68.8438L193.821 65.3065C193.821 65.3065 189.027 64.0331 189.45 61.3448C189.873 58.6564 190.86 57.666 190.86 57.666Z" fill="#FFB8B8"/>
<path d="M180.991 60.9196L171.121 58.0898C171.121 58.0898 165.904 55.9675 166.045 57.2409C166.186 58.5143 175.633 65.7303 178.735 65.3059C181.837 64.8814 180.991 60.9196 180.991 60.9196Z" fill="#FFB8B8"/>
<path d="M186.631 59.929C186.631 59.929 183.388 59.5045 182.683 60.212C181.978 60.9194 180.638 60.2827 180.638 60.2827L178.382 64.386C178.382 64.386 176.761 66.7206 178.03 68.9844C179.299 71.2483 177.466 74.2196 177.466 74.2196C177.466 74.2196 187.618 74.2196 189.733 75.3515C191.848 76.4835 194.397 65.9068 194.397 65.9068C194.397 65.9068 191.777 62.6881 192.482 60.7072C193.187 58.7263 192.764 57.1699 192.764 57.1699L189.662 57.4529L186.631 59.929Z" fill="#D0CDE1"/>
<path d="M174.505 122.466L175.633 133.361L180.004 131.097L178.594 121.617L174.505 122.466Z" fill="#FFB8B8"/>
<path d="M191.001 122.326L194.671 132.176L198.196 129.629L193.821 120.062L191.001 122.326Z" fill="#FFB8B8"/>
<path d="M180.004 127.422C179.782 128.219 179.45 128.981 179.017 129.686C178.312 130.818 176.62 130.252 176.62 130.252C176.62 130.252 174.646 128.695 174.223 129.403C173.8 130.11 171.544 133.647 171.544 133.647C171.544 133.647 164.071 139.873 170.416 140.864C176.761 141.854 178.03 137.185 178.03 137.185C178.03 137.185 182.824 135.487 182.965 133.789C183.106 132.091 180.004 127.422 180.004 127.422Z" fill="#2F2E41"/>
<path d="M194.808 129.482C194.808 129.482 192.552 128.774 192.693 129.906C192.834 131.038 193.68 135.566 193.68 135.566C193.68 135.566 192.129 141.933 196.5 140.801C200.871 139.669 201.012 133.585 201.012 133.585C201.012 133.585 203.268 125.52 201.576 125.378C199.884 125.237 195.795 124.812 195.795 124.812C195.795 124.812 198.333 128.916 194.808 129.482Z" fill="#2F2E41"/>
<path d="M190.312 47.5976L186.009 45.3359L180.067 46.2612L178.838 51.7099L181.898 51.5917L182.753 49.59V51.5588L184.165 51.5042L184.985 48.3174L185.497 51.7099L190.517 51.607L190.312 47.5976Z" fill="#2F2E41"/>
<path d="M188.182 78.6063L176.338 75.918C176.338 75.918 170.416 86.1053 169.57 94.5948C168.724 103.084 164.917 123.459 170.98 123.742C177.043 124.025 180.568 124.025 180.85 123.459C181.132 122.893 177.889 100.537 177.889 100.537C177.889 100.537 184.798 127.987 188.605 126.147C192.412 124.308 196.642 121.903 196.501 120.488C196.36 119.073 187.195 104.075 187.195 104.075L188.464 91.0575C188.464 91.0575 190.015 85.8223 187.336 81.0117L188.182 78.6063Z" fill="#2F2E41"/>
<path d="M179.646 75.0693H186.971C187.471 72.1693 187.471 69.2047 186.971 66.3047H179.646C180.471 69.1675 180.471 72.2065 179.646 75.0693Z" fill="#4247DC"/>
<path d="M201.012 68.7009L188.604 68.4179C188.604 68.4179 183.105 64.1732 182.964 66.72C182.823 69.2669 188.745 70.6818 188.745 70.6818C188.745 70.6818 201.476 75.2661 203.43 73.2569L201.012 68.7009Z" fill="#FFB8B8"/>
<path d="M66.66 35.2208C68.9975 35.2208 70.8924 33.3193 70.8924 30.9737C70.8924 28.6281 68.9975 26.7266 66.66 26.7266C64.3226 26.7266 62.4277 28.6281 62.4277 30.9737C62.4277 33.3193 64.3226 35.2208 66.66 35.2208Z" fill="#4247DC"/>
<path d="M77.9467 34.4429C79.8567 34.4429 81.4051 32.8892 81.4051 30.9725C81.4051 29.0557 79.8567 27.502 77.9467 27.502C76.0367 27.502 74.4883 29.0557 74.4883 30.9725C74.4883 32.8892 76.0367 34.4429 77.9467 34.4429Z" fill="#4247DC"/>
<path d="M89.233 33.0842C90.395 33.0842 91.337 32.1388 91.337 30.9727C91.337 29.8066 90.395 28.8613 89.233 28.8613C88.0709 28.8613 87.1289 29.8066 87.1289 30.9727C87.1289 32.1388 88.0709 33.0842 89.233 33.0842Z" fill="#4247DC"/>
<path d="M136.382 33.7358C137.61 33.7358 138.605 32.7369 138.605 31.5046C138.605 30.2724 137.61 29.2734 136.382 29.2734C135.154 29.2734 134.158 30.2724 134.158 31.5046C134.158 32.7369 135.154 33.7358 136.382 33.7358Z" fill="#4247DC"/>
<path d="M142.311 33.2802C143.287 33.2802 144.078 32.486 144.078 31.5063C144.078 30.5266 143.287 29.7324 142.311 29.7324C141.334 29.7324 140.543 30.5266 140.543 31.5063C140.543 32.486 141.334 33.2802 142.311 33.2802Z" fill="#4247DC"/>
<path d="M148.239 32.6684C148.88 32.6684 149.399 32.1476 149.399 31.5051C149.399 30.8626 148.88 30.3418 148.239 30.3418C147.599 30.3418 147.08 30.8626 147.08 31.5051C147.08 32.1476 147.599 32.6684 148.239 32.6684Z" fill="#4247DC"/>
<path d="M103.397 105.722C108.882 105.722 113.328 101.26 113.328 95.7556C113.328 90.2512 108.882 85.7891 103.397 85.7891C97.9115 85.7891 93.4648 90.2512 93.4648 95.7556C93.4648 101.26 97.9115 105.722 103.397 105.722Z" fill="#4247DC"/>
<path d="M107.092 97.9459L103.388 90.4375L99.7021 97.9555L101.785 97.9528V101.071H105.008V97.9486L107.092 97.9459Z" fill="#F6F8FC"/>
</g>
<defs>
<clipPath id="clip0">
<rect width="206" height="141" fill="white"/>
</clipPath>
</defs>
</svg>
