<svg width="273" height="274" viewBox="0 0 273 274" fill="none" xmlns="http://www.w3.org/2000/svg">
<path d="M269.357 28.5663C264.518 23.7279 256.67 23.7279 251.8 28.5663L136.502 143.852L95.6495 103.004C90.8105 98.1655 82.9316 98.1655 78.0926 103.004C73.2536 107.842 73.2536 115.72 78.0926 120.559L127.723 170.184C132.562 175.022 140.41 175.022 145.28 170.184L269.357 46.1212C274.196 41.2828 274.196 33.4048 269.357 28.5663Z" fill="#F3FFFD"/>
<path d="M270.258 109.239C268.893 102.539 262.317 98.1972 255.617 99.5619C248.917 100.927 244.574 107.502 245.939 114.201C258.316 174.62 219.356 233.612 158.93 245.987C98.5048 258.362 39.5063 219.407 27.1296 158.988C14.7529 98.5694 53.713 39.5776 114.138 27.2023C140.381 21.8366 167.678 26.0547 191.035 39.1434C197.022 42.4931 204.621 40.353 207.972 34.3669C211.322 28.3809 209.181 20.7821 203.195 17.4324C137.434 -19.4143 54.2404 4.06462 17.4206 69.8179C-19.3992 135.571 4.0513 218.724 69.812 255.571C135.573 292.417 218.766 268.939 255.586 203.185C266.97 182.839 272.988 159.918 272.988 136.595C272.988 127.414 272.057 118.233 270.258 109.239Z" fill="#F3FFFD"/>
</svg>
