<svg width="267" height="33" viewBox="0 0 267 33" fill="none" xmlns="http://www.w3.org/2000/svg">
<path d="M58.2851 12.138L56.8451 11.886V10.626H66.9611L67.1591 13.992H65.5391L64.8191 12.03L61.3631 11.814V16.8L63.7211 16.746L64.0811 15.126H65.3411V19.932H64.0991L63.7211 18.258L61.3631 18.186V22.614L64.1171 22.812V24H56.9351V22.812L58.2851 22.614V12.138ZM68.3295 19.05C68.3295 17.898 68.5575 16.926 69.0135 16.134C69.4695 15.33 70.0815 14.73 70.8495 14.334C71.6295 13.938 72.4815 13.74 73.4055 13.74C74.9175 13.74 76.0995 14.196 76.9515 15.108C77.8155 16.008 78.2475 17.268 78.2475 18.888C78.2475 20.076 78.0195 21.066 77.5635 21.858C77.1075 22.65 76.4955 23.238 75.7275 23.622C74.9595 24.006 74.1015 24.198 73.1535 24.198C71.6535 24.198 70.4715 23.748 69.6075 22.848C68.7555 21.936 68.3295 20.67 68.3295 19.05ZM73.3335 22.938C73.9095 22.938 74.3355 22.632 74.6115 22.02C74.8995 21.396 75.0435 20.424 75.0435 19.104C75.0435 17.7 74.9055 16.668 74.6295 16.008C74.3655 15.336 73.9155 15 73.2795 15C72.1035 15 71.5155 16.278 71.5155 18.834C71.5155 20.226 71.6595 21.258 71.9475 21.93C72.2355 22.602 72.6975 22.938 73.3335 22.938ZM79.8424 22.812L80.9404 22.65V15.882L79.8784 15.558V14.154L82.8664 13.758H82.9204L83.4244 14.136V14.568L83.3704 16.062H83.4244C83.5084 15.786 83.7004 15.468 84.0004 15.108C84.3004 14.736 84.6784 14.418 85.1344 14.154C85.6024 13.878 86.1064 13.74 86.6464 13.74C86.9584 13.74 87.1984 13.782 87.3664 13.866V16.998C87.1744 16.854 86.9644 16.74 86.7364 16.656C86.5204 16.572 86.2384 16.53 85.8904 16.53C85.4584 16.53 85.0684 16.59 84.7204 16.71C84.3724 16.818 84.0964 16.944 83.8924 17.088V22.65L85.8724 22.83V24H79.8424V22.812ZM93.1168 24.198C91.4728 24.198 90.2548 23.736 89.4628 22.812C88.6708 21.876 88.2748 20.604 88.2748 18.996C88.2748 17.904 88.4788 16.962 88.8868 16.17C89.2948 15.378 89.8648 14.778 90.5968 14.37C91.3408 13.95 92.2108 13.74 93.2068 13.74C94.4668 13.74 95.4268 14.058 96.0868 14.694C96.7588 15.33 97.1068 16.23 97.1308 17.394C97.1308 18.162 97.0768 18.78 96.9688 19.248H91.3348C91.3948 20.268 91.6408 21.048 92.0728 21.588C92.5168 22.116 93.1348 22.38 93.9268 22.38C94.3708 22.38 94.8328 22.308 95.3128 22.164C95.8048 22.008 96.2008 21.834 96.5008 21.642L97.0048 22.74C96.6928 23.088 96.1588 23.418 95.4028 23.73C94.6588 24.042 93.8968 24.198 93.1168 24.198ZM94.2688 18.06L94.2868 17.304C94.2868 16.548 94.1848 15.972 93.9808 15.576C93.7768 15.18 93.4288 14.982 92.9368 14.982C92.4328 14.982 92.0428 15.204 91.7668 15.648C91.4908 16.08 91.3408 16.884 91.3168 18.06H94.2688ZM100.636 12.444C100.168 12.444 99.7896 12.306 99.5016 12.03C99.2136 11.754 99.0696 11.4 99.0696 10.968C99.0696 10.464 99.2256 10.05 99.5376 9.726C99.8616 9.402 100.294 9.24 100.834 9.24C101.374 9.24 101.788 9.378 102.076 9.654C102.364 9.93 102.508 10.284 102.508 10.716C102.508 11.232 102.346 11.652 102.022 11.976C101.698 12.288 101.242 12.444 100.654 12.444H100.636ZM99.5376 15.882L98.3316 15.54V14.19L101.932 13.758H101.968L102.526 14.136V22.65L103.606 22.812V24H98.4216V22.812L99.5376 22.65V15.882ZM109.302 28.86C107.646 28.86 106.446 28.602 105.702 28.086C104.97 27.57 104.604 26.88 104.604 26.016C104.604 25.536 104.766 25.08 105.09 24.648C105.414 24.216 105.822 23.892 106.314 23.676C105.75 23.352 105.468 22.836 105.468 22.128C105.468 21.744 105.6 21.372 105.864 21.012C106.128 20.64 106.482 20.358 106.926 20.166C105.594 19.674 104.928 18.654 104.928 17.106C104.928 16.422 105.132 15.828 105.54 15.324C105.948 14.808 106.5 14.418 107.196 14.154C107.892 13.878 108.66 13.74 109.5 13.74C111 13.74 112.098 14.016 112.794 14.568C112.962 14.364 113.226 14.172 113.586 13.992C113.946 13.8 114.318 13.704 114.702 13.704H115.35V15.9H113.568C113.688 16.236 113.748 16.578 113.748 16.926C113.748 18.03 113.358 18.906 112.578 19.554C111.798 20.202 110.688 20.526 109.248 20.526C108.66 20.526 108.174 20.484 107.79 20.4C107.718 20.544 107.658 20.694 107.61 20.85C107.574 21.006 107.556 21.132 107.556 21.228C107.556 21.6 107.694 21.858 107.97 22.002C108.246 22.134 108.75 22.2 109.482 22.2H111.336C113.868 22.2 115.134 23.106 115.134 24.918C115.134 25.71 114.858 26.406 114.306 27.006C113.754 27.606 113.028 28.062 112.128 28.374C111.24 28.698 110.298 28.86 109.302 28.86ZM109.428 19.302C109.932 19.302 110.292 19.116 110.508 18.744C110.736 18.36 110.85 17.814 110.85 17.106C110.85 16.338 110.736 15.78 110.508 15.432C110.28 15.084 109.914 14.91 109.41 14.91C108.39 14.91 107.88 15.618 107.88 17.034C107.88 18.546 108.396 19.302 109.428 19.302ZM109.644 27.51C110.304 27.51 110.868 27.336 111.336 26.988C111.804 26.64 112.038 26.148 112.038 25.512C112.038 25.008 111.912 24.648 111.66 24.432C111.408 24.228 110.964 24.126 110.328 24.126H108.492C108.3 24.126 108.084 24.114 107.844 24.09C107.616 24.462 107.502 24.924 107.502 25.476C107.502 26.832 108.216 27.51 109.644 27.51ZM117.219 15.882L116.157 15.558V14.154L119.433 13.758H119.487L119.955 14.136V14.802L119.937 15.216C120.357 14.82 120.891 14.484 121.539 14.208C122.187 13.932 122.865 13.794 123.573 13.794C124.293 13.794 124.857 13.926 125.265 14.19C125.685 14.442 125.985 14.85 126.165 15.414C126.357 15.978 126.453 16.746 126.453 17.718V22.65L127.461 22.794V24H122.565V22.812L123.447 22.65V17.736C123.447 17.16 123.405 16.716 123.321 16.404C123.249 16.08 123.117 15.846 122.925 15.702C122.733 15.558 122.457 15.486 122.097 15.486C121.545 15.486 120.921 15.744 120.225 16.26V22.65L121.215 22.812V24H116.229V22.812L117.219 22.65V15.882ZM134.17 12.138L132.82 11.886V10.626H135.664C136.072 10.626 136.612 10.602 137.284 10.554C137.428 10.542 137.608 10.53 137.824 10.518C138.04 10.506 138.292 10.5 138.58 10.5C139.888 10.5 140.914 10.62 141.658 10.86C142.402 11.1 142.918 11.442 143.206 11.886C143.506 12.33 143.656 12.888 143.656 13.56C143.656 14.46 143.374 15.204 142.81 15.792C142.258 16.38 141.55 16.734 140.686 16.854C141.886 16.854 142.828 17.124 143.512 17.664C144.208 18.204 144.556 18.966 144.556 19.95C144.556 21.234 144.112 22.248 143.224 22.992C142.348 23.736 140.854 24.108 138.742 24.108C138.406 24.108 138.082 24.096 137.77 24.072C137.458 24.06 137.236 24.054 137.104 24.054C136.672 24.018 136.204 24 135.7 24H132.784V22.812L134.17 22.614V12.138ZM137.212 16.404C137.428 16.428 137.914 16.44 138.67 16.44C139.33 16.44 139.816 16.218 140.128 15.774C140.44 15.318 140.596 14.682 140.596 13.866C140.596 13.11 140.428 12.558 140.092 12.21C139.756 11.862 139.21 11.688 138.454 11.688C138.274 11.688 138.064 11.7 137.824 11.724C137.584 11.736 137.38 11.754 137.212 11.778V16.404ZM137.212 22.722C137.452 22.818 137.926 22.866 138.634 22.866C139.522 22.866 140.164 22.632 140.56 22.164C140.968 21.696 141.172 21.018 141.172 20.13C141.172 19.29 140.986 18.69 140.614 18.33C140.242 17.97 139.654 17.79 138.85 17.79C138.19 17.79 137.644 17.802 137.212 17.826V22.722ZM145.884 19.05C145.884 17.898 146.112 16.926 146.568 16.134C147.024 15.33 147.636 14.73 148.404 14.334C149.184 13.938 150.036 13.74 150.96 13.74C152.472 13.74 153.654 14.196 154.506 15.108C155.37 16.008 155.802 17.268 155.802 18.888C155.802 20.076 155.574 21.066 155.118 21.858C154.662 22.65 154.05 23.238 153.282 23.622C152.514 24.006 151.656 24.198 150.708 24.198C149.208 24.198 148.026 23.748 147.162 22.848C146.31 21.936 145.884 20.67 145.884 19.05ZM150.888 22.938C151.464 22.938 151.89 22.632 152.166 22.02C152.454 21.396 152.598 20.424 152.598 19.104C152.598 17.7 152.46 16.668 152.184 16.008C151.92 15.336 151.47 15 150.834 15C149.658 15 149.07 16.278 149.07 18.834C149.07 20.226 149.214 21.258 149.502 21.93C149.79 22.602 150.252 22.938 150.888 22.938ZM157.397 22.812L158.495 22.65V15.882L157.433 15.558V14.154L160.421 13.758H160.475L160.979 14.136V14.568L160.925 16.062H160.979C161.063 15.786 161.255 15.468 161.555 15.108C161.855 14.736 162.233 14.418 162.689 14.154C163.157 13.878 163.661 13.74 164.201 13.74C164.513 13.74 164.753 13.782 164.921 13.866V16.998C164.729 16.854 164.519 16.74 164.291 16.656C164.075 16.572 163.793 16.53 163.445 16.53C163.013 16.53 162.623 16.59 162.275 16.71C161.927 16.818 161.651 16.944 161.447 17.088V22.65L163.427 22.83V24H157.397V22.812ZM169.753 24.198C168.601 24.198 167.665 23.784 166.945 22.956C166.225 22.128 165.865 20.886 165.865 19.23C165.865 18.234 166.069 17.322 166.477 16.494C166.897 15.654 167.509 14.988 168.313 14.496C169.129 13.992 170.113 13.74 171.265 13.74C171.613 13.74 171.973 13.782 172.345 13.866V11.004L170.617 10.752V9.6L174.595 9.24H174.685L175.225 9.672V22.794H176.161V23.946C175.237 24.126 174.469 24.216 173.857 24.216C173.437 24.216 173.131 24.144 172.939 24C172.759 23.868 172.669 23.604 172.669 23.208V22.758C172.381 23.178 171.967 23.526 171.427 23.802C170.887 24.066 170.329 24.198 169.753 24.198ZM170.833 22.578C171.169 22.578 171.463 22.512 171.715 22.38C171.979 22.236 172.189 22.068 172.345 21.876V15.36C172.261 15.252 172.105 15.162 171.877 15.09C171.661 15.018 171.427 14.982 171.175 14.982C170.503 14.982 169.969 15.306 169.573 15.954C169.177 16.59 168.979 17.634 168.979 19.086C168.979 20.274 169.147 21.156 169.483 21.732C169.819 22.296 170.269 22.578 170.833 22.578ZM181.992 24.198C180.348 24.198 179.13 23.736 178.338 22.812C177.546 21.876 177.15 20.604 177.15 18.996C177.15 17.904 177.354 16.962 177.762 16.17C178.17 15.378 178.74 14.778 179.472 14.37C180.216 13.95 181.086 13.74 182.082 13.74C183.342 13.74 184.302 14.058 184.962 14.694C185.634 15.33 185.982 16.23 186.006 17.394C186.006 18.162 185.952 18.78 185.844 19.248H180.21C180.27 20.268 180.516 21.048 180.948 21.588C181.392 22.116 182.01 22.38 182.802 22.38C183.246 22.38 183.708 22.308 184.188 22.164C184.68 22.008 185.076 21.834 185.376 21.642L185.88 22.74C185.568 23.088 185.034 23.418 184.278 23.73C183.534 24.042 182.772 24.198 181.992 24.198ZM183.144 18.06L183.162 17.304C183.162 16.548 183.06 15.972 182.856 15.576C182.652 15.18 182.304 14.982 181.812 14.982C181.308 14.982 180.918 15.204 180.642 15.648C180.366 16.08 180.216 16.884 180.192 18.06H183.144ZM187.333 22.812L188.431 22.65V15.882L187.369 15.558V14.154L190.357 13.758H190.411L190.915 14.136V14.568L190.861 16.062H190.915C190.999 15.786 191.191 15.468 191.491 15.108C191.791 14.736 192.169 14.418 192.625 14.154C193.093 13.878 193.597 13.74 194.137 13.74C194.449 13.74 194.689 13.782 194.857 13.866V16.998C194.665 16.854 194.455 16.74 194.227 16.656C194.011 16.572 193.729 16.53 193.381 16.53C192.949 16.53 192.559 16.59 192.211 16.71C191.863 16.818 191.587 16.944 191.383 17.088V22.65L193.363 22.83V24H187.333V22.812ZM204.195 10.572H207.435L211.467 22.632L212.457 22.812V24H206.787V22.812L208.065 22.632L207.453 20.472H203.151L202.539 22.65L203.943 22.812V24H199.155L199.137 22.812L200.181 22.614L204.195 10.572ZM205.527 13.704L205.257 12.444L204.969 13.722L203.511 19.086H207.075L205.527 13.704ZM217.407 28.86C215.751 28.86 214.551 28.602 213.807 28.086C213.075 27.57 212.709 26.88 212.709 26.016C212.709 25.536 212.871 25.08 213.195 24.648C213.519 24.216 213.927 23.892 214.419 23.676C213.855 23.352 213.573 22.836 213.573 22.128C213.573 21.744 213.705 21.372 213.969 21.012C214.233 20.64 214.587 20.358 215.031 20.166C213.699 19.674 213.033 18.654 213.033 17.106C213.033 16.422 213.237 15.828 213.645 15.324C214.053 14.808 214.605 14.418 215.301 14.154C215.997 13.878 216.765 13.74 217.605 13.74C219.105 13.74 220.203 14.016 220.899 14.568C221.067 14.364 221.331 14.172 221.691 13.992C222.051 13.8 222.423 13.704 222.807 13.704H223.455V15.9H221.673C221.793 16.236 221.853 16.578 221.853 16.926C221.853 18.03 221.463 18.906 220.683 19.554C219.903 20.202 218.793 20.526 217.353 20.526C216.765 20.526 216.279 20.484 215.895 20.4C215.823 20.544 215.763 20.694 215.715 20.85C215.679 21.006 215.661 21.132 215.661 21.228C215.661 21.6 215.799 21.858 216.075 22.002C216.351 22.134 216.855 22.2 217.587 22.2H219.441C221.973 22.2 223.239 23.106 223.239 24.918C223.239 25.71 222.963 26.406 222.411 27.006C221.859 27.606 221.133 28.062 220.233 28.374C219.345 28.698 218.403 28.86 217.407 28.86ZM217.533 19.302C218.037 19.302 218.397 19.116 218.613 18.744C218.841 18.36 218.955 17.814 218.955 17.106C218.955 16.338 218.841 15.78 218.613 15.432C218.385 15.084 218.019 14.91 217.515 14.91C216.495 14.91 215.985 15.618 215.985 17.034C215.985 18.546 216.501 19.302 217.533 19.302ZM217.749 27.51C218.409 27.51 218.973 27.336 219.441 26.988C219.909 26.64 220.143 26.148 220.143 25.512C220.143 25.008 220.017 24.648 219.765 24.432C219.513 24.228 219.069 24.126 218.433 24.126H216.597C216.405 24.126 216.189 24.114 215.949 24.09C215.721 24.462 215.607 24.924 215.607 25.476C215.607 26.832 216.321 27.51 217.749 27.51ZM228.961 24.198C227.317 24.198 226.099 23.736 225.307 22.812C224.515 21.876 224.119 20.604 224.119 18.996C224.119 17.904 224.323 16.962 224.731 16.17C225.139 15.378 225.709 14.778 226.441 14.37C227.185 13.95 228.055 13.74 229.051 13.74C230.311 13.74 231.271 14.058 231.931 14.694C232.603 15.33 232.951 16.23 232.975 17.394C232.975 18.162 232.921 18.78 232.813 19.248H227.179C227.239 20.268 227.485 21.048 227.917 21.588C228.361 22.116 228.979 22.38 229.771 22.38C230.215 22.38 230.677 22.308 231.157 22.164C231.649 22.008 232.045 21.834 232.345 21.642L232.849 22.74C232.537 23.088 232.003 23.418 231.247 23.73C230.503 24.042 229.741 24.198 228.961 24.198ZM230.113 18.06L230.131 17.304C230.131 16.548 230.029 15.972 229.825 15.576C229.621 15.18 229.273 14.982 228.781 14.982C228.277 14.982 227.887 15.204 227.611 15.648C227.335 16.08 227.185 16.884 227.161 18.06H230.113ZM235.291 15.882L234.229 15.558V14.154L237.505 13.758H237.559L238.027 14.136V14.802L238.009 15.216C238.429 14.82 238.963 14.484 239.611 14.208C240.259 13.932 240.937 13.794 241.645 13.794C242.365 13.794 242.929 13.926 243.337 14.19C243.757 14.442 244.057 14.85 244.237 15.414C244.429 15.978 244.525 16.746 244.525 17.718V22.65L245.533 22.794V24H240.637V22.812L241.519 22.65V17.736C241.519 17.16 241.477 16.716 241.393 16.404C241.321 16.08 241.189 15.846 240.997 15.702C240.805 15.558 240.529 15.486 240.169 15.486C239.617 15.486 238.993 15.744 238.297 16.26V22.65L239.287 22.812V24H234.301V22.812L235.291 22.65V15.882ZM246.531 19.068C246.531 18 246.747 17.064 247.179 16.26C247.611 15.456 248.217 14.838 248.997 14.406C249.777 13.962 250.677 13.74 251.697 13.74C252.201 13.74 252.633 13.776 252.993 13.848C253.365 13.908 253.743 13.998 254.127 14.118C254.475 14.214 254.691 14.268 254.775 14.28L254.649 17.538H252.831L252.363 15.468C252.327 15.312 252.225 15.204 252.057 15.144C251.901 15.072 251.709 15.036 251.481 15.036C250.917 15.036 250.473 15.312 250.149 15.864C249.837 16.416 249.681 17.334 249.681 18.618C249.681 19.842 249.879 20.784 250.275 21.444C250.683 22.092 251.229 22.416 251.913 22.416C252.801 22.416 253.617 22.188 254.361 21.732L254.847 22.794C254.559 23.118 254.085 23.436 253.425 23.748C252.765 24.048 252.033 24.198 251.229 24.198C249.657 24.198 248.481 23.736 247.701 22.812C246.921 21.876 246.531 20.628 246.531 19.068ZM257.915 28.482C257.663 28.482 257.399 28.464 257.123 28.428C256.859 28.392 256.667 28.344 256.547 28.284V26.124C256.631 26.184 256.811 26.238 257.087 26.286C257.363 26.346 257.615 26.376 257.843 26.376C258.455 26.376 258.941 26.184 259.301 25.8C259.661 25.416 259.991 24.816 260.291 24H259.247L255.881 15.36L255.089 15.144V13.992H260.399V15.144L259.139 15.36L260.633 20.148L261.173 21.966L261.605 20.148L262.991 15.342L261.911 15.144V13.992H265.979V15.144L265.115 15.342C264.611 16.89 263.993 18.708 263.261 20.796C262.541 22.884 262.139 24.024 262.055 24.216C261.695 25.212 261.329 26.01 260.957 26.61C260.597 27.222 260.171 27.684 259.679 27.996C259.187 28.32 258.599 28.482 257.915 28.482Z" fill="#F6F8FC"/>
<path d="M31.4903 6.5C28.558 2.84215 24.0523 0.5 18.9995 0.5C13.9468 0.5 9.44103 2.84215 6.50879 6.5M25.9995 30.8915C31.0451 28.4328 34.605 23.3988 34.9688 17.5M11.9995 30.8915C6.95394 28.4328 3.39403 23.3988 3.03027 17.5" stroke="white"/>
<path d="M38.9999 7.58421L28.3088 8.26643C28.7812 7.49532 28.2004 7.0188 28.2004 7.0188C28.2004 7.61109 27.0553 8.5817 25.3639 8.63442C23.6724 8.68817 23.346 9.44171 23.591 10.3317C23.8361 11.2196 24.3002 10.9509 23.809 12.4042C23.6474 12.8807 23.1291 13.1681 22.5054 13.3417C21.3489 13.5237 21.4897 8.72228 21.0184 7.50565C20.5449 6.28386 20.1643 6.24768 19.3822 5.8001C18.6 5.35149 19.7628 5.27913 19.7628 5.27913C19.7628 5.27913 19.1089 4.8667 18.3998 5.04449C17.6896 5.22435 17.5092 6.06782 17.5092 6.06782C17.5092 6.06782 17.2725 5.92414 16.7271 6.17532C16.1817 6.4265 16.5634 7.43226 16.5634 7.43226C16.6896 6.69526 17.6312 7.04671 17.6312 7.04671C17.6312 7.04671 17.6719 7.48705 17.3997 7.73719C17.1265 7.98838 16.5811 7.71859 16.5811 7.71859C16.5811 7.71859 16.8721 8.25713 17.5447 8.25713C18.2173 8.25713 18.3998 7.41366 18.3998 7.41366C18.3998 7.41366 18.7064 10.1818 18.3091 11.6227C17.7553 13.626 16.5279 13.3314 16.4925 13.3386C15.8689 13.166 15.3516 12.8787 15.191 12.4032C14.6998 10.9498 15.1639 11.2186 15.409 10.3307C15.6551 9.44171 15.3266 8.68713 13.6362 8.63338C11.9457 8.57963 10.8007 7.61005 10.8007 7.01776C10.8007 7.01776 10.2177 7.49428 10.6912 8.2654L6.68646e-05 7.58318C6.68646e-05 7.58318 -0.0823172 10.3575 5.53647 10.6253L1.44543 10.7865C1.44543 10.7865 2.31828 13.0492 6.43539 12.9148L3.02741 13.2921C3.02741 13.2921 3.95345 15.0411 5.61781 15.2561C7.28113 15.4721 8.48143 14.8519 8.48143 14.8519L6.27271 16.1709C6.27271 16.1709 7.22794 17.2748 8.37297 17.1932C9.51801 17.1136 10.3095 16.4944 10.3095 16.4944L9.2719 17.678C9.2719 17.678 10.8539 18.5948 11.8352 18.1638C12.8175 17.7327 13.1731 17.1415 13.1731 17.1415L12.6809 18.5142C12.6809 18.5142 13.7456 19.1334 14.4537 18.5142C15.1629 17.894 15.4361 17.2211 15.4361 17.2211L15.2181 18.6207C15.2181 18.6207 16.2818 18.7013 17.0181 17.7327C17.0181 17.7327 16.5279 20.4255 14.0449 21.0436C14.0449 21.0436 14.7551 21.5304 14.8907 21.7723C14.8907 21.7723 13.6362 22.8484 12.9813 22.5796C12.3264 22.3098 12.3264 20.8813 11.345 20.963C10.3637 21.0446 10.4451 21.5842 10.4451 21.5842C10.4451 21.5842 10.9269 21.2234 11.1261 21.4581C11.3263 21.6927 11.5995 22.5321 12.1814 22.623C12.1814 22.623 12.2002 22.8049 11.9082 22.7502C11.6172 22.6964 10.8539 22.0504 10.4545 22.3377C10.054 22.6251 9.98102 23.4696 10.4899 23.5595C10.4899 23.5595 10.4169 22.8422 10.7631 22.9848C11.1083 23.1285 11.3638 23.7745 12.2179 23.2711C12.2179 23.2711 10.9999 24.4195 11.8352 24.834C12.6715 25.2454 13.0543 24.834 13.0543 24.834C13.0543 24.834 12.3264 24.7255 12.2534 24.402C12.1814 24.0784 13.1825 24.2572 13.1262 23.4324C13.1262 23.4324 13.6174 22.9838 13.8176 23.5047C14.0168 24.0247 13.9636 24.0433 14.4172 23.9895C14.4172 23.9895 14.7082 24.2759 14.4527 24.4381C14.4527 24.4381 14.8896 24.618 15.0888 24.0784C15.2901 23.5399 13.998 23.2711 14.2712 23.0013C14.5445 22.7316 15.2536 22.3729 15.4163 22.0504C15.4163 22.0504 16.0524 22.5341 15.9617 22.9662C15.9617 22.9662 16.3798 22.9662 16.506 22.0855C16.6333 21.2069 17.9066 20.5071 17.9066 20.5071C17.9066 20.5071 17.5071 28.3413 14.3067 31.465C14.3067 31.465 14.8062 32.1379 15.6259 31.8154C16.4445 31.4919 16.553 30.7652 16.553 30.7652C16.553 30.7652 16.7177 31.4257 16.2526 31.9022C16.2526 31.9022 16.8804 32.1255 17.48 31.9022C18.0807 31.681 18.2705 30.5492 18.2705 30.5492C18.2705 30.5492 18.1057 32.3798 19.4969 33C20.888 32.3798 20.7243 30.5492 20.7243 30.5492C20.7243 30.5492 20.9162 31.681 21.5158 31.9022C22.1165 32.1255 22.7432 31.9022 22.7432 31.9022C22.2792 31.4257 22.4429 30.7652 22.4429 30.7652C22.4429 30.7652 22.5513 31.4919 23.37 31.8154C24.1875 32.139 24.6881 31.465 24.6881 31.465C21.4876 28.3423 21.0872 20.5071 21.0872 20.5071C21.0872 20.5071 22.3605 21.2079 22.4877 22.0855C22.6149 22.9662 23.0331 22.9662 23.0331 22.9662C22.9414 22.5341 23.5775 22.0504 23.5775 22.0504C23.7412 22.3729 24.4503 22.7316 24.7225 23.0013C24.9957 23.2711 23.7047 23.5399 23.9049 24.0784C24.1041 24.617 24.5411 24.4381 24.5411 24.4381C24.2856 24.2769 24.5776 23.9895 24.5776 23.9895C25.0322 24.0433 24.977 24.0247 25.1782 23.5047C25.3774 22.9838 25.8686 23.4324 25.8686 23.4324C25.8133 24.2572 26.8144 24.0784 26.7414 24.402C26.6684 24.7255 25.9405 24.834 25.9405 24.834C25.9405 24.834 26.3222 25.2454 27.1596 24.834C27.996 24.4206 26.7769 23.2711 26.7769 23.2711C27.631 23.7735 27.8865 23.1275 28.2316 22.9848C28.5779 22.8411 28.5049 23.5595 28.5049 23.5595C29.0138 23.4696 28.9408 22.6261 28.5414 22.3377C28.1409 22.0514 27.3776 22.6974 27.0866 22.7502C26.7957 22.8049 26.8134 22.623 26.8134 22.623C27.3953 22.5321 27.6685 21.6927 27.8677 21.4581C28.0679 21.2234 28.5487 21.5842 28.5487 21.5842C28.5487 21.5842 28.631 21.0446 27.6487 20.963C26.6674 20.8823 26.6674 22.3109 26.0135 22.5796C25.3586 22.8484 24.1031 21.7723 24.1031 21.7723C24.2407 21.5304 24.9499 21.0436 24.9499 21.0436C22.4679 20.4255 21.9757 17.7327 21.9757 17.7327C22.713 18.7023 23.7767 18.6207 23.7767 18.6207L23.5587 17.2211C23.5587 17.2211 23.8319 17.894 24.5411 18.5142C25.2502 19.1334 26.3139 18.5142 26.3139 18.5142L25.8227 17.1415C25.8227 17.1415 26.1773 17.7327 27.1596 18.1638C28.1409 18.5948 29.7229 17.678 29.7229 17.678L28.6863 16.4944C28.6863 16.4944 29.4768 17.1136 30.6218 17.1932C31.7679 17.2748 32.7221 16.1709 32.7221 16.1709L30.5134 14.8519C30.5134 14.8519 31.7126 15.4721 33.377 15.2561C35.0413 15.0411 35.9684 13.2921 35.9684 13.2921L32.5594 12.9148C36.6775 13.0502 37.5504 10.7865 37.5504 10.7865L33.4583 10.6253C39.0813 10.3586 38.9999 7.58421 38.9999 7.58421Z" fill="white"/>
</svg>
