<svg width="278" height="26" viewBox="0 0 278 26" fill="none" xmlns="http://www.w3.org/2000/svg">
<path d="M56.0166 20H52.5537L46.9639 10.2793H46.8848C46.9961 11.9961 47.0518 13.2207 47.0518 13.9531V20H44.6172V7.15039H48.0537L53.6348 16.7744H53.6963C53.6084 15.1045 53.5645 13.9238 53.5645 13.2324V7.15039H56.0166V20ZM65.2891 20L64.7705 18.6641H64.7002C64.249 19.2324 63.7832 19.6279 63.3027 19.8506C62.8281 20.0674 62.207 20.1758 61.4395 20.1758C60.4961 20.1758 59.752 19.9062 59.207 19.3672C58.668 18.8281 58.3984 18.0605 58.3984 17.0645C58.3984 16.0215 58.7617 15.2539 59.4883 14.7617C60.2207 14.2637 61.3223 13.9883 62.793 13.9355L64.498 13.8828V13.4521C64.498 12.4561 63.9883 11.958 62.9688 11.958C62.1836 11.958 61.2607 12.1953 60.2002 12.6699L59.3125 10.8594C60.4434 10.2676 61.6973 9.97168 63.0742 9.97168C64.3926 9.97168 65.4033 10.2588 66.1064 10.833C66.8096 11.4072 67.1611 12.2803 67.1611 13.4521V20H65.2891ZM64.498 15.4473L63.4609 15.4824C62.6816 15.5059 62.1016 15.6465 61.7207 15.9043C61.3398 16.1621 61.1494 16.5547 61.1494 17.082C61.1494 17.8379 61.583 18.2158 62.4502 18.2158C63.0713 18.2158 63.5664 18.0371 63.9355 17.6797C64.3105 17.3223 64.498 16.8477 64.498 16.2559V15.4473ZM74.0693 18.04C74.5381 18.04 75.1006 17.9375 75.7568 17.7324V19.7275C75.0889 20.0264 74.2686 20.1758 73.2959 20.1758C72.2236 20.1758 71.4414 19.9062 70.9492 19.3672C70.4629 18.8223 70.2197 18.0078 70.2197 16.9238V12.1865H68.9365V11.0527L70.4131 10.1562L71.1865 8.08203H72.9004V10.1738H75.6514V12.1865H72.9004V16.9238C72.9004 17.3047 73.0059 17.5859 73.2168 17.7676C73.4336 17.9492 73.7178 18.04 74.0693 18.04ZM77.6377 7.63379C77.6377 6.76074 78.124 6.32422 79.0967 6.32422C80.0693 6.32422 80.5557 6.76074 80.5557 7.63379C80.5557 8.0498 80.4326 8.375 80.1865 8.60938C79.9463 8.83789 79.583 8.95215 79.0967 8.95215C78.124 8.95215 77.6377 8.5127 77.6377 7.63379ZM80.4326 20H77.752V10.1738H80.4326V20ZM85.3896 15.0693C85.3896 16.042 85.5479 16.7773 85.8643 17.2754C86.1865 17.7734 86.708 18.0225 87.4287 18.0225C88.1436 18.0225 88.6562 17.7764 88.9668 17.2842C89.2832 16.7861 89.4414 16.0479 89.4414 15.0693C89.4414 14.0967 89.2832 13.3672 88.9668 12.8809C88.6504 12.3945 88.1318 12.1514 87.4111 12.1514C86.6963 12.1514 86.1807 12.3945 85.8643 12.8809C85.5479 13.3613 85.3896 14.0908 85.3896 15.0693ZM92.1836 15.0693C92.1836 16.6689 91.7617 17.9199 90.918 18.8223C90.0742 19.7246 88.8994 20.1758 87.3936 20.1758C86.4502 20.1758 85.6182 19.9707 84.8975 19.5605C84.1768 19.1445 83.623 18.5498 83.2363 17.7764C82.8496 17.0029 82.6562 16.1006 82.6562 15.0693C82.6562 13.4639 83.0752 12.2158 83.9131 11.3252C84.751 10.4346 85.9287 9.98926 87.4463 9.98926C88.3896 9.98926 89.2217 10.1943 89.9424 10.6045C90.6631 11.0146 91.2168 11.6035 91.6035 12.3711C91.9902 13.1387 92.1836 14.0381 92.1836 15.0693ZM103.469 20H100.788V14.2607C100.788 13.5518 100.662 13.0215 100.41 12.6699C100.158 12.3125 99.7568 12.1338 99.2061 12.1338C98.4561 12.1338 97.9141 12.3857 97.5801 12.8896C97.2461 13.3877 97.0791 14.2168 97.0791 15.377V20H94.3984V10.1738H96.4463L96.8066 11.4307H96.9561C97.2549 10.9561 97.665 10.5986 98.1865 10.3584C98.7139 10.1123 99.3115 9.98926 99.9795 9.98926C101.122 9.98926 101.989 10.2998 102.581 10.9209C103.173 11.5361 103.469 12.4268 103.469 13.5928V20ZM112.469 20L111.95 18.6641H111.88C111.429 19.2324 110.963 19.6279 110.482 19.8506C110.008 20.0674 109.387 20.1758 108.619 20.1758C107.676 20.1758 106.932 19.9062 106.387 19.3672C105.848 18.8281 105.578 18.0605 105.578 17.0645C105.578 16.0215 105.941 15.2539 106.668 14.7617C107.4 14.2637 108.502 13.9883 109.973 13.9355L111.678 13.8828V13.4521C111.678 12.4561 111.168 11.958 110.148 11.958C109.363 11.958 108.44 12.1953 107.38 12.6699L106.492 10.8594C107.623 10.2676 108.877 9.97168 110.254 9.97168C111.572 9.97168 112.583 10.2588 113.286 10.833C113.989 11.4072 114.341 12.2803 114.341 13.4521V20H112.469ZM111.678 15.4473L110.641 15.4824C109.861 15.5059 109.281 15.6465 108.9 15.9043C108.52 16.1621 108.329 16.5547 108.329 17.082C108.329 17.8379 108.763 18.2158 109.63 18.2158C110.251 18.2158 110.746 18.0371 111.115 17.6797C111.49 17.3223 111.678 16.8477 111.678 16.2559V15.4473ZM119.79 20H117.109V6.32422H119.79V20ZM138.027 20H135.312V14.4541H130.223V20H127.498V7.15039H130.223V12.1865H135.312V7.15039H138.027V20ZM145.138 11.8965C144.569 11.8965 144.124 12.0781 143.802 12.4414C143.479 12.7988 143.295 13.3086 143.248 13.9707H147.01C146.998 13.3086 146.825 12.7988 146.491 12.4414C146.157 12.0781 145.706 11.8965 145.138 11.8965ZM145.516 20.1758C143.934 20.1758 142.697 19.7393 141.807 18.8662C140.916 17.9932 140.471 16.7568 140.471 15.1572C140.471 13.5107 140.881 12.2393 141.701 11.3428C142.527 10.4404 143.667 9.98926 145.12 9.98926C146.509 9.98926 147.59 10.3848 148.363 11.1758C149.137 11.9668 149.523 13.0596 149.523 14.4541V15.7549H143.187C143.216 16.5166 143.441 17.1113 143.863 17.5391C144.285 17.9668 144.877 18.1807 145.639 18.1807C146.23 18.1807 146.79 18.1191 147.317 17.9961C147.845 17.873 148.396 17.6768 148.97 17.4072V19.4814C148.501 19.7158 148 19.8887 147.467 20C146.934 20.1172 146.283 20.1758 145.516 20.1758ZM157.943 20L157.425 18.6641H157.354C156.903 19.2324 156.438 19.6279 155.957 19.8506C155.482 20.0674 154.861 20.1758 154.094 20.1758C153.15 20.1758 152.406 19.9062 151.861 19.3672C151.322 18.8281 151.053 18.0605 151.053 17.0645C151.053 16.0215 151.416 15.2539 152.143 14.7617C152.875 14.2637 153.977 13.9883 155.447 13.9355L157.152 13.8828V13.4521C157.152 12.4561 156.643 11.958 155.623 11.958C154.838 11.958 153.915 12.1953 152.854 12.6699L151.967 10.8594C153.098 10.2676 154.352 9.97168 155.729 9.97168C157.047 9.97168 158.058 10.2588 158.761 10.833C159.464 11.4072 159.815 12.2803 159.815 13.4521V20H157.943ZM157.152 15.4473L156.115 15.4824C155.336 15.5059 154.756 15.6465 154.375 15.9043C153.994 16.1621 153.804 16.5547 153.804 17.082C153.804 17.8379 154.237 18.2158 155.104 18.2158C155.726 18.2158 156.221 18.0371 156.59 17.6797C156.965 17.3223 157.152 16.8477 157.152 16.2559V15.4473ZM165.265 20H162.584V6.32422H165.265V20ZM172.226 18.04C172.694 18.04 173.257 17.9375 173.913 17.7324V19.7275C173.245 20.0264 172.425 20.1758 171.452 20.1758C170.38 20.1758 169.598 19.9062 169.105 19.3672C168.619 18.8223 168.376 18.0078 168.376 16.9238V12.1865H167.093V11.0527L168.569 10.1562L169.343 8.08203H171.057V10.1738H173.808V12.1865H171.057V16.9238C171.057 17.3047 171.162 17.5859 171.373 17.7676C171.59 17.9492 171.874 18.04 172.226 18.04ZM184.979 20H182.298V14.2607C182.298 12.8428 181.771 12.1338 180.716 12.1338C179.966 12.1338 179.424 12.3887 179.09 12.8984C178.756 13.4082 178.589 14.2344 178.589 15.377V20H175.908V6.32422H178.589V9.11035C178.589 9.32715 178.568 9.83691 178.527 10.6396L178.466 11.4307H178.606C179.204 10.4697 180.153 9.98926 181.454 9.98926C182.608 9.98926 183.484 10.2998 184.082 10.9209C184.68 11.542 184.979 12.4326 184.979 13.5928V20ZM200.491 20L199.56 16.9414H194.875L193.943 20H191.008L195.543 7.09766H198.874L203.427 20H200.491ZM198.909 14.6562C198.048 11.8848 197.562 10.3174 197.45 9.9541C197.345 9.59082 197.269 9.30371 197.222 9.09277C197.028 9.84277 196.475 11.6973 195.561 14.6562H198.909ZM211.803 20L211.442 18.7432H211.302C211.015 19.2002 210.607 19.5547 210.08 19.8066C209.553 20.0527 208.952 20.1758 208.278 20.1758C207.124 20.1758 206.254 19.8682 205.668 19.2529C205.082 18.6318 204.789 17.7412 204.789 16.5811V10.1738H207.47V15.9131C207.47 16.6221 207.596 17.1553 207.848 17.5127C208.1 17.8643 208.501 18.04 209.052 18.04C209.802 18.04 210.344 17.791 210.678 17.293C211.012 16.7891 211.179 15.957 211.179 14.7969V10.1738H213.859V20H211.803ZM220.812 18.04C221.28 18.04 221.843 17.9375 222.499 17.7324V19.7275C221.831 20.0264 221.011 20.1758 220.038 20.1758C218.966 20.1758 218.184 19.9062 217.691 19.3672C217.205 18.8223 216.962 18.0078 216.962 16.9238V12.1865H215.679V11.0527L217.155 10.1562L217.929 8.08203H219.643V10.1738H222.394V12.1865H219.643V16.9238C219.643 17.3047 219.748 17.5859 219.959 17.7676C220.176 17.9492 220.46 18.04 220.812 18.04ZM233.564 20H230.884V14.2607C230.884 12.8428 230.356 12.1338 229.302 12.1338C228.552 12.1338 228.01 12.3887 227.676 12.8984C227.342 13.4082 227.175 14.2344 227.175 15.377V20H224.494V6.32422H227.175V9.11035C227.175 9.32715 227.154 9.83691 227.113 10.6396L227.052 11.4307H227.192C227.79 10.4697 228.739 9.98926 230.04 9.98926C231.194 9.98926 232.07 10.2998 232.668 10.9209C233.266 11.542 233.564 12.4326 233.564 13.5928V20ZM238.46 15.0693C238.46 16.042 238.618 16.7773 238.935 17.2754C239.257 17.7734 239.778 18.0225 240.499 18.0225C241.214 18.0225 241.727 17.7764 242.037 17.2842C242.354 16.7861 242.512 16.0479 242.512 15.0693C242.512 14.0967 242.354 13.3672 242.037 12.8809C241.721 12.3945 241.202 12.1514 240.481 12.1514C239.767 12.1514 239.251 12.3945 238.935 12.8809C238.618 13.3613 238.46 14.0908 238.46 15.0693ZM245.254 15.0693C245.254 16.6689 244.832 17.9199 243.988 18.8223C243.145 19.7246 241.97 20.1758 240.464 20.1758C239.521 20.1758 238.688 19.9707 237.968 19.5605C237.247 19.1445 236.693 18.5498 236.307 17.7764C235.92 17.0029 235.727 16.1006 235.727 15.0693C235.727 13.4639 236.146 12.2158 236.983 11.3252C237.821 10.4346 238.999 9.98926 240.517 9.98926C241.46 9.98926 242.292 10.1943 243.013 10.6045C243.733 11.0146 244.287 11.6035 244.674 12.3711C245.061 13.1387 245.254 14.0381 245.254 15.0693ZM252.953 9.98926C253.316 9.98926 253.618 10.0156 253.858 10.0684L253.656 12.582C253.439 12.5234 253.176 12.4941 252.865 12.4941C252.01 12.4941 251.342 12.7139 250.861 13.1533C250.387 13.5928 250.149 14.208 250.149 14.999V20H247.469V10.1738H249.499L249.895 11.8262H250.026C250.331 11.2754 250.741 10.833 251.257 10.499C251.778 10.1592 252.344 9.98926 252.953 9.98926ZM255.528 7.63379C255.528 6.76074 256.015 6.32422 256.987 6.32422C257.96 6.32422 258.446 6.76074 258.446 7.63379C258.446 8.0498 258.323 8.375 258.077 8.60938C257.837 8.83789 257.474 8.95215 256.987 8.95215C256.015 8.95215 255.528 8.5127 255.528 7.63379ZM258.323 20H255.643V10.1738H258.323V20ZM265.284 18.04C265.753 18.04 266.315 17.9375 266.972 17.7324V19.7275C266.304 20.0264 265.483 20.1758 264.511 20.1758C263.438 20.1758 262.656 19.9062 262.164 19.3672C261.678 18.8223 261.435 18.0078 261.435 16.9238V12.1865H260.151V11.0527L261.628 10.1562L262.401 8.08203H264.115V10.1738H266.866V12.1865H264.115V16.9238C264.115 17.3047 264.221 17.5859 264.432 17.7676C264.648 17.9492 264.933 18.04 265.284 18.04ZM267.561 10.1738H270.496L272.351 15.7021C272.509 16.1826 272.617 16.751 272.676 17.4072H272.729C272.793 16.8037 272.919 16.2354 273.106 15.7021L274.926 10.1738H277.8L273.643 21.2568C273.262 22.2822 272.717 23.0498 272.008 23.5596C271.305 24.0693 270.481 24.3242 269.538 24.3242C269.075 24.3242 268.621 24.2744 268.176 24.1748V22.0479C268.498 22.124 268.85 22.1621 269.23 22.1621C269.705 22.1621 270.118 22.0156 270.47 21.7227C270.827 21.4355 271.105 20.999 271.305 20.4131L271.463 19.9297L267.561 10.1738Z" fill="#F6F8FC"/>
<path d="M20.8056 1.2832C18.6488 1.2832 16.9011 3.03087 16.9011 5.18771H22.1025C24.2594 5.18771 26.007 3.44005 26.007 1.2832H20.8056Z" fill="#F6F8FC"/>
<path d="M9.1059 5.18771C9.1059 3.03087 7.35823 1.2832 5.20139 1.2832H0C0 3.44005 1.74767 5.18771 3.90451 5.18771H9.1059Z" fill="#F6F8FC"/>
<path d="M19.5086 7.78821H16.9079C16.1867 7.78821 15.6041 8.37077 15.6041 9.09202C15.6041 9.81328 16.1867 10.3958 16.9079 10.3958H19.5086C20.2229 10.3958 20.8124 10.9784 20.8124 11.6997V12.1296C20.8124 12.7607 20.3616 13.2947 19.7444 13.4057L14.3072 14.3974V4.82689C15.077 4.3761 15.6041 3.55081 15.6041 2.59376C15.6041 1.15818 14.439 0 13.0103 0C11.5748 0 10.4166 1.16511 10.4166 2.59376C10.4166 3.55081 10.9437 4.3761 11.7135 4.82689V14.3905L6.28321 13.4057C5.66598 13.2947 5.2152 12.7538 5.2152 12.1296V11.6997C5.2152 10.9853 5.79775 10.3958 6.51901 10.3958H9.1197C9.84096 10.3958 10.4235 9.81328 10.4235 9.09202C10.4235 8.37077 9.84096 7.78821 9.1197 7.78821H6.51901C4.3691 7.78821 2.6145 9.53588 2.6145 11.6927V12.1227C2.6145 14.0091 3.95993 15.625 5.81856 15.9579L6.82416 16.1382C5.8463 16.8525 5.2152 18.0037 5.2152 19.2798V19.4879C5.2152 21.6378 6.96286 23.3924 9.1197 23.3924H11.7204V24.6962C11.7204 25.4174 12.303 26 13.0242 26C13.7455 26 14.328 25.4174 14.328 24.6962V23.3924H16.9287C19.0786 23.3924 20.8332 21.6447 20.8332 19.4879V19.2798C20.8332 17.9968 20.1952 16.8456 19.2451 16.1312L20.2299 15.9509C22.0885 15.6111 23.4339 14.0021 23.4339 12.1158V11.6858C23.4062 9.53588 21.6585 7.78821 19.5086 7.78821ZM11.6996 20.7917H9.0989C8.38457 20.7917 7.79508 20.2091 7.79508 19.4879V19.2798C7.79508 18.6071 8.32216 18.0384 9.11277 17.9691L11.6996 17.4975V20.7917ZM18.2048 19.4879C18.2048 20.2022 17.6222 20.7917 16.901 20.7917H14.3003V17.4975L17.0119 17.9899C17.6777 18.0453 18.2048 18.614 18.2048 19.2867V19.4879Z" fill="#F6F8FC"/>
</svg>
