<svg width="289" height="39" viewBox="0 0 289 39" fill="none" xmlns="http://www.w3.org/2000/svg">
<path d="M67.1562 23.4844H60.9922L59.8203 27H56.082L62.4336 9.9375H65.6914L72.0781 27H68.3398L67.1562 23.4844ZM61.9414 20.6367H66.207L64.0625 14.25L61.9414 20.6367ZM77.0234 27H73.625V14.3203H77.0234V27ZM73.4258 11.0391C73.4258 10.5312 73.5938 10.1133 73.9297 9.78516C74.2734 9.45703 74.7383 9.29297 75.3242 9.29297C75.9023 9.29297 76.3633 9.45703 76.707 9.78516C77.0508 10.1133 77.2227 10.5312 77.2227 11.0391C77.2227 11.5547 77.0469 11.9766 76.6953 12.3047C76.3516 12.6328 75.8945 12.7969 75.3242 12.7969C74.7539 12.7969 74.293 12.6328 73.9414 12.3047C73.5977 11.9766 73.4258 11.5547 73.4258 11.0391ZM79.2969 20.5664C79.2969 18.5898 79.7383 17.0156 80.6211 15.8438C81.5117 14.6719 82.7266 14.0859 84.2656 14.0859C85.5 14.0859 86.5195 14.5469 87.3242 15.4688V9H90.7227V27H87.6641L87.5 25.6523C86.6562 26.707 85.5703 27.2344 84.2422 27.2344C82.75 27.2344 81.5508 26.6484 80.6445 25.4766C79.7461 24.2969 79.2969 22.6602 79.2969 20.5664ZM82.6836 20.8125C82.6836 22 82.8906 22.9102 83.3047 23.543C83.7188 24.1758 84.3203 24.4922 85.1094 24.4922C86.1562 24.4922 86.8945 24.0508 87.3242 23.168V18.1641C86.9023 17.2812 86.1719 16.8398 85.1328 16.8398C83.5 16.8398 82.6836 18.1641 82.6836 20.8125ZM109.18 23.4844H103.016L101.844 27H98.1055L104.457 9.9375H107.715L114.102 27H110.363L109.18 23.4844ZM103.965 20.6367H108.23L106.086 14.25L103.965 20.6367ZM114.98 20.5664C114.98 18.6211 115.441 17.0547 116.363 15.8672C117.293 14.6797 118.543 14.0859 120.113 14.0859C121.504 14.0859 122.586 14.5625 123.359 15.5156L123.5 14.3203H126.57V26.5781C126.57 27.6875 126.316 28.6523 125.809 29.4727C125.309 30.293 124.602 30.918 123.688 31.3477C122.773 31.7773 121.703 31.9922 120.477 31.9922C119.547 31.9922 118.641 31.8047 117.758 31.4297C116.875 31.0625 116.207 30.5859 115.754 30L117.254 27.9375C118.098 28.8828 119.121 29.3555 120.324 29.3555C121.223 29.3555 121.922 29.1133 122.422 28.6289C122.922 28.1523 123.172 27.4727 123.172 26.5898V25.9102C122.391 26.793 121.363 27.2344 120.09 27.2344C118.566 27.2344 117.332 26.6406 116.387 25.4531C115.449 24.2578 114.98 22.6758 114.98 20.707V20.5664ZM118.367 20.8125C118.367 21.9609 118.598 22.8633 119.059 23.5195C119.52 24.168 120.152 24.4922 120.957 24.4922C121.988 24.4922 122.727 24.1055 123.172 23.332V18C122.719 17.2266 121.988 16.8398 120.98 16.8398C120.168 16.8398 119.527 17.1719 119.059 17.8359C118.598 18.5 118.367 19.4922 118.367 20.8125ZM135.02 27.2344C133.16 27.2344 131.645 26.6641 130.473 25.5234C129.309 24.3828 128.727 22.8633 128.727 20.9648V20.6367C128.727 19.3633 128.973 18.2266 129.465 17.2266C129.957 16.2188 130.652 15.4453 131.551 14.9062C132.457 14.3594 133.488 14.0859 134.645 14.0859C136.379 14.0859 137.742 14.6328 138.734 15.7266C139.734 16.8203 140.234 18.3711 140.234 20.3789V21.7617H132.16C132.27 22.5898 132.598 23.2539 133.145 23.7539C133.699 24.2539 134.398 24.5039 135.242 24.5039C136.547 24.5039 137.566 24.0312 138.301 23.0859L139.965 24.9492C139.457 25.668 138.77 26.2305 137.902 26.6367C137.035 27.0352 136.074 27.2344 135.02 27.2344ZM134.633 16.8281C133.961 16.8281 133.414 17.0547 132.992 17.5078C132.578 17.9609 132.312 18.6094 132.195 19.4531H136.906V19.1836C136.891 18.4336 136.688 17.8555 136.297 17.4492C135.906 17.0352 135.352 16.8281 134.633 16.8281ZM145.285 14.3203L145.391 15.7852C146.297 14.6523 147.512 14.0859 149.035 14.0859C150.379 14.0859 151.379 14.4805 152.035 15.2695C152.691 16.0586 153.027 17.2383 153.043 18.8086V27H149.656V18.8906C149.656 18.1719 149.5 17.6523 149.188 17.332C148.875 17.0039 148.355 16.8398 147.629 16.8398C146.676 16.8398 145.961 17.2461 145.484 18.0586V27H142.098V14.3203H145.285ZM160.895 24.5039C161.52 24.5039 162.027 24.332 162.418 23.9883C162.809 23.6445 163.012 23.1875 163.027 22.6172H166.203C166.195 23.4766 165.961 24.2656 165.5 24.9844C165.039 25.6953 164.406 26.25 163.602 26.6484C162.805 27.0391 161.922 27.2344 160.953 27.2344C159.141 27.2344 157.711 26.6602 156.664 25.5117C155.617 24.3555 155.094 22.7617 155.094 20.7305V20.5078C155.094 18.5547 155.613 16.9961 156.652 15.832C157.691 14.668 159.117 14.0859 160.93 14.0859C162.516 14.0859 163.785 14.5391 164.738 15.4453C165.699 16.3438 166.188 17.543 166.203 19.043H163.027C163.012 18.3867 162.809 17.8555 162.418 17.4492C162.027 17.0352 161.512 16.8281 160.871 16.8281C160.082 16.8281 159.484 17.1172 159.078 17.6953C158.68 18.2656 158.48 19.1953 158.48 20.4844V20.8359C158.48 22.1406 158.68 23.0781 159.078 23.6484C159.477 24.2188 160.082 24.5039 160.895 24.5039ZM172.871 22.207L175.215 14.3203H178.848L173.75 28.9688L173.469 29.6367C172.711 31.293 171.461 32.1211 169.719 32.1211C169.227 32.1211 168.727 32.0469 168.219 31.8984V29.332L168.734 29.3438C169.375 29.3438 169.852 29.2461 170.164 29.0508C170.484 28.8555 170.734 28.5312 170.914 28.0781L171.312 27.0352L166.871 14.3203H170.516L172.871 22.207ZM200.27 27H196.754V19.6875H189.898V27H186.383V9.9375H189.898V16.8516H196.754V9.9375H200.27V27ZM209.668 20.7539H206.867V27H203.352V9.9375H209.691C211.707 9.9375 213.262 10.3867 214.355 11.2852C215.449 12.1836 215.996 13.4531 215.996 15.0938C215.996 16.2578 215.742 17.2305 215.234 18.0117C214.734 18.7852 213.973 19.4023 212.949 19.8633L216.641 26.8359V27H212.867L209.668 20.7539ZM206.867 17.9062H209.703C210.586 17.9062 211.27 17.6836 211.754 17.2383C212.238 16.7852 212.48 16.1641 212.48 15.375C212.48 14.5703 212.25 13.9375 211.789 13.4766C211.336 13.0156 210.637 12.7852 209.691 12.7852H206.867V17.9062ZM231.781 27C231.625 26.6953 231.512 26.3164 231.441 25.8633C230.621 26.7773 229.555 27.2344 228.242 27.2344C227 27.2344 225.969 26.875 225.148 26.1562C224.336 25.4375 223.93 24.5312 223.93 23.4375C223.93 22.0938 224.426 21.0625 225.418 20.3438C226.418 19.625 227.859 19.2617 229.742 19.2539H231.301V18.5273C231.301 17.9414 231.148 17.4727 230.844 17.1211C230.547 16.7695 230.074 16.5938 229.426 16.5938C228.855 16.5938 228.406 16.7305 228.078 17.0039C227.758 17.2773 227.598 17.6523 227.598 18.1289H224.211C224.211 17.3945 224.438 16.7148 224.891 16.0898C225.344 15.4648 225.984 14.9766 226.812 14.625C227.641 14.2656 228.57 14.0859 229.602 14.0859C231.164 14.0859 232.402 14.4805 233.316 15.2695C234.238 16.0508 234.699 17.1523 234.699 18.5742V24.0703C234.707 25.2734 234.875 26.1836 235.203 26.8008V27H231.781ZM228.98 24.6445C229.48 24.6445 229.941 24.5352 230.363 24.3164C230.785 24.0898 231.098 23.7891 231.301 23.4141V21.2344H230.035C228.34 21.2344 227.438 21.8203 227.328 22.9922L227.316 23.1914C227.316 23.6133 227.465 23.9609 227.762 24.2344C228.059 24.5078 228.465 24.6445 228.98 24.6445ZM236.773 20.5664C236.773 18.5898 237.215 17.0156 238.098 15.8438C238.988 14.6719 240.203 14.0859 241.742 14.0859C242.977 14.0859 243.996 14.5469 244.801 15.4688V9H248.199V27H245.141L244.977 25.6523C244.133 26.707 243.047 27.2344 241.719 27.2344C240.227 27.2344 239.027 26.6484 238.121 25.4766C237.223 24.2969 236.773 22.6602 236.773 20.5664ZM240.16 20.8125C240.16 22 240.367 22.9102 240.781 23.543C241.195 24.1758 241.797 24.4922 242.586 24.4922C243.633 24.4922 244.371 24.0508 244.801 23.168V18.1641C244.379 17.2812 243.648 16.8398 242.609 16.8398C240.977 16.8398 240.16 18.1641 240.16 20.8125ZM254 14.3203L254.105 15.7383C255.004 14.6367 256.219 14.0859 257.75 14.0859C259.383 14.0859 260.504 14.7305 261.113 16.0195C262.004 14.7305 263.273 14.0859 264.922 14.0859C266.297 14.0859 267.32 14.4883 267.992 15.293C268.664 16.0898 269 17.293 269 18.9023V27H265.602V18.9141C265.602 18.1953 265.461 17.6719 265.18 17.3438C264.898 17.0078 264.402 16.8398 263.691 16.8398C262.676 16.8398 261.973 17.3242 261.582 18.293L261.594 27H258.207V18.9258C258.207 18.1914 258.062 17.6602 257.773 17.332C257.484 17.0039 256.992 16.8398 256.297 16.8398C255.336 16.8398 254.641 17.2383 254.211 18.0352V27H250.824V14.3203H254ZM275.188 27H271.789V14.3203H275.188V27ZM271.59 11.0391C271.59 10.5312 271.758 10.1133 272.094 9.78516C272.438 9.45703 272.902 9.29297 273.488 9.29297C274.066 9.29297 274.527 9.45703 274.871 9.78516C275.215 10.1133 275.387 10.5312 275.387 11.0391C275.387 11.5547 275.211 11.9766 274.859 12.3047C274.516 12.6328 274.059 12.7969 273.488 12.7969C272.918 12.7969 272.457 12.6328 272.105 12.3047C271.762 11.9766 271.59 11.5547 271.59 11.0391ZM281.105 14.3203L281.211 15.7852C282.117 14.6523 283.332 14.0859 284.855 14.0859C286.199 14.0859 287.199 14.4805 287.855 15.2695C288.512 16.0586 288.848 17.2383 288.863 18.8086V27H285.477V18.8906C285.477 18.1719 285.32 17.6523 285.008 17.332C284.695 17.0039 284.176 16.8398 283.449 16.8398C282.496 16.8398 281.781 17.2461 281.305 18.0586V27H277.918V14.3203H281.105Z" fill="white"/>
<path d="M24.8103 7.21698C25.4931 7.21826 26.1475 7.4904 26.6299 7.97367C27.1122 8.45694 27.3831 9.11186 27.3831 9.79467C27.3831 10.1137 27.5099 10.4196 27.7354 10.6452C27.961 10.8708 28.267 10.9975 28.586 10.9975C28.905 10.9975 29.2109 10.8708 29.4365 10.6452C29.6621 10.4196 29.7888 10.1137 29.7888 9.79467C29.7879 8.47424 29.2632 7.2081 28.3298 6.27407C27.3965 5.34005 26.1307 4.81441 24.8103 4.8125C24.4913 4.8125 24.1853 4.93923 23.9597 5.1648C23.7341 5.39038 23.6074 5.69633 23.6074 6.01534C23.6074 6.33436 23.7341 6.6403 23.9597 6.86588C24.1853 7.09146 24.4913 7.21819 24.8103 7.21819V7.21698Z" fill="white"/>
<path d="M34.4443 11.5413C34.5416 10.9637 34.5939 10.3794 34.6007 9.79361C34.5985 7.19751 33.5664 4.70832 31.731 2.87226C29.8957 1.03621 27.4069 0.00325041 24.8108 6.55773e-05C22.4258 -0.00875088 20.1233 0.871706 18.3527 2.4695C16.945 1.21638 15.2045 0.397804 13.3415 0.112715C11.4785 -0.172374 9.57287 0.0882266 7.85484 0.863019C6.13681 1.63781 4.67997 2.89363 3.66039 4.47868C2.64081 6.06374 2.10215 7.91017 2.10951 9.79481C2.11127 10.2727 2.14381 10.7501 2.20694 11.2238C2.20694 11.2334 2.19732 11.2394 2.19371 11.2478C-1.9573 22.8625 1.79316 32.365 12.2146 36.6687C14.0989 37.4355 16.0611 37.9949 18.0664 38.3371C18.203 38.3595 18.3424 38.3595 18.479 38.3371C20.4839 37.9948 22.4457 37.4354 24.3296 36.6687L24.421 36.6266C34.6861 32.3409 38.4137 22.9864 34.4443 11.5413ZM24.723 33.8517C24.6243 33.4992 24.51 33.1492 24.3838 32.8004C24.3573 32.7306 24.326 32.6609 24.2984 32.5899C24.2707 32.5189 24.243 32.4492 24.2142 32.3794L24.2971 32.3229C26.1934 31.1907 27.8322 29.6748 29.1085 27.8723C29.2856 27.6069 29.3499 27.282 29.2874 26.9692C29.225 26.6563 29.0408 26.381 28.7753 26.204C28.5099 26.0269 28.185 25.9626 27.8722 26.0251C27.5593 26.0875 27.284 26.2718 27.107 26.5372C26.0558 28.016 24.7111 29.2624 23.1569 30.1986C23.14 30.1686 23.1172 30.1385 23.1003 30.1084C22.6245 29.31 22.0961 28.5441 21.5186 27.8158C21.4308 27.7039 21.3357 27.5909 21.2431 27.4778C21.0158 27.1987 20.7776 26.9197 20.5286 26.6358C20.4204 26.5155 20.3121 26.3952 20.2003 26.275C20.1257 26.192 20.0583 26.1126 19.9826 26.0344C21.687 24.4394 23.5694 22.9419 25.3953 21.4852C28.148 19.4891 30.656 17.1758 32.8674 14.593C35.1191 23.2967 32.2251 30.1782 24.723 33.8517ZM11.897 2.40575C12.9522 2.4051 13.995 2.63378 14.953 3.07595C15.9111 3.51812 16.7616 4.16323 17.4458 4.9666C17.5618 5.09122 17.7023 5.1906 17.8584 5.25856C18.0146 5.32651 18.183 5.36158 18.3533 5.36158C18.5236 5.36158 18.692 5.32651 18.8482 5.25856C19.0043 5.1906 19.1448 5.09122 19.2608 4.9666C19.9446 4.16313 20.7949 3.51795 21.7528 3.07576C22.7107 2.63357 23.7533 2.40495 24.8084 2.40575C26.7672 2.40766 28.6453 3.18684 30.0303 4.57221C31.4152 5.95759 32.1937 7.83592 32.195 9.79481C32.1886 10.3008 32.1396 10.8054 32.0483 11.3032C30.8105 14.0817 27.4546 16.7605 23.8942 19.5956C22.0009 21.1015 20.0643 22.6652 18.2721 24.342C16.4811 22.658 14.5433 21.1015 12.6512 19.5944C9.30371 16.9313 6.15587 14.4017 4.75576 11.8012C4.60196 11.1429 4.52128 10.4696 4.5152 9.79361C4.51679 7.83576 5.29483 5.95846 6.67868 4.57349C8.06253 3.18851 9.93919 2.40894 11.897 2.40575V2.40575ZM18.2721 35.9302C16.511 35.6164 14.7879 35.118 13.1312 34.4435C4.65593 30.9456 1.29639 23.7863 3.67802 14.5821C5.8901 17.1655 8.39843 19.4796 11.1513 21.4768C13.3406 23.1521 15.4366 24.9458 17.4301 26.8499C17.7982 27.2108 18.1422 27.5776 18.4706 27.9325C18.574 28.0455 18.6654 28.1586 18.7653 28.2717C18.9806 28.5122 19.1947 28.7612 19.3932 29.0042C19.5026 29.1377 19.6025 29.2712 19.7059 29.4048C19.8779 29.6249 20.0463 29.8462 20.2027 30.0651C20.3025 30.2059 20.3963 30.3454 20.4901 30.4861C20.6329 30.6978 20.7696 30.9095 20.9003 31.1212C20.9869 31.2632 21.0711 31.4063 21.1517 31.5482C21.2712 31.7575 21.3831 31.9664 21.4873 32.1749C21.5607 32.318 21.6316 32.46 21.6978 32.6031C21.7964 32.8148 21.8842 33.0265 21.9696 33.237C22.0262 33.3777 22.0899 33.5161 22.1344 33.6544C22.209 33.8613 22.2716 34.0694 22.3341 34.2763C19.8767 33.984 14.7562 32.6272 10.6954 26.53C10.5183 26.2645 10.2431 26.0803 9.93024 26.0178C9.61736 25.9554 9.29248 26.0197 9.02706 26.1968C8.76164 26.3738 8.57742 26.6491 8.51494 26.9619C8.45246 27.2748 8.51682 27.5997 8.69387 27.8651C11.0046 31.55 14.4741 34.3628 18.5572 35.8616C18.461 35.8857 18.3695 35.9121 18.2721 35.9302Z" fill="white"/>
</svg>
