<svg width="8" height="14" viewBox="0 0 8 14" fill="none" xmlns="http://www.w3.org/2000/svg">
<path d="M5.47396 7L0.293766 1.78533C0.103137 1.58664 -0.00234481 1.32053 3.95606e-05 1.04432C0.00242394 0.768099 0.112484 0.503876 0.306514 0.308554C0.500544 0.113232 0.763021 0.00244007 1.03741 3.98239e-05C1.3118 -0.00236042 1.57615 0.103823 1.77352 0.295721L7.6936 6.2552C7.88979 6.45275 8 6.72066 8 7C8 7.27934 7.88979 7.54725 7.6936 7.7448L1.77352 13.7043C1.57615 13.8962 1.3118 14.0024 1.03741 14C0.763021 13.9976 0.500544 13.8868 0.306514 13.6914C0.112484 13.4961 0.00242394 13.2319 3.95606e-05 12.9557C-0.00234481 12.6795 0.103137 12.4134 0.293766 12.2147L5.47396 7Z" fill="white"/>
</svg>
