<svg width="102" height="32" viewBox="0 0 102 32" fill="none" xmlns="http://www.w3.org/2000/svg">
<path d="M47.9688 2.0481H49.6643V16.7737H47.9688V2.0481Z" fill="black"/>
<path d="M55.1094 9.39425C55.1094 5.27598 58.6015 1.7699 62.6886 1.7699C66.8095 1.7699 70.2455 5.23146 70.2455 9.39425C70.2455 13.557 66.7871 17.0075 62.6886 17.0075C58.6127 17.0409 55.1094 13.557 55.1094 9.39425ZM68.5499 9.39425C68.5499 6.1219 65.8663 3.33929 62.6886 3.33929C59.511 3.33929 56.8049 6.1219 56.8049 9.39425C56.8049 12.6889 59.4997 15.4826 62.6886 15.4826C65.8776 15.4826 68.5499 12.7 68.5499 9.39425Z" fill="black"/>
<path d="M78.9254 3.62862H73.9512V2.0481H85.5839V3.63975H80.6097V16.7737H78.9142L78.9254 3.62862Z" fill="black"/>
<path d="M94.444 4.10723L88.8298 16.7848H86.9883L93.1415 2.88288C93.3661 2.38201 93.8714 2.0481 94.4216 2.0481C94.983 2.0481 95.4771 2.37088 95.6904 2.88288L101.855 16.7737H100.013L94.444 4.10723Z" fill="black"/>
<path d="M24.5011 3.84C25.5678 3.84 26.4324 2.98296 26.4324 1.91443C26.4324 0.857044 25.5678 0 24.4899 0C23.412 0 22.5586 0.857043 22.5586 1.92557C22.5586 2.98296 23.4344 3.84 24.5011 3.84Z" fill="black"/>
<path d="M26.6793 30.9425C27.7461 30.9425 28.6107 30.0855 28.6107 29.0281C28.6107 27.9707 27.7461 27.1136 26.6793 27.1136C25.6126 27.1136 24.748 27.9707 24.748 29.0281C24.748 30.0855 25.6126 30.9425 26.6793 30.9425Z" fill="black"/>
<path d="M25.0632 8.63725C25.9615 8.63725 26.6801 7.91377 26.6801 7.02334C26.6801 6.1329 25.939 5.40942 25.0407 5.40942C24.1425 5.40942 23.4238 6.1329 23.4238 7.02334C23.4351 7.91377 24.1649 8.63725 25.0632 8.63725Z" fill="black"/>
<path d="M29.384 9.24917C30.2823 9.24917 31.0009 8.52569 31.0009 7.63525C31.0009 6.74482 30.271 6.03247 29.3728 6.03247C28.4745 6.03247 27.7559 6.75595 27.7559 7.64638C27.7559 8.53682 28.4857 9.24917 29.384 9.24917Z" fill="black"/>
<path d="M24.4998 12.722C25.2633 12.722 25.8809 12.0987 25.8809 11.3418C25.8809 10.585 25.2521 9.97278 24.4885 9.97278C23.725 9.97278 23.1074 10.585 23.1074 11.3418C23.1187 12.1098 23.7362 12.722 24.4998 12.722Z" fill="black"/>
<path d="M28.8337 13.2896C29.5973 13.2896 30.2149 12.6663 30.2149 11.9094C30.2149 11.1526 29.5861 10.5404 28.8225 10.5404C28.059 10.5404 27.4414 11.1526 27.4414 11.9094C27.4414 12.6886 28.0702 13.3007 28.8337 13.2896Z" fill="black"/>
<path d="M32.3045 14.6367C33.068 14.6367 33.6856 14.0134 33.6856 13.2565C33.6856 12.4996 33.0568 11.8875 32.2932 11.8875C31.5297 11.8875 30.9121 12.4996 30.9121 13.2565C30.9121 14.0134 31.5297 14.6367 32.3045 14.6367Z" fill="black"/>
<path d="M27.5545 16.5845C28.2282 16.5845 28.7672 16.0502 28.7672 15.3824C28.7672 14.7146 28.2282 14.1803 27.5545 14.1803C26.8808 14.1803 26.3418 14.7146 26.3418 15.3824C26.3418 16.0502 26.8808 16.5845 27.5545 16.5845Z" fill="black"/>
<path d="M23.2205 16.0054C23.8942 16.0054 24.4332 15.4711 24.4332 14.8033C24.4332 14.1355 23.8942 13.6012 23.2205 13.6012C22.5468 13.6012 22.0078 14.1355 22.0078 14.8033C22.0078 15.46 22.5468 16.0054 23.2205 16.0054Z" fill="black"/>
<path d="M31.0467 17.92C31.7204 17.92 32.2593 17.3858 32.2593 16.718C32.2593 16.0501 31.7204 15.5159 31.0467 15.5159C30.373 15.5159 29.834 16.0501 29.834 16.718C29.8452 17.3858 30.3842 17.92 31.0467 17.92Z" fill="black"/>
<path d="M25.8143 19.0888C26.3869 19.0888 26.8473 18.6324 26.8585 18.0648C26.8698 17.4971 26.3982 17.0408 25.8255 17.0297C25.2528 17.0297 24.7925 17.486 24.7813 18.0537C24.7812 18.6213 25.2528 19.0888 25.8143 19.0888Z" fill="black"/>
<path d="M29.3177 20.3908C29.8904 20.3908 30.3507 19.9233 30.3507 19.3557C30.3507 18.788 29.8791 18.3317 29.3065 18.3317C28.7338 18.3317 28.2734 18.788 28.2734 19.3557C28.2734 19.9233 28.745 20.3908 29.3177 20.3908Z" fill="black"/>
<path d="M21.5247 18.4655C22.0974 18.4655 22.5577 17.998 22.5577 17.4304C22.5577 16.8627 22.0862 16.4064 21.5135 16.4064C20.9408 16.4064 20.4805 16.8627 20.4805 17.4304C20.4917 18.0092 20.9521 18.4655 21.5247 18.4655Z" fill="black"/>
<path d="M23.9056 20.7693C24.3884 20.7693 24.7702 20.3908 24.7702 19.9122C24.7702 19.4336 24.3884 19.0552 23.9056 19.0552C23.4228 19.0552 23.041 19.4336 23.041 19.9122C23.0522 20.3797 23.434 20.7581 23.9056 20.7693Z" fill="black"/>
<path d="M25.4095 23.1289C25.825 23.1289 26.1731 22.7838 26.1618 22.372C26.1506 21.9602 25.8138 21.6151 25.3983 21.6262C24.9829 21.6262 24.6348 21.9602 24.6348 22.3831C24.646 22.7949 24.9829 23.1289 25.4095 23.1289Z" fill="black"/>
<path d="M23.5682 23.6077C23.9163 23.6077 24.1858 23.3294 24.1858 22.9844C24.1858 22.6393 23.9051 22.3722 23.557 22.3722C23.2202 22.3722 22.9395 22.6505 22.9395 22.9844C22.9395 23.3294 23.2202 23.6077 23.5682 23.6077Z" fill="black"/>
<path d="M21.9408 21.8268C22.3562 21.8268 22.7043 21.4818 22.6931 21.07C22.6819 20.6581 22.345 20.3131 21.9296 20.3242C21.5141 20.3242 21.166 20.6581 21.166 21.0811C21.1772 21.4929 21.5141 21.8268 21.9408 21.8268C21.9296 21.8268 21.9408 21.8268 21.9408 21.8268Z" fill="black"/>
<path d="M19.5833 20.1795C20.0662 20.1795 20.4479 19.8011 20.4479 19.3225C20.4479 18.8439 20.0662 18.4655 19.5833 18.4655C19.1005 18.4655 18.7188 18.8439 18.7188 19.3225C18.7188 19.8011 19.1005 20.1795 19.5833 20.1795Z" fill="black"/>
<path d="M19.5384 13.735C20.0213 13.735 20.403 13.3565 20.403 12.8779C20.403 12.3993 20.0213 12.0209 19.5384 12.0209C19.0556 12.0209 18.6738 12.3993 18.6738 12.8779C18.6851 13.3565 19.0668 13.735 19.5384 13.735Z" fill="black"/>
<path d="M19.9296 10.7298C20.345 10.7298 20.6931 10.3959 20.6931 9.97293C20.6931 9.56111 20.3562 9.21606 19.9296 9.21606C19.5141 9.21606 19.166 9.54998 19.166 9.97293C19.166 10.3959 19.5029 10.7298 19.9296 10.7298Z" fill="black"/>
<path d="M20.7616 8.25868C21.1097 8.25868 21.3792 7.98041 21.3792 7.63537C21.3792 7.29032 21.0985 7.02319 20.7504 7.02319C20.4135 7.02319 20.1328 7.30146 20.1328 7.63537C20.1328 7.98041 20.4135 8.25868 20.7616 8.25868Z" fill="black"/>
<path d="M19.3026 7.09003C19.7181 7.09003 20.0661 6.75612 20.0661 6.33316C20.0661 5.92134 19.7293 5.57629 19.3026 5.57629C18.8871 5.57629 18.5391 5.91021 18.5391 6.33316C18.5391 6.75612 18.8759 7.09003 19.3026 7.09003Z" fill="black"/>
<path d="M27.3763 22.0716C27.8591 22.0716 28.2409 21.682 28.2297 21.2146C28.2185 20.7471 27.8367 20.3575 27.3651 20.3686C26.8935 20.3686 26.5117 20.7582 26.5117 21.2257C26.5117 21.682 26.8935 22.0716 27.3763 22.0716Z" fill="black"/>
<path d="M17.3255 6.09946C17.8084 6.09946 18.1901 5.72103 18.1901 5.24242C18.1901 4.76381 17.8084 4.38538 17.3255 4.38538C16.8427 4.38538 16.4609 4.76381 16.4609 5.24242C16.4609 5.7099 16.8539 6.09946 17.3255 6.09946Z" fill="black"/>
<path d="M17.9215 9.72809C18.4043 9.72809 18.7861 9.33853 18.7748 8.87105C18.7748 8.39244 18.3818 8.01401 17.9102 8.02514C17.4386 8.02514 17.0569 8.41471 17.0569 8.88218C17.0456 9.34966 17.4386 9.72809 17.9215 9.72809C17.9102 9.72809 17.9215 9.72809 17.9215 9.72809Z" fill="black"/>
<path d="M16.9551 13.1896C17.5278 13.1896 17.9881 12.7333 17.9881 12.1656C17.9881 11.5979 17.5278 11.1416 16.9551 11.1416C16.3824 11.1416 15.9221 11.5979 15.9221 12.1656C15.9108 12.7333 16.3712 13.1896 16.9551 13.1896Z" fill="black"/>
<path d="M13.7889 13.1896C14.4626 13.1896 15.0015 12.6553 15.0015 11.9875C15.0015 11.3197 14.4626 10.7854 13.7889 10.7854C13.1151 10.7854 12.5762 11.3197 12.5762 11.9875C12.5762 12.6553 13.1264 13.1896 13.7889 13.1896Z" fill="black"/>
<path d="M10.1174 14.0132C10.881 14.0132 11.4985 13.4011 11.4985 12.6442C11.4985 11.8873 10.881 11.2751 10.1174 11.2751C9.3539 11.2751 8.73633 11.8873 8.73633 12.6442C8.73633 13.4011 9.3539 14.0132 10.1174 14.0132Z" fill="black"/>
<path d="M6.09689 15.9722C6.99517 15.9722 7.72502 15.2487 7.72502 14.3583C7.72502 13.4679 6.99517 12.7444 6.09689 12.7444C5.1986 12.7444 4.47998 13.4679 4.46875 14.3583C4.47998 15.2487 5.1986 15.9611 6.09689 15.9722Z" fill="black"/>
<path d="M1.93131 19.2556C2.99802 19.2556 3.86262 18.3986 3.86262 17.3412C3.86262 16.2838 2.99802 15.4268 1.93131 15.4268C0.864597 15.4268 0 16.2838 0 17.3412C0 18.3986 0.864597 19.2556 1.93131 19.2556Z" fill="black"/>
<path d="M4.47983 11.9541C5.37811 11.9541 6.09674 11.2306 6.09674 10.3402C6.09674 9.44977 5.36688 8.73743 4.4686 8.73743C3.57032 8.73743 2.85169 9.46091 2.85169 10.3513C2.84046 11.2418 3.57032 11.9541 4.47983 11.9541C4.4686 11.9541 4.4686 11.9541 4.47983 11.9541Z" fill="black"/>
<path d="M8.48804 10.0062C9.25158 10.0062 9.86915 9.38287 9.86915 8.626C9.86915 7.86913 9.24036 7.25696 8.47681 7.25696C7.71327 7.25696 7.0957 7.86913 7.0957 8.626C7.10693 9.394 7.7245 10.0062 8.48804 10.0062Z" fill="black"/>
<path d="M7.90406 6.37764C8.6676 6.37764 9.28517 5.75433 9.28517 4.99746C9.28517 4.24059 8.65637 3.62842 7.89283 3.62842C7.12929 3.63955 6.51172 4.25172 6.51172 5.00859C6.51172 5.76546 7.12929 6.37764 7.90406 6.37764Z" fill="black"/>
<path d="M11.5755 5.5542C12.2492 5.5542 12.7769 5.00881 12.7769 4.34098C12.7769 3.67315 12.2267 3.15002 11.553 3.15002C10.8905 3.15002 10.3516 3.69542 10.3516 4.35211C10.3628 5.01994 10.9018 5.5542 11.5755 5.5542Z" fill="black"/>
<path d="M14.72 5.55413C15.2927 5.55413 15.7531 5.08665 15.7531 4.519C15.7531 3.95134 15.2815 3.495 14.7088 3.495C14.1361 3.495 13.6758 3.95134 13.6758 4.519C13.687 5.08665 14.1474 5.55413 14.72 5.55413Z" fill="black"/>
<path d="M15.3157 9.18254C15.8884 9.18254 16.3488 8.71506 16.3488 8.14741C16.3488 7.57976 15.8772 7.12341 15.3045 7.12341C14.7319 7.12341 14.2715 7.59089 14.2715 8.14741C14.2827 8.72619 14.7431 9.18254 15.3157 9.18254Z" fill="black"/>
<path d="M12.1599 9.21582C12.8337 9.21582 13.3726 8.68156 13.3726 8.01373C13.3726 7.34591 12.8337 6.81165 12.1599 6.81165C11.4862 6.81165 10.9473 7.34591 10.9473 8.01373C10.9473 8.68156 11.4975 9.21582 12.1599 9.21582Z" fill="black"/>
<path d="M8.73622 18.3318C9.08431 18.3318 9.35379 18.0535 9.35379 17.7085C9.35379 17.3634 9.07308 17.0963 8.72499 17.0963C8.38814 17.0963 8.10742 17.3746 8.10742 17.7085C8.10742 18.0535 8.38814 18.3318 8.73622 18.3318C8.72499 18.3318 8.73622 18.3318 8.73622 18.3318Z" fill="black"/>
<path d="M11.2279 18.0203C11.6433 18.0203 11.9914 17.6753 11.9802 17.2635C11.969 16.8516 11.6321 16.5066 11.2167 16.5177C10.8012 16.5177 10.4531 16.8516 10.4531 17.2746C10.4644 17.6864 10.8012 18.0203 11.2279 18.0203Z" fill="black"/>
<path d="M13.9681 16.9963C14.4509 16.9963 14.8327 16.6179 14.8327 16.1393C14.8327 15.6607 14.4509 15.2822 13.9681 15.2822C13.4853 15.2822 13.1035 15.6607 13.1035 16.1393C13.1035 16.6067 13.4853 16.9963 13.9681 16.9963Z" fill="black"/>
<path d="M14.6302 19.7344C15.2028 19.7344 15.6632 19.2669 15.6632 18.6993C15.6632 18.1316 15.1916 17.6753 14.619 17.6753C14.0463 17.6753 13.5859 18.1316 13.5859 18.6993C13.5859 19.2781 14.0575 19.7344 14.6302 19.7344Z" fill="black"/>
<path d="M11.2962 20.3911C11.7791 20.3911 12.1608 20.0015 12.1608 19.534C12.1608 19.0666 11.7678 18.677 11.2962 18.677C10.8246 18.677 10.4316 19.0666 10.4316 19.534C10.4316 20.0015 10.8134 20.3911 11.2962 20.3911Z" fill="black"/>
<path d="M8.35485 20.3577C8.7703 20.3577 9.11838 20.0127 9.10716 19.6009C9.09593 19.189 8.75907 18.844 8.34362 18.8551C7.92816 18.8551 7.58008 19.189 7.58008 19.612C7.59131 20.0127 7.92816 20.3577 8.35485 20.3577Z" fill="black"/>
<path d="M8.38803 22.7171C8.87086 22.7171 9.25263 22.3387 9.25263 21.8601C9.25263 21.3815 8.87086 21.0031 8.38803 21.0031C7.90521 21.0031 7.52344 21.3815 7.52344 21.8601C7.53467 22.3276 7.91644 22.7171 8.38803 22.7171Z" fill="black"/>
<path d="M11.9134 23.1624C12.486 23.1624 12.9464 22.6949 12.9464 22.1273C12.9464 21.5596 12.4748 21.1033 11.9022 21.1033C11.3295 21.1033 10.8691 21.5596 10.8691 22.1273C10.8804 22.7061 11.3407 23.1624 11.9134 23.1624Z" fill="black"/>
<path d="M16.0467 22.7173C16.7204 22.7173 17.2593 22.183 17.2593 21.5152C17.2593 20.8474 16.7204 20.3131 16.0467 20.3131C15.3842 20.3131 14.834 20.8474 14.834 21.5152C14.834 22.183 15.373 22.7173 16.0467 22.7173Z" fill="black"/>
<path d="M18.4705 25.7C19.234 25.7 19.8516 25.0767 19.8516 24.3198C19.8516 23.563 19.2228 22.9508 18.4592 22.9508C17.6957 22.9508 17.0781 23.563 17.0781 24.3198C17.0781 25.0878 17.7069 25.7 18.4705 25.7Z" fill="black"/>
<path d="M13.3841 26.1119C14.0578 26.1119 14.5855 25.5665 14.5855 24.8987C14.5855 24.2309 14.0353 23.7078 13.3616 23.7078C12.6991 23.7078 12.1602 24.2532 12.1602 24.9099C12.1602 25.5777 12.7104 26.1119 13.3841 26.1119C13.3728 26.1119 13.3841 26.1119 13.3841 26.1119Z" fill="black"/>
<path d="M10.4993 28.4382C11.173 28.4382 11.712 27.8929 11.7008 27.2362C11.7008 26.5683 11.1506 26.0341 10.4881 26.0452C9.82559 26.0452 9.28662 26.5795 9.27539 27.2473C9.28662 27.904 9.82559 28.4382 10.4993 28.4382Z" fill="black"/>
<path d="M12.8909 31.4546C13.6544 31.4546 14.272 30.8425 14.272 30.0856C14.272 29.3287 13.6544 28.7166 12.8909 28.7166C12.1273 28.7166 11.5098 29.3287 11.5098 30.0856C11.5098 30.8425 12.1273 31.4546 12.8909 31.4546Z" fill="black"/>
<path d="M19.2688 31.9999C20.167 31.9999 20.8857 31.2764 20.8857 30.386C20.8857 29.4956 20.1558 28.7832 19.2575 28.7832C18.3593 28.7832 17.6406 29.5067 17.6406 30.3971C17.6406 31.2876 18.3705 31.9999 19.2688 31.9999Z" fill="black"/>
<path d="M15.7659 29.1282C16.5294 29.1282 17.147 28.516 17.147 27.7592C17.147 27.0023 16.5294 26.3901 15.7659 26.3901C15.0023 26.3901 14.3848 27.0023 14.3848 27.7592C14.3848 28.516 15.0023 29.1282 15.7659 29.1282Z" fill="black"/>
<path d="M21.9406 28.583C22.8389 28.583 23.5688 27.8596 23.5688 26.9691C23.5688 26.0787 22.8389 25.3552 21.9406 25.3552C21.0424 25.3552 20.3125 26.0787 20.3125 26.9691C20.3125 27.8484 21.0424 28.5719 21.9406 28.583Z" fill="black"/>
<path d="M9.05011 25.4887C9.62277 25.4887 10.0831 25.0212 10.0831 24.4536C10.0831 23.8859 9.61154 23.4296 9.03888 23.4296C8.46623 23.4296 8.00586 23.8859 8.00586 24.4536C8.00586 25.0212 8.46623 25.4776 9.02766 25.4776C9.03888 25.4998 9.03888 25.4998 9.05011 25.4887Z" fill="black"/>
<path d="M47.9805 31.0875H48.6991V28.9838H51.1469V28.3605H48.6991V26.9804H51.1918V26.3571H47.9805V31.0875Z" fill="black"/>
<path d="M52.8418 28.7165C52.8418 30.119 53.8187 31.1652 55.2559 31.1652C56.6932 31.1652 57.6588 30.119 57.6588 28.7165C57.6588 27.3141 56.6819 26.2678 55.2559 26.2678C53.8299 26.2678 52.8418 27.303 52.8418 28.7165ZM56.9177 28.7165C56.9177 29.7516 56.2552 30.5419 55.2559 30.5419C54.2229 30.5419 53.5829 29.7628 53.5829 28.7165C53.5829 27.6703 54.2341 26.8911 55.2559 26.8911C56.2552 26.8911 56.9177 27.6703 56.9177 28.7165Z" fill="black"/>
<path d="M59.6016 29.2284C59.6016 30.3971 60.2753 31.1651 61.6227 31.1651C62.9701 31.1651 63.6326 30.3971 63.6326 29.2173V26.3345H62.9028V29.2061C62.9028 30.0186 62.4536 30.5418 61.6227 30.5418C60.7918 30.5418 60.3314 30.0186 60.3314 29.2061V26.3345H59.6016V29.2284Z" fill="black"/>
<path d="M69.1347 31.0872H69.8309V26.3456H69.1122V29.9073L66.5072 26.3456H65.7773V31.0872H66.496V27.4475L69.1347 31.0872Z" fill="black"/>
<path d="M71.9746 31.0872H73.6814C75.1747 31.0872 76.1629 30.0854 76.1629 28.7164C76.1629 27.3473 75.1747 26.3456 73.6814 26.3456H71.9746V31.0872ZM72.682 30.4527V26.9578H73.6701C74.8042 26.9578 75.4218 27.7369 75.4218 28.7052C75.4218 29.6736 74.7817 30.4416 73.6701 30.4416H72.682V30.4527Z" fill="black"/>
<path d="M81.2611 31.0872H82.0471L80.1494 26.3456H79.2511L77.3535 31.0872H78.1395L78.5213 30.1077H80.8681L81.2611 31.0872ZM79.7003 26.9578L80.6659 29.4621H78.7234L79.7003 26.9578Z" fill="black"/>
<path d="M84.3943 31.0872H85.1129V26.9689H86.5951V26.3456H82.9121V26.9689H84.3943V31.0872Z" fill="black"/>
<path d="M88.4141 31.0872H89.1327V26.3456H88.4141V31.0872Z" fill="black"/>
<path d="M91.0742 28.7165C91.0742 30.119 92.0623 31.1652 93.4884 31.1652C94.9144 31.1652 95.9025 30.119 95.9025 28.7165C95.9025 27.3141 94.9144 26.2678 93.4884 26.2678C92.0623 26.2678 91.0742 27.303 91.0742 28.7165ZM95.1614 28.7165C95.1614 29.7516 94.4989 30.5419 93.4884 30.5419C92.4778 30.5419 91.8153 29.7516 91.8153 28.7165C91.8153 27.6814 92.4666 26.8911 93.4884 26.8911C94.5102 26.8911 95.1614 27.6703 95.1614 28.7165Z" fill="black"/>
<path d="M101.203 31.0872H101.899V26.3456H101.18V29.9073L98.5751 26.3456H97.834V31.0872H98.5526V27.4475L101.203 31.0872Z" fill="black"/>
<path fill-rule="evenodd" clip-rule="evenodd" d="M102 22.2385H47.9688V21.6152H102V22.2385Z" fill="black"/>
</svg>
