<svg width="140" height="46" viewBox="0 0 140 46" fill="none" xmlns="http://www.w3.org/2000/svg">
<g clip-path="url(#clip0)">
<path d="M129.416 24.4697H110.432V45.6945H129.416C135.27 45.6945 140.033 40.9263 140.033 35.0655C140.033 29.2047 135.27 24.4697 129.416 24.4697Z" fill="url(#paint0_linear)"/>
<path d="M114.633 24.4697H95.6484V45.6945H114.633C120.487 45.6945 125.249 40.9263 125.249 35.0655C125.249 29.2047 120.487 24.4697 114.633 24.4697Z" fill="url(#paint1_linear)"/>
<path d="M99.8487 24.4697H75.209V45.6945H99.8487C105.703 45.6945 110.465 40.9263 110.465 35.0655C110.465 29.2047 105.703 24.4697 99.8487 24.4697Z" fill="url(#paint2_linear)"/>
<path d="M85.0651 24.4697H47.7251V45.6945H85.0651C90.9191 45.6945 95.6816 40.9263 95.6816 35.0655C95.6816 29.2047 90.9191 24.4697 85.0651 24.4697Z" fill="url(#paint3_linear)"/>
<path d="M1.91826 1.68871V3.77476H4.92795V5.43035H1.91826V9.20511H0V0H5.39098V1.68871H1.91826Z" fill="black"/>
<path d="M11.708 7.28462H7.83839L7.17692 9.172H5.22559L8.59908 0H10.9142L14.2877 9.172H12.3364L11.708 7.28462ZM11.1457 5.69525L9.78973 1.78804L8.43371 5.69525H11.1457Z" fill="black"/>
<path d="M18.1573 5.13235H17.595V9.172H15.6768V0H18.9841C21.0677 0 21.9276 1.22514 21.9276 2.74829C21.9276 3.97343 21.2331 4.76812 19.9763 5.03301L22.7214 9.172H20.4724L18.1573 5.13235ZM17.595 3.77476H18.7195C19.7448 3.77476 20.1417 3.3443 20.1417 2.68207C20.1417 2.01983 19.7448 1.58937 18.7195 1.58937H17.595V3.77476Z" fill="black"/>
<path d="M1.91826 17.0525V19.1385H4.92795V20.7941H1.91826V24.5689H0V15.3638H5.39098V17.0525H1.91826Z" fill="black"/>
<path d="M6.84619 21.3239V15.3638H8.76445V21.059C8.76445 22.4497 9.49207 22.9795 10.4512 22.9795C11.4103 22.9795 12.1379 22.4497 12.1379 21.059V15.3638H14.0562V21.3239C14.0562 23.6417 12.4687 24.6682 10.4512 24.6682C8.40064 24.6682 6.84619 23.6417 6.84619 21.3239Z" fill="black"/>
<path d="M21.4984 17.0525H19.3156V24.5689H17.4304V17.0525H15.2476V15.3638H21.4984V17.0525Z" fill="black"/>
<path d="M22.7544 21.3239V15.3638H24.6727V21.059C24.6727 22.4497 25.4003 22.9795 26.3594 22.9795C27.3185 22.9795 28.0461 22.4497 28.0461 21.059V15.3638H29.9644V21.3239C29.9644 23.6417 28.3769 24.6682 26.3594 24.6682C24.3419 24.6682 22.7544 23.6417 22.7544 21.3239Z" fill="black"/>
<path d="M34.5948 20.4961H34.0325V24.5358H32.1143V15.3638H35.4216C37.5052 15.3638 38.3651 16.5889 38.3651 18.1121C38.3651 19.3372 37.6706 20.1319 36.4138 20.3968L39.1589 24.5358H36.9099L34.5948 20.4961ZM34.0325 19.1385H35.157C36.1823 19.1385 36.5792 18.7081 36.5792 18.0458C36.5792 17.3836 36.1823 16.9531 35.157 16.9531H34.0325V19.1385Z" fill="black"/>
<path d="M42.532 17.0525V19.1385H45.5417V20.7941H42.532V22.8471H45.9386V24.5358H40.6138V15.3638H45.9386V17.0525H42.532Z" fill="black"/>
<path d="M1.91826 32.4165V34.5025H4.92795V36.1581H1.91826V39.9329H0V30.7278H5.39098V32.4165H1.91826Z" fill="black"/>
<path d="M6.3833 35.3306C6.3833 32.4498 8.36771 30.6287 11.0797 30.6287C13.7587 30.6287 15.7762 32.4498 15.7762 35.3306C15.7762 38.2113 13.7918 40.0656 11.0797 40.0656C8.40078 40.0324 6.3833 38.2113 6.3833 35.3306ZM13.891 35.3306C13.891 33.4763 12.6673 32.3836 11.1128 32.3836C9.52528 32.3836 8.33464 33.4763 8.33464 35.3306C8.33464 37.1848 9.55835 38.3106 11.1128 38.3106C12.6673 38.3106 13.891 37.1848 13.891 35.3306Z" fill="black"/>
<path d="M17.3301 36.6879V30.7278H19.2483V36.423C19.2483 37.8137 19.976 38.3435 20.9351 38.3435C21.8942 38.3435 22.6218 37.8137 22.6218 36.423V30.7278H24.5401V36.6879C24.5401 39.0058 22.9526 40.0322 20.9351 40.0322C18.8845 40.0322 17.3301 39.0058 17.3301 36.6879Z" fill="black"/>
<path d="M34.8596 30.7278V39.8998H32.6437L28.5756 33.3436V39.8998H26.6904V30.7278H28.8733L32.9744 37.2508V30.7278H34.8596Z" fill="black"/>
<path d="M37.2075 30.7278H40.5149C43.4253 30.7278 44.8806 32.582 44.8806 35.2972C44.8806 38.0455 43.4253 39.8998 40.5149 39.8998H37.2075V30.7278ZM40.4487 38.2442C42.1355 38.2442 42.8962 37.1846 42.8962 35.3303C42.8962 33.4761 42.1355 32.4165 40.4487 32.4165H39.1258V38.2442H40.4487Z" fill="black"/>
<path d="M51.694 38.0124H47.8574L47.196 39.8998H45.2446L48.6181 30.7278H50.9333L54.3068 39.8998H52.3554L51.694 38.0124ZM51.1317 36.423L49.7757 32.5158L48.4197 36.423H51.1317Z" fill="black"/>
<path d="M60.227 32.4165H58.0441V39.9329H56.1589V32.4165H53.9761V30.7278H60.227V32.4165Z" fill="black"/>
<path d="M61.6489 30.7278H63.5672V39.8998H61.6489V30.7278Z" fill="black"/>
<path d="M65.2871 35.3306C65.2871 32.4498 67.2715 30.6287 69.9835 30.6287C72.6625 30.6287 74.68 32.4498 74.68 35.3306C74.68 38.2113 72.6956 40.0656 69.9835 40.0656C67.3046 40.0324 65.2871 38.2113 65.2871 35.3306ZM72.7948 35.3306C72.7948 33.4763 71.5711 32.3836 70.0166 32.3836C68.4291 32.3836 67.2384 33.4763 67.2384 35.3306C67.2384 37.1848 68.4622 38.3106 70.0166 38.3106C71.5711 38.3106 72.7948 37.1848 72.7948 35.3306Z" fill="black"/>
<path d="M84.569 30.7278V39.8998H82.3531L78.2851 33.3436V39.8998H76.3999V30.7278H78.5828L82.6839 37.2508V30.7278H84.569Z" fill="black"/>
</g>
<defs>
<linearGradient id="paint0_linear" x1="110.418" y1="35.0764" x2="140.015" y2="35.0764" gradientUnits="userSpaceOnUse">
<stop offset="0.2233" stop-color="#F8D2AB" stop-opacity="0"/>
<stop offset="0.65" stop-color="#F8D2AB"/>
</linearGradient>
<linearGradient id="paint1_linear" x1="94.6412" y1="36.21" x2="125.077" y2="33.0147" gradientUnits="userSpaceOnUse">
<stop offset="0.2233" stop-color="#00A789" stop-opacity="0"/>
<stop offset="0.65" stop-color="#00A789"/>
</linearGradient>
<linearGradient id="paint2_linear" x1="75.2124" y1="35.0764" x2="110.453" y2="35.0764" gradientUnits="userSpaceOnUse">
<stop offset="0.2233" stop-color="#0D7CFF" stop-opacity="0"/>
<stop offset="0.65" stop-color="#0D7CFF"/>
</linearGradient>
<linearGradient id="paint3_linear" x1="95.6726" y1="35.0764" x2="47.7297" y2="35.0764" gradientUnits="userSpaceOnUse">
<stop offset="0.0659722" stop-color="#24D7E8"/>
<stop offset="1" stop-color="#24D7E8" stop-opacity="0"/>
</linearGradient>
<clipPath id="clip0">
<rect width="140" height="45.6944" fill="white"/>
</clipPath>
</defs>
</svg>
