<svg width="55" height="55" viewBox="0 0 55 55" fill="none" xmlns="http://www.w3.org/2000/svg">
<mask id="path-1-inside-1" fill="white">
<path d="M36.8167 30.3667H33.95C39.2533 30.1517 44.7 27.1417 44.7 21.7667C44.7 21.5517 44.7 21.4083 44.7 21.1933C44.7 21.1217 44.7 21.05 44.7 21.05C44.7 10.1567 37.175 8.86667 32.66 8.07833C31.5133 7.86333 30.5817 7.72 29.9367 7.43333C27.3567 6.50167 23.0567 7.36167 20.3333 8.15C20.3333 6.93167 19.4017 6 18.1833 6C17.18 6 16.3917 6.645 16.105 7.505L13.095 8.00667C12.3783 8.15 11.805 8.58 11.4467 9.15333C11.3033 9.44 11.0167 9.58333 10.6583 9.58333H8.86667C8.43667 9.58333 8.15 9.87 8.15 10.3V12.45C8.15 12.7367 8.29333 12.9517 8.58 13.095L12.88 15.245C12.9517 15.3167 13.0233 15.3167 13.1667 15.3167H16.6067C17.395 15.675 21.4083 17.61 22.555 19.9033C23.4867 21.7667 23.7733 25.0633 23.845 26.855C23.845 27.285 23.5583 27.715 23.1283 27.7867H22.985C21.695 28.0733 20.6917 29.0767 20.405 30.3667H18.9C18.47 30.3667 18.1833 30.6533 18.1833 31.0833H6V32.5167H18.1833V35.3833C18.1833 35.5983 18.255 35.8133 18.47 35.9567L21.265 38.035L23.3433 40.83C23.5583 41.045 23.845 41.1883 24.1317 41.045L25.4933 40.615L26.7833 48.4267C26.855 48.7133 27.07 48.9283 27.285 49C27.3567 49 27.4283 49 27.5 49C27.715 49 27.93 48.9283 28.0733 48.7133L30.94 45.13C31.0117 45.0583 31.0833 44.915 31.0833 44.8433L32.1583 39.8983L33.3767 41.5467C33.52 41.7617 33.8067 41.8333 34.0217 41.8333C34.3083 41.8333 34.5233 41.6183 34.595 41.4033L36.0283 37.8917L37.39 35.8133C37.4617 35.67 37.5333 35.5267 37.5333 35.3833V32.5167H49V31.0833H37.5333C37.5333 30.6533 37.2467 30.3667 36.8167 30.3667ZM23.2717 29.22H23.415C24.5617 29.005 25.35 28.0017 25.2783 26.855C25.2067 24.9917 24.8483 21.48 23.845 19.33C22.34 16.2483 17.2517 14.0983 17.0367 13.955C16.965 13.8833 16.8217 13.8833 16.75 13.8833H13.31L9.58333 12.02V11.0167H10.6583C11.4467 11.0167 12.235 10.5867 12.665 9.87C12.8083 9.655 13.0233 9.51167 13.31 9.44L16.8933 8.86667C17.18 8.795 17.4667 8.50833 17.4667 8.15C17.4667 7.72 17.7533 7.43333 18.1833 7.43333C18.6133 7.43333 18.9 7.72 18.9 8.15C18.9 8.365 18.8283 8.50833 18.685 8.65167C18.3983 8.72333 18.1833 8.795 18.04 8.86667H17.4667V10.3H18.1833C18.6133 10.3 19.0433 10.1567 19.4017 9.94167C22.0533 9.08167 26.9983 7.86333 29.435 8.795C30.2233 9.08167 31.2983 9.29667 32.445 9.51167C36.96 10.3 43.195 11.375 43.2667 20.835C43.2667 20.9067 43.195 21.05 43.2667 21.1217C43.2667 21.3367 43.2667 21.5517 43.2667 21.7667C43.2667 26.3533 38.1783 28.8617 33.3767 28.9333H33.2333C32.875 28.9333 32.5167 29.2917 32.5167 29.65C32.5167 29.7217 32.5167 29.7217 32.5167 29.7933V30.3667H29.7217C29.9367 29.5783 30.3667 28.79 31.0833 28.36L31.4417 28.145C31.585 28.0017 31.7283 27.8583 31.7283 27.6433C31.7283 27.4283 31.6567 27.2133 31.585 27.07C31.585 27.07 29.5783 24.7767 29.5783 22.555H28.145C28.145 24.5617 29.2917 26.4967 30.0083 27.4283C29.0767 28.145 28.4317 29.2917 28.2167 30.4383H21.8383C22.125 29.7933 22.6267 29.3633 23.2717 29.22ZM36.1 35.1683L34.81 37.1033C34.81 37.175 34.7383 37.175 34.7383 37.2467L33.735 39.6833L32.5167 38.035V36.1H31.0833V38.1783L29.7217 44.4133L27.93 46.635L26.7833 39.6117V35.3833H25.35V39.1817L24.2033 39.54L22.4833 37.3183V33.2333H21.05V36.1L19.6167 35.025V31.8H30.3667V33.2333H31.8V31.8H36.1V35.1683Z"/>
</mask>
<path d="M36.8167 30.3667H33.95C39.2533 30.1517 44.7 27.1417 44.7 21.7667C44.7 21.5517 44.7 21.4083 44.7 21.1933C44.7 21.1217 44.7 21.05 44.7 21.05C44.7 10.1567 37.175 8.86667 32.66 8.07833C31.5133 7.86333 30.5817 7.72 29.9367 7.43333C27.3567 6.50167 23.0567 7.36167 20.3333 8.15C20.3333 6.93167 19.4017 6 18.1833 6C17.18 6 16.3917 6.645 16.105 7.505L13.095 8.00667C12.3783 8.15 11.805 8.58 11.4467 9.15333C11.3033 9.44 11.0167 9.58333 10.6583 9.58333H8.86667C8.43667 9.58333 8.15 9.87 8.15 10.3V12.45C8.15 12.7367 8.29333 12.9517 8.58 13.095L12.88 15.245C12.9517 15.3167 13.0233 15.3167 13.1667 15.3167H16.6067C17.395 15.675 21.4083 17.61 22.555 19.9033C23.4867 21.7667 23.7733 25.0633 23.845 26.855C23.845 27.285 23.5583 27.715 23.1283 27.7867H22.985C21.695 28.0733 20.6917 29.0767 20.405 30.3667H18.9C18.47 30.3667 18.1833 30.6533 18.1833 31.0833H6V32.5167H18.1833V35.3833C18.1833 35.5983 18.255 35.8133 18.47 35.9567L21.265 38.035L23.3433 40.83C23.5583 41.045 23.845 41.1883 24.1317 41.045L25.4933 40.615L26.7833 48.4267C26.855 48.7133 27.07 48.9283 27.285 49C27.3567 49 27.4283 49 27.5 49C27.715 49 27.93 48.9283 28.0733 48.7133L30.94 45.13C31.0117 45.0583 31.0833 44.915 31.0833 44.8433L32.1583 39.8983L33.3767 41.5467C33.52 41.7617 33.8067 41.8333 34.0217 41.8333C34.3083 41.8333 34.5233 41.6183 34.595 41.4033L36.0283 37.8917L37.39 35.8133C37.4617 35.67 37.5333 35.5267 37.5333 35.3833V32.5167H49V31.0833H37.5333C37.5333 30.6533 37.2467 30.3667 36.8167 30.3667ZM23.2717 29.22H23.415C24.5617 29.005 25.35 28.0017 25.2783 26.855C25.2067 24.9917 24.8483 21.48 23.845 19.33C22.34 16.2483 17.2517 14.0983 17.0367 13.955C16.965 13.8833 16.8217 13.8833 16.75 13.8833H13.31L9.58333 12.02V11.0167H10.6583C11.4467 11.0167 12.235 10.5867 12.665 9.87C12.8083 9.655 13.0233 9.51167 13.31 9.44L16.8933 8.86667C17.18 8.795 17.4667 8.50833 17.4667 8.15C17.4667 7.72 17.7533 7.43333 18.1833 7.43333C18.6133 7.43333 18.9 7.72 18.9 8.15C18.9 8.365 18.8283 8.50833 18.685 8.65167C18.3983 8.72333 18.1833 8.795 18.04 8.86667H17.4667V10.3H18.1833C18.6133 10.3 19.0433 10.1567 19.4017 9.94167C22.0533 9.08167 26.9983 7.86333 29.435 8.795C30.2233 9.08167 31.2983 9.29667 32.445 9.51167C36.96 10.3 43.195 11.375 43.2667 20.835C43.2667 20.9067 43.195 21.05 43.2667 21.1217C43.2667 21.3367 43.2667 21.5517 43.2667 21.7667C43.2667 26.3533 38.1783 28.8617 33.3767 28.9333H33.2333C32.875 28.9333 32.5167 29.2917 32.5167 29.65C32.5167 29.7217 32.5167 29.7217 32.5167 29.7933V30.3667H29.7217C29.9367 29.5783 30.3667 28.79 31.0833 28.36L31.4417 28.145C31.585 28.0017 31.7283 27.8583 31.7283 27.6433C31.7283 27.4283 31.6567 27.2133 31.585 27.07C31.585 27.07 29.5783 24.7767 29.5783 22.555H28.145C28.145 24.5617 29.2917 26.4967 30.0083 27.4283C29.0767 28.145 28.4317 29.2917 28.2167 30.4383H21.8383C22.125 29.7933 22.6267 29.3633 23.2717 29.22ZM36.1 35.1683L34.81 37.1033C34.81 37.175 34.7383 37.175 34.7383 37.2467L33.735 39.6833L32.5167 38.035V36.1H31.0833V38.1783L29.7217 44.4133L27.93 46.635L26.7833 39.6117V35.3833H25.35V39.1817L24.2033 39.54L22.4833 37.3183V33.2333H21.05V36.1L19.6167 35.025V31.8H30.3667V33.2333H31.8V31.8H36.1V35.1683Z" fill="white" stroke="white" stroke-width="4" mask="url(#path-1-inside-1)"/>
</svg>
