<svg width="264" height="55" viewBox="0 0 264 55" fill="none" xmlns="http://www.w3.org/2000/svg">
<path d="M75.746 19.028V16.634H66.224V29H68.888V24.104H75.098V21.71H68.888V19.028H75.746ZM81.7182 19.478C80.4222 19.478 79.1442 19.838 77.8302 20.504L78.7122 22.25C79.4502 21.872 80.2602 21.584 81.1242 21.584C82.6542 21.584 83.2662 22.448 83.2662 23.438V23.618C82.4742 23.312 81.6462 23.15 80.8902 23.15C78.7302 23.15 77.0202 24.41 77.0202 26.246C77.0202 28.028 78.5502 29.216 80.5302 29.216C81.5382 29.216 82.6002 28.82 83.2662 28.064V29H85.8042V23.438C85.8042 21.008 84.1482 19.478 81.7182 19.478ZM81.1242 27.398C80.2242 27.398 79.5582 26.93 79.5582 26.174C79.5582 25.418 80.3142 24.86 81.2682 24.86C81.9882 24.86 82.6722 24.986 83.2662 25.202V26.066C83.0862 26.93 82.1322 27.398 81.1242 27.398ZM90.6472 21.422V19.694H88.0192V29H90.6472V24.554C90.6472 22.808 91.8892 21.692 93.8332 21.692V19.478C92.4112 19.478 91.2592 20.216 90.6472 21.422ZM109.971 19.028V16.634H100.449V29H103.113V24.104H109.323V21.71H103.113V19.028H109.971ZM117.959 19.694V25.256L117.941 25.202C117.941 26.21 117.095 27.002 115.997 27.002C114.953 27.002 114.233 26.21 114.233 25.058V19.694H111.695V25.616C111.695 27.722 113.135 29.216 115.151 29.216C116.357 29.216 117.401 28.676 117.959 27.83V29H120.587V19.694H117.959ZM127.737 26.696C127.557 26.876 127.197 27.002 126.837 27.002C126.351 27.002 125.955 26.57 125.955 25.958V21.818H127.971V19.694H125.955V17.138H123.435V19.694H122.157V21.818H123.435V26.372C123.435 28.046 124.587 29.216 126.225 29.216C126.981 29.216 127.827 28.892 128.367 28.406L127.737 26.696ZM136.187 19.694V25.256L136.169 25.202C136.169 26.21 135.323 27.002 134.225 27.002C133.181 27.002 132.461 26.21 132.461 25.058V19.694H129.923V25.616C129.923 27.722 131.363 29.216 133.379 29.216C134.585 29.216 135.629 28.676 136.187 27.83V29H138.815V19.694H136.187ZM143.698 21.422V19.694H141.07V29H143.698V24.554C143.698 22.808 144.94 21.692 146.884 21.692V19.478C145.462 19.478 144.31 20.216 143.698 21.422ZM152.792 26.894C151.694 26.894 150.884 26.21 150.578 25.202H157.292C157.292 21.692 155.582 19.478 152.666 19.478C149.948 19.478 147.878 21.512 147.878 24.32C147.878 27.182 150.038 29.216 152.81 29.216C154.178 29.216 155.78 28.64 156.608 27.776L154.934 26.066C154.43 26.552 153.53 26.894 152.792 26.894ZM152.774 21.8C153.836 21.8 154.52 22.394 154.772 23.312H150.614C150.956 22.376 151.784 21.8 152.774 21.8ZM173.691 19.028V16.634H164.169V29H166.833V24.104H173.043V21.71H166.833V19.028H173.691ZM180.078 29.216C182.832 29.216 185.136 26.984 185.136 24.338C185.136 21.692 182.832 19.478 180.078 19.478C177.306 19.478 174.984 21.692 174.984 24.338C174.984 26.984 177.306 29.216 180.078 29.216ZM180.078 27.002C178.674 27.002 177.504 25.778 177.504 24.338C177.504 22.898 178.674 21.692 180.078 21.692C181.464 21.692 182.634 22.898 182.634 24.338C182.634 25.778 181.464 27.002 180.078 27.002ZM193.088 19.694V25.256L193.07 25.202C193.07 26.21 192.224 27.002 191.126 27.002C190.082 27.002 189.362 26.21 189.362 25.058V19.694H186.824V25.616C186.824 27.722 188.264 29.216 190.28 29.216C191.486 29.216 192.53 28.676 193.088 27.83V29H195.716V19.694H193.088ZM203.352 19.478C202.146 19.478 201.102 20.018 200.544 20.864V19.694H197.916V29H200.544V23.438L200.562 23.492C200.562 22.484 201.408 21.692 202.506 21.692C203.55 21.692 204.27 22.484 204.27 23.636V29H206.808V23.078C206.808 20.972 205.368 19.478 203.352 19.478ZM215.975 16.418V21.026C215.237 20.054 214.157 19.478 212.843 19.478C210.359 19.478 208.559 21.494 208.559 24.338C208.559 27.2 210.359 29.216 212.843 29.216C214.157 29.216 215.237 28.64 215.975 27.668V29H218.603V16.418H215.975ZM213.599 27.002C212.141 27.002 211.115 25.904 211.115 24.338C211.115 22.79 212.141 21.692 213.599 21.692C214.985 21.692 215.975 22.79 215.975 24.338C215.975 25.904 214.985 27.002 213.599 27.002ZM225.068 19.478C223.772 19.478 222.494 19.838 221.18 20.504L222.062 22.25C222.8 21.872 223.61 21.584 224.474 21.584C226.004 21.584 226.616 22.448 226.616 23.438V23.618C225.824 23.312 224.996 23.15 224.24 23.15C222.08 23.15 220.37 24.41 220.37 26.246C220.37 28.028 221.9 29.216 223.88 29.216C224.888 29.216 225.95 28.82 226.616 28.064V29H229.154V23.438C229.154 21.008 227.498 19.478 225.068 19.478ZM224.474 27.398C223.574 27.398 222.908 26.93 222.908 26.174C222.908 25.418 223.664 24.86 224.618 24.86C225.338 24.86 226.022 24.986 226.616 25.202V26.066C226.436 26.93 225.482 27.398 224.474 27.398ZM236.265 26.696C236.085 26.876 235.725 27.002 235.365 27.002C234.879 27.002 234.483 26.57 234.483 25.958V21.818H236.499V19.694H234.483V17.138H231.963V19.694H230.685V21.818H231.963V26.372C231.963 28.046 233.115 29.216 234.753 29.216C235.509 29.216 236.355 28.892 236.895 28.406L236.265 26.696ZM239.855 18.416C240.629 18.416 241.259 17.768 241.259 16.976C241.259 16.238 240.629 15.572 239.855 15.572C239.045 15.572 238.415 16.238 238.415 16.976C238.415 17.768 239.045 18.416 239.855 18.416ZM238.523 29H241.151V19.694H238.523V29ZM248.017 29.216C250.771 29.216 253.075 26.984 253.075 24.338C253.075 21.692 250.771 19.478 248.017 19.478C245.245 19.478 242.923 21.692 242.923 24.338C242.923 26.984 245.245 29.216 248.017 29.216ZM248.017 27.002C246.613 27.002 245.443 25.778 245.443 24.338C245.443 22.898 246.613 21.692 248.017 21.692C249.403 21.692 250.573 22.898 250.573 24.338C250.573 25.778 249.403 27.002 248.017 27.002ZM260.235 19.478C259.029 19.478 257.985 20.018 257.427 20.864V19.694H254.799V29H257.427V23.438L257.445 23.492C257.445 22.484 258.291 21.692 259.389 21.692C260.433 21.692 261.153 22.484 261.153 23.636V29H263.691V23.078C263.691 20.972 262.251 19.478 260.235 19.478Z" fill="white"/>
<mask id="path-2-inside-1" fill="white">
<path d="M36.8167 30.3667H33.95C39.2533 30.1517 44.7 27.1417 44.7 21.7667C44.7 21.5517 44.7 21.4083 44.7 21.1933C44.7 21.1217 44.7 21.05 44.7 21.05C44.7 10.1567 37.175 8.86667 32.66 8.07833C31.5133 7.86333 30.5817 7.72 29.9367 7.43333C27.3567 6.50167 23.0567 7.36167 20.3333 8.15C20.3333 6.93167 19.4017 6 18.1833 6C17.18 6 16.3917 6.645 16.105 7.505L13.095 8.00667C12.3783 8.15 11.805 8.58 11.4467 9.15333C11.3033 9.44 11.0167 9.58333 10.6583 9.58333H8.86667C8.43667 9.58333 8.15 9.87 8.15 10.3V12.45C8.15 12.7367 8.29333 12.9517 8.58 13.095L12.88 15.245C12.9517 15.3167 13.0233 15.3167 13.1667 15.3167H16.6067C17.395 15.675 21.4083 17.61 22.555 19.9033C23.4867 21.7667 23.7733 25.0633 23.845 26.855C23.845 27.285 23.5583 27.715 23.1283 27.7867H22.985C21.695 28.0733 20.6917 29.0767 20.405 30.3667H18.9C18.47 30.3667 18.1833 30.6533 18.1833 31.0833H6V32.5167H18.1833V35.3833C18.1833 35.5983 18.255 35.8133 18.47 35.9567L21.265 38.035L23.3433 40.83C23.5583 41.045 23.845 41.1883 24.1317 41.045L25.4933 40.615L26.7833 48.4267C26.855 48.7133 27.07 48.9283 27.285 49C27.3567 49 27.4283 49 27.5 49C27.715 49 27.93 48.9283 28.0733 48.7133L30.94 45.13C31.0117 45.0583 31.0833 44.915 31.0833 44.8433L32.1583 39.8983L33.3767 41.5467C33.52 41.7617 33.8067 41.8333 34.0217 41.8333C34.3083 41.8333 34.5233 41.6183 34.595 41.4033L36.0283 37.8917L37.39 35.8133C37.4617 35.67 37.5333 35.5267 37.5333 35.3833V32.5167H49V31.0833H37.5333C37.5333 30.6533 37.2467 30.3667 36.8167 30.3667ZM23.2717 29.22H23.415C24.5617 29.005 25.35 28.0017 25.2783 26.855C25.2067 24.9917 24.8483 21.48 23.845 19.33C22.34 16.2483 17.2517 14.0983 17.0367 13.955C16.965 13.8833 16.8217 13.8833 16.75 13.8833H13.31L9.58333 12.02V11.0167H10.6583C11.4467 11.0167 12.235 10.5867 12.665 9.87C12.8083 9.655 13.0233 9.51167 13.31 9.44L16.8933 8.86667C17.18 8.795 17.4667 8.50833 17.4667 8.15C17.4667 7.72 17.7533 7.43333 18.1833 7.43333C18.6133 7.43333 18.9 7.72 18.9 8.15C18.9 8.365 18.8283 8.50833 18.685 8.65167C18.3983 8.72333 18.1833 8.795 18.04 8.86667H17.4667V10.3H18.1833C18.6133 10.3 19.0433 10.1567 19.4017 9.94167C22.0533 9.08167 26.9983 7.86333 29.435 8.795C30.2233 9.08167 31.2983 9.29667 32.445 9.51167C36.96 10.3 43.195 11.375 43.2667 20.835C43.2667 20.9067 43.195 21.05 43.2667 21.1217C43.2667 21.3367 43.2667 21.5517 43.2667 21.7667C43.2667 26.3533 38.1783 28.8617 33.3767 28.9333H33.2333C32.875 28.9333 32.5167 29.2917 32.5167 29.65C32.5167 29.7217 32.5167 29.7217 32.5167 29.7933V30.3667H29.7217C29.9367 29.5783 30.3667 28.79 31.0833 28.36L31.4417 28.145C31.585 28.0017 31.7283 27.8583 31.7283 27.6433C31.7283 27.4283 31.6567 27.2133 31.585 27.07C31.585 27.07 29.5783 24.7767 29.5783 22.555H28.145C28.145 24.5617 29.2917 26.4967 30.0083 27.4283C29.0767 28.145 28.4317 29.2917 28.2167 30.4383H21.8383C22.125 29.7933 22.6267 29.3633 23.2717 29.22ZM36.1 35.1683L34.81 37.1033C34.81 37.175 34.7383 37.175 34.7383 37.2467L33.735 39.6833L32.5167 38.035V36.1H31.0833V38.1783L29.7217 44.4133L27.93 46.635L26.7833 39.6117V35.3833H25.35V39.1817L24.2033 39.54L22.4833 37.3183V33.2333H21.05V36.1L19.6167 35.025V31.8H30.3667V33.2333H31.8V31.8H36.1V35.1683Z"/>
</mask>
<path d="M36.8167 30.3667H33.95C39.2533 30.1517 44.7 27.1417 44.7 21.7667C44.7 21.5517 44.7 21.4083 44.7 21.1933C44.7 21.1217 44.7 21.05 44.7 21.05C44.7 10.1567 37.175 8.86667 32.66 8.07833C31.5133 7.86333 30.5817 7.72 29.9367 7.43333C27.3567 6.50167 23.0567 7.36167 20.3333 8.15C20.3333 6.93167 19.4017 6 18.1833 6C17.18 6 16.3917 6.645 16.105 7.505L13.095 8.00667C12.3783 8.15 11.805 8.58 11.4467 9.15333C11.3033 9.44 11.0167 9.58333 10.6583 9.58333H8.86667C8.43667 9.58333 8.15 9.87 8.15 10.3V12.45C8.15 12.7367 8.29333 12.9517 8.58 13.095L12.88 15.245C12.9517 15.3167 13.0233 15.3167 13.1667 15.3167H16.6067C17.395 15.675 21.4083 17.61 22.555 19.9033C23.4867 21.7667 23.7733 25.0633 23.845 26.855C23.845 27.285 23.5583 27.715 23.1283 27.7867H22.985C21.695 28.0733 20.6917 29.0767 20.405 30.3667H18.9C18.47 30.3667 18.1833 30.6533 18.1833 31.0833H6V32.5167H18.1833V35.3833C18.1833 35.5983 18.255 35.8133 18.47 35.9567L21.265 38.035L23.3433 40.83C23.5583 41.045 23.845 41.1883 24.1317 41.045L25.4933 40.615L26.7833 48.4267C26.855 48.7133 27.07 48.9283 27.285 49C27.3567 49 27.4283 49 27.5 49C27.715 49 27.93 48.9283 28.0733 48.7133L30.94 45.13C31.0117 45.0583 31.0833 44.915 31.0833 44.8433L32.1583 39.8983L33.3767 41.5467C33.52 41.7617 33.8067 41.8333 34.0217 41.8333C34.3083 41.8333 34.5233 41.6183 34.595 41.4033L36.0283 37.8917L37.39 35.8133C37.4617 35.67 37.5333 35.5267 37.5333 35.3833V32.5167H49V31.0833H37.5333C37.5333 30.6533 37.2467 30.3667 36.8167 30.3667ZM23.2717 29.22H23.415C24.5617 29.005 25.35 28.0017 25.2783 26.855C25.2067 24.9917 24.8483 21.48 23.845 19.33C22.34 16.2483 17.2517 14.0983 17.0367 13.955C16.965 13.8833 16.8217 13.8833 16.75 13.8833H13.31L9.58333 12.02V11.0167H10.6583C11.4467 11.0167 12.235 10.5867 12.665 9.87C12.8083 9.655 13.0233 9.51167 13.31 9.44L16.8933 8.86667C17.18 8.795 17.4667 8.50833 17.4667 8.15C17.4667 7.72 17.7533 7.43333 18.1833 7.43333C18.6133 7.43333 18.9 7.72 18.9 8.15C18.9 8.365 18.8283 8.50833 18.685 8.65167C18.3983 8.72333 18.1833 8.795 18.04 8.86667H17.4667V10.3H18.1833C18.6133 10.3 19.0433 10.1567 19.4017 9.94167C22.0533 9.08167 26.9983 7.86333 29.435 8.795C30.2233 9.08167 31.2983 9.29667 32.445 9.51167C36.96 10.3 43.195 11.375 43.2667 20.835C43.2667 20.9067 43.195 21.05 43.2667 21.1217C43.2667 21.3367 43.2667 21.5517 43.2667 21.7667C43.2667 26.3533 38.1783 28.8617 33.3767 28.9333H33.2333C32.875 28.9333 32.5167 29.2917 32.5167 29.65C32.5167 29.7217 32.5167 29.7217 32.5167 29.7933V30.3667H29.7217C29.9367 29.5783 30.3667 28.79 31.0833 28.36L31.4417 28.145C31.585 28.0017 31.7283 27.8583 31.7283 27.6433C31.7283 27.4283 31.6567 27.2133 31.585 27.07C31.585 27.07 29.5783 24.7767 29.5783 22.555H28.145C28.145 24.5617 29.2917 26.4967 30.0083 27.4283C29.0767 28.145 28.4317 29.2917 28.2167 30.4383H21.8383C22.125 29.7933 22.6267 29.3633 23.2717 29.22ZM36.1 35.1683L34.81 37.1033C34.81 37.175 34.7383 37.175 34.7383 37.2467L33.735 39.6833L32.5167 38.035V36.1H31.0833V38.1783L29.7217 44.4133L27.93 46.635L26.7833 39.6117V35.3833H25.35V39.1817L24.2033 39.54L22.4833 37.3183V33.2333H21.05V36.1L19.6167 35.025V31.8H30.3667V33.2333H31.8V31.8H36.1V35.1683Z" fill="white" stroke="white" stroke-width="4" mask="url(#path-2-inside-1)"/>
</svg>
