<svg width="122" height="40" viewBox="0 0 122 40" fill="none" xmlns="http://www.w3.org/2000/svg">
<g clip-path="url(#clip0)">
<path d="M112.778 21.4204H96.2344V40.0001H112.778C117.879 40.0001 122.029 35.8262 122.029 30.6958C122.029 25.5653 117.879 21.4204 112.778 21.4204Z" fill="url(#paint0_linear)"/>
<path d="M99.8949 21.4204H83.3516V40.0001H99.8949C104.996 40.0001 109.146 35.8262 109.146 30.6958C109.146 25.5653 104.996 21.4204 99.8949 21.4204Z" fill="url(#paint1_linear)"/>
<path d="M87.0108 21.4204H65.5391V40.0001H87.0108C92.1122 40.0001 96.2624 35.8262 96.2624 30.6958C96.2624 25.5653 92.1122 21.4204 87.0108 21.4204Z" fill="url(#paint2_linear)"/>
<path d="M74.1289 21.4204H41.5898V40.0001H74.1289C79.2303 40.0001 83.3805 35.8262 83.3805 30.6958C83.3805 25.5653 79.2303 21.4204 74.1289 21.4204Z" fill="url(#paint3_linear)"/>
<path d="M1.67163 1.47826V3.30435H4.29435V4.75362H1.67163V8.05797H0V0H4.69785V1.47826H1.67163Z" fill="black"/>
<path d="M10.2036 6.37681H6.83156L6.25514 8.02899H4.55469L7.49445 0H9.51193L12.4517 8.02899H10.7512L10.2036 6.37681ZM9.71368 4.98551L8.53201 1.56522L7.35034 4.98551H9.71368Z" fill="black"/>
<path d="M15.8217 4.49275H15.3318V8.02899H13.6602V0H16.5423C18.358 0 19.1074 1.07246 19.1074 2.4058C19.1074 3.47826 18.5021 4.17391 17.4069 4.4058L19.7991 8.02899H17.8392L15.8217 4.49275ZM15.3318 3.30435H16.3117C17.2052 3.30435 17.551 2.92754 17.551 2.34783C17.551 1.76812 17.2052 1.3913 16.3117 1.3913H15.3318V3.30435Z" fill="black"/>
<path d="M1.67163 14.9275V16.7536H4.29435V18.2028H1.67163V21.5072H0V13.4492H4.69785V14.9275H1.67163Z" fill="black"/>
<path d="M5.96484 18.6666V13.4492H7.63647V18.4347C7.63647 19.6521 8.27054 20.1159 9.10635 20.1159C9.94217 20.1159 10.5762 19.6521 10.5762 18.4347V13.4492H12.2479V18.6666C12.2479 20.6956 10.8644 21.5941 9.10635 21.5941C7.31944 21.5941 5.96484 20.6956 5.96484 18.6666Z" fill="black"/>
<path d="M18.7363 14.9275H16.8341V21.5072H15.1913V14.9275H13.2891V13.4492H18.7363V14.9275Z" fill="black"/>
<path d="M19.8301 18.6666V13.4492H21.5017V18.4347C21.5017 19.6521 22.1358 20.1159 22.9716 20.1159C23.8074 20.1159 24.4415 19.6521 24.4415 18.4347V13.4492H26.1131V18.6666C26.1131 20.6956 24.7297 21.5941 22.9716 21.5941C21.2135 21.5941 19.8301 20.6956 19.8301 18.6666Z" fill="black"/>
<path d="M30.146 17.942H29.656V21.4782H27.9844V13.4492H30.8665C32.6822 13.4492 33.4316 14.5217 33.4316 15.855C33.4316 16.9275 32.8263 17.6231 31.7311 17.855L34.1233 21.4782H32.1634L30.146 17.942ZM29.656 16.7536H30.6359C31.5294 16.7536 31.8752 16.3768 31.8752 15.797C31.8752 15.2173 31.5294 14.8405 30.6359 14.8405H29.656V16.7536Z" fill="black"/>
<path d="M37.0623 14.9275V16.7536H39.685V18.2028H37.0623V19.9999H40.0308V21.4782H35.3906V13.4492H40.0308V14.9275H37.0623Z" fill="black"/>
<path d="M1.67163 28.3768V30.2029H4.29435V31.6522H1.67163V34.9565H0V26.8986H4.69785V28.3768H1.67163Z" fill="black"/>
<path d="M5.5625 30.9276C5.5625 28.4058 7.29177 26.8116 9.65511 26.8116C11.9896 26.8116 13.7477 28.4058 13.7477 30.9276C13.7477 33.4493 12.0184 35.0725 9.65511 35.0725C7.32059 35.0435 5.5625 33.4493 5.5625 30.9276ZM12.1049 30.9276C12.1049 29.3044 11.0385 28.3479 9.68393 28.3479C8.30051 28.3479 7.26295 29.3044 7.26295 30.9276C7.26295 32.5508 8.32933 33.5363 9.68393 33.5363C11.0385 33.5363 12.1049 32.5508 12.1049 30.9276Z" fill="black"/>
<path d="M15.1016 32.116V26.8986H16.7732V31.8841C16.7732 33.1015 17.4073 33.5652 18.2431 33.5652C19.0789 33.5652 19.713 33.1015 19.713 31.8841V26.8986H21.3846V32.116C21.3846 34.1449 20.0012 35.0435 18.2431 35.0435C16.4562 35.0435 15.1016 34.1449 15.1016 32.116Z" fill="black"/>
<path d="M30.3766 26.8986V34.9275H28.4456L24.9006 29.1884V34.9275H23.2578V26.8986H25.16L28.7338 32.6087V26.8986H30.3766Z" fill="black"/>
<path d="M32.4219 26.8984H35.304C37.8403 26.8984 39.1084 28.5216 39.1084 30.8984C39.1084 33.3042 37.8403 34.9274 35.304 34.9274H32.4219V26.8984ZM35.2464 33.4781C36.7162 33.4781 37.3791 32.5506 37.3791 30.9274C37.3791 29.3042 36.7162 28.3767 35.2464 28.3767H34.0935V33.4781H35.2464Z" fill="black"/>
<path d="M45.0459 33.2752H41.7026L41.1262 34.9274H39.4258L42.3655 26.8984H44.383L47.3228 34.9274H45.6223L45.0459 33.2752ZM44.5559 31.8839L43.3743 28.4637L42.1926 31.8839H44.5559Z" fill="black"/>
<path d="M52.4824 28.3767H50.5802V34.9564H48.9374V28.3767H47.0352V26.8984H52.4824V28.3767Z" fill="black"/>
<path d="M53.7227 26.8986H55.3943V34.9275H53.7227V26.8986Z" fill="black"/>
<path d="M56.8945 30.9275C56.8945 28.4057 58.6238 26.8115 60.9871 26.8115C63.3217 26.8115 65.0798 28.4057 65.0798 30.9275C65.0798 33.4492 63.3505 35.0724 60.9871 35.0724C58.6526 35.0434 56.8945 33.4492 56.8945 30.9275ZM63.4369 30.9275C63.4369 29.3043 62.3706 28.3478 61.016 28.3478C59.6325 28.3478 58.595 29.3043 58.595 30.9275C58.595 32.5507 59.6614 33.5362 61.016 33.5362C62.3706 33.5362 63.4369 32.5507 63.4369 30.9275Z" fill="black"/>
<path d="M73.6969 26.8986V34.9275H71.7659L68.2209 29.1884V34.9275H66.5781V26.8986H68.4803L72.0541 32.6087V26.8986H73.6969Z" fill="black"/>
</g>
<defs>
<linearGradient id="paint0_linear" x1="96.222" y1="30.7053" x2="122.014" y2="30.7053" gradientUnits="userSpaceOnUse">
<stop offset="0.2233" stop-color="#F8D2AB" stop-opacity="0"/>
<stop offset="0.65" stop-color="#F8D2AB"/>
</linearGradient>
<linearGradient id="paint1_linear" x1="82.4738" y1="31.6976" x2="108.999" y2="28.9254" gradientUnits="userSpaceOnUse">
<stop offset="0.2233" stop-color="#00A789" stop-opacity="0"/>
<stop offset="0.65" stop-color="#00A789"/>
</linearGradient>
<linearGradient id="paint2_linear" x1="65.5421" y1="30.7053" x2="96.2521" y2="30.7053" gradientUnits="userSpaceOnUse">
<stop offset="0.2233" stop-color="#0D7CFF" stop-opacity="0"/>
<stop offset="0.65" stop-color="#0D7CFF"/>
</linearGradient>
<linearGradient id="paint3_linear" x1="83.3727" y1="30.7053" x2="41.5939" y2="30.7053" gradientUnits="userSpaceOnUse">
<stop offset="0.0659722" stop-color="#24D7E8"/>
<stop offset="1" stop-color="#24D7E8" stop-opacity="0"/>
</linearGradient>
<clipPath id="clip0">
<rect width="122" height="40" fill="white"/>
</clipPath>
</defs>
</svg>
