<svg width="141" height="48" viewBox="0 0 141 48" fill="none" xmlns="http://www.w3.org/2000/svg">
<path fill-rule="evenodd" clip-rule="evenodd" d="M12 0C5.37258 0 0 5.37258 0 12V36C0 42.6274 5.37258 48 12 48H129C135.627 48 141 42.6274 141 36V12C141 5.37258 135.627 0 129 0H12Z" fill="black"/>
<path fill-rule="evenodd" clip-rule="evenodd" d="M11.8762 13.043C11.4818 13.1703 11.2266 13.5823 11.2266 14.2056L11.229 33.8241C11.229 34.4405 11.4763 34.8463 11.8598 34.9817L22.4982 24.0036L11.8762 13.043Z" fill="url(#paint0_linear)"/>
<path fill-rule="evenodd" clip-rule="evenodd" d="M11.8599 34.9801C12.1358 35.0767 12.4816 35.0315 12.8584 34.8183L25.8407 27.4511L22.4982 24.002L11.8599 34.9801Z" fill="url(#paint1_linear)"/>
<path fill-rule="evenodd" clip-rule="evenodd" d="M25.8424 27.4514L30.2691 24.9399C31.1667 24.4288 31.1667 23.5972 30.2691 23.0874L25.826 20.5664L22.498 24.0005L25.8424 27.4514Z" fill="url(#paint2_linear)"/>
<path fill-rule="evenodd" clip-rule="evenodd" d="M25.8256 20.5668L12.8584 13.2096C12.4908 13.002 12.1516 12.9537 11.877 13.0422L22.4983 24.0009L25.8256 20.5668Z" fill="url(#paint3_linear)"/>
<path fill-rule="evenodd" clip-rule="evenodd" d="M85.7001 35.0493C85.0248 34.9861 84.8823 34.861 84.8823 34.0572L84.8871 22.322C84.9687 21.5978 85.1593 21.3716 85.7963 21H82.8576L81.3182 21.7468H82.9173L82.9252 34.0492V34.5109C82.9252 34.8845 82.8585 34.971 82.4948 35.4426C82.4562 35.4927 82.4142 35.5471 82.3686 35.6066H85.9899L86.7498 35.151C86.5748 35.13 86.3987 35.1149 86.2221 35.0997L86.222 35.0997C86.0485 35.0849 85.8745 35.0699 85.7001 35.0493ZM49.2728 35.1559L46.518 35.7912C45.4018 35.9684 44.3995 36.1241 43.3382 36.1241C38.0247 36.1241 36 32.1858 36 29.1035C36 25.3393 38.8687 21.8492 43.7815 21.8492C44.8209 21.8492 45.8208 22.0031 46.7317 22.2533C48.1091 22.6429 48.7871 23.119 49.2129 23.418L49.2728 23.46L47.6725 24.9904L46.9978 25.1425L47.4789 24.3705L47.4746 24.3663C46.8221 23.7246 45.6246 22.547 43.3565 22.547C40.3173 22.547 38.0247 24.8733 38.0247 28.2696C38.0247 31.9173 40.6425 35.3485 44.841 35.3485C46.0747 35.3485 46.7098 35.0989 47.2865 34.8659V31.7388L44.3776 31.8964L45.9194 31.0625H50.0017L49.5024 31.5463C49.3678 31.6616 49.3495 31.7008 49.3118 31.8553C49.2917 32.0319 49.2728 32.5936 49.2728 32.791V35.1559ZM55.5904 35.874C52.3235 35.874 50.5789 33.3128 50.5789 30.9938C50.5789 28.2843 52.7766 25.966 55.9004 25.966C58.9194 25.966 60.8095 28.3475 60.8095 30.8479C60.8095 33.2901 58.942 35.874 55.5904 35.874ZM58.7769 31.9056C58.7769 32.7113 58.6539 33.5378 58.1607 34.2C57.6863 34.861 56.8673 35.2528 56.0654 35.2528C53.5791 35.2528 52.5714 31.8811 52.5714 29.8368C52.5714 28.9441 52.7138 28.0341 53.5176 27.31C54.0109 26.8747 54.6862 26.6079 55.3663 26.6079C57.9123 26.6079 58.7769 30.0833 58.7769 31.9056ZM66.5261 35.874C63.2599 35.874 61.5122 33.3128 61.5122 30.9938C61.5122 28.2843 63.7092 25.966 66.8343 25.966C69.8552 25.966 71.7471 28.3475 71.7471 30.8479C71.7471 33.2901 69.8771 35.874 66.5261 35.874ZM69.7133 31.9056C69.7133 32.7113 69.5927 33.5378 69.0958 34.2C68.6227 34.861 67.8025 35.2528 66.9987 35.2528C64.5082 35.2528 63.5046 31.8811 63.5046 29.8368C63.5046 28.9441 63.6477 28.0341 64.4503 27.31C64.9423 26.8747 65.6249 26.6079 66.3027 26.6079C68.851 26.6079 69.7133 30.0833 69.7133 31.9056ZM79.2661 26.9813C79.738 27.3719 80.7227 28.2009 80.7227 29.773C80.7227 31.3053 79.8647 32.0276 78.9994 32.7113L78.9625 32.7486C78.706 33.0077 78.4234 33.2931 78.4234 33.7236C78.4234 34.173 78.7224 34.4206 78.9447 34.6046L78.9574 34.6151L79.6997 35.1921C80.6021 35.9592 81.4248 36.6625 81.4248 38.0911C81.4248 40.0373 79.5541 42 76.0193 42C73.0417 42 71.6022 40.572 71.6022 39.0409C71.6022 38.2959 71.9706 37.2407 73.186 36.5178C74.443 35.7439 76.14 35.6316 77.0728 35.5698L77.1099 35.5674L77.0669 35.5117C76.7896 35.1527 76.4919 34.7674 76.4919 34.1577C76.4919 33.8439 76.5757 33.6435 76.6657 33.4283L76.666 33.4277L76.6837 33.3852L76.6977 33.3514L76.6833 33.3528C76.4633 33.3738 76.2421 33.395 76.0406 33.395C73.8613 33.395 72.6294 31.7578 72.6294 30.1446C72.6294 29.193 73.0605 28.1371 73.9459 27.3719C75.1175 26.4007 76.5144 26.2333 77.6245 26.2333H81.8589L80.5424 26.9813H79.2661ZM77.337 36.145C77.5404 36.145 77.6415 36.145 77.8102 36.167C79.369 37.2861 80.0468 37.8428 80.0468 38.898C80.0468 40.1802 78.9994 41.1324 77.0265 41.1324C74.8307 41.1324 73.4113 40.0747 73.4113 38.608C73.4113 37.1383 74.726 36.6435 75.1808 36.4761C76.0406 36.1854 77.1507 36.145 77.337 36.145ZM78.4008 32.2355C78.8758 31.7578 78.9172 31.0981 78.9172 30.7234C78.9172 29.2353 78.0361 26.9176 76.3281 26.9176C75.7952 26.9176 75.218 27.1867 74.8904 27.6031C74.5427 28.0341 74.4385 28.5933 74.4385 29.1311C74.4385 30.5168 75.2411 32.8149 77.0064 32.8149C77.5215 32.8149 78.0757 32.5629 78.4008 32.2355ZM94.9825 34.2172L93.9997 35.151C93.9241 35.1929 93.8486 35.237 93.7732 35.281C93.6222 35.3692 93.4717 35.4572 93.3214 35.5263C92.6388 35.8384 91.9446 35.9169 91.3278 35.9169C90.6713 35.9169 89.6423 35.874 88.5925 35.1093C87.1341 34.075 86.4965 32.2968 86.4965 30.7474C86.4965 27.5393 89.09 25.966 91.2054 25.966C91.9446 25.966 92.7039 26.1524 93.3214 26.5454C94.3363 27.2212 94.6073 28.0972 94.7558 28.5768L94.7609 28.5933L89.9303 30.5585L88.3483 30.6824C88.8604 33.3128 90.6275 34.8426 92.5803 34.8426C93.5558 34.8426 94.2798 34.5219 94.9442 34.1915C94.9442 34.1915 95.0775 34.1216 94.9825 34.2172ZM92.6644 28.4296C92.6644 28.7178 92.4604 28.8417 92.0682 28.9851L88.3276 30.6198C88.3205 30.4925 88.311 30.3651 88.3015 30.2387L88.3015 30.2385C88.2834 29.9961 88.2655 29.7571 88.2655 29.5278C88.2655 27.2922 89.8067 26.6484 90.6275 26.6484C91.7357 26.6484 92.6644 27.6031 92.6644 28.4296ZM100.906 34.3055V39.5756H99.8661V26.1652H100.906V27.6926C101.583 26.7054 102.82 25.923 104.257 25.923C106.835 25.923 108.571 27.8919 108.571 31.0086C108.571 34.1044 106.835 36.1143 104.257 36.1143C102.9 36.1143 101.685 35.4098 100.906 34.3055ZM104.082 26.8679C106.238 26.8679 107.454 28.6596 107.454 31.0086C107.454 33.3612 106.238 35.1682 104.082 35.1682C102.743 35.1682 101.462 34.07 100.906 33.1442V28.8515C101.462 27.9274 102.743 26.8679 104.082 26.8679ZM109.99 22.4624H111.029V35.8727H109.99V22.4624ZM119.496 34.9628C119.535 35.2105 119.587 35.5073 119.656 35.8439H120.854C120.761 35.5306 120.691 35.2068 120.647 34.8825C120.604 34.5587 120.588 34.2264 120.588 33.8824V29.0937C120.588 28.0685 120.241 27.2842 119.551 26.7416C118.86 26.1934 117.943 25.9187 116.81 25.9187C115.673 25.9187 114.749 26.1977 114.044 26.7526C113.336 27.3082 113.003 27.9514 113.041 28.6847L113.063 28.7368H114.127C114.127 28.1929 114.368 27.7417 114.848 27.3774C115.332 27.0206 115.968 26.8373 116.752 26.8373C117.609 26.8373 118.27 27.0378 118.742 27.4345C119.211 27.8306 119.446 28.3769 119.446 29.0716V30.2777H117.022C115.723 30.2777 114.673 30.5475 113.861 31.0901C113.048 31.6303 112.641 32.3367 112.641 33.2067C112.641 34.078 112.922 34.7666 113.481 35.2749C114.042 35.7838 114.828 36.0346 115.841 36.0346C116.682 36.0346 117.295 35.8641 117.94 35.5165C118.585 35.1713 119.09 34.7329 119.446 34.2062C119.446 34.4631 119.464 34.7157 119.496 34.9628ZM115.968 35.0811C116.851 35.0811 117.485 34.8825 118.134 34.4894C118.778 34.0989 119.217 33.5893 119.446 32.9725V31.1085H117.011C116.08 31.1085 115.31 31.3157 114.704 31.7339C114.097 32.1509 113.789 32.6555 113.789 33.2423C113.789 33.796 113.984 34.2387 114.371 34.5741C114.76 34.9131 115.291 35.0811 115.968 35.0811ZM123.535 38.8698C123.294 38.8698 122.915 38.8085 122.692 38.7086L122.514 39.6743C122.773 39.7546 123.217 39.8147 123.553 39.8147C124.673 39.8147 125.488 39.2279 126.006 38.0077L131 26.1652H129.824L126.346 34.6476L122.834 26.1652H121.674L125.769 35.9537L125.011 37.6834C124.613 38.608 124.17 38.8698 123.535 38.8698Z" fill="white"/>
<path fill-rule="evenodd" clip-rule="evenodd" d="M38.4922 8C36.5563 8 35 9.36823 35 11.4953C35 13.6128 36.5563 15 38.4922 15C39.6397 15 40.5777 14.5038 41.2259 13.764V11.2415H38.0734V12.2851H40.0685V13.3286C39.7693 13.6223 39.171 13.9362 38.4922 13.9362C37.1759 13.9362 36.1973 12.9027 36.1973 11.4953C36.1973 10.0669 37.1759 9.05433 38.4922 9.05433C39.2302 9.05433 39.8591 9.4486 40.2181 9.95552L41.1661 9.39797C40.6369 8.62842 39.7893 8 38.4922 8ZM42.6695 8.11138V14.8684H47.2287V13.8248H43.8362V11.9408H47.1589V10.8972H43.8362V9.15559H47.2287V8.11138H42.6695ZM50.4586 14.8684V9.15559H48.4435V8.11138H53.641V9.15559H51.626V14.8684H50.4586ZM58.8647 8.11138H57.698V14.8684H58.8647V8.11138ZM62.1158 14.8684V9.15559H60.1007V8.11138H65.2982V9.15559H63.2832V14.8684H62.1158ZM72.4684 8C70.4721 8 69.066 9.47898 69.066 11.4953C69.066 13.5109 70.4721 14.9899 72.4684 14.9899C74.453 14.9899 75.8703 13.5109 75.8703 11.4953C75.8703 9.47898 74.453 8 72.4684 8ZM74.673 11.4953C74.673 10.0973 73.8048 9.05433 72.4684 9.05433C71.1209 9.05433 70.2633 10.0973 70.2633 11.4953C70.2633 12.8825 71.1209 13.9362 72.4684 13.9362C73.8048 13.9362 74.673 12.8825 74.673 11.4953ZM78.4002 10.0365L81.8725 14.8684H83V8.11138H81.8326V12.792L78.4307 8.11138H77.2334V14.8684H78.4002V10.0365Z" fill="white"/>
<defs>
<linearGradient id="paint0_linear" x1="11.2266" y1="13.043" x2="11.2266" y2="34.9817" gradientUnits="userSpaceOnUse">
<stop stop-color="#1E79AF"/>
<stop offset="1" stop-color="#63FFD3"/>
</linearGradient>
<linearGradient id="paint1_linear" x1="17.9639" y1="21.2133" x2="9.50639" y2="32.2933" gradientUnits="userSpaceOnUse">
<stop stop-color="#DC4057"/>
<stop offset="1" stop-color="#9E36BB"/>
</linearGradient>
<linearGradient id="paint2_linear" x1="22.5899" y1="20.5664" x2="22.5899" y2="27.3017" gradientUnits="userSpaceOnUse">
<stop stop-color="#FF9676"/>
<stop offset="1" stop-color="#FFD074"/>
</linearGradient>
<linearGradient id="paint3_linear" x1="7.33576" y1="17.541" x2="15.7943" y2="30.5322" gradientUnits="userSpaceOnUse">
<stop stop-color="#51C6AD"/>
<stop offset="1" stop-color="#D5FFA1"/>
</linearGradient>
</defs>
</svg>
