<svg width="329" height="337" viewBox="0 0 329 337" fill="none" xmlns="http://www.w3.org/2000/svg">
<path fill-rule="evenodd" clip-rule="evenodd" d="M136.735 123.971C171.491 123.971 199.679 96.2248 199.679 61.9853C199.679 27.7458 171.491 0 136.735 0C101.979 0 73.79 27.7458 73.79 61.9853C73.79 96.2248 101.979 123.971 136.735 123.971ZM136.735 106.556C161.75 106.556 182.043 86.5581 182.043 61.9853C182.043 37.3388 161.75 17.4149 136.735 17.4149C111.719 17.4149 91.4263 37.4126 91.4263 61.9853C91.5001 86.5581 111.719 106.556 136.735 106.556Z" fill="#5C9EFF"/>
<path opacity="0.8" d="M261.303 183.64C262.953 179.452 249.881 177.351 249.669 172.113C249.432 166.936 254.854 167.736 252.328 165.045C249.802 162.354 253.71 158.971 257.868 156.227C262.026 153.483 265.091 141.801 267.677 134.581C275.59 112.453 288.866 113.692 289.716 127.556C290.12 134.164 284.82 135.917 285.839 141.544C286.865 147.102 293.581 155.345 293.469 165.161C293.4 171.496 288.25 176.276 282.574 179.353C279.822 180.794 279.378 184.907 281.769 186.739C283.978 188.519 285.539 190.658 285.192 192.771C284.383 197.483 280.31 203.566 276.3 206.494C271.858 209.751 265.962 210.937 263.571 208.838C250.728 197.554 259.552 187.64 261.303 183.64Z" fill="url(#paint0_linear)"/>
<path d="M279.544 231.573C282.007 227.238 275.758 218.268 275.342 216.3C274.912 213.844 287.768 212.205 292.536 209.662C300.031 205.712 298.118 197.572 295.268 190.707C292.888 184.892 304.786 187.037 307.209 180.208C309.633 173.379 303.782 169.832 305.645 165.986C308.535 159.987 318.247 145.869 300.379 149.718C283.725 153.299 284.149 171.067 276.04 174.908C272.456 176.619 261.552 169.524 257.229 174.946C252.351 181.163 262.685 193.098 261.008 197.688C260.318 199.691 249.28 195.863 246.592 200.97C243.178 207.471 251.673 217.525 255.786 223.902C259.384 229.383 262.102 236.154 262.996 241.495C267.187 239.833 276.597 236.779 279.544 231.573Z" fill="black"/>
<path d="M264.226 238.947C263.944 238.925 263.794 238.79 263.847 238.618C263.831 238.194 264.996 195.682 299.198 160.804C299.326 160.644 299.534 160.653 299.684 160.788C299.886 160.926 299.907 161.111 299.774 161.225C265.678 195.932 264.574 238.254 264.538 238.675C264.559 238.86 264.426 238.974 264.226 238.947C264.144 238.952 264.144 238.952 264.226 238.947Z" fill="white"/>
<path d="M271.71 203.902C271.638 203.715 271.743 203.544 271.952 203.554C282.103 203.333 289.69 196.774 289.768 196.722C289.9 196.608 290.1 196.635 290.25 196.771C290.4 196.906 290.399 197.081 290.266 197.194C290.211 197.256 282.474 203.965 272.062 204.175C271.884 204.158 271.734 204.022 271.71 203.902Z" fill="white"/>
<path d="M273.973 198.51C273.894 198.451 267.164 192.043 268.199 184.022C268.253 183.85 268.382 183.8 268.59 183.809C268.796 183.883 268.871 184.005 268.892 184.19C267.886 191.918 274.421 198.06 274.469 198.127C274.619 198.262 274.618 198.437 274.486 198.55C274.482 198.615 274.356 198.6 274.282 198.588C274.178 198.583 274.099 198.524 273.973 198.51Z" fill="white"/>
<path d="M266.736 220.809C266.662 220.797 260.1 215.803 258.31 207.742C258.237 207.555 258.343 207.385 258.551 207.394C258.755 207.357 258.965 207.476 258.986 207.661C260.728 215.481 267.039 220.271 267.11 220.347C267.26 220.482 267.333 220.67 267.2 220.783C267.145 220.845 266.994 220.885 266.942 220.882C266.889 220.88 266.807 220.886 266.736 220.809Z" fill="white"/>
<path d="M284.911 179.11C284.705 179.037 284.63 178.914 284.609 178.729C284.662 178.556 284.792 178.507 285 178.516C285.079 178.575 291.98 180.088 296.985 175.947C297.117 175.833 297.317 175.86 297.467 175.995C297.617 176.131 297.616 176.305 297.483 176.419C293.842 179.397 289.237 179.583 286.777 179.384C285.678 179.29 284.911 179.11 284.911 179.11Z" fill="white"/>
<path d="M265.575 227.326C265.366 227.317 265.216 227.182 265.196 226.997C265.175 226.812 265.308 226.698 265.516 226.707C270.286 227.255 274.616 223.194 274.693 223.142C274.825 223.028 275.025 223.055 275.175 223.191C275.325 223.326 275.324 223.501 275.192 223.614C275.004 223.79 270.798 227.755 265.827 227.355C265.783 227.335 265.657 227.32 265.575 227.326Z" fill="white"/>
<path d="M151.753 42.4698C151.939 38.7443 155.014 35.8193 158.744 35.8193H262.942C270.376 35.8193 276.297 42.0431 275.926 49.4685L266.045 247.084C265.859 250.809 262.784 253.734 259.054 253.734H148.548C144.545 253.734 141.357 250.383 141.557 246.385L151.753 42.4698Z" fill="#151F36"/>
<path d="M145.336 46.27C145.629 40.4157 150.461 35.8193 156.322 35.8193H263.023C267.026 35.8193 270.214 39.1706 270.014 43.1689L259.818 247.084C259.632 250.809 256.557 253.734 252.827 253.734H142.322C138.318 253.734 135.13 250.383 135.33 246.385L145.336 46.27Z" fill="#C1C8D5"/>
<g style="mix-blend-mode:multiply" opacity="0.52">
<path d="M0 336.951H128.776L261.876 253.734H134.963L0 336.951Z" fill="url(#paint1_linear)"/>
</g>
<path d="M154.528 54.0863C154.714 50.3607 157.789 47.4355 161.519 47.4355H251.473C255.476 47.4355 258.664 50.7866 258.464 54.7848L250.348 217.253C250.162 220.979 247.087 223.904 243.357 223.904H153.403C149.4 223.904 146.212 220.553 146.412 216.555L154.528 54.0863Z" fill="#9CA7BA"/>
<path d="M155.419 54.8505C155.604 51.1243 158.679 48.1982 162.41 48.1982H251.475C255.478 48.1982 258.665 51.5484 258.467 55.546L250.423 217.251C250.237 220.978 247.162 223.904 243.431 223.904H154.367C150.364 223.904 147.176 220.553 147.375 216.556L155.419 54.8505Z" fill="white"/>
<path d="M153.096 182.159C153.281 178.433 156.356 175.507 160.087 175.507H240.993C244.995 175.507 248.183 178.857 247.984 182.855L246.687 208.92C246.502 212.647 243.427 215.573 239.696 215.573H158.79C154.788 215.573 151.6 212.222 151.799 208.225L153.096 182.159Z" fill="url(#paint2_linear)"/>
<path d="M153.067 182.159C153.252 178.433 156.327 175.507 160.058 175.507H240.99C244.992 175.507 248.18 178.857 247.981 182.855L247.906 184.366H152.957L153.067 182.159Z" fill="#CED7E8"/>
<path d="M185.808 102.39C185.994 98.6633 189.069 95.7373 192.8 95.7373H275.227C279.229 95.7373 282.417 99.0874 282.218 103.085L279.756 152.586C279.57 156.312 276.495 159.238 272.764 159.238H190.337C186.335 159.238 183.147 155.888 183.346 151.89L185.808 102.39Z" fill="url(#paint3_linear)"/>
<path d="M162.572 64.9218C162.757 61.1956 165.832 58.2695 169.563 58.2695H205.634C209.637 58.2695 212.824 61.6197 212.625 65.6173L210.163 115.118C209.978 118.844 206.903 121.77 203.172 121.77H167.101C163.098 121.77 159.911 118.42 160.11 114.423L162.572 64.9218Z" fill="url(#paint4_linear)"/>
<path d="M185.796 102.39C185.982 98.6633 189.057 95.7373 192.788 95.7373H275.225C279.228 95.7373 282.416 99.0874 282.217 103.085L282.082 105.796H185.627L185.796 102.39Z" fill="#CED7E8"/>
<path d="M186.387 235.961C186.449 234.728 187.467 233.759 188.703 233.759H211.39C212.716 233.759 213.772 234.869 213.705 236.193C213.644 237.427 212.625 238.396 211.39 238.396H188.703C187.377 238.396 186.321 237.286 186.387 235.961Z" fill="#8592AC"/>
<path d="M195.014 41.9256C195.063 41.4577 195.458 41.1025 195.928 41.1025H217.004C217.551 41.1025 217.976 41.5758 217.919 42.119C217.87 42.5869 217.475 42.942 217.004 42.942H195.928C195.382 42.942 194.956 42.4688 195.014 41.9256Z" fill="#8592AC"/>
<path d="M125.79 221.867L128.25 229.04C129.933 233.945 129.756 239.307 129.505 244.487C129.417 246.317 129.461 248.382 129.756 250.591C130.761 258.369 138.059 264.907 139.935 274.103C140.207 275.502 139.387 277.416 139.736 281.717C139.84 283.208 143.045 284.145 143.935 282.911C147.574 277.762 152.971 278.949 155.073 275.957C156.647 273.67 155.15 270.57 152.404 270.384C150.43 270.252 147.563 271.011 146.806 269.504C145.292 264.151 144.19 247.677 144.181 244.344C144.172 241.012 144.611 236.261 144.512 233.872C144.345 229.82 140.152 216.319 140.152 216.319C135.425 204.42 121.149 209.966 125.79 221.867Z" fill="#151F36"/>
<path d="M135.467 221.615L135.382 236.132C135.382 236.132 130.123 239.846 126.105 246.72C122.129 253.551 117.469 264.951 115.46 268.964C114.819 270.245 113.28 271.313 112.04 271.996C110.715 272.722 109.988 274.173 110.244 275.668C110.886 279.51 113.023 282.115 116.272 283.78C118.752 285.061 121.659 283.182 121.488 280.407C121.359 278.443 121.359 276.308 121.616 274.728C122.3 270.928 139.956 252.698 141.709 249.88C143.461 247.062 147.138 243.091 148.335 241.042C150.344 237.498 150.772 221.615 150.772 221.615C150.772 208.85 135.467 208.85 135.467 221.615Z" fill="#151F36"/>
<path d="M126.575 174.736C126.02 177.725 114.135 181.268 113.152 175.334C112.168 169.399 113.707 150.272 117.64 143.697C121.531 137.122 127.345 142.117 126.49 149.717C125.635 157.316 127.174 171.747 126.575 174.736Z" fill="#151F36"/>
<path d="M130.498 226.001L130.491 225.074L129.854 225.028C127.37 224.849 125.241 223.158 124.611 220.748C122.745 213.611 121.125 204.804 120.316 194.78C121.632 182.869 153.541 174.466 154.109 186.616C154.605 196.641 154.119 215.214 151.95 226.392C151.813 227.099 151.294 227.672 150.596 227.852C145.47 229.178 138.369 229.285 131.999 227.89C131.116 227.697 130.505 226.905 130.498 226.001Z" fill="white" stroke="#B5F3D8" stroke-miterlimit="10"/>
<path d="M130.509 225.118L131.137 214.949C129.234 214.157 128.188 213.593 126.402 212.172" stroke="#B5F3D8" stroke-linecap="round"/>
<path d="M122.129 166.752C122.129 166.752 113.708 166.752 110.373 161.799C112.169 153.004 116.315 138.658 120.206 132.083C124.096 125.508 129.91 130.504 129.055 138.103C128.2 145.746 122.129 166.752 122.129 166.752Z" fill="#CDD7E8"/>
<g style="mix-blend-mode:multiply" opacity="0.52">
<path d="M123.454 300.218L78.9953 336.951H14.2715L134.142 277.205L144.145 278.571L116.7 300.218H123.454Z" fill="url(#paint5_linear)"/>
</g>
<path d="M124.359 129.65C119.41 134.688 118.968 144.38 120.014 156.334C121.02 167.649 119.773 189.295 118.324 196.083C122.307 199.499 146.045 201.505 157.471 198.645C159.845 184.684 155.781 143.867 151.516 135.883C146.487 126.576 129.75 124.185 124.359 129.65Z" fill="#CDD7E8"/>
<path fill-rule="evenodd" clip-rule="evenodd" d="M123.6 130.995C123.839 130.66 124.092 130.339 124.357 130.033C127.554 126.363 134.741 125.821 141.11 128.187C135.136 127.632 128.346 128.706 123.6 130.995ZM144.881 199.982C149.606 199.907 154.087 199.493 157.487 198.645C159.54 184.97 156.764 155.668 153.217 142.151C153.035 142.612 152.825 143.087 152.586 143.574C141.958 165.216 136.741 179.902 147.369 176.423C151.667 175.017 150.149 178.319 147.942 183.123C145.544 188.343 142.331 195.334 144.881 199.982Z" fill="#CDD7E8"/>
<path d="M148.548 151.126C149.189 153.645 153.165 165.685 162.997 177.512C165.434 180.458 172.531 179.39 172.573 173.968C172.573 169.869 174.198 166.539 171.761 162.056C167.828 154.712 163.681 149.802 156.328 141.007C150.685 136.012 146.068 141.69 148.548 151.126Z" fill="#151F36"/>
<path fill-rule="evenodd" clip-rule="evenodd" d="M170.756 177.842C171.827 176.987 172.56 175.7 172.574 173.968C172.574 172.778 172.711 171.654 172.845 170.546C173.175 167.839 173.491 165.238 171.761 162.056C167.901 154.848 163.835 149.984 156.732 141.49C156.599 141.331 156.464 141.17 156.329 141.007C152.521 137.636 149.18 139.126 148.172 143.35C149.495 143.059 151.118 143.443 152.902 144.678C153.052 144.82 153.201 144.96 153.349 145.099C161.21 152.501 165.71 156.739 170.188 163.205C172.19 166.056 172.076 168.535 171.957 171.114C171.908 172.169 171.859 173.241 171.953 174.362C172.062 175.807 171.573 176.972 170.756 177.842Z" fill="#8592AC"/>
<path d="M152.438 165.472C152.438 165.472 162.612 165.685 166.588 157.616C160.646 147.027 154.789 136.652 153.378 134.816C149.616 129.949 142.135 133.834 144.358 142.971C146.752 152.748 152.438 165.472 152.438 165.472Z" fill="#CDD7E8"/>
<path fill-rule="evenodd" clip-rule="evenodd" d="M144.947 135.579C147.417 134.392 150.589 134.901 152.534 137.348C153.974 139.17 159.667 149.138 165.502 159.429C165.9 158.877 166.265 158.274 166.59 157.616C160.647 147.027 154.791 136.652 153.38 134.816C150.905 131.614 146.819 132.201 144.947 135.579Z" fill="#CDD7E8"/>
<path d="M149.548 134.325C149.479 132.463 149.479 132.532 149.134 127.98C150.238 128.187 152.79 128.187 154.1 127.015C157.272 124.187 155.341 116.049 154.445 113.842C154.238 113.359 154.169 112.876 154.169 112.325C154.238 111.014 153.755 109.359 153.341 107.842C152.169 103.773 144.72 95.2209 134.306 102.945C126.168 109.014 135.272 118.394 135.962 122.946C136.651 127.497 135.065 131.98 134.996 133.566C134.927 137.636 149.686 138.463 149.548 134.325Z" fill="#151F36"/>
<path d="M119.862 123.331C119.862 123.331 117.896 129.65 121.786 135.243C125.591 140.665 132.388 142.459 150.642 136.012C153.079 135.158 154.276 135.926 155.046 137.378C155.73 138.659 156.67 140.11 156.67 140.11C156.67 140.11 158.722 137.036 160.304 133.749C162.997 128.198 160.218 124.911 154.704 124.356C146.453 123.545 132.816 123.929 119.862 123.331Z" fill="#B5F3D8"/>
<path fill-rule="evenodd" clip-rule="evenodd" d="M119.645 124.256C119.758 123.668 119.863 123.331 119.863 123.331C125.557 123.594 131.383 123.667 136.825 123.735C143.764 123.822 150.08 123.901 154.704 124.356C160.219 124.911 162.998 128.198 160.305 133.749C158.723 137.036 156.671 140.11 156.671 140.11C156.671 140.11 156.422 139.726 156.087 139.178C156.712 138.108 157.428 136.816 158.066 135.489C160.759 129.939 157.346 125.726 151.831 125.171C147.207 124.717 140.891 124.637 133.952 124.55C129.353 124.493 124.48 124.432 119.645 124.256Z" fill="white" fill-opacity="0.68"/>
<path d="M143.419 69.6636C140.597 68.0839 136.75 67.9985 133.928 70.2187C131.021 72.5669 130.722 77.0926 131.876 80.4656C132.389 82.0026 133.244 83.4115 133.629 84.9913C133.8 85.7171 133.886 86.5283 133.715 87.2968C133.629 87.8945 133.287 89.0046 132.518 90.2001C131.15 92.2922 140.341 94.2134 139.999 91.609C139.871 90.627 139.956 89.517 140.213 88.1934C140.298 87.8091 140.683 87.553 141.068 87.5957C141.666 87.7238 144.017 88.535 144.53 88.2361C144.958 88.0226 145.3 87.6384 145.599 87.2968C147.694 84.7778 148.72 81.2768 148.549 77.7331C148.378 74.232 146.326 71.0299 143.419 69.6636Z" fill="#8592AC"/>
<path d="M139.186 86.3577C141.067 85.0342 140.469 83.4545 141.537 81.2343C141.794 80.722 142.777 79.8254 144.957 79.8681C148.805 79.9108 150.087 74.7446 148.377 72.2256C146.881 69.9628 140.041 65.1809 133.885 69.6639C128.327 73.7626 132.047 82.2163 133.372 84.8207C133.671 85.3758 134.099 85.8027 134.697 86.0162C135.68 86.4004 138.16 87.0836 139.186 86.3577Z" fill="#151F36"/>
<path d="M131.704 76.1956C130.678 76.3237 129.61 75.8113 129.054 74.9574C128.541 75.8967 127.942 76.8787 127.002 77.3911C126.061 77.9034 124.608 77.6899 124.223 76.6652C123.154 77.7753 121.786 78.5865 120.247 78.9281C119.777 79.0135 119.264 79.0989 118.837 78.8427C117.853 78.2877 118.153 76.7506 118.965 75.9394C119.777 75.1282 120.889 74.6586 121.444 73.7193C120.846 72.5238 121.829 70.816 123.197 70.7733C122.812 70.5598 122.556 70.1756 122.47 69.7486C121.872 70.5598 120.376 70.1329 120.247 69.1936C119.179 69.8767 117.939 70.3036 116.699 70.389C116.272 70.4317 115.759 70.389 115.417 70.1329C114.861 69.7059 114.946 68.7666 115.417 68.2116C115.887 67.6565 116.571 67.4004 117.212 67.1442C117.255 66.1195 117.982 65.1375 118.965 64.796C119.948 64.4544 121.145 64.796 121.786 65.5645C121.487 65.0094 122 64.3263 122.599 64.1555C123.197 64.0274 123.838 64.2409 124.394 64.5398C124.95 64.8387 125.463 65.1802 126.104 65.3083C125.164 64.7533 124.522 63.6432 124.565 62.5331C123.967 62.832 123.24 62.9601 122.684 62.5758C122.128 62.1915 122.171 61.1669 122.812 60.9961C122.171 60.9107 121.487 60.868 120.931 60.4837C120.376 60.0995 120.034 59.331 120.376 58.7759C120.76 58.1355 121.658 58.0928 122.428 58.2636C124.009 58.6051 125.463 59.4163 126.574 60.6118C127.301 59.6725 128.84 59.7152 129.781 60.3983C130.764 61.0815 131.277 62.2342 131.79 63.3016C131.875 62.7039 132.559 62.3196 133.158 62.4477C133.756 62.5331 134.227 63.0028 134.611 63.4724C135.851 64.9667 136.407 67.0161 136.108 68.9374C137.305 68.6385 138.331 70.1756 138.032 71.371C137.561 73.3777 136.364 73.2496 134.825 73.6766C133.457 74.0608 133.457 75.9821 131.704 76.1956Z" fill="#151F36"/>
<path d="M147.865 101.429C147.865 101.429 152.225 119.489 153.337 124.228C150.686 124.057 149.147 124.015 147.352 123.887C146.069 120.087 144.359 116.927 143.504 113.597C139.913 99.6357 144.274 93.7438 147.865 101.429Z" fill="#8592AC"/>
<path fill-rule="evenodd" clip-rule="evenodd" d="M145.292 116.387C145.096 119.818 145.052 123.646 145.298 127.943C145.34 128.669 144.827 129.309 144.229 129.694C138.629 133.408 126.06 135.415 119.519 129.694C119.135 129.352 118.793 128.882 118.793 128.37C118.408 116.458 121.101 99.8923 124.094 94.1711C125.291 91.8656 126.53 90.3713 130.079 89.7735C134.567 89.005 140.467 90.7982 143.16 92.5914C143.319 92.6989 143.503 92.8181 143.702 92.9478C144.164 93.2476 144.712 93.6038 145.245 94.0028C146.334 94.427 147.367 95.7295 147.864 97.8001C147.864 97.8001 150.258 106.126 152.096 112.701C152.31 113.469 150.301 115.006 148.12 115.775C147.156 116.113 146.158 116.317 145.292 116.387Z" fill="white"/>
<path d="M145.292 116.387C145.096 119.818 145.052 123.646 145.298 127.943C145.34 128.669 144.827 129.309 144.229 129.694C138.629 133.408 126.06 135.415 119.519 129.694C119.135 129.352 118.793 128.882 118.793 128.37C118.408 116.458 121.101 99.8923 124.094 94.1711C125.291 91.8656 126.53 90.3713 130.079 89.7735C134.567 89.005 140.467 90.7982 143.16 92.5914C143.319 92.6989 143.503 92.8181 143.702 92.9478C144.164 93.2478 144.713 93.6042 145.246 94.0035C146.335 94.4284 147.366 95.7306 147.863 97.8002C147.863 97.8002 150.257 106.126 152.095 112.701C152.309 113.469 150.3 115.006 148.12 115.775C147.156 116.113 146.158 116.317 145.292 116.387Z" fill="white"/>
<mask id="mask0" mask-type="alpha" maskUnits="userSpaceOnUse" x="118" y="89" width="35" height="45">
<path d="M145.292 116.387C145.096 119.818 145.052 123.646 145.298 127.943C145.34 128.669 144.827 129.309 144.229 129.694C138.629 133.408 126.06 135.415 119.519 129.694C119.135 129.352 118.793 128.882 118.793 128.37C118.408 116.458 121.101 99.8923 124.094 94.1711C125.291 91.8656 126.53 90.3713 130.079 89.7735C134.567 89.005 140.467 90.7982 143.16 92.5914C143.319 92.6989 143.503 92.8181 143.702 92.9478C144.164 93.2478 144.713 93.6042 145.246 94.0035C146.335 94.4284 147.366 95.7306 147.863 97.8002C147.863 97.8002 150.257 106.126 152.095 112.701C152.309 113.469 150.3 115.006 148.12 115.775C147.156 116.113 146.158 116.317 145.292 116.387Z" fill="white"/>
</mask>
<g mask="url(#mask0)">
<path fill-rule="evenodd" clip-rule="evenodd" d="M147.022 104.2C148.878 104.2 150.348 102.73 150.348 100.912C150.348 99.0946 148.84 97.625 147.022 97.625C145.166 97.625 143.696 99.0946 143.696 100.912C143.657 102.73 145.166 104.2 147.022 104.2ZM147.022 103.271C148.337 103.271 149.42 102.227 149.42 100.912C149.42 99.5974 148.337 98.5532 147.022 98.5532C145.707 98.5532 144.624 99.5974 144.624 100.912C144.624 102.189 145.668 103.271 147.022 103.271Z" fill="#5C9EFF"/>
<path fill-rule="evenodd" clip-rule="evenodd" d="M140.618 95.0874C142.474 95.0874 143.944 93.6177 143.944 91.8C143.944 89.9823 142.435 88.5127 140.618 88.5127C138.761 88.5127 137.292 89.9823 137.292 91.8C137.253 93.6177 138.761 95.0874 140.618 95.0874ZM140.618 94.1592C141.933 94.1592 143.016 93.115 143.016 91.8C143.016 90.4851 141.933 89.4409 140.618 89.4409C139.303 89.4409 138.22 90.4851 138.22 91.8C138.22 93.0763 139.264 94.1592 140.618 94.1592Z" fill="#5C9EFF"/>
<path fill-rule="evenodd" clip-rule="evenodd" d="M133.18 103.363C135.037 103.363 136.506 101.893 136.506 100.075C136.506 98.2577 134.998 96.7881 133.18 96.7881C131.324 96.7881 129.854 98.2577 129.854 100.075C129.816 101.893 131.324 103.363 133.18 103.363ZM133.18 102.435C134.495 102.435 135.578 101.39 135.578 100.075C135.578 98.7605 134.495 97.7163 133.18 97.7163C131.865 97.7163 130.782 98.7605 130.782 100.075C130.782 101.352 131.827 102.435 133.18 102.435Z" fill="#5C9EFF"/>
<path fill-rule="evenodd" clip-rule="evenodd" d="M126.479 95.3335C128.335 95.3335 129.805 93.8638 129.805 92.0461C129.805 90.2284 128.297 88.7588 126.479 88.7588C124.623 88.7588 123.153 90.2284 123.153 92.0461C123.114 93.8638 124.623 95.3335 126.479 95.3335ZM126.479 94.4053C127.794 94.4053 128.877 93.3611 128.877 92.0461C128.877 90.7312 127.794 89.687 126.479 89.687C125.164 89.687 124.081 90.7312 124.081 92.0461C124.081 93.3224 125.125 94.4053 126.479 94.4053Z" fill="#5C9EFF"/>
<path fill-rule="evenodd" clip-rule="evenodd" d="M121.653 108.633C123.509 108.633 124.979 107.164 124.979 105.346C124.979 103.528 123.471 102.059 121.653 102.059C119.797 102.059 118.327 103.528 118.327 105.346C118.288 107.164 119.797 108.633 121.653 108.633ZM121.653 107.705C122.968 107.705 124.051 106.661 124.051 105.346C124.051 104.031 122.968 102.987 121.653 102.987C120.338 102.987 119.255 104.031 119.255 105.346C119.255 106.622 120.299 107.705 121.653 107.705Z" fill="#5C9EFF"/>
<path fill-rule="evenodd" clip-rule="evenodd" d="M139.19 113.412C141.046 113.412 142.516 111.942 142.516 110.124C142.516 108.307 141.008 106.837 139.19 106.837C137.334 106.837 135.864 108.307 135.864 110.124C135.825 111.942 137.334 113.412 139.19 113.412ZM139.19 112.483C140.505 112.483 141.588 111.439 141.588 110.124C141.588 108.809 140.505 107.765 139.19 107.765C137.875 107.765 136.792 108.809 136.792 110.124C136.792 111.401 137.836 112.483 139.19 112.483Z" fill="#5C9EFF"/>
<path fill-rule="evenodd" clip-rule="evenodd" d="M151.01 115.826C152.867 115.826 154.336 114.356 154.336 112.538C154.336 110.721 152.828 109.251 151.01 109.251C149.154 109.251 147.684 110.721 147.684 112.538C147.646 114.356 149.154 115.826 151.01 115.826ZM151.01 114.897C152.325 114.897 153.408 113.853 153.408 112.538C153.408 111.223 152.325 110.179 151.01 110.179C149.695 110.179 148.613 111.223 148.613 112.538C148.613 113.815 149.657 114.897 151.01 114.897Z" fill="#5C9EFF"/>
<path fill-rule="evenodd" clip-rule="evenodd" d="M127.514 117.353C129.371 117.353 130.84 115.883 130.84 114.066C130.84 112.248 129.332 110.778 127.514 110.778C125.658 110.778 124.188 112.248 124.188 114.066C124.15 115.883 125.658 117.353 127.514 117.353ZM127.514 116.425C128.829 116.425 129.912 115.381 129.912 114.066C129.912 112.751 128.829 111.707 127.514 111.707C126.199 111.707 125.116 112.751 125.116 114.066C125.116 115.342 126.161 116.425 127.514 116.425Z" fill="#5C9EFF"/>
<path fill-rule="evenodd" clip-rule="evenodd" d="M143.77 125.432C145.626 125.432 147.096 123.962 147.096 122.145C147.096 120.327 145.588 118.857 143.77 118.857C141.914 118.857 140.444 120.327 140.444 122.145C140.405 123.962 141.914 125.432 143.77 125.432ZM143.77 124.504C145.085 124.504 146.168 123.46 146.168 122.145C146.168 120.83 145.085 119.786 143.77 119.786C142.455 119.786 141.372 120.83 141.372 122.145C141.372 123.421 142.416 124.504 143.77 124.504Z" fill="#5C9EFF"/>
<path fill-rule="evenodd" clip-rule="evenodd" d="M132.835 127.5C134.691 127.5 136.161 126.031 136.161 124.213C136.161 122.395 134.652 120.926 132.835 120.926C130.978 120.926 129.509 122.395 129.509 124.213C129.47 126.031 130.978 127.5 132.835 127.5ZM132.835 126.572C134.149 126.572 135.232 125.528 135.232 124.213C135.232 122.898 134.149 121.854 132.835 121.854C131.52 121.854 130.437 122.898 130.437 124.213C130.437 125.489 131.481 126.572 132.835 126.572Z" fill="#5C9EFF"/>
<path fill-rule="evenodd" clip-rule="evenodd" d="M118.844 125.628C120.701 125.628 122.17 124.159 122.17 122.341C122.17 120.523 120.662 119.054 118.844 119.054C116.988 119.054 115.518 120.523 115.518 122.341C115.48 124.159 116.988 125.628 118.844 125.628ZM118.844 124.7C120.159 124.7 121.242 123.656 121.242 122.341C121.242 121.026 120.159 119.982 118.844 119.982C117.529 119.982 116.446 121.026 116.446 122.341C116.446 123.617 117.491 124.7 118.844 124.7Z" fill="#5C9EFF"/>
<path fill-rule="evenodd" clip-rule="evenodd" d="M124.657 136.072C126.513 136.072 127.983 134.602 127.983 132.784C127.983 130.967 126.475 129.497 124.657 129.497C122.8 129.497 121.331 130.967 121.331 132.784C121.292 134.602 122.8 136.072 124.657 136.072ZM124.657 135.144C125.972 135.144 127.055 134.099 127.055 132.784C127.055 131.469 125.972 130.425 124.657 130.425C123.342 130.425 122.259 131.469 122.259 132.784C122.259 134.061 123.303 135.144 124.657 135.144Z" fill="#5C9EFF"/>
<path fill-rule="evenodd" clip-rule="evenodd" d="M140.518 135.283C142.375 135.283 143.844 133.813 143.844 131.995C143.844 130.178 142.336 128.708 140.518 128.708C138.662 128.708 137.192 130.178 137.192 131.995C137.153 133.813 138.662 135.283 140.518 135.283ZM140.518 134.355C141.833 134.355 142.916 133.31 142.916 131.995C142.916 130.68 141.833 129.636 140.518 129.636C139.203 129.636 138.12 130.68 138.12 131.995C138.12 133.272 139.165 134.355 140.518 134.355Z" fill="#5C9EFF"/>
</g>
<g style="mix-blend-mode:multiply">
<path fill-rule="evenodd" clip-rule="evenodd" d="M148.615 135.577C148.342 130.81 148.391 126.563 148.608 122.757C149.57 122.679 150.676 122.452 151.746 122.077C152.786 121.711 153.79 121.187 154.579 120.64C154.577 120.625 154.573 120.609 154.569 120.594C152.53 113.3 149.874 104.063 149.874 104.063C149.323 101.767 148.178 100.322 146.97 99.8507C146.379 99.4078 145.77 99.0123 145.257 98.6795L145.257 98.6794C145.036 98.5355 144.832 98.4033 144.656 98.2841C141.668 96.2946 135.123 94.3052 130.143 95.1578C128.087 95.5041 126.73 96.1217 125.713 96.9971C125.498 97.3463 125.293 97.7171 125.09 98.109C121.77 104.456 118.782 122.835 119.209 136.051C119.209 136.619 119.588 137.14 120.015 137.519C127.272 143.867 141.216 141.64 147.429 137.519C148.093 137.093 148.662 136.383 148.615 135.577Z" fill="#C1C8D5"/>
</g>
<path d="M112.723 269.99C113.664 270.416 113.878 274.088 114.433 276.223C115.203 279.126 122.043 277.248 122.214 279.425C122.385 281.603 123.069 290.227 123.625 290.825C124.18 291.465 128.199 289.971 129.054 292.404C130.294 295.863 120.76 302.481 117.554 303.42C114.348 304.316 112.852 302.182 111.612 299.577C110.543 297.272 105.712 280.962 105.028 277.504C104.302 274.046 105.37 273.448 106.696 272.466C108.192 271.398 111.569 269.477 112.723 269.99Z" fill="#2C80FC"/>
<path d="M114.348 299.578C113.536 297.272 112.082 286.257 110.33 279.297C108.919 273.704 106.781 273.149 105.328 273.747C104.858 274.473 104.687 275.498 105.071 277.504C105.798 280.962 110.586 297.272 111.655 299.578C112.895 302.225 114.391 304.359 117.597 303.42C117.64 303.42 117.725 303.377 117.768 303.377C116.528 303.036 114.989 301.456 114.348 299.578Z" fill="#151F36"/>
<path d="M156.423 267.544C154.842 267.929 150.116 269.684 148.278 269.427C146.098 269.128 152.292 273.894 145.864 276.553C143.684 276.126 140.307 274.674 139.494 275.358C138.511 276.169 138.255 281.207 139.238 283.726C139.794 285.22 143.641 285.989 146.292 284.067C148.643 282.36 150.652 280.054 153.003 279.371C160.57 277.151 161.853 275.101 163.434 272.241C164.84 268.364 159.204 266.6 156.423 267.544Z" fill="#2C80FC"/>
<path fill-rule="evenodd" clip-rule="evenodd" d="M230.876 220.785C230.117 217.801 228.802 213.686 227.526 211.348C225.553 207.804 223.065 207.086 221.475 207.936C219.908 208.787 218.998 211.387 220.627 214.541C221.964 217.212 224.78 221.044 230.663 224.545C230.524 227.43 230.492 229.963 230.5 231.977C229.124 228.262 226.427 223.653 222.533 220.215C219.884 217.834 215.405 217.172 213.526 218.913C212.576 219.759 211.536 221.929 215.103 226.731C217.327 229.833 223.153 235.109 230.516 235.222C230.535 236.123 230.566 236.646 230.565 236.67L231.282 236.67C231.282 236.646 231.246 236.098 231.227 235.197C231.559 235.184 232.106 235.13 232.819 235.034C234.746 234.763 237.986 234.179 241.25 232.813C247.182 230.229 250.673 226.928 250.623 223.989C250.596 223.349 250.164 222.791 249.468 222.319C247.702 221.221 244.113 220.871 240.725 222.398C237.218 223.97 233.91 227.466 231.172 232.448C231.164 230.435 231.199 227.83 231.341 224.827C231.365 224.804 231.509 224.737 231.75 224.603C233.316 223.776 239.074 220.688 243.507 216.802C245.262 215.223 245.327 213.164 244.87 211.894C244.412 210.625 243.374 209.763 242.167 209.725C239.022 209.555 234.053 216.172 231.513 221.611C231.656 219.318 231.852 216.861 232.146 214.312C234.144 211.035 235.327 208.822 237.552 204.345C238.992 201.477 239.156 198.545 237.89 196.61C237.167 195.498 236.026 194.894 234.841 194.904C233.868 194.968 232.882 195.458 232.072 196.333C230.551 198.014 229.678 200.899 229.869 203.89C230.092 208.823 231.198 213.572 231.364 214.311C231.386 214.359 231.385 214.406 231.385 214.406L231.405 214.502C231.194 216.698 231.009 218.8 230.876 220.785Z" fill="#151F36"/>
<path d="M273.212 245.497C267.021 245.13 268.857 236.15 263.938 232.822C256.72 227.928 251.092 231.158 247.299 235.513C245.366 237.716 241.598 239.698 239.053 238.279C234.012 235.465 228.971 235.367 225.57 238.279C220.799 242.365 221.606 249.29 213.702 249.29C205.799 249.29 202.838 252.153 202.838 253.743H285.814C285.814 253.768 287.356 246.329 273.212 245.497Z" fill="#151F36"/>
<defs>
<linearGradient id="paint0_linear" x1="291.328" y1="119.807" x2="277.151" y2="172.052" gradientUnits="userSpaceOnUse">
<stop stop-color="#8592AC"/>
<stop offset="1" stop-color="#5D6473"/>
</linearGradient>
<linearGradient id="paint1_linear" x1="108.365" y1="253.734" x2="108.365" y2="340.927" gradientUnits="userSpaceOnUse">
<stop stop-color="#E2E8F3"/>
<stop offset="1" stop-color="#E2E8F3" stop-opacity="0"/>
</linearGradient>
<linearGradient id="paint2_linear" x1="199.892" y1="175.507" x2="199.892" y2="215.573" gradientUnits="userSpaceOnUse">
<stop stop-color="#DFE6F2"/>
<stop offset="1" stop-color="#DFE6F2" stop-opacity="0.3"/>
</linearGradient>
<linearGradient id="paint3_linear" x1="232.782" y1="95.7373" x2="232.782" y2="159.238" gradientUnits="userSpaceOnUse">
<stop stop-color="#DFE6F2"/>
<stop offset="1" stop-color="#DFE6F2" stop-opacity="0.22"/>
</linearGradient>
<linearGradient id="paint4_linear" x1="209.546" y1="58.2695" x2="209.546" y2="121.77" gradientUnits="userSpaceOnUse">
<stop stop-color="#DFE6F2"/>
<stop offset="1" stop-color="#DFE6F2" stop-opacity="0.22"/>
</linearGradient>
<linearGradient id="paint5_linear" x1="65.3804" y1="290.432" x2="65.3804" y2="336.909" gradientUnits="userSpaceOnUse">
<stop stop-color="#E2E8F3"/>
<stop offset="1" stop-color="#E2E8F3" stop-opacity="0"/>
</linearGradient>
</defs>
</svg>
