<svg width="114" height="38" viewBox="0 0 114 38" fill="none" xmlns="http://www.w3.org/2000/svg">
<g clip-path="url(#clip0)">
<path d="M42.1758 5.95834H43.4397L43.9002 3.87319H45.3945C47.2512 3.87319 47.8488 2.57243 47.8488 1.69551C47.8488 0.803971 47.1826 0.0585938 46.046 0.0585938H43.4838L42.1758 5.95834ZM45.4581 2.76734H44.1501L44.5077 1.14012H45.7814C46.237 1.14012 46.5261 1.43244 46.5261 1.82218C46.5212 2.35321 46.1342 2.76734 45.4581 2.76734ZM47.7116 4.13141C47.7116 5.24706 48.4661 6.06552 49.8379 6.06552C51.2978 6.06552 52.3266 4.85731 52.3266 3.52731C52.3266 2.41167 51.5623 1.58347 50.1906 1.58347C48.7404 1.58347 47.7116 2.79654 47.7116 4.13141ZM51.1508 3.58089C51.1508 4.35064 50.6364 5.0668 49.8771 5.0668C49.2451 5.0668 48.8727 4.68679 48.8727 4.06807C48.8727 3.30807 49.3872 2.58221 50.1514 2.58221C50.7785 2.58221 51.1508 2.96218 51.1508 3.58089ZM56.4221 5.95834H57.6224L59.8808 1.68576H58.6708L57.2207 4.56013L56.9267 1.68576H55.9225L54.3401 4.56013L54.1686 1.68576H53.0418L53.3995 5.95834H54.6095L56.1576 3.04988L56.4221 5.95834ZM59.6555 4.14604C59.6555 5.33962 60.5275 6.06552 61.8796 6.06552C62.4136 6.06552 62.9819 5.90475 63.3983 5.62219L63.0407 4.85242C62.7761 5.05706 62.3303 5.16911 61.958 5.16911C61.1693 5.16911 60.7822 4.64785 60.7822 4.28246V4.17524H63.9764C64.0205 4.03396 64.0646 3.73194 64.0646 3.48348C64.0646 2.28989 63.2268 1.57371 62.1344 1.57371C60.7039 1.58346 59.6555 2.76245 59.6555 4.14604ZM63.0505 3.42502H60.8998C60.9978 2.95733 61.4583 2.47499 62.0658 2.47499C62.7516 2.47499 63.0505 2.90858 63.0505 3.33243V3.42502ZM64.4026 5.95834H65.5294L66.1417 3.16192C66.4014 2.87936 66.7982 2.65036 67.2097 2.65036C67.3959 2.65036 67.5576 2.68452 67.6261 2.704L67.8662 1.58834C67.1901 1.58834 66.7296 1.84167 66.3475 2.2509L66.4798 1.68576H65.353L64.4026 5.95834ZM67.7731 4.14604C67.7731 5.33962 68.6451 6.06552 69.9973 6.06552C70.5312 6.06552 71.0995 5.90475 71.5159 5.62219L71.1583 4.85242C70.8938 5.05706 70.448 5.16911 70.0756 5.16911C69.2869 5.16911 68.8999 4.64785 68.8999 4.28246V4.17524H72.0891C72.1332 4.03396 72.1773 3.73194 72.1773 3.48348C72.1773 2.28989 71.3396 1.57371 70.2471 1.57371C68.8215 1.58346 67.7731 2.76245 67.7731 4.14604ZM71.1681 3.42502H69.0175C69.1154 2.95733 69.5759 2.47499 70.1834 2.47499C70.8693 2.47499 71.1681 2.90858 71.1681 3.33243V3.42502ZM76.3072 2.25578C76.023 1.83193 75.5086 1.58347 74.9403 1.58347C73.4755 1.58347 72.6721 3.00601 72.6721 4.29703C72.6721 5.42727 73.3286 6.06552 74.3084 6.06552C74.8228 6.06552 75.2343 5.85603 75.5968 5.42731L75.4743 5.95834H76.6109L77.9287 0.0585938H76.7922L76.3072 2.25578ZM73.8528 4.06807C73.8528 3.28371 74.377 2.58221 75.1167 2.58221C75.5723 2.58221 75.9348 2.79652 76.121 3.07908L75.7928 4.56501C75.5625 4.85731 75.2049 5.07167 74.8081 5.07167C74.2643 5.0668 73.8528 4.67705 73.8528 4.06807ZM81.2551 5.39316C81.5393 5.82188 82.039 6.06552 82.622 6.06552C84.0819 6.06552 84.8804 4.63321 84.8804 3.35193C84.8804 2.22168 84.2141 1.58347 83.2539 1.58347C82.7395 1.58347 82.3182 1.79786 81.9557 2.2217L82.4358 0.0634704H81.309L80.001 5.96321H81.1278L81.2551 5.39316ZM83.6997 3.58089C83.6997 4.36525 83.1853 5.0668 82.4358 5.0668C81.9802 5.0668 81.6177 4.8622 81.4315 4.57963L81.7597 3.09371C81.9998 2.80141 82.3476 2.58221 82.7444 2.58221C83.2931 2.58221 83.6997 2.97192 83.6997 3.58089ZM85.0812 6.61603L84.7089 7.59039C84.9147 7.66347 85.1792 7.69757 85.4291 7.69757C86.1394 7.69757 86.6195 7.4248 87.0898 6.6648L90.2203 1.69551H88.9759L87.178 4.66729L86.7224 1.69551H85.5466L86.3109 5.99244L86.0463 6.38706C85.8945 6.61116 85.7426 6.68911 85.5124 6.68911C85.3556 6.68911 85.1792 6.65988 85.0812 6.61603Z" fill="#8593AC"/>
<path d="M46.3499 14.125H44.1797V33.0471H46.3499V14.125Z" fill="#8593AC"/>
<path d="M53.3359 23.5696C53.3359 18.2691 57.8038 13.7773 63.0604 13.7773C68.3465 13.7773 72.7506 18.2302 72.7506 23.5696C72.7506 28.9043 68.3171 33.362 63.0604 33.362C57.8381 33.3912 53.3359 28.9043 53.3359 23.5696ZM70.5804 23.5696C70.5804 19.3653 67.1511 15.7845 63.0604 15.7845C58.9698 15.7845 55.5111 19.3604 55.5111 23.5696C55.5111 27.8081 58.9698 31.384 63.0604 31.384C67.1511 31.3791 70.5804 27.8081 70.5804 23.5696Z" fill="#8593AC"/>
<path d="M83.8834 16.1663H77.5V14.125H92.4125V16.1663H86.0242V33.0471H83.854L83.8834 16.1663Z" fill="#8593AC"/>
<path d="M103.798 16.7606L96.5918 33.0471H94.2305L102.128 15.192C102.412 14.5294 103.073 14.125 103.764 14.125C104.484 14.125 105.116 14.5343 105.4 15.192L113.297 33.0471H110.936L103.798 16.7606Z" fill="#8593AC"/>
<path d="M22.3789 12.1766C23.3538 12.1766 24.1425 11.3923 24.1425 10.4179C24.1425 9.44842 23.3538 8.66406 22.3789 8.66406C21.404 8.66406 20.6152 9.44842 20.6152 10.4179C20.6201 11.3923 21.4089 12.1766 22.3789 12.1766Z" fill="#8593AC"/>
<path d="M24.3632 37.0008C25.3381 37.0008 26.1269 36.2165 26.1269 35.2421C26.1269 34.2726 25.3381 33.4883 24.3632 33.4883C23.3883 33.4883 22.5996 34.2726 22.5996 35.2421C22.5996 36.2116 23.3883 37.0008 24.3632 37.0008Z" fill="#8593AC"/>
<path d="M22.8838 16.5695C23.7019 16.5695 24.3633 15.9069 24.3633 15.0933C24.3633 14.2798 23.7019 13.6172 22.8838 13.6172C22.0657 13.6172 21.4043 14.2798 21.4043 15.0933C21.4043 15.9069 22.0657 16.5695 22.8838 16.5695Z" fill="#8593AC"/>
<path d="M26.8115 17.1359C27.6297 17.1359 28.291 16.4733 28.291 15.6597C28.291 14.8413 27.6297 14.1836 26.8115 14.1836C25.9934 14.1836 25.332 14.8462 25.332 15.6597C25.3369 16.4782 25.9983 17.1359 26.8115 17.1359Z" fill="#8593AC"/>
<path d="M22.3782 20.3069C23.0738 20.3069 23.6372 19.7466 23.6372 19.0499C23.6372 18.3581 23.0738 17.793 22.3782 17.793C21.6825 17.793 21.1191 18.3532 21.1191 19.0499C21.1191 19.7466 21.6825 20.3069 22.3782 20.3069Z" fill="#8593AC"/>
<path d="M26.3118 20.8381C27.0074 20.8381 27.5708 20.2778 27.5708 19.5811C27.5708 18.8844 27.0074 18.3242 26.3118 18.3242C25.6161 18.3242 25.0527 18.8844 25.0527 19.5811C25.0527 20.2778 25.6161 20.8381 26.3118 20.8381Z" fill="#8593AC"/>
<path d="M29.4583 22.0646C30.1539 22.0646 30.7173 21.4995 30.7173 20.8077C30.7173 20.1159 30.1539 19.5508 29.4583 19.5508C28.7626 19.5508 28.1992 20.111 28.1992 20.8077C28.1992 21.4995 28.7626 22.0646 29.4583 22.0646Z" fill="#8593AC"/>
<path d="M25.1472 23.8534C25.7547 23.8534 26.2495 23.3614 26.2495 22.7573C26.2495 22.1532 25.7547 21.6562 25.1472 21.6562C24.5397 21.6562 24.0449 22.1483 24.0449 22.7573C24.0498 23.3565 24.5397 23.8534 25.1472 23.8534Z" fill="#8593AC"/>
<path d="M21.2175 23.3183C21.825 23.3183 22.3198 22.8262 22.3198 22.2172C22.3198 21.6083 21.825 21.1211 21.2175 21.1211C20.61 21.1211 20.1152 21.6083 20.1152 22.2172C20.1152 22.8262 20.61 23.3183 21.2175 23.3183Z" fill="#8593AC"/>
<path d="M28.3269 25.0722C28.9344 25.0722 29.4292 24.585 29.4292 23.976C29.4292 23.367 28.9344 22.875 28.3269 22.875C27.7194 22.875 27.2246 23.367 27.2246 23.976C27.2246 24.585 27.7194 25.0722 28.3269 25.0722Z" fill="#8593AC"/>
<path d="M23.5744 26.1422C24.0986 26.1422 24.5199 25.7184 24.5199 25.202C24.5199 24.6807 24.0986 24.2617 23.5744 24.2617C23.0502 24.2617 22.6289 24.6807 22.6289 25.202C22.6289 25.7184 23.0551 26.1422 23.5744 26.1422Z" fill="#8593AC"/>
<path d="M26.7541 27.3336C27.2783 27.3336 27.6996 26.9098 27.6996 26.3934C27.6996 25.8721 27.2783 25.4531 26.7541 25.4531C26.2348 25.4531 25.8086 25.8721 25.8086 26.3934C25.8086 26.9098 26.2299 27.3336 26.7541 27.3336Z" fill="#8593AC"/>
<path d="M19.674 25.5758C20.1982 25.5758 20.6195 25.1568 20.6195 24.6355C20.6195 24.1142 20.1982 23.6953 19.674 23.6953C19.1498 23.6953 18.7285 24.1191 18.7285 24.6355C18.7285 25.1568 19.1498 25.5758 19.674 25.5758Z" fill="#8593AC"/>
<path d="M21.8454 27.6781C22.2814 27.6781 22.6341 27.3273 22.6341 26.8937C22.6341 26.4601 22.2814 26.1094 21.8454 26.1094C21.4094 26.1094 21.0566 26.4601 21.0566 26.8937C21.0566 27.3273 21.4094 27.6781 21.8454 27.6781Z" fill="#8593AC"/>
<path d="M23.1966 29.8435C23.5787 29.8435 23.8874 29.5366 23.8874 29.1566C23.8874 28.7766 23.5787 28.4648 23.1966 28.4648C22.8145 28.4648 22.5059 28.7717 22.5059 29.1566C22.5059 29.5415 22.8145 29.8435 23.1966 29.8435Z" fill="#8593AC"/>
<path d="M21.5312 30.2826C21.8447 30.2826 22.0995 30.0293 22.0995 29.7175C22.0995 29.4057 21.8447 29.1523 21.5312 29.1523C21.2176 29.1523 20.9629 29.4057 20.9629 29.7175C20.9629 30.0293 21.2176 30.2826 21.5312 30.2826Z" fill="#8593AC"/>
<path d="M20.0521 28.6522C20.4342 28.6522 20.7428 28.3452 20.7428 27.9652C20.7428 27.5852 20.4342 27.2734 20.0521 27.2734C19.67 27.2734 19.3613 27.5804 19.3613 27.9652C19.3613 28.3501 19.67 28.6522 20.0521 28.6522Z" fill="#8593AC"/>
<path d="M17.9098 27.1468C18.3458 27.1468 18.6986 26.7961 18.6986 26.3625C18.6986 25.9289 18.3458 25.5781 17.9098 25.5781C17.4738 25.5781 17.1211 25.9289 17.1211 26.3625C17.126 26.7961 17.4787 27.1468 17.9098 27.1468Z" fill="#8593AC"/>
<path d="M17.8805 21.2445C18.3165 21.2445 18.6693 20.8937 18.6693 20.4601C18.6693 20.0266 18.3165 19.6758 17.8805 19.6758C17.4445 19.6758 17.0918 20.0266 17.0918 20.4601C17.0918 20.8937 17.4445 21.2445 17.8805 21.2445Z" fill="#8593AC"/>
<path d="M18.224 18.4841C18.6061 18.4841 18.9147 18.1773 18.9147 17.7973C18.9147 17.4173 18.6061 17.1055 18.224 17.1055C17.8418 17.1055 17.5332 17.4124 17.5332 17.7973C17.5332 18.1773 17.8418 18.4841 18.224 18.4841Z" fill="#8593AC"/>
<path d="M18.9843 16.228C19.2978 16.228 19.5526 15.9746 19.5526 15.6628C19.5526 15.351 19.2978 15.0977 18.9843 15.0977C18.6708 15.0977 18.416 15.351 18.416 15.6628C18.416 15.9746 18.6708 16.228 18.9843 16.228Z" fill="#8593AC"/>
<path d="M17.6615 15.1561C18.0436 15.1561 18.3522 14.8491 18.3522 14.4691C18.3522 14.0891 18.0436 13.7773 17.6615 13.7773C17.2793 13.7773 16.9707 14.0843 16.9707 14.4691C16.9707 14.854 17.2793 15.1561 17.6615 15.1561Z" fill="#8593AC"/>
<path d="M24.9899 28.8695C25.4259 28.8695 25.7786 28.5187 25.7786 28.0851C25.7786 27.6516 25.4259 27.3008 24.9899 27.3008C24.5539 27.3008 24.2012 27.6516 24.2012 28.0851C24.2061 28.5187 24.5588 28.8695 24.9899 28.8695Z" fill="#8593AC"/>
<path d="M15.8669 14.2484C16.3029 14.2484 16.6556 13.8976 16.6556 13.464C16.6556 13.0305 16.3029 12.6797 15.8669 12.6797C15.4309 12.6797 15.0781 13.0305 15.0781 13.464C15.0781 13.8928 15.4309 14.2484 15.8669 14.2484Z" fill="#8593AC"/>
<path d="M16.402 17.5726C16.838 17.5726 17.1908 17.2219 17.1908 16.7883C17.1908 16.3547 16.838 16.0039 16.402 16.0039C15.966 16.0039 15.6133 16.3547 15.6133 16.7883C15.6182 17.2219 15.9709 17.5726 16.402 17.5726Z" fill="#8593AC"/>
<path d="M15.5197 20.7438C16.039 20.7438 16.4652 20.3199 16.4652 19.8035C16.4652 19.2823 16.0439 18.8633 15.5197 18.8633C14.9955 18.8633 14.5742 19.2871 14.5742 19.8035C14.5791 20.3199 15.0004 20.7438 15.5197 20.7438Z" fill="#8593AC"/>
<path d="M12.6589 20.7441C13.2664 20.7441 13.7612 20.252 13.7612 19.643C13.7612 19.0341 13.2664 18.5469 12.6589 18.5469C12.0514 18.5469 11.5566 19.0341 11.5566 19.643C11.5566 20.252 12.0514 20.7441 12.6589 20.7441Z" fill="#8593AC"/>
<path d="M9.32349 21.4982C10.0192 21.4982 10.5825 20.938 10.5825 20.2413C10.5825 19.5495 10.0192 18.9844 9.32349 18.9844C8.62784 18.9844 8.06445 19.5446 8.06445 20.2413C8.06445 20.9331 8.62784 21.4982 9.32349 21.4982Z" fill="#8593AC"/>
<path d="M5.67287 23.2882C6.49101 23.2882 7.15237 22.6257 7.15237 21.8121C7.15237 20.9936 6.49101 20.3359 5.67287 20.3359C4.85472 20.3359 4.19336 20.9985 4.19336 21.8121C4.19826 22.6257 4.85962 23.2882 5.67287 23.2882Z" fill="#8593AC"/>
<path d="M1.8945 26.2977C2.8694 26.2977 3.65813 25.5085 3.65813 24.539C3.65813 23.5695 2.8694 22.7852 1.8945 22.7852C0.919597 22.7852 0.130859 23.5695 0.130859 24.539C0.130859 25.5085 0.924496 26.2977 1.8945 26.2977Z" fill="#8593AC"/>
<path d="M4.19825 19.6125C5.01638 19.6125 5.67774 18.9499 5.67774 18.1363C5.67774 17.3227 5.01638 16.6602 4.19825 16.6602C3.38011 16.6602 2.71875 17.3227 2.71875 18.1363C2.71875 18.9499 3.38011 19.6125 4.19825 19.6125Z" fill="#8593AC"/>
<path d="M7.84302 17.8263C8.53868 17.8263 9.10207 17.2612 9.10207 16.5694C9.10207 15.8776 8.53868 15.3125 7.84302 15.3125C7.14737 15.3125 6.58398 15.8727 6.58398 16.5694C6.58398 17.266 7.14737 17.8263 7.84302 17.8263Z" fill="#8593AC"/>
<path d="M7.30982 14.4982C8.00548 14.4982 8.56886 13.9331 8.56886 13.2413C8.56886 12.5496 8.00548 11.9844 7.30982 11.9844C6.61417 11.9844 6.05078 12.5447 6.05078 13.2413C6.05078 13.938 6.61417 14.4982 7.30982 14.4982Z" fill="#8593AC"/>
<path d="M10.6452 13.7441C11.2527 13.7441 11.7475 13.2569 11.7475 12.6479C11.7475 12.0389 11.2527 11.5469 10.6452 11.5469C10.0378 11.5469 9.54297 12.0389 9.54297 12.6479C9.54297 13.2569 10.0378 13.7441 10.6452 13.7441Z" fill="#8593AC"/>
<path d="M13.5061 13.7477C14.0302 13.7477 14.4516 13.3287 14.4516 12.8074C14.4516 12.2862 14.0302 11.8672 13.5061 11.8672C12.9819 11.8672 12.5605 12.2862 12.5605 12.8074C12.5605 13.3239 12.9868 13.7477 13.5061 13.7477Z" fill="#8593AC"/>
<path d="M14.0412 17.0759C14.5654 17.0759 14.9867 16.652 14.9867 16.1356C14.9867 15.6143 14.5654 15.1953 14.0412 15.1953C13.517 15.1953 13.0957 15.6143 13.0957 16.1356C13.0957 16.652 13.5219 17.0759 14.0412 17.0759Z" fill="#8593AC"/>
<path d="M11.1804 17.1005C11.7879 17.1005 12.2827 16.6084 12.2827 15.9995C12.2827 15.3954 11.7879 14.8984 11.1804 14.8984C10.5729 14.8984 10.0781 15.3905 10.0781 15.9995C10.0781 16.6084 10.5729 17.1005 11.1804 17.1005Z" fill="#8593AC"/>
<path d="M8.06438 25.4544C8.37791 25.4544 8.63266 25.2011 8.63266 24.8893C8.63266 24.5775 8.37791 24.3242 8.06438 24.3242C7.75084 24.3242 7.49609 24.5775 7.49609 24.8893C7.49609 25.2011 7.75084 25.4544 8.06438 25.4544Z" fill="#8593AC"/>
<path d="M10.3275 25.1688C10.7096 25.1688 11.0182 24.8619 11.0182 24.477C11.0182 24.0921 10.7096 23.7852 10.3275 23.7852C9.94536 23.7852 9.63672 24.0921 9.63672 24.477C9.63672 24.8619 9.94536 25.1688 10.3275 25.1688Z" fill="#8593AC"/>
<path d="M12.8161 24.2289C13.2521 24.2289 13.6048 23.8781 13.6048 23.4445C13.6048 23.0109 13.2521 22.6602 12.8161 22.6602C12.3801 22.6602 12.0273 23.0109 12.0273 23.4445C12.0273 23.8781 12.3801 24.2289 12.8161 24.2289Z" fill="#8593AC"/>
<path d="M13.4143 26.736C13.9384 26.736 14.3598 26.317 14.3598 25.7957C14.3598 25.2744 13.9384 24.8555 13.4143 24.8555C12.8901 24.8555 12.4688 25.2793 12.4688 25.7957C12.4688 26.317 12.8901 26.736 13.4143 26.736Z" fill="#8593AC"/>
<path d="M10.3903 27.3343C10.8263 27.3343 11.179 26.9836 11.179 26.55C11.179 26.1164 10.8263 25.7656 10.3903 25.7656C9.95429 25.7656 9.60156 26.1164 9.60156 26.55C9.60646 26.9836 9.95919 27.3343 10.3903 27.3343Z" fill="#8593AC"/>
<path d="M7.72005 27.3016C8.10218 27.3016 8.41081 26.9946 8.41081 26.6098C8.41081 26.2249 8.10218 25.918 7.72005 25.918C7.33793 25.918 7.0293 26.2249 7.0293 26.6098C7.0293 26.9946 7.33793 27.3016 7.72005 27.3016Z" fill="#8593AC"/>
<path d="M7.74968 29.4711C8.18569 29.4711 8.53841 29.1203 8.53841 28.6867C8.53841 28.2531 8.18569 27.9023 7.74968 27.9023C7.31366 27.9023 6.96094 28.2531 6.96094 28.6867C6.96094 29.1203 7.31366 29.4711 7.74968 29.4711Z" fill="#8593AC"/>
<path d="M10.9592 29.8805C11.4834 29.8805 11.9047 29.4567 11.9047 28.9403C11.9047 28.419 11.4834 28 10.9592 28C10.435 28 10.0137 28.419 10.0137 28.9403C10.0137 29.4567 10.4399 29.8805 10.9592 29.8805Z" fill="#8593AC"/>
<path d="M14.7019 29.4628C15.3094 29.4628 15.8042 28.9708 15.8042 28.3618C15.8042 27.7577 15.3094 27.2656 14.7019 27.2656C14.0944 27.2656 13.5996 27.7528 13.5996 28.3618C13.5996 28.9708 14.0944 29.4628 14.7019 29.4628Z" fill="#8593AC"/>
<path d="M16.9055 32.1974C17.6012 32.1974 18.1646 31.6371 18.1646 30.9405C18.1646 30.2438 17.6012 29.6836 16.9055 29.6836C16.2099 29.6836 15.6465 30.2438 15.6465 30.9405C15.6465 31.6371 16.2099 32.1974 16.9055 32.1974Z" fill="#8593AC"/>
<path d="M12.2761 32.5722C12.8836 32.5722 13.3784 32.0801 13.3784 31.4712C13.3784 30.8671 12.8836 30.375 12.2761 30.375C11.6686 30.375 11.1738 30.8622 11.1738 31.4712C11.1787 32.0801 11.6686 32.5722 12.2761 32.5722Z" fill="#8593AC"/>
<path d="M9.67063 34.705C10.2781 34.705 10.7729 34.2129 10.7729 33.604C10.7729 32.995 10.2781 32.5078 9.67063 32.5078C9.06316 32.5078 8.56836 32.995 8.56836 33.604C8.56836 34.2129 9.06316 34.705 9.67063 34.705Z" fill="#8593AC"/>
<path d="M11.8411 37.4748C12.5367 37.4748 13.1001 36.9097 13.1001 36.2179C13.1001 35.5261 12.5367 34.9609 11.8411 34.9609C11.1454 34.9609 10.582 35.5212 10.582 36.2179C10.582 36.9145 11.1454 37.4748 11.8411 37.4748Z" fill="#8593AC"/>
<path d="M17.626 37.9718C18.4441 37.9718 19.1055 37.3093 19.1055 36.4957C19.1055 35.6772 18.4441 35.0195 17.626 35.0195C16.8078 35.0195 16.1465 35.6821 16.1465 36.4957C16.1514 37.3141 16.8127 37.9718 17.626 37.9718Z" fill="#8593AC"/>
<path d="M14.4524 35.3342C15.1481 35.3342 15.7114 34.769 15.7114 34.0772C15.7114 33.3854 15.1481 32.8203 14.4524 32.8203C13.7567 32.8203 13.1934 33.3806 13.1934 34.0772C13.1934 34.7739 13.7567 35.3342 14.4524 35.3342Z" fill="#8593AC"/>
<path d="M20.0518 34.839C20.8699 34.839 21.5313 34.1765 21.5313 33.3629C21.5313 32.5493 20.8699 31.8867 20.0518 31.8867C19.2336 31.8867 18.5723 32.5493 18.5723 33.3629C18.5723 34.1765 19.2336 34.839 20.0518 34.839Z" fill="#8593AC"/>
<path d="M8.34785 32.0133C8.87204 32.0133 9.29335 31.5895 9.29335 31.0731C9.29335 30.5518 8.87204 30.1328 8.34785 30.1328C7.82366 30.1328 7.40234 30.5518 7.40234 31.0731C7.40234 31.5895 7.82366 32.0133 8.34785 32.0133Z" fill="#8593AC"/>
</g>
<defs>
<clipPath id="clip0">
<path d="M0 0H113.657V38H0V0Z" fill="white"/>
</clipPath>
</defs>
</svg>
