<svg width="99" height="49" viewBox="0 0 99 49" fill="none" xmlns="http://www.w3.org/2000/svg">
<path d="M8.08141 17.1535H4.7852V30.112H3.28485V17.1535H0V15.8201H8.08141V17.1535Z" fill="black"/>
<path d="M20.4127 15.8194V30.1112H18.8896V23.6491H12.5359V30.1112H11.0469V15.8194H12.5472V22.2815H18.901V15.8194H20.4127Z" fill="black"/>
<path d="M25.7773 17.1642V22.2701H30.8012V23.6377H25.7773V28.7436H31.5514V30.0998H24.2656V15.8194H31.5514V17.1756H25.7773V17.1642Z" fill="black"/>
<path d="M11.0563 33.7012V47.9931H9.60144L2.4066 36.4137V48.0045H0.90625V33.7012H2.32703L9.54461 45.2578V33.7012H11.0563Z" fill="black"/>
<path d="M14.5586 40.8475C14.5586 36.7902 17.582 33.5078 21.3443 33.5078C25.1065 33.5078 28.1526 36.7902 28.1526 40.8475C28.1526 44.9049 25.1065 48.1872 21.3443 48.1872C17.582 48.1872 14.5586 44.9163 14.5586 40.8475ZM26.6864 40.8475C26.6864 37.5538 24.3449 34.9553 21.3443 34.9553C18.3549 34.9553 16.0021 37.5424 16.0021 40.8475C16.0021 44.1413 18.3549 46.7398 21.3443 46.7398C24.3449 46.7398 26.6864 44.1527 26.6864 40.8475Z" fill="black"/>
<path d="M48.3765 33.7012L44.1141 47.9931H42.5342L38.9993 35.9464L35.5212 47.9931H33.93L29.6562 33.7012H31.2362L34.7483 46.1126L38.2037 33.7012H39.6472H39.795L43.3071 46.1468L46.8079 33.7012H48.3765Z" fill="black"/>
<path d="M56.8399 15.9445L59.7838 12.9926C61.4091 11.3628 64.0461 11.3628 65.6715 12.9926C66.1375 13.4599 66.4785 14.0184 66.6717 14.6224C68.8199 13.1978 70.2293 10.7474 70.2293 7.97793C70.2293 3.57867 66.6717 0 62.273 0C59.0904 0 56.3511 1.86911 55.0781 4.58161C56.1693 5.7897 56.8285 7.38528 56.8285 9.14042V15.9445H56.8399Z" fill="#5A78EE"/>
<path d="M66.8876 16.0698C66.8535 17.0956 66.4557 18.1099 65.6714 18.8963C64.0461 20.5261 61.4091 20.5261 59.7837 18.8963L56.8398 15.9445L60.9544 20.0702C63.2277 22.3496 63.2277 26.0536 60.9544 28.3331C60.2725 29.0169 59.4541 29.4956 58.5902 29.7691C60.1588 31.8433 62.648 33.1768 65.4327 33.1768C70.1838 33.1768 74.0256 29.3132 74.0256 24.5606C74.037 20.3095 70.9454 16.7651 66.8876 16.0698Z" fill="#FFBE4E"/>
<path d="M56.843 15.9445L52.7284 20.0702C50.4551 22.3496 50.4551 26.0536 52.7284 28.3331C54.3197 29.9286 56.5929 30.4073 58.6047 29.7691C57.5022 28.3217 56.8543 26.5095 56.8543 24.5606V15.9445H56.843Z" fill="#0D29B3"/>
<path d="M60.9544 28.3442C63.2277 26.0648 63.2277 22.3607 60.9544 20.0813L56.8398 15.9556V24.5718C56.8398 26.5321 57.4877 28.3328 58.5902 29.7802C59.4541 29.5067 60.2724 29.028 60.9544 28.3442Z" fill="#80A8E2"/>
<path d="M60.9544 28.3442C63.2277 26.0648 63.2277 22.3607 60.9544 20.0813L56.8398 15.9556V24.5718C56.8398 26.5321 57.4877 28.3328 58.5902 29.7802C59.4541 29.5067 60.2724 29.028 60.9544 28.3442Z" fill="#001F75"/>
<path d="M51.374 10.4744L54.3293 13.4376V7.97846C54.3293 6.75897 54.602 5.60787 55.0908 4.58214C53.8519 3.2031 52.056 2.33692 50.0555 2.33692C46.4638 2.33692 43.5199 5.14059 43.2812 8.67368C46.0092 7.68213 49.1803 8.27478 51.374 10.4744Z" fill="#FFBE4E"/>
<path d="M54.332 13.4381L56.844 15.9568V9.14141C56.844 7.38627 56.1847 5.79068 55.0936 4.5826C54.6048 5.60833 54.332 6.75943 54.332 7.97891V13.4381Z" fill="#FFBE4E"/>
<path d="M54.329 15.9446H50.0439C46.2931 15.9446 43.2583 12.9016 43.2583 9.14059C43.2583 8.98103 43.2696 8.82147 43.281 8.67331C42.2467 9.04942 41.2805 9.64206 40.4622 10.474C37.4501 13.4943 37.4501 18.4064 40.4622 21.4266C43.4742 24.4468 48.3731 24.4468 51.3851 21.4266L52.7264 20.0817L56.8409 15.956H54.329V15.9446Z" fill="#FF7A4C"/>
<path d="M43.2617 9.1407C43.2617 12.9017 46.2965 15.9447 50.0474 15.9447H54.3325V13.426L51.3772 10.4628C49.1835 8.26313 46.0124 7.67048 43.2731 8.66202C43.2617 8.82158 43.2617 8.98114 43.2617 9.1407Z" fill="#8CC63F"/>
<path d="M54.332 15.9439H56.844L54.332 13.4365V15.9439Z" fill="#8CC63F"/>
<path d="M43.2617 9.1407C43.2617 12.9017 46.2965 15.9447 50.0474 15.9447H54.3325V13.426L51.3772 10.4628C49.1835 8.26313 46.0124 7.67048 43.2731 8.66202C43.2617 8.82158 43.2617 8.98114 43.2617 9.1407Z" fill="#5A78EE"/>
<path d="M54.332 15.9446H56.844L54.332 13.4373V15.9446Z" fill="#5A78EE"/>
<path d="M65.6714 12.9926C64.0461 11.3628 61.4091 11.3628 59.7837 12.9926L56.8398 15.9444H62.2843C63.9097 15.9444 65.4214 15.4544 66.6717 14.6224C66.4784 14.0297 66.1374 13.4713 65.6714 12.9926Z" fill="#FF7A4C"/>
<path d="M65.4375 15.9445C65.9376 15.9445 66.415 15.9901 66.8924 16.0699C66.9038 15.5798 66.8356 15.0897 66.6764 14.6224C65.4148 15.4658 63.9031 15.9445 62.2891 15.9445H65.4375Z" fill="#5A78EE"/>
<path d="M62.2843 15.9445H56.8398L59.7837 18.8963C61.4091 20.5261 64.0461 20.5261 65.6714 18.8963C66.4557 18.1099 66.8535 17.0956 66.8876 16.0698C66.4102 15.9901 65.9329 15.9445 65.4327 15.9445H62.2843Z" fill="#5A78EE"/>
<path d="M52.5957 43.47V44.8946H54.3234V45.7266H52.5957V47.9946H51.6523V42.638H54.6076V43.47H52.5957Z" fill="black"/>
<path d="M55.0625 45.3157C55.0625 43.7885 56.2219 42.569 57.654 42.569C59.0975 42.569 60.2455 43.7999 60.2455 45.3157C60.2455 46.8429 59.0862 48.0624 57.654 48.0624C56.2219 48.0738 55.0625 46.8429 55.0625 45.3157ZM59.3362 45.3157C59.3362 44.2785 58.6088 43.4693 57.654 43.4693C56.7106 43.4693 55.9832 44.2785 55.9832 45.3157C55.9832 46.3528 56.722 47.162 57.654 47.162C58.6088 47.162 59.3362 46.3528 59.3362 45.3157Z" fill="black"/>
<path d="M61.3164 46.2611V42.6369H62.2598V46.0902C62.2598 46.7284 62.6804 47.2413 63.2032 47.2413C63.7261 47.2413 64.1466 46.7284 64.1466 46.0902V42.6369H65.09V46.2611C65.09 47.2755 64.2603 48.0732 63.2032 48.0732C62.1461 48.0732 61.3164 47.2755 61.3164 46.2611Z" fill="black"/>
<path d="M70.5756 42.6373V47.9939H69.6094L67.2793 44.2329V47.9939H66.3359V42.6373H67.3021L69.6435 46.387V42.6373H70.5756Z" fill="black"/>
<path d="M71.8516 42.638H73.4428C74.8636 42.638 76.0002 43.8347 76.0002 45.3163C76.0002 46.7979 74.8636 47.9946 73.4428 47.9946H71.8516V42.638ZM73.4428 47.174C74.3521 47.174 75.0569 46.3648 75.0569 45.3277C75.0569 44.2905 74.3521 43.4814 73.4428 43.4814H72.795V47.1854H73.4428V47.174Z" fill="black"/>
<path d="M79.7536 46.9449H77.6963L77.3667 47.9935H76.3438L78.1965 42.6369H79.2535L81.1062 47.9935H80.0833L79.7536 46.9449ZM79.5036 46.1585L78.7193 43.6512L77.935 46.1585H79.5036Z" fill="black"/>
<path d="M84.4216 43.47H83.2508V48.006H82.3074V43.47H81.1367V42.638H84.4329V43.47H84.4216Z" fill="black"/>
<path d="M85.375 42.6369H86.3184V47.9935H85.375V42.6369Z" fill="black"/>
<path d="M87.4492 45.3157C87.4492 43.7885 88.6086 42.569 90.0407 42.569C91.4842 42.569 92.6322 43.7999 92.6322 45.3157C92.6322 46.8429 91.4729 48.0624 90.0407 48.0624C88.5972 48.0738 87.4492 46.8429 87.4492 45.3157ZM91.7116 45.3157C91.7116 44.2785 90.9841 43.4693 90.0294 43.4693C89.086 43.4693 88.3585 44.2785 88.3585 45.3157C88.3585 46.3528 89.0973 47.162 90.0294 47.162C90.9841 47.162 91.7116 46.3528 91.7116 45.3157Z" fill="black"/>
<path d="M98.0052 42.638V47.9946H97.0391L94.709 44.2336V47.9946H93.7656V42.638H94.7318L97.0732 46.3876V42.638H98.0052Z" fill="black"/>
</svg>
