<svg width="221" height="90" viewBox="0 0 221 90" fill="none" xmlns="http://www.w3.org/2000/svg">
<path d="M113.584 7.83012C114.526 8.04762 115.396 8.41012 116.266 8.77262C116.339 8.84512 116.484 8.84512 116.556 8.84512C116.846 8.84512 117.136 8.70012 117.209 8.41012C117.354 8.04762 117.209 7.61262 116.846 7.46762C115.904 7.10512 114.961 6.74262 113.946 6.52512C113.584 6.45262 113.149 6.67012 113.076 7.03262C113.004 7.39512 113.221 7.75762 113.584 7.83012Z" fill="white"/>
<path d="M125.329 15.6599C125.474 15.8774 125.692 15.9499 125.909 15.9499C126.054 15.9499 126.199 15.8774 126.344 15.8049C126.634 15.5874 126.707 15.0799 126.489 14.7899C125.837 13.9924 125.184 13.1949 124.459 12.4699C124.169 12.1799 123.734 12.1799 123.444 12.4699C123.154 12.7599 123.154 13.1949 123.444 13.4849C124.097 14.1374 124.749 14.8624 125.329 15.6599Z" fill="white"/>
<path d="M91.9789 13.7024C92.1964 13.7024 92.3414 13.6299 92.4864 13.4849C93.1389 12.8324 93.8639 12.1799 94.6614 11.5999C94.9514 11.3824 95.0239 10.8749 94.8064 10.5849C94.5889 10.2949 94.0814 10.2224 93.7914 10.4399C92.9939 11.0924 92.1964 11.7449 91.4714 12.4699C91.1814 12.7599 91.1814 13.1949 91.4714 13.4849C91.6164 13.7024 91.7614 13.7024 91.9789 13.7024Z" fill="white"/>
<path d="M108.001 50.8949C107.059 50.8949 106.116 50.8224 105.246 50.7499C104.884 50.6774 104.521 50.9674 104.449 51.4024C104.376 51.7649 104.666 52.1274 105.101 52.1999C106.116 52.3449 107.059 52.4174 108.074 52.4174H108.146C108.581 52.4174 108.871 52.1274 108.871 51.6924C108.871 51.2574 108.364 50.8949 108.001 50.8949Z" fill="white"/>
<path d="M128.155 20.59C128.3 20.88 128.517 21.025 128.807 21.025C128.88 21.025 129.025 21.025 129.097 20.9525C129.46 20.8075 129.677 20.3725 129.46 20.01C129.097 19.0675 128.59 18.125 128.082 17.255C127.865 16.8925 127.43 16.82 127.067 16.965C126.705 17.1825 126.632 17.6175 126.777 17.98C127.43 18.85 127.792 19.72 128.155 20.59Z" fill="white"/>
<path d="M87.9902 18.3425C88.1352 18.415 88.2077 18.415 88.3527 18.415C88.5702 18.415 88.8602 18.27 89.0052 18.0525C89.5127 17.255 90.0202 16.4575 90.6002 15.66C90.8177 15.37 90.8177 14.8625 90.4552 14.645C90.1652 14.4275 89.6577 14.4275 89.4402 14.79C88.7877 15.5875 88.2802 16.4575 87.7727 17.3275C87.5552 17.69 87.7002 18.125 87.9902 18.3425Z" fill="white"/>
<path d="M118.873 10.0051C119.67 10.5126 120.468 11.0201 121.265 11.6001C121.41 11.6726 121.555 11.7451 121.7 11.7451C121.918 11.7451 122.135 11.6726 122.28 11.4551C122.498 11.1651 122.498 10.6576 122.135 10.4401C121.338 9.7876 120.468 9.2801 119.598 8.7726C119.235 8.5551 118.8 8.7001 118.583 9.0626C118.365 9.4251 118.51 9.7876 118.873 10.0051Z" fill="white"/>
<path d="M85.3813 29.7974C85.8163 29.7974 86.1063 29.5074 86.1063 29.0724V28.9999C86.1063 28.0574 86.1788 27.1149 86.3238 26.1724C86.3963 25.8099 86.1062 25.4474 85.6712 25.3749C85.3087 25.3024 84.9463 25.5924 84.8738 26.0274C84.7288 27.0424 84.6562 28.0574 84.6562 29.0724V29.1449C84.6562 29.5074 84.9463 29.7974 85.3813 29.7974Z" fill="white"/>
<path d="M85.9617 23.8526C86.0342 23.8526 86.1067 23.8526 86.1792 23.8526C86.4692 23.8526 86.7592 23.6351 86.9042 23.3451C87.1217 22.4026 87.4842 21.5326 87.8467 20.6626C87.9917 20.3001 87.8467 19.8651 87.4842 19.7201C87.1217 19.5751 86.6867 19.7201 86.5417 20.0826C86.1792 21.0251 85.8167 21.9676 85.5267 22.9826C85.3092 23.3451 85.5267 23.7801 85.9617 23.8526Z" fill="white"/>
<path d="M108.001 7.10527C108.943 7.10527 109.886 7.17777 110.828 7.32277H110.901C111.263 7.32277 111.553 7.03277 111.626 6.67027C111.698 6.30777 111.408 5.94527 110.973 5.87277C109.958 5.72777 108.943 5.65527 107.928 5.65527C107.493 5.65527 107.203 5.94527 107.203 6.38027C107.203 6.81527 107.566 7.10527 108.001 7.10527Z" fill="white"/>
<path d="M129.096 23.2726C129.313 24.2151 129.531 25.1576 129.676 26.1001C129.748 26.4626 130.038 26.7526 130.401 26.7526H130.473C130.836 26.6801 131.126 26.3176 131.126 25.9551C130.981 24.9401 130.763 23.9251 130.546 22.9826C130.473 22.6201 130.038 22.3301 129.676 22.4751C129.241 22.4751 129.023 22.9101 129.096 23.2726Z" fill="white"/>
<path d="M118.948 47.9226C118.15 48.4301 117.28 48.8651 116.41 49.2276C116.048 49.3726 115.83 49.8076 116.048 50.1701C116.193 50.4601 116.41 50.6051 116.7 50.6051C116.773 50.6051 116.918 50.6051 116.99 50.5326C117.933 50.1701 118.875 49.6626 119.745 49.1551C120.108 48.9376 120.18 48.5026 120.035 48.1401C119.745 47.8501 119.31 47.7051 118.948 47.9226Z" fill="white"/>
<path d="M87.7746 37.4825C87.6296 37.12 87.1946 36.975 86.8321 37.12C86.4696 37.265 86.3246 37.7 86.4696 38.0625C86.8321 39.005 87.3396 39.9475 87.8471 40.8175C87.9921 41.035 88.2096 41.18 88.4996 41.18C88.6446 41.18 88.7171 41.18 88.8621 41.1075C89.2246 40.89 89.2971 40.455 89.1521 40.0925C88.5721 39.2225 88.1371 38.3525 87.7746 37.4825Z" fill="white"/>
<path d="M90.6732 42.4126C90.4557 42.1226 89.9482 42.0501 89.6582 42.2676C89.3682 42.4851 89.2957 42.9926 89.5132 43.2826C90.1657 44.0801 90.8182 44.8776 91.5432 45.6026C91.6882 45.7476 91.8332 45.8201 92.0507 45.8201C92.2682 45.8201 92.4132 45.7476 92.5582 45.6026C92.8482 45.3126 92.8482 44.8776 92.5582 44.5876C91.9057 43.8626 91.2532 43.1376 90.6732 42.4126Z" fill="white"/>
<path d="M113.726 50.1701C112.784 50.3876 111.841 50.6051 110.899 50.7501C110.536 50.8226 110.246 51.1851 110.246 51.5476C110.319 51.9101 110.609 52.2001 110.971 52.2001H111.044C112.059 52.0551 113.074 51.8376 114.016 51.6201C114.379 51.5476 114.596 51.1126 114.524 50.7501C114.451 50.2426 114.089 50.0251 113.726 50.1701Z" fill="white"/>
<path d="M102.345 50.1699C101.402 49.9524 100.532 49.5899 99.6621 49.2274C99.2996 49.0824 98.8646 49.2274 98.7196 49.5899C98.5746 49.9524 98.7196 50.3874 99.0821 50.5324C100.025 50.8949 100.967 51.2574 101.982 51.4749C102.055 51.4749 102.127 51.4749 102.2 51.4749C102.49 51.4749 102.78 51.2574 102.925 50.9674C102.997 50.6774 102.78 50.2424 102.345 50.1699Z" fill="white"/>
<path d="M123.513 44.4426C122.86 45.0951 122.135 45.7476 121.338 46.3276C121.048 46.5451 120.975 47.0526 121.193 47.3426C121.338 47.5601 121.555 47.6326 121.773 47.6326C121.918 47.6326 122.063 47.5601 122.208 47.4876C123.005 46.8351 123.803 46.1826 124.528 45.4576C124.818 45.1676 124.818 44.7326 124.528 44.4426C124.238 44.1526 123.803 44.1526 123.513 44.4426Z" fill="white"/>
<path d="M97.1262 47.9949C96.3287 47.4874 95.5312 46.9799 94.7337 46.3999C94.4437 46.1824 93.9362 46.1824 93.7187 46.5449C93.5012 46.8349 93.5012 47.3424 93.8637 47.5599C94.6612 48.2124 95.5312 48.7199 96.4012 49.2274C96.5462 49.2999 96.6187 49.2999 96.7637 49.2999C96.9812 49.2999 97.2712 49.1549 97.4162 48.9374C97.5612 48.6474 97.4162 48.2124 97.1262 47.9949Z" fill="white"/>
<path d="M102.129 7.90256C102.202 7.90256 102.274 7.90256 102.347 7.90256C103.289 7.68506 104.232 7.46756 105.174 7.32256C105.537 7.25006 105.827 6.88756 105.827 6.52506C105.754 6.16256 105.392 5.87256 105.029 5.87256C104.014 6.01756 102.999 6.23506 102.057 6.45256C101.694 6.52506 101.477 6.96006 101.549 7.32256C101.477 7.68506 101.767 7.90256 102.129 7.90256Z" fill="white"/>
<path d="M130.04 34.0749C129.677 34.0024 129.242 34.2199 129.17 34.5824C128.952 35.5249 128.59 36.3949 128.227 37.2649C128.082 37.6274 128.227 38.0624 128.59 38.2074C128.662 38.2799 128.807 38.2799 128.88 38.2799C129.17 38.2799 129.46 38.1349 129.532 37.8449C129.895 36.9024 130.257 35.9599 130.475 34.9449C130.62 34.5824 130.402 34.2199 130.04 34.0749Z" fill="white"/>
<path d="M96.6192 10.1499C96.7642 10.1499 96.8367 10.1499 96.9817 10.0774C97.7792 9.5699 98.6492 9.2074 99.5192 8.8449C99.8817 8.6999 100.099 8.2649 99.8817 7.9024C99.7367 7.5399 99.3017 7.3224 98.9392 7.5399C97.9967 7.9024 97.0542 8.4099 96.1842 8.9174C95.8217 9.1349 95.7492 9.5699 95.8942 9.9324C96.1842 10.0049 96.4017 10.1499 96.6192 10.1499Z" fill="white"/>
<path d="M130.619 28.2749C130.184 28.2749 129.894 28.6374 129.894 28.9999C129.894 29.9424 129.822 30.8849 129.749 31.8274C129.677 32.1899 129.967 32.5524 130.402 32.6249H130.474C130.837 32.6249 131.127 32.3349 131.199 31.9724C131.344 30.9574 131.417 29.9424 131.417 28.9274H130.692H131.417C131.344 28.5649 130.982 28.2749 130.619 28.2749Z" fill="white"/>
<path d="M127.938 39.6574C127.576 39.4399 127.141 39.5849 126.923 39.9474C126.416 40.7449 125.908 41.5424 125.328 42.3399C125.111 42.6299 125.111 43.1374 125.473 43.3549C125.618 43.4274 125.763 43.4999 125.908 43.4999C126.126 43.4999 126.343 43.4274 126.488 43.2099C127.141 42.4124 127.648 41.5424 128.156 40.6724C128.446 40.3099 128.301 39.8024 127.938 39.6574Z" fill="white"/>
<path d="M86.8308 34.7276C86.6133 33.7851 86.3958 32.8426 86.2508 31.9001C86.1783 31.5376 85.8158 31.2476 85.4533 31.2476C85.0908 31.3201 84.8008 31.6826 84.8008 32.0451C84.9458 33.0601 85.1633 34.0751 85.3808 35.0176C85.4533 35.3076 85.7433 35.5251 86.1058 35.5251C86.1783 35.5251 86.2508 35.5251 86.3233 35.5251C86.6858 35.5251 86.9758 35.1626 86.8308 34.7276Z" fill="white"/>
<path d="M108 58C124.023 58 137 45.0225 137 29C137 12.9775 124.023 0 108 0C91.9775 0 79 12.9775 79 29C79 45.0225 91.9775 58 108 58ZM108 1.45C123.225 1.45 135.55 13.775 135.55 29C135.55 44.225 123.225 56.55 108 56.55C92.775 56.55 80.45 44.225 80.45 29C80.45 13.775 92.775 1.45 108 1.45Z" fill="white"/>
<path d="M107.275 42.63V45.7475C107.275 46.1825 107.565 46.4725 108 46.4725C108.435 46.4725 108.725 46.1825 108.725 45.7475V42.63C114.453 42.2675 119.02 37.265 119.02 31.2475C119.02 23.1275 108.943 13.1225 108.508 12.76C108.218 12.47 107.783 12.47 107.493 12.76C107.058 13.195 96.9805 22.8375 96.9805 31.2475C96.9805 37.3375 101.548 42.2675 107.275 42.63ZM98.4305 31.32C98.4305 30.8125 98.503 30.305 98.5755 29.725L107.275 37.99V41.18C102.345 40.8175 98.4305 36.54 98.4305 31.32ZM101.33 22.6925L107.275 28.275V35.96L98.938 27.985C99.4455 26.245 100.315 24.4325 101.33 22.6925ZM117.063 28.0575L108.725 36.0325V28.3475L114.598 22.765C115.613 24.505 116.555 26.3175 117.063 28.0575ZM108.725 26.3175V15.08C109.958 16.4575 111.988 18.7775 113.8 21.46L108.725 26.3175ZM108.725 41.18V37.99L117.425 29.725C117.498 30.2325 117.57 30.8125 117.57 31.32C117.57 36.54 113.655 40.8175 108.725 41.18ZM107.275 15.08V26.3175L102.128 21.46C103.94 18.705 105.97 16.385 107.275 15.08Z" fill="white"/>
<path d="M12.5223 84.614C12.5943 84.77 12.6303 84.926 12.6303 85.082C12.6303 85.358 12.5163 85.592 12.2883 85.784C12.0723 85.976 11.8203 86.072 11.5323 86.072C11.3403 86.072 11.1603 86.024 10.9923 85.928C10.8243 85.82 10.6923 85.658 10.5963 85.442L9.51634 83.03H3.18034L2.10034 85.442C2.00434 85.658 1.87234 85.82 1.70434 85.928C1.53634 86.024 1.35034 86.072 1.14634 86.072C0.870344 86.072 0.618344 85.976 0.390344 85.784C0.162344 85.592 0.0483438 85.358 0.0483438 85.082C0.0483438 84.926 0.0843438 84.77 0.156344 84.614L5.12434 73.94C5.23234 73.7 5.39434 73.52 5.61034 73.4C5.83834 73.268 6.07834 73.202 6.33034 73.202C6.58234 73.202 6.81634 73.268 7.03234 73.4C7.26034 73.52 7.42834 73.7 7.53634 73.94L12.5223 84.614ZM3.97234 81.23H8.72434L6.34834 75.884L3.97234 81.23ZM18.0877 86.144C17.2117 86.144 16.4377 85.958 15.7657 85.586C15.1057 85.214 14.5957 84.686 14.2357 84.002C13.8757 83.318 13.6957 82.52 13.6957 81.608C13.6957 80.696 13.8817 79.892 14.2537 79.196C14.6377 78.488 15.1717 77.942 15.8557 77.558C16.5397 77.174 17.3257 76.982 18.2137 76.982C18.6817 76.982 19.1497 77.048 19.6177 77.18C20.0977 77.312 20.5177 77.492 20.8777 77.72C21.2617 77.972 21.4537 78.29 21.4537 78.674C21.4537 78.938 21.3877 79.154 21.2557 79.322C21.1357 79.478 20.9737 79.556 20.7697 79.556C20.6377 79.556 20.4997 79.526 20.3557 79.466C20.2117 79.406 20.0677 79.334 19.9237 79.25C19.6597 79.094 19.4077 78.974 19.1677 78.89C18.9277 78.794 18.6517 78.746 18.3397 78.746C17.5957 78.746 17.0197 78.992 16.6117 79.484C16.2157 79.964 16.0177 80.66 16.0177 81.572C16.0177 82.472 16.2157 83.168 16.6117 83.66C17.0197 84.14 17.5957 84.38 18.3397 84.38C18.6397 84.38 18.9037 84.338 19.1317 84.254C19.3717 84.158 19.6357 84.032 19.9237 83.876C20.1037 83.768 20.2597 83.69 20.3917 83.642C20.5237 83.582 20.6557 83.552 20.7877 83.552C20.9797 83.552 21.1417 83.636 21.2737 83.804C21.4057 83.972 21.4717 84.182 21.4717 84.434C21.4717 84.638 21.4237 84.818 21.3277 84.974C21.2437 85.118 21.0997 85.25 20.8957 85.37C20.5237 85.61 20.0917 85.802 19.5997 85.946C19.1077 86.078 18.6037 86.144 18.0877 86.144ZM27.5955 84.434C28.1955 84.47 28.4955 84.74 28.4955 85.244C28.4955 85.532 28.3755 85.754 28.1355 85.91C27.9075 86.054 27.5775 86.114 27.1455 86.09L26.6595 86.054C24.6435 85.91 23.6355 84.83 23.6355 82.814V78.89H22.7355C22.4115 78.89 22.1595 78.818 21.9795 78.674C21.8115 78.53 21.7275 78.32 21.7275 78.044C21.7275 77.768 21.8115 77.558 21.9795 77.414C22.1595 77.27 22.4115 77.198 22.7355 77.198H23.6355V75.542C23.6355 75.218 23.7375 74.96 23.9415 74.768C24.1455 74.576 24.4215 74.48 24.7695 74.48C25.1055 74.48 25.3755 74.576 25.5795 74.768C25.7835 74.96 25.8855 75.218 25.8855 75.542V77.198H27.4155C27.7395 77.198 27.9855 77.27 28.1535 77.414C28.3335 77.558 28.4235 77.768 28.4235 78.044C28.4235 78.32 28.3335 78.53 28.1535 78.674C27.9855 78.818 27.7395 78.89 27.4155 78.89H25.8855V82.976C25.8855 83.864 26.2935 84.338 27.1095 84.398L27.5955 84.434ZM44.9048 84.542C45.0488 84.758 45.1208 84.968 45.1208 85.172C45.1208 85.448 45.0068 85.676 44.7788 85.856C44.5628 86.036 44.3048 86.126 44.0048 86.126C43.8128 86.126 43.6268 86.084 43.4468 86C43.2788 85.904 43.1348 85.766 43.0148 85.586L40.6208 81.95C40.3808 81.566 40.1228 81.296 39.8468 81.14C39.5828 80.984 39.2348 80.906 38.8028 80.906H37.0388V84.938C37.0388 85.298 36.9368 85.586 36.7328 85.802C36.5288 86.006 36.2528 86.108 35.9048 86.108C35.5568 86.108 35.2748 86.006 35.0588 85.802C34.8548 85.586 34.7528 85.298 34.7528 84.938V74.408C34.7528 74.06 34.8488 73.79 35.0408 73.598C35.2448 73.406 35.5208 73.31 35.8688 73.31H40.3688C41.8088 73.31 42.9008 73.634 43.6448 74.282C44.4008 74.918 44.7788 75.842 44.7788 77.054C44.7788 78.038 44.4968 78.848 43.9328 79.484C43.3808 80.108 42.5948 80.51 41.5748 80.69C41.9228 80.774 42.2288 80.924 42.4928 81.14C42.7568 81.356 43.0148 81.656 43.2668 82.04L44.9048 84.542ZM40.0448 79.124C40.9208 79.124 41.5628 78.962 41.9708 78.638C42.3788 78.302 42.5828 77.792 42.5828 77.108C42.5828 76.412 42.3788 75.908 41.9708 75.596C41.5628 75.272 40.9208 75.11 40.0448 75.11H37.0208V79.124H40.0448ZM48.1864 86.108C47.8624 86.108 47.5924 86.018 47.3764 85.838C47.1724 85.646 47.0704 85.376 47.0704 85.028V78.08C47.0704 77.732 47.1724 77.468 47.3764 77.288C47.5924 77.108 47.8624 77.018 48.1864 77.018C48.5104 77.018 48.7804 77.108 48.9964 77.288C49.2124 77.468 49.3204 77.732 49.3204 78.08V85.028C49.3204 85.376 49.2124 85.646 48.9964 85.838C48.7804 86.018 48.5104 86.108 48.1864 86.108ZM48.1864 75.416C47.7784 75.416 47.4544 75.308 47.2144 75.092C46.9744 74.864 46.8544 74.57 46.8544 74.21C46.8544 73.85 46.9744 73.562 47.2144 73.346C47.4544 73.13 47.7784 73.022 48.1864 73.022C48.5824 73.022 48.9004 73.13 49.1404 73.346C49.3924 73.562 49.5184 73.85 49.5184 74.21C49.5184 74.57 49.3984 74.864 49.1584 75.092C48.9184 75.308 48.5944 75.416 48.1864 75.416ZM59.0927 77.018C59.4287 77.018 59.6987 77.114 59.9027 77.306C60.1067 77.498 60.2087 77.756 60.2087 78.08V85.19C60.2087 86.57 59.8247 87.614 59.0567 88.322C58.2887 89.03 57.1547 89.384 55.6547 89.384C54.3467 89.384 53.2547 89.138 52.3787 88.646C51.9347 88.382 51.7127 88.064 51.7127 87.692C51.7127 87.428 51.7727 87.218 51.8927 87.062C52.0247 86.906 52.1927 86.828 52.3967 86.828C52.5047 86.828 52.6367 86.852 52.7927 86.9C52.9487 86.96 53.1107 87.026 53.2787 87.098C53.7107 87.278 54.0947 87.416 54.4307 87.512C54.7787 87.608 55.1747 87.656 55.6187 87.656C57.1907 87.656 57.9767 86.888 57.9767 85.352V84.2C57.7127 84.692 57.3287 85.076 56.8247 85.352C56.3207 85.616 55.7447 85.748 55.0967 85.748C54.3287 85.748 53.6447 85.568 53.0447 85.208C52.4567 84.836 51.9947 84.32 51.6587 83.66C51.3227 83 51.1547 82.238 51.1547 81.374C51.1547 80.51 51.3167 79.748 51.6407 79.088C51.9767 78.416 52.4447 77.9 53.0447 77.54C53.6447 77.168 54.3287 76.982 55.0967 76.982C55.7447 76.982 56.3207 77.12 56.8247 77.396C57.3287 77.66 57.7127 78.038 57.9767 78.53V78.062C57.9767 77.75 58.0787 77.498 58.2827 77.306C58.4867 77.114 58.7567 77.018 59.0927 77.018ZM55.6907 84.002C56.4107 84.002 56.9687 83.768 57.3647 83.3C57.7727 82.832 57.9767 82.19 57.9767 81.374C57.9767 80.546 57.7727 79.898 57.3647 79.43C56.9687 78.962 56.4107 78.728 55.6907 78.728C54.9827 78.728 54.4247 78.962 54.0167 79.43C53.6087 79.898 53.4047 80.546 53.4047 81.374C53.4047 82.19 53.6087 82.832 54.0167 83.3C54.4247 83.768 54.9827 84.002 55.6907 84.002ZM67.6871 76.982C69.7511 76.982 70.7831 78.188 70.7831 80.6V85.028C70.7831 85.364 70.6811 85.628 70.4771 85.82C70.2851 86.012 70.0151 86.108 69.6671 86.108C69.3191 86.108 69.0431 86.012 68.8391 85.82C68.6351 85.628 68.5331 85.364 68.5331 85.028V80.6C68.5331 79.964 68.4011 79.502 68.1371 79.214C67.8851 78.914 67.4831 78.764 66.9311 78.764C66.2831 78.764 65.7611 78.968 65.3651 79.376C64.9811 79.784 64.7891 80.33 64.7891 81.014V85.028C64.7891 85.364 64.6871 85.628 64.4831 85.82C64.2791 86.012 64.0031 86.108 63.6551 86.108C63.3071 86.108 63.0311 86.012 62.8271 85.82C62.6351 85.628 62.5391 85.364 62.5391 85.028V74.264C62.5391 73.952 62.6411 73.7 62.8451 73.508C63.0611 73.316 63.3371 73.22 63.6731 73.22C64.0091 73.22 64.2791 73.31 64.4831 73.49C64.6871 73.67 64.7891 73.916 64.7891 74.228V78.422C65.0891 77.954 65.4851 77.6 65.9771 77.36C66.4811 77.108 67.0511 76.982 67.6871 76.982ZM77.6404 84.434C78.2404 84.47 78.5404 84.74 78.5404 85.244C78.5404 85.532 78.4204 85.754 78.1804 85.91C77.9524 86.054 77.6224 86.114 77.1904 86.09L76.7044 86.054C74.6884 85.91 73.6804 84.83 73.6804 82.814V78.89H72.7804C72.4564 78.89 72.2044 78.818 72.0244 78.674C71.8564 78.53 71.7724 78.32 71.7724 78.044C71.7724 77.768 71.8564 77.558 72.0244 77.414C72.2044 77.27 72.4564 77.198 72.7804 77.198H73.6804V75.542C73.6804 75.218 73.7824 74.96 73.9864 74.768C74.1904 74.576 74.4664 74.48 74.8144 74.48C75.1504 74.48 75.4204 74.576 75.6244 74.768C75.8284 74.96 75.9304 75.218 75.9304 75.542V77.198H77.4604C77.7844 77.198 78.0304 77.27 78.1984 77.414C78.3784 77.558 78.4684 77.768 78.4684 78.044C78.4684 78.32 78.3784 78.53 78.1984 78.674C78.0304 78.818 77.7844 78.89 77.4604 78.89H75.9304V82.976C75.9304 83.864 76.3384 84.338 77.1544 84.398L77.6404 84.434ZM94.4097 73.22C94.7457 73.22 95.0097 73.328 95.2017 73.544C95.4057 73.748 95.5077 74.024 95.5077 74.372V84.938C95.5077 85.286 95.4057 85.568 95.2017 85.784C94.9977 86 94.7337 86.108 94.4097 86.108C94.0257 86.108 93.7317 85.97 93.5277 85.694L86.9577 77.144V84.938C86.9577 85.286 86.8617 85.568 86.6697 85.784C86.4777 86 86.2137 86.108 85.8777 86.108C85.5417 86.108 85.2777 86 85.0857 85.784C84.8937 85.568 84.7977 85.286 84.7977 84.938V74.372C84.7977 74.024 84.8997 73.748 85.1037 73.544C85.3077 73.328 85.5777 73.22 85.9137 73.22C86.2857 73.22 86.5737 73.358 86.7777 73.634L93.3297 82.148V74.372C93.3297 74.024 93.4257 73.748 93.6177 73.544C93.8217 73.328 94.0857 73.22 94.4097 73.22ZM102.061 86.144C101.161 86.144 100.369 85.958 99.685 85.586C99.013 85.214 98.491 84.68 98.119 83.984C97.747 83.288 97.561 82.478 97.561 81.554C97.561 80.63 97.747 79.826 98.119 79.142C98.491 78.446 99.013 77.912 99.685 77.54C100.369 77.168 101.161 76.982 102.061 76.982C102.961 76.982 103.747 77.168 104.419 77.54C105.103 77.912 105.625 78.446 105.985 79.142C106.357 79.826 106.543 80.63 106.543 81.554C106.543 82.478 106.357 83.288 105.985 83.984C105.625 84.68 105.103 85.214 104.419 85.586C103.747 85.958 102.961 86.144 102.061 86.144ZM102.043 84.398C102.775 84.398 103.333 84.158 103.717 83.678C104.101 83.198 104.293 82.49 104.293 81.554C104.293 80.63 104.101 79.928 103.717 79.448C103.333 78.956 102.781 78.71 102.061 78.71C101.341 78.71 100.783 78.956 100.387 79.448C100.003 79.928 99.811 80.63 99.811 81.554C99.811 82.49 100.003 83.198 100.387 83.678C100.771 84.158 101.323 84.398 102.043 84.398ZM120.158 77.684C120.242 77.468 120.362 77.306 120.518 77.198C120.686 77.09 120.866 77.036 121.058 77.036C121.334 77.036 121.58 77.132 121.796 77.324C122.024 77.504 122.138 77.732 122.138 78.008C122.138 78.164 122.108 78.302 122.048 78.422L119.078 85.388C118.982 85.616 118.832 85.79 118.628 85.91C118.436 86.03 118.22 86.09 117.98 86.09C117.752 86.09 117.536 86.03 117.332 85.91C117.14 85.79 116.996 85.616 116.9 85.388L114.758 80.24L112.688 85.388C112.592 85.616 112.442 85.79 112.238 85.91C112.046 86.03 111.83 86.09 111.59 86.09C111.362 86.09 111.146 86.03 110.942 85.91C110.738 85.79 110.588 85.616 110.492 85.388L107.54 78.422C107.48 78.266 107.45 78.134 107.45 78.026C107.45 77.75 107.57 77.516 107.81 77.324C108.05 77.12 108.314 77.018 108.602 77.018C108.806 77.018 108.992 77.072 109.16 77.18C109.328 77.288 109.454 77.45 109.538 77.666L111.662 83.156L113.84 77.72C113.936 77.492 114.074 77.324 114.254 77.216C114.434 77.096 114.632 77.036 114.848 77.036C115.064 77.036 115.262 77.096 115.442 77.216C115.622 77.324 115.76 77.492 115.856 77.72L118.052 83.174L120.158 77.684ZM129.913 86.108C129.565 86.108 129.283 86 129.067 85.784C128.863 85.568 128.761 85.286 128.761 84.938V74.408C128.761 74.06 128.857 73.79 129.049 73.598C129.253 73.406 129.529 73.31 129.877 73.31H136.195C136.927 73.31 137.293 73.622 137.293 74.246C137.293 74.858 136.927 75.164 136.195 75.164H131.047V78.62H135.835C136.567 78.62 136.933 78.932 136.933 79.556C136.933 80.168 136.567 80.474 135.835 80.474H131.047V84.938C131.047 85.286 130.945 85.568 130.741 85.784C130.537 86 130.261 86.108 129.913 86.108ZM142.596 86.144C141.696 86.144 140.904 85.958 140.22 85.586C139.548 85.214 139.026 84.68 138.654 83.984C138.282 83.288 138.096 82.478 138.096 81.554C138.096 80.63 138.282 79.826 138.654 79.142C139.026 78.446 139.548 77.912 140.22 77.54C140.904 77.168 141.696 76.982 142.596 76.982C143.496 76.982 144.282 77.168 144.954 77.54C145.638 77.912 146.16 78.446 146.52 79.142C146.892 79.826 147.078 80.63 147.078 81.554C147.078 82.478 146.892 83.288 146.52 83.984C146.16 84.68 145.638 85.214 144.954 85.586C144.282 85.958 143.496 86.144 142.596 86.144ZM142.578 84.398C143.31 84.398 143.868 84.158 144.252 83.678C144.636 83.198 144.828 82.49 144.828 81.554C144.828 80.63 144.636 79.928 144.252 79.448C143.868 78.956 143.316 78.71 142.596 78.71C141.876 78.71 141.318 78.956 140.922 79.448C140.538 79.928 140.346 80.63 140.346 81.554C140.346 82.49 140.538 83.198 140.922 83.678C141.306 84.158 141.858 84.398 142.578 84.398ZM155.884 77.018C156.232 77.018 156.508 77.114 156.712 77.306C156.916 77.498 157.018 77.756 157.018 78.08V85.064C157.018 85.376 156.91 85.628 156.694 85.82C156.49 86.012 156.22 86.108 155.884 86.108C155.56 86.108 155.302 86.018 155.11 85.838C154.918 85.658 154.822 85.412 154.822 85.1V84.65C154.546 85.13 154.174 85.502 153.706 85.766C153.238 86.018 152.71 86.144 152.122 86.144C149.962 86.144 148.882 84.932 148.882 82.508V78.08C148.882 77.756 148.984 77.498 149.188 77.306C149.392 77.114 149.662 77.018 149.998 77.018C150.346 77.018 150.622 77.114 150.826 77.306C151.03 77.498 151.132 77.756 151.132 78.08V82.526C151.132 83.15 151.258 83.612 151.51 83.912C151.762 84.212 152.158 84.362 152.698 84.362C153.322 84.362 153.82 84.158 154.192 83.75C154.576 83.33 154.768 82.778 154.768 82.094V78.08C154.768 77.756 154.87 77.498 155.074 77.306C155.278 77.114 155.548 77.018 155.884 77.018ZM164.471 76.982C165.527 76.982 166.313 77.282 166.829 77.882C167.345 78.482 167.603 79.388 167.603 80.6V85.028C167.603 85.364 167.501 85.628 167.297 85.82C167.105 86.012 166.835 86.108 166.487 86.108C166.139 86.108 165.863 86.012 165.659 85.82C165.455 85.628 165.353 85.364 165.353 85.028V80.726C165.353 80.042 165.221 79.544 164.957 79.232C164.705 78.92 164.303 78.764 163.751 78.764C163.103 78.764 162.581 78.968 162.185 79.376C161.801 79.784 161.609 80.33 161.609 81.014V85.028C161.609 85.364 161.507 85.628 161.303 85.82C161.099 86.012 160.823 86.108 160.475 86.108C160.127 86.108 159.851 86.012 159.647 85.82C159.455 85.628 159.359 85.364 159.359 85.028V78.062C159.359 77.75 159.461 77.498 159.665 77.306C159.869 77.114 160.145 77.018 160.493 77.018C160.805 77.018 161.057 77.114 161.249 77.306C161.453 77.486 161.555 77.726 161.555 78.026V78.512C161.855 78.02 162.257 77.642 162.761 77.378C163.265 77.114 163.835 76.982 164.471 76.982ZM177.233 73.22C177.569 73.22 177.845 73.316 178.061 73.508C178.277 73.7 178.385 73.952 178.385 74.264V85.028C178.385 85.352 178.283 85.61 178.079 85.802C177.875 85.994 177.605 86.09 177.269 86.09C176.933 86.09 176.663 85.994 176.459 85.802C176.255 85.61 176.153 85.352 176.153 85.028V84.578C175.889 85.07 175.505 85.454 175.001 85.73C174.509 86.006 173.945 86.144 173.309 86.144C172.553 86.144 171.875 85.952 171.275 85.568C170.687 85.184 170.225 84.644 169.889 83.948C169.565 83.24 169.403 82.43 169.403 81.518C169.403 80.606 169.565 79.808 169.889 79.124C170.225 78.44 170.687 77.912 171.275 77.54C171.863 77.168 172.541 76.982 173.309 76.982C173.945 76.982 174.509 77.114 175.001 77.378C175.493 77.642 175.871 78.014 176.135 78.494V74.228C176.135 73.928 176.231 73.688 176.423 73.508C176.627 73.316 176.897 73.22 177.233 73.22ZM173.903 84.398C174.623 84.398 175.175 84.152 175.559 83.66C175.955 83.168 176.153 82.466 176.153 81.554C176.153 80.642 175.955 79.946 175.559 79.466C175.175 78.974 174.629 78.728 173.921 78.728C173.201 78.728 172.643 78.968 172.247 79.448C171.851 79.928 171.653 80.618 171.653 81.518C171.653 82.43 171.851 83.138 172.247 83.642C172.643 84.146 173.195 84.398 173.903 84.398ZM184.515 76.982C185.739 76.982 186.645 77.288 187.233 77.9C187.833 78.5 188.133 79.418 188.133 80.654V85.046C188.133 85.37 188.037 85.628 187.845 85.82C187.653 86 187.389 86.09 187.053 86.09C186.741 86.09 186.483 85.994 186.279 85.802C186.087 85.61 185.991 85.358 185.991 85.046V84.65C185.787 85.118 185.463 85.484 185.019 85.748C184.587 86.012 184.083 86.144 183.507 86.144C182.919 86.144 182.385 86.024 181.905 85.784C181.425 85.544 181.047 85.214 180.771 84.794C180.495 84.374 180.357 83.906 180.357 83.39C180.357 82.742 180.519 82.232 180.843 81.86C181.179 81.488 181.719 81.218 182.463 81.05C183.207 80.882 184.233 80.798 185.541 80.798H185.991V80.384C185.991 79.796 185.865 79.37 185.613 79.106C185.361 78.83 184.953 78.692 184.389 78.692C184.041 78.692 183.687 78.746 183.327 78.854C182.967 78.95 182.541 79.094 182.049 79.286C181.737 79.442 181.509 79.52 181.365 79.52C181.149 79.52 180.969 79.442 180.825 79.286C180.693 79.13 180.627 78.926 180.627 78.674C180.627 78.47 180.675 78.296 180.771 78.152C180.879 77.996 181.053 77.852 181.293 77.72C181.713 77.492 182.211 77.312 182.787 77.18C183.375 77.048 183.951 76.982 184.515 76.982ZM183.957 84.524C184.557 84.524 185.043 84.326 185.415 83.93C185.799 83.522 185.991 83 185.991 82.364V81.986H185.667C184.863 81.986 184.239 82.022 183.795 82.094C183.351 82.166 183.033 82.292 182.841 82.472C182.649 82.652 182.553 82.898 182.553 83.21C182.553 83.594 182.685 83.912 182.949 84.164C183.225 84.404 183.561 84.524 183.957 84.524ZM194.992 84.434C195.592 84.47 195.892 84.74 195.892 85.244C195.892 85.532 195.772 85.754 195.532 85.91C195.304 86.054 194.974 86.114 194.542 86.09L194.056 86.054C192.04 85.91 191.032 84.83 191.032 82.814V78.89H190.132C189.808 78.89 189.556 78.818 189.376 78.674C189.208 78.53 189.124 78.32 189.124 78.044C189.124 77.768 189.208 77.558 189.376 77.414C189.556 77.27 189.808 77.198 190.132 77.198H191.032V75.542C191.032 75.218 191.134 74.96 191.338 74.768C191.542 74.576 191.818 74.48 192.166 74.48C192.502 74.48 192.772 74.576 192.976 74.768C193.18 74.96 193.282 75.218 193.282 75.542V77.198H194.812C195.136 77.198 195.382 77.27 195.55 77.414C195.73 77.558 195.82 77.768 195.82 78.044C195.82 78.32 195.73 78.53 195.55 78.674C195.382 78.818 195.136 78.89 194.812 78.89H193.282V82.976C193.282 83.864 193.69 84.338 194.506 84.398L194.992 84.434ZM198.181 86.108C197.857 86.108 197.587 86.018 197.371 85.838C197.167 85.646 197.065 85.376 197.065 85.028V78.08C197.065 77.732 197.167 77.468 197.371 77.288C197.587 77.108 197.857 77.018 198.181 77.018C198.505 77.018 198.775 77.108 198.991 77.288C199.207 77.468 199.315 77.732 199.315 78.08V85.028C199.315 85.376 199.207 85.646 198.991 85.838C198.775 86.018 198.505 86.108 198.181 86.108ZM198.181 75.416C197.773 75.416 197.449 75.308 197.209 75.092C196.969 74.864 196.849 74.57 196.849 74.21C196.849 73.85 196.969 73.562 197.209 73.346C197.449 73.13 197.773 73.022 198.181 73.022C198.577 73.022 198.895 73.13 199.135 73.346C199.387 73.562 199.513 73.85 199.513 74.21C199.513 74.57 199.393 74.864 199.153 75.092C198.913 75.308 198.589 75.416 198.181 75.416ZM205.649 86.144C204.749 86.144 203.957 85.958 203.273 85.586C202.601 85.214 202.079 84.68 201.707 83.984C201.335 83.288 201.149 82.478 201.149 81.554C201.149 80.63 201.335 79.826 201.707 79.142C202.079 78.446 202.601 77.912 203.273 77.54C203.957 77.168 204.749 76.982 205.649 76.982C206.549 76.982 207.335 77.168 208.007 77.54C208.691 77.912 209.213 78.446 209.573 79.142C209.945 79.826 210.131 80.63 210.131 81.554C210.131 82.478 209.945 83.288 209.573 83.984C209.213 84.68 208.691 85.214 208.007 85.586C207.335 85.958 206.549 86.144 205.649 86.144ZM205.631 84.398C206.363 84.398 206.921 84.158 207.305 83.678C207.689 83.198 207.881 82.49 207.881 81.554C207.881 80.63 207.689 79.928 207.305 79.448C206.921 78.956 206.369 78.71 205.649 78.71C204.929 78.71 204.371 78.956 203.975 79.448C203.591 79.928 203.399 80.63 203.399 81.554C203.399 82.49 203.591 83.198 203.975 83.678C204.359 84.158 204.911 84.398 205.631 84.398ZM217.1 76.982C218.156 76.982 218.942 77.282 219.458 77.882C219.974 78.482 220.232 79.388 220.232 80.6V85.028C220.232 85.364 220.13 85.628 219.926 85.82C219.734 86.012 219.464 86.108 219.116 86.108C218.768 86.108 218.492 86.012 218.288 85.82C218.084 85.628 217.982 85.364 217.982 85.028V80.726C217.982 80.042 217.85 79.544 217.586 79.232C217.334 78.92 216.932 78.764 216.38 78.764C215.732 78.764 215.21 78.968 214.814 79.376C214.43 79.784 214.238 80.33 214.238 81.014V85.028C214.238 85.364 214.136 85.628 213.932 85.82C213.728 86.012 213.452 86.108 213.104 86.108C212.756 86.108 212.48 86.012 212.276 85.82C212.084 85.628 211.988 85.364 211.988 85.028V78.062C211.988 77.75 212.09 77.498 212.294 77.306C212.498 77.114 212.774 77.018 213.122 77.018C213.434 77.018 213.686 77.114 213.878 77.306C214.082 77.486 214.184 77.726 214.184 78.026V78.512C214.484 78.02 214.886 77.642 215.39 77.378C215.894 77.114 216.464 76.982 217.1 76.982Z" fill="white"/>
</svg>
