<svg width="58" height="58" viewBox="0 0 58 58" fill="none" xmlns="http://www.w3.org/2000/svg">
<path d="M34.5839 7.83012C35.5264 8.04762 36.3964 8.41012 37.2664 8.77262C37.3389 8.84512 37.4839 8.84512 37.5564 8.84512C37.8464 8.84512 38.1364 8.70012 38.2089 8.41012C38.3539 8.04762 38.2089 7.61262 37.8464 7.46762C36.9039 7.10512 35.9614 6.74262 34.9464 6.52512C34.5839 6.45262 34.1489 6.67012 34.0764 7.03262C34.0039 7.39512 34.2214 7.75762 34.5839 7.83012Z" fill="white"/>
<path d="M46.3291 15.6599C46.4741 15.8774 46.6916 15.9499 46.9091 15.9499C47.0541 15.9499 47.1991 15.8774 47.3441 15.8049C47.6341 15.5874 47.7066 15.0799 47.4891 14.7899C46.8366 13.9924 46.1841 13.1949 45.4591 12.4699C45.1691 12.1799 44.7341 12.1799 44.4441 12.4699C44.1541 12.7599 44.1541 13.1949 44.4441 13.4849C45.0966 14.1374 45.7491 14.8624 46.3291 15.6599Z" fill="white"/>
<path d="M12.9789 13.7024C13.1964 13.7024 13.3414 13.6299 13.4864 13.4849C14.1389 12.8324 14.8639 12.1799 15.6614 11.5999C15.9514 11.3824 16.0239 10.8749 15.8064 10.5849C15.5889 10.2949 15.0814 10.2224 14.7914 10.4399C13.9939 11.0924 13.1964 11.7449 12.4714 12.4699C12.1814 12.7599 12.1814 13.1949 12.4714 13.4849C12.6164 13.7024 12.7614 13.7024 12.9789 13.7024Z" fill="white"/>
<path d="M29.0011 50.8949C28.0586 50.8949 27.1161 50.8224 26.2461 50.7499C25.8836 50.6774 25.5211 50.9674 25.4486 51.4024C25.3761 51.7649 25.6661 52.1274 26.1011 52.1999C27.1161 52.3449 28.0586 52.4174 29.0736 52.4174H29.1461C29.5811 52.4174 29.8711 52.1274 29.8711 51.6924C29.8711 51.2574 29.3636 50.8949 29.0011 50.8949Z" fill="white"/>
<path d="M49.1545 20.59C49.2995 20.88 49.517 21.025 49.807 21.025C49.8795 21.025 50.0245 21.025 50.097 20.9525C50.4595 20.8075 50.677 20.3725 50.4595 20.01C50.097 19.0675 49.5895 18.125 49.082 17.255C48.8645 16.8925 48.4295 16.82 48.067 16.965C47.7045 17.1825 47.632 17.6175 47.777 17.98C48.4295 18.85 48.792 19.72 49.1545 20.59Z" fill="white"/>
<path d="M8.99019 18.3425C9.13519 18.415 9.20769 18.415 9.35269 18.415C9.57019 18.415 9.86019 18.27 10.0052 18.0525C10.5127 17.255 11.0202 16.4575 11.6002 15.66C11.8177 15.37 11.8177 14.8625 11.4552 14.645C11.1652 14.4275 10.6577 14.4275 10.4402 14.79C9.78769 15.5875 9.28019 16.4575 8.77269 17.3275C8.55519 17.69 8.70019 18.125 8.99019 18.3425Z" fill="white"/>
<path d="M39.8727 10.0051C40.6702 10.5126 41.4677 11.0201 42.2652 11.6001C42.4102 11.6726 42.5552 11.7451 42.7002 11.7451C42.9177 11.7451 43.1352 11.6726 43.2802 11.4551C43.4977 11.1651 43.4977 10.6576 43.1352 10.4401C42.3377 9.7876 41.4677 9.2801 40.5977 8.7726C40.2352 8.5551 39.8002 8.7001 39.5827 9.0626C39.3652 9.4251 39.5102 9.7876 39.8727 10.0051Z" fill="white"/>
<path d="M6.38125 29.7974C6.81625 29.7974 7.10625 29.5074 7.10625 29.0724V28.9999C7.10625 28.0574 7.17875 27.1149 7.32375 26.1724C7.39625 25.8099 7.10625 25.4474 6.67125 25.3749C6.30875 25.3024 5.94625 25.5924 5.87375 26.0274C5.72875 27.0424 5.65625 28.0574 5.65625 29.0724V29.1449C5.65625 29.5074 5.94625 29.7974 6.38125 29.7974Z" fill="white"/>
<path d="M6.96173 23.8526C7.03423 23.8526 7.10673 23.8526 7.17923 23.8526C7.46923 23.8526 7.75923 23.6351 7.90423 23.3451C8.12173 22.4026 8.48423 21.5326 8.84673 20.6626C8.99173 20.3001 8.84673 19.8651 8.48423 19.7201C8.12173 19.5751 7.68673 19.7201 7.54173 20.0826C7.17923 21.0251 6.81673 21.9676 6.52673 22.9826C6.30923 23.3451 6.52673 23.7801 6.96173 23.8526Z" fill="white"/>
<path d="M29.0006 7.10527C29.9431 7.10527 30.8856 7.17777 31.8281 7.32277H31.9006C32.2631 7.32277 32.5531 7.03277 32.6256 6.67027C32.6981 6.30777 32.4081 5.94527 31.9731 5.87277C30.9581 5.72777 29.9431 5.65527 28.9281 5.65527C28.4931 5.65527 28.2031 5.94527 28.2031 6.38027C28.2031 6.81527 28.5656 7.10527 29.0006 7.10527Z" fill="white"/>
<path d="M50.0958 23.2726C50.3133 24.2151 50.5308 25.1576 50.6758 26.1001C50.7483 26.4626 51.0383 26.7526 51.4008 26.7526H51.4733C51.8358 26.6801 52.1258 26.3176 52.1258 25.9551C51.9808 24.9401 51.7633 23.9251 51.5458 22.9826C51.4733 22.6201 51.0383 22.3301 50.6758 22.4751C50.2408 22.4751 50.0233 22.9101 50.0958 23.2726Z" fill="white"/>
<path d="M39.9477 47.9226C39.1502 48.4301 38.2802 48.8651 37.4102 49.2276C37.0477 49.3726 36.8302 49.8076 37.0477 50.1701C37.1927 50.4601 37.4102 50.6051 37.7002 50.6051C37.7727 50.6051 37.9177 50.6051 37.9902 50.5326C38.9327 50.1701 39.8752 49.6626 40.7452 49.1551C41.1077 48.9376 41.1802 48.5026 41.0352 48.1401C40.7452 47.8501 40.3102 47.7051 39.9477 47.9226Z" fill="white"/>
<path d="M8.77463 37.4825C8.62963 37.12 8.19463 36.975 7.83213 37.12C7.46963 37.265 7.32463 37.7 7.46963 38.0625C7.83213 39.005 8.33963 39.9475 8.84713 40.8175C8.99213 41.035 9.20963 41.18 9.49963 41.18C9.64463 41.18 9.71713 41.18 9.86213 41.1075C10.2246 40.89 10.2971 40.455 10.1521 40.0925C9.57213 39.2225 9.13713 38.3525 8.77463 37.4825Z" fill="white"/>
<path d="M11.6732 42.4126C11.4557 42.1226 10.9482 42.0501 10.6582 42.2676C10.3682 42.4851 10.2957 42.9926 10.5132 43.2826C11.1657 44.0801 11.8182 44.8776 12.5432 45.6026C12.6882 45.7476 12.8332 45.8201 13.0507 45.8201C13.2682 45.8201 13.4132 45.7476 13.5582 45.6026C13.8482 45.3126 13.8482 44.8776 13.5582 44.5876C12.9057 43.8626 12.2532 43.1376 11.6732 42.4126Z" fill="white"/>
<path d="M34.7261 50.1701C33.7836 50.3876 32.8411 50.6051 31.8986 50.7501C31.5361 50.8226 31.2461 51.1851 31.2461 51.5476C31.3186 51.9101 31.6086 52.2001 31.9711 52.2001H32.0436C33.0586 52.0551 34.0736 51.8376 35.0161 51.6201C35.3786 51.5476 35.5961 51.1126 35.5236 50.7501C35.4511 50.2426 35.0886 50.0251 34.7261 50.1701Z" fill="white"/>
<path d="M23.3446 50.1699C22.4021 49.9524 21.5321 49.5899 20.6621 49.2274C20.2996 49.0824 19.8646 49.2274 19.7196 49.5899C19.5746 49.9524 19.7196 50.3874 20.0821 50.5324C21.0246 50.8949 21.9671 51.2574 22.9821 51.4749C23.0546 51.4749 23.1271 51.4749 23.1996 51.4749C23.4896 51.4749 23.7796 51.2574 23.9246 50.9674C23.9971 50.6774 23.7796 50.2424 23.3446 50.1699Z" fill="white"/>
<path d="M44.5129 44.4426C43.8604 45.0951 43.1354 45.7476 42.3379 46.3276C42.0479 46.5451 41.9754 47.0526 42.1929 47.3426C42.3379 47.5601 42.5554 47.6326 42.7729 47.6326C42.9179 47.6326 43.0629 47.5601 43.2079 47.4876C44.0054 46.8351 44.8029 46.1826 45.5279 45.4576C45.8179 45.1676 45.8179 44.7326 45.5279 44.4426C45.2379 44.1526 44.8029 44.1526 44.5129 44.4426Z" fill="white"/>
<path d="M18.1262 47.9949C17.3287 47.4874 16.5312 46.9799 15.7337 46.3999C15.4437 46.1824 14.9362 46.1824 14.7187 46.5449C14.5012 46.8349 14.5012 47.3424 14.8637 47.5599C15.6612 48.2124 16.5312 48.7199 17.4012 49.2274C17.5462 49.2999 17.6187 49.2999 17.7637 49.2999C17.9812 49.2999 18.2712 49.1549 18.4162 48.9374C18.5612 48.6474 18.4162 48.2124 18.1262 47.9949Z" fill="white"/>
<path d="M23.129 7.90256C23.2015 7.90256 23.274 7.90256 23.3465 7.90256C24.289 7.68506 25.2315 7.46756 26.174 7.32256C26.5365 7.25006 26.8265 6.88756 26.8265 6.52506C26.754 6.16256 26.3915 5.87256 26.029 5.87256C25.014 6.01756 23.999 6.23506 23.0565 6.45256C22.694 6.52506 22.4765 6.96006 22.549 7.32256C22.4765 7.68506 22.7665 7.90256 23.129 7.90256Z" fill="white"/>
<path d="M51.0399 34.0749C50.6774 34.0024 50.2424 34.2199 50.1699 34.5824C49.9524 35.5249 49.5899 36.3949 49.2274 37.2649C49.0824 37.6274 49.2274 38.0624 49.5899 38.2074C49.6624 38.2799 49.8074 38.2799 49.8799 38.2799C50.1699 38.2799 50.4599 38.1349 50.5324 37.8449C50.8949 36.9024 51.2574 35.9599 51.4749 34.9449C51.6199 34.5824 51.4024 34.2199 51.0399 34.0749Z" fill="white"/>
<path d="M17.6192 10.1499C17.7642 10.1499 17.8367 10.1499 17.9817 10.0774C18.7792 9.5699 19.6492 9.2074 20.5192 8.8449C20.8817 8.6999 21.0992 8.2649 20.8817 7.9024C20.7367 7.5399 20.3017 7.3224 19.9392 7.5399C18.9967 7.9024 18.0542 8.4099 17.1842 8.9174C16.8217 9.1349 16.7492 9.5699 16.8942 9.9324C17.1842 10.0049 17.4017 10.1499 17.6192 10.1499Z" fill="white"/>
<path d="M51.6194 28.2749C51.1844 28.2749 50.8944 28.6374 50.8944 28.9999C50.8944 29.9424 50.8219 30.8849 50.7494 31.8274C50.6769 32.1899 50.9669 32.5524 51.4019 32.6249H51.4744C51.8369 32.6249 52.1269 32.3349 52.1994 31.9724C52.3444 30.9574 52.4169 29.9424 52.4169 28.9274H51.6919H52.4169C52.3444 28.5649 51.9819 28.2749 51.6194 28.2749Z" fill="white"/>
<path d="M48.9381 39.6574C48.5756 39.4399 48.1406 39.5849 47.9231 39.9474C47.4156 40.7449 46.9081 41.5424 46.3281 42.3399C46.1106 42.6299 46.1106 43.1374 46.4731 43.3549C46.6181 43.4274 46.7631 43.4999 46.9081 43.4999C47.1256 43.4999 47.3431 43.4274 47.4881 43.2099C48.1406 42.4124 48.6481 41.5424 49.1556 40.6724C49.4456 40.3099 49.3006 39.8024 48.9381 39.6574Z" fill="white"/>
<path d="M7.83078 34.7276C7.61328 33.7851 7.39578 32.8426 7.25078 31.9001C7.17828 31.5376 6.81578 31.2476 6.45328 31.2476C6.09078 31.3201 5.80078 31.6826 5.80078 32.0451C5.94578 33.0601 6.16328 34.0751 6.38078 35.0176C6.45328 35.3076 6.74328 35.5251 7.10578 35.5251C7.17828 35.5251 7.25078 35.5251 7.32328 35.5251C7.68578 35.5251 7.97578 35.1626 7.83078 34.7276Z" fill="white"/>
<path d="M29 58C45.0225 58 58 45.0225 58 29C58 12.9775 45.0225 0 29 0C12.9775 0 0 12.9775 0 29C0 45.0225 12.9775 58 29 58ZM29 1.45C44.225 1.45 56.55 13.775 56.55 29C56.55 44.225 44.225 56.55 29 56.55C13.775 56.55 1.45 44.225 1.45 29C1.45 13.775 13.775 1.45 29 1.45Z" fill="white"/>
<path d="M28.2755 42.63V45.7475C28.2755 46.1825 28.5655 46.4725 29.0005 46.4725C29.4355 46.4725 29.7255 46.1825 29.7255 45.7475V42.63C35.453 42.2675 40.0205 37.265 40.0205 31.2475C40.0205 23.1275 29.943 13.1225 29.508 12.76C29.218 12.47 28.783 12.47 28.493 12.76C28.058 13.195 17.9805 22.8375 17.9805 31.2475C17.9805 37.3375 22.548 42.2675 28.2755 42.63ZM19.4305 31.32C19.4305 30.8125 19.503 30.305 19.5755 29.725L28.2755 37.99V41.18C23.3455 40.8175 19.4305 36.54 19.4305 31.32ZM22.3305 22.6925L28.2755 28.275V35.96L19.938 27.985C20.4455 26.245 21.3155 24.4325 22.3305 22.6925ZM38.063 28.0575L29.7255 36.0325V28.3475L35.598 22.765C36.613 24.505 37.5555 26.3175 38.063 28.0575ZM29.7255 26.3175V15.08C30.958 16.4575 32.988 18.7775 34.8005 21.46L29.7255 26.3175ZM29.7255 41.18V37.99L38.4255 29.725C38.498 30.2325 38.5705 30.8125 38.5705 31.32C38.5705 36.54 34.6555 40.8175 29.7255 41.18ZM28.2755 15.08V26.3175L23.128 21.46C24.9405 18.705 26.9705 16.385 28.2755 15.08Z" fill="white"/>
</svg>
