<svg width="267" height="35" viewBox="0 0 267 35" fill="none" xmlns="http://www.w3.org/2000/svg">
<path d="M79.034 16.142C79.31 16.142 79.532 16.226 79.7 16.394C79.868 16.55 79.952 16.76 79.952 17.024V20.894C79.952 21.446 79.88 21.836 79.736 22.064C79.592 22.292 79.298 22.478 78.854 22.622C78.374 22.79 77.816 22.922 77.18 23.018C76.544 23.114 75.932 23.162 75.344 23.162C74.036 23.162 72.902 22.904 71.942 22.388C70.982 21.872 70.244 21.128 69.728 20.156C69.224 19.172 68.972 18.002 68.972 16.646C68.972 15.314 69.224 14.162 69.728 13.19C70.244 12.206 70.97 11.456 71.906 10.94C72.842 10.412 73.946 10.148 75.218 10.148C76.91 10.148 78.296 10.604 79.376 11.516C79.52 11.648 79.622 11.78 79.682 11.912C79.754 12.044 79.79 12.2 79.79 12.38C79.79 12.644 79.718 12.866 79.574 13.046C79.43 13.226 79.256 13.316 79.052 13.316C78.92 13.316 78.8 13.298 78.692 13.262C78.584 13.214 78.458 13.142 78.314 13.046C77.786 12.674 77.294 12.416 76.838 12.272C76.382 12.116 75.866 12.038 75.29 12.038C73.982 12.038 72.992 12.428 72.32 13.208C71.66 13.976 71.33 15.122 71.33 16.646C71.33 19.766 72.698 21.326 75.434 21.326C76.25 21.326 77.066 21.212 77.882 20.984V17.798H75.848C75.56 17.798 75.332 17.726 75.164 17.582C75.008 17.438 74.93 17.234 74.93 16.97C74.93 16.706 75.008 16.502 75.164 16.358C75.332 16.214 75.56 16.142 75.848 16.142H79.034ZM86.3852 23.144C85.4852 23.144 84.6932 22.958 84.0092 22.586C83.3372 22.214 82.8152 21.68 82.4432 20.984C82.0712 20.288 81.8852 19.478 81.8852 18.554C81.8852 17.63 82.0712 16.826 82.4432 16.142C82.8152 15.446 83.3372 14.912 84.0092 14.54C84.6932 14.168 85.4852 13.982 86.3852 13.982C87.2852 13.982 88.0712 14.168 88.7432 14.54C89.4272 14.912 89.9492 15.446 90.3092 16.142C90.6812 16.826 90.8672 17.63 90.8672 18.554C90.8672 19.478 90.6812 20.288 90.3092 20.984C89.9492 21.68 89.4272 22.214 88.7432 22.586C88.0712 22.958 87.2852 23.144 86.3852 23.144ZM86.3672 21.398C87.0992 21.398 87.6572 21.158 88.0412 20.678C88.4252 20.198 88.6172 19.49 88.6172 18.554C88.6172 17.63 88.4252 16.928 88.0412 16.448C87.6572 15.956 87.1052 15.71 86.3852 15.71C85.6652 15.71 85.1072 15.956 84.7112 16.448C84.3272 16.928 84.1352 17.63 84.1352 18.554C84.1352 19.49 84.3272 20.198 84.7112 20.678C85.0952 21.158 85.6472 21.398 86.3672 21.398ZM96.7387 23.144C95.8387 23.144 95.0467 22.958 94.3627 22.586C93.6907 22.214 93.1687 21.68 92.7967 20.984C92.4247 20.288 92.2387 19.478 92.2387 18.554C92.2387 17.63 92.4247 16.826 92.7967 16.142C93.1687 15.446 93.6907 14.912 94.3627 14.54C95.0467 14.168 95.8387 13.982 96.7387 13.982C97.6387 13.982 98.4247 14.168 99.0967 14.54C99.7807 14.912 100.303 15.446 100.663 16.142C101.035 16.826 101.221 17.63 101.221 18.554C101.221 19.478 101.035 20.288 100.663 20.984C100.303 21.68 99.7807 22.214 99.0967 22.586C98.4247 22.958 97.6387 23.144 96.7387 23.144ZM96.7207 21.398C97.4527 21.398 98.0107 21.158 98.3947 20.678C98.7787 20.198 98.9707 19.49 98.9707 18.554C98.9707 17.63 98.7787 16.928 98.3947 16.448C98.0107 15.956 97.4587 15.71 96.7387 15.71C96.0187 15.71 95.4607 15.956 95.0647 16.448C94.6807 16.928 94.4887 17.63 94.4887 18.554C94.4887 19.49 94.6807 20.198 95.0647 20.678C95.4487 21.158 96.0007 21.398 96.7207 21.398ZM110.422 10.22C110.758 10.22 111.034 10.316 111.25 10.508C111.466 10.7 111.574 10.952 111.574 11.264V22.028C111.574 22.352 111.472 22.61 111.268 22.802C111.064 22.994 110.794 23.09 110.458 23.09C110.122 23.09 109.852 22.994 109.648 22.802C109.444 22.61 109.342 22.352 109.342 22.028V21.578C109.078 22.07 108.694 22.454 108.19 22.73C107.698 23.006 107.134 23.144 106.498 23.144C105.742 23.144 105.064 22.952 104.464 22.568C103.876 22.184 103.414 21.644 103.078 20.948C102.754 20.24 102.592 19.43 102.592 18.518C102.592 17.606 102.754 16.808 103.078 16.124C103.414 15.44 103.876 14.912 104.464 14.54C105.052 14.168 105.73 13.982 106.498 13.982C107.134 13.982 107.698 14.114 108.19 14.378C108.682 14.642 109.06 15.014 109.324 15.494V11.228C109.324 10.928 109.42 10.688 109.612 10.508C109.816 10.316 110.086 10.22 110.422 10.22ZM107.092 21.398C107.812 21.398 108.364 21.152 108.748 20.66C109.144 20.168 109.342 19.466 109.342 18.554C109.342 17.642 109.144 16.946 108.748 16.466C108.364 15.974 107.818 15.728 107.11 15.728C106.39 15.728 105.832 15.968 105.436 16.448C105.04 16.928 104.842 17.618 104.842 18.518C104.842 19.43 105.04 20.138 105.436 20.642C105.832 21.146 106.384 21.398 107.092 21.398ZM130.475 21.614C130.547 21.77 130.583 21.926 130.583 22.082C130.583 22.358 130.469 22.592 130.241 22.784C130.025 22.976 129.773 23.072 129.485 23.072C129.293 23.072 129.113 23.024 128.945 22.928C128.777 22.82 128.645 22.658 128.549 22.442L127.469 20.03H121.133L120.053 22.442C119.957 22.658 119.825 22.82 119.657 22.928C119.489 23.024 119.303 23.072 119.099 23.072C118.823 23.072 118.571 22.976 118.343 22.784C118.115 22.592 118.001 22.358 118.001 22.082C118.001 21.926 118.037 21.77 118.109 21.614L123.077 10.94C123.185 10.7 123.347 10.52 123.563 10.4C123.791 10.268 124.031 10.202 124.283 10.202C124.535 10.202 124.769 10.268 124.985 10.4C125.213 10.52 125.381 10.7 125.489 10.94L130.475 21.614ZM121.925 18.23H126.677L124.301 12.884L121.925 18.23ZM137.247 13.982C138.303 13.982 139.089 14.282 139.605 14.882C140.121 15.482 140.379 16.388 140.379 17.6V22.028C140.379 22.364 140.277 22.628 140.073 22.82C139.881 23.012 139.611 23.108 139.263 23.108C138.915 23.108 138.639 23.012 138.435 22.82C138.231 22.628 138.129 22.364 138.129 22.028V17.726C138.129 17.042 137.997 16.544 137.733 16.232C137.481 15.92 137.079 15.764 136.527 15.764C135.879 15.764 135.357 15.968 134.961 16.376C134.577 16.784 134.385 17.33 134.385 18.014V22.028C134.385 22.364 134.283 22.628 134.079 22.82C133.875 23.012 133.599 23.108 133.251 23.108C132.903 23.108 132.627 23.012 132.423 22.82C132.231 22.628 132.135 22.364 132.135 22.028V15.062C132.135 14.75 132.237 14.498 132.441 14.306C132.645 14.114 132.921 14.018 133.269 14.018C133.581 14.018 133.833 14.114 134.025 14.306C134.229 14.486 134.331 14.726 134.331 15.026V15.512C134.631 15.02 135.033 14.642 135.537 14.378C136.041 14.114 136.611 13.982 137.247 13.982ZM146.57 23.144C145.694 23.144 144.92 22.958 144.248 22.586C143.588 22.214 143.078 21.686 142.718 21.002C142.358 20.318 142.178 19.52 142.178 18.608C142.178 17.696 142.364 16.892 142.736 16.196C143.12 15.488 143.654 14.942 144.338 14.558C145.022 14.174 145.808 13.982 146.696 13.982C147.164 13.982 147.632 14.048 148.1 14.18C148.58 14.312 149 14.492 149.36 14.72C149.744 14.972 149.936 15.29 149.936 15.674C149.936 15.938 149.87 16.154 149.738 16.322C149.618 16.478 149.456 16.556 149.252 16.556C149.12 16.556 148.982 16.526 148.838 16.466C148.694 16.406 148.55 16.334 148.406 16.25C148.142 16.094 147.89 15.974 147.65 15.89C147.41 15.794 147.134 15.746 146.822 15.746C146.078 15.746 145.502 15.992 145.094 16.484C144.698 16.964 144.5 17.66 144.5 18.572C144.5 19.472 144.698 20.168 145.094 20.66C145.502 21.14 146.078 21.38 146.822 21.38C147.122 21.38 147.386 21.338 147.614 21.254C147.854 21.158 148.118 21.032 148.406 20.876C148.586 20.768 148.742 20.69 148.874 20.642C149.006 20.582 149.138 20.552 149.27 20.552C149.462 20.552 149.624 20.636 149.756 20.804C149.888 20.972 149.954 21.182 149.954 21.434C149.954 21.638 149.906 21.818 149.81 21.974C149.726 22.118 149.582 22.25 149.378 22.37C149.006 22.61 148.574 22.802 148.082 22.946C147.59 23.078 147.086 23.144 146.57 23.144ZM158.419 20.588C158.623 20.588 158.785 20.666 158.905 20.822C159.037 20.978 159.103 21.188 159.103 21.452C159.103 21.824 158.881 22.136 158.437 22.388C158.029 22.616 157.567 22.802 157.051 22.946C156.535 23.078 156.043 23.144 155.575 23.144C154.159 23.144 153.037 22.736 152.209 21.92C151.381 21.104 150.967 19.988 150.967 18.572C150.967 17.672 151.147 16.874 151.507 16.178C151.867 15.482 152.371 14.942 153.019 14.558C153.679 14.174 154.423 13.982 155.251 13.982C156.043 13.982 156.733 14.156 157.321 14.504C157.909 14.852 158.365 15.344 158.689 15.98C159.013 16.616 159.175 17.366 159.175 18.23C159.175 18.746 158.947 19.004 158.491 19.004H153.181C153.253 19.832 153.487 20.444 153.883 20.84C154.279 21.224 154.855 21.416 155.611 21.416C155.995 21.416 156.331 21.368 156.619 21.272C156.919 21.176 157.255 21.044 157.627 20.876C157.987 20.684 158.251 20.588 158.419 20.588ZM155.305 15.566C154.693 15.566 154.201 15.758 153.829 16.142C153.469 16.526 153.253 17.078 153.181 17.798H157.249C157.225 17.066 157.045 16.514 156.709 16.142C156.373 15.758 155.905 15.566 155.305 15.566ZM164.202 23.144C162.894 23.144 161.838 22.886 161.034 22.37C160.65 22.142 160.458 21.818 160.458 21.398C160.458 21.158 160.524 20.966 160.656 20.822C160.788 20.666 160.95 20.588 161.142 20.588C161.346 20.588 161.628 20.684 161.988 20.876C162.372 21.056 162.72 21.194 163.032 21.29C163.356 21.386 163.764 21.434 164.256 21.434C164.76 21.434 165.15 21.35 165.426 21.182C165.714 21.014 165.858 20.78 165.858 20.48C165.858 20.276 165.798 20.114 165.678 19.994C165.57 19.874 165.366 19.766 165.066 19.67C164.778 19.562 164.334 19.442 163.734 19.31C162.666 19.094 161.898 18.788 161.43 18.392C160.974 17.996 160.746 17.45 160.746 16.754C160.746 16.226 160.902 15.752 161.214 15.332C161.526 14.9 161.952 14.57 162.492 14.342C163.044 14.102 163.668 13.982 164.364 13.982C164.868 13.982 165.354 14.048 165.822 14.18C166.29 14.3 166.71 14.48 167.082 14.72C167.466 14.96 167.658 15.278 167.658 15.674C167.658 15.914 167.592 16.118 167.46 16.286C167.328 16.442 167.166 16.52 166.974 16.52C166.842 16.52 166.71 16.496 166.578 16.448C166.458 16.388 166.302 16.304 166.11 16.196C165.762 16.016 165.462 15.884 165.21 15.8C164.958 15.704 164.646 15.656 164.274 15.656C163.83 15.656 163.476 15.746 163.212 15.926C162.96 16.106 162.834 16.352 162.834 16.664C162.834 16.964 162.966 17.192 163.23 17.348C163.494 17.504 164.004 17.66 164.76 17.816C165.564 17.984 166.194 18.176 166.65 18.392C167.106 18.608 167.43 18.878 167.622 19.202C167.826 19.526 167.928 19.94 167.928 20.444C167.928 21.26 167.586 21.914 166.902 22.406C166.23 22.898 165.33 23.144 164.202 23.144ZM174.236 21.434C174.836 21.47 175.136 21.74 175.136 22.244C175.136 22.532 175.016 22.754 174.776 22.91C174.548 23.054 174.218 23.114 173.786 23.09L173.3 23.054C171.284 22.91 170.276 21.83 170.276 19.814V15.89H169.376C169.052 15.89 168.8 15.818 168.62 15.674C168.452 15.53 168.368 15.32 168.368 15.044C168.368 14.768 168.452 14.558 168.62 14.414C168.8 14.27 169.052 14.198 169.376 14.198H170.276V12.542C170.276 12.218 170.378 11.96 170.582 11.768C170.786 11.576 171.062 11.48 171.41 11.48C171.746 11.48 172.016 11.576 172.22 11.768C172.424 11.96 172.526 12.218 172.526 12.542V14.198H174.056C174.38 14.198 174.626 14.27 174.794 14.414C174.974 14.558 175.064 14.768 175.064 15.044C175.064 15.32 174.974 15.53 174.794 15.674C174.626 15.818 174.38 15.89 174.056 15.89H172.526V19.976C172.526 20.864 172.934 21.338 173.75 21.398L174.236 21.434ZM180.323 23.144C179.423 23.144 178.631 22.958 177.947 22.586C177.275 22.214 176.753 21.68 176.381 20.984C176.009 20.288 175.823 19.478 175.823 18.554C175.823 17.63 176.009 16.826 176.381 16.142C176.753 15.446 177.275 14.912 177.947 14.54C178.631 14.168 179.423 13.982 180.323 13.982C181.223 13.982 182.009 14.168 182.681 14.54C183.365 14.912 183.887 15.446 184.247 16.142C184.619 16.826 184.805 17.63 184.805 18.554C184.805 19.478 184.619 20.288 184.247 20.984C183.887 21.68 183.365 22.214 182.681 22.586C182.009 22.958 181.223 23.144 180.323 23.144ZM180.305 21.398C181.037 21.398 181.595 21.158 181.979 20.678C182.363 20.198 182.555 19.49 182.555 18.554C182.555 17.63 182.363 16.928 181.979 16.448C181.595 15.956 181.043 15.71 180.323 15.71C179.603 15.71 179.045 15.956 178.649 16.448C178.265 16.928 178.073 17.63 178.073 18.554C178.073 19.49 178.265 20.198 178.649 20.678C179.033 21.158 179.585 21.398 180.305 21.398ZM191.576 14.018C191.888 13.994 192.134 14.06 192.314 14.216C192.494 14.372 192.584 14.606 192.584 14.918C192.584 15.242 192.506 15.482 192.35 15.638C192.194 15.794 191.912 15.896 191.504 15.944L190.964 15.998C190.256 16.07 189.734 16.31 189.398 16.718C189.074 17.126 188.912 17.636 188.912 18.248V22.028C188.912 22.376 188.804 22.646 188.588 22.838C188.372 23.018 188.102 23.108 187.778 23.108C187.454 23.108 187.184 23.018 186.968 22.838C186.764 22.646 186.662 22.376 186.662 22.028V15.062C186.662 14.726 186.764 14.468 186.968 14.288C187.184 14.108 187.448 14.018 187.76 14.018C188.072 14.018 188.324 14.108 188.516 14.288C188.708 14.456 188.804 14.702 188.804 15.026V15.746C189.032 15.218 189.368 14.81 189.812 14.522C190.268 14.234 190.772 14.072 191.324 14.036L191.576 14.018ZM208.79 21.542C208.934 21.758 209.006 21.968 209.006 22.172C209.006 22.448 208.892 22.676 208.664 22.856C208.448 23.036 208.19 23.126 207.89 23.126C207.698 23.126 207.512 23.084 207.332 23C207.164 22.904 207.02 22.766 206.9 22.586L204.506 18.95C204.266 18.566 204.008 18.296 203.732 18.14C203.468 17.984 203.12 17.906 202.688 17.906H200.924V21.938C200.924 22.298 200.822 22.586 200.618 22.802C200.414 23.006 200.138 23.108 199.79 23.108C199.442 23.108 199.16 23.006 198.944 22.802C198.74 22.586 198.638 22.298 198.638 21.938V11.408C198.638 11.06 198.734 10.79 198.926 10.598C199.13 10.406 199.406 10.31 199.754 10.31H204.254C205.694 10.31 206.786 10.634 207.53 11.282C208.286 11.918 208.664 12.842 208.664 14.054C208.664 15.038 208.382 15.848 207.818 16.484C207.266 17.108 206.48 17.51 205.46 17.69C205.808 17.774 206.114 17.924 206.378 18.14C206.642 18.356 206.9 18.656 207.152 19.04L208.79 21.542ZM203.93 16.124C204.806 16.124 205.448 15.962 205.856 15.638C206.264 15.302 206.468 14.792 206.468 14.108C206.468 13.412 206.264 12.908 205.856 12.596C205.448 12.272 204.806 12.11 203.93 12.11H200.906V16.124H203.93ZM217.921 20.588C218.125 20.588 218.287 20.666 218.407 20.822C218.539 20.978 218.605 21.188 218.605 21.452C218.605 21.824 218.383 22.136 217.939 22.388C217.531 22.616 217.069 22.802 216.553 22.946C216.037 23.078 215.545 23.144 215.077 23.144C213.661 23.144 212.539 22.736 211.711 21.92C210.883 21.104 210.469 19.988 210.469 18.572C210.469 17.672 210.649 16.874 211.009 16.178C211.369 15.482 211.873 14.942 212.521 14.558C213.181 14.174 213.925 13.982 214.753 13.982C215.545 13.982 216.235 14.156 216.823 14.504C217.411 14.852 217.867 15.344 218.191 15.98C218.515 16.616 218.677 17.366 218.677 18.23C218.677 18.746 218.449 19.004 217.993 19.004H212.683C212.755 19.832 212.989 20.444 213.385 20.84C213.781 21.224 214.357 21.416 215.113 21.416C215.497 21.416 215.833 21.368 216.121 21.272C216.421 21.176 216.757 21.044 217.129 20.876C217.489 20.684 217.753 20.588 217.921 20.588ZM214.807 15.566C214.195 15.566 213.703 15.758 213.331 16.142C212.971 16.526 212.755 17.078 212.683 17.798H216.751C216.727 17.066 216.547 16.514 216.211 16.142C215.875 15.758 215.407 15.566 214.807 15.566ZM227.97 14.018C228.306 14.018 228.576 14.114 228.78 14.306C228.984 14.498 229.086 14.756 229.086 15.08V22.19C229.086 23.57 228.702 24.614 227.934 25.322C227.166 26.03 226.032 26.384 224.532 26.384C223.224 26.384 222.132 26.138 221.256 25.646C220.812 25.382 220.59 25.064 220.59 24.692C220.59 24.428 220.65 24.218 220.77 24.062C220.902 23.906 221.07 23.828 221.274 23.828C221.382 23.828 221.514 23.852 221.67 23.9C221.826 23.96 221.988 24.026 222.156 24.098C222.588 24.278 222.972 24.416 223.308 24.512C223.656 24.608 224.052 24.656 224.496 24.656C226.068 24.656 226.854 23.888 226.854 22.352V21.2C226.59 21.692 226.206 22.076 225.702 22.352C225.198 22.616 224.622 22.748 223.974 22.748C223.206 22.748 222.522 22.568 221.922 22.208C221.334 21.836 220.872 21.32 220.536 20.66C220.2 20 220.032 19.238 220.032 18.374C220.032 17.51 220.194 16.748 220.518 16.088C220.854 15.416 221.322 14.9 221.922 14.54C222.522 14.168 223.206 13.982 223.974 13.982C224.622 13.982 225.198 14.12 225.702 14.396C226.206 14.66 226.59 15.038 226.854 15.53V15.062C226.854 14.75 226.956 14.498 227.16 14.306C227.364 14.114 227.634 14.018 227.97 14.018ZM224.568 21.002C225.288 21.002 225.846 20.768 226.242 20.3C226.65 19.832 226.854 19.19 226.854 18.374C226.854 17.546 226.65 16.898 226.242 16.43C225.846 15.962 225.288 15.728 224.568 15.728C223.86 15.728 223.302 15.962 222.894 16.43C222.486 16.898 222.282 17.546 222.282 18.374C222.282 19.19 222.486 19.832 222.894 20.3C223.302 20.768 223.86 21.002 224.568 21.002ZM232.532 23.108C232.208 23.108 231.938 23.018 231.722 22.838C231.518 22.646 231.416 22.376 231.416 22.028V15.08C231.416 14.732 231.518 14.468 231.722 14.288C231.938 14.108 232.208 14.018 232.532 14.018C232.856 14.018 233.126 14.108 233.342 14.288C233.558 14.468 233.666 14.732 233.666 15.08V22.028C233.666 22.376 233.558 22.646 233.342 22.838C233.126 23.018 232.856 23.108 232.532 23.108ZM232.532 12.416C232.124 12.416 231.8 12.308 231.56 12.092C231.32 11.864 231.2 11.57 231.2 11.21C231.2 10.85 231.32 10.562 231.56 10.346C231.8 10.13 232.124 10.022 232.532 10.022C232.928 10.022 233.246 10.13 233.486 10.346C233.738 10.562 233.864 10.85 233.864 11.21C233.864 11.57 233.744 11.864 233.504 12.092C233.264 12.308 232.94 12.416 232.532 12.416ZM239.172 23.144C237.864 23.144 236.808 22.886 236.004 22.37C235.62 22.142 235.428 21.818 235.428 21.398C235.428 21.158 235.494 20.966 235.626 20.822C235.758 20.666 235.92 20.588 236.112 20.588C236.316 20.588 236.598 20.684 236.958 20.876C237.342 21.056 237.69 21.194 238.002 21.29C238.326 21.386 238.734 21.434 239.226 21.434C239.73 21.434 240.12 21.35 240.396 21.182C240.684 21.014 240.828 20.78 240.828 20.48C240.828 20.276 240.768 20.114 240.648 19.994C240.54 19.874 240.336 19.766 240.036 19.67C239.748 19.562 239.304 19.442 238.704 19.31C237.636 19.094 236.868 18.788 236.4 18.392C235.944 17.996 235.716 17.45 235.716 16.754C235.716 16.226 235.872 15.752 236.184 15.332C236.496 14.9 236.922 14.57 237.462 14.342C238.014 14.102 238.638 13.982 239.334 13.982C239.838 13.982 240.324 14.048 240.792 14.18C241.26 14.3 241.68 14.48 242.052 14.72C242.436 14.96 242.628 15.278 242.628 15.674C242.628 15.914 242.562 16.118 242.43 16.286C242.298 16.442 242.136 16.52 241.944 16.52C241.812 16.52 241.68 16.496 241.548 16.448C241.428 16.388 241.272 16.304 241.08 16.196C240.732 16.016 240.432 15.884 240.18 15.8C239.928 15.704 239.616 15.656 239.244 15.656C238.8 15.656 238.446 15.746 238.182 15.926C237.93 16.106 237.804 16.352 237.804 16.664C237.804 16.964 237.936 17.192 238.2 17.348C238.464 17.504 238.974 17.66 239.73 17.816C240.534 17.984 241.164 18.176 241.62 18.392C242.076 18.608 242.4 18.878 242.592 19.202C242.796 19.526 242.898 19.94 242.898 20.444C242.898 21.26 242.556 21.914 241.872 22.406C241.2 22.898 240.3 23.144 239.172 23.144ZM249.207 21.434C249.807 21.47 250.107 21.74 250.107 22.244C250.107 22.532 249.987 22.754 249.747 22.91C249.519 23.054 249.189 23.114 248.757 23.09L248.271 23.054C246.255 22.91 245.247 21.83 245.247 19.814V15.89H244.347C244.023 15.89 243.771 15.818 243.591 15.674C243.423 15.53 243.339 15.32 243.339 15.044C243.339 14.768 243.423 14.558 243.591 14.414C243.771 14.27 244.023 14.198 244.347 14.198H245.247V12.542C245.247 12.218 245.349 11.96 245.553 11.768C245.757 11.576 246.033 11.48 246.381 11.48C246.717 11.48 246.987 11.576 247.191 11.768C247.395 11.96 247.497 12.218 247.497 12.542V14.198H249.027C249.351 14.198 249.597 14.27 249.765 14.414C249.945 14.558 250.035 14.768 250.035 15.044C250.035 15.32 249.945 15.53 249.765 15.674C249.597 15.818 249.351 15.89 249.027 15.89H247.497V19.976C247.497 20.864 247.905 21.338 248.721 21.398L249.207 21.434ZM256.193 14.018C256.505 13.994 256.751 14.06 256.931 14.216C257.111 14.372 257.201 14.606 257.201 14.918C257.201 15.242 257.123 15.482 256.967 15.638C256.811 15.794 256.529 15.896 256.121 15.944L255.581 15.998C254.873 16.07 254.351 16.31 254.015 16.718C253.691 17.126 253.529 17.636 253.529 18.248V22.028C253.529 22.376 253.421 22.646 253.205 22.838C252.989 23.018 252.719 23.108 252.395 23.108C252.071 23.108 251.801 23.018 251.585 22.838C251.381 22.646 251.279 22.376 251.279 22.028V15.062C251.279 14.726 251.381 14.468 251.585 14.288C251.801 14.108 252.065 14.018 252.377 14.018C252.689 14.018 252.941 14.108 253.133 14.288C253.325 14.456 253.421 14.702 253.421 15.026V15.746C253.649 15.218 253.985 14.81 254.429 14.522C254.885 14.234 255.389 14.072 255.941 14.036L256.193 14.018ZM264.853 14.666C264.949 14.45 265.075 14.294 265.231 14.198C265.399 14.09 265.579 14.036 265.771 14.036C266.047 14.036 266.293 14.132 266.509 14.324C266.737 14.504 266.851 14.732 266.851 15.008C266.851 15.14 266.815 15.278 266.743 15.422L261.829 25.718C261.625 26.126 261.307 26.33 260.875 26.33C260.599 26.33 260.353 26.24 260.137 26.06C259.933 25.892 259.831 25.676 259.831 25.412C259.831 25.28 259.867 25.13 259.939 24.962L261.163 22.388L257.815 15.422C257.755 15.302 257.725 15.164 257.725 15.008C257.725 14.732 257.839 14.498 258.067 14.306C258.307 14.114 258.577 14.018 258.877 14.018C259.081 14.018 259.267 14.072 259.435 14.18C259.603 14.276 259.735 14.432 259.831 14.648L262.351 20.21L264.853 14.666Z" fill="#2F2E41"/>
<path d="M25.0464 16.6814C25.0464 17.6502 24.8304 18.522 24.3591 19.3067C23.9075 20.072 23.2693 20.7016 22.4151 21.2247L15.7387 25.0318C15.6896 25.0609 15.6601 25.0609 15.6012 25.0803C15.0907 25.3128 14.639 25.4968 14.1677 25.6034V32.7719H35.5617V27.8121C35.2377 27.7346 34.9235 27.5989 34.5799 27.4149C32.9304 26.5237 31.1435 25.4968 29.5235 24.5281C28.8068 24.1115 28.2962 23.6078 27.9231 23.0072C27.5795 22.3775 27.3929 21.6897 27.3929 20.876V15.1799C27.3929 14.3371 27.6089 13.659 27.982 13.0293C28.3551 12.4481 28.8559 11.9541 29.5039 11.5569C29.5333 11.5278 29.553 11.5084 29.6119 11.5084L34.5308 8.67008L34.6094 8.64102C35.3261 8.2729 35.9937 8.08885 36.681 8.08885C37.3977 8.08885 38.0654 8.2729 38.8116 8.64102L43.8385 11.5278C44.5258 11.925 45.0658 12.419 45.4389 13.0487C45.812 13.6784 45.9985 14.3856 45.9985 15.1799V20.9051C45.9985 21.6704 45.7825 22.3775 45.4094 23.0072C45.0658 23.6078 44.5356 24.1115 43.868 24.5281L38.8312 27.3955C38.8018 27.4246 38.7527 27.4439 38.7232 27.4439C38.3992 27.5989 38.1145 27.7346 37.7905 27.8121V32.7719H45.8807C46.4894 32.7719 47 33.2757 47 33.8763C47 34.4769 46.4894 34.9806 45.8807 34.9806H1.11928C0.510549 34.9806 0 34.4769 0 33.8763C0 33.2757 0.510549 32.7719 1.11928 32.7719H11.9292V25.6034C11.4186 25.4968 10.9474 25.3128 10.4074 25.0512C8.19825 23.8694 5.80259 22.5035 3.67203 21.2151C2.76875 20.6629 2.13056 20.0332 1.67892 19.2679C1.22728 18.5026 1.01128 17.6695 1.01128 16.6427V9.06726C1.01128 8.02104 1.27637 7.14918 1.72801 6.39358C2.17965 5.65735 2.84729 5.05674 3.64257 4.53363C3.67203 4.50457 3.69166 4.50457 3.75057 4.48519L10.3484 0.707169L10.427 0.678107C11.3303 0.232494 12.155 0 13.0386 0C13.9125 0 14.7667 0.213119 15.6699 0.707169L22.3856 4.49488C23.2595 4.99862 23.9271 5.62829 24.3787 6.38389C24.8304 7.16856 25.0464 8.05978 25.0464 9.05757C25.0464 9.06726 25.0464 16.6814 25.0464 16.6814ZM32.5181 17.9698C31.9879 17.6792 31.8013 17.0011 32.1155 16.4683C32.4101 15.9452 33.0973 15.7611 33.6374 16.0711L35.5519 17.1464V14.9377C35.5519 14.3081 36.0625 13.8043 36.6712 13.8043C37.3094 13.8043 37.7905 14.3081 37.7905 14.9377V20.8179L39.7345 19.7135C40.2647 19.4229 40.9323 19.5779 41.2563 20.1107C41.5803 20.6629 41.3938 21.3216 40.8538 21.6316L37.7905 23.3656V25.4387L42.6898 22.6585C43.0629 22.426 43.328 22.1838 43.4851 21.8932C43.6422 21.6025 43.7207 21.2926 43.7207 20.8954V15.1702C43.7207 14.773 43.6422 14.4049 43.4851 14.1434C43.328 13.8528 43.0629 13.6203 42.7094 13.4071L37.7316 10.5688C37.329 10.3847 36.9854 10.2782 36.6908 10.2782C36.3668 10.2782 36.0232 10.3847 35.601 10.5978L30.7017 13.3781C30.3286 13.6106 30.034 13.8818 29.877 14.1627C29.6904 14.4243 29.6119 14.744 29.6119 15.1605V20.8566C29.6119 21.2732 29.6904 21.6219 29.8475 21.8835C30.0046 22.145 30.2697 22.4066 30.6722 22.6488L35.5421 25.429V19.6748L32.5181 17.9698ZM7.66806 12.4578C7.13787 12.1672 6.95133 11.4891 7.26551 10.9563C7.58951 10.4332 8.24734 10.2491 8.78734 10.5591L11.9292 12.3415V8.7282C11.9292 8.12759 12.4397 7.62386 13.0485 7.62386C13.6572 7.62386 14.1677 8.12759 14.1677 8.7282V17.2336L17.2801 15.4511C17.8103 15.1315 18.5074 15.3155 18.8216 15.8483C19.1161 16.3714 18.9296 17.0592 18.3994 17.3498L14.1677 19.762V23.3269C14.3052 23.2784 14.4623 23.1913 14.6194 23.1138L21.2467 19.3357C21.7769 19.0161 22.1794 18.6286 22.4445 18.1829C22.6802 17.7664 22.8176 17.2627 22.8176 16.6814V9.06726C22.8176 8.46665 22.7096 7.93385 22.4445 7.48824C22.2089 7.07169 21.8063 6.70357 21.2762 6.41295L14.6194 2.63493C14.0597 2.31525 13.5296 2.18932 13.0485 2.18932C12.5674 2.18932 12.0372 2.34431 11.4481 2.63493L4.86986 6.39358C4.31021 6.73263 3.90767 7.10075 3.64257 7.52699C3.37748 7.94354 3.24003 8.44727 3.24003 9.07694V16.6621C3.24003 17.2917 3.37748 17.7955 3.61312 18.1829C3.84876 18.6286 4.25131 18.9967 4.8404 19.3357L11.4677 23.1138C11.6248 23.1913 11.7623 23.2687 11.9194 23.3269V14.8699L7.66806 12.4578Z" fill="#6FCF97"/>
</svg>
