<svg width="187" height="44" viewBox="0 0 187 44" fill="none" xmlns="http://www.w3.org/2000/svg">
<g clip-path="url(#clip0)">
<path d="M56.1797 11.0476C56.1797 10.4125 56.2673 9.80696 56.428 9.21615C56.6033 8.62535 56.837 8.07886 57.1438 7.56191C57.4505 7.04496 57.8157 6.58708 58.2393 6.15875C58.6629 5.74519 59.1303 5.37594 59.6416 5.08054C60.1528 4.78514 60.6933 4.54882 61.2776 4.38634C61.8619 4.22387 62.4607 4.13525 63.0742 4.13525C63.4102 4.13525 63.7462 4.15002 64.0821 4.19433C64.4181 4.23864 64.7541 4.28295 65.09 4.3568C65.4114 4.41588 65.7327 4.48974 66.0249 4.56359C66.317 4.63744 66.58 4.71129 66.7991 4.77037C67.0182 4.82945 67.2081 4.88853 67.3395 4.93284C67.4856 4.97715 67.5586 4.99192 67.5732 4.99192H67.6901C67.7339 4.99192 67.7777 4.99192 67.807 4.97715C67.8362 4.96238 67.8654 4.96238 67.88 4.94761C67.8946 4.93284 67.9238 4.91807 67.953 4.91807C67.9822 4.9033 68.0115 4.9033 68.0699 4.9033H68.4497C68.4643 4.9033 68.4789 4.9033 68.5081 4.91807C68.5373 4.93284 68.5519 4.96238 68.5519 5.00669V8.15271C68.5519 8.22656 68.5227 8.27087 68.4643 8.30041C68.4059 8.32995 68.3474 8.34472 68.3036 8.34472C68.2452 8.34472 68.2014 8.30041 68.1575 8.2561C68.1137 8.19702 68.0699 8.13794 68.0407 8.06409C67.9968 7.99024 67.9676 7.93116 67.953 7.87208C67.9238 7.813 67.9092 7.76869 67.9092 7.72438C67.7485 7.23697 67.5294 6.8234 67.2519 6.48369C66.9744 6.14398 66.6384 5.87812 66.2586 5.65657C65.8788 5.44979 65.4552 5.28732 65.0024 5.1987C64.5496 5.11008 64.0675 5.051 63.5563 5.051C62.6945 5.051 61.9641 5.21347 61.3944 5.53841C60.8101 5.86335 60.3427 6.29168 59.9921 6.83817C59.6416 7.38467 59.3933 8.00501 59.2472 8.71397C59.1011 9.42293 59.0281 10.1614 59.0281 10.9442C59.0281 11.476 59.0865 12.0077 59.1888 12.5246C59.291 13.0416 59.4517 13.529 59.6416 13.9869C59.8315 14.4448 60.0798 14.8731 60.3573 15.2571C60.6349 15.6411 60.9562 15.9808 61.2922 16.2615C61.6428 16.5421 62.0079 16.7637 62.4169 16.9114C62.8259 17.0738 63.2495 17.1477 63.6877 17.1477C64.199 17.1477 64.6372 17.0886 65.017 16.9852C65.3968 16.8818 65.7035 16.6603 65.9519 16.3353V14.238C65.9519 13.9721 65.9226 13.721 65.8496 13.5142C65.7912 13.3075 65.6597 13.1302 65.4844 12.9825C65.3091 12.8348 65.0754 12.7314 64.7687 12.6576C64.4765 12.5837 64.0821 12.5394 63.6147 12.5394C63.5709 12.5394 63.5563 12.5099 63.5417 12.436C63.5271 12.3622 63.5125 12.3031 63.5125 12.2588C63.5125 12.2292 63.5271 12.1702 63.5417 12.0963C63.5563 12.0225 63.5855 11.9782 63.6147 11.9782H70.1149C70.1587 11.9782 70.1879 12.0077 70.2025 12.0815C70.2171 12.1554 70.2171 12.2145 70.2171 12.244C70.2171 12.2736 70.2171 12.3326 70.2025 12.3917C70.1879 12.4656 70.1587 12.5099 70.1149 12.5394C69.9396 12.6133 69.7789 12.6723 69.589 12.7167C69.4137 12.761 69.2531 12.8348 69.0924 12.9087C68.9463 12.9973 68.8148 13.1007 68.7272 13.2484C68.625 13.3961 68.5811 13.5881 68.5811 13.8244V16.5864C68.5811 16.6307 68.5665 16.675 68.5227 16.7046C68.4789 16.7341 68.4205 16.7637 68.3328 16.808C67.9822 16.9852 67.5879 17.1329 67.1496 17.2954C66.7114 17.4431 66.2586 17.576 65.7912 17.6942C65.3237 17.8123 64.8563 17.9009 64.4035 17.9748C63.9361 18.0486 63.5271 18.0782 63.1473 18.0782C62.1832 18.0782 61.2776 17.9157 60.4304 17.5908C59.5831 17.2658 58.8528 16.7932 58.2247 16.1876C57.5966 15.582 57.0999 14.8435 56.7348 13.9721C56.3696 13.1154 56.1797 12.1259 56.1797 11.0476Z" fill="black"/>
<path d="M71.3711 13.4112C71.3711 12.8204 71.5026 12.2592 71.7655 11.7127C72.0284 11.1662 72.3644 10.6935 72.8026 10.28C73.2408 9.86642 73.7521 9.52671 74.3217 9.29039C74.906 9.0393 75.5049 8.92114 76.1476 8.92114C76.8196 8.92114 77.4623 9.0393 78.0612 9.27562C78.6601 9.51194 79.2005 9.82212 79.6533 10.2357C80.1062 10.6492 80.4713 11.1219 80.7489 11.6684C81.0118 12.2149 81.1579 12.8204 81.1579 13.4555C81.1579 14.1054 81.041 14.7258 80.7927 15.287C80.5444 15.8483 80.2084 16.3357 79.7702 16.7493C79.332 17.1628 78.8207 17.4878 78.2072 17.7241C77.6083 17.9604 76.951 18.0786 76.2353 18.0786C75.5341 18.0786 74.8768 17.9604 74.2925 17.7093C73.6936 17.473 73.1824 17.1333 72.7442 16.7197C72.3059 16.3062 71.97 15.804 71.7363 15.2427C71.5026 14.6815 71.3711 14.0611 71.3711 13.4112ZM73.7667 12.8204C73.7667 13.1601 73.7959 13.5146 73.8397 13.8691C73.8835 14.2384 73.9712 14.5781 74.0588 14.9325C74.1611 15.2723 74.2779 15.5972 74.4386 15.9074C74.5847 16.2028 74.7746 16.4686 74.9791 16.705C75.1836 16.9413 75.4319 17.1185 75.6948 17.2514C75.9577 17.3844 76.2645 17.4435 76.6004 17.4435C76.9656 17.4435 77.287 17.3548 77.5499 17.1481C77.8128 16.956 78.0319 16.705 78.2072 16.3948C78.3825 16.0846 78.4994 15.7449 78.587 15.3609C78.6747 14.9769 78.7039 14.5928 78.7039 14.2088C78.7039 13.8986 78.6747 13.5737 78.6162 13.234C78.5578 12.8943 78.4702 12.5546 78.3679 12.2149C78.2511 11.8752 78.1196 11.5502 77.9589 11.24C77.7982 10.9299 77.6083 10.664 77.3892 10.4277C77.1701 10.1914 76.9364 9.99936 76.6735 9.86643C76.4106 9.7335 76.1184 9.65964 75.8117 9.65964C75.4611 9.65964 75.1543 9.76304 74.906 9.95505C74.6431 10.1471 74.4386 10.3981 74.2633 10.7083C74.088 11.0185 73.9712 11.3582 73.8835 11.7275C73.8105 12.0819 73.7667 12.4512 73.7667 12.8204Z" fill="black"/>
<path d="M82.5605 13.4112C82.5605 12.8204 82.692 12.2592 82.9549 11.7127C83.2179 11.1662 83.5538 10.6935 83.992 10.28C84.4303 9.86642 84.9415 9.52671 85.5112 9.29039C86.0955 9.0393 86.6944 8.92114 87.3371 8.92114C88.009 8.92114 88.6517 9.0393 89.2506 9.27562C89.8495 9.51194 90.39 9.82212 90.8428 10.2357C91.2956 10.6492 91.6608 11.1219 91.9383 11.6684C92.2012 12.2149 92.3473 12.8204 92.3473 13.4555C92.3473 14.1054 92.2304 14.7258 91.9821 15.287C91.7338 15.8483 91.3978 16.3357 90.9596 16.7493C90.5214 17.1628 90.0102 17.4878 89.3967 17.7241C88.7978 17.9604 88.1405 18.0786 87.4247 18.0786C86.7236 18.0786 86.0663 17.9604 85.482 17.7093C84.8831 17.473 84.3718 17.1333 83.9336 16.7197C83.4954 16.3062 83.1594 15.804 82.9257 15.2427C82.6774 14.6815 82.5605 14.0611 82.5605 13.4112ZM84.9561 12.8204C84.9561 13.1601 84.9853 13.5146 85.0291 13.8691C85.073 14.2384 85.1606 14.5781 85.2482 14.9325C85.3505 15.2723 85.4674 15.5972 85.628 15.9074C85.7741 16.2028 85.964 16.4686 86.1685 16.705C86.373 16.9413 86.6213 17.1185 86.8842 17.2514C87.1472 17.3844 87.4539 17.4435 87.7899 17.4435C88.1551 17.4435 88.4764 17.3548 88.7393 17.1481C89.0023 16.956 89.2214 16.705 89.3967 16.3948C89.572 16.0846 89.6888 15.7449 89.7764 15.3609C89.8641 14.9769 89.8933 14.5928 89.8933 14.2088C89.8933 13.8986 89.8641 13.5737 89.8057 13.234C89.7472 12.8943 89.6596 12.5546 89.5573 12.2149C89.4405 11.8752 89.309 11.5502 89.1483 11.24C88.9877 10.9299 88.7978 10.664 88.5787 10.4277C88.3596 10.1914 88.1259 9.99936 87.8629 9.86643C87.6 9.7335 87.3078 9.65964 87.0011 9.65964C86.6505 9.65964 86.3438 9.76304 86.0955 9.95505C85.8325 10.1471 85.628 10.3981 85.4528 10.7083C85.2775 11.0185 85.1606 11.3582 85.073 11.7275C84.9999 12.0819 84.9561 12.4512 84.9561 12.8204Z" fill="black"/>
<path d="M102.017 2.33349C102.046 2.31872 102.075 2.30395 102.09 2.28918C102.119 2.27441 102.134 2.27441 102.148 2.27441C102.251 2.27441 102.309 2.34826 102.309 2.49596V15.6413C102.309 15.9219 102.382 16.114 102.514 16.2321C102.66 16.3503 102.864 16.4094 103.142 16.4094L103.682 16.365C103.711 16.365 103.726 16.3798 103.726 16.4241C103.726 16.4537 103.741 16.498 103.741 16.5275C103.741 16.5423 103.726 16.5571 103.711 16.5866C103.697 16.6014 103.653 16.6309 103.594 16.6604L100.396 18.0045C100.381 18.0045 100.352 18.0193 100.308 18.0341C100.264 18.0488 100.235 18.0636 100.22 18.0636C100.176 18.0636 100.147 18.0341 100.147 17.9897C100.133 17.9307 100.133 17.8864 100.133 17.8273V17.1774C100.133 17.1183 100.118 17.0888 100.074 17.0888C100.06 17.0888 100.03 17.1035 99.9865 17.1183C99.7674 17.2512 99.5629 17.3694 99.373 17.4876C99.1831 17.6057 98.9786 17.7091 98.7887 17.7977C98.5988 17.8864 98.3797 17.9602 98.1752 18.0045C97.9561 18.0488 97.7224 18.0784 97.4595 18.0784C96.9044 18.0784 96.3932 17.9602 95.9403 17.7239C95.4875 17.4876 95.1077 17.1774 94.801 16.7934C94.4942 16.4094 94.2459 15.9515 94.0852 15.4493C93.9099 14.9471 93.8369 14.4154 93.8369 13.8689C93.8369 13.2043 93.9684 12.5987 94.2313 12.0226C94.4942 11.4614 94.8302 10.9592 95.2684 10.5456C95.7066 10.1321 96.2033 9.80714 96.7729 9.57082C97.3426 9.3345 97.9415 9.21634 98.5696 9.21634C98.7449 9.21634 98.891 9.23111 99.0078 9.26065C99.1393 9.29019 99.2416 9.31973 99.3584 9.36404C99.4607 9.39358 99.5629 9.43789 99.6798 9.46743C99.782 9.49697 99.8989 9.51174 100.03 9.51174C100.045 9.51174 100.074 9.51174 100.103 9.49697C100.133 9.4822 100.147 9.45266 100.147 9.39358V4.94779C100.147 4.80009 100.103 4.68193 100.03 4.59331C99.9427 4.50469 99.8405 4.44561 99.7236 4.4013C99.5921 4.35699 99.4607 4.32745 99.3146 4.29791C99.1685 4.26837 99.0371 4.23883 98.9056 4.19452C98.8618 4.17975 98.8326 4.16498 98.8179 4.13544C98.7887 4.12067 98.7887 4.06159 98.7887 4.00251C98.7887 3.97297 98.8033 3.94343 98.8179 3.91389C98.8326 3.88435 98.8764 3.85481 98.9348 3.82527L102.017 2.33349ZM95.955 13.4553C95.955 13.9132 96.0134 14.3415 96.1156 14.7699C96.2179 15.1834 96.3786 15.5527 96.5977 15.8776C96.8168 16.2026 97.0797 16.4537 97.4157 16.6309C97.7516 16.8081 98.1314 16.9115 98.5842 16.9115C98.6573 16.9115 98.7741 16.8968 98.9494 16.8525C99.1247 16.8081 99.3 16.7638 99.4753 16.7048C99.6506 16.6457 99.8112 16.5718 99.9427 16.498C100.074 16.4094 100.147 16.3207 100.147 16.2321V11.5352C100.147 11.1069 99.9865 10.7524 99.6798 10.4718C99.373 10.2059 98.9348 10.0582 98.3505 10.0582C97.9269 10.0582 97.5763 10.1616 97.2696 10.3536C96.9628 10.5456 96.7145 10.8115 96.5246 11.1364C96.3347 11.4614 96.1887 11.8159 96.0864 12.2294C96.0134 12.6282 95.955 13.0418 95.955 13.4553Z" fill="black"/>
<path d="M109.13 17.3845C109.13 17.3402 109.159 17.3106 109.203 17.3106C109.32 17.3106 109.466 17.2811 109.612 17.2516C109.773 17.222 109.933 17.1629 110.094 17.0743C110.255 16.9857 110.415 16.8528 110.576 16.6608C110.737 16.4835 110.868 16.2324 110.97 15.9223L114.724 4.9038C114.724 4.9038 114.724 4.9038 114.724 4.88903C114.724 4.87426 114.724 4.85949 114.724 4.84472C114.724 4.80041 114.71 4.74133 114.666 4.68225C114.637 4.62317 114.608 4.56408 114.608 4.53454C114.608 4.505 114.622 4.49023 114.651 4.49023H117.368C117.383 4.49023 117.398 4.505 117.427 4.505C117.441 4.505 117.471 4.53454 117.485 4.56408L121.444 15.7746C121.502 15.9518 121.561 16.0995 121.619 16.2324C121.677 16.3654 121.736 16.4687 121.823 16.5721C121.897 16.6755 121.999 16.7642 122.116 16.838C122.232 16.9119 122.393 17.0005 122.568 17.0743C122.656 17.1186 122.773 17.1629 122.919 17.222C123.065 17.2663 123.211 17.2959 123.343 17.2959C123.372 17.2959 123.401 17.3106 123.401 17.3254C123.416 17.3402 123.416 17.3697 123.416 17.3845V17.739C123.416 17.7537 123.416 17.7685 123.401 17.7833C123.386 17.7981 123.372 17.8128 123.343 17.8128H116.784C116.755 17.8128 116.726 17.7981 116.726 17.7833C116.711 17.7685 116.711 17.7537 116.711 17.739V17.3697C116.711 17.355 116.711 17.3402 116.726 17.3254C116.74 17.3106 116.755 17.2959 116.784 17.2959C116.813 17.2959 116.828 17.2959 116.857 17.2959C116.886 17.2959 116.901 17.2959 116.915 17.2959C116.989 17.2959 117.076 17.2811 117.208 17.2811C117.339 17.2811 117.471 17.2663 117.617 17.2516C117.763 17.2368 117.923 17.2073 118.069 17.1777C118.216 17.1482 118.362 17.0891 118.478 17.03C118.61 16.9709 118.712 16.8823 118.785 16.7642C118.873 16.6608 118.902 16.5278 118.902 16.3654C118.902 16.321 118.902 16.2767 118.887 16.2324L117.66 12.8205C117.66 12.8058 117.646 12.7762 117.631 12.7319C117.617 12.6876 117.587 12.6433 117.558 12.599C117.529 12.5547 117.485 12.5104 117.427 12.4661C117.368 12.4218 117.31 12.407 117.237 12.407H113.863C113.775 12.407 113.717 12.4218 113.658 12.4661C113.6 12.5104 113.556 12.5399 113.512 12.5842C113.468 12.6285 113.439 12.6728 113.424 12.7172C113.395 12.7615 113.395 12.791 113.395 12.791C113.191 13.3818 113.03 13.884 112.884 14.2828C112.752 14.6963 112.636 15.0213 112.548 15.2871C112.46 15.553 112.387 15.7598 112.343 15.9075C112.3 16.0552 112.256 16.1586 112.241 16.2177C112.227 16.2767 112.212 16.3358 112.197 16.3654C112.197 16.3801 112.197 16.4097 112.212 16.4244C112.212 16.4392 112.227 16.4688 112.227 16.4835C112.27 16.646 112.373 16.7789 112.504 16.8823C112.636 16.9857 112.796 17.0743 112.972 17.1334C113.147 17.1925 113.322 17.2368 113.512 17.2663C113.702 17.2959 113.863 17.3106 114.009 17.3106H114.257C114.286 17.3106 114.315 17.3254 114.315 17.3402C114.33 17.355 114.33 17.3697 114.33 17.3845V17.7537C114.33 17.7685 114.33 17.7833 114.315 17.7981C114.301 17.8128 114.286 17.8276 114.257 17.8276H109.203C109.159 17.8276 109.13 17.7981 109.13 17.7537V17.3845ZM114.023 11.0481C114.009 11.0777 113.994 11.1072 113.994 11.1368C113.994 11.1663 113.979 11.1958 113.979 11.2254C113.979 11.2697 113.994 11.2992 114.009 11.314C114.023 11.3288 114.067 11.3435 114.126 11.3435H116.93C117.003 11.3435 117.047 11.3288 117.062 11.2992C117.076 11.2697 117.091 11.2402 117.091 11.1958C117.091 11.1663 117.091 11.1368 117.076 11.1072C117.076 11.0777 117.062 11.0481 117.047 11.0186L115.805 7.57718C115.776 7.48856 115.732 7.42948 115.659 7.38517C115.601 7.34086 115.542 7.32609 115.484 7.32609C115.44 7.32609 115.382 7.35563 115.309 7.39994C115.25 7.44425 115.206 7.5181 115.163 7.59195L114.023 11.0481Z" fill="black"/>
<path d="M127.287 8.65527C127.317 8.6405 127.346 8.62573 127.36 8.61096C127.39 8.59619 127.404 8.59619 127.419 8.59619C127.521 8.59619 127.58 8.67004 127.58 8.81774V10.2947C127.594 10.3538 127.623 10.3834 127.653 10.3834C127.682 10.3834 127.711 10.3834 127.726 10.3834C127.74 10.3834 127.769 10.3686 127.799 10.3538C128.193 10.147 128.529 9.96981 128.807 9.82211C129.084 9.67441 129.318 9.55624 129.522 9.46762C129.727 9.36423 129.902 9.29038 130.063 9.24607C130.223 9.18699 130.384 9.15745 130.545 9.12791C130.705 9.09837 130.881 9.0836 131.071 9.06883C131.261 9.06883 131.494 9.05406 131.786 9.05406C132.093 9.05406 132.356 9.11314 132.575 9.24607C132.794 9.379 132.984 9.55624 133.145 9.7778C133.291 9.99935 133.422 10.2504 133.525 10.5311C133.627 10.8117 133.7 11.0923 133.744 11.3877C133.788 11.6831 133.831 11.9638 133.846 12.2592C133.861 12.5398 133.875 12.8057 133.875 13.042C133.875 13.2635 133.875 13.4703 133.861 13.6623C133.846 13.8543 133.846 14.0611 133.831 14.2827C133.817 14.5042 133.817 14.7553 133.802 15.0359C133.788 15.3166 133.788 15.6563 133.788 16.0698C133.788 16.2619 133.817 16.4096 133.89 16.5425C133.963 16.6754 134.051 16.7788 134.153 16.8527C134.255 16.9413 134.386 17.0004 134.518 17.0299C134.649 17.0742 134.781 17.1037 134.898 17.1333C135.029 17.1628 135.131 17.1776 135.234 17.1924C135.336 17.2071 135.409 17.2219 135.467 17.2514C135.497 17.2662 135.511 17.3105 135.526 17.3696C135.54 17.4435 135.555 17.4878 135.555 17.5173C135.555 17.5616 135.555 17.6059 135.54 17.6798C135.526 17.7536 135.497 17.7979 135.467 17.8127H130.253C130.209 17.7979 130.194 17.7536 130.18 17.6798C130.165 17.6059 130.165 17.5468 130.165 17.5173C130.165 17.4878 130.18 17.4287 130.194 17.3696C130.209 17.2958 130.238 17.2662 130.253 17.2514C130.34 17.2071 130.443 17.1776 130.574 17.1628C130.705 17.1481 130.852 17.089 130.983 17.0151C131.129 16.9413 131.246 16.8231 131.363 16.6754C131.48 16.5277 131.553 16.2914 131.597 15.996C131.611 15.9074 131.626 15.8187 131.626 15.7301C131.64 15.6415 131.64 15.5677 131.655 15.479C131.655 15.3904 131.67 15.3018 131.67 15.1984C131.67 15.095 131.67 14.9769 131.67 14.8439C131.67 14.5633 131.67 14.2531 131.655 13.943C131.655 13.618 131.64 13.2635 131.64 12.8647C131.64 12.5546 131.626 12.2444 131.597 11.949C131.567 11.6536 131.494 11.373 131.392 11.1366C131.29 10.9003 131.129 10.7083 130.91 10.5458C130.691 10.3981 130.399 10.3243 130.034 10.3243C129.902 10.3243 129.785 10.3391 129.683 10.3538C129.581 10.3686 129.449 10.4129 129.303 10.4572C129.157 10.5163 128.967 10.6049 128.734 10.7083C128.5 10.8265 128.178 10.9742 127.784 11.1662C127.74 11.1957 127.682 11.24 127.623 11.2696C127.565 11.3139 127.536 11.3582 127.536 11.432V16.0551C127.536 16.3357 127.594 16.5573 127.711 16.705C127.828 16.8527 127.959 16.956 128.105 17.0299C128.251 17.1037 128.398 17.1333 128.558 17.1628C128.704 17.1776 128.821 17.2219 128.909 17.2514C128.938 17.2662 128.953 17.3105 128.967 17.3696C128.982 17.4435 128.996 17.4878 128.996 17.5173C128.996 17.5616 128.996 17.6059 128.982 17.6798C128.967 17.7536 128.938 17.7979 128.909 17.8127H124.03C123.986 17.7979 123.972 17.7536 123.957 17.6798C123.942 17.6059 123.942 17.5468 123.942 17.5173C123.942 17.4878 123.957 17.4287 123.972 17.3696C123.986 17.2958 124.015 17.2662 124.03 17.2514C124.118 17.2071 124.22 17.1776 124.381 17.1628C124.527 17.1481 124.673 17.1037 124.833 17.0299C124.994 16.956 125.111 16.8527 125.228 16.705C125.345 16.5573 125.403 16.3357 125.403 16.0551V11.2696C125.403 11.1219 125.359 11.0037 125.286 10.9151C125.199 10.8265 125.096 10.7674 124.979 10.7231C124.848 10.6788 124.717 10.6492 124.57 10.6197C124.424 10.5901 124.293 10.5606 124.161 10.5163C124.118 10.5015 124.088 10.4868 124.074 10.4572C124.045 10.4424 124.045 10.3834 124.045 10.3243C124.045 10.2947 124.059 10.2652 124.074 10.2357C124.088 10.2061 124.132 10.1766 124.191 10.147L127.287 8.65527Z" fill="black"/>
<path d="M136.62 13.8248C136.62 12.9091 136.766 12.141 137.029 11.5207C137.292 10.9003 137.657 10.3834 138.11 9.99936C138.563 9.61533 139.074 9.3347 139.673 9.17223C140.272 8.99499 140.885 8.92114 141.543 8.92114C141.674 8.92114 141.849 8.92114 142.039 8.93591C142.229 8.95068 142.419 8.96545 142.624 8.99499C142.828 9.02453 143.033 9.06884 143.222 9.12792C143.412 9.187 143.602 9.26085 143.748 9.36424C143.909 9.46763 144.04 9.58579 144.128 9.71873C144.216 9.85166 144.274 10.0289 144.274 10.2357C144.274 10.3834 144.245 10.5015 144.187 10.6049C144.128 10.6935 144.055 10.7674 143.953 10.8265C143.851 10.8856 143.734 10.9151 143.602 10.9299C143.471 10.9446 143.325 10.9594 143.179 10.9594C143.003 10.9594 142.857 10.9299 142.74 10.8708C142.624 10.8117 142.507 10.7379 142.404 10.6492C142.302 10.5606 142.215 10.472 142.127 10.3686C142.039 10.2652 141.952 10.1766 141.835 10.088C141.733 9.99936 141.616 9.92551 141.484 9.86643C141.353 9.80735 141.192 9.7778 141.002 9.7778C140.564 9.7778 140.213 9.89597 139.921 10.1175C139.644 10.3391 139.425 10.6197 139.264 10.9742C139.103 11.3139 139.001 11.6979 138.943 12.0967C138.884 12.5103 138.855 12.8943 138.855 13.2635C138.855 13.7657 138.899 14.2384 139.001 14.6519C139.089 15.0803 139.249 15.4495 139.454 15.7597C139.658 16.0698 139.936 16.3062 140.272 16.4834C140.608 16.6606 141.002 16.7493 141.484 16.7493C141.66 16.7493 141.835 16.7197 141.995 16.6606C142.171 16.6016 142.331 16.5277 142.492 16.4243C142.653 16.3209 142.799 16.2175 142.945 16.0846C143.091 15.9517 143.208 15.8188 143.339 15.6711C143.398 15.5972 143.456 15.5381 143.515 15.479C143.573 15.4347 143.661 15.4052 143.792 15.4052C143.938 15.4052 144.07 15.4495 144.187 15.5234C144.289 15.5972 144.347 15.6858 144.347 15.7744C144.347 15.804 144.347 15.8335 144.333 15.8778C144.318 15.9221 144.289 15.9812 144.23 16.0551C143.997 16.3505 143.734 16.6311 143.471 16.8822C143.193 17.1333 142.901 17.3548 142.594 17.5321C142.288 17.7093 141.952 17.8423 141.587 17.9456C141.221 18.049 140.842 18.0933 140.447 18.0933C139.907 18.0933 139.41 17.9752 138.943 17.7241C138.475 17.4878 138.081 17.1628 137.73 16.764C137.38 16.3652 137.117 15.9074 136.912 15.4052C136.708 14.8735 136.62 14.3565 136.62 13.8248Z" fill="black"/>
<path d="M145.663 14.0017C145.663 13.2632 145.765 12.5838 145.97 11.9634C146.174 11.3431 146.466 10.8113 146.861 10.3535C147.241 9.8956 147.723 9.54112 148.278 9.29003C148.833 9.03894 149.476 8.90601 150.177 8.90601C150.381 8.90601 150.586 8.92078 150.746 8.95032C150.922 8.97986 151.068 9.0094 151.214 9.06848C151.36 9.12756 151.491 9.17187 151.608 9.24572C151.725 9.3048 151.857 9.37865 151.973 9.4525C152.119 9.52635 152.28 9.65928 152.47 9.86606C152.66 10.0581 152.821 10.2944 152.981 10.5455C153.142 10.7966 153.273 11.0772 153.39 11.3726C153.507 11.668 153.566 11.9486 153.566 12.2145C153.566 12.3031 153.551 12.3917 153.507 12.5099C153.463 12.6281 153.419 12.6724 153.332 12.6724H147.825C147.767 12.6724 147.723 12.7315 147.693 12.8496C147.679 12.9678 147.664 13.1007 147.664 13.2632C147.664 13.8244 147.737 14.3118 147.898 14.7402C148.059 15.1685 148.263 15.5378 148.541 15.8332C148.804 16.1286 149.11 16.3649 149.461 16.5126C149.812 16.6603 150.177 16.7489 150.556 16.7489C150.805 16.7489 151.039 16.7194 151.258 16.6455C151.477 16.5864 151.696 16.4978 151.9 16.3797C152.105 16.2763 152.295 16.1581 152.485 16.0252C152.66 15.8922 152.835 15.7593 152.996 15.6264C153.04 15.6116 153.054 15.6116 153.069 15.6116C153.084 15.6116 153.113 15.6264 153.142 15.6559C153.2 15.7002 153.259 15.7593 153.317 15.8332C153.376 15.907 153.419 15.9513 153.449 15.9956C153.463 16.0104 153.478 16.0399 153.478 16.0547C153.478 16.0695 153.463 16.099 153.434 16.1138C153.23 16.3649 152.981 16.6012 152.675 16.8375C152.382 17.0739 152.061 17.2806 151.71 17.4726C151.374 17.6647 151.024 17.8124 150.673 17.9157C150.323 18.0339 149.987 18.093 149.665 18.093C149.023 18.093 148.453 17.9748 147.956 17.7385C147.46 17.5022 147.036 17.192 146.7 16.808C146.364 16.424 146.101 15.9809 145.926 15.4935C145.751 14.9913 145.663 14.5039 145.663 14.0017ZM151.141 11.9339C151.301 11.9339 151.389 11.86 151.389 11.7123C151.389 11.4612 151.345 11.2397 151.272 11.0181C151.199 10.7966 151.082 10.6046 150.936 10.4421C150.79 10.2796 150.615 10.1467 150.425 10.0433C150.221 9.95468 150.001 9.8956 149.753 9.8956C149.461 9.8956 149.198 9.95468 148.964 10.0876C148.745 10.2205 148.555 10.3682 148.395 10.5603C148.234 10.7375 148.117 10.9295 148.044 11.1215C147.971 11.3135 147.927 11.4908 147.927 11.6237C147.927 11.7271 147.942 11.8009 147.971 11.8452C148 11.8896 148.044 11.9043 148.088 11.9043H151.141V11.9339Z" fill="black"/>
<path d="M156.326 17.7684C156.267 17.7684 156.223 17.7832 156.18 17.8127C156.136 17.8422 156.092 17.8866 156.048 17.9161C156.004 17.9604 155.975 17.9899 155.931 18.0195C155.887 18.049 155.844 18.0638 155.8 18.0638H155.464C155.449 18.0638 155.435 17.9752 155.405 17.7832C155.376 17.6059 155.347 17.3844 155.332 17.1333C155.303 16.8822 155.274 16.6163 155.259 16.3357C155.245 16.0551 155.23 15.8335 155.23 15.6563C155.23 15.5529 155.259 15.4938 155.332 15.4643C155.405 15.4347 155.478 15.42 155.566 15.42C155.61 15.42 155.654 15.4347 155.712 15.4643C155.771 15.4938 155.814 15.5381 155.858 15.5824C155.902 15.6267 155.946 15.6858 155.99 15.7301C156.033 15.7744 156.048 15.8188 156.077 15.8631C156.18 16.0994 156.282 16.3062 156.399 16.4982C156.501 16.6902 156.632 16.8527 156.764 16.9856C156.895 17.1185 157.056 17.2219 157.246 17.2958C157.436 17.3696 157.655 17.3991 157.918 17.3991C158.122 17.3991 158.283 17.3696 158.4 17.2958C158.531 17.2219 158.619 17.1333 158.692 17.0151C158.765 16.897 158.809 16.7788 158.823 16.6311C158.838 16.4834 158.853 16.3357 158.853 16.1732C158.853 15.8631 158.765 15.5972 158.575 15.3757C158.385 15.1541 158.152 14.9621 157.874 14.7701C157.596 14.5781 157.29 14.3861 156.968 14.194C156.647 14.002 156.34 13.7657 156.063 13.5146C155.785 13.2635 155.551 12.9534 155.362 12.5989C155.172 12.2444 155.084 11.8013 155.084 11.2843C155.084 10.9889 155.172 10.6935 155.362 10.3981C155.551 10.1175 155.785 9.85166 156.092 9.64487C156.384 9.42332 156.72 9.24608 157.1 9.11315C157.465 8.98022 157.845 8.92114 158.21 8.92114C158.4 8.92114 158.604 8.93591 158.794 8.98022C158.984 9.00976 159.174 9.05407 159.335 9.09838C159.495 9.14269 159.641 9.187 159.758 9.23131C159.875 9.27562 159.948 9.30516 159.977 9.31993C160.021 9.34947 160.05 9.39378 160.08 9.46763C160.109 9.52671 160.123 9.64487 160.138 9.7778C160.153 9.9255 160.153 10.1175 160.153 10.3538C160.153 10.5902 160.153 10.9151 160.153 11.2991C160.153 11.4025 160.109 11.4764 160.036 11.5354C159.963 11.5797 159.875 11.6093 159.802 11.6093C159.729 11.6093 159.671 11.5945 159.598 11.565C159.539 11.5354 159.495 11.5059 159.466 11.4468C159.393 11.2548 159.305 11.048 159.218 10.856C159.13 10.664 159.013 10.472 158.896 10.3243C158.78 10.1618 158.634 10.0289 158.473 9.94028C158.312 9.83689 158.122 9.79258 157.918 9.79258C157.786 9.79258 157.669 9.80734 157.538 9.83688C157.407 9.86642 157.304 9.92551 157.202 10.0141C157.1 10.1027 157.027 10.2357 156.968 10.3834C156.91 10.5458 156.881 10.7379 156.881 10.9889C156.881 11.2105 156.983 11.4025 157.173 11.5798C157.363 11.757 157.611 11.949 157.903 12.1262C158.195 12.3183 158.517 12.5103 158.867 12.7318C159.218 12.9534 159.539 13.1897 159.831 13.4703C160.123 13.7509 160.372 14.0611 160.562 14.4304C160.752 14.7996 160.854 15.2132 160.854 15.7154C160.854 16.0846 160.766 16.4096 160.576 16.705C160.386 17.0004 160.153 17.2514 159.861 17.4435C159.568 17.6502 159.247 17.7979 158.882 17.9161C158.517 18.0343 158.166 18.0786 157.83 18.0786C157.655 18.0786 157.48 18.0638 157.304 18.0343C157.129 18.0047 156.968 17.9604 156.822 17.9309C156.676 17.8866 156.559 17.857 156.472 17.8275C156.384 17.7979 156.34 17.7684 156.326 17.7684Z" fill="black"/>
<path d="M162.972 10.5457H162.271C162.183 10.5457 162.11 10.5309 162.066 10.4866C162.022 10.4423 161.993 10.398 161.979 10.3389C161.979 10.3094 161.979 10.2798 161.993 10.2355C162.008 10.1912 162.022 10.1764 162.037 10.1617C162.168 10.073 162.3 9.98443 162.446 9.86627C162.592 9.76287 162.738 9.64471 162.884 9.52655C163.03 9.40839 163.162 9.29023 163.308 9.17207C163.439 9.05391 163.571 8.93575 163.673 8.84713C163.731 8.77328 163.819 8.66989 163.936 8.53696C164.038 8.40403 164.17 8.25633 164.316 8.1234C164.462 7.99047 164.608 7.87231 164.768 7.76892C164.929 7.66553 165.09 7.60645 165.265 7.60645C165.309 7.60645 165.353 7.62122 165.397 7.65076C165.44 7.6803 165.47 7.70984 165.47 7.73938C165.47 7.78369 165.455 7.85754 165.44 7.94616C165.411 8.03478 165.397 8.13817 165.367 8.25633C165.338 8.37449 165.309 8.49265 165.265 8.61081C165.221 8.74374 165.192 8.8619 165.163 8.98006C165.163 9.02437 165.177 9.06868 165.192 9.09822C165.207 9.12776 165.251 9.14253 165.324 9.1573H167.704C167.807 9.1573 167.88 9.17207 167.909 9.21638C167.953 9.24592 167.967 9.29023 167.997 9.34931C168.011 9.37885 168.026 9.4527 168.04 9.54132C168.055 9.64471 168.07 9.7481 168.084 9.86627C168.099 9.98443 168.113 10.1026 168.113 10.2207C168.128 10.3389 168.128 10.4275 168.128 10.5161C168.128 10.5605 168.099 10.5752 168.055 10.5752H165.236C165.207 10.5752 165.192 10.5752 165.177 10.59C165.177 10.6048 165.177 10.6195 165.177 10.6491V15.346C165.177 15.5527 165.207 15.73 165.251 15.8777C165.294 16.0254 165.367 16.1583 165.44 16.2617C165.513 16.3651 165.601 16.4389 165.703 16.4833C165.806 16.5276 165.908 16.5571 165.995 16.5571C166.288 16.5571 166.521 16.5128 166.697 16.4242C166.872 16.3356 167.033 16.2469 167.164 16.1435C167.295 16.0402 167.412 15.9515 167.515 15.8629C167.617 15.7743 167.719 15.73 167.851 15.73C167.938 15.73 167.982 15.7595 168.011 15.8334C168.026 15.9072 168.04 15.9515 168.04 15.9958C168.04 16.0845 168.026 16.1435 168.011 16.1878C167.997 16.2322 167.967 16.2765 167.953 16.2912C167.953 16.306 167.909 16.3503 167.851 16.4537C167.792 16.5423 167.704 16.6605 167.602 16.7934C167.5 16.9264 167.369 17.0741 167.208 17.2218C167.062 17.3695 166.886 17.5172 166.697 17.6353C166.507 17.7682 166.302 17.8716 166.083 17.9603C165.864 18.0489 165.63 18.0932 165.382 18.0932C165.046 18.0932 164.725 18.0341 164.432 17.9012C164.14 17.7682 163.892 17.6058 163.673 17.399C163.454 17.1922 163.293 16.9411 163.176 16.6753C163.059 16.4094 163.001 16.1288 163.001 15.8334V10.5457H162.972Z" fill="black"/>
<path d="M169.02 13.4112C169.02 12.8204 169.151 12.2592 169.414 11.7127C169.677 11.1662 170.013 10.6935 170.451 10.28C170.889 9.86642 171.4 9.52671 171.97 9.29039C172.554 9.0393 173.153 8.92114 173.796 8.92114C174.468 8.92114 175.111 9.0393 175.71 9.27562C176.308 9.51194 176.849 9.82212 177.302 10.2357C177.755 10.6492 178.12 11.1219 178.397 11.6684C178.66 12.2149 178.806 12.8204 178.806 13.4555C178.806 14.1054 178.689 14.7258 178.441 15.287C178.193 15.8483 177.857 16.3357 177.419 16.7493C176.98 17.1628 176.469 17.4878 175.856 17.7241C175.257 17.9604 174.599 18.0786 173.884 18.0786C173.183 18.0786 172.525 17.9604 171.941 17.7093C171.342 17.473 170.831 17.1333 170.393 16.7197C169.954 16.3062 169.618 15.804 169.385 15.2427C169.136 14.6815 169.02 14.0611 169.02 13.4112ZM171.415 12.8204C171.415 13.1601 171.444 13.5146 171.488 13.8691C171.532 14.2384 171.62 14.5781 171.707 14.9325C171.809 15.2723 171.926 15.5972 172.087 15.9074C172.233 16.2028 172.423 16.4686 172.627 16.705C172.832 16.9413 173.08 17.1185 173.343 17.2514C173.606 17.3844 173.913 17.4435 174.249 17.4435C174.614 17.4435 174.935 17.3548 175.198 17.1481C175.461 16.956 175.68 16.705 175.856 16.3948C176.031 16.0846 176.148 15.7449 176.235 15.3609C176.323 14.9769 176.352 14.5928 176.352 14.2088C176.352 13.8986 176.323 13.5737 176.265 13.234C176.206 12.8943 176.119 12.5546 176.016 12.2149C175.899 11.8752 175.768 11.5502 175.607 11.24C175.447 10.9299 175.257 10.664 175.038 10.4277C174.819 10.1914 174.585 9.99936 174.322 9.86643C174.059 9.7335 173.767 9.65964 173.46 9.65964C173.11 9.65964 172.803 9.76304 172.554 9.95505C172.292 10.1471 172.087 10.3981 171.912 10.7083C171.736 11.0185 171.62 11.3582 171.532 11.7275C171.459 12.0819 171.415 12.4512 171.415 12.8204Z" fill="black"/>
<path d="M183.115 8.95044C183.144 8.93567 183.173 8.9209 183.188 8.90613C183.217 8.89136 183.232 8.89136 183.246 8.89136C183.348 8.89136 183.407 8.96521 183.407 9.11291V10.7228C183.407 10.7376 183.407 10.7672 183.407 10.7967C183.407 10.8262 183.421 10.841 183.465 10.841C183.494 10.841 183.524 10.8262 183.538 10.8115C183.553 10.7967 183.582 10.7672 183.597 10.7524C183.714 10.6047 183.83 10.4274 183.977 10.2502C184.123 10.0582 184.269 9.89572 184.429 9.71848C184.59 9.55601 184.751 9.42308 184.926 9.30492C185.101 9.20153 185.262 9.14245 185.423 9.14245C185.539 9.14245 185.686 9.17199 185.861 9.23107C186.036 9.29015 186.211 9.364 186.387 9.45262C186.562 9.54124 186.708 9.62986 186.825 9.71848C186.942 9.8071 187 9.88095 187 9.94003C187 9.99911 186.971 10.1025 186.913 10.2502C186.854 10.3979 186.781 10.5604 186.708 10.7228C186.62 10.8853 186.533 11.0182 186.431 11.1364C186.328 11.2546 186.241 11.3136 186.168 11.3136H186.153C186.036 11.2693 185.934 11.225 185.817 11.1807C185.7 11.1216 185.583 11.0773 185.466 11.0182C185.35 10.9592 185.233 10.9149 185.101 10.8853C184.984 10.8558 184.853 10.8262 184.736 10.8262C184.546 10.8262 184.371 10.8705 184.21 10.9444C184.05 11.0182 183.903 11.1216 183.801 11.2398C183.699 11.358 183.597 11.5057 183.524 11.6534C183.451 11.8011 183.421 11.9488 183.421 12.0817V16.0696C183.421 16.2468 183.465 16.4093 183.538 16.5275C183.611 16.6456 183.714 16.749 183.83 16.8229C183.947 16.8967 184.079 16.9558 184.239 17.0001C184.386 17.0444 184.532 17.074 184.663 17.1035C184.794 17.1331 184.926 17.1478 185.043 17.1626C185.16 17.1774 185.233 17.1921 185.291 17.2217C185.35 17.2512 185.379 17.3398 185.379 17.4875C185.379 17.6648 185.35 17.7682 185.291 17.7829H179.901C179.843 17.7682 179.813 17.6795 179.813 17.4875C179.813 17.3398 179.843 17.2512 179.901 17.2217C179.989 17.1774 180.091 17.1478 180.252 17.1331C180.398 17.1183 180.544 17.074 180.705 17.0001C180.865 16.9263 180.982 16.8229 181.099 16.6899C181.216 16.5422 181.274 16.3355 181.274 16.0548V11.5647C181.274 11.417 181.23 11.2989 181.157 11.2103C181.07 11.1216 180.967 11.0626 180.851 11.0182C180.719 10.9739 180.588 10.9444 180.442 10.9149C180.296 10.8853 180.164 10.8558 180.033 10.8115C179.989 10.7967 179.96 10.7819 179.945 10.7524C179.916 10.7376 179.916 10.6785 179.916 10.6195C179.916 10.5899 179.93 10.5604 179.945 10.5308C179.96 10.5013 180.003 10.4718 180.062 10.4422L183.115 8.95044Z" fill="black"/>
<path d="M55.5224 37.4565C55.5224 37.4565 55.5224 37.4418 55.537 37.4122C55.537 37.3974 55.5662 37.3827 55.5954 37.3827C55.6246 37.3827 55.6977 37.3827 55.7707 37.3679C55.8583 37.3531 55.9314 37.3384 56.019 37.3236C56.1067 37.3088 56.1943 37.2941 56.2673 37.2793C56.3404 37.2645 56.3988 37.2497 56.428 37.2497C56.7786 37.1611 57.0269 37.0282 57.173 36.8509C57.319 36.6737 57.3775 36.4374 57.3775 36.1568V26.5562C57.3775 26.246 57.319 25.9949 57.1876 25.8029C57.0561 25.6257 56.91 25.478 56.7348 25.3894C56.5595 25.3008 56.3988 25.2417 56.2381 25.2121C56.0774 25.1974 55.9752 25.1826 55.9168 25.1826H55.5662C55.537 25.1826 55.5078 25.1678 55.5078 25.1531C55.5078 25.1383 55.4932 25.1235 55.4932 25.1087V24.6952C55.4932 24.6804 55.4932 24.6656 55.5078 24.6509C55.5078 24.6361 55.537 24.6213 55.5662 24.6213C55.5662 24.6213 55.5808 24.6213 55.61 24.6213C55.6246 24.6213 55.6831 24.6213 55.7415 24.6213C55.8145 24.6213 55.9168 24.6213 56.0336 24.6066C56.1505 24.5918 56.355 24.5918 56.5887 24.5918C56.9247 24.5918 57.3044 24.577 57.6842 24.5623C58.0786 24.5475 58.473 24.5327 58.8674 24.5179C59.2618 24.5032 59.6562 24.4884 60.0506 24.4884C60.445 24.4736 60.8101 24.4736 61.1461 24.4736H62.0956C62.5922 24.4736 63.0888 24.5623 63.6001 24.7247C64.1113 24.902 64.5788 25.1383 64.9878 25.478C65.3968 25.8029 65.7473 26.2165 66.0102 26.7039C66.2732 27.1913 66.4046 27.7674 66.4046 28.4025C66.4046 28.816 66.3462 29.1853 66.2294 29.5102C66.1125 29.8352 65.9664 30.1158 65.7619 30.3669C65.572 30.618 65.3383 30.8395 65.0608 31.0168C64.7833 31.2088 64.4911 31.3713 64.1844 31.519L67.0181 36.0534C67.2665 36.4374 67.544 36.7919 67.8653 37.1168C68.1867 37.4418 68.5665 37.6633 68.9901 37.7815C69.0339 37.7962 69.0631 37.811 69.0777 37.8405C69.0923 37.8701 69.0923 37.8849 69.0923 37.9144C69.0923 38.003 69.0631 38.0769 69.0193 38.1064C68.9755 38.1359 68.8878 38.1507 68.7856 38.1507C68.5227 38.1507 68.2305 38.1359 67.8946 38.0916C67.5586 38.0621 67.2226 38.003 66.8867 37.9144C66.5507 37.8405 66.2294 37.7372 65.9226 37.6042C65.6159 37.4713 65.3675 37.3236 65.163 37.1316C64.9585 36.9543 64.754 36.7328 64.5495 36.4669C64.345 36.2011 64.1405 35.9057 63.9214 35.5955C63.7169 35.2853 63.5124 34.9604 63.3079 34.6207C63.1034 34.281 62.9136 33.956 62.7237 33.6311C62.5338 33.3061 62.3585 33.0107 62.1832 32.7301C62.0079 32.4495 61.8472 32.2131 61.7012 32.0211L60.2405 31.9177C60.2405 31.9177 60.2112 31.9177 60.1674 31.9177C60.1236 31.9177 60.0944 31.9177 60.0798 31.9325C60.0652 31.9473 60.0506 31.9621 60.036 31.9768C60.036 31.9916 60.0214 32.0211 60.0214 32.0507V36.0829C60.0214 36.2601 60.036 36.4078 60.0798 36.526C60.1236 36.6589 60.1966 36.7623 60.2989 36.8509C60.4011 36.9396 60.5326 37.0134 60.7079 37.0725C60.8686 37.1316 61.0731 37.1759 61.3068 37.2054C61.3506 37.2054 61.3944 37.2202 61.4675 37.235C61.5405 37.2497 61.6135 37.2645 61.7012 37.2793C61.7888 37.2941 61.8618 37.3088 61.9495 37.3236C62.0371 37.3384 62.0956 37.3384 62.154 37.3384C62.1978 37.3384 62.2124 37.3531 62.2124 37.3679C62.2124 37.3827 62.227 37.3974 62.227 37.4122V37.8258C62.227 37.8405 62.227 37.8553 62.2124 37.8701C62.1978 37.8849 62.1832 37.8996 62.154 37.8996H55.5662C55.537 37.8996 55.5078 37.8553 55.5078 37.7667C55.4932 37.6781 55.4932 37.5895 55.4932 37.5156V37.4565H55.5224ZM60.0652 31.0168C60.0652 31.0611 60.0798 31.1202 60.109 31.1497C60.1236 31.194 60.182 31.2088 60.2405 31.2236C60.2989 31.2236 60.3865 31.2383 60.4888 31.2531C60.591 31.2679 60.7517 31.2826 60.9562 31.2826C61.5113 31.2826 61.9495 31.194 62.3147 31.0315C62.6652 30.8543 62.9574 30.6328 63.1619 30.3521C63.3664 30.0715 63.5124 29.7318 63.5855 29.3625C63.6585 28.9933 63.7023 28.6093 63.7023 28.1957C63.7023 27.7674 63.6439 27.3686 63.5124 26.9993C63.381 26.6153 63.2057 26.2904 62.972 26.0097C62.7383 25.7291 62.4607 25.5075 62.1248 25.3451C61.8034 25.1826 61.4382 25.094 61.0438 25.094C60.9562 25.094 60.8832 25.094 60.8393 25.094C60.7955 25.094 60.7371 25.094 60.6933 25.1087C60.6495 25.1087 60.591 25.1087 60.5326 25.1235C60.4742 25.1235 60.3865 25.1383 60.2843 25.1383C60.2405 25.1383 60.1966 25.1531 60.1382 25.1678C60.0798 25.1826 60.0506 25.2269 60.0506 25.3008V30.7361L60.0652 31.0168Z" fill="black"/>
<path d="M69.8662 34.1186C69.8662 33.3801 69.9685 32.7007 70.173 32.0804C70.3775 31.46 70.6696 30.9283 71.064 30.4704C71.4438 30.0125 71.9258 29.6581 72.4809 29.407C73.036 29.1559 73.6787 29.0229 74.3798 29.0229C74.5843 29.0229 74.7888 29.0377 74.9495 29.0673C75.1248 29.0968 75.2709 29.1263 75.4169 29.1854C75.563 29.2297 75.6945 29.2888 75.8113 29.3627C75.9282 29.4217 76.0596 29.4956 76.1765 29.5694C76.3226 29.6433 76.4832 29.7762 76.6731 29.983C76.863 30.175 77.0237 30.4113 77.199 30.6624C77.3597 30.9135 77.4911 31.1942 77.608 31.4896C77.7248 31.785 77.7833 32.0656 77.7833 32.3314C77.7833 32.4201 77.7687 32.5087 77.7248 32.6268C77.6956 32.7302 77.6372 32.7893 77.5496 32.7893H72.0135C71.955 32.7893 71.9112 32.8484 71.882 32.9666C71.8674 33.0847 71.8528 33.2177 71.8528 33.3801C71.8528 33.9414 71.9258 34.4288 72.0865 34.8571C72.2472 35.2855 72.4517 35.6547 72.7292 35.9501C72.9921 36.2455 73.2989 36.4818 73.6495 36.6295C74 36.7772 74.3652 36.8659 74.745 36.8659C74.9933 36.8659 75.227 36.8363 75.4461 36.7625C75.6652 36.7034 75.8844 36.6148 76.0889 36.4966C76.2934 36.3932 76.4832 36.2751 76.6731 36.1421C76.8484 36.0092 77.0237 35.8763 77.1844 35.7433C77.2282 35.7286 77.2428 35.7286 77.2574 35.7286C77.272 35.7286 77.3012 35.7433 77.3305 35.7729C77.3889 35.8172 77.4473 35.8763 77.5057 35.9501C77.5642 36.0092 77.608 36.0683 77.6372 36.1126C77.6518 36.1274 77.6664 36.1569 77.6664 36.1717C77.6664 36.1864 77.6518 36.216 77.6226 36.2307C77.4181 36.4818 77.1698 36.7182 76.863 36.9545C76.5709 37.1908 76.2495 37.3976 75.899 37.5896C75.563 37.7816 75.2124 37.9293 74.8619 38.0327C74.5113 38.1509 74.1753 38.2099 73.854 38.2099C73.2112 38.2099 72.6416 38.0918 72.1449 37.8555C71.6483 37.6191 71.2247 37.309 70.8887 36.9249C70.5527 36.5409 70.2898 36.0978 70.1145 35.6104C69.9392 35.123 69.8662 34.6208 69.8662 34.1186ZM75.3439 32.0508C75.5046 32.0508 75.5922 31.977 75.5922 31.8293C75.5922 31.5782 75.5484 31.3566 75.4754 31.1351C75.4023 30.9135 75.2855 30.7215 75.1394 30.559C74.9933 30.3966 74.818 30.2636 74.6135 30.1602C74.409 30.0716 74.1899 30.0125 73.9416 30.0125C73.6495 30.0125 73.3865 30.0716 73.1528 30.2046C72.9337 30.3375 72.7438 30.4852 72.5831 30.6772C72.4225 30.8544 72.3056 31.0465 72.2326 31.2385C72.1595 31.4305 72.1157 31.6077 72.1157 31.7406C72.1157 31.844 72.1303 31.9179 72.1595 31.9622C72.1887 32.0065 72.2326 32.0213 72.2764 32.0213H75.3439V32.0508Z" fill="black"/>
<path d="M83.6115 29.0376C84.2104 29.0376 84.7509 29.1114 85.2183 29.2739C85.6857 29.4364 86.0801 29.6579 86.4015 29.9681C86.7959 29.9533 87.1757 29.9386 87.5262 29.909C87.8914 29.8795 88.2712 29.8647 88.6802 29.8647C88.8263 29.8647 88.9431 29.8647 89.0308 29.8795C89.1184 29.8943 89.1914 29.909 89.2353 29.9238C89.2791 29.9386 89.3229 29.9681 89.3521 30.0124C89.3813 30.042 89.3959 30.0863 89.4105 30.1454C89.4544 30.3078 89.4836 30.4408 89.4982 30.5737C89.5128 30.7066 89.5274 30.8248 89.5274 30.9577C89.5274 31.0611 89.4836 31.1349 89.4105 31.1645C89.3375 31.194 89.1768 31.2236 88.9431 31.2236H87.2341C87.3217 31.3713 87.4094 31.5337 87.497 31.7405C87.5847 31.9325 87.6285 32.1836 87.6285 32.4938C87.6285 32.9221 87.5262 33.3505 87.3363 33.764C87.1464 34.1776 86.8543 34.5468 86.4891 34.857C86.1093 35.1672 85.6565 35.4183 85.1161 35.6103C84.5756 35.8023 83.9621 35.9057 83.2756 35.9057C83.0565 35.9057 82.8958 35.8909 82.7643 35.8761C82.6328 35.8614 82.5014 35.8318 82.3553 35.8023C82.2677 35.8761 82.1654 35.95 82.034 36.0091C81.9025 36.0681 81.771 36.142 81.6542 36.2158C81.5227 36.2897 81.4205 36.3783 81.3328 36.4817C81.2452 36.5851 81.2014 36.7033 81.2014 36.851C81.2014 37.1168 81.4351 37.3088 81.8879 37.427C82.3407 37.5451 83.0857 37.6042 84.1082 37.6042C84.8823 37.6042 85.5981 37.6338 86.2408 37.6633C86.8835 37.7076 87.424 37.7962 87.8768 37.9587C88.3296 38.1212 88.6802 38.3723 88.9285 38.712C89.1768 39.0517 89.3083 39.5243 89.3083 40.1299C89.3083 40.381 89.2499 40.6469 89.133 40.9423C89.0162 41.2377 88.8409 41.5331 88.5925 41.8137C88.3588 42.1091 88.0521 42.375 87.6869 42.6556C87.3217 42.9214 86.8981 43.1578 86.4161 43.3645C85.9341 43.5713 85.379 43.7338 84.7509 43.852C84.1374 43.9701 83.4508 44.0292 82.7205 44.0292C82.0632 44.0292 81.4935 43.9701 81.0115 43.8372C80.5294 43.7043 80.1204 43.5418 79.7991 43.3202C79.4777 43.0987 79.244 42.8624 79.0833 42.5817C78.9227 42.3011 78.8496 42.0205 78.8496 41.7398C78.8496 41.5183 78.8934 41.3263 78.9811 41.149C79.0687 40.9718 79.1856 40.8093 79.3316 40.6616C79.4777 40.5139 79.6384 40.381 79.8137 40.2481C79.989 40.1151 80.1642 39.9822 80.3541 39.8493C80.5294 39.7163 80.7047 39.5686 80.88 39.4209C81.0553 39.2732 81.2014 39.1108 81.3182 38.9188C80.9822 38.8745 80.6901 38.8006 80.4126 38.6824C80.135 38.5643 79.9159 38.4314 79.726 38.2837C79.5361 38.136 79.3901 37.9735 79.2878 37.7815C79.1856 37.6042 79.1271 37.427 79.1271 37.235C79.1271 37.0577 79.171 36.91 79.2586 36.7919C79.3462 36.6589 79.4631 36.5556 79.6092 36.4522C79.7553 36.3488 79.9159 36.2602 80.1058 36.1863C80.2957 36.0977 80.4856 36.0238 80.6901 35.95C80.8216 35.9057 80.953 35.8466 81.0845 35.7875C81.216 35.7284 81.3766 35.6398 81.5227 35.5364C80.7777 35.241 80.2227 34.8422 79.8429 34.3548C79.4631 33.8674 79.2732 33.3061 79.2732 32.671C79.2732 32.1688 79.3901 31.6962 79.6092 31.2531C79.8283 30.81 80.135 30.426 80.5294 30.101C80.9238 29.7761 81.3912 29.525 81.9171 29.333C82.4137 29.1262 82.9834 29.0376 83.6115 29.0376ZM80.953 40.9275C80.953 41.1933 81.0261 41.4592 81.1867 41.7251C81.3474 41.9909 81.5665 42.2273 81.8295 42.4488C82.0924 42.6704 82.4137 42.8328 82.7935 42.9805C83.1587 43.1135 83.5531 43.1873 83.9767 43.1873C84.4149 43.1873 84.8385 43.1135 85.2475 42.9658C85.6565 42.8181 86.0217 42.626 86.3431 42.375C86.6644 42.1239 86.9127 41.8432 87.1026 41.5183C87.2925 41.1933 87.3948 40.8536 87.3948 40.4992C87.3948 40.2924 87.3655 40.1151 87.2925 39.9527C87.2341 39.7902 87.1318 39.6573 87.0296 39.5539C86.9127 39.4505 86.7813 39.3619 86.6352 39.3028C86.4891 39.2437 86.3285 39.1994 86.1678 39.1846C86.0363 39.1699 85.8172 39.1551 85.5105 39.1551C85.2037 39.1403 84.8677 39.1403 84.488 39.1255C84.2542 39.1255 84.0351 39.1108 83.8014 39.1108C83.5677 39.1108 83.3632 39.096 83.1733 39.096C82.9834 39.096 82.8081 39.0812 82.6621 39.0812C82.516 39.0812 82.3845 39.0665 82.2969 39.0517C82.18 39.1846 82.0486 39.3176 81.8879 39.4505C81.7272 39.5686 81.5811 39.7016 81.4497 39.8493C81.3036 39.997 81.1867 40.1447 81.0991 40.3219C80.9969 40.4844 80.953 40.6912 80.953 40.9275ZM85.379 32.671C85.379 32.1836 85.3352 31.7553 85.2329 31.3713C85.1307 30.9872 84.9846 30.6623 84.8093 30.4112C84.6194 30.1453 84.4149 29.9533 84.1666 29.8204C83.9183 29.6875 83.6407 29.6136 83.3486 29.6136C83.1733 29.6136 82.9688 29.6432 82.7497 29.717C82.5306 29.7909 82.3407 29.9238 82.1508 30.1158C81.9609 30.3078 81.8149 30.5737 81.6834 30.8986C81.5519 31.2383 81.4935 31.6667 81.4935 32.1836C81.4935 32.5233 81.5373 32.863 81.6104 33.2323C81.6834 33.6015 81.8002 33.9413 81.9755 34.2367C82.1362 34.5468 82.3553 34.7979 82.6182 34.9899C82.8812 35.1819 83.2025 35.2853 83.5677 35.2853C83.8452 35.2853 84.0936 35.2262 84.3273 35.0933C84.5464 34.9604 84.7363 34.7831 84.897 34.5616C85.0576 34.3253 85.1745 34.0594 85.2621 33.7345C85.3352 33.4095 85.379 33.0551 85.379 32.671Z" fill="black"/>
<path d="M90.2576 37.9443C90.2137 37.9295 90.1991 37.8852 90.1845 37.8114C90.1699 37.7375 90.1699 37.6784 90.1699 37.6489C90.1699 37.6194 90.1845 37.5603 90.1991 37.5012C90.2137 37.4273 90.243 37.3978 90.2576 37.383C90.3452 37.3387 90.4475 37.3092 90.6081 37.2944C90.7542 37.2796 90.9003 37.2353 91.061 37.1615C91.207 37.1024 91.3385 36.9842 91.4553 36.8513C91.5722 36.7036 91.6306 36.4968 91.6306 36.2162V31.6818C91.6306 31.5341 91.5868 31.4159 91.5138 31.3273C91.4261 31.2387 91.3239 31.1796 91.207 31.1353C91.0756 31.091 90.9441 31.0614 90.798 31.0319C90.652 31.0024 90.5205 30.9728 90.389 30.9285C90.3452 30.9137 90.316 30.899 90.3014 30.8694C90.2868 30.8547 90.2722 30.7956 90.2722 30.7365C90.2722 30.707 90.2868 30.6774 90.3014 30.6479C90.316 30.6183 90.3598 30.5888 90.4182 30.5593L93.5149 29.0823C93.5442 29.0675 93.5734 29.0527 93.588 29.0379C93.6172 29.0232 93.6318 29.0232 93.6464 29.0232C93.7487 29.0232 93.8071 29.097 93.8071 29.2447V36.2162C93.8071 36.4968 93.8655 36.7036 93.9824 36.8513C94.0992 36.999 94.2307 37.1024 94.3768 37.1615C94.5228 37.2206 94.6689 37.2649 94.8296 37.2944C94.9757 37.324 95.0925 37.3535 95.1801 37.383C95.2094 37.3978 95.224 37.4421 95.2386 37.5012C95.2532 37.575 95.2678 37.6194 95.2678 37.6489C95.2678 37.6932 95.2678 37.7375 95.2532 37.8114C95.2386 37.8852 95.2094 37.9295 95.1801 37.9443H90.2576ZM91.207 25.5965C91.207 25.1977 91.3239 24.8728 91.5576 24.6365C91.7913 24.4001 92.1127 24.282 92.5071 24.282C92.9014 24.282 93.2228 24.4001 93.4565 24.6365C93.6902 24.8728 93.8071 25.1977 93.8071 25.5965C93.8071 25.9953 93.6902 26.3203 93.4565 26.5566C93.2228 26.7929 92.9014 26.9111 92.5071 26.9111C92.1127 26.9111 91.7913 26.7929 91.5576 26.5566C91.3385 26.3203 91.207 25.9953 91.207 25.5965Z" fill="black"/>
<path d="M97.5316 37.8849C97.4732 37.8849 97.4294 37.8996 97.3856 37.9292C97.3417 37.9587 97.2979 38.003 97.2541 38.0326C97.2103 38.0769 97.1811 38.1064 97.1372 38.1359C97.0934 38.1655 97.0496 38.1803 97.0058 38.1803H96.6698C96.6552 38.1803 96.6406 38.0916 96.6114 37.8996C96.5822 37.7224 96.553 37.5008 96.5384 37.2497C96.5091 36.9987 96.4799 36.7328 96.4653 36.4522C96.4507 36.1715 96.4361 35.95 96.4361 35.7727C96.4361 35.6693 96.4653 35.6103 96.5384 35.5807C96.6114 35.5512 96.6844 35.5364 96.7721 35.5364C96.8159 35.5364 96.8597 35.5512 96.9181 35.5807C96.9766 35.6103 97.0204 35.6546 97.0642 35.6989C97.108 35.7432 97.1519 35.8023 97.1957 35.8466C97.2395 35.8909 97.2541 35.9352 97.2833 35.9795C97.3856 36.2158 97.4878 36.4226 97.6047 36.6146C97.7069 36.8066 97.8384 36.9691 97.9699 37.102C98.1013 37.235 98.262 37.3384 98.4519 37.4122C98.6418 37.4861 98.8609 37.5156 99.1238 37.5156C99.3283 37.5156 99.489 37.4861 99.6058 37.4122C99.7373 37.3384 99.825 37.2497 99.898 37.1316C99.971 37.0134 100.015 36.8953 100.029 36.7476C100.044 36.5999 100.059 36.4522 100.059 36.2897C100.059 35.9795 99.971 35.7137 99.7811 35.4921C99.5912 35.2706 99.3575 35.0785 99.08 34.8865C98.8025 34.6945 98.4957 34.5025 98.1743 34.3105C97.853 34.1185 97.5463 33.8822 97.2687 33.6311C96.9912 33.38 96.7575 33.0698 96.5676 32.7153C96.3777 32.3609 96.29 31.9178 96.29 31.4008C96.29 31.1054 96.3777 30.81 96.5676 30.5146C96.7575 30.234 96.9912 29.9681 97.2979 29.7613C97.5901 29.5398 97.926 29.3625 98.3058 29.2296C98.671 29.0967 99.0508 29.0376 99.4159 29.0376C99.6058 29.0376 99.8103 29.0524 100 29.0967C100.19 29.1262 100.38 29.1705 100.541 29.2148C100.701 29.2591 100.847 29.3035 100.964 29.3478C101.081 29.3921 101.154 29.4216 101.183 29.4364C101.227 29.4659 101.256 29.5102 101.286 29.5841C101.315 29.6432 101.329 29.7613 101.344 29.8943C101.359 30.042 101.359 30.234 101.359 30.4703C101.359 30.7066 101.359 31.0316 101.359 31.4156C101.359 31.519 101.315 31.5928 101.242 31.6519C101.169 31.6962 101.081 31.7257 101.008 31.7257C100.935 31.7257 100.877 31.711 100.804 31.6814C100.745 31.6519 100.701 31.6224 100.672 31.5633C100.599 31.3713 100.511 31.1645 100.424 30.9725C100.336 30.7805 100.219 30.5885 100.102 30.4408C99.9856 30.2783 99.8396 30.1454 99.6789 30.0567C99.5182 29.9533 99.3283 29.909 99.1238 29.909C98.9923 29.909 98.8755 29.9238 98.744 29.9533C98.6126 29.9829 98.5103 30.042 98.4081 30.1306C98.3058 30.2192 98.2328 30.3521 98.1743 30.4998C98.1159 30.6623 98.0867 30.8543 98.0867 31.1054C98.0867 31.327 98.189 31.519 98.3789 31.6962C98.5687 31.8734 98.8171 32.0655 99.1092 32.2427C99.4013 32.4347 99.7227 32.6267 100.073 32.8483C100.424 33.0698 100.745 33.3061 101.037 33.5868C101.329 33.8674 101.578 34.1776 101.768 34.5468C101.958 34.9161 102.06 35.3296 102.06 35.8318C102.06 36.2011 101.972 36.526 101.782 36.8214C101.592 37.1168 101.359 37.3679 101.067 37.5599C100.774 37.7667 100.453 37.9144 100.088 38.0326C99.7227 38.1359 99.3721 38.195 99.0362 38.195C98.8609 38.195 98.6856 38.1803 98.5103 38.1507C98.335 38.1212 98.1743 38.0769 98.0283 38.0473C97.8822 38.003 97.7654 37.9735 97.6777 37.9439C97.6047 37.8996 97.5462 37.8849 97.5316 37.8849Z" fill="black"/>
<path d="M104.194 30.6624H103.493C103.406 30.6624 103.333 30.6476 103.289 30.6033C103.245 30.559 103.216 30.5147 103.201 30.4556C103.201 30.4261 103.201 30.3965 103.216 30.3522C103.23 30.3079 103.245 30.2931 103.26 30.2784C103.391 30.1897 103.523 30.1011 103.669 29.983C103.815 29.8796 103.961 29.7614 104.107 29.6433C104.253 29.5251 104.384 29.4069 104.53 29.2888C104.662 29.1706 104.793 29.0525 104.896 28.9638C104.954 28.89 105.042 28.7866 105.159 28.6537C105.261 28.5207 105.392 28.373 105.538 28.2401C105.684 28.1072 105.83 27.989 105.991 27.8856C106.152 27.7822 106.312 27.7231 106.488 27.7231C106.532 27.7231 106.575 27.7379 106.619 27.7675C106.663 27.797 106.692 27.8265 106.692 27.8561C106.692 27.9004 106.678 27.9742 106.663 28.0629C106.634 28.1515 106.619 28.2549 106.59 28.373C106.561 28.4912 106.532 28.6093 106.488 28.7275C106.444 28.8604 106.415 28.9786 106.385 29.0968C106.385 29.1411 106.4 29.1854 106.415 29.2149C106.429 29.2445 106.473 29.2592 106.546 29.274H108.927C109.029 29.274 109.102 29.2888 109.132 29.3331C109.161 29.3774 109.19 29.4069 109.219 29.466C109.234 29.4956 109.248 29.5694 109.263 29.658C109.278 29.7614 109.292 29.8648 109.307 29.983C109.321 30.1011 109.336 30.2193 109.336 30.3374C109.351 30.4556 109.351 30.5442 109.351 30.6328C109.351 30.6772 109.321 30.6919 109.278 30.6919H106.459C106.429 30.6919 106.415 30.6919 106.4 30.7067C106.4 30.7215 106.4 30.7362 106.4 30.7658V35.4479C106.4 35.6547 106.429 35.8319 106.473 35.9796C106.517 36.1273 106.59 36.2602 106.663 36.3636C106.736 36.467 106.824 36.5409 106.926 36.5852C107.028 36.6295 107.13 36.659 107.218 36.659C107.51 36.659 107.744 36.6147 107.919 36.5261C108.095 36.4375 108.255 36.3489 108.387 36.2455C108.518 36.1421 108.635 36.0535 108.737 35.9648C108.839 35.8762 108.942 35.8319 109.073 35.8319C109.161 35.8319 109.205 35.8615 109.234 35.9353C109.248 36.0092 109.263 36.0535 109.263 36.0978C109.263 36.1864 109.248 36.2455 109.234 36.2898C109.219 36.3341 109.19 36.3784 109.175 36.3932C109.175 36.4079 109.132 36.4523 109.073 36.5556C109.015 36.6443 108.927 36.7624 108.825 36.8954C108.723 37.0283 108.591 37.176 108.43 37.3237C108.27 37.4714 108.109 37.6191 107.919 37.7372C107.729 37.8702 107.525 37.9736 107.306 38.0622C107.087 38.1508 106.853 38.1951 106.605 38.1951C106.269 38.1951 105.947 38.136 105.655 38.0031C105.363 37.8702 105.115 37.7077 104.896 37.5009C104.676 37.2941 104.516 37.0431 104.399 36.7772C104.282 36.5113 104.224 36.2307 104.224 35.9353V30.6624H104.194Z" fill="black"/>
<path d="M113.337 29.082C113.367 29.0673 113.396 29.0525 113.41 29.0377C113.44 29.023 113.454 29.0229 113.469 29.0229C113.571 29.0229 113.629 29.0968 113.629 29.2445V30.8544C113.629 30.8692 113.629 30.8987 113.629 30.9283C113.629 30.9578 113.644 30.9726 113.688 30.9726C113.717 30.9726 113.746 30.9578 113.761 30.9431C113.776 30.9283 113.805 30.8987 113.819 30.884C113.936 30.7363 114.053 30.559 114.199 30.3818C114.345 30.1898 114.491 30.0273 114.652 29.8501C114.813 29.6876 114.973 29.5547 115.149 29.4365C115.324 29.3331 115.485 29.274 115.645 29.274C115.762 29.274 115.908 29.3036 116.083 29.3627C116.259 29.4217 116.434 29.4956 116.609 29.5842C116.785 29.6728 116.931 29.7615 117.048 29.8501C117.164 29.9387 117.223 30.0125 117.223 30.0716C117.223 30.1307 117.194 30.2341 117.135 30.3818C117.077 30.5295 117.004 30.692 116.931 30.8544C116.843 31.0169 116.755 31.1498 116.653 31.268C116.551 31.3862 116.463 31.4452 116.39 31.4452H116.376C116.259 31.4009 116.156 31.3566 116.04 31.3123C115.923 31.268 115.806 31.2089 115.689 31.1498C115.572 31.0908 115.455 31.0464 115.324 31.0169C115.207 30.9874 115.076 30.9578 114.959 30.9578C114.769 30.9578 114.594 31.0021 114.433 31.076C114.272 31.1498 114.126 31.2532 114.024 31.3714C113.907 31.4895 113.819 31.6372 113.746 31.7849C113.673 31.9326 113.644 32.0804 113.644 32.2133V36.2012C113.644 36.3784 113.688 36.5409 113.761 36.6591C113.834 36.7772 113.936 36.8806 114.053 36.9545C114.17 37.0283 114.301 37.0874 114.462 37.1317C114.608 37.176 114.754 37.2056 114.886 37.2351C115.017 37.2646 115.149 37.2794 115.265 37.2942C115.382 37.309 115.455 37.3237 115.514 37.3533C115.572 37.3828 115.601 37.4714 115.601 37.6191C115.601 37.7964 115.572 37.8998 115.514 37.9145H110.124C110.065 37.8998 110.036 37.8111 110.036 37.6191C110.036 37.4714 110.065 37.3828 110.124 37.3533C110.211 37.3089 110.314 37.2794 110.474 37.2646C110.635 37.2499 110.766 37.2056 110.927 37.1317C111.073 37.0726 111.205 36.9545 111.322 36.8215C111.438 36.6738 111.497 36.4671 111.497 36.1864V31.6372C111.497 31.4895 111.453 31.3714 111.38 31.2828C111.292 31.1941 111.19 31.1351 111.073 31.0908C110.942 31.0464 110.81 31.0169 110.664 30.9874C110.518 30.9578 110.387 30.9283 110.255 30.884C110.211 30.8692 110.182 30.8544 110.168 30.8249C110.138 30.8101 110.138 30.751 110.138 30.692C110.138 30.6624 110.153 30.6329 110.168 30.6033C110.182 30.5738 110.226 30.5443 110.284 30.5147L113.337 29.082Z" fill="black"/>
<path d="M120.319 43.8078C120.202 43.8078 120.1 43.793 119.997 43.7487C119.895 43.7044 119.793 43.6601 119.705 43.5862C119.618 43.5124 119.545 43.4385 119.501 43.3499C119.442 43.2613 119.428 43.1579 119.428 43.0397C119.428 42.8625 119.472 42.7296 119.559 42.6262C119.647 42.5376 119.764 42.4489 119.895 42.3899C120.027 42.3308 120.158 42.2717 120.304 42.2274C120.45 42.1831 120.567 42.124 120.669 42.0502C120.742 42.0058 120.815 41.9468 120.888 41.8729C120.961 41.8138 121.035 41.6957 121.093 41.5627L122.32 38.6826L118.741 31.1351C118.639 30.8397 118.478 30.5886 118.288 30.3818C118.084 30.1603 117.85 30.0125 117.558 29.9092C117.514 29.8944 117.456 29.8796 117.397 29.8648C117.339 29.8501 117.281 29.8353 117.222 29.8058C117.164 29.7762 117.12 29.7467 117.076 29.7024C117.032 29.6581 117.018 29.599 117.018 29.5399C117.018 29.4808 117.032 29.407 117.076 29.3479C117.12 29.2888 117.164 29.2593 117.251 29.2593H122.188C122.232 29.2593 122.247 29.3036 122.247 29.3774C122.247 29.4513 122.262 29.4956 122.262 29.5251C122.262 29.6138 122.232 29.6728 122.159 29.7024C122.086 29.7319 121.999 29.7615 121.896 29.7762C121.794 29.791 121.677 29.8058 121.56 29.8058C121.444 29.8058 121.327 29.8353 121.224 29.8648C121.122 29.9092 121.035 29.9682 120.961 30.0421C120.888 30.1307 120.859 30.2489 120.859 30.4113C120.859 30.4261 120.874 30.4704 120.903 30.5295C120.932 30.5886 120.947 30.6329 120.947 30.6329L123.269 35.6547C123.284 35.6843 123.299 35.7286 123.342 35.7876C123.372 35.8467 123.415 35.8763 123.459 35.8763C123.489 35.8763 123.503 35.8615 123.532 35.832C123.562 35.8024 123.576 35.7729 123.591 35.7286C123.605 35.6843 123.62 35.6547 123.635 35.6252C123.649 35.5956 123.649 35.5661 123.664 35.5513C123.956 34.8128 124.19 34.1777 124.394 33.6608C124.584 33.1438 124.759 32.7155 124.876 32.3758C125.008 32.036 125.095 31.7702 125.168 31.5782C125.227 31.3862 125.285 31.2385 125.314 31.1351C125.344 31.0317 125.358 30.9578 125.373 30.9135C125.373 30.8692 125.387 30.8249 125.387 30.7806C125.402 30.559 125.329 30.3818 125.198 30.2341C125.051 30.0864 124.876 29.983 124.686 29.9092C124.628 29.8944 124.555 29.8796 124.482 29.8648C124.394 29.8501 124.321 29.8353 124.233 29.8205C124.146 29.8058 124.087 29.7615 124.029 29.7171C123.971 29.6728 123.941 29.599 123.941 29.5104C123.941 29.4661 123.956 29.407 124 29.3479C124.044 29.2888 124.087 29.2593 124.146 29.2593H127.871C127.914 29.2593 127.944 29.2888 127.958 29.3627C127.973 29.4365 127.973 29.4808 127.973 29.5251C127.973 29.5694 127.973 29.6138 127.958 29.6433C127.944 29.6728 127.914 29.7024 127.871 29.7319C127.827 29.7615 127.754 29.7762 127.681 29.8058C127.593 29.8353 127.491 29.8501 127.345 29.8796C127.213 29.9092 127.096 29.9682 126.994 30.0716C126.892 30.175 126.79 30.2932 126.702 30.4261C126.614 30.559 126.541 30.7067 126.483 30.8544C126.425 31.0021 126.366 31.1351 126.308 31.268L121.473 43.1284C121.429 43.2465 121.356 43.3499 121.254 43.4385C121.166 43.5272 121.064 43.601 120.947 43.6453C120.83 43.6896 120.728 43.7487 120.611 43.7635C120.494 43.793 120.406 43.8078 120.319 43.8078Z" fill="black"/>
<path d="M43.0471 19.9987C43.0471 22.5982 40.9583 24.7103 38.3874 24.7103C35.8166 24.7103 33.7424 22.5982 33.7424 19.9987C33.7424 17.3991 35.8312 15.287 38.4021 15.287C40.9729 15.287 43.0471 17.3991 43.0471 19.9987ZM39.556 27.0587C37.6279 27.0587 36.0649 28.6391 36.0649 30.5888C36.0649 32.5384 37.6279 34.1188 39.556 34.1188C41.4841 34.1188 43.0471 32.5384 43.0471 30.5888C43.0471 28.6391 41.4841 27.0587 39.556 27.0587ZM40.7246 36.4673C40.0819 36.4673 39.4976 36.7331 39.074 37.1615C37.7739 38.476 36.693 38.476 35.3784 37.1615C35.1885 36.9695 34.9694 36.8218 34.7357 36.7036C33.0266 35.8765 32.1648 34.7096 33.3772 32.1396C33.5963 31.667 33.7278 31.1501 33.7278 30.5888C33.7278 28.6391 32.1648 27.0587 30.2367 27.0587C28.3085 27.0587 26.7456 28.6391 26.7456 30.5888C26.7456 32.1692 27.7827 33.5133 29.1996 33.9564C31.8581 34.8426 32.0918 36.2753 31.5221 38.092C31.4491 38.3283 31.4053 38.5646 31.4053 38.8157C31.4053 40.1155 32.4424 41.1642 33.7278 41.1642C34.3705 41.1642 34.9548 40.8983 35.3784 40.47C36.6784 39.1554 37.7593 39.1554 39.074 40.47C39.4976 40.8983 40.0819 41.1642 40.7246 41.1642C42.01 41.1642 43.0471 40.1155 43.0471 38.8157C43.0471 37.5307 42.01 36.4673 40.7246 36.4673ZM26.7602 36.4673C25.4748 36.4673 24.4377 37.5159 24.4377 38.8157C24.4377 40.1155 25.4748 41.1642 26.7602 41.1642C28.0456 41.1642 29.0827 40.1155 29.0827 38.8157C29.0827 37.5307 28.0456 36.4673 26.7602 36.4673ZM22.0567 27.2508C19.5297 26.3793 18.3903 24.9171 19.5297 21.52C19.6904 21.0473 19.778 20.5304 19.778 20.0134C19.778 17.8127 18.2881 15.9664 16.2869 15.4495C13.0003 14.5337 11.3643 12.7318 12.5767 8.15307C12.7228 7.62135 12.7958 7.04532 12.7958 6.46929C12.7958 2.89493 9.93282 0 6.39791 0C2.86299 0 0 2.89493 0 6.46929C0 9.7187 2.36635 12.4068 5.44845 12.8647C10.0789 13.5885 11.043 15.8483 10.5317 19.2602C10.4879 19.4965 10.4733 19.7476 10.4733 19.9987C10.4733 22.2289 12.007 24.09 14.0666 24.5774C17.5285 25.3897 18.1566 27.1621 17.5431 29.7764C17.4847 30.0275 17.4555 30.3082 17.4555 30.574C17.4555 32.5237 19.0184 34.1041 20.9466 34.1041C22.8747 34.1041 24.4377 32.5237 24.4377 30.574C24.4377 29.0379 23.4444 27.7234 22.0567 27.2508ZM20.669 12.8795C23.5028 13.2635 24.1163 15.5972 22.9331 17.3253C22.4073 18.0786 22.1005 19.0091 22.1005 19.9987C22.1005 22.5982 24.1893 24.7103 26.7602 24.7103C29.331 24.7103 31.4199 22.5982 31.4199 19.9987C31.4199 17.7536 29.8569 15.8778 27.7827 15.4052C25.7523 14.9473 24.6422 12.8204 26.4681 10.5901C26.6726 10.3538 26.8478 10.0879 27.0085 9.82209C28.104 8.04968 30.0906 8.04968 31.1861 9.82209C32.3109 11.6979 34.3413 12.9386 36.6638 12.9386C40.1987 12.9386 43.0617 10.0436 43.0617 6.46929C43.0617 2.89493 40.1987 0 36.6638 0C34.3413 0 32.3109 1.25545 31.1861 3.11648C30.0906 4.88889 28.104 4.88889 27.0085 3.11648C25.8692 1.25545 23.8388 0 21.5309 0C17.9959 0 15.1329 2.89493 15.1329 6.46929C15.1183 9.74824 17.5431 12.4659 20.669 12.8795Z" fill="black"/>
</g>
<defs>
<clipPath id="clip0">
<rect width="187" height="44" fill="white"/>
</clipPath>
</defs>
</svg>
