<svg width="14" height="14" viewBox="0 0 14 14" fill="none" xmlns="http://www.w3.org/2000/svg">
<path fill-rule="evenodd" clip-rule="evenodd" d="M7.0004 14C10.8664 14 14.0004 10.866 14.0004 7C14.0004 3.134 10.8664 0 7.0004 0C4.81264 0 2.85928 1.00365 1.57564 2.57564L0 1V6H0.0712891H2.10042H5L3.00001 4.00001C3.91221 2.78556 5.36455 2 7.0004 2C9.76187 2 12.0004 4.23857 12.0004 7C12.0004 9.76143 9.76187 12 7.0004 12C4.95004 12 3.18798 10.7659 2.41644 9H0.29028C1.15083 11.8915 3.8294 14 7.0004 14Z" fill="#8593AC"/>
</svg>
