<svg width="22" height="30" viewBox="0 0 22 30" fill="none" xmlns="http://www.w3.org/2000/svg">
<path d="M17.3516 24.6429C17.1611 24.6429 16.9722 24.5609 16.8365 24.4021C16.5859 24.1059 16.6116 23.6562 16.8966 23.3939C18.7665 21.6774 19.9031 19.2918 20.1006 16.6743C20.298 14.0442 19.5116 11.5426 17.8839 9.62808C17.8719 9.61559 16.7215 8.26488 16.112 7.71353C15.8252 7.45481 15.7943 7.00516 16.0433 6.70719C16.2922 6.40921 16.7267 6.37709 17.0117 6.63582C17.6899 7.24783 18.8626 8.62352 18.9124 8.6824C20.7874 10.8896 21.6957 13.7659 21.469 16.7849C21.2441 19.7736 19.9426 22.5018 17.8049 24.4645C17.6762 24.584 17.513 24.6429 17.3516 24.6429Z" fill="white"/>
<path d="M11.2927 26.4095C11.1021 26.4095 10.9132 26.3274 10.7776 26.1686C10.5269 25.8724 10.5527 25.4228 10.8377 25.1605L14.5121 21.7882C15.9527 20.4642 16.8112 18.6353 16.9296 16.6369C17.0481 14.6385 16.4128 12.7132 15.1388 11.2162C15.1285 11.2037 14.306 10.2313 13.7377 9.7388C13.4458 9.48722 13.4063 9.03579 13.6501 8.73424C13.8922 8.43091 14.3266 8.38987 14.6168 8.64324C15.2693 9.20708 16.1329 10.2295 16.1707 10.2741C17.6851 12.0548 18.4423 14.3459 18.3015 16.7261C18.1607 19.1046 17.1374 21.2832 15.4221 22.8605L11.7477 26.2311C11.6172 26.3506 11.4541 26.4095 11.2927 26.4095Z" fill="white"/>
<path d="M4.08071 29.2105C3.89184 29.2105 3.70468 29.1302 3.56904 28.9732C3.31664 28.6787 3.34068 28.2273 3.62398 27.965L12.0545 20.132C14.1406 18.2156 14.3415 14.9022 12.5095 12.7307L12.4734 12.6932C12.4631 12.6825 12.4545 12.6718 12.4442 12.6611C12.3086 12.5023 12.1214 12.4077 11.9137 12.397C11.7059 12.3845 11.5068 12.4559 11.3522 12.5987C11.0054 12.918 10.9831 13.3641 11.2938 13.737C12.015 14.5971 12.0991 15.5677 12.0991 16.2226C12.0991 17.3734 11.5531 18.4547 10.4731 19.4361L6.28706 23.2866C6.00375 23.5471 5.56935 23.5203 5.31695 23.2259C5.06455 22.9315 5.09202 22.4801 5.37533 22.2178L9.56482 18.3637C10.3461 17.6536 10.7238 16.9541 10.7238 16.2226C10.7238 15.7069 10.6671 15.1645 10.2568 14.6756C9.45321 13.7174 9.5322 12.3667 10.4388 11.5317C10.8663 11.1373 11.4175 10.941 11.9892 10.9749C12.5558 11.0089 13.0744 11.2658 13.4538 11.7012L13.4916 11.7404C13.5019 11.7511 13.5105 11.7618 13.5208 11.7725C15.8679 14.5328 15.619 18.7616 12.9628 21.2025L4.53571 29.032C4.40694 29.1498 4.24382 29.2105 4.08071 29.2105Z" fill="white"/>
<path d="M3.77067 21.0564C3.58009 21.0564 3.3895 20.9743 3.25385 20.8137L2.25799 19.6361C-1.03522 15.7517 -0.684953 9.78497 3.03923 6.33771L6.61575 3.10278C6.90249 2.84406 7.33517 2.87617 7.58414 3.17237C7.83311 3.47034 7.8022 3.91999 7.51718 4.17871L3.94581 7.40829C0.79167 10.331 0.492911 15.3948 3.28991 18.6922L4.28577 19.8698C4.53646 20.166 4.50727 20.6174 4.22396 20.8779C4.09347 20.9975 3.93207 21.0564 3.77067 21.0564Z" fill="white"/>
<path d="M6.10617 19.0049C5.91559 19.0049 5.725 18.9228 5.58936 18.7605L4.74802 17.7612C2.4026 15.0045 2.65328 10.7739 5.30777 8.33481L11.6555 2.38061C11.9371 2.11654 12.3715 2.13973 12.6256 2.43236C12.8798 2.72498 12.8574 3.17641 12.5758 3.44048L6.22293 9.40003C4.1299 11.3235 3.93245 14.6494 5.77994 16.8191L6.62299 17.8219C6.87368 18.1181 6.84449 18.5695 6.55775 18.8283C6.42897 18.946 6.26757 19.0049 6.10617 19.0049Z" fill="white"/>
<path d="M8.13244 16.7208C7.947 16.7208 7.76156 16.6423 7.62592 16.4888L7.43705 16.2747C5.85226 14.4137 6.01709 11.5767 7.79762 9.94048L18.3744 0.180381C18.6577 -0.0819108 19.0921 -0.0551463 19.3445 0.241047C19.5969 0.535456 19.5711 0.986883 19.2861 1.24917L8.70935 11.0093C7.49715 12.1245 7.38382 14.0586 8.45867 15.3201L8.63895 15.5253C8.89479 15.8162 8.8759 16.2676 8.59775 16.5335C8.46554 16.6584 8.29899 16.7208 8.13244 16.7208Z" fill="white"/>
</svg>
