<svg width="166" height="40" viewBox="0 0 166 40" fill="none" xmlns="http://www.w3.org/2000/svg">
<path d="M39.0087 19.5307C39.0087 30.2711 30.3199 38.9599 19.5795 38.9599C8.8392 38.9599 0.150391 30.2711 0.150391 19.5307C0.150391 8.79038 8.8392 0.101562 19.5795 0.101562C30.2797 0.101562 39.0087 8.79038 39.0087 19.5307Z" fill="white"/>
<path d="M19.5389 39.0407C30.3138 39.0407 39.0485 30.3059 39.0485 19.5311C39.0485 8.75623 30.3138 0.0214844 19.5389 0.0214844C8.76404 0.0214844 0.0292969 8.75623 0.0292969 19.5311C0.0292969 30.3059 8.76404 39.0407 19.5389 39.0407Z" fill="white"/>
<path d="M19.5391 19.5304L26.7797 15.5078L38.3246 24.9207L19.5391 19.5304Z" fill="url(#paint0_linear)"/>
<path d="M26.7793 15.5078L38.3242 24.9207L37.1576 24.3173L26.7793 15.8296V15.5078Z" fill="#E53121"/>
<path d="M19.5391 19.5304L26.7797 15.5078L26.7395 15.8296L20.1827 19.45L19.5391 19.5304Z" fill="#F08465"/>
<path d="M38.3246 24.9219L19.5391 19.5316L20.2229 19.4512L37.158 24.3185L38.3246 24.9219Z" fill="#B82B18"/>
<path d="M19.5391 19.5316L26.7797 15.509L24.9293 0.746094L19.5391 19.5316Z" fill="#F5B0AC"/>
<path d="M24.9293 0.746094L19.5391 19.5316L19.9815 19.0087L24.8489 2.03333L24.9293 0.746094Z" fill="#D47785"/>
<path d="M26.7785 15.509L24.9281 0.746094L24.8477 2.03333L26.5371 15.3481L26.7785 15.509Z" fill="#D99E9B"/>
<path d="M19.5391 19.5312L26.7797 15.5086L26.4982 15.3477L19.9413 18.968L19.5391 19.5312Z" fill="#F9D1CD"/>
<path d="M23.5613 26.7707L14.1484 38.3156L14.7518 37.149L23.2395 26.7305L23.5613 26.7707Z" fill="#F9F9FC"/>
<path d="M19.5391 19.5312L23.5617 26.7719L23.2399 26.7317L19.6195 20.1749L19.5391 19.5312Z" fill="#F3F2F9"/>
<path d="M14.1484 38.3168L19.5387 19.5312L19.6192 20.2151L14.7518 37.1502L14.1484 38.3168Z" fill="#DCDAEE"/>
<path d="M19.5391 19.5312L23.5617 26.7719L38.3246 24.9215L19.5391 19.5312Z" fill="#2B2B85"/>
<path d="M38.3246 24.9215L19.5391 19.5312L20.062 19.9737L37.0374 24.8411L38.3246 24.9215Z" fill="#484293"/>
<path d="M23.5625 26.7726L38.3254 24.9223L37.0382 24.8418L23.7234 26.5313L23.5625 26.7726Z" fill="#24236F"/>
<path d="M19.5391 19.5312L23.5617 26.7719L23.7226 26.4903L20.1022 19.9335L19.5391 19.5312Z" fill="#8F88C0"/>
<path d="M19.5394 19.5309L12.2988 23.5535L0.753906 14.1406L19.5394 19.5309Z" fill="url(#paint1_linear)"/>
<path d="M12.2988 23.5535L0.753906 14.1406L1.92046 14.744L12.339 23.2317L12.2988 23.5535Z" fill="#BBB7DB"/>
<path d="M19.5376 19.5312L12.2969 23.5538L12.3371 23.232L18.8939 19.6117L19.5376 19.5312Z" fill="#B0AAD4"/>
<path d="M0.753906 14.1406L19.5394 19.5309L18.8556 19.6114L1.92046 14.744L0.753906 14.1406Z" fill="#D1CCE6"/>
<path d="M19.5376 19.5312L12.2969 23.5538L14.1473 38.3168L19.5376 19.5312Z" fill="#FFDD00"/>
<path d="M14.1484 38.3168L19.5387 19.5312L19.0962 20.0542L14.2691 37.0296L14.1484 38.3168Z" fill="#DBBB85"/>
<path d="M12.2969 23.5547L14.1473 38.3176L14.2277 37.0304L12.5382 23.7156L12.2969 23.5547Z" fill="#EBC536"/>
<path d="M19.5376 19.5312L12.2969 23.5538L12.5785 23.7148L19.1353 20.0944L19.5376 19.5312Z" fill="#FFE167"/>
<path d="M19.5382 19.5316L15.5156 12.291L24.9285 0.746094L19.5382 19.5316Z" fill="#E53121"/>
<path d="M15.5156 12.291L24.9285 0.746094L24.3251 1.91265L15.8374 12.3312L15.5156 12.291Z" fill="#EA583C"/>
<path d="M19.5382 19.5317L15.5156 12.291L15.8374 12.3312L19.4578 18.8881L19.5382 19.5317Z" fill="#D42F1E"/>
<path d="M24.9278 0.746094L19.5375 19.5316L19.457 18.8478L24.3244 1.91265L24.9278 0.746094Z" fill="#C22C1A"/>
<path d="M19.5394 19.5317L15.5168 12.291L0.753906 14.1414L19.5394 19.5317Z" fill="#F3F2F9"/>
<path d="M0.753906 14.1406L19.5394 19.5309L19.0165 19.0884L2.04114 14.2613L0.753906 14.1406Z" fill="#F9F8FB"/>
<path d="M15.5168 12.291L0.753906 14.1414L2.04114 14.2219L15.3559 12.5324L15.5168 12.291Z" fill="#DCDAEE"/>
<path d="M19.539 19.5317L15.5164 12.291L15.3555 12.5726L18.9758 19.1294L19.539 19.5317Z" fill="#F9F9FC"/>
<path d="M33.6185 5.97547C31.2049 3.48146 28.2282 1.71152 24.9297 0.746094L26.7801 15.509L33.6185 5.97547Z" fill="url(#paint2_linear)"/>
<path d="M24.9297 0.746094L26.7801 15.509L26.941 14.8252L25.2113 0.826546C25.1308 0.826546 25.0101 0.78632 24.9297 0.746094V0.746094Z" fill="#8F88C0"/>
<path d="M33.4174 5.77344L26.9812 14.8243L26.8203 15.5081L33.6185 5.93434C33.5381 5.89412 33.4978 5.81366 33.4174 5.77344V5.77344Z" fill="#A59FCE"/>
<path d="M33.6185 5.97547C31.2049 3.48146 28.2282 1.71152 24.9297 0.746094L25.2917 1.38971C28.2684 2.31491 30.9234 3.96417 33.1358 6.1766L33.6185 5.97547Z" fill="url(#paint3_linear)"/>
<path d="M26.7793 15.5093L33.5775 5.93555C35.9508 8.38933 37.6403 11.4465 38.4851 14.7853L26.7793 15.5093Z" fill="url(#paint4_linear)"/>
<path d="M33.6177 5.97461L26.7793 15.5082L27.3022 15.2266L33.7786 6.17574C33.7384 6.09529 33.6579 6.01484 33.6177 5.97461V5.97461Z" fill="#ED6F50"/>
<path d="M38.4456 14.543L27.3433 15.2268L26.8203 15.5084L38.5261 14.7843C38.4859 14.7039 38.4456 14.6234 38.4456 14.543V14.543Z" fill="#A62714"/>
<path d="M37.921 14.5841C37.1164 11.6074 35.5878 8.87204 33.4961 6.57916L33.6168 5.93555C35.9901 8.38933 37.6796 11.4465 38.5243 14.7853L37.921 14.5841Z" fill="url(#paint5_linear)"/>
<path d="M26.7793 15.5092L38.4851 14.7852C39.2896 18.0032 39.2896 21.4627 38.3242 24.8819L26.7793 15.5092Z" fill="url(#paint6_linear)"/>
<path d="M38.5261 14.8242L26.8203 15.5483L27.5042 15.7494L38.6065 15.0656C38.5663 14.9851 38.5261 14.9047 38.5261 14.8242V14.8242Z" fill="#D1CEE8"/>
<path d="M38.3242 24.9215C38.3644 24.841 38.3644 24.7204 38.4046 24.6399L27.4631 15.75L26.7793 15.5488L38.3242 24.9215Z" fill="#F3F2F9"/>
<path d="M37.9629 24.2773C38.7674 21.1799 38.7674 18.0423 38.0433 15.1058L38.5261 14.8242C39.3306 18.0423 39.3306 21.5017 38.3652 24.9209L37.9629 24.2773Z" fill="url(#paint7_linear)"/>
<path d="M5.98329 5.49219C3.56973 7.78507 1.75956 10.7216 0.753906 14.1408L15.5168 12.2904L5.98329 5.49219Z" fill="url(#paint8_linear)"/>
<path d="M0.753906 14.1402L15.5168 12.2898L14.833 12.1289L0.834358 13.8586C0.834358 13.9391 0.794132 14.0598 0.753906 14.1402V14.1402Z" fill="#FFCB00"/>
<path d="M5.78125 5.65309L14.8321 12.0893L15.5159 12.2502L5.98238 5.49219C5.90193 5.53241 5.8617 5.61287 5.78125 5.65309V5.65309Z" fill="#FFDD00"/>
<path d="M5.98329 5.49219C3.48927 7.86552 1.71933 10.8422 0.753906 14.1408L1.39752 13.7787C2.32272 10.802 3.97199 8.1471 6.18442 5.93467C6.22464 5.9749 5.98329 5.49219 5.98329 5.49219V5.49219Z" fill="#FFF8C7"/>
<path d="M15.516 12.2897L5.98242 5.49156C8.43621 3.11822 11.4934 1.42873 14.8321 0.583984L15.516 12.2897Z" fill="url(#paint9_linear)"/>
<path d="M5.98242 5.49156L15.5562 12.2897L15.2746 11.7668L6.18355 5.29043C6.1031 5.37088 6.02265 5.4111 5.98242 5.49156ZM14.5506 0.62421L15.2344 11.7266L15.516 12.2495L14.8321 0.583984L14.5506 0.62421Z" fill="#E53121"/>
<path d="M14.59 1.18737C11.6133 1.99189 8.8779 3.52048 6.58502 5.61223L5.94141 5.49156C8.39519 3.11822 11.4524 1.42873 14.7911 0.583984L14.59 1.18737Z" fill="url(#paint10_linear)"/>
<path d="M15.5159 12.2904L14.832 0.58465C18.0501 -0.21987 21.5095 -0.21987 24.9288 0.745554L15.5159 12.2904Z" fill="url(#paint11_linear)"/>
<path d="M14.832 0.584358L15.5561 12.2901L15.7572 11.6063L15.0734 0.503906C14.9929 0.544132 14.9125 0.544132 14.832 0.584358V0.584358Z" fill="#1E398E"/>
<path d="M24.9293 0.746468C24.8488 0.706242 24.7282 0.706242 24.6477 0.666016L15.7578 11.6075L15.5566 12.2913L24.9293 0.746468Z" fill="#2F2482"/>
<path d="M5.5 33.1285C7.87333 35.5823 10.8903 37.3924 14.1888 38.3176L12.3384 23.5547L5.5 33.1285Z" fill="#2B2B85"/>
<path d="M14.148 38.3176L12.2976 23.5547L12.1367 24.2385L13.9067 38.2372C13.9871 38.2774 14.0676 38.2774 14.148 38.3176Z" fill="#24236F"/>
<path d="M5.6609 33.2894L12.0971 24.2385L12.258 23.5547L5.5 33.1285L5.6609 33.2894Z" fill="#5B549F"/>
<path d="M5.5 33.1281C7.87333 35.5819 10.8903 37.392 14.1888 38.3172L13.8268 37.6736C10.8501 36.7484 8.19514 35.0991 5.98271 32.8867L5.5 33.1281Z" fill="url(#paint12_linear)"/>
<path d="M12.2995 23.5547L5.50132 33.1285C3.13711 30.6457 1.44766 27.5991 0.59375 24.2788L12.2995 23.5547Z" fill="url(#paint13_linear)"/>
<path d="M5.49996 33.1285L12.2982 23.5547L11.7752 23.8363L5.29883 32.9273C5.37928 32.9676 5.41951 33.048 5.49996 33.1285Z" fill="#B0AAD4"/>
<path d="M0.633976 24.5201L11.7363 23.8363L12.2593 23.5547L0.59375 24.2788C0.59375 24.3592 0.633976 24.4397 0.633976 24.5201V24.5201Z" fill="#DAD8ED"/>
<path d="M1.19714 24.4785C2.00166 27.4552 3.53025 30.1906 5.622 32.4834L5.50132 33.1271C3.13711 30.6443 1.44766 27.5977 0.59375 24.2773L1.19714 24.4785Z" fill="url(#paint14_linear)"/>
<path d="M12.2982 23.5543L0.592463 24.2784C-0.212057 21.0603 -0.212057 17.6009 0.753367 14.1816L12.2982 23.5543Z" fill="#E53121"/>
<path d="M0.592171 24.2787L12.2979 23.5546L11.6141 23.3535L0.511719 23.9971C0.551945 24.0776 0.551945 24.158 0.592171 24.2787V24.2787Z" fill="#CA2D0A"/>
<path d="M0.753504 14.1406C0.713278 14.2211 0.713278 14.3418 0.673052 14.4222L11.6145 23.3524L12.2984 23.5535L0.753504 14.1406ZM1.11554 14.7842C0.311018 17.8816 0.311018 21.0193 1.03509 23.9558L0.552374 24.2373C-0.252146 20.9388 -0.171694 17.4392 0.753504 14.1406L1.11554 14.7842Z" fill="#ED6F50"/>
<path d="M33.1363 33.6107C35.5901 31.2374 37.4002 28.2204 38.3254 24.9219L23.5625 26.7723L33.1363 33.6107Z" fill="url(#paint15_linear)"/>
<path d="M38.3254 24.9219L23.5625 26.7723L24.2463 26.9332L38.245 25.1632C38.2852 25.123 38.2852 25.0023 38.3254 24.9219Z" fill="#7B73B3"/>
<path d="M33.2972 33.4096L24.2463 26.9734L23.5625 26.8125L33.1363 33.6107C33.1765 33.5302 33.257 33.4498 33.2972 33.4096Z" fill="#D1CEE8"/>
<path d="M33.1359 33.6107C35.5092 31.3178 37.3596 28.3411 38.325 24.9219L37.6814 25.2839C36.7562 28.2606 35.107 30.9155 32.8945 33.128L33.1359 33.6107Z" fill="#655EA5"/>
<path d="M23.5625 26.7715L33.1363 33.5697C30.6825 35.943 27.6253 37.6325 24.2866 38.4772L23.5625 26.7715Z" fill="url(#paint16_linear)"/>
<path d="M33.1363 33.6099L23.5625 26.7715L23.8441 27.2944L32.8949 33.7708C32.9754 33.7306 33.0558 33.6501 33.1363 33.6099ZM24.5279 38.437L23.8441 27.3346L23.5625 26.8117L24.2866 38.5175C24.367 38.4772 24.4475 38.437 24.5279 38.437V38.437Z" fill="#E53121"/>
<path d="M24.4863 37.9151C27.463 37.1106 30.1984 35.582 32.4913 33.4902L33.1349 33.6109C30.6811 35.9842 27.6239 37.6737 24.2852 38.5185L24.4863 37.9151Z" fill="url(#paint17_linear)"/>
<path d="M23.5621 26.7715L24.2862 38.4772C21.0681 39.2818 17.6087 39.2818 14.1895 38.3163L23.5621 26.7715Z" fill="url(#paint18_linear)"/>
<path d="M24.2846 38.4772L23.5605 26.7715L23.3594 27.4553L24.0432 38.5577C24.0834 38.5175 24.2041 38.5175 24.2846 38.4772V38.4772Z" fill="#F5B0AC"/>
<path d="M14.1484 38.3163L14.43 38.3968L23.3602 27.4553L23.5613 26.7715L14.1484 38.3163Z" fill="#FAD9D5"/>
<path d="M14.7921 37.9551C17.8895 38.7596 21.0271 38.7596 23.9636 38.0355L24.2452 38.5182C20.9064 39.363 17.447 39.2825 14.1484 38.3573L14.7921 37.9551Z" fill="url(#paint19_linear)"/>
<path d="M59.4423 18.0031C58.7585 17.8422 55.2186 16.8768 55.0979 16.8365C53.4486 16.3538 53.0464 15.6298 53.0464 14.7046V13.7794C53.0464 13.0151 53.4888 12.4117 54.052 12.2106C54.4945 12.0497 54.9772 12.0094 55.822 12.0094H63.3442C63.5454 12.0094 63.7063 11.8485 63.7063 11.6474V9.91767C63.7063 9.15338 63.666 8.38909 62.942 7.7857C62.5397 7.46389 61.8156 7.18231 60.81 6.98118C59.7239 6.78005 57.9942 6.61914 55.6611 6.61914C51.92 6.61914 49.8283 7.38343 48.3801 9.0327C48.0181 9.43496 46.8516 11.1245 46.8516 13.7794V15.7102C47.1331 19.8133 49.8283 20.9798 52.6039 21.6637C53.2877 21.8246 56.6667 22.7498 56.7874 22.79C58.4366 23.2727 58.8791 23.9968 58.8791 24.922V26.0081C58.8791 26.7724 58.3964 27.3758 57.8333 27.5769C57.3908 27.7378 56.7874 27.778 55.9426 27.778H47.2136C47.0125 27.778 46.8516 27.9389 46.8516 28.14V29.025C46.8918 30.5134 47.0929 31.5995 48.0583 32.3236C48.8226 32.8867 50.311 33.6108 55.0979 33.6108H55.6208C58.3562 33.5303 60.1261 33.1281 61.3329 32.6051C62.3788 32.1224 62.9822 31.5995 63.4649 31.0363C64.1085 30.3525 65.0739 28.663 65.1946 26.4506V24.2784C64.9935 20.1753 62.2179 18.7272 59.4423 18.0031V18.0031ZM89.4911 6.98118H86.273C85.1065 6.98118 84.8249 7.26276 84.8249 8.42931V21.3419H84.664C83.8997 20.2558 77.4233 10.9635 75.9752 8.8718C75.1707 7.74547 74.0846 6.98118 72.4353 6.98118H70.1826C69.9815 6.98118 69.8206 7.14208 69.8206 7.34321V31.8408C69.8206 33.0074 70.062 33.289 71.2687 33.289H74.4868C75.6534 33.289 75.935 33.0074 75.935 31.8408V18.8881H76.0959L84.9858 31.5995C85.7903 32.6051 86.9167 33.2487 88.2843 33.2487H90.4968C90.6979 33.2487 90.8588 33.0878 90.8588 32.8867V8.38909C90.9393 7.26276 90.6979 6.98118 89.4911 6.98118V6.98118ZM114.029 24.2784C113.747 20.1753 110.972 18.7272 108.236 18.0433C107.553 17.8824 104.013 16.917 103.892 16.8768C102.243 16.3941 101.84 15.67 101.84 14.7448V13.8196C101.84 13.0553 102.283 12.4519 102.846 12.2508C103.289 12.0899 103.771 12.0496 104.616 12.0496H112.138C112.339 12.0496 112.5 11.8887 112.5 11.6876V9.9579C112.5 9.1936 112.46 8.42931 111.736 7.82592C111.334 7.50411 110.61 7.22253 109.604 7.0214C108.518 6.82027 106.788 6.65937 104.455 6.65937C100.714 6.65937 98.6224 7.42366 97.1743 9.07293C96.8122 9.47519 95.6457 11.1647 95.6457 13.8196V15.7504C95.9273 19.8535 98.6626 21.02 101.398 21.7039C102.082 21.8648 105.461 22.79 105.582 22.8302C107.231 23.3129 107.673 24.037 107.673 24.9622V26.0483C107.673 26.8126 107.191 27.416 106.627 27.6171C106.185 27.778 105.582 27.8182 104.737 27.8182H96.0077C95.8066 27.8182 95.6457 27.9791 95.6457 28.1803V29.0652C95.6859 30.5536 95.8871 31.6397 96.8525 32.3638C97.6168 32.9269 99.1051 33.651 103.892 33.651H104.415C107.15 33.5706 108.92 33.1683 110.127 32.6454C111.173 32.1626 111.776 31.6397 112.259 31.0765C112.903 30.3927 113.868 28.7032 113.989 26.4908C114.029 26.1287 114.029 24.4393 114.029 24.2784V24.2784Z" fill="white"/>
<path d="M133.55 11.9062C133.55 13.5514 133.08 14.8115 132.142 15.6865C131.207 16.5615 129.856 16.999 128.088 16.999H125.258V7.00488H128.396C130.027 7.00488 131.294 7.43555 132.196 8.29688C133.099 9.1582 133.55 10.3613 133.55 11.9062ZM131.349 11.9609C131.349 9.81445 130.401 8.74121 128.505 8.74121H127.377V15.249H128.286C130.328 15.249 131.349 14.153 131.349 11.9609Z" fill="white"/>
<path d="M141.377 16.999H135.621V7.00488H141.377V8.74121H137.74V10.9355H141.124V12.6719H137.74V15.249H141.377V16.999Z" fill="white"/>
<path d="M147.7 16.999L145.294 9.1582H145.232C145.319 10.7533 145.362 11.8174 145.362 12.3506V16.999H143.469V7.00488H146.354L148.719 14.6475H148.76L151.269 7.00488H154.153V16.999H152.178V12.2686C152.178 12.0452 152.18 11.7878 152.185 11.4961C152.194 11.2044 152.226 10.4297 152.28 9.17188H152.219L149.642 16.999H147.7Z" fill="white"/>
<path d="M165.747 11.9883C165.747 13.6426 165.337 14.9141 164.517 15.8027C163.696 16.6914 162.521 17.1357 160.989 17.1357C159.458 17.1357 158.282 16.6914 157.462 15.8027C156.642 14.9141 156.231 13.638 156.231 11.9746C156.231 10.3112 156.642 9.04199 157.462 8.16699C158.287 7.28743 159.467 6.84766 161.003 6.84766C162.539 6.84766 163.712 7.28971 164.523 8.17383C165.339 9.05794 165.747 10.3294 165.747 11.9883ZM158.453 11.9883C158.453 13.1048 158.665 13.9456 159.089 14.5107C159.513 15.0758 160.146 15.3584 160.989 15.3584C162.68 15.3584 163.525 14.235 163.525 11.9883C163.525 9.73698 162.685 8.61133 161.003 8.61133C160.16 8.61133 159.524 8.89616 159.096 9.46582C158.667 10.0309 158.453 10.8717 158.453 11.9883Z" fill="white"/>
<defs>
<linearGradient id="paint0_linear" x1="27.8687" y1="18.8922" x2="35.3279" y2="20.9983" gradientUnits="userSpaceOnUse">
<stop stop-color="#E53121"/>
<stop offset="1" stop-color="#C22C1A"/>
</linearGradient>
<linearGradient id="paint1_linear" x1="0.871395" y1="17.2507" x2="19.5905" y2="22.5361" gradientUnits="userSpaceOnUse">
<stop stop-color="#DCDAEE"/>
<stop offset="1" stop-color="#8F88C0"/>
</linearGradient>
<linearGradient id="paint2_linear" x1="32.9588" y1="10.0311" x2="23.0318" y2="7.37131" gradientUnits="userSpaceOnUse">
<stop stop-color="#7B73B3"/>
<stop offset="1" stop-color="#C6C2E2"/>
</linearGradient>
<linearGradient id="paint3_linear" x1="33.8249" y1="5.89744" x2="24.873" y2="0.728797" gradientUnits="userSpaceOnUse">
<stop stop-color="#6C62A8"/>
<stop offset="1" stop-color="#CBCAE6"/>
</linearGradient>
<linearGradient id="paint4_linear" x1="29.1723" y1="8.4014" x2="34.5059" y2="17.6397" gradientUnits="userSpaceOnUse">
<stop stop-color="#E53121"/>
<stop offset="1" stop-color="#A62714"/>
</linearGradient>
<linearGradient id="paint5_linear" x1="33.6365" y1="5.98865" x2="38.8051" y2="14.9409" gradientUnits="userSpaceOnUse">
<stop stop-color="#E84D2C"/>
<stop offset="1" stop-color="#811F08"/>
</linearGradient>
<linearGradient id="paint6_linear" x1="32.0304" y1="13.4939" x2="36.5912" y2="26.0247" gradientUnits="userSpaceOnUse">
<stop stop-color="#F3F2F9"/>
<stop offset="1" stop-color="#BBB7DB"/>
</linearGradient>
<linearGradient id="paint7_linear" x1="36.7734" y1="19.3931" x2="39.8278" y2="20.2688" gradientUnits="userSpaceOnUse">
<stop stop-color="white"/>
<stop offset="1" stop-color="#BBB7DB"/>
</linearGradient>
<linearGradient id="paint8_linear" x1="3.16114" y1="9.75819" x2="15.5405" y2="13.2535" gradientUnits="userSpaceOnUse">
<stop stop-color="#FFF098"/>
<stop offset="1" stop-color="#FFD530"/>
</linearGradient>
<linearGradient id="paint9_linear" x1="6.62926" y1="3.32659" x2="17.7743" y2="7.38338" gradientUnits="userSpaceOnUse">
<stop stop-color="#F4A286"/>
<stop offset="1" stop-color="#E53121"/>
</linearGradient>
<linearGradient id="paint10_linear" x1="5.77004" y1="5.60137" x2="15.0079" y2="0.267808" gradientUnits="userSpaceOnUse">
<stop stop-color="#F4A286"/>
<stop offset="1" stop-color="#E53121"/>
</linearGradient>
<linearGradient id="paint11_linear" x1="14.4701" y1="4.89411" x2="23.8321" y2="7.5375" gradientUnits="userSpaceOnUse">
<stop stop-color="#4464AC"/>
<stop offset="1" stop-color="#1D3584"/>
</linearGradient>
<linearGradient id="paint12_linear" x1="5.04545" y1="34.1567" x2="14.6514" y2="36.9113" gradientUnits="userSpaceOnUse">
<stop stop-color="#5B62A2"/>
<stop offset="0.152" stop-color="#4C579A"/>
<stop offset="0.482" stop-color="#31438C"/>
<stop offset="0.776" stop-color="#213783"/>
<stop offset="1" stop-color="#1B3380"/>
</linearGradient>
<linearGradient id="paint13_linear" x1="6.42049" y1="23.6186" x2="7.27408" y2="33.3751" gradientUnits="userSpaceOnUse">
<stop stop-color="white"/>
<stop offset="1" stop-color="#DAD8ED"/>
</linearGradient>
<linearGradient id="paint14_linear" x1="-0.562345" y1="27.6672" x2="6.51703" y2="29.697" gradientUnits="userSpaceOnUse">
<stop stop-color="white"/>
<stop offset="1" stop-color="#D1CEE8"/>
</linearGradient>
<linearGradient id="paint15_linear" x1="24.6553" y1="26.1394" x2="37.7613" y2="29.8399" gradientUnits="userSpaceOnUse">
<stop stop-color="#D1CEE8"/>
<stop offset="1" stop-color="#7B73B3"/>
</linearGradient>
<linearGradient id="paint16_linear" x1="23.375" y1="26.7803" x2="29.4001" y2="37.2166" gradientUnits="userSpaceOnUse">
<stop stop-color="#E53121"/>
<stop offset="1" stop-color="#B02916"/>
</linearGradient>
<linearGradient id="paint17_linear" x1="24.1653" y1="38.7787" x2="33.4028" y2="33.4452" gradientUnits="userSpaceOnUse">
<stop stop-color="#E53121"/>
<stop offset="1" stop-color="#9D2511"/>
</linearGradient>
<linearGradient id="paint18_linear" x1="18.2756" y1="31.9437" x2="24.8759" y2="38.544" gradientUnits="userSpaceOnUse">
<stop stop-color="#F5B0AC"/>
<stop offset="1" stop-color="#EF8495"/>
</linearGradient>
<linearGradient id="paint19_linear" x1="14.2896" y1="38.5299" x2="24.4016" y2="38.5299" gradientUnits="userSpaceOnUse">
<stop stop-color="#F5B0AC"/>
<stop offset="1" stop-color="#EE788F"/>
</linearGradient>
</defs>
</svg>
