<svg width="141" height="48" viewBox="0 0 141 48" fill="none" xmlns="http://www.w3.org/2000/svg">
<path fill-rule="evenodd" clip-rule="evenodd" d="M12 0C5.37258 0 0 5.37258 0 12V36C0 42.6274 5.37258 48 12 48H129C135.627 48 141 42.6274 141 36V12C141 5.37258 135.627 0 129 0H12Z" fill="black"/>
<path fill-rule="evenodd" clip-rule="evenodd" d="M89.818 33.9576C90.6491 33.2226 91.063 32.2705 91.063 31.1004C91.063 30.1494 90.7797 29.3524 90.2119 28.7156C89.6421 28.0768 88.7562 27.5196 87.5501 27.0431C86.5642 26.6616 85.8848 26.3081 85.5109 25.9815C85.0811 25.6279 84.8673 25.1783 84.8673 24.6345C84.8673 24.1435 85.0548 23.729 85.4287 23.3889C85.8711 23.0085 86.4884 22.8173 87.2784 22.8173C88.278 22.8173 89.1712 23.0281 89.9613 23.4499L90.5227 21.6533C89.6768 21.2181 88.6172 21 87.3416 21C85.9111 21 84.7672 21.3608 83.9098 22.0833C83.0492 22.8049 82.6194 23.7321 82.6194 24.863C82.6194 26.5934 83.8455 27.9093 86.2998 28.8076C87.2015 29.1353 87.8472 29.4899 88.2338 29.8713C88.6225 30.2527 88.8163 30.7231 88.8163 31.2813C88.8163 31.9077 88.5814 32.4101 88.1105 32.7843C87.6376 33.1585 86.9792 33.3466 86.1334 33.3466C84.9547 33.3466 83.8729 33.0531 82.887 32.468L82.3666 34.3049C83.282 34.8765 84.4912 35.1618 85.9996 35.1618C87.6334 35.1618 88.9047 34.7608 89.818 33.9576ZM52.4422 34.9582H54.8343L50.2997 21.2016H47.5125L43 34.9582H45.3289L46.5772 30.9174H51.1318L52.4422 34.9582ZM49.5518 25.63L50.7368 29.2221H46.9732L48.1372 25.63C48.4426 24.4877 48.6649 23.6236 48.8029 23.0385H48.845C49.1916 24.3988 49.4265 25.263 49.5518 25.63ZM65.0454 33.8759C65.9745 32.897 66.439 31.5635 66.439 29.8765C66.439 28.3662 66.0409 27.1485 65.2424 26.2223C64.4461 25.2971 63.4507 24.8351 62.2583 24.8351C60.7331 24.8351 59.5965 25.4263 58.8476 26.611H58.8054L58.6801 25.0387H56.7051C56.7598 26.1551 56.7883 27.2436 56.7883 28.3042V39H59.034V33.7746H59.0761C59.6586 34.7132 60.6151 35.1825 61.9465 35.1825C63.18 35.1825 64.2133 34.7473 65.0454 33.8759ZM64.1512 29.9571C64.1512 28.9916 63.93 28.1957 63.4854 27.5692C62.9998 26.9159 62.3478 26.5893 61.5304 26.5893C60.9764 26.5893 60.4729 26.7712 60.0231 27.1299C59.5723 27.4917 59.2773 27.9641 59.1393 28.5492C59.0698 28.8221 59.0351 29.0454 59.0351 29.2211V30.875C59.0351 31.5966 59.2605 32.2054 59.7113 32.7026C60.1621 33.1999 60.7478 33.4479 61.4683 33.4479C62.3141 33.4479 62.9725 33.1275 63.4433 32.4887C63.9152 31.8488 64.1512 31.0053 64.1512 29.9571ZM76.6702 33.8759C77.6003 32.897 78.0648 31.5635 78.0648 29.8765C78.0648 28.3662 77.6656 27.1485 76.8703 26.2223C76.0719 25.2971 75.0764 24.8351 73.8851 24.8351C72.3588 24.8351 71.2223 25.4263 70.4744 26.611H70.4322L70.3069 25.0387H68.3319C68.3867 26.1551 68.4151 27.2436 68.4151 28.3042V39H70.6608V33.7746H70.703C71.2844 34.7132 72.2408 35.1825 73.5723 35.1825C74.8057 35.1825 75.8391 34.7473 76.6702 33.8759ZM75.7769 29.9571C75.7769 28.9916 75.5547 28.1957 75.1101 27.5692C74.6246 26.9159 73.9746 26.5893 73.1562 26.5893C72.6011 26.5893 72.0986 26.7712 71.6478 27.1299C71.197 27.4917 70.9031 27.9641 70.7651 28.5492C70.6966 28.8221 70.6608 29.0454 70.6608 29.2211V30.875C70.6608 31.5966 70.8862 32.2054 71.335 32.7026C71.7858 33.1988 72.3715 33.4479 73.094 33.4479C73.9399 33.4479 74.5982 33.1275 75.0691 32.4887C75.541 31.8488 75.7769 31.0053 75.7769 29.9571ZM98.4881 26.6926H96.0127V31.5087C96.0127 32.7336 96.4488 33.3456 97.3231 33.3456C97.7244 33.3456 98.0573 33.3115 98.3206 33.2433L98.3827 34.9168C97.9403 35.0791 97.3578 35.1608 96.6363 35.1608C95.7494 35.1608 95.0563 34.8951 94.5559 34.3648C94.0577 33.8335 93.807 32.9425 93.807 31.6906V26.6906H92.3323V25.0366H93.807V23.2204L96.0127 22.5671V25.0366H98.4881V26.6926ZM108.325 33.6723C109.212 32.6933 109.657 31.4415 109.657 29.9168C109.657 28.4334 109.227 27.2229 108.365 26.2854C107.465 25.3188 106.271 24.8361 104.788 24.8361C103.249 24.8361 102.025 25.3261 101.118 26.306C100.209 27.285 99.7563 28.544 99.7563 30.0811C99.7563 31.55 100.197 32.7688 101.077 33.7343C101.958 34.6998 103.139 35.1825 104.622 35.1825C106.161 35.1825 107.395 34.6801 108.325 33.6723ZM107.327 29.9881C107.327 29.0733 107.128 28.2887 106.724 27.6344C106.253 26.8425 105.58 26.4477 104.708 26.4477C103.805 26.4477 103.12 26.8436 102.649 27.6344C102.245 28.2897 102.046 29.0867 102.046 30.0295C102.046 30.9443 102.245 31.7289 102.649 32.3822C103.134 33.174 103.813 33.5689 104.688 33.5689C105.545 33.5689 106.219 33.1657 106.704 32.3615C107.118 31.6948 107.327 30.9019 107.327 29.9881ZM116.249 26.9159C116.497 26.9159 116.734 26.9366 116.956 26.9769V24.8754C116.79 24.8495 116.602 24.8351 116.395 24.8351C115.812 24.8351 115.272 25.0118 114.772 25.3664C114.26 25.7602 113.886 26.2854 113.649 26.9376H113.587L113.505 25.0397H111.548C111.604 25.9783 111.633 27.0193 111.633 28.1626L111.612 34.9582H113.856V29.7535C113.856 28.9647 114.044 28.3114 114.418 27.7946C114.848 27.2085 115.459 26.9159 116.249 26.9159ZM127 29.5291C127 29.924 126.974 30.2569 126.918 30.5287H120.181C120.207 31.5087 120.532 32.2581 121.158 32.775C121.726 33.2371 122.46 33.4686 123.362 33.4686C124.359 33.4686 125.269 33.3125 126.088 32.9993L126.44 34.5292C125.483 34.9386 124.354 35.1422 123.051 35.1422C121.484 35.1422 120.253 34.6894 119.358 33.7849C118.465 32.8804 118.017 31.6658 118.017 30.1421C118.017 28.6464 118.433 27.4007 119.266 26.4073C120.139 25.3468 121.317 24.8165 122.8 24.8165C124.257 24.8165 125.36 25.3468 126.109 26.4073C126.702 27.2498 127 28.2918 127 29.5291ZM124.422 27.2633C124.727 27.7398 124.873 28.3042 124.859 28.9575V28.9565H120.181C120.249 28.2908 120.471 27.7191 120.845 27.2426C121.301 26.643 121.899 26.3443 122.633 26.3443C123.437 26.3443 124.034 26.6503 124.422 27.2633Z" fill="white"/>
<path fill-rule="evenodd" clip-rule="evenodd" d="M71.8847 9H72.9921V15.8928H71.8847V9ZM48.5648 15.125C49.3104 14.5286 49.6838 13.6406 49.6838 12.4609C49.6838 11.4105 49.3379 10.6037 48.6483 10.0394C48.0328 9.54023 47.12 9.29066 45.909 9.29066C45.2237 9.29066 44.5891 9.33677 44 9.42698V15.8727C44.4516 15.9248 44.991 15.9509 45.6214 15.9509C46.8926 15.9509 47.8741 15.6753 48.5648 15.125ZM47.8741 10.73C48.3014 11.1389 48.5151 11.7252 48.5151 12.49C48.5151 13.3459 48.2824 13.9974 47.8213 14.4444C47.3601 14.8915 46.7054 15.115 45.8572 15.115C45.4944 15.115 45.2448 15.106 45.1084 15.0859V10.1857C45.3548 10.1396 45.652 10.1176 46.0011 10.1176C46.8228 10.1176 47.4469 10.322 47.8741 10.73ZM55.8805 13.4913C55.8805 14.2179 55.6616 14.8133 55.2237 15.2804C54.7647 15.7605 54.1565 16 53.3971 16C52.6653 16 52.0825 15.7705 51.6478 15.3094C51.2142 14.8494 50.9974 14.269 50.9974 13.5694C50.9974 12.8378 51.2205 12.2374 51.669 11.7713C52.1174 11.3053 52.7203 11.0717 53.4796 11.0717C54.2115 11.0717 54.7996 11.3013 55.2448 11.7613C55.6679 12.2083 55.8805 12.7857 55.8805 13.4913ZM54.4336 12.4038C54.6314 12.7155 54.7308 13.0893 54.7308 13.5253C54.7308 13.9613 54.6282 14.3382 54.4231 14.6559C54.184 15.0398 53.8519 15.2312 53.4289 15.2312C52.9974 15.2312 52.6631 15.0428 52.4231 14.666C52.2253 14.3542 52.1259 13.9804 52.1259 13.5444C52.1259 13.0954 52.2242 12.7155 52.4231 12.4038C52.6557 12.0269 52.9942 11.8385 53.4395 11.8385C53.8699 11.8385 54.201 12.0269 54.4336 12.4038ZM64.1893 11.168L64.189 11.169H63.101L62.496 13.376C62.3458 13.9273 62.2327 14.4454 62.1576 14.9316H62.1269C62.0243 14.4324 61.8911 13.9142 61.7271 13.376L61.0492 11.169H60.146L59.4384 13.4241C59.2459 14.0325 59.1095 14.5357 59.027 14.9306H59.0069C58.917 14.4515 58.8049 13.9453 58.6684 13.4141L58.1047 11.168H56.9656L58.4326 15.8928H59.4595L60.146 13.8411C60.3173 13.3419 60.4506 12.8338 60.5468 12.3146H60.5669C60.6705 12.8197 60.8038 13.3289 60.9677 13.8411L61.614 15.8928H62.6293L64.189 11.169H64.1893V11.168ZM68.8271 15.8928H69.9355V13.0623C69.9355 12.3687 69.7441 11.8465 69.3612 11.4967C69.0534 11.2111 68.6663 11.0687 68.201 11.0687C67.8329 11.0687 67.4966 11.1579 67.1962 11.3343C66.9434 11.4857 66.7509 11.6751 66.6219 11.9046H66.5912L66.5394 11.166H65.5653C65.5918 11.6531 65.6055 12.1031 65.6055 12.518V15.8918H66.7139V13.0893C66.7139 12.7796 66.8176 12.509 67.0217 12.2795C67.2279 12.05 67.4934 11.9357 67.8223 11.9357C68.4929 11.9357 68.8271 12.3527 68.8271 13.1866V15.8928ZM78.8609 15.2804C79.2988 14.8133 79.5177 14.2179 79.5177 13.4913C79.5177 12.7857 79.3051 12.2083 78.8821 11.7613C78.4357 11.3013 77.8488 11.0717 77.1158 11.0717C76.3575 11.0717 75.7546 11.3053 75.3062 11.7713C74.8577 12.2374 74.6346 12.8378 74.6346 13.5694C74.6346 14.269 74.8514 14.8494 75.285 15.3094C75.7187 15.7705 76.3014 16 77.0344 16C77.7927 16 78.4019 15.7605 78.8609 15.2804ZM78.367 13.5253C78.367 13.0893 78.2676 12.7155 78.0698 12.4038C77.8382 12.0269 77.5061 11.8385 77.0767 11.8385C76.6304 11.8385 76.2919 12.0269 76.0603 12.4038C75.8614 12.7155 75.7631 13.0954 75.7631 13.5444C75.7631 13.9804 75.8625 14.3542 76.0603 14.666C76.3004 15.0428 76.6346 15.2312 77.0661 15.2312C77.4892 15.2312 77.8202 15.0398 78.0592 14.6559C78.2655 14.3382 78.367 13.9613 78.367 13.5253ZM83.8868 15.8928H84.8821C84.8345 15.6141 84.8102 15.2383 84.8102 14.7662V13.0262C84.8102 11.7232 84.1565 11.0717 82.8535 11.0717C82.1787 11.0717 81.6066 11.208 81.1433 11.4797L81.3686 12.1692C81.743 11.9367 82.1766 11.8194 82.6684 11.8194C83.3591 11.8194 83.7039 12.1302 83.7039 12.7526V12.8408C82.7805 12.8338 82.0635 12.9831 81.5537 13.2878C81.0428 13.5925 80.789 14.0325 80.789 14.6098C80.789 14.9917 80.9191 15.3134 81.1793 15.572C81.4659 15.8567 81.8466 16 82.3173 16C82.9476 16 83.4331 15.7825 83.7737 15.3485H83.8043L83.8868 15.8928ZM83.7314 14.269V13.5404C82.5087 13.5203 81.8974 13.8381 81.8974 14.4926C81.8974 14.7391 81.9672 14.9235 82.11 15.0468C82.2528 15.1701 82.4347 15.2312 82.6515 15.2312C82.8948 15.2312 83.1222 15.1581 83.3295 15.0127C83.5378 14.8664 83.6658 14.681 83.7134 14.4535C83.725 14.4023 83.7314 14.3402 83.7314 14.269ZM90.1967 15.8928H91.1803C91.1539 15.5039 91.1412 15.0799 91.1412 14.6198V9H90.0317V11.7122H90.0106C89.744 11.2842 89.2755 11.0707 88.606 11.0707C87.9968 11.0707 87.4849 11.2912 87.0672 11.7322C86.6356 12.2053 86.4209 12.8247 86.4209 13.5895C86.4209 14.3021 86.6187 14.8824 87.0153 15.3295C87.4119 15.7765 87.9122 16 88.513 16C89.2649 16 89.8001 15.7113 90.1142 15.134H90.1449L90.1967 15.8928ZM90.0317 13.9002V13.1124C90.0317 12.9761 90.0212 12.8658 90.0011 12.7816C89.9387 12.5291 89.8043 12.3166 89.6002 12.1452C89.394 11.9738 89.1454 11.8876 88.8588 11.8876C88.4453 11.8876 88.1216 12.043 87.8837 12.3547C87.6478 12.6664 87.5283 13.0643 87.5283 13.5504C87.5283 14.0175 87.6415 14.3963 87.8689 14.688C88.1089 14.9987 88.4326 15.1541 88.8377 15.1541C89.2015 15.1541 89.4923 15.0248 89.7134 14.7652C89.927 14.5256 90.0317 14.237 90.0317 13.9002ZM100.003 15.2804C100.441 14.8133 100.66 14.2179 100.66 13.4913C100.66 12.7857 100.447 12.2083 100.024 11.7613C99.5801 11.3013 98.991 11.0717 98.2602 11.0717C97.4997 11.0717 96.8969 11.3053 96.4484 11.7713C96 12.2374 95.7768 12.8378 95.7768 13.5694C95.7768 14.269 95.9937 14.8494 96.4273 15.3094C96.863 15.7705 97.4458 16 98.1766 16C98.9371 16 99.5442 15.7605 100.003 15.2804ZM99.5114 13.5253C99.5114 13.0893 99.412 12.7155 99.2142 12.4038C98.9804 12.0269 98.6505 11.8385 98.2189 11.8385C97.7747 11.8385 97.4363 12.0269 97.2025 12.4038C97.0037 12.7155 96.9053 13.0954 96.9053 13.5444C96.9053 13.9804 97.0048 14.3542 97.2025 14.666C97.4426 15.0428 97.7768 15.2312 98.2084 15.2312C98.6314 15.2312 98.9646 15.0398 99.2036 14.6559C99.4077 14.3382 99.5114 13.9613 99.5114 13.5253ZM105.512 15.8928H106.62V13.0623C106.62 12.3687 106.429 11.8465 106.045 11.4967C105.738 11.2111 105.351 11.0687 104.886 11.0687C104.517 11.0687 104.182 11.1579 103.88 11.3343C103.629 11.4857 103.436 11.6751 103.306 11.9046H103.276L103.224 11.166H102.251C102.277 11.6531 102.29 12.1031 102.29 12.518V15.8918H103.399V13.0893C103.399 12.7796 103.502 12.509 103.707 12.2795C103.912 12.05 104.178 11.9357 104.507 11.9357C105.178 11.9357 105.512 12.3527 105.512 13.1866V15.8928ZM114.078 11.9548H112.859V14.25C112.859 14.8333 113.076 15.125 113.505 15.125C113.704 15.125 113.869 15.109 113.999 15.0759L114.027 15.8727C113.809 15.9509 113.521 15.99 113.167 15.99C112.729 15.99 112.388 15.8637 112.142 15.6111C111.894 15.3585 111.772 14.9336 111.772 14.3372V11.9548H111.043V11.168H111.772V10.302L112.858 9.99127V11.167H114.078V11.9548ZM118.838 15.8928H119.947V13.0833C119.947 12.3837 119.759 11.8545 119.383 11.4987C119.082 11.2131 118.702 11.0707 118.243 11.0707C117.595 11.0707 117.095 11.3293 116.746 11.8475H116.724V9H115.617V15.8918H116.724V13.0503C116.724 12.9019 116.744 12.7756 116.776 12.6724C116.969 12.1813 117.32 11.9357 117.834 11.9357C118.503 11.9357 118.838 12.3597 118.838 13.2066V15.8928ZM126 13.3068C126 13.4953 125.985 13.6536 125.959 13.7829H122.635C122.649 14.25 122.808 14.6058 123.116 14.8524C123.397 15.0729 123.76 15.1831 124.204 15.1831C124.696 15.1831 125.144 15.109 125.548 14.9596L125.722 15.6893C125.249 15.8837 124.693 15.981 124.049 15.981C123.277 15.981 122.668 15.7655 122.228 15.3345C121.786 14.9035 121.567 14.3252 121.567 13.5995C121.567 12.8869 121.772 12.2935 122.183 11.8204C122.612 11.3153 123.193 11.0627 123.926 11.0627C124.643 11.0627 125.188 11.3153 125.556 11.8204C125.853 12.2214 126 12.7175 126 13.3068ZM124.728 12.2284C124.878 12.4549 124.951 12.7235 124.942 13.0352H122.635C122.671 12.7175 122.779 12.4459 122.964 12.2184C123.189 11.9327 123.484 11.7904 123.846 11.7904C124.242 11.7904 124.535 11.9367 124.728 12.2284Z" fill="white"/>
<path fill-rule="evenodd" clip-rule="evenodd" d="M27.3675 9C27.5435 10.597 26.9096 12.1708 25.9833 13.3276C25.0166 14.4663 23.4702 15.3374 21.964 15.2252C21.7669 13.6885 22.53 12.0544 23.3843 11.0574C24.3499 9.92605 26.0267 9.05927 27.3675 9ZM32.2982 18.2128C32.1301 18.3129 29.3445 19.973 29.375 23.3585C29.41 27.4469 32.9565 28.7984 33 28.8132C32.9788 28.9085 32.4446 30.7638 31.1144 32.6476C30.0036 34.3061 28.8398 35.9274 26.9913 35.9571C26.1125 35.9773 25.5191 35.7249 24.9007 35.462C24.2557 35.1877 23.5836 34.9019 22.5321 34.9019C21.4174 34.9019 20.7154 35.1969 20.0384 35.4814C19.4531 35.7273 18.8865 35.9655 18.0879 35.9983C16.3273 36.0629 14.9823 34.2277 13.8312 32.5841C11.5301 29.2281 9.73879 23.1268 12.1406 18.9749C13.3044 16.9386 15.4264 15.6273 17.6946 15.5924C18.6935 15.572 19.6514 15.9564 20.4913 16.2933C21.1335 16.551 21.7066 16.7809 22.176 16.7809C22.5883 16.7809 23.1453 16.5602 23.7945 16.3029C24.8177 15.8974 26.0698 15.4012 27.3453 15.5353C28.2176 15.5607 30.7 15.8792 32.3015 18.2108L32.2982 18.2128Z" fill="white"/>
</svg>
