<svg width="64" height="64" viewBox="0 0 64 64" fill="none" xmlns="http://www.w3.org/2000/svg">
<circle cx="32" cy="32" r="30" stroke="#562A71" stroke-width="4"/>
<path d="M27.7725 48C27.3785 48.0008 26.9882 47.9216 26.624 47.767C26.2599 47.6123 25.929 47.3852 25.6504 47.0987L12.9178 34.0019C12.631 33.7173 12.4021 33.3769 12.2445 33.0004C12.0869 32.6239 12.0039 32.219 12.0001 31.8091C11.9964 31.3993 12.0721 30.9928 12.2227 30.6133C12.3734 30.2339 12.596 29.8891 12.8776 29.5991C13.1593 29.3091 13.4942 29.0796 13.863 28.9241C14.2318 28.7687 14.6269 28.6903 15.0255 28.6936C15.424 28.6968 15.8179 28.7817 16.1842 28.9432C16.5506 29.1047 16.8819 29.3396 17.159 29.6342L27.7695 40.5456L46.8743 20.905C47.4371 20.3258 48.2006 20.0003 48.9968 20C49.793 19.9997 50.5567 20.3247 51.1199 20.9035C51.6832 21.4823 51.9997 22.2674 52 23.0862C52.0003 23.905 51.6843 24.6904 51.1214 25.2696L29.8945 47.0987C29.6159 47.3852 29.2851 47.6123 28.9209 47.767C28.5567 47.9216 28.1665 48.0008 27.7725 48Z" fill="#64CDF5"/>
</svg>
