<svg width="170" height="24" viewBox="0 0 170 24" fill="none" xmlns="http://www.w3.org/2000/svg">
<path d="M40.064 19.176C38.2187 19.176 36.816 18.6427 35.856 17.576C34.896 16.4987 34.416 15.0267 34.416 13.16C34.416 11.9013 34.672 10.808 35.184 9.88C35.696 8.94133 36.4 8.22667 37.296 7.736C38.192 7.23467 39.2053 6.984 40.336 6.984C40.784 6.984 41.216 7.01067 41.632 7.064C42.048 7.10667 42.5493 7.17067 43.136 7.256C43.5947 7.33067 43.9093 7.37333 44.08 7.384L43.888 10.952H42.176L41.632 8.504C41.3973 8.248 40.9067 8.12 40.16 8.12C39.3387 8.12 38.688 8.53067 38.208 9.352C37.7387 10.1627 37.504 11.3573 37.504 12.936C37.504 14.472 37.7333 15.704 38.192 16.632C38.6613 17.56 39.3387 18.024 40.224 18.024C40.6613 18.024 40.992 17.9813 41.216 17.896C41.4507 17.8107 41.648 17.688 41.808 17.528L42.528 15.816L44.096 15.96L43.808 18.568C43.4987 18.5893 43.12 18.6693 42.672 18.808C42.2453 18.9253 41.84 19.016 41.456 19.08C41.0827 19.144 40.6187 19.176 40.064 19.176ZM45.3138 14.6C45.3138 13.576 45.5164 12.712 45.9218 12.008C46.3271 11.2933 46.8711 10.76 47.5538 10.408C48.2471 10.056 49.0044 9.88 49.8258 9.88C51.1698 9.88 52.2204 10.2853 52.9778 11.096C53.7458 11.896 54.1298 13.016 54.1298 14.456C54.1298 15.512 53.9271 16.392 53.5218 17.096C53.1164 17.8 52.5724 18.3227 51.8898 18.664C51.2071 19.0053 50.4444 19.176 49.6018 19.176C48.2684 19.176 47.2178 18.776 46.4498 17.976C45.6924 17.1653 45.3138 16.04 45.3138 14.6ZM49.7618 18.056C50.2738 18.056 50.6524 17.784 50.8978 17.24C51.1538 16.6853 51.2818 15.8213 51.2818 14.648C51.2818 13.4 51.1591 12.4827 50.9138 11.896C50.6791 11.2987 50.2791 11 49.7138 11C48.6684 11 48.1458 12.136 48.1458 14.408C48.1458 15.6453 48.2738 16.5627 48.5298 17.16C48.7858 17.7573 49.1964 18.056 49.7618 18.056ZM55.5794 17.944L56.4274 17.8V11.784L55.4834 11.496V10.248L58.3954 9.896L58.5234 9.96L58.8434 10.408V11.208C59.1847 10.856 59.686 10.5573 60.3474 10.312C61.0087 10.056 61.574 9.928 62.0434 9.928C62.6194 9.928 63.0834 10.024 63.4354 10.216C63.798 10.408 64.07 10.7067 64.2514 11.112C64.614 10.7707 65.0674 10.488 65.6114 10.264C66.166 10.04 66.726 9.928 67.2914 9.928C68.23 9.928 68.902 10.2 69.3074 10.744C69.7234 11.288 69.9314 12.1787 69.9314 13.416V17.8L70.8914 17.944V19H66.5554V17.944L67.2754 17.8V13.48C67.2754 12.712 67.1847 12.1787 67.0034 11.88C66.8327 11.5813 66.5127 11.432 66.0434 11.432C65.5527 11.432 65.0407 11.64 64.5074 12.056C64.5714 12.4507 64.6034 12.904 64.6034 13.416V17.8L65.4994 17.944V19H61.1314V17.944L61.9314 17.8V13.432C61.9314 12.6747 61.846 12.152 61.6754 11.864C61.5154 11.576 61.206 11.432 60.7474 11.432C60.4487 11.432 60.15 11.5013 59.8514 11.64C59.5634 11.768 59.3127 11.928 59.0994 12.12V17.8L59.9634 17.944V19H55.5794V17.944ZM80.946 14.264C80.946 15.1493 80.7593 15.9653 80.386 16.712C80.0233 17.4587 79.4793 18.056 78.754 18.504C78.0393 18.952 77.1753 19.176 76.162 19.176C75.9913 19.176 75.8047 19.16 75.602 19.128C75.41 19.096 75.2607 19.0587 75.154 19.016L75.202 20.312V21.672L76.578 21.88V22.872H71.666V21.88L72.642 21.672V11.784L71.666 11.496V10.248L74.53 9.896H74.562L74.994 10.232V11.096C75.2393 10.7653 75.5807 10.4827 76.018 10.248C76.466 10.0027 76.9513 9.88 77.474 9.88C78.498 9.88 79.33 10.2427 79.97 10.968C80.6207 11.6827 80.946 12.7813 80.946 14.264ZM76.53 11.352C76.2527 11.352 75.9913 11.4107 75.746 11.528C75.5007 11.6347 75.3193 11.768 75.202 11.928V17.784C75.2767 17.88 75.4047 17.96 75.586 18.024C75.778 18.088 75.986 18.12 76.21 18.12C76.8073 18.12 77.282 17.832 77.634 17.256C77.9967 16.68 78.178 15.7467 78.178 14.456C78.178 13.4107 78.0287 12.632 77.73 12.12C77.4313 11.608 77.0313 11.352 76.53 11.352ZM81.9324 16.44C81.9324 15.5013 82.407 14.7813 83.3564 14.28C84.3164 13.7787 85.575 13.5227 87.1324 13.512V13.192C87.1324 12.808 87.0897 12.504 87.0044 12.28C86.919 12.056 86.7644 11.8907 86.5404 11.784C86.3164 11.6667 85.9857 11.608 85.5484 11.608C85.0257 11.608 84.5564 11.672 84.1404 11.8C83.735 11.9173 83.3084 12.0773 82.8604 12.28L82.3164 11.128C82.487 10.9893 82.7644 10.824 83.1484 10.632C83.5324 10.4293 83.991 10.2587 84.5244 10.12C85.0684 9.97067 85.6337 9.896 86.2204 9.896C87.0737 9.896 87.7404 10.008 88.2204 10.232C88.711 10.456 89.0577 10.8027 89.2604 11.272C89.4737 11.7413 89.5804 12.3813 89.5804 13.192V17.944H90.4124V18.952C90.167 19.0053 89.8257 19.0587 89.3884 19.112C88.951 19.1653 88.5777 19.192 88.2684 19.192C87.863 19.192 87.591 19.1333 87.4524 19.016C87.3244 18.8987 87.2604 18.664 87.2604 18.312V17.944C86.9937 18.264 86.6364 18.552 86.1884 18.808C85.7404 19.0533 85.223 19.176 84.6364 19.176C84.135 19.176 83.6764 19.0693 83.2604 18.856C82.855 18.632 82.5297 18.3173 82.2844 17.912C82.0497 17.496 81.9324 17.0053 81.9324 16.44ZM85.8844 17.704C86.0764 17.704 86.2897 17.6507 86.5244 17.544C86.759 17.4267 86.9617 17.288 87.1324 17.128V14.584C86.3004 14.584 85.6817 14.7333 85.2764 15.032C84.8817 15.3307 84.6844 15.7147 84.6844 16.184C84.6844 16.664 84.791 17.0373 85.0044 17.304C85.2177 17.5707 85.511 17.704 85.8844 17.704ZM92.1774 11.784L91.2334 11.496V10.248L94.1454 9.896H94.1934L94.6094 10.232V10.824L94.5934 11.192C94.9667 10.84 95.4414 10.5413 96.0174 10.296C96.5934 10.0507 97.196 9.928 97.8254 9.928C98.4654 9.928 98.9667 10.0453 99.3294 10.28C99.7027 10.504 99.9694 10.8667 100.129 11.368C100.3 11.8693 100.385 12.552 100.385 13.416V17.8L101.281 17.928V19H96.9294V17.944L97.7134 17.8V13.432C97.7134 12.92 97.676 12.5253 97.6014 12.248C97.5374 11.96 97.42 11.752 97.2494 11.624C97.0787 11.496 96.8334 11.432 96.5134 11.432C96.0227 11.432 95.468 11.6613 94.8494 12.12V17.8L95.7294 17.944V19H91.2974V17.944L92.1774 17.8V11.784ZM103.912 22.984C103.688 22.984 103.453 22.968 103.208 22.936C102.973 22.904 102.803 22.8613 102.696 22.808V20.888C102.771 20.9413 102.931 20.9893 103.176 21.032C103.421 21.0853 103.645 21.112 103.848 21.112C104.392 21.112 104.824 20.9413 105.144 20.6C105.464 20.2587 105.757 19.7253 106.024 19H105.096L102.104 11.32L101.4 11.128V10.104H106.12V11.128L105 11.32L106.328 15.576L106.808 17.192L107.192 15.576L108.424 11.304L107.464 11.128V10.104H111.08V11.128L110.312 11.304C109.864 12.68 109.315 14.296 108.664 16.152C108.024 18.008 107.667 19.0213 107.592 19.192C107.272 20.0773 106.947 20.7867 106.616 21.32C106.296 21.864 105.917 22.2747 105.48 22.552C105.043 22.84 104.52 22.984 103.912 22.984ZM116.433 8.44L115.281 8.232V7.112H120.465V8.232L119.153 8.44V12.264H123.537V8.456L122.337 8.232V7.112H127.457V8.232L126.273 8.44V17.784L127.457 17.944V19H122.337V17.944L123.537 17.768V13.624H119.153V17.784L120.465 17.944V19H115.249V17.944L116.433 17.784V8.44ZM128.783 14.6C128.783 13.576 128.985 12.712 129.391 12.008C129.796 11.2933 130.34 10.76 131.023 10.408C131.716 10.056 132.473 9.88 133.295 9.88C134.639 9.88 135.689 10.2853 136.447 11.096C137.215 11.896 137.599 13.016 137.599 14.456C137.599 15.512 137.396 16.392 136.991 17.096C136.585 17.8 136.041 18.3227 135.359 18.664C134.676 19.0053 133.913 19.176 133.071 19.176C131.737 19.176 130.687 18.776 129.919 17.976C129.161 17.1653 128.783 16.04 128.783 14.6ZM133.231 18.056C133.743 18.056 134.121 17.784 134.367 17.24C134.623 16.6853 134.751 15.8213 134.751 14.648C134.751 13.4 134.628 12.4827 134.383 11.896C134.148 11.2987 133.748 11 133.183 11C132.137 11 131.615 12.136 131.615 14.408C131.615 15.6453 131.743 16.5627 131.999 17.16C132.255 17.7573 132.665 18.056 133.231 18.056ZM146.216 19.16C145.832 19.16 145.555 19.08 145.384 18.92C145.213 18.7493 145.128 18.504 145.128 18.184V17.832C144.872 18.184 144.488 18.4987 143.976 18.776C143.464 19.0427 142.947 19.176 142.424 19.176C141.379 19.176 140.632 18.92 140.184 18.408C139.747 17.8853 139.528 17.016 139.528 15.8V11.352L138.776 11.144V10.12L141.784 9.912H141.8L142.152 10.136V15.864C142.152 16.5573 142.237 17.0427 142.408 17.32C142.579 17.5867 142.883 17.72 143.32 17.72C143.917 17.72 144.419 17.5173 144.824 17.112V11.352L143.832 11.112V10.12L147 9.912H147.048L147.432 10.136V17.896H148.28V18.92C147.917 18.9947 147.581 19.0533 147.272 19.096C146.973 19.1387 146.621 19.16 146.216 19.16ZM151.297 17.672C151.372 17.7893 151.542 17.896 151.809 17.992C152.086 18.088 152.364 18.136 152.641 18.136C153.078 18.136 153.409 18.0453 153.633 17.864C153.868 17.672 153.985 17.4267 153.985 17.128C153.985 16.808 153.836 16.5467 153.537 16.344C153.238 16.1307 152.748 15.8747 152.065 15.576L151.457 15.304C150.764 14.9947 150.241 14.6213 149.889 14.184C149.548 13.736 149.377 13.1707 149.377 12.488C149.377 11.9973 149.521 11.56 149.809 11.176C150.097 10.7813 150.513 10.472 151.057 10.248C151.601 10.024 152.241 9.912 152.977 9.912C153.489 9.912 153.932 9.944 154.305 10.008C154.678 10.072 155.057 10.152 155.441 10.248C155.697 10.3227 155.889 10.3653 156.017 10.376V12.552H154.593L154.177 11.32C154.124 11.224 153.996 11.1387 153.793 11.064C153.59 10.9787 153.361 10.936 153.105 10.936C152.7 10.936 152.38 11.0267 152.145 11.208C151.91 11.3787 151.793 11.6133 151.793 11.912C151.793 12.2533 151.926 12.5253 152.193 12.728C152.46 12.92 152.886 13.1493 153.473 13.416L153.809 13.56C154.673 13.9227 155.35 14.3173 155.841 14.744C156.332 15.16 156.577 15.736 156.577 16.472C156.577 17.2613 156.262 17.912 155.633 18.424C155.004 18.9253 154.076 19.176 152.849 19.176C152.284 19.176 151.782 19.128 151.345 19.032C150.908 18.9467 150.428 18.8293 149.905 18.68L149.377 18.536V16.408H150.897L151.297 17.672ZM161.878 19.176C160.417 19.176 159.334 18.7653 158.63 17.944C157.926 17.112 157.574 15.9813 157.574 14.552C157.574 13.5813 157.755 12.744 158.118 12.04C158.481 11.336 158.987 10.8027 159.638 10.44C160.299 10.0667 161.073 9.88 161.958 9.88C163.078 9.88 163.931 10.1627 164.518 10.728C165.115 11.2933 165.425 12.0933 165.446 13.128C165.446 13.8107 165.398 14.36 165.302 14.776H160.294C160.347 15.6827 160.566 16.376 160.95 16.856C161.345 17.3253 161.894 17.56 162.598 17.56C162.993 17.56 163.403 17.496 163.83 17.368C164.267 17.2293 164.619 17.0747 164.886 16.904L165.334 17.88C165.057 18.1893 164.582 18.4827 163.91 18.76C163.249 19.0373 162.571 19.176 161.878 19.176ZM162.902 13.72L162.918 13.048C162.918 12.376 162.827 11.864 162.646 11.512C162.465 11.16 162.155 10.984 161.718 10.984C161.27 10.984 160.923 11.1813 160.678 11.576C160.433 11.96 160.299 12.6747 160.278 13.72H162.902Z" fill="#F6F8FC"/>
<path d="M21.375 22H21V19.65C22.8 18.375 24 16.275 24 13.875C24 8.85 18.825 5.325 14.175 7.275C14.4 6.375 14.1 5.55 13.425 5.025L13.05 3.675L14.625 4.125V1.125L13.05 1.575L13.5 0H10.5L10.95 1.575L9.375 1.125V4.125L10.95 3.675L10.575 5.025C9.975 5.55 9.6 6.375 9.825 7.275C5.175 5.325 0 8.85 0 13.875C0 16.275 1.2 18.375 3 19.65V22H2.625C2.025 22 1.5 22.4 1.5 23C1.5 23.6 2.025 24 2.625 24H21.375C21.975 24 22.5 23.6 22.5 23C22.5 22.4 21.975 22 21.375 22ZM6 21C5.55 21 5.25 20.7 5.25 20.25C5.25 19.8 5.55 19.5 6 19.5C6.45 19.5 6.75 19.8 6.75 20.25C6.75 20.7 6.375 21 6 21ZM9 21C8.55 21 8.25 20.7 8.25 20.25C8.25 19.8 8.55 19.5 9 19.5C9.45 19.5 9.75 19.8 9.75 20.25C9.75 20.7 9.375 21 9 21ZM9.75 18H3.3C2.175 16.95 1.5 15.525 1.5 13.875C1.5 9.675 5.925 6.975 9.6 8.85C9.675 8.85 9.675 8.925 9.75 8.925V18ZM12 1.875C12.45 1.875 12.75 2.175 12.75 2.625C12.75 3.075 12.45 3.375 12 3.375C11.55 3.375 11.25 3.075 11.25 2.625C11.25 2.175 11.55 1.875 12 1.875ZM12 8.25C12.45 8.25 12.75 8.55 12.75 9C12.75 9.45 12.45 9.75 12 9.75C11.55 9.75 11.25 9.45 11.25 9C11.25 8.55 11.55 8.25 12 8.25ZM12 13.5C12.45 13.5 12.75 13.8 12.75 14.25C12.75 14.7 12.45 15 12 15C11.55 15 11.25 14.7 11.25 14.25C11.25 13.8 11.55 13.5 12 13.5ZM12 21C11.55 21 11.25 20.7 11.25 20.25C11.25 19.8 11.55 19.5 12 19.5C12.45 19.5 12.75 19.8 12.75 20.25C12.75 20.7 12.375 21 12 21ZM15 21C14.55 21 14.25 20.7 14.25 20.25C14.25 19.8 14.55 19.5 15 19.5C15.45 19.5 15.75 19.8 15.75 20.25C15.75 20.7 15.375 21 15 21ZM18 21C17.55 21 17.25 20.7 17.25 20.25C17.25 19.8 17.55 19.5 18 19.5C18.45 19.5 18.75 19.8 18.75 20.25C18.75 20.7 18.375 21 18 21ZM14.25 18V8.925C14.325 8.925 14.325 8.85 14.4 8.85C18.075 6.975 22.5 9.675 22.5 13.875C22.5 15.525 21.825 16.95 20.7 18H14.25Z" fill="#F6F8FC"/>
</svg>
