<svg width="24" height="24" viewBox="0 0 24 24" fill="none" xmlns="http://www.w3.org/2000/svg">
<path d="M21.375 22H21V19.65C22.8 18.375 24 16.275 24 13.875C24 8.85 18.825 5.325 14.175 7.275C14.4 6.375 14.1 5.55 13.425 5.025L13.05 3.675L14.625 4.125V1.125L13.05 1.575L13.5 0H10.5L10.95 1.575L9.375 1.125V4.125L10.95 3.675L10.575 5.025C9.975 5.55 9.6 6.375 9.825 7.275C5.175 5.325 0 8.85 0 13.875C0 16.275 1.2 18.375 3 19.65V22H2.625C2.025 22 1.5 22.4 1.5 23C1.5 23.6 2.025 24 2.625 24H21.375C21.975 24 22.5 23.6 22.5 23C22.5 22.4 21.975 22 21.375 22ZM6 21C5.55 21 5.25 20.7 5.25 20.25C5.25 19.8 5.55 19.5 6 19.5C6.45 19.5 6.75 19.8 6.75 20.25C6.75 20.7 6.375 21 6 21ZM9 21C8.55 21 8.25 20.7 8.25 20.25C8.25 19.8 8.55 19.5 9 19.5C9.45 19.5 9.75 19.8 9.75 20.25C9.75 20.7 9.375 21 9 21ZM9.75 18H3.3C2.175 16.95 1.5 15.525 1.5 13.875C1.5 9.675 5.925 6.975 9.6 8.85C9.675 8.85 9.675 8.925 9.75 8.925V18ZM12 1.875C12.45 1.875 12.75 2.175 12.75 2.625C12.75 3.075 12.45 3.375 12 3.375C11.55 3.375 11.25 3.075 11.25 2.625C11.25 2.175 11.55 1.875 12 1.875ZM12 8.25C12.45 8.25 12.75 8.55 12.75 9C12.75 9.45 12.45 9.75 12 9.75C11.55 9.75 11.25 9.45 11.25 9C11.25 8.55 11.55 8.25 12 8.25ZM12 13.5C12.45 13.5 12.75 13.8 12.75 14.25C12.75 14.7 12.45 15 12 15C11.55 15 11.25 14.7 11.25 14.25C11.25 13.8 11.55 13.5 12 13.5ZM12 21C11.55 21 11.25 20.7 11.25 20.25C11.25 19.8 11.55 19.5 12 19.5C12.45 19.5 12.75 19.8 12.75 20.25C12.75 20.7 12.375 21 12 21ZM15 21C14.55 21 14.25 20.7 14.25 20.25C14.25 19.8 14.55 19.5 15 19.5C15.45 19.5 15.75 19.8 15.75 20.25C15.75 20.7 15.375 21 15 21ZM18 21C17.55 21 17.25 20.7 17.25 20.25C17.25 19.8 17.55 19.5 18 19.5C18.45 19.5 18.75 19.8 18.75 20.25C18.75 20.7 18.375 21 18 21ZM14.25 18V8.925C14.325 8.925 14.325 8.85 14.4 8.85C18.075 6.975 22.5 9.675 22.5 13.875C22.5 15.525 21.825 16.95 20.7 18H14.25Z" fill="#BBC5D0"/>
</svg>
