<svg width="98" height="35" viewBox="0 0 98 35" fill="none" xmlns="http://www.w3.org/2000/svg">
<path d="M49.5469 12.6846C49.4967 13.8193 49.1777 14.6784 48.5898 15.2617C48.002 15.8451 47.1725 16.1367 46.1016 16.1367C44.9759 16.1367 44.1123 15.7676 43.5107 15.0293C42.9137 14.2865 42.6152 13.2292 42.6152 11.8574V10.1826C42.6152 8.81543 42.9251 7.7627 43.5449 7.02441C44.1647 6.28158 45.026 5.91016 46.1289 5.91016C47.2135 5.91016 48.0361 6.21322 48.5967 6.81934C49.1618 7.42546 49.4831 8.2959 49.5605 9.43066H47.5439C47.5257 8.72884 47.4163 8.24577 47.2158 7.98145C47.0199 7.71257 46.6576 7.57812 46.1289 7.57812C45.5911 7.57812 45.2106 7.76725 44.9873 8.14551C44.764 8.51921 44.6455 9.13672 44.6318 9.99805V11.8779C44.6318 12.8669 44.7412 13.5459 44.96 13.915C45.1833 14.2842 45.5638 14.4688 46.1016 14.4688C46.6302 14.4688 46.9948 14.3411 47.1953 14.0859C47.3958 13.8262 47.5098 13.359 47.5371 12.6846H49.5469ZM50.4629 12.0625C50.4629 10.9414 50.7272 10.0618 51.2559 9.42383C51.7845 8.78581 52.516 8.4668 53.4502 8.4668C54.3936 8.4668 55.1296 8.78581 55.6582 9.42383C56.1868 10.0618 56.4512 10.946 56.4512 12.0762V12.5479C56.4512 13.6735 56.1891 14.5531 55.665 15.1865C55.141 15.82 54.4072 16.1367 53.4639 16.1367C52.516 16.1367 51.7777 15.82 51.249 15.1865C50.7249 14.5485 50.4629 13.6644 50.4629 12.5342V12.0625ZM52.4043 12.5479C52.4043 13.8695 52.7575 14.5303 53.4639 14.5303C54.1156 14.5303 54.4665 13.9788 54.5166 12.876L54.5234 12.0625C54.5234 11.388 54.43 10.889 54.2432 10.5654C54.0563 10.2373 53.792 10.0732 53.4502 10.0732C53.1221 10.0732 52.8646 10.2373 52.6777 10.5654C52.4954 10.889 52.4043 11.388 52.4043 12.0625V12.5479ZM59.4795 8.60352L59.5342 9.28711C59.9671 8.74023 60.5391 8.4668 61.25 8.4668C61.9883 8.4668 62.5101 8.79948 62.8154 9.46484C63.2393 8.79948 63.8431 8.4668 64.627 8.4668C65.9212 8.4668 66.5843 9.3623 66.6162 11.1533V16H64.6816V11.2764C64.6816 10.848 64.6224 10.5426 64.5039 10.3604C64.3854 10.1781 64.1849 10.0869 63.9023 10.0869C63.5423 10.0869 63.2734 10.3079 63.0957 10.75L63.1094 10.9824V16H61.1748V11.29C61.1748 10.8662 61.1178 10.5609 61.0039 10.374C60.89 10.1826 60.6872 10.0869 60.3955 10.0869C60.0628 10.0869 59.7985 10.2669 59.6025 10.627V16H57.668V8.60352H59.4795ZM73.8145 12.5342C73.8145 13.6963 73.6139 14.5872 73.2129 15.207C72.8164 15.8268 72.224 16.1367 71.4355 16.1367C70.834 16.1367 70.3509 15.8929 69.9863 15.4053V18.8438H68.0518V8.60352H69.8428L69.9111 9.28027C70.2803 8.73796 70.7839 8.4668 71.4219 8.4668C72.2103 8.4668 72.8027 8.75391 73.1992 9.32812C73.6003 9.90234 73.8053 10.7819 73.8145 11.9668V12.5342ZM71.8867 12.0488C71.8867 11.3333 71.807 10.8275 71.6475 10.5312C71.4925 10.235 71.2282 10.0869 70.8545 10.0869C70.458 10.0869 70.1686 10.2533 69.9863 10.5859V14.0518C70.1595 14.3708 70.4535 14.5303 70.8682 14.5303C71.251 14.5303 71.5153 14.3685 71.6611 14.0449C71.8115 13.7214 71.8867 13.2178 71.8867 12.5342V12.0488ZM78.4971 16C78.4424 15.8861 78.3877 15.6947 78.333 15.4258C77.9867 15.8997 77.5173 16.1367 76.9248 16.1367C76.305 16.1367 75.79 15.9316 75.3799 15.5215C74.9743 15.1113 74.7715 14.5804 74.7715 13.9287C74.7715 13.154 75.0176 12.5547 75.5098 12.1309C76.0065 11.707 76.7197 11.4906 77.6494 11.4814H78.2373V10.8867C78.2373 10.554 78.1803 10.3193 78.0664 10.1826C77.9525 10.0459 77.7861 9.97754 77.5674 9.97754C77.0843 9.97754 76.8428 10.2601 76.8428 10.8252H74.9082C74.9082 10.1416 75.1634 9.57878 75.6738 9.13672C76.1888 8.6901 76.8382 8.4668 77.6221 8.4668C78.4333 8.4668 79.0599 8.67871 79.502 9.10254C79.9486 9.52181 80.1719 10.1234 80.1719 10.9072V14.3867C80.181 15.0247 80.2721 15.5238 80.4453 15.8838V16H78.4971ZM77.3555 14.6191C77.5697 14.6191 77.752 14.5758 77.9023 14.4893C78.0527 14.4027 78.1644 14.3001 78.2373 14.1816V12.6436H77.7725C77.4443 12.6436 77.1846 12.7484 76.9932 12.958C76.8063 13.1676 76.7129 13.4479 76.7129 13.7988C76.7129 14.3457 76.9271 14.6191 77.3555 14.6191ZM83.3438 8.60352L83.3984 9.33496C83.8359 8.75618 84.4079 8.4668 85.1143 8.4668C86.3857 8.4668 87.0397 9.35775 87.0762 11.1396V16H85.1348V11.2832C85.1348 10.8639 85.071 10.5609 84.9434 10.374C84.8203 10.1826 84.6016 10.0869 84.2871 10.0869C83.9362 10.0869 83.6628 10.2669 83.4668 10.627V16H81.5254V8.60352H83.3438ZM90.8359 12.7803L91.8203 8.60352H93.8848L91.4512 17.1074C91.0866 18.3607 90.4007 18.9873 89.3936 18.9873C89.1611 18.9873 88.8968 18.944 88.6006 18.8574V17.3467L88.8262 17.3535C89.127 17.3535 89.3525 17.2943 89.5029 17.1758C89.6579 17.0618 89.7741 16.8613 89.8516 16.5742L90.002 16.0752L87.8691 8.60352H89.9473L90.8359 12.7803ZM49.7793 32H47.7764V27.7412H44.8096V32H42.7998V22.0469H44.8096V26.0732H47.7764V22.0469H49.7793V32ZM51.0781 28.0625C51.0781 26.9414 51.3424 26.0618 51.8711 25.4238C52.3997 24.7858 53.1312 24.4668 54.0654 24.4668C55.0088 24.4668 55.7448 24.7858 56.2734 25.4238C56.8021 26.0618 57.0664 26.946 57.0664 28.0762V28.5479C57.0664 29.6735 56.8044 30.5531 56.2803 31.1865C55.7562 31.82 55.0225 32.1367 54.0791 32.1367C53.1312 32.1367 52.3929 31.82 51.8643 31.1865C51.3402 30.5485 51.0781 29.6644 51.0781 28.5342V28.0625ZM53.0195 28.5479C53.0195 29.8695 53.3727 30.5303 54.0791 30.5303C54.7308 30.5303 55.0817 29.9788 55.1318 28.876L55.1387 28.0625C55.1387 27.388 55.0452 26.889 54.8584 26.5654C54.6715 26.2373 54.4072 26.0732 54.0654 26.0732C53.7373 26.0732 53.4798 26.2373 53.293 26.5654C53.1107 26.889 53.0195 27.388 53.0195 28.0625V28.5479ZM61.9131 31.3232C61.512 31.8656 60.9743 32.1367 60.2998 32.1367C59.6208 32.1367 59.1058 31.9043 58.7549 31.4395C58.404 30.9701 58.2285 30.2887 58.2285 29.3955V24.6035H60.1631V29.4434C60.1722 30.1634 60.4115 30.5234 60.8809 30.5234C61.3229 30.5234 61.6419 30.332 61.8379 29.9492V24.6035H63.7861V32H61.9678L61.9131 31.3232ZM68.4414 30.0176C68.4414 29.8535 68.3617 29.7031 68.2021 29.5664C68.0472 29.4251 67.6986 29.236 67.1562 28.999C66.3587 28.6755 65.8096 28.3405 65.5088 27.9941C65.2126 27.6478 65.0645 27.2171 65.0645 26.7021C65.0645 26.055 65.2969 25.5218 65.7617 25.1025C66.2311 24.6787 66.8509 24.4668 67.6211 24.4668C68.4323 24.4668 69.0817 24.6764 69.5693 25.0957C70.057 25.515 70.3008 26.0778 70.3008 26.7842H68.3662C68.3662 26.1826 68.1156 25.8818 67.6143 25.8818C67.4092 25.8818 67.2406 25.9456 67.1084 26.0732C66.9762 26.2008 66.9102 26.3786 66.9102 26.6064C66.9102 26.7705 66.9831 26.9163 67.1289 27.0439C67.2747 27.167 67.6188 27.3447 68.1611 27.5771C68.9495 27.8688 69.5055 28.1947 69.8291 28.5547C70.1572 28.9102 70.3213 29.3727 70.3213 29.9424C70.3213 30.6032 70.0729 31.1341 69.5762 31.5352C69.0794 31.9362 68.4277 32.1367 67.6211 32.1367C67.0788 32.1367 66.6003 32.0319 66.1855 31.8223C65.7708 31.6081 65.445 31.3118 65.208 30.9336C64.9756 30.5553 64.8594 30.1475 64.8594 29.71H66.6982C66.7074 30.0472 66.7848 30.3001 66.9307 30.4688C67.0811 30.6374 67.3249 30.7217 67.6621 30.7217C68.1816 30.7217 68.4414 30.487 68.4414 30.0176ZM74.5117 32.1367C73.5182 32.1367 72.7435 31.8405 72.1875 31.248C71.6315 30.6556 71.3535 29.8079 71.3535 28.7051V28.1172C71.3535 26.9505 71.6087 26.0505 72.1191 25.417C72.6296 24.7835 73.361 24.4668 74.3135 24.4668C75.2432 24.4668 75.9427 24.7653 76.4121 25.3623C76.8815 25.9548 77.1208 26.8343 77.1299 28.001V28.9512H73.2812C73.3086 29.498 73.4294 29.8991 73.6436 30.1543C73.8577 30.4049 74.1882 30.5303 74.6348 30.5303C75.2819 30.5303 75.8219 30.3092 76.2549 29.8672L77.0137 31.0361C76.7767 31.3643 76.4326 31.6309 75.9814 31.8359C75.5303 32.0365 75.0404 32.1367 74.5117 32.1367ZM73.2949 27.5977H75.2295V27.4199C75.2204 26.9779 75.1475 26.6429 75.0107 26.415C74.874 26.1872 74.637 26.0732 74.2998 26.0732C73.9626 26.0732 73.7165 26.194 73.5615 26.4355C73.4111 26.6771 73.3223 27.0645 73.2949 27.5977Z" fill="black"/>
<path d="M28.5 29H28V26.2C30.4 24.5 32 21.7 32 18.5C32 11.8 25.1 7.1 18.9 9.7C19.2 8.5 18.8 7.4 17.9 6.7L17.4 4.9L19.5 5.5V1.5L17.4 2.1L18 0H14L14.6 2.1L12.5 1.5V5.5L14.6 4.9L14.1 6.7C13.3 7.4 12.8 8.5 13.1 9.7C6.9 7.1 0 11.8 0 18.5C0 21.7 1.6 24.5 4 26.2V29H3.5C2.7 29 2 29.7 2 30.5C2 31.3 2.7 32 3.5 32H28.5C29.3 32 30 31.3 30 30.5C30 29.7 29.3 29 28.5 29ZM8 28C7.4 28 7 27.6 7 27C7 26.4 7.4 26 8 26C8.6 26 9 26.4 9 27C9 27.6 8.5 28 8 28ZM12 28C11.4 28 11 27.6 11 27C11 26.4 11.4 26 12 26C12.6 26 13 26.4 13 27C13 27.6 12.5 28 12 28ZM13 24H4.4C2.9 22.6 2 20.7 2 18.5C2 12.9 7.9 9.3 12.8 11.8C12.9 11.8 12.9 11.9 13 11.9V24ZM16 2.5C16.6 2.5 17 2.9 17 3.5C17 4.1 16.6 4.5 16 4.5C15.4 4.5 15 4.1 15 3.5C15 2.9 15.4 2.5 16 2.5ZM16 11C16.6 11 17 11.4 17 12C17 12.6 16.6 13 16 13C15.4 13 15 12.6 15 12C15 11.4 15.4 11 16 11ZM16 18C16.6 18 17 18.4 17 19C17 19.6 16.6 20 16 20C15.4 20 15 19.6 15 19C15 18.4 15.4 18 16 18ZM16 28C15.4 28 15 27.6 15 27C15 26.4 15.4 26 16 26C16.6 26 17 26.4 17 27C17 27.6 16.5 28 16 28ZM20 28C19.4 28 19 27.6 19 27C19 26.4 19.4 26 20 26C20.6 26 21 26.4 21 27C21 27.6 20.5 28 20 28ZM24 28C23.4 28 23 27.6 23 27C23 26.4 23.4 26 24 26C24.6 26 25 26.4 25 27C25 27.6 24.5 28 24 28ZM19 24V11.9C19.1 11.9 19.1 11.8 19.2 11.8C24.1 9.3 30 12.9 30 18.5C30 20.7 29.1 22.6 27.6 24H19Z" fill="black"/>
</svg>
