<svg width="20" height="20" viewBox="0 0 20 20" fill="none" xmlns="http://www.w3.org/2000/svg">
<path d="M10 20C4.477 20 0 15.523 0 10C0 4.477 4.477 0 10 0C15.523 0 20 4.477 20 10C20 15.523 15.523 20 10 20ZM10 18C12.1217 18 14.1566 17.1571 15.6569 15.6569C17.1571 14.1566 18 12.1217 18 10C18 7.87827 17.1571 5.84344 15.6569 4.34315C14.1566 2.84285 12.1217 2 10 2C7.87827 2 5.84344 2.84285 4.34315 4.34315C2.84285 5.84344 2 7.87827 2 10C2 12.1217 2.84285 14.1566 4.34315 15.6569C5.84344 17.1571 7.87827 18 10 18ZM10 4C11.0609 4 12.0783 4.42143 12.8284 5.17157C13.5786 5.92172 14 6.93913 14 8V10C14 11.0609 13.5786 12.0783 12.8284 12.8284C12.0783 13.5786 11.0609 14 10 14C8.93913 14 7.92172 13.5786 7.17157 12.8284C6.42143 12.0783 6 11.0609 6 10V8C6 6.93913 6.42143 5.92172 7.17157 5.17157C7.92172 4.42143 8.93913 4 10 4ZM10 6C9.46957 6 8.96086 6.21071 8.58579 6.58579C8.21071 6.96086 8 7.46957 8 8V10C8 10.5304 8.21071 11.0391 8.58579 11.4142C8.96086 11.7893 9.46957 12 10 12C10.5304 12 11.0391 11.7893 11.4142 11.4142C11.7893 11.0391 12 10.5304 12 10V8C12 7.46957 11.7893 6.96086 11.4142 6.58579C11.0391 6.21071 10.5304 6 10 6ZM5.91 16.876C5.33398 16.5329 4.80319 16.119 4.33 15.644C4.92398 14.946 5.68102 14.4053 6.534 14.07C6.65695 14.0175 6.78916 13.9903 6.92283 13.9898C7.0565 13.9893 7.18891 14.0156 7.31223 14.0672C7.43555 14.1188 7.54728 14.1945 7.64082 14.29C7.73436 14.3855 7.8078 14.4988 7.85681 14.6231C7.90582 14.7475 7.9294 14.8804 7.92615 15.014C7.92291 15.1477 7.8929 15.2793 7.83792 15.4011C7.78293 15.523 7.70408 15.6325 7.60602 15.7234C7.50796 15.8142 7.39268 15.8845 7.267 15.93C6.735 16.14 6.274 16.468 5.909 16.876H5.91ZM14.054 16.898C13.6668 16.4697 13.1836 16.1394 12.644 15.934C12.5175 15.8901 12.4012 15.8213 12.3018 15.7316C12.2024 15.6419 12.1221 15.5332 12.0655 15.4119C12.009 15.2905 11.9773 15.1591 11.9725 15.0253C11.9677 14.8916 11.9897 14.7582 12.0374 14.6331C12.0851 14.508 12.1574 14.3938 12.25 14.2972C12.3427 14.2006 12.4538 14.1235 12.5767 14.0706C12.6997 14.0177 12.832 13.9901 12.9659 13.9893C13.0998 13.9885 13.2324 14.0146 13.356 14.066C14.2398 14.4021 15.0251 14.9547 15.64 15.673C15.1645 16.1459 14.6317 16.5575 14.054 16.898Z" fill="#4247DC"/>
</svg>
