<svg width="273" height="405" viewBox="0 0 273 405" fill="none" xmlns="http://www.w3.org/2000/svg">
<g filter="url(#filter0_d)">
<path fill-rule="evenodd" clip-rule="evenodd" d="M222.138 6H50.4173C30.1636 6 13.7448 22.4189 13.7448 42.6726V72.9455C12.781 72.9463 12 73.7279 12 74.6918V89.8265C12 90.7905 12.781 91.572 13.7448 91.5728V109.032C12.781 109.032 12 109.814 12 110.778V143.376C12 144.34 12.781 145.121 13.7448 145.122V154.438C12.781 154.439 12 155.22 12 156.184V188.782C12 189.746 12.781 190.527 13.7448 190.528V468.773C13.7448 489.026 30.1636 505.445 50.4173 505.445H222.138C242.392 505.445 258.811 489.026 258.811 468.773V42.6726C258.811 22.4189 242.392 6 222.138 6ZM16.6553 42.6726C16.6553 24.0263 31.7711 8.91052 50.4173 8.91052H222.138C240.784 8.91052 255.9 24.0263 255.9 42.6726V468.773C255.9 487.419 240.784 502.535 222.138 502.535H50.4173C31.7711 502.535 16.6553 487.419 16.6553 468.773V42.6726ZM260.558 177.138V122.42C260.558 121.455 259.777 120.674 258.812 120.674V178.884C259.777 178.884 260.558 178.102 260.558 177.138Z" fill="#AABBCC"/>
<mask id="mask0" mask-type="alpha" maskUnits="userSpaceOnUse" x="27" y="19" width="219" height="474">
<path d="M222.138 492.055H50.4177C37.5532 492.055 27.1335 481.635 27.1335 468.771V42.6709C27.1335 29.8064 37.5532 19.3867 50.4177 19.3867H222.138C235.003 19.3867 245.423 29.8064 245.423 42.6709V468.771C245.423 481.635 235.003 492.055 222.138 492.055Z" fill="white"/>
</mask>
<g mask="url(#mask0)">
<rect x="27.1335" y="19.3867" width="218.289" height="472.668" fill="url(#paint0_linear)"/>
<rect width="239.245" height="383.607" transform="matrix(1 0 0 -1 16.6487 497.297)" fill="#EEF2FA"/>
<rect x="16.6483" y="9.49609" width="239.245" height="104.197" fill="url(#paint1_linear)"/>
<g filter="url(#filter1_d)">
<rect x="33.5345" y="182.377" width="205.483" height="51.2251" rx="8" fill="white"/>
</g>
<path d="M87.2484 216.724H88.5581V214.304H90.3813C91.9215 214.304 93.0741 213.319 93.0741 211.915C93.0741 210.511 91.9215 209.526 90.3813 209.526H87.2484V216.724ZM88.5581 213.099V210.731H90.2346C91.1252 210.731 91.7434 211.181 91.7434 211.915C91.7434 212.648 91.1252 213.099 90.2346 213.099H88.5581Z" fill="#495875"/>
<path d="M96.5873 215.718C95.8119 215.718 95.2461 215.194 95.089 214.45H99.1753C99.1753 212.449 98.2009 211.181 96.5244 211.181C94.9842 211.181 93.7688 212.376 93.7688 214C93.7688 215.666 95.0471 216.85 96.5978 216.85C97.3836 216.85 98.3266 216.514 98.7981 216.011L97.9913 215.173C97.6875 215.488 97.0902 215.718 96.5873 215.718ZM96.5768 212.313C97.3417 212.313 97.8027 212.795 97.9494 213.476H95.0994C95.288 212.763 95.8643 212.313 96.5768 212.313Z" fill="#495875"/>
<path d="M101.593 212.355V211.307H100.315V216.724H101.593V213.989C101.593 212.962 102.368 212.271 103.532 212.271V211.181C102.641 211.181 101.939 211.632 101.593 212.355Z" fill="#495875"/>
<path d="M106.48 216.85C107.748 216.85 108.607 216.179 108.607 215.142C108.607 214.01 107.622 213.696 106.71 213.444C105.883 213.203 105.6 213.099 105.6 212.753C105.6 212.449 105.946 212.271 106.396 212.271C106.868 212.271 107.423 212.439 107.936 212.763L108.471 211.831C107.884 211.443 107.14 211.181 106.396 211.181C105.191 211.181 104.353 211.873 104.353 212.889C104.363 213.853 105.107 214.188 106.281 214.492C106.899 214.66 107.371 214.796 107.371 215.215C107.371 215.55 107.014 215.77 106.501 215.77C105.82 215.77 105.212 215.519 104.688 215.142L104.112 216.032C104.762 216.556 105.652 216.85 106.48 216.85Z" fill="#495875"/>
<path d="M112.337 216.85C113.909 216.85 115.239 215.55 115.239 214.01C115.239 212.47 113.909 211.181 112.337 211.181C110.765 211.181 109.435 212.47 109.435 214.01C109.435 215.55 110.765 216.85 112.337 216.85ZM112.337 215.76C111.436 215.76 110.682 214.964 110.682 214.01C110.682 213.067 111.436 212.271 112.337 212.271C113.228 212.271 113.982 213.067 113.982 214.01C113.982 214.964 113.228 215.76 112.337 215.76Z" fill="#495875"/>
<path d="M119.303 211.181C118.59 211.181 117.962 211.527 117.626 212.03V211.307H116.348V216.724H117.626V213.298C117.71 212.721 118.266 212.271 118.936 212.271C119.607 212.271 120.078 212.795 120.078 213.528V216.724H121.315V213.277C121.315 212.051 120.487 211.181 119.303 211.181Z" fill="#495875"/>
<path d="M125.06 211.181C124.379 211.181 123.666 211.37 122.901 211.747L123.341 212.638C123.803 212.407 124.295 212.229 124.808 212.229C125.793 212.229 126.139 212.837 126.139 213.465V213.612C125.647 213.423 125.112 213.319 124.62 213.319C123.404 213.319 122.409 214.052 122.409 215.121C122.409 216.169 123.279 216.85 124.431 216.85C125.06 216.85 125.741 216.577 126.139 216.074V216.724H127.386V213.465C127.386 212.093 126.495 211.181 125.06 211.181ZM124.714 215.917C124.106 215.917 123.656 215.592 123.656 215.079C123.656 214.566 124.169 214.209 124.808 214.209C125.29 214.209 125.741 214.283 126.139 214.419V215.027C125.992 215.603 125.332 215.917 124.714 215.917Z" fill="#495875"/>
<path d="M128.77 216.724H130.048V209.4H128.77V216.724Z" fill="#495875"/>
<path d="M134.491 216.724H135.791V209.526H134.491V216.724Z" fill="#495875"/>
<path d="M140.207 211.181C139.495 211.181 138.866 211.527 138.531 212.03V211.307H137.253V216.724H138.531V213.298C138.615 212.721 139.17 212.271 139.841 212.271C140.511 212.271 140.983 212.795 140.983 213.528V216.724H142.219V213.277C142.219 212.051 141.391 211.181 140.207 211.181Z" fill="#495875"/>
<path d="M145.241 210.856C145.241 210.49 145.472 210.228 145.776 210.228C145.996 210.228 146.195 210.312 146.31 210.427L146.677 209.609C146.373 209.348 145.933 209.18 145.524 209.18C144.623 209.18 143.995 209.83 143.995 210.741V211.307H143.209V212.365H143.995V216.724H145.241V212.365H146.467V211.307H145.241V210.856Z" fill="#495875"/>
<path d="M150.104 216.85C151.676 216.85 153.007 215.55 153.007 214.01C153.007 212.47 151.676 211.181 150.104 211.181C148.533 211.181 147.202 212.47 147.202 214.01C147.202 215.55 148.533 216.85 150.104 216.85ZM150.104 215.76C149.203 215.76 148.449 214.964 148.449 214.01C148.449 213.067 149.203 212.271 150.104 212.271C150.995 212.271 151.749 213.067 151.749 214.01C151.749 214.964 150.995 215.76 150.104 215.76Z" fill="#495875"/>
<path d="M155.425 212.355V211.307H154.147V216.724H155.425V213.989C155.425 212.962 156.201 212.271 157.364 212.271V211.181C156.473 211.181 155.771 211.632 155.425 212.355Z" fill="#495875"/>
<path d="M164.566 211.181C163.759 211.181 163.078 211.579 162.816 212.208C162.481 211.569 161.852 211.181 161.087 211.181C160.406 211.181 159.851 211.516 159.579 212.04V211.307H158.3V216.724H159.579V213.402C159.579 212.742 160.071 212.271 160.763 212.271C161.391 212.271 161.821 212.774 161.821 213.486V216.724H163.068V213.402C163.068 212.742 163.55 212.271 164.252 212.271C164.87 212.271 165.299 212.774 165.299 213.486V216.724H166.546V213.277C166.546 212.051 165.698 211.181 164.566 211.181Z" fill="#495875"/>
<path d="M170.287 211.181C169.606 211.181 168.893 211.37 168.128 211.747L168.568 212.638C169.029 212.407 169.522 212.229 170.035 212.229C171.02 212.229 171.366 212.837 171.366 213.465V213.612C170.873 213.423 170.339 213.319 169.847 213.319C168.631 213.319 167.636 214.052 167.636 215.121C167.636 216.169 168.505 216.85 169.658 216.85C170.287 216.85 170.968 216.577 171.366 216.074V216.724H172.613V213.465C172.613 212.093 171.722 211.181 170.287 211.181ZM169.941 215.917C169.333 215.917 168.883 215.592 168.883 215.079C168.883 214.566 169.396 214.209 170.035 214.209C170.517 214.209 170.968 214.283 171.366 214.419V215.027C171.219 215.603 170.559 215.917 169.941 215.917Z" fill="#495875"/>
<path d="M176.7 215.561C176.585 215.676 176.386 215.76 176.166 215.76C175.862 215.76 175.631 215.498 175.631 215.131V212.365H176.857V211.307H175.631V209.819H174.384V211.307H173.599V212.365H174.384V215.288C174.384 216.2 175.013 216.85 175.914 216.85C176.323 216.85 176.763 216.682 177.067 216.42L176.7 215.561Z" fill="#495875"/>
<path d="M178.709 210.49C179.107 210.49 179.432 210.144 179.432 209.756C179.432 209.368 179.107 209.033 178.709 209.033C178.3 209.033 177.975 209.368 177.975 209.756C177.975 210.144 178.3 210.49 178.709 210.49ZM178.059 216.724H179.337V211.307H178.059V216.724Z" fill="#495875"/>
<path d="M183.37 216.85C184.941 216.85 186.272 215.55 186.272 214.01C186.272 212.47 184.941 211.181 183.37 211.181C181.798 211.181 180.467 212.47 180.467 214.01C180.467 215.55 181.798 216.85 183.37 216.85ZM183.37 215.76C182.469 215.76 181.714 214.964 181.714 214.01C181.714 213.067 182.469 212.271 183.37 212.271C184.26 212.271 185.015 213.067 185.015 214.01C185.015 214.964 184.26 215.76 183.37 215.76Z" fill="#495875"/>
<path d="M190.335 211.181C189.623 211.181 188.994 211.527 188.659 212.03V211.307H187.381V216.724H188.659V213.298C188.743 212.721 189.298 212.271 189.969 212.271C190.639 212.271 191.111 212.795 191.111 213.528V216.724H192.347V213.277C192.347 212.051 191.519 211.181 190.335 211.181Z" fill="#495875"/>
<path d="M87.0056 202.749H87.9259V200.591H90.2799V202.749H91.2027V197.669H90.2799V199.82H87.9259V197.669H87.0056V202.749Z" fill="#8593AC"/>
<path d="M97.1622 200.209C97.1622 198.567 96.16 197.6 94.8279 197.6C93.4934 197.6 92.4937 198.567 92.4937 200.209C92.4937 201.849 93.4934 202.819 94.8279 202.819C96.16 202.819 97.1622 201.851 97.1622 200.209ZM96.2369 200.209C96.2369 201.365 95.6565 201.993 94.8279 201.993C94.0019 201.993 93.419 201.365 93.419 200.209C93.419 199.053 94.0019 198.426 94.8279 198.426C95.6565 198.426 96.2369 199.053 96.2369 200.209Z" fill="#8593AC"/>
<path d="M98.4513 197.669V202.749H99.3344V199.252H99.3815L100.786 202.734H101.445L102.849 199.259H102.896V202.749H103.78V197.669H102.653L101.145 201.35H101.086L99.5775 197.669H98.4513Z" fill="#8593AC"/>
<path d="M105.201 202.749H108.525V201.978H106.121V200.591H108.334V199.82H106.121V198.441H108.505V197.669H105.201V202.749Z" fill="#8593AC"/>
<path d="M116.554 200.209C116.554 198.567 115.552 197.6 114.22 197.6C112.885 197.6 111.886 198.567 111.886 200.209C111.886 201.849 112.885 202.819 114.22 202.819C115.552 202.819 116.554 201.851 116.554 200.209ZM115.629 200.209C115.629 201.365 115.048 201.993 114.22 201.993C113.394 201.993 112.811 201.365 112.811 200.209C112.811 199.053 113.394 198.426 114.22 198.426C115.048 198.426 115.629 199.053 115.629 200.209Z" fill="#8593AC"/>
<path d="M117.843 202.749H118.764V200.591H120.875V199.82H118.764V198.441H121.098V197.669H117.843V202.749Z" fill="#8593AC"/>
<path d="M122.355 202.749H123.276V200.591H125.387V199.82H123.276V198.441H125.61V197.669H122.355V202.749Z" fill="#8593AC"/>
<path d="M127.788 197.669H126.867V202.749H127.788V197.669Z" fill="#8593AC"/>
<path d="M133.552 199.383C133.395 198.254 132.527 197.6 131.401 197.6C130.074 197.6 129.074 198.567 129.074 200.209C129.074 201.849 130.062 202.819 131.401 202.819C132.609 202.819 133.41 202.037 133.552 201.067L132.624 201.062C132.507 201.658 132.021 201.993 131.413 201.993C130.59 201.993 130 201.375 130 200.209C130 199.063 130.585 198.426 131.416 198.426C132.034 198.426 132.517 198.775 132.624 199.383H133.552Z" fill="#8593AC"/>
<path d="M134.814 202.749H138.138V201.978H135.734V200.591H137.947V199.82H135.734V198.441H138.118V197.669H134.814V202.749Z" fill="#8593AC"/>
<circle cx="58.5595" cy="207.99" r="16.2989" fill="#9790EF"/>
<path d="M64.0138 213.23H63.7955V211.862C64.8433 211.12 65.5418 209.898 65.5418 208.501C65.5418 205.575 62.5294 203.524 59.8226 204.659C59.9536 204.135 59.779 203.655 59.386 203.349L59.1677 202.563L60.0846 202.825V201.079L59.1677 201.341L59.4297 200.424H57.6834L57.9453 201.341L57.0285 201.079V202.825L57.9453 202.563L57.727 203.349C57.3778 203.655 57.1595 204.135 57.2905 204.659C54.5837 203.524 51.5713 205.575 51.5713 208.501C51.5713 209.898 52.2698 211.12 53.3176 211.862V213.23H53.0993C52.75 213.23 52.4444 213.463 52.4444 213.812C52.4444 214.161 52.75 214.394 53.0993 214.394H64.0138C64.363 214.394 64.6686 214.161 64.6686 213.812C64.6686 213.463 64.363 213.23 64.0138 213.23ZM55.0639 212.648C54.802 212.648 54.6273 212.473 54.6273 212.211C54.6273 211.949 54.802 211.775 55.0639 211.775C55.3259 211.775 55.5005 211.949 55.5005 212.211C55.5005 212.473 55.2822 212.648 55.0639 212.648ZM56.8102 212.648C56.5483 212.648 56.3736 212.473 56.3736 212.211C56.3736 211.949 56.5483 211.775 56.8102 211.775C57.0722 211.775 57.2468 211.949 57.2468 212.211C57.2468 212.473 57.0285 212.648 56.8102 212.648ZM57.2468 210.902H53.4922C52.8374 210.29 52.4444 209.461 52.4444 208.501C52.4444 206.056 55.0203 204.484 57.1595 205.575C57.2031 205.575 57.2031 205.619 57.2468 205.619V210.902ZM58.5565 201.515C58.8185 201.515 58.9931 201.69 58.9931 201.952C58.9931 202.214 58.8185 202.388 58.5565 202.388C58.2946 202.388 58.12 202.214 58.12 201.952C58.12 201.69 58.2946 201.515 58.5565 201.515ZM58.5565 205.226C58.8185 205.226 58.9931 205.401 58.9931 205.663C58.9931 205.925 58.8185 206.099 58.5565 206.099C58.2946 206.099 58.12 205.925 58.12 205.663C58.12 205.401 58.2946 205.226 58.5565 205.226ZM58.5565 208.282C58.8185 208.282 58.9931 208.457 58.9931 208.719C58.9931 208.981 58.8185 209.155 58.5565 209.155C58.2946 209.155 58.12 208.981 58.12 208.719C58.12 208.457 58.2946 208.282 58.5565 208.282ZM58.5565 212.648C58.2946 212.648 58.12 212.473 58.12 212.211C58.12 211.949 58.2946 211.775 58.5565 211.775C58.8185 211.775 58.9931 211.949 58.9931 212.211C58.9931 212.473 58.7748 212.648 58.5565 212.648ZM60.3028 212.648C60.0409 212.648 59.8663 212.473 59.8663 212.211C59.8663 211.949 60.0409 211.775 60.3028 211.775C60.5648 211.775 60.7394 211.949 60.7394 212.211C60.7394 212.473 60.5211 212.648 60.3028 212.648ZM62.0492 212.648C61.7872 212.648 61.6126 212.473 61.6126 212.211C61.6126 211.949 61.7872 211.775 62.0492 211.775C62.3111 211.775 62.4857 211.949 62.4857 212.211C62.4857 212.473 62.2674 212.648 62.0492 212.648ZM59.8663 210.902V205.619C59.9099 205.619 59.9099 205.575 59.9536 205.575C62.0928 204.484 64.6686 206.056 64.6686 208.501C64.6686 209.461 64.2757 210.29 63.6208 210.902H59.8663Z" fill="white"/>
<g filter="url(#filter2_d)">
<rect x="33.5345" y="242.916" width="205.483" height="51.2251" rx="8" fill="white"/>
</g>
<path d="M87.342 277.259H91.0093C92.3505 277.259 93.304 276.452 93.304 275.3C93.304 274.514 92.8115 273.854 91.9837 273.456C92.6229 273.11 93.0001 272.596 93.0001 271.863C93.0001 270.815 92.12 270.061 90.8731 270.061H87.342V277.259ZM88.6413 273.005V271.192H90.5587C91.1979 271.192 91.6589 271.57 91.6589 272.104C91.6589 272.628 91.1979 273.005 90.5587 273.005H88.6413ZM88.6413 276.128V274.074H90.7473C91.4598 274.074 91.9628 274.503 91.9628 275.101C91.9628 275.698 91.4598 276.128 90.7473 276.128H88.6413Z" fill="#495875"/>
<path d="M98.1482 271.842V275.268C98.0644 275.845 97.5091 276.295 96.8385 276.295C96.1679 276.295 95.6964 275.771 95.6964 275.038V271.842H94.46V275.289C94.46 276.515 95.2878 277.385 96.4718 277.385C97.1843 277.385 97.813 277.039 98.1482 276.536V277.259H99.4265V271.842H98.1482Z" fill="#495875"/>
<path d="M102.837 277.385C104.104 277.385 104.964 276.714 104.964 275.677C104.964 274.545 103.979 274.231 103.067 273.98C102.239 273.739 101.956 273.634 101.956 273.288C101.956 272.984 102.302 272.806 102.753 272.806C103.224 272.806 103.78 272.974 104.293 273.298L104.827 272.366C104.241 271.978 103.497 271.716 102.753 271.716C101.548 271.716 100.71 272.408 100.71 273.424C100.72 274.388 101.464 274.723 102.637 275.027C103.256 275.195 103.727 275.331 103.727 275.75C103.727 276.086 103.371 276.306 102.857 276.306C102.176 276.306 101.569 276.054 101.045 275.677L100.469 276.568C101.118 277.091 102.009 277.385 102.837 277.385Z" fill="#495875"/>
<path d="M106.724 271.025C107.122 271.025 107.447 270.679 107.447 270.291C107.447 269.904 107.122 269.568 106.724 269.568C106.315 269.568 105.99 269.904 105.99 270.291C105.99 270.679 106.315 271.025 106.724 271.025ZM106.074 277.259H107.352V271.842H106.074V277.259Z" fill="#495875"/>
<path d="M111.72 271.716C111.008 271.716 110.379 272.062 110.044 272.565V271.842H108.765V277.259H110.044V273.833C110.127 273.257 110.683 272.806 111.353 272.806C112.024 272.806 112.495 273.33 112.495 274.063V277.259H113.732V273.812C113.732 272.586 112.904 271.716 111.72 271.716Z" fill="#495875"/>
<path d="M117.645 276.253C116.869 276.253 116.304 275.729 116.146 274.985H120.233C120.233 272.984 119.258 271.716 117.582 271.716C116.042 271.716 114.826 272.911 114.826 274.535C114.826 276.201 116.104 277.385 117.655 277.385C118.441 277.385 119.384 277.05 119.856 276.547L119.049 275.708C118.745 276.023 118.148 276.253 117.645 276.253ZM117.634 272.848C118.399 272.848 118.86 273.33 119.007 274.011H116.157C116.345 273.298 116.922 272.848 117.634 272.848Z" fill="#495875"/>
<path d="M123.342 277.385C124.61 277.385 125.469 276.714 125.469 275.677C125.469 274.545 124.484 274.231 123.573 273.98C122.745 273.739 122.462 273.634 122.462 273.288C122.462 272.984 122.808 272.806 123.258 272.806C123.73 272.806 124.285 272.974 124.798 273.298L125.333 272.366C124.746 271.978 124.002 271.716 123.258 271.716C122.053 271.716 121.215 272.408 121.215 273.424C121.226 274.388 121.969 274.723 123.143 275.027C123.761 275.195 124.233 275.331 124.233 275.75C124.233 276.086 123.876 276.306 123.363 276.306C122.682 276.306 122.074 276.054 121.55 275.677L120.974 276.568C121.624 277.091 122.514 277.385 123.342 277.385Z" fill="#495875"/>
<path d="M128.581 277.385C129.849 277.385 130.708 276.714 130.708 275.677C130.708 274.545 129.723 274.231 128.811 273.98C127.984 273.739 127.701 273.634 127.701 273.288C127.701 272.984 128.047 272.806 128.497 272.806C128.969 272.806 129.524 272.974 130.037 273.298L130.572 272.366C129.985 271.978 129.241 271.716 128.497 271.716C127.292 271.716 126.454 272.408 126.454 273.424C126.464 274.388 127.208 274.723 128.382 275.027C129 275.195 129.472 275.331 129.472 275.75C129.472 276.086 129.115 276.306 128.602 276.306C127.921 276.306 127.313 276.054 126.789 275.677L126.213 276.568C126.863 277.091 127.753 277.385 128.581 277.385Z" fill="#495875"/>
<path d="M138.904 269.935V272.68C138.474 272.073 137.825 271.716 137.028 271.716C135.593 271.716 134.545 272.89 134.545 274.545C134.545 276.211 135.593 277.385 137.028 277.385C137.825 277.385 138.474 277.029 138.904 276.421V277.259H140.182V269.935H138.904ZM137.374 276.295C136.462 276.295 135.813 275.562 135.813 274.545C135.813 273.529 136.462 272.806 137.374 272.806C138.275 272.806 138.904 273.529 138.904 274.545C138.904 275.562 138.275 276.295 137.374 276.295Z" fill="#495875"/>
<path d="M144.146 276.253C143.371 276.253 142.805 275.729 142.648 274.985H146.734C146.734 272.984 145.76 271.716 144.083 271.716C142.543 271.716 141.328 272.911 141.328 274.535C141.328 276.201 142.606 277.385 144.157 277.385C144.943 277.385 145.886 277.05 146.357 276.547L145.55 275.708C145.247 276.023 144.649 276.253 144.146 276.253ZM144.136 272.848C144.901 272.848 145.362 273.33 145.508 274.011H142.658C142.847 273.298 143.423 272.848 144.136 272.848Z" fill="#495875"/>
<path d="M150.546 276.096C150.43 276.211 150.231 276.295 150.011 276.295C149.707 276.295 149.477 276.033 149.477 275.666V272.9H150.703V271.842H149.477V270.354H148.23V271.842H147.444V272.9H148.23V275.824C148.23 276.735 148.859 277.385 149.76 277.385C150.169 277.385 150.609 277.217 150.912 276.955L150.546 276.096Z" fill="#495875"/>
<path d="M154.262 271.716C153.581 271.716 152.869 271.905 152.104 272.282L152.544 273.173C153.005 272.942 153.497 272.764 154.011 272.764C154.996 272.764 155.341 273.372 155.341 274V274.147C154.849 273.959 154.315 273.854 153.822 273.854C152.607 273.854 151.611 274.587 151.611 275.656C151.611 276.704 152.481 277.385 153.633 277.385C154.262 277.385 154.943 277.112 155.341 276.609V277.259H156.588V274C156.588 272.628 155.698 271.716 154.262 271.716ZM153.916 276.452C153.309 276.452 152.858 276.128 152.858 275.614C152.858 275.101 153.372 274.744 154.011 274.744C154.493 274.744 154.943 274.818 155.341 274.954V275.562C155.195 276.138 154.535 276.452 153.916 276.452Z" fill="#495875"/>
<path d="M158.622 271.025C159.02 271.025 159.345 270.679 159.345 270.291C159.345 269.904 159.02 269.568 158.622 269.568C158.213 269.568 157.889 269.904 157.889 270.291C157.889 270.679 158.213 271.025 158.622 271.025ZM157.972 277.259H159.251V271.842H157.972V277.259Z" fill="#495875"/>
<path d="M160.663 277.259H161.942V269.935H160.663V277.259Z" fill="#495875"/>
<path d="M165.356 277.385C166.624 277.385 167.483 276.714 167.483 275.677C167.483 274.545 166.498 274.231 165.586 273.98C164.759 273.739 164.476 273.634 164.476 273.288C164.476 272.984 164.821 272.806 165.272 272.806C165.744 272.806 166.299 272.974 166.812 273.298L167.347 272.366C166.76 271.978 166.016 271.716 165.272 271.716C164.067 271.716 163.229 272.408 163.229 273.424C163.239 274.388 163.983 274.723 165.157 275.027C165.775 275.195 166.246 275.331 166.246 275.75C166.246 276.086 165.89 276.306 165.377 276.306C164.696 276.306 164.088 276.054 163.564 275.677L162.988 276.568C163.637 277.091 164.528 277.385 165.356 277.385Z" fill="#495875"/>
<path d="M91.3494 259.93C91.1931 258.801 90.3249 258.146 89.1987 258.146C87.8716 258.146 86.8719 259.114 86.8719 260.756C86.8719 262.396 87.8592 263.366 89.1987 263.366C90.4067 263.366 91.208 262.584 91.3494 261.614L90.4216 261.609C90.305 262.205 89.8188 262.54 89.2111 262.54C88.3876 262.54 87.7972 261.922 87.7972 260.756C87.7972 259.61 88.3826 258.973 89.2136 258.973C89.8313 258.973 90.315 259.322 90.4216 259.93H91.3494Z" fill="#8593AC"/>
<path d="M97.1507 260.756C97.1507 259.114 96.1485 258.146 94.8165 258.146C93.4819 258.146 92.4822 259.114 92.4822 260.756C92.4822 262.396 93.4819 263.366 94.8165 263.366C96.1485 263.366 97.1507 262.398 97.1507 260.756ZM96.2254 260.756C96.2254 261.912 95.645 262.54 94.8165 262.54C93.9904 262.54 93.4075 261.912 93.4075 260.756C93.4075 259.6 93.9904 258.973 94.8165 258.973C95.645 258.973 96.2254 259.6 96.2254 260.756Z" fill="#8593AC"/>
<path d="M98.4398 258.216V263.296H99.3229V259.799H99.37L100.774 263.281H101.434L102.838 259.806H102.885V263.296H103.768V258.216H102.642L101.134 261.897H101.074L99.566 258.216H98.4398Z" fill="#8593AC"/>
<path d="M105.189 263.296H106.11V261.58H107.082C108.255 261.58 108.885 260.875 108.885 259.898C108.885 258.928 108.263 258.216 107.094 258.216H105.189V263.296ZM106.11 260.823V258.985H106.953C107.643 258.985 107.948 259.357 107.948 259.898C107.948 260.439 107.643 260.823 106.958 260.823H106.11Z" fill="#8593AC"/>
<path d="M110.19 263.296L110.609 262.043H112.519L112.941 263.296H113.923L112.132 258.216H110.996L109.208 263.296H110.19ZM110.857 261.304L111.544 259.258H111.584L112.271 261.304H110.857Z" fill="#8593AC"/>
<path d="M119.186 258.216H118.271V261.679H118.226L115.835 258.216H115.012V263.296H115.932V259.836H115.974L118.368 263.296H119.186V258.216Z" fill="#8593AC"/>
<path d="M120.261 258.216L122.109 261.401V263.296H123.027V261.401L124.875 258.216H123.835L122.593 260.463H122.543L121.3 258.216H120.261Z" fill="#8593AC"/>
<path d="M128.097 263.296H129.018V261.138H131.372V263.296H132.294V258.216H131.372V260.367H129.018V258.216H128.097V263.296Z" fill="#8593AC"/>
<path d="M138.254 260.756C138.254 259.114 137.252 258.146 135.92 258.146C134.585 258.146 133.586 259.114 133.586 260.756C133.586 262.396 134.585 263.366 135.92 263.366C137.252 263.366 138.254 262.398 138.254 260.756ZM137.329 260.756C137.329 261.912 136.748 262.54 135.92 262.54C135.094 262.54 134.511 261.912 134.511 260.756C134.511 259.6 135.094 258.973 135.92 258.973C136.748 258.973 137.329 259.6 137.329 260.756Z" fill="#8593AC"/>
<path d="M142.748 258.216V261.552C142.748 262.18 142.244 262.545 141.604 262.545C140.967 262.545 140.463 262.18 140.463 261.552V258.216H139.543V261.575C139.543 262.726 140.426 263.373 141.604 263.373C142.778 263.373 143.666 262.726 143.666 261.575V258.216H142.748Z" fill="#8593AC"/>
<path d="M147.846 259.612H148.732C148.714 258.754 147.982 258.146 146.901 258.146C145.834 258.146 145.033 258.747 145.036 259.645C145.036 260.374 145.554 260.793 146.39 261.009L146.968 261.158C147.516 261.297 147.878 261.468 147.881 261.862C147.878 262.296 147.467 262.587 146.866 262.587C146.291 262.587 145.844 262.329 145.807 261.795H144.902C144.939 262.805 145.69 263.373 146.874 263.373C148.092 263.373 148.799 262.765 148.801 261.87C148.799 260.989 148.072 260.587 147.308 260.406L146.831 260.287C146.415 260.188 145.963 260.012 145.968 259.588C145.971 259.206 146.313 258.925 146.889 258.925C147.437 258.925 147.799 259.181 147.846 259.612Z" fill="#8593AC"/>
<path d="M150.041 263.296H153.365V262.525H150.961V261.138H153.174V260.367H150.961V258.987H153.345V258.216H150.041V263.296Z" fill="#8593AC"/>
<circle cx="57.9825" cy="268.533" r="16.2989" fill="#FC968C"/>
<path d="M63.4384 273.769H63.2202V272.401C64.2679 271.659 64.9665 270.437 64.9665 269.04C64.9665 266.115 61.9541 264.063 59.2473 265.198C59.3783 264.674 59.2036 264.194 58.8107 263.888L58.5924 263.102L59.5092 263.364V261.618L58.5924 261.88L58.8544 260.963H57.1081L57.37 261.88L56.4532 261.618V263.364L57.37 263.102L57.1517 263.888C56.8025 264.194 56.5842 264.674 56.7151 265.198C54.0084 264.063 50.996 266.115 50.996 269.04C50.996 270.437 51.6945 271.659 52.7423 272.401V273.769H52.524C52.1747 273.769 51.8691 274.002 51.8691 274.351C51.8691 274.701 52.1747 274.933 52.524 274.933H63.4384C63.7877 274.933 64.0933 274.701 64.0933 274.351C64.0933 274.002 63.7877 273.769 63.4384 273.769ZM54.4886 273.187C54.2266 273.187 54.052 273.012 54.052 272.75C54.052 272.489 54.2266 272.314 54.4886 272.314C54.7505 272.314 54.9252 272.489 54.9252 272.75C54.9252 273.012 54.7069 273.187 54.4886 273.187ZM56.2349 273.187C55.973 273.187 55.7983 273.012 55.7983 272.75C55.7983 272.489 55.973 272.314 56.2349 272.314C56.4969 272.314 56.6715 272.489 56.6715 272.75C56.6715 273.012 56.4532 273.187 56.2349 273.187ZM56.6715 271.441H52.9169C52.262 270.83 51.8691 270 51.8691 269.04C51.8691 266.595 54.4449 265.023 56.5842 266.115C56.6278 266.115 56.6278 266.158 56.6715 266.158V271.441ZM57.9812 262.054C58.2432 262.054 58.4178 262.229 58.4178 262.491C58.4178 262.753 58.2432 262.927 57.9812 262.927C57.7193 262.927 57.5446 262.753 57.5446 262.491C57.5446 262.229 57.7193 262.054 57.9812 262.054ZM57.9812 265.765C58.2432 265.765 58.4178 265.94 58.4178 266.202C58.4178 266.464 58.2432 266.638 57.9812 266.638C57.7193 266.638 57.5446 266.464 57.5446 266.202C57.5446 265.94 57.7193 265.765 57.9812 265.765ZM57.9812 268.821C58.2432 268.821 58.4178 268.996 58.4178 269.258C58.4178 269.52 58.2432 269.694 57.9812 269.694C57.7193 269.694 57.5446 269.52 57.5446 269.258C57.5446 268.996 57.7193 268.821 57.9812 268.821ZM57.9812 273.187C57.7193 273.187 57.5446 273.012 57.5446 272.75C57.5446 272.489 57.7193 272.314 57.9812 272.314C58.2432 272.314 58.4178 272.489 58.4178 272.75C58.4178 273.012 58.1995 273.187 57.9812 273.187ZM59.7275 273.187C59.4656 273.187 59.291 273.012 59.291 272.75C59.291 272.489 59.4656 272.314 59.7275 272.314C59.9895 272.314 60.1641 272.489 60.1641 272.75C60.1641 273.012 59.9458 273.187 59.7275 273.187ZM61.4738 273.187C61.2119 273.187 61.0373 273.012 61.0373 272.75C61.0373 272.489 61.2119 272.314 61.4738 272.314C61.7358 272.314 61.9104 272.489 61.9104 272.75C61.9104 273.012 61.6921 273.187 61.4738 273.187ZM59.291 271.441V266.158C59.3346 266.158 59.3346 266.115 59.3783 266.115C61.5175 265.023 64.0933 266.595 64.0933 269.04C64.0933 270 63.7004 270.83 63.0455 271.441H59.291Z" fill="white"/>
<g filter="url(#filter3_d)">
<rect x="33.5345" y="303.463" width="205.483" height="51.2251" rx="8" fill="white"/>
</g>
<path d="M88.4826 336.608V330.604H87.1833V337.802H92.1813V336.608H88.4826Z" fill="#495875"/>
<path d="M93.8501 331.568C94.2482 331.568 94.573 331.222 94.573 330.834C94.573 330.447 94.2482 330.111 93.8501 330.111C93.4414 330.111 93.1166 330.447 93.1166 330.834C93.1166 331.222 93.4414 331.568 93.8501 331.568ZM93.2004 337.802H94.4787V332.385H93.2004V337.802Z" fill="#495875"/>
<path d="M98.249 332.259C97.568 332.259 96.8555 332.448 96.0906 332.825L96.5307 333.716C96.9917 333.485 97.4842 333.307 97.9976 333.307C98.9825 333.307 99.3283 333.915 99.3283 334.543V334.69C98.8358 334.502 98.3014 334.397 97.809 334.397C96.5935 334.397 95.5981 335.13 95.5981 336.199C95.5981 337.247 96.4678 337.928 97.6204 337.928C98.249 337.928 98.9301 337.655 99.3283 337.152V337.802H100.575V334.543C100.575 333.171 99.6845 332.259 98.249 332.259ZM97.9033 336.995C97.2956 336.995 96.845 336.67 96.845 336.157C96.845 335.644 97.3584 335.287 97.9976 335.287C98.4796 335.287 98.9301 335.361 99.3283 335.497V336.105C99.1816 336.681 98.5215 336.995 97.9033 336.995Z" fill="#495875"/>
<path d="M105.155 332.259C104.348 332.259 103.699 332.626 103.269 333.244V330.478H101.991V337.802H103.269V336.943C103.699 337.561 104.348 337.928 105.155 337.928C106.59 337.928 107.638 336.754 107.638 335.088C107.638 333.433 106.59 332.259 105.155 332.259ZM104.809 336.838C103.908 336.838 103.279 336.105 103.279 335.088C103.279 334.072 103.908 333.349 104.809 333.349C105.721 333.349 106.37 334.072 106.37 335.088C106.37 336.105 105.721 336.838 104.809 336.838Z" fill="#495875"/>
<path d="M109.444 331.568C109.842 331.568 110.167 331.222 110.167 330.834C110.167 330.447 109.842 330.111 109.444 330.111C109.035 330.111 108.711 330.447 108.711 330.834C108.711 331.222 109.035 331.568 109.444 331.568ZM108.794 337.802H110.073V332.385H108.794V337.802Z" fill="#495875"/>
<path d="M111.486 337.802H112.764V330.478H111.486V337.802Z" fill="#495875"/>
<path d="M114.826 331.568C115.224 331.568 115.549 331.222 115.549 330.834C115.549 330.447 115.224 330.111 114.826 330.111C114.418 330.111 114.093 330.447 114.093 330.834C114.093 331.222 114.418 331.568 114.826 331.568ZM114.177 337.802H115.455V332.385H114.177V337.802Z" fill="#495875"/>
<path d="M119.571 336.639C119.456 336.754 119.257 336.838 119.037 336.838C118.733 336.838 118.502 336.576 118.502 336.209V333.443H119.728V332.385H118.502V330.897H117.255V332.385H116.47V333.443H117.255V336.367C117.255 337.278 117.884 337.928 118.785 337.928C119.194 337.928 119.634 337.76 119.938 337.498L119.571 336.639Z" fill="#495875"/>
<path d="M122.03 339.688C122.847 339.678 123.476 339.206 123.885 338.179L126.179 332.385H124.859L123.371 336.429L121.789 332.385H120.437L122.732 337.844L122.502 338.326C122.344 338.588 122.114 338.682 121.81 338.682C121.611 338.682 121.349 338.609 121.119 338.483L120.846 339.405C121.171 339.583 121.621 339.688 122.03 339.688Z" fill="#495875"/>
<path d="M130.233 337.802H131.532V330.604H130.233V337.802Z" fill="#495875"/>
<path d="M135.949 332.259C135.236 332.259 134.607 332.605 134.272 333.108V332.385H132.994V337.802H134.272V334.376C134.356 333.8 134.911 333.349 135.582 333.349C136.252 333.349 136.724 333.873 136.724 334.606V337.802H137.96V334.355C137.96 333.129 137.133 332.259 135.949 332.259Z" fill="#495875"/>
<path d="M141.349 337.928C142.617 337.928 143.476 337.257 143.476 336.22C143.476 335.088 142.491 334.774 141.58 334.523C140.752 334.282 140.469 334.177 140.469 333.831C140.469 333.527 140.815 333.349 141.266 333.349C141.737 333.349 142.292 333.517 142.806 333.841L143.34 332.909C142.753 332.521 142.009 332.259 141.266 332.259C140.061 332.259 139.222 332.951 139.222 333.967C139.233 334.931 139.977 335.266 141.15 335.57C141.768 335.738 142.24 335.874 142.24 336.293C142.24 336.629 141.884 336.849 141.37 336.849C140.689 336.849 140.082 336.597 139.558 336.22L138.981 337.111C139.631 337.634 140.522 337.928 141.349 337.928Z" fill="#495875"/>
<path d="M148.254 332.385V335.811C148.17 336.388 147.615 336.838 146.945 336.838C146.274 336.838 145.802 336.314 145.802 335.581V332.385H144.566V335.832C144.566 337.058 145.394 337.928 146.578 337.928C147.29 337.928 147.919 337.582 148.254 337.079V337.802H149.533V332.385H148.254Z" fill="#495875"/>
<path d="M152.251 333.433V332.385H150.973V337.802H152.251V335.067C152.251 334.041 153.026 333.349 154.189 333.349V332.259C153.299 332.259 152.597 332.71 152.251 333.433Z" fill="#495875"/>
<path d="M157.494 332.259C156.813 332.259 156.1 332.448 155.336 332.825L155.776 333.716C156.237 333.485 156.729 333.307 157.243 333.307C158.227 333.307 158.573 333.915 158.573 334.543V334.69C158.081 334.502 157.546 334.397 157.054 334.397C155.839 334.397 154.843 335.13 154.843 336.199C154.843 337.247 155.713 337.928 156.865 337.928C157.494 337.928 158.175 337.655 158.573 337.152V337.802H159.82V334.543C159.82 333.171 158.93 332.259 157.494 332.259ZM157.148 336.995C156.541 336.995 156.09 336.67 156.09 336.157C156.09 335.644 156.603 335.287 157.243 335.287C157.725 335.287 158.175 335.361 158.573 335.497V336.105C158.427 336.681 157.766 336.995 157.148 336.995Z" fill="#495875"/>
<path d="M164.159 332.259C163.447 332.259 162.818 332.605 162.483 333.108V332.385H161.204V337.802H162.483V334.376C162.566 333.8 163.122 333.349 163.792 333.349C164.463 333.349 164.934 333.873 164.934 334.606V337.802H166.171V334.355C166.171 333.129 165.343 332.259 164.159 332.259Z" fill="#495875"/>
<path d="M170.168 337.928C171.027 337.928 171.75 337.572 172.274 337.016L171.414 336.272C171.111 336.618 170.649 336.838 170.178 336.838C169.287 336.838 168.543 336.042 168.543 335.088C168.543 334.145 169.287 333.349 170.178 333.349C170.639 333.349 171.09 333.569 171.383 333.894L172.242 333.139C171.729 332.605 171.006 332.259 170.188 332.259C168.606 332.259 167.276 333.548 167.276 335.088C167.276 336.629 168.606 337.928 170.168 337.928Z" fill="#495875"/>
<path d="M175.804 336.796C175.028 336.796 174.462 336.272 174.305 335.528H178.392C178.392 333.527 177.417 332.259 175.741 332.259C174.2 332.259 172.985 333.454 172.985 335.078C172.985 336.744 174.263 337.928 175.814 337.928C176.6 337.928 177.543 337.593 178.014 337.09L177.208 336.251C176.904 336.566 176.306 336.796 175.804 336.796ZM175.793 333.391C176.558 333.391 177.019 333.873 177.166 334.554H174.316C174.504 333.841 175.081 333.391 175.793 333.391Z" fill="#495875"/>
<path d="M89.7647 320.144H90.6503C90.6329 319.285 89.9012 318.678 88.8196 318.678C87.753 318.678 86.9518 319.278 86.9543 320.176C86.9543 320.905 87.4727 321.324 88.3086 321.54L88.8866 321.689C89.4348 321.828 89.797 321.999 89.7995 322.394C89.797 322.828 89.3852 323.118 88.7849 323.118C88.2094 323.118 87.7629 322.86 87.7257 322.327H86.8203C86.8575 323.336 87.6091 323.904 88.7924 323.904C90.0103 323.904 90.7173 323.297 90.7197 322.401C90.7173 321.52 89.9905 321.119 89.2265 320.938L88.7502 320.818C88.3335 320.719 87.882 320.543 87.887 320.119C87.8894 319.737 88.2317 319.457 88.8072 319.457C89.3554 319.457 89.7176 319.712 89.7647 320.144Z" fill="#8593AC"/>
<path d="M96.1341 318.747H95.2188V322.21H95.1741L92.7828 318.747H91.9593V323.827H92.8796V320.367H92.9218L95.3155 323.827H96.1341V318.747Z" fill="#8593AC"/>
<path d="M100.317 320.144H101.202C101.185 319.285 100.453 318.678 99.3717 318.678C98.3051 318.678 97.5039 319.278 97.5064 320.176C97.5064 320.905 98.0248 321.324 98.8607 321.54L99.4387 321.689C99.9869 321.828 100.349 321.999 100.352 322.394C100.349 322.828 99.9373 323.118 99.337 323.118C98.7615 323.118 98.315 322.86 98.2778 322.327H97.3724C97.4096 323.336 98.1612 323.904 99.3444 323.904C100.562 323.904 101.269 323.297 101.272 322.401C101.269 321.52 100.543 321.119 99.7785 320.938L99.3023 320.818C98.8855 320.719 98.4341 320.543 98.439 320.119C98.4415 319.737 98.7838 319.457 99.3593 319.457C99.9075 319.457 100.27 319.712 100.317 320.144Z" fill="#8593AC"/>
<path d="M104.663 323.827H106.72C107.883 323.827 108.453 323.235 108.453 322.443C108.453 321.674 107.908 321.223 107.367 321.195V321.146C107.863 321.029 108.255 320.682 108.255 320.064C108.255 319.308 107.709 318.747 106.608 318.747H104.663V323.827ZM105.583 323.058V321.57H106.598C107.166 321.57 107.518 321.917 107.518 322.371C107.518 322.776 107.24 323.058 106.573 323.058H105.583ZM105.583 320.908V319.506H106.514C107.054 319.506 107.335 319.792 107.335 320.183C107.335 320.63 106.973 320.908 106.494 320.908H105.583Z" fill="#8593AC"/>
<path d="M110.326 323.827L110.745 322.575H112.655L113.077 323.827H114.059L112.268 318.747H111.132L109.343 323.827H110.326ZM110.993 321.835L111.68 319.789H111.72L112.407 321.835H110.993Z" fill="#8593AC"/>
<path d="M119.322 318.747H118.406V322.21H118.362L115.971 318.747H115.147V323.827H116.067V320.367H116.11L118.503 323.827H119.322V318.747Z" fill="#8593AC"/>
<path d="M120.744 323.827H121.664V322.314L122.227 321.649L123.743 323.827H124.849L122.867 321.027L124.832 318.747H123.708L121.726 321.081H121.664V318.747H120.744V323.827Z" fill="#8593AC"/>
<circle cx="58.5595" cy="329.07" r="16.2989" fill="#C995F1"/>
<path d="M51.1747 328.336C50.9436 328.281 49.7474 327.948 49.7066 327.934C49.1492 327.768 49.0133 327.519 49.0133 327.2V326.881C49.0133 326.618 49.1628 326.41 49.3531 326.341C49.5027 326.285 49.6658 326.271 49.9513 326.271H52.4934C52.5613 326.271 52.6157 326.216 52.6157 326.147V325.551C52.6157 325.287 52.6021 325.024 52.3574 324.816C52.2215 324.705 51.9768 324.608 51.6369 324.539C51.2699 324.47 50.6853 324.414 49.8969 324.414C48.6326 324.414 47.9258 324.677 47.4364 325.246C47.314 325.384 46.9198 325.966 46.9198 326.881V327.546C47.015 328.96 47.9258 329.362 48.8637 329.598C49.0948 329.653 50.2367 329.972 50.2775 329.986C50.8349 330.152 50.9844 330.401 50.9844 330.72V331.094C50.9844 331.358 50.8213 331.566 50.631 331.635C50.4814 331.69 50.2775 331.704 49.9921 331.704H47.0421C46.9742 331.704 46.9198 331.76 46.9198 331.829V332.134C46.9334 332.647 47.0014 333.021 47.3276 333.27C47.5859 333.464 48.0889 333.714 49.7066 333.714H49.8833C50.8077 333.686 51.4058 333.548 51.8137 333.367C52.1671 333.201 52.371 333.021 52.5341 332.827C52.7516 332.591 53.0779 332.009 53.1187 331.247V330.498C53.0507 329.085 52.1127 328.586 51.1747 328.336V328.336ZM61.3295 324.539H60.242C59.8477 324.539 59.7526 324.636 59.7526 325.038V329.487H59.6982C59.4399 329.112 57.2513 325.911 56.7619 325.19C56.49 324.802 56.123 324.539 55.5656 324.539H54.8043C54.7364 324.539 54.682 324.594 54.682 324.664V333.104C54.682 333.506 54.7636 333.603 55.1714 333.603H56.2589C56.6531 333.603 56.7483 333.506 56.7483 333.104V328.641H56.8027L59.807 333.021C60.0788 333.367 60.4595 333.589 60.9217 333.589H61.6693C61.7373 333.589 61.7917 333.534 61.7917 333.464V325.024C61.8189 324.636 61.7373 324.539 61.3295 324.539V324.539ZM69.6218 330.498C69.5267 329.085 68.5887 328.586 67.6643 328.35C67.4332 328.295 66.2369 327.962 66.1962 327.948C65.6388 327.782 65.5029 327.532 65.5029 327.214V326.895C65.5029 326.632 65.6524 326.424 65.8427 326.354C65.9922 326.299 66.1554 326.285 66.4408 326.285H68.9829C69.0509 326.285 69.1053 326.23 69.1053 326.16V325.564C69.1053 325.301 69.0917 325.038 68.847 324.83C68.7111 324.719 68.4664 324.622 68.1265 324.553C67.7595 324.483 67.1749 324.428 66.3865 324.428C65.1222 324.428 64.4153 324.691 63.9259 325.259C63.8036 325.398 63.4094 325.98 63.4094 326.895V327.56C63.5045 328.974 64.4289 329.376 65.3533 329.611C65.5844 329.667 66.7263 329.986 66.7671 329.999C67.3245 330.166 67.474 330.415 67.474 330.734V331.108C67.474 331.372 67.3109 331.579 67.1205 331.649C66.971 331.704 66.7671 331.718 66.4816 331.718H63.5317C63.4638 331.718 63.4094 331.774 63.4094 331.843V332.148C63.423 332.661 63.4909 333.035 63.8172 333.284C64.0755 333.478 64.5785 333.728 66.1962 333.728H66.3729C67.2973 333.7 67.8954 333.561 68.3032 333.381C68.6567 333.215 68.8606 333.035 69.0237 332.841C69.2412 332.605 69.5675 332.023 69.6083 331.261C69.6219 331.136 69.6218 330.554 69.6218 330.498V330.498Z" fill="white"/>
<g filter="url(#filter4_d)">
<circle cx="135.974" cy="104.963" r="33.1799" fill="white"/>
</g>
<circle cx="135.972" cy="98.5538" r="39.5831" fill="white"/>
<path d="M95.4617 164.917H101.346C103.481 164.917 105.013 163.678 105.013 161.885C105.013 160.646 104.263 159.603 102.959 159.017C103.953 158.495 104.524 157.664 104.524 156.523C104.524 154.893 103.138 153.719 101.134 153.719H95.4617V164.917ZM97.8576 158.234V155.773H100.531C101.427 155.773 102.063 156.295 102.063 156.996C102.063 157.713 101.427 158.234 100.531 158.234H97.8576ZM97.8576 162.863V160.125H100.906C101.867 160.125 102.552 160.695 102.552 161.494C102.552 162.293 101.867 162.863 100.906 162.863H97.8576Z" fill="#495875"/>
<path d="M110.835 165.112C113.329 165.112 115.415 163.091 115.415 160.695C115.415 158.299 113.329 156.295 110.835 156.295C108.325 156.295 106.223 158.299 106.223 160.695C106.223 163.091 108.325 165.112 110.835 165.112ZM110.835 163.108C109.564 163.108 108.504 161.999 108.504 160.695C108.504 159.391 109.564 158.299 110.835 158.299C112.09 158.299 113.15 159.391 113.15 160.695C113.15 161.999 112.09 163.108 110.835 163.108Z" fill="#495875"/>
<path d="M122.225 156.295C121.051 156.295 120.073 156.8 119.405 157.664V153.524H117.025V164.917H119.405V163.727C120.073 164.607 121.051 165.112 122.225 165.112C124.474 165.112 126.104 163.287 126.104 160.695C126.104 158.12 124.474 156.295 122.225 156.295ZM121.54 163.108C120.383 163.108 119.535 162.26 119.405 161.021V160.369C119.535 159.147 120.383 158.299 121.54 158.299C122.86 158.299 123.789 159.294 123.789 160.695C123.789 162.113 122.86 163.108 121.54 163.108Z" fill="#495875"/>
<path d="M136.64 165.112C139.378 165.112 140.992 163.694 140.992 161.559C140.992 159.489 139.395 158.772 136.983 158.234C135.255 157.843 134.587 157.582 134.587 156.767C134.587 156.099 135.206 155.561 136.233 155.561C137.308 155.561 138.433 156.001 139.427 156.8L140.682 155.072C139.541 154.094 138.123 153.524 136.298 153.524C133.853 153.524 132.158 154.942 132.158 157.012C132.158 159.18 133.837 159.848 136.2 160.386C137.912 160.777 138.564 161.021 138.564 161.82C138.564 162.521 137.944 163.075 136.738 163.075C135.32 163.075 134.114 162.521 133.054 161.608L131.669 163.254C132.973 164.46 134.701 165.112 136.64 165.112Z" fill="#495875"/>
<path d="M152.675 156.295C151.42 156.295 150.377 156.898 149.937 157.827C149.416 156.881 148.421 156.295 147.264 156.295C146.221 156.295 145.39 156.8 144.982 157.599V156.49H142.603V164.917H144.982V159.832C144.982 158.935 145.65 158.299 146.612 158.299C147.476 158.299 148.095 158.984 148.095 159.962V164.933H150.377V159.832C150.377 158.935 151.062 158.299 152.007 158.299C152.887 158.299 153.507 158.984 153.507 159.962V164.933H155.788V159.554C155.788 157.647 154.436 156.295 152.675 156.295Z" fill="#495875"/>
<path d="M158.978 155.333C159.679 155.333 160.25 154.746 160.25 154.029C160.25 153.361 159.679 152.758 158.978 152.758C158.245 152.758 157.674 153.361 157.674 154.029C157.674 154.746 158.245 155.333 158.978 155.333ZM157.772 164.917H160.152V156.49H157.772V164.917Z" fill="#495875"/>
<path d="M166.663 162.831C166.5 162.994 166.174 163.108 165.848 163.108C165.408 163.108 165.049 162.716 165.049 162.162V158.414H166.874V156.49H165.049V154.176H162.767V156.49H161.61V158.414H162.767V162.537C162.767 164.053 163.81 165.112 165.293 165.112C165.978 165.112 166.744 164.819 167.233 164.379L166.663 162.831Z" fill="#495875"/>
<path d="M173.597 156.295C172.521 156.295 171.592 156.784 171.07 157.517V153.524H168.691V164.917H171.07V159.929C171.07 159.017 171.836 158.299 172.831 158.299C173.776 158.299 174.428 159.017 174.428 160.06V164.917H176.726V159.554C176.726 157.647 175.422 156.295 173.597 156.295Z" fill="#495875"/>
<path d="M147.625 114.473C154.965 107.989 155.974 96.4903 149.491 89.1505C149.491 89.1505 147.381 86.7651 146.219 85.7559" stroke="#4E52E4" stroke-width="2" stroke-linecap="round" stroke-linejoin="round"/>
<path d="M136.828 117.5L143.372 111.72C149.183 106.582 149.734 97.6823 144.596 91.8716C144.596 91.8716 143.067 90.1284 141.966 89.2109" stroke="#4E52E4" stroke-width="2" stroke-linecap="round" stroke-linejoin="round"/>
<path d="M127.099 112.454L134.561 105.848C136.029 104.563 137.039 103.065 137.039 101.26C137.039 100.343 136.947 98.9973 135.907 97.8046C134.867 96.6119 135.051 95.0827 136.121 94.1347C137.191 93.1866 138.843 93.2784 139.791 94.3488L139.883 94.4405C143.614 98.6609 143.216 105.144 138.996 108.875L123.98 122.301" stroke="#4E52E4" stroke-width="2" stroke-linecap="round" stroke-linejoin="round"/>
<path d="M129.304 79.7012L122.943 85.2366C116.795 90.7108 116.214 100.13 121.658 106.308L123.432 108.326" stroke="#4E52E4" stroke-width="2" stroke-linecap="round" stroke-linejoin="round"/>
<path d="M138.297 78.4473L126.981 88.6618C122.761 92.3928 122.363 98.8763 126.094 103.097L127.593 104.809" stroke="#4E52E4" stroke-width="2" stroke-linecap="round" stroke-linejoin="round"/>
<path d="M150.251 74.6875L131.413 91.4161C128.752 93.7709 128.507 97.8689 130.862 100.53L131.199 100.897" stroke="#4E52E4" stroke-width="2" stroke-linecap="round" stroke-linejoin="round"/>
</g>
<path fill-rule="evenodd" clip-rule="evenodd" d="M245.42 42.6722C245.42 29.8077 235.001 19.388 222.136 19.388H201.471C198.899 19.388 196.814 21.473 196.814 24.0449V24.627C196.814 31.7286 191.11 37.4333 184.008 37.4333H88.5432C81.4415 37.4333 75.7369 31.7286 75.7369 24.627V24.0449C75.7369 21.473 73.6519 19.388 71.08 19.388H50.4154C37.5508 19.388 27.1312 29.8077 27.1312 42.6722V468.772C27.1312 481.637 37.5508 492.056 50.4154 492.056H222.136C235.001 492.056 245.42 481.637 245.42 468.772V42.6722ZM50.4154 8.91016H222.136C240.763 8.91016 255.898 24.0449 255.898 42.6722V468.772C255.898 487.4 240.763 502.534 222.136 502.534H50.4154C31.788 502.534 16.6533 487.4 16.6533 468.772V42.6722C16.6533 24.0449 31.788 8.91016 50.4154 8.91016Z" fill="#333333"/>
<path d="M166.546 24.6275C166.546 26.8779 164.721 28.7022 162.471 28.7022C160.221 28.7022 158.396 26.8779 158.396 24.6275C158.396 22.3771 160.221 20.5527 162.471 20.5527C164.721 20.5527 166.546 22.3771 166.546 24.6275Z" fill="#4F4F4F"/>
<path d="M123.179 22.8811C122.214 22.8811 121.433 23.663 121.433 24.6275C121.433 25.5919 122.214 26.3738 123.179 26.3738H148.792C149.756 26.3738 150.538 25.5919 150.538 24.6275C150.538 23.663 149.756 22.8811 148.792 22.8811H123.179Z" fill="#4F4F4F"/>
</g>
<defs>
<filter id="filter0_d" x="0" y="0" width="272.558" height="523.445" filterUnits="userSpaceOnUse" color-interpolation-filters="sRGB">
<feFlood flood-opacity="0" result="BackgroundImageFix"/>
<feColorMatrix in="SourceAlpha" type="matrix" values="0 0 0 0 0 0 0 0 0 0 0 0 0 0 0 0 0 0 127 0"/>
<feOffset dy="6"/>
<feGaussianBlur stdDeviation="6"/>
<feColorMatrix type="matrix" values="0 0 0 0 0 0 0 0 0 0 0 0 0 0 0 0 0 0 0.14 0"/>
<feBlend mode="normal" in2="BackgroundImageFix" result="effect1_dropShadow"/>
<feBlend mode="normal" in="SourceGraphic" in2="effect1_dropShadow" result="shape"/>
</filter>
<filter id="filter1_d" x="21.5345" y="174.377" width="229.483" height="75.2251" filterUnits="userSpaceOnUse" color-interpolation-filters="sRGB">
<feFlood flood-opacity="0" result="BackgroundImageFix"/>
<feColorMatrix in="SourceAlpha" type="matrix" values="0 0 0 0 0 0 0 0 0 0 0 0 0 0 0 0 0 0 127 0"/>
<feOffset dy="4"/>
<feGaussianBlur stdDeviation="6"/>
<feColorMatrix type="matrix" values="0 0 0 0 0.85098 0 0 0 0 0.882353 0 0 0 0 0.933333 0 0 0 0.3 0"/>
<feBlend mode="normal" in2="BackgroundImageFix" result="effect1_dropShadow"/>
<feBlend mode="normal" in="SourceGraphic" in2="effect1_dropShadow" result="shape"/>
</filter>
<filter id="filter2_d" x="21.5345" y="234.916" width="229.483" height="75.2251" filterUnits="userSpaceOnUse" color-interpolation-filters="sRGB">
<feFlood flood-opacity="0" result="BackgroundImageFix"/>
<feColorMatrix in="SourceAlpha" type="matrix" values="0 0 0 0 0 0 0 0 0 0 0 0 0 0 0 0 0 0 127 0"/>
<feOffset dy="4"/>
<feGaussianBlur stdDeviation="6"/>
<feColorMatrix type="matrix" values="0 0 0 0 0.85098 0 0 0 0 0.882353 0 0 0 0 0.933333 0 0 0 0.3 0"/>
<feBlend mode="normal" in2="BackgroundImageFix" result="effect1_dropShadow"/>
<feBlend mode="normal" in="SourceGraphic" in2="effect1_dropShadow" result="shape"/>
</filter>
<filter id="filter3_d" x="21.5345" y="295.463" width="229.483" height="75.2251" filterUnits="userSpaceOnUse" color-interpolation-filters="sRGB">
<feFlood flood-opacity="0" result="BackgroundImageFix"/>
<feColorMatrix in="SourceAlpha" type="matrix" values="0 0 0 0 0 0 0 0 0 0 0 0 0 0 0 0 0 0 127 0"/>
<feOffset dy="4"/>
<feGaussianBlur stdDeviation="6"/>
<feColorMatrix type="matrix" values="0 0 0 0 0.85098 0 0 0 0 0.882353 0 0 0 0 0.933333 0 0 0 0.3 0"/>
<feBlend mode="normal" in2="BackgroundImageFix" result="effect1_dropShadow"/>
<feBlend mode="normal" in="SourceGraphic" in2="effect1_dropShadow" result="shape"/>
</filter>
<filter id="filter4_d" x="82.7943" y="53.7832" width="106.36" height="106.36" filterUnits="userSpaceOnUse" color-interpolation-filters="sRGB">
<feFlood flood-opacity="0" result="BackgroundImageFix"/>
<feColorMatrix in="SourceAlpha" type="matrix" values="0 0 0 0 0 0 0 0 0 0 0 0 0 0 0 0 0 0 127 0"/>
<feOffset dy="2"/>
<feGaussianBlur stdDeviation="10"/>
<feColorMatrix type="matrix" values="0 0 0 0 0.723333 0 0 0 0 0.728092 0 0 0 0 0.904167 0 0 0 0.24 0"/>
<feBlend mode="normal" in2="BackgroundImageFix" result="effect1_dropShadow"/>
<feBlend mode="normal" in="SourceGraphic" in2="effect1_dropShadow" result="shape"/>
</filter>
<linearGradient id="paint0_linear" x1="245.423" y1="19.3867" x2="27.1335" y2="492.055" gradientUnits="userSpaceOnUse">
<stop stop-color="#6FCF97"/>
<stop offset="1" stop-color="#56CCF2"/>
</linearGradient>
<linearGradient id="paint1_linear" x1="62.0524" y1="26.8622" x2="215.164" y2="107.465" gradientUnits="userSpaceOnUse">
<stop stop-color="#5357E8"/>
<stop offset="1" stop-color="#494DE1"/>
</linearGradient>
</defs>
</svg>
