<svg width="36" height="48" viewBox="0 0 36 48" fill="none" xmlns="http://www.w3.org/2000/svg">
<path d="M28.6036 38.5992C35.3538 32.6365 36.2832 22.0623 30.3235 15.3105C30.3209 15.3077 30.3196 15.3061 30.317 15.3032C30.2373 15.2132 28.3558 13.0922 27.3096 12.1836" stroke="#4E52E4" stroke-width="2.5" stroke-linecap="round" stroke-linejoin="round"/>
<path d="M18.6729 41.385L24.693 36.0681C30.0301 31.349 30.5429 23.18 25.8393 17.8346C25.8254 17.8187 25.812 17.8036 25.7981 17.7878C25.6225 17.5891 24.3405 16.1479 23.399 15.3633" stroke="#4E52E4" stroke-width="2.5" stroke-linecap="round" stroke-linejoin="round"/>
<path d="M9.72684 36.7417L16.591 30.6652C17.9413 29.4837 18.8696 28.1053 18.8696 26.4455C18.8696 25.6016 18.7852 24.3638 17.8287 23.2666C16.8723 22.1695 17.0411 20.7629 18.0257 19.8909C19.0103 19.0188 20.5294 19.1032 21.4015 20.0878L21.4858 20.1722C24.9179 24.0543 24.5522 30.0182 20.67 33.4503L6.85742 45.8" stroke="#4E52E4" stroke-width="2.5" stroke-linecap="round" stroke-linejoin="round"/>
<path d="M11.7523 6.61328L5.90096 11.7051C0.246515 16.7407 -0.287986 25.4052 4.71944 31.0878L6.35107 32.9444" stroke="#4E52E4" stroke-width="2.5" stroke-linecap="round" stroke-linejoin="round"/>
<path d="M20.0226 5.46094L9.61392 14.8569C5.73177 18.2889 5.36606 24.2528 8.79811 28.135L10.1766 29.7104" stroke="#4E52E4" stroke-width="2.5" stroke-linecap="round" stroke-linejoin="round"/>
<path d="M31.0224 2L13.6934 17.388C11.2459 19.5541 11.0209 23.3237 13.187 25.7712L13.4964 26.1088" stroke="#4E52E4" stroke-width="2.5" stroke-linecap="round" stroke-linejoin="round"/>
</svg>
