<svg width="264" height="270" viewBox="0 0 264 270" fill="none" xmlns="http://www.w3.org/2000/svg">
<path d="M38.8743 213.195C35.1301 207.909 15.3808 188.013 30.4313 185.59C44.1604 183.388 50.6211 204.972 53.0439 215.838C53.7781 218.922 56.3477 233.899 52.4565 233.458C47.0971 232.724 42.7655 218.628 38.8743 213.195Z" fill="#B5F3D8"/>
<path d="M53.5573 232.43C53.4839 232.43 53.3371 232.357 53.2637 232.283C49.2991 226.851 47.2435 220.39 45.3346 214.149C42.4713 204.972 39.6815 196.382 31.3853 190.362C31.2385 190.289 31.2385 190.069 31.3119 189.922C31.3853 189.775 31.6056 189.775 31.7524 189.848C40.2688 196.015 43.1321 205.119 45.9219 214.003C47.9042 220.17 49.8865 226.557 53.7776 231.916C53.851 232.063 53.851 232.283 53.7042 232.357C53.7042 232.357 53.6308 232.43 53.5573 232.43Z" fill="white"/>
<path d="M40.9307 201.815C36.3788 201.668 33.4421 200.2 30.1383 197.998C29.9915 197.924 29.9181 197.704 30.0649 197.557C30.1383 197.41 30.3586 197.337 30.5054 197.484C33.7358 199.686 36.599 201.081 40.9307 201.228C41.0775 201.228 41.2243 201.375 41.2243 201.595C41.2978 201.668 41.1509 201.815 40.9307 201.815Z" fill="white"/>
<path d="M40.8576 201.228C40.7108 201.228 40.6373 201.154 40.5639 201.081C40.4905 200.934 40.4905 200.714 40.7108 200.641C42.3259 199.686 42.1057 195.134 41.5184 193.519C41.4449 193.372 41.5184 193.152 41.7386 193.079C41.8854 193.005 42.1057 193.079 42.1791 193.299C42.7664 195.061 43.1335 200.053 41.0779 201.228C41.0044 201.228 40.931 201.228 40.8576 201.228Z" fill="white"/>
<path d="M45.1895 212.681C45.1161 212.681 44.9693 212.608 44.8959 212.534C44.8225 212.387 44.8225 212.167 44.9693 212.094C46.7313 210.992 46.8047 208.056 46.6579 206.441C46.6579 206.294 46.8047 206.073 46.9516 206.073C47.0984 206.073 47.3187 206.22 47.3187 206.367C47.5389 209.451 46.8047 211.653 45.263 212.608C45.263 212.681 45.1895 212.681 45.1895 212.681Z" fill="white"/>
<path d="M45.042 212.388C43.5736 212.314 39.9028 211.727 37.6268 208.35C37.5534 208.203 37.5534 207.982 37.7003 207.909C37.8471 207.836 38.0673 207.836 38.1408 207.982C40.1964 210.993 43.3534 211.653 45.042 211.727C45.1888 211.727 45.3357 211.874 45.3357 212.094C45.3357 212.241 45.1888 212.388 45.042 212.388Z" fill="white"/>
<path d="M33.8822 225.456C29.5505 222.225 8.84686 210.479 21.1076 205.046C31.8999 200.274 41.2239 215.177 45.2618 223.327C46.3631 225.603 52.1631 235.734 48.1985 237.643C44.0138 239.625 36.3049 227.291 33.8822 225.456Z" fill="#B5F3D8"/>
<path d="M48.8594 236.542C48.7859 236.542 48.7125 236.542 48.6391 236.468C44.748 233.164 41.9581 228.759 39.2417 224.428C34.9835 217.673 31.0189 211.359 23.0165 208.79C22.8696 208.716 22.7962 208.57 22.8696 208.423C22.943 208.276 23.0899 208.202 23.2367 208.276C31.386 210.919 35.6442 217.673 39.7556 224.207C42.3986 228.466 45.1885 232.871 49.0062 236.101C49.153 236.174 49.153 236.395 49.0062 236.468C49.0062 236.468 48.9328 236.542 48.8594 236.542Z" fill="white"/>
<path d="M29.1855 216.352C27.4969 216.352 25.7349 215.985 23.6058 215.177C23.459 215.104 23.3856 214.957 23.459 214.81C23.5324 214.663 23.6792 214.59 23.8261 214.663C27.4969 215.985 29.9931 216.132 33.0766 215.104C33.2235 215.03 33.3703 215.104 33.4437 215.324C33.5171 215.544 33.4437 215.618 33.2235 215.691C31.8286 216.132 30.507 216.352 29.1855 216.352Z" fill="white"/>
<path d="M33.0026 215.251C32.9292 215.251 32.8558 215.251 32.7824 215.177C32.6356 215.104 32.6356 214.883 32.7824 214.81C33.8837 213.562 32.7824 209.964 32.0482 208.79C31.9748 208.643 31.9748 208.496 32.1216 208.423C32.2685 208.349 32.4153 208.349 32.4887 208.496C33.2963 209.744 34.5444 213.635 33.2229 215.177C33.1495 215.251 33.0761 215.251 33.0026 215.251Z" fill="white"/>
<path d="M40.7118 226.263C40.6384 226.263 40.565 226.263 40.565 226.19C40.4182 226.116 40.4182 225.896 40.4916 225.823C41.446 224.575 41.3726 222.078 40.7853 220.17C40.7118 220.023 40.8587 219.876 41.0055 219.802C41.1523 219.729 41.2992 219.876 41.3726 220.023C41.9599 222.078 42.0333 224.795 40.9321 226.19C40.9321 226.263 40.8587 226.263 40.7118 226.263Z" fill="white"/>
<path d="M38.5083 226.41C37.1134 226.41 35.4982 225.969 34.1033 224.794C33.9565 224.721 33.9565 224.501 34.1033 224.427C34.1767 224.28 34.397 224.28 34.4704 224.427C36.4526 226.116 38.802 226.116 40.3438 225.602C40.4906 225.529 40.6374 225.602 40.7108 225.749C40.7843 225.896 40.7108 226.042 40.564 226.116C39.9767 226.263 39.2425 226.41 38.5083 226.41Z" fill="white"/>
<path d="M49.5931 212.608C49.4462 208.056 45.6285 185.884 56.6411 189.701C66.5525 193.079 61.6335 211.139 60.0917 218.481C59.5778 220.977 58.6968 232.283 54.0715 231.476C49.226 230.521 49.6665 215.838 49.5931 212.608Z" fill="#B5F3D8"/>
<path d="M55.4654 230.962C55.392 230.962 55.2452 230.889 55.2452 230.815C53.0427 225.089 54.2908 218.848 55.5388 212.755C56.8604 206.367 58.1819 199.76 55.6123 193.446C55.5388 193.299 55.6123 193.152 55.7591 193.079C55.9059 193.005 56.0528 193.079 56.1262 193.226C58.7692 199.686 57.4477 206.367 56.1262 212.828C54.8781 219.069 53.63 224.942 55.8325 230.595C55.9059 230.742 55.8325 230.889 55.6857 230.962C55.5388 230.962 55.4654 230.962 55.4654 230.962Z" fill="white"/>
<path d="M56.9337 204.825C56.8603 204.825 56.8603 204.825 56.7869 204.825C53.7034 203.357 52.3818 201.228 51.354 198.511C51.2806 198.365 51.354 198.218 51.5008 198.144C51.6477 198.071 51.7945 198.144 51.8679 198.291C52.8223 201.008 54.0704 202.916 57.0071 204.311C57.154 204.385 57.2274 204.532 57.154 204.678C57.154 204.752 57.0806 204.825 56.9337 204.825Z" fill="white"/>
<path d="M57.1545 204.385C57.0077 204.385 56.9343 204.312 56.8608 204.165C56.8608 204.018 56.9343 203.871 57.0811 203.871C58.6229 203.651 60.3849 200.274 60.6785 198.952C60.6785 198.805 60.8254 198.732 60.9722 198.732C61.119 198.732 61.1925 198.879 61.1925 199.026C60.8988 200.494 59.1368 204.091 57.1545 204.385C57.2279 204.385 57.2279 204.385 57.1545 204.385Z" fill="white"/>
<path d="M54.8033 217.967C54.6564 217.967 54.583 217.894 54.583 217.747C54.583 217.6 54.6564 217.453 54.8033 217.453C56.4919 217.159 58.107 215.104 58.9146 213.195C58.988 213.048 59.1349 212.975 59.2817 213.048C59.4286 213.122 59.502 213.268 59.4285 213.415C58.5475 215.251 56.8589 217.6 54.8033 217.967C54.8033 217.967 54.8767 217.967 54.8033 217.967Z" fill="white"/>
<path d="M54.9508 217.086H54.8774C54.1432 216.793 51.5736 215.545 51.4268 211.8C51.4268 211.653 51.5002 211.507 51.647 211.507C51.7938 211.507 51.9407 211.58 51.9407 211.727C52.0875 215.177 54.3634 216.352 55.0242 216.572C55.171 216.646 55.2445 216.793 55.171 216.939C55.171 217.013 55.0976 217.086 54.9508 217.086Z" fill="white"/>
<path d="M102.38 196.749C91.2942 191.39 75.95 205.853 67.8007 220.61C67.8741 212.461 65.1576 206.294 59.1374 205.339C49.0792 203.798 43.3527 215.985 43.4261 228.906C43.4261 231.843 43.7198 234.78 44.1603 237.57C42.6919 234.559 41.0033 231.549 38.9477 228.759C31.3123 218.408 21.5478 212.681 15.2339 218.041C7.52504 224.721 12.9579 237.056 22.7958 245.499C34.1021 255.19 43.3527 258.64 50.9881 259.815C58.9906 261.063 62.0741 261.504 69.1222 258.714C95.2587 248.362 125.066 207.689 102.38 196.749Z" fill="#2C80FC"/>
<path d="M11.563 262.825H93.4967C93.4967 262.825 88.6512 255.777 78.7398 255.777C74.188 255.777 70.6639 257.025 68.2412 258.273C65.4513 259.815 62.0741 259.741 59.2842 258.273C55.026 256.071 47.9046 253.427 37.9198 253.427C20.4465 253.501 11.563 262.825 11.563 262.825Z" fill="#D9E1EE"/>
<path d="M193.564 21.9429H72.1316C67.5797 21.9429 63.8354 25.6137 63.8354 30.239V254.529C63.8354 259.081 67.5063 262.825 72.1316 262.825H193.637C198.189 262.825 201.933 259.154 201.933 254.529V30.1656C201.86 25.6137 198.189 21.9429 193.564 21.9429Z" fill="#151F36"/>
<path d="M190.333 27.8162H75.2884C72.2049 27.8162 69.6353 30.3124 69.6353 33.4693V235.881C69.6353 238.964 72.1314 241.534 75.2884 241.534H190.333C193.417 241.534 195.986 239.038 195.986 235.881V33.3959C195.986 30.3124 193.49 27.8162 190.333 27.8162Z" fill="url(#paint0_linear)"/>
<path d="M147.532 249.316H118.165C116.55 249.316 115.229 250.638 115.229 252.253C115.229 253.868 116.55 255.19 118.165 255.19H147.532C149.147 255.19 150.469 253.868 150.469 252.253C150.469 250.638 149.147 249.316 147.532 249.316Z" fill="#8592AC"/>
<path opacity="0.8" d="M140.779 36.4792H58.5513V85.3018H140.779V36.4792Z" fill="url(#paint1_linear)"/>
<path d="M131.966 45.8765H84.2446V56.1549H131.966V45.8765Z" fill="white"/>
<path d="M72.501 56.1556C69.6378 56.1556 67.3618 53.8797 67.3618 51.0164C67.3618 48.1531 69.6378 45.8772 72.501 45.8772C75.3643 45.8772 77.6402 48.1531 77.6402 51.0164C77.6402 53.8063 75.2909 56.1556 72.501 56.1556Z" fill="white"/>
<path d="M131.967 63.2029H67.3594V65.6257H131.967V63.2029Z" fill="white"/>
<path d="M131.967 69.5166H67.3594V71.9394H131.967V69.5166Z" fill="white"/>
<path d="M131.967 75.8308H67.3594V78.2536H131.967V75.8308Z" fill="white"/>
<path d="M190.115 94.2585H93.938V182.359H190.115V94.2585Z" fill="url(#paint2_linear)"/>
<path d="M190.115 94.2585H93.938V101.894H190.115V94.2585Z" fill="#151F36"/>
<path d="M175.064 162.537H108.988C108.401 162.537 107.887 162.023 107.887 161.435C107.887 160.848 108.401 160.334 108.988 160.334H175.064C175.651 160.334 176.165 160.848 176.165 161.435C176.165 162.023 175.651 162.537 175.064 162.537Z" fill="white"/>
<path d="M152.744 149.175C146.136 149.175 142.172 143.081 138.427 137.208C134.83 131.555 131.379 126.268 125.873 126.268C114.64 126.268 110.308 148.514 110.235 148.734L109.134 148.514C109.134 148.441 110.235 142.641 112.805 136.914C116.255 129.205 120.734 125.167 125.8 125.167C131.893 125.167 135.637 130.967 139.308 136.62C142.906 142.273 146.65 148.073 152.67 148.073C158.837 148.073 161.48 142.053 164.05 136.18C166.546 130.527 168.895 125.167 174.182 125.167V126.268C169.556 126.268 167.354 131.261 165.078 136.62C162.582 142.567 159.645 149.175 152.744 149.175Z" fill="white"/>
<path d="M125.874 127.664C126.928 127.664 127.783 126.809 127.783 125.755C127.783 124.701 126.928 123.846 125.874 123.846C124.819 123.846 123.965 124.701 123.965 125.755C123.965 126.809 124.819 127.664 125.874 127.664Z" fill="white"/>
<path d="M97.7546 99.618C98.6061 99.618 99.2964 98.9277 99.2964 98.0762C99.2964 97.2247 98.6061 96.5344 97.7546 96.5344C96.9032 96.5344 96.2129 97.2247 96.2129 98.0762C96.2129 98.9277 96.9032 99.618 97.7546 99.618Z" fill="white"/>
<path d="M102.381 99.618C103.232 99.618 103.922 98.9277 103.922 98.0762C103.922 97.2247 103.232 96.5344 102.381 96.5344C101.529 96.5344 100.839 97.2247 100.839 98.0762C100.839 98.9277 101.529 99.618 102.381 99.618Z" fill="white"/>
<path d="M107.004 99.618C107.856 99.618 108.546 98.9277 108.546 98.0762C108.546 97.2247 107.856 96.5344 107.004 96.5344C106.153 96.5344 105.462 97.2247 105.462 98.0762C105.462 98.9277 106.153 99.618 107.004 99.618Z" fill="white"/>
<path d="M174.255 127.664C175.309 127.664 176.164 126.809 176.164 125.755C176.164 124.701 175.309 123.846 174.255 123.846C173.201 123.846 172.346 124.701 172.346 125.755C172.346 126.809 173.201 127.664 174.255 127.664Z" fill="white"/>
<path d="M152.744 150.57C153.798 150.57 154.653 149.715 154.653 148.661C154.653 147.607 153.798 146.752 152.744 146.752C151.69 146.752 150.835 147.607 150.835 148.661C150.835 149.715 151.69 150.57 152.744 150.57Z" fill="white"/>
<path d="M109.72 150.57C110.774 150.57 111.629 149.715 111.629 148.661C111.629 147.607 110.774 146.752 109.72 146.752C108.666 146.752 107.811 147.607 107.811 148.661C107.811 149.715 108.666 150.57 109.72 150.57Z" fill="white"/>
<path d="M19.5645 247.92C24.6302 244.102 32.1922 243.515 34.9821 241.386C37.6985 239.33 38.4327 236.761 36.8909 234.778C35.2023 232.502 32.7796 232.943 30.1365 234.999C27.4201 236.981 24.6302 244.029 19.5645 247.92Z" fill="#151F36"/>
<path d="M19.5645 248.362C19.4177 248.362 19.2709 248.288 19.1974 248.215C19.124 248.142 19.124 248.068 19.124 247.921C19.124 247.774 19.1974 247.628 19.2709 247.554C22.1341 245.352 24.2632 242.195 26.0987 239.331C27.4202 237.276 28.5949 235.514 29.7695 234.633C33.7341 231.623 36.01 232.871 37.1847 234.486C38.0657 235.587 38.2859 236.909 37.9189 238.157C37.5518 239.405 36.5973 240.653 35.2024 241.754C33.9543 242.709 31.8986 243.296 29.5493 244.03C26.3189 244.985 22.6481 246.086 19.8582 248.288C19.7848 248.288 19.6379 248.362 19.5645 248.362ZM34.0277 233.678C32.9999 233.678 31.7518 234.192 30.2835 235.293C29.2556 236.101 28.0809 237.79 26.8328 239.772C25.6582 241.534 24.3367 243.59 22.7215 245.425C24.8506 244.397 27.1265 243.736 29.2556 243.076C31.5315 242.415 33.5872 241.754 34.6151 240.947C35.8632 239.992 36.7442 238.891 37.0378 237.863C37.3315 236.835 37.1113 235.881 36.4505 234.926C35.7898 234.119 34.9822 233.678 34.0277 233.678Z" fill="#151F36"/>
<path d="M19.5625 247.92C14.4967 244.102 6.93474 243.515 4.14489 241.386C1.42845 239.33 0.694273 236.761 2.23604 234.778C3.92463 232.502 6.3474 232.943 8.99043 234.999C11.6335 237.054 14.4967 244.029 19.5625 247.92Z" fill="#151F36"/>
<path d="M19.5646 248.362C19.4912 248.362 19.3444 248.362 19.271 248.288C16.4077 246.159 12.8102 245.058 9.57987 244.03C7.1571 243.296 5.10142 242.708 3.92674 241.754C0.990047 239.552 0.255874 236.762 1.94447 234.486C2.8989 233.238 4.00016 232.724 5.39509 232.797C6.56976 232.871 7.89127 233.458 9.35962 234.633C10.5343 235.514 11.709 237.276 13.0305 239.331C14.8659 242.121 16.995 245.351 19.8583 247.554C20.0051 247.627 20.0051 247.774 20.0051 247.921C20.0051 247.995 20.0051 248.141 19.9317 248.215C19.8583 248.288 19.7115 248.362 19.5646 248.362ZM5.028 233.678C4.07357 233.678 3.26598 234.119 2.60523 235C1.2103 236.835 1.87106 239.111 4.44066 241.02C5.54192 241.827 7.52419 242.415 9.80012 243.149C11.9292 243.81 14.2052 244.47 16.3343 245.498C14.7191 243.663 13.3976 241.607 12.2229 239.845C10.9014 237.863 9.80012 236.174 8.77228 235.367C7.45077 234.339 6.27609 233.825 5.24825 233.752C5.17483 233.678 5.10142 233.678 5.028 233.678Z" fill="#151F36"/>
<path d="M19.5645 262.53C24.6302 258.713 32.1922 258.125 34.9821 255.996C37.6985 253.94 38.4327 251.371 36.8909 249.389C35.2023 247.113 32.7796 247.553 30.1365 249.609C27.4201 251.665 24.6302 258.713 19.5645 262.53Z" fill="#151F36"/>
<path d="M19.5645 262.972C19.4177 262.972 19.2709 262.898 19.1974 262.825C19.124 262.751 19.124 262.678 19.124 262.531C19.124 262.384 19.1974 262.237 19.2709 262.164C22.1341 259.962 24.2632 256.805 26.0987 253.941C27.4202 251.886 28.5949 250.124 29.7695 249.243C33.7341 246.232 36.01 247.481 37.1847 249.096C38.0657 250.197 38.2859 251.519 37.9189 252.767C37.5518 254.015 36.5973 255.263 35.2024 256.364C33.9543 257.319 31.8986 257.906 29.5493 258.64C26.3189 259.594 22.6481 260.696 19.8582 262.898C19.7848 262.972 19.6379 262.972 19.5645 262.972ZM34.0277 248.362C32.9999 248.362 31.7518 248.876 30.2835 249.977C29.2556 250.784 28.0809 252.473 26.8328 254.455C25.6582 256.217 24.3367 258.273 22.7215 260.108C24.8506 259.081 27.1265 258.42 29.2556 257.759C31.5315 257.098 33.5872 256.438 34.6151 255.63C35.8632 254.675 36.7442 253.574 37.0378 252.546C37.3315 251.519 37.1113 250.564 36.4505 249.61C35.7898 248.802 34.9822 248.362 34.0277 248.362Z" fill="#151F36"/>
<path d="M19.5625 262.53C14.4967 258.712 6.93474 258.125 4.14489 255.996C1.42845 253.94 0.694273 251.37 2.23604 249.388C3.92463 247.112 6.3474 247.553 8.99043 249.608C11.7069 251.664 14.4967 258.712 19.5625 262.53Z" fill="#151F36"/>
<path d="M19.5646 262.972C19.4912 262.972 19.3444 262.972 19.271 262.898C16.4077 260.769 12.8102 259.668 9.57987 258.64C7.1571 257.906 5.10142 257.319 3.92674 256.364C0.990047 254.162 0.255874 251.372 1.94447 249.096C2.8989 247.848 4.00016 247.334 5.39509 247.407C6.56976 247.481 7.89127 248.068 9.35962 249.243C10.5343 250.124 11.709 251.886 13.0305 253.941C14.8659 256.731 16.995 259.962 19.8583 262.164C20.0051 262.238 20.0051 262.384 20.0051 262.531C20.0051 262.605 20.0051 262.751 19.9317 262.825C19.8583 262.898 19.7115 262.972 19.5646 262.972ZM5.028 248.362C4.07357 248.362 3.26598 248.802 2.60523 249.683C1.2103 251.519 1.87106 253.795 4.44066 255.703C5.54192 256.511 7.52419 257.098 9.80012 257.833C11.9292 258.493 14.2052 259.154 16.3343 260.182C14.7191 258.346 13.3976 256.291 12.2229 254.529C10.9014 252.546 9.80012 250.858 8.77228 250.05C7.45077 249.022 6.27609 248.508 5.24825 248.435C5.17483 248.362 5.10142 248.362 5.028 248.362Z" fill="#151F36"/>
<path d="M19.5661 247.921C19.6395 241.607 15.5281 235.147 15.6016 231.696C15.6016 228.245 17.2167 226.19 19.7863 226.19C22.6496 226.19 23.6775 228.392 23.6775 231.769C23.6775 235.147 19.6395 241.534 19.5661 247.921Z" fill="#151F36"/>
<path d="M19.5649 248.362C19.3446 248.362 19.1244 248.141 19.1244 247.921C19.1978 244.324 17.8763 240.8 16.7016 237.643C15.8206 235.293 15.0864 233.238 15.1599 231.696C15.2333 228.025 16.9219 225.749 19.7851 225.749C19.7851 225.749 19.7851 225.749 19.8586 225.749C21.8408 225.749 24.2636 226.85 24.1902 231.769C24.1902 233.238 23.456 235.22 22.575 237.569C21.4003 240.726 20.0788 244.324 20.0788 247.921C20.0054 248.141 19.7851 248.362 19.5649 248.362ZM19.7117 226.63C17.4358 226.63 16.0409 228.539 16.0409 231.696C16.0409 233.091 16.7016 235 17.5826 237.276C18.3168 239.331 19.1244 241.607 19.6383 243.883C20.1522 241.534 20.9598 239.184 21.694 237.202C22.5016 235 23.2358 233.017 23.2358 231.696C23.2358 228.319 22.1345 226.63 19.7117 226.63C19.7117 226.63 19.7851 226.63 19.7117 226.63Z" fill="#151F36"/>
<path d="M20.005 241.02H19.124V262.531H20.005V241.02Z" fill="#151F36"/>
<path d="M182.845 178.028H126.46V223.987H182.845V178.028Z" fill="white"/>
<path d="M178.439 186.691H132.7V188.894H178.439V186.691Z" fill="#151F36"/>
<path d="M178.439 195.502H132.7V197.704H178.439V195.502Z" fill="#151F36"/>
<path d="M178.439 204.311H132.7V206.514H178.439V204.311Z" fill="#151F36"/>
<path d="M178.439 213.121H132.7V215.324H178.439V213.121Z" fill="#151F36"/>
<path d="M31.6795 131.775C33.0744 131.775 33.0744 129.572 31.6795 129.572C30.2846 129.572 30.2846 131.775 31.6795 131.775Z" fill="#EFF2F7"/>
<path fill-rule="evenodd" clip-rule="evenodd" d="M168.676 17.3907C173.521 17.3907 177.486 13.4996 177.486 8.72745C177.486 3.95533 173.521 0.064209 168.676 0.064209C163.83 0.064209 159.866 3.95533 159.866 8.72745C159.866 13.4996 163.83 17.3907 168.676 17.3907ZM168.676 14.9679C172.2 14.9679 174.99 12.1781 174.99 8.72745C174.99 5.27684 172.126 2.48698 168.676 2.48698C165.225 2.48698 162.362 5.27684 162.362 8.72745C162.362 12.1781 165.152 14.9679 168.676 14.9679Z" fill="#B5F3D8"/>
<path fill-rule="evenodd" clip-rule="evenodd" d="M183.506 53.145C185.562 53.145 187.25 51.5298 187.25 49.4741C187.25 47.4184 185.562 45.8032 183.506 45.8032C181.45 45.8032 179.762 47.4184 179.762 49.4741C179.762 51.5298 181.45 53.145 183.506 53.145ZM183.506 52.1171C184.974 52.1171 186.149 50.9424 186.149 49.4741C186.149 48.0057 184.974 46.8311 183.506 46.8311C182.038 46.8311 180.863 48.0057 180.863 49.4741C180.79 50.9424 182.038 52.1171 183.506 52.1171Z" fill="#2C80FC"/>
<g opacity="0.8">
<path opacity="0.8" fill-rule="evenodd" clip-rule="evenodd" d="M57.67 150.349C70.3712 150.349 80.6497 140.218 80.6497 127.737C80.6497 115.256 70.3712 105.124 57.67 105.124C44.9689 105.124 34.6904 115.182 34.6904 127.737C34.6904 140.218 44.9689 150.349 57.67 150.349ZM57.67 143.962C66.7738 143.962 74.1889 136.694 74.1889 127.663C74.1889 118.633 66.7738 111.365 57.67 111.365C48.5663 111.365 41.1512 118.633 41.1512 127.663C41.1512 136.694 48.5663 143.962 57.67 143.962Z" fill="#5C9EFF"/>
</g>
<path d="M179.028 97.5628H152.01V62.5427H179.028V97.5628V97.5628ZM153.112 96.4615H177.927V63.644H153.112V96.4615Z" fill="url(#paint3_linear)"/>
<path d="M174.477 68.7827H156.636V71.2055H174.477V68.7827Z" fill="white"/>
<path d="M174.477 75.5374H156.636V77.9601H174.477V75.5374Z" fill="white"/>
<path d="M174.477 82.2917H156.636V84.7145H174.477V82.2917Z" fill="white"/>
<path d="M174.477 89.0466H156.636V91.4694H174.477V89.0466Z" fill="white"/>
<path d="M249.215 263.413H1.50482C1.21115 263.413 0.91748 263.192 0.91748 262.825C0.91748 262.458 1.13773 262.238 1.50482 262.238H249.215C249.509 262.238 249.802 262.458 249.802 262.825C249.802 263.192 249.509 263.413 249.215 263.413Z" fill="black"/>
<path d="M203.842 142.201C203.842 142.201 204.356 135.814 203.842 131.262H229.392C229.392 131.262 230.566 138.31 229.392 143.596C221.095 146.606 212.579 145.945 203.842 142.201Z" fill="#151F36"/>
<path d="M213.534 252.474C213.534 252.474 208.982 224.796 209.936 220.831C210.377 218.849 211.037 217.454 211.625 216.426C212.359 215.178 212.653 213.783 212.653 212.388C212.432 203.945 211.551 176.707 210.524 167.457C209.202 156.518 229.979 150.718 231.154 162.024C232.402 173.33 223.812 203.725 223.518 205.12C223.151 206.441 225.207 210.846 224.913 212.608C224.62 214.37 223.665 216.206 222.931 218.555C222.27 220.905 220.729 247.115 220.582 252.034C220.288 257.026 214.048 256.145 213.534 252.474Z" fill="#151F36"/>
<path d="M214.193 193.814C214.193 193.814 230.345 191.171 239.743 190.363C237.32 188.234 223.591 178.396 217.791 173.697C207.145 165.181 220.728 148.662 232.401 157.472C236.145 160.262 252.664 177.588 260.153 188.307C261.327 189.996 263.31 192.786 263.456 196.53C263.53 199.54 261.107 201.963 258.905 202.33C256.702 202.697 252.664 202.477 250.388 202.33C240.624 201.743 218.745 200.788 214.56 200.715C209.568 200.568 210.523 194.327 214.193 193.814Z" fill="#151F36"/>
<path d="M214.193 193.814C214.193 193.814 230.345 191.171 239.743 190.363C237.32 188.234 223.591 178.396 217.791 173.697C207.145 165.181 220.728 148.662 232.401 157.472C236.145 160.262 252.664 177.588 260.153 188.307C261.327 189.996 263.31 192.786 263.456 196.53C263.53 199.54 261.107 201.963 258.905 202.33C256.702 202.697 252.664 202.477 250.388 202.33C240.624 201.743 218.745 200.788 214.56 200.715C209.568 200.568 210.523 194.327 214.193 193.814Z" fill="#151F36"/>
<path d="M233.648 100.867L233.06 100.354C232.62 99.9865 232.473 99.1055 232.767 98.4447L238.567 84.7157C238.86 84.0549 239.448 83.8347 239.888 84.2017L240.475 84.7157C240.916 85.0828 241.063 85.9638 240.769 86.6245L234.969 100.354C234.749 101.014 234.161 101.235 233.648 100.867Z" fill="black"/>
<path d="M214.705 192.639C212.136 192.639 204.28 192.639 200.536 192.786Z" fill="#E41787"/>
<path d="M215.515 193.593C215.588 193.079 215.147 192.639 214.634 192.639C212.211 192.639 205.236 192.639 201.272 192.786C200.905 193.006 200.684 193.373 200.537 193.74C198.922 197.925 200.905 200.715 200.317 204.239C199.436 209.525 197.894 214.664 200.464 219.289L200.537 219.363C202.153 218.922 203.474 217.894 204.061 215.839C204.869 213.196 205.456 210.626 206.191 208.57C206.778 206.955 210.522 203.284 212.064 202.55C212.651 202.256 213.973 201.669 214.634 201.669C215.147 201.669 215.441 201.228 215.441 200.715C215.441 199.393 215.221 196.456 215.515 193.593Z" fill="#2C80FC"/>
<path d="M200.389 204.239C200.977 200.715 198.995 197.925 200.61 193.74C200.757 193.373 201.05 193.006 201.344 192.786C201.05 192.786 200.757 192.786 200.536 192.786C199.729 192.786 198.995 193.373 198.701 194.107C197.086 198.145 198.995 200.862 198.481 204.239C197.6 209.305 196.131 214.297 198.627 218.776C198.921 219.29 199.582 219.657 200.169 219.51C200.316 219.51 200.463 219.436 200.61 219.363L200.536 219.29C197.967 214.664 199.435 209.525 200.389 204.239Z" fill="#C2CFE3"/>
<path d="M204.133 192.712C203.105 192.712 202.151 192.785 201.343 192.785C200.976 193.005 200.756 193.372 200.609 193.74C200.168 194.767 200.022 195.722 199.948 196.603C200.682 196.383 203.399 195.355 204.133 192.712Z" fill="#F6F8FC"/>
<path d="M199.141 213.343C199.141 215.398 199.508 217.38 200.536 219.289L200.609 219.363C202.225 218.922 203.546 217.894 204.133 215.839C202.371 213.856 200.169 213.416 199.141 213.343Z" fill="#F6F8FC"/>
<path d="M212.21 200.348C210.594 200.861 206.556 204.092 205.822 205.56C205.235 206.661 204.868 207.542 204.648 208.203C204.501 208.864 204.648 209.525 205.015 210.039L205.602 210.699C205.822 209.965 206.043 209.304 206.263 208.644C206.85 207.029 210.594 203.358 212.136 202.623C212.723 202.33 214.045 201.742 214.706 201.742C215.22 201.742 215.513 201.302 215.513 200.788C215.513 200.494 215.44 200.127 215.44 199.687C214.999 199.687 213.531 199.834 212.21 200.348Z" fill="#C2CFE3"/>
<path d="M240.035 163.933C240.035 163.933 234.089 157.472 232.033 154.682C230.198 152.113 229.684 152.039 229.977 150.277C230.271 148.809 229.904 144.918 229.757 143.596C229.757 143.376 229.537 143.156 229.243 143.156C221.314 143.596 212.798 143.082 203.694 141.761C203.474 141.761 203.253 141.834 203.18 142.054C202.519 143.596 200.096 150.277 200.684 158.794C201.345 168.485 203.988 178.396 203.988 178.396C203.988 178.396 224.471 177.588 240.035 163.933Z" fill="#B5F3D8"/>
<path d="M227.19 116.652C227.41 115.11 230.053 107.842 231.081 104.979C231.374 104.098 231.448 103.143 231.154 102.189C230.787 101.014 230.42 100.207 231.007 99.1787C231.668 98.0041 231.888 97.2699 232.696 96.5357C232.843 96.3889 234.238 95.9484 235.192 95.6547C234.752 94.48 235.633 94.2598 236.514 94.0395C237.101 93.9661 239.157 93.4522 240.625 93.1585C241.506 93.0117 242.167 93.0851 242.314 93.7459C242.681 95.0674 241.359 96.1686 241.653 97.8572C241.8 99.1053 241.212 100.133 241.139 101.014C240.992 102.703 239.964 103.437 239.304 103.584C237.909 103.804 235.853 104.612 235.266 107.034C234.678 109.457 233.357 115.624 232.696 118.047C232.109 120.47 226.896 118.781 227.19 116.652Z" fill="white"/>
<path d="M230.859 119.809C230.565 119.809 230.272 119.809 229.905 119.735C228.142 119.368 226.454 118.12 226.601 116.652C226.748 115.404 228.216 111.366 229.758 106.961C230.051 106.153 230.272 105.419 230.492 104.905C230.786 104.097 230.786 103.29 230.565 102.482C230.492 102.335 230.492 102.188 230.418 101.968C230.125 101.014 229.831 100.133 230.492 98.958C230.639 98.6644 230.786 98.4441 230.932 98.1504C231.299 97.3428 231.667 96.7555 232.327 96.1682C232.548 96.0213 233.282 95.7277 234.53 95.3606C234.53 95.0669 234.53 94.7732 234.677 94.4796C235.044 93.8922 235.778 93.672 236.365 93.5986C236.659 93.5251 237.246 93.3783 237.98 93.2315C238.788 93.0846 239.669 92.8644 240.403 92.7175C241.651 92.4973 242.532 92.791 242.753 93.672C242.973 94.4796 242.679 95.2137 242.459 95.8745C242.239 96.5353 242.018 97.1226 242.092 97.8568C242.239 98.8112 241.945 99.6188 241.798 100.206C241.725 100.573 241.578 100.867 241.578 101.087C241.431 102.923 240.33 103.95 239.302 104.097C237.907 104.317 236.218 105.052 235.704 107.181C235.484 108.135 235.191 109.53 234.823 111.145C234.236 113.715 233.575 116.725 233.208 118.193C232.988 119.221 232.107 119.809 230.859 119.809ZM241.284 93.672C241.137 93.672 240.917 93.672 240.77 93.7454C240.036 93.8922 239.155 94.1125 238.347 94.2593C237.613 94.4062 236.953 94.553 236.659 94.6264C236.439 94.6998 235.851 94.7732 235.704 94.9935C235.631 95.0669 235.631 95.2872 235.778 95.5074C235.851 95.6542 235.851 95.8011 235.778 95.9479C235.704 96.0948 235.558 96.1682 235.411 96.2416C234.236 96.6087 233.208 96.9023 233.061 97.0492C232.548 97.4897 232.327 98.0036 231.96 98.6644C231.813 98.8846 231.667 99.1783 231.52 99.4719C231.153 100.206 231.299 100.72 231.52 101.601C231.593 101.748 231.593 101.895 231.667 102.115C231.96 103.143 231.96 104.244 231.593 105.198C231.373 105.786 231.153 106.447 230.859 107.254C229.684 110.558 227.922 115.55 227.702 116.725C227.629 117.459 228.73 118.34 230.125 118.56C230.418 118.634 231.96 118.854 232.18 117.9C232.548 116.431 233.208 113.495 233.796 110.852C234.163 109.31 234.456 107.842 234.677 106.887C235.337 104.024 237.76 103.216 239.155 102.996C239.596 102.923 240.403 102.409 240.55 100.94C240.55 100.573 240.697 100.206 240.77 99.839C240.917 99.2517 241.137 98.5909 241.064 97.9302C240.917 96.9023 241.211 96.0947 241.504 95.434C241.725 94.8466 241.945 94.3327 241.798 93.8922C241.798 93.7454 241.578 93.672 241.284 93.672Z" fill="black"/>
<path d="M228.657 111.365C229.758 111.879 231.74 112.76 234.163 113.421C234.824 113.641 235.264 114.376 235.044 115.036C233.502 120.249 231.887 125.094 230.492 129.206C229.758 131.482 227.262 132.73 224.986 131.996C222.636 131.188 221.462 128.692 222.269 126.416L227.482 111.879C227.629 111.365 228.216 111.072 228.657 111.365Z" fill="#5C9EFF"/>
<path d="M204.064 95.0665C204.064 95.0665 204.651 89.4868 205.165 86.5501C205.532 84.421 205.018 82.2184 203.55 80.5298C202.669 79.502 201.788 77.9602 201.788 75.9046C201.714 65.5527 216.325 65.773 220.216 71.1324C221.684 73.1881 221.831 74.8767 221.684 75.9046C221.537 76.859 221.537 77.8868 221.684 78.9147C221.757 79.7223 221.757 80.6767 221.39 81.7779C220.362 84.8615 219.408 88.3855 217.206 88.4589C215.957 88.5323 214.93 88.3121 214.049 88.0918C213.094 87.7982 212.14 88.5323 211.993 89.4868L211.259 97.5627L204.064 95.0665Z" fill="white"/>
<path d="M211.331 98.2238C211.258 98.2238 211.185 98.2238 211.185 98.2238L203.916 95.6542C203.696 95.5808 203.549 95.3605 203.549 95.0668C203.549 94.9934 204.137 89.4137 204.65 86.5504C205.018 84.4948 204.504 82.5125 203.182 80.9707C201.934 79.5024 201.347 77.8138 201.273 75.9784C201.2 71.867 203.402 68.9303 207.367 67.6088C212.212 66.067 218.306 67.5354 220.729 70.9126C222.344 73.1885 222.491 74.9505 222.271 76.1252C222.124 77.0062 222.124 77.9606 222.271 78.9885C222.417 80.0163 222.271 81.1176 221.977 82.072L221.757 82.8062C220.729 85.8897 219.701 89.1201 217.352 89.1935C216.25 89.2669 215.149 89.1201 214.048 88.8264C213.754 88.753 213.461 88.8264 213.167 88.9732C212.873 89.12 212.726 89.4137 212.726 89.7808L211.992 97.8567C211.992 98.0035 211.919 98.1504 211.772 98.2972C211.552 98.1504 211.478 98.2238 211.331 98.2238ZM204.724 94.6998L210.891 96.9023L211.552 89.4871C211.625 88.8264 211.919 88.239 212.506 87.872C213.02 87.5049 213.681 87.4315 214.268 87.5783C215.223 87.872 216.25 87.9454 217.205 87.9454C218.82 87.872 219.774 84.9353 220.655 82.3657L220.876 81.6315C221.169 80.8239 221.243 79.9429 221.096 78.9885C220.949 77.8872 220.949 76.8594 221.096 75.9049C221.243 74.9505 221.096 73.4822 219.701 71.4999C217.645 68.5632 211.992 67.2417 207.587 68.6366C205.605 69.2974 202.228 71.0594 202.301 75.9049C202.301 77.5201 202.888 78.9885 203.916 80.2366C205.458 81.9986 206.119 84.4213 205.678 86.7707C205.311 89.0466 204.871 93.3783 204.724 94.6998Z" fill="black"/>
<path d="M235.484 262.532C232.841 261.724 230.271 261.137 228.215 260.403C226.6 259.816 222.929 256.071 222.195 254.53C221.902 253.942 221.314 252.621 221.314 251.96C221.314 251.446 220.874 251.152 220.36 251.152C218.965 251.299 216.102 251.446 213.165 251.152C212.651 251.079 212.21 251.519 212.21 252.033C212.21 254.456 212.21 261.431 212.357 265.395C212.578 265.762 212.945 265.983 213.312 266.129C217.496 267.745 220.286 265.762 223.81 266.35C229.096 267.231 234.236 268.772 238.861 266.203L238.934 266.129C238.494 264.514 237.466 263.193 235.484 262.532Z" fill="#2C80FC"/>
<path d="M223.811 266.35C220.286 265.762 217.497 267.745 213.312 266.129C212.945 265.983 212.578 265.689 212.357 265.395C212.357 265.689 212.357 265.983 212.357 266.203C212.357 267.01 212.945 267.745 213.679 268.038C217.717 269.653 220.433 267.745 223.811 268.259C228.876 269.14 233.869 270.608 238.347 268.112C238.861 267.818 239.228 267.157 239.081 266.57C239.081 266.423 239.008 266.276 238.934 266.129L238.861 266.203C234.236 268.699 229.097 267.231 223.811 266.35Z" fill="#C2CFE3"/>
<path d="M239.008 266.056C238.567 264.441 237.539 263.12 235.484 262.532C233.428 264.294 232.987 266.497 232.914 267.598C234.97 267.598 236.952 267.231 238.861 266.203C238.934 266.13 238.934 266.13 239.008 266.056Z" fill="#F6F8FC"/>
<path d="M212.285 262.531C212.285 263.559 212.358 264.514 212.358 265.321C212.578 265.688 212.945 265.909 213.313 266.056C214.267 266.423 215.221 266.643 216.102 266.716C215.956 266.056 215.075 263.192 212.285 262.531Z" fill="#F6F8FC"/>
<path d="M225.131 260.843C226.232 261.43 227.113 261.797 227.774 262.018C228.434 262.164 229.095 262.018 229.609 261.651L230.27 261.063C229.536 260.843 228.875 260.623 228.214 260.402C226.599 259.815 222.928 256.071 222.194 254.529C221.9 253.942 221.313 252.62 221.313 251.959C221.313 251.446 220.873 251.152 220.359 251.152C220.065 251.152 219.698 251.225 219.257 251.225C219.331 251.739 219.478 253.208 219.918 254.529C220.432 256.144 223.662 260.109 225.131 260.843Z" fill="#C2CFE3"/>
<path d="M199.805 132.73C213.901 135.594 216.397 134.052 227.263 137.209C227.263 137.209 229.539 125.315 229.172 118.854C228.805 112.394 223.812 107.548 221.904 105.346C223.812 103.584 226.896 102.556 226.896 102.556C226.896 102.556 221.463 100.206 217.939 98.9583C219.995 97.1229 220.729 94.6267 220.729 94.6267C214.782 92.2039 207.881 89.2672 201.567 88.9001C202.007 92.3508 202.228 95.5077 202.228 95.5077C202.228 95.5077 196.795 100.206 196.134 106.153C195.473 112.1 199.952 120.616 200.98 125.389C201.567 128.252 200.319 130.381 199.658 130.968C198.851 131.482 198.483 132.437 199.805 132.73Z" fill="#5C9EFF"/>
<path d="M228.803 126.122C228.142 126.122 227.628 126.196 227.481 126.269C227.114 126.49 226.6 126.857 226.6 126.857C226.086 126.71 216.542 111.292 214.78 108.209C211.623 102.629 207.512 102.409 204.795 103.804C202.079 105.272 200.684 109.677 203.18 113.788C204.795 116.431 211.77 127.664 217.056 135.079C219.993 135.446 222.929 135.96 227.261 137.209C227.261 137.209 228.289 131.629 228.803 126.122Z" fill="#2C80FC"/>
<path d="M223.59 137.796C218.084 132.583 205.529 116.799 203.18 113.715C200.243 109.971 201.124 105.345 203.694 103.657C206.19 101.895 210.375 101.748 214.119 106.887C216.248 109.824 227.481 124.067 227.995 124.14C227.995 124.14 228.509 123.773 228.802 123.48C229.316 123.039 233.942 122.599 235.851 124.728C238.567 127.738 236.878 131.115 235.851 132.657C235.337 133.464 233.942 135.961 231.959 137.796C229.977 139.485 225.792 139.925 223.59 137.796Z" fill="#5C9EFF"/>
<path d="M221.315 66.5079C222.563 67.4623 221.902 70.4724 221.242 71.6471C218.378 76.3458 213.386 76.6395 209.275 77.5205C205.457 76.3458 205.383 81.1179 208.1 82.2192C208.1 83.9812 208.32 89.1204 210.376 92.4242C211.844 94.7001 213.092 96.609 213.166 99.9127C213.166 99.9127 208.467 97.1229 203.988 98.7381C195.766 101.675 198.702 118.928 198.702 118.928C198.702 118.928 194.224 118.194 192.389 112.614C188.424 100.794 199.437 92.4976 198.702 78.5483C198.482 74.7306 201.272 69.6648 205.163 67.6825C206.411 67.0218 208.907 66.6547 211.037 66.5079C215.442 66.0674 219.333 64.9661 221.315 66.5079Z" fill="#151F36"/>
<path d="M197.308 67.1685C198.776 68.6369 201.346 67.6825 202.887 65.9939C204.503 64.3053 204.943 61.5154 202.3 60.4141C200.171 59.4597 193.71 63.4977 197.308 67.1685Z" fill="#B5F3D8"/>
<path d="M198.702 77.3738C198.702 77.3738 206.704 67.8296 212.945 66.0676C207.291 63.6448 195.545 60.341 198.702 77.3738Z" fill="#B5F3D8"/>
<path d="M218.525 82.1456H218.452C217.938 82.0722 217.571 81.5582 217.497 80.6772C217.424 80.0165 217.424 79.1355 217.497 78.181C217.571 77.2266 217.791 76.419 218.085 75.7583C218.452 74.8773 218.892 74.5102 219.406 74.5836C219.92 74.657 220.287 75.1709 220.361 76.0519C220.434 76.7127 220.434 77.5937 220.361 78.5481C220.287 79.5026 220.067 80.3101 219.773 80.9709C219.406 81.7785 219.039 82.1456 218.525 82.1456ZM219.186 75.9051C218.966 76.2722 218.672 77.1532 218.525 78.3279C218.378 79.5026 218.452 80.3836 218.599 80.8241C218.819 80.457 219.113 79.576 219.259 78.4013C219.406 77.2266 219.333 76.3456 219.186 75.9051Z" fill="#2C80FC"/>
<path d="M217.864 78.4014L208.32 77.9609C208.026 77.9609 207.806 77.6672 207.806 77.3735C207.806 77.0799 208.1 76.8596 208.394 76.8596L217.938 77.3001C218.231 77.3001 218.452 77.5938 218.452 77.8875C218.452 78.1811 218.158 78.4014 217.864 78.4014Z" fill="#2C80FC"/>
<path d="M240.037 95.3613C240.037 95.3613 236.807 96.0221 236.293 96.1689C235.926 96.2423 235.339 96.1689 235.265 95.655" fill="white"/>
<path d="M236.072 96.7555C235.778 96.7555 235.484 96.6821 235.264 96.5353C234.97 96.3884 234.823 96.0948 234.75 95.8011C234.677 95.5074 234.897 95.2138 235.191 95.1403C235.484 95.0669 235.778 95.2872 235.851 95.5809C235.925 95.6543 236.072 95.6543 236.218 95.6543C236.732 95.5074 239.963 94.8467 239.963 94.8467L240.183 95.9479C240.183 95.9479 236.953 96.6087 236.439 96.7555C236.292 96.7555 236.145 96.7555 236.072 96.7555Z" fill="black"/>
<path d="M236.291 99.0315C236.071 99.0315 235.777 98.8846 235.777 98.591C235.704 98.2973 235.924 98.0036 236.218 97.9302L239.962 97.1226C240.256 97.0492 240.55 97.2695 240.623 97.5631C240.696 97.8568 240.476 98.1505 240.182 98.2239L236.438 99.0315C236.365 99.0315 236.291 99.0315 236.291 99.0315Z" fill="black"/>
<path d="M235.778 101.161C235.557 101.161 235.264 101.014 235.264 100.72C235.19 100.427 235.411 100.133 235.704 100.06L239.449 99.252C239.742 99.1786 240.036 99.3989 240.109 99.6925C240.183 99.9862 239.962 100.28 239.669 100.353L235.924 101.161C235.851 101.161 235.778 101.161 235.778 101.161Z" fill="black"/>
<path d="M88.0641 228.759H76.7578V192.344H88.0641V228.759ZM77.8591 227.658H86.9628V193.445H77.8591V227.658Z" fill="white"/>
<path d="M102.674 228.759H91.3682V201.008H102.674V228.759ZM92.4694 227.658H101.573V202.109H92.4694V227.658V227.658Z" fill="white"/>
<path d="M117.284 228.759H105.978V196.603H117.284V228.759ZM107.079 227.658H116.183V197.704H107.079V227.658Z" fill="white"/>
<defs>
<linearGradient id="paint0_linear" x1="190.798" y1="31.1293" x2="75.3782" y2="237.236" gradientUnits="userSpaceOnUse">
<stop stop-color="#D9E1EE"/>
<stop offset="1" stop-color="#EEF2FA"/>
</linearGradient>
<linearGradient id="paint1_linear" x1="99.641" y1="41.1668" x2="99.641" y2="83.5641" gradientUnits="userSpaceOnUse">
<stop offset="0.0138476" stop-color="#8592AC"/>
<stop offset="1" stop-color="#8592AC"/>
</linearGradient>
<linearGradient id="paint2_linear" x1="142.025" y1="94.2346" x2="142.025" y2="182.024" gradientUnits="userSpaceOnUse">
<stop offset="0.0176918" stop-color="#8592AC"/>
<stop offset="1" stop-color="#495875" stop-opacity="0.8"/>
</linearGradient>
<linearGradient id="paint3_linear" x1="165.518" y1="62.5556" x2="165.518" y2="97.5554" gradientUnits="userSpaceOnUse">
<stop offset="0.0138476" stop-color="white"/>
<stop offset="1" stop-color="#EEF2FA"/>
</linearGradient>
</defs>
</svg>
