<svg width="244" height="237" viewBox="0 0 244 237" fill="none" xmlns="http://www.w3.org/2000/svg">
<path d="M236.522 218.364H10.6201C10.3523 218.364 10.0845 218.163 10.0845 217.828C10.0845 217.493 10.2853 217.292 10.6201 217.292H236.522C236.79 217.292 237.058 217.493 237.058 217.828C237.058 218.163 236.79 218.364 236.522 218.364Z" fill="#151F36"/>
<path fill-rule="evenodd" clip-rule="evenodd" d="M201.884 236.87C185.346 237.204 176.843 233.053 135.264 233.924C117.254 234.325 100.114 229.505 125.087 229.036C165.059 228.232 164.055 231.915 182.4 231.513C189.564 231.379 212.127 231.781 221.166 231.58C235.695 231.245 241.118 235.999 201.884 236.87Z" fill="#DCE3F0"/>
<path d="M211.415 0.0941162H7.87549V129.315H211.415V0.0941162Z" fill="#DCE3F0"/>
<path opacity="0.8" d="M68.0668 15.6942H0.376465V80.7733H68.0668V15.6942Z" fill="url(#paint0_linear)"/>
<path d="M20.5302 24.5977H8.47852V36.6493H20.5302V24.5977Z" fill="white"/>
<path d="M59.4304 24.3309H23.3423V25.4691H59.4304V24.3309Z" fill="white"/>
<path d="M59.4299 29.8879H23.3418V31.0262H59.4299V29.8879Z" fill="white"/>
<path d="M40.9507 35.512H23.3418V36.6502H40.9507V35.512Z" fill="white"/>
<path d="M20.5302 42.6753H8.47852V54.727H20.5302V42.6753Z" fill="white"/>
<path d="M59.4304 42.4086H23.3423V43.5468H59.4304V42.4086Z" fill="white"/>
<path d="M59.4299 47.9657H23.3418V49.1039H59.4299V47.9657Z" fill="white"/>
<path d="M40.9507 53.5897H23.3418V54.7279H40.9507V53.5897Z" fill="white"/>
<path d="M20.5302 60.7533H8.47852V72.805H20.5302V60.7533Z" fill="white"/>
<path d="M59.4304 60.4862H23.3423V61.6244H59.4304V60.4862Z" fill="white"/>
<path d="M59.4299 66.0433H23.3418V67.1816H59.4299V66.0433Z" fill="white"/>
<path d="M40.9507 71.6674H23.3418V72.8056H40.9507V71.6674Z" fill="white"/>
<path d="M211.281 0.0270996H7.94189V6.9903H211.281V0.0270996Z" fill="#151F36"/>
<path d="M11.4236 4.91472C12.2001 4.91472 12.8296 4.28522 12.8296 3.50869C12.8296 2.73216 12.2001 2.10266 11.4236 2.10266C10.6471 2.10266 10.0176 2.73216 10.0176 3.50869C10.0176 4.28522 10.6471 4.91472 11.4236 4.91472Z" fill="white"/>
<path d="M15.6424 4.91472C16.4189 4.91472 17.0484 4.28522 17.0484 3.50869C17.0484 2.73216 16.4189 2.10266 15.6424 2.10266C14.8658 2.10266 14.2363 2.73216 14.2363 3.50869C14.2363 4.28522 14.8658 4.91472 15.6424 4.91472Z" fill="white"/>
<path d="M19.8601 4.91472C20.6367 4.91472 21.2662 4.28522 21.2662 3.50869C21.2662 2.73216 20.6367 2.10266 19.8601 2.10266C19.0836 2.10266 18.4541 2.73216 18.4541 3.50869C18.4541 4.28522 19.0836 4.91472 19.8601 4.91472Z" fill="white"/>
<path d="M128.86 96.5747C128.19 96.5747 127.521 96.3069 127.052 95.7713C126.181 94.767 126.248 93.294 127.253 92.4236C132.609 87.6699 135.89 81.1084 136.425 73.8774C136.961 66.6464 134.752 59.7501 130.065 54.4608C130.065 54.3938 126.717 50.6444 124.976 49.1714C123.972 48.301 123.905 46.828 124.709 45.8237C125.579 44.8194 127.052 44.7525 128.056 45.5559C130.065 47.2967 133.479 51.18 133.613 51.314C139.104 57.5407 141.782 65.709 141.112 74.2791C140.443 82.7153 136.626 90.4819 130.333 96.0391C129.931 96.3739 129.395 96.5747 128.86 96.5747Z" fill="#2C80FC"/>
<path d="M111.251 101.529C110.581 101.529 109.912 101.261 109.443 100.726C108.573 99.7215 108.64 98.2485 109.644 97.3781L120.357 87.9376C124.441 84.3221 126.918 79.3006 127.253 73.8104C127.588 68.3202 125.78 63.0308 122.164 58.9466C122.164 58.8797 119.754 56.2015 118.147 54.8624C117.143 53.992 117.009 52.5191 117.812 51.5147C118.683 50.5104 120.156 50.3765 121.16 51.18C123.102 52.7869 125.579 55.6659 125.713 55.7998C130.199 60.8213 132.408 67.3828 132.007 74.1451C131.605 80.9075 128.592 87.0672 123.503 91.5531L112.791 100.994C112.322 101.328 111.786 101.529 111.251 101.529Z" fill="#2C80FC"/>
<path d="M90.2938 109.363C89.6242 109.363 89.0216 109.095 88.5529 108.559C87.6825 107.555 87.7495 106.082 88.7538 105.212L113.259 83.3179C119.151 78.0955 119.753 69.0567 114.531 63.1648L114.464 63.0978C114.397 63.0308 114.397 63.0308 114.33 62.9639C113.995 62.6291 113.527 62.3613 113.058 62.3613C112.589 62.3613 112.054 62.4952 111.719 62.83C111.049 63.4326 110.648 64.4369 111.585 65.5081C113.795 67.9854 113.995 70.7975 113.995 72.7391C113.995 76.0868 112.389 79.1667 109.175 82.0457L96.9891 92.8253C95.9848 93.6957 94.5118 93.6288 93.6414 92.6244C92.771 91.6201 92.838 90.1472 93.8423 89.2768L106.028 78.4972C108.237 76.5555 109.242 74.7478 109.242 72.8061C109.242 71.467 109.108 69.994 107.97 68.7219C105.492 65.9099 105.76 61.8926 108.505 59.4153C109.844 58.2771 111.518 57.6745 113.259 57.7415C115 57.8084 116.607 58.6119 117.745 59.884L117.879 60.0179C117.946 60.0849 117.946 60.0849 118.013 60.1518C124.976 68.0524 124.239 80.1041 116.339 87.0673L91.8337 108.961C91.365 109.162 90.8294 109.363 90.2938 109.363Z" fill="#2C80FC"/>
<path d="M89.357 86.5315C88.6875 86.5315 88.0179 86.2637 87.5493 85.728L84.6703 82.4473C74.9619 71.3999 75.9663 54.5275 86.9467 44.7523L97.3245 35.7135C98.3288 34.8431 99.8018 34.977 100.672 35.9144C101.543 36.9187 101.409 38.3917 100.471 39.2621L90.0935 48.3008C81.0547 56.3353 80.2513 70.2617 88.2188 79.3005L91.0978 82.5812C91.9682 83.5855 91.8343 85.0585 90.897 85.9289C90.4952 86.3306 89.8926 86.5315 89.357 86.5315Z" fill="#2C80FC"/>
<path d="M96.1192 80.7735C95.4496 80.7735 94.7801 80.5056 94.3114 79.97L91.8341 77.158C84.8709 69.3244 85.6074 57.2057 93.508 50.2425L111.987 33.571C112.992 32.7006 114.465 32.7676 115.335 33.7719C116.205 34.7762 116.138 36.2492 115.134 37.1196L96.6548 53.7911C90.6959 59.0135 90.1603 68.1192 95.3827 74.0111L97.86 76.8232C98.7304 77.8275 98.5965 79.3005 97.6591 80.1709C97.2574 80.6396 96.7218 80.7735 96.1192 80.7735Z" fill="#2C80FC"/>
<path d="M102.012 74.4129C101.342 74.4129 100.739 74.1451 100.271 73.6764L99.7351 73.0738C94.9814 67.7175 95.4501 59.5491 100.806 54.7954L131.538 27.4782C132.543 26.6078 134.015 26.6748 134.886 27.6791C135.756 28.6834 135.689 30.1564 134.685 31.0268L103.953 58.344C100.606 61.3569 100.271 66.5123 103.284 69.86L103.819 70.3957C104.69 71.333 104.623 72.8729 103.685 73.7433C103.217 74.212 102.614 74.4129 102.012 74.4129Z" fill="#2C80FC"/>
<path d="M179.654 144.406C177.712 150.097 169.812 171.255 164.522 181.03C163.518 182.838 163.183 185.583 162.38 186.587C161.175 188.194 158.296 188.997 157.225 190.27C151.868 196.496 137.674 214.038 135.264 216.582C131.246 220.8 126.961 216.716 129.573 212.766C132.184 208.816 145.24 185.984 147.382 183.239C148.654 181.566 150.998 179.959 152.672 178.887C153.944 178.084 154.814 176.812 155.015 175.406C156.22 168.443 159.836 147.955 161.041 141.259C162.514 133.158 182.064 137.51 179.654 144.406Z" fill="url(#paint1_linear)"/>
<path d="M129.238 211.293C129.506 211.092 129.908 211.226 129.975 211.628C130.577 214.975 133.791 215.645 136.938 215.511C137.875 215.444 138.545 216.582 138.344 217.52C138.21 218.39 138.143 219.461 138.344 220.599C138.612 221.671 138.946 223.144 139.415 224.282C139.75 225.085 143.098 225.219 143.767 225.688C144.37 226.157 144.704 227.228 144.905 227.897C145.039 228.299 144.838 228.768 144.504 229.036C142.696 230.442 134.661 230.375 133.255 228.433C131.916 226.625 130.912 224.751 130.242 223.345C128.903 220.332 124.484 217.653 125.221 215.913C125.823 214.44 127.564 212.498 129.238 211.293Z" fill="white"/>
<path d="M139.482 230.442C138.612 230.442 137.742 230.375 136.938 230.308C135.465 230.107 133.59 229.705 132.854 228.701C131.314 226.692 130.31 224.55 129.774 223.479C129.238 222.273 128.033 221.001 127.029 219.93C125.489 218.323 124.217 216.917 124.753 215.645C125.422 214.172 127.163 212.163 128.971 210.891C129.238 210.69 129.573 210.624 129.908 210.757C130.243 210.891 130.444 211.159 130.511 211.494C130.979 214.038 133.122 215.176 136.938 214.975C137.474 214.975 137.942 215.176 138.344 215.578C138.813 216.114 139.014 216.85 138.88 217.587C138.679 218.658 138.679 219.595 138.88 220.466V220.533C139.148 221.537 139.415 223.01 139.884 224.014C140.085 224.282 141.424 224.483 142.094 224.617C143.098 224.818 143.7 224.952 144.035 225.152C144.571 225.554 145.04 226.425 145.307 227.697C145.441 228.299 145.24 228.969 144.705 229.371C143.834 230.107 141.692 230.442 139.482 230.442ZM129.506 211.695C127.899 212.9 126.225 214.708 125.69 216.047C125.355 216.716 126.56 218.055 127.765 219.261C128.837 220.399 130.042 221.671 130.711 223.077C131.18 224.081 132.184 226.157 133.657 228.098C134.059 228.634 135.331 229.103 137.072 229.304C139.951 229.638 143.232 229.304 144.169 228.567C144.37 228.433 144.437 228.165 144.437 227.898C144.236 226.96 143.901 226.224 143.5 225.956C143.299 225.822 142.495 225.688 141.96 225.554C140.286 225.219 139.281 225.019 139.014 224.349C138.545 223.211 138.21 221.738 137.942 220.667V220.6C137.742 219.595 137.742 218.524 137.942 217.319C138.009 216.917 137.875 216.448 137.608 216.181C137.407 215.98 137.273 215.913 137.005 215.913C131.515 216.248 129.908 213.77 129.506 211.695Z" fill="#151F36"/>
<path d="M134.125 226.425C132.786 224.617 131.782 222.742 131.112 221.336C129.907 218.658 126.158 216.181 126.024 214.44C125.689 214.909 125.354 215.444 125.153 215.846C124.35 217.654 128.769 220.332 130.175 223.278C130.778 224.684 131.849 226.559 133.188 228.366C134.594 230.241 142.628 230.375 144.436 228.969C144.771 228.701 144.972 228.233 144.838 227.831C144.838 227.697 144.771 227.563 144.704 227.362C142.227 228.366 135.464 228.166 134.125 226.425Z" fill="#151F36"/>
<path d="M139.482 230.442C138.612 230.442 137.742 230.375 136.938 230.308C135.465 230.107 133.59 229.705 132.854 228.701C131.314 226.692 130.31 224.55 129.774 223.479C129.238 222.273 128.033 221.001 127.029 219.93C125.489 218.323 124.217 216.917 124.753 215.645C124.953 215.176 125.221 214.708 125.623 214.172C125.757 213.971 125.958 213.904 126.159 213.971C126.359 214.038 126.493 214.172 126.493 214.44C126.56 215.176 127.565 216.248 128.636 217.319C129.707 218.457 130.912 219.729 131.582 221.135C132.05 222.14 133.055 224.215 134.528 226.157C135.599 227.63 142.161 227.898 144.571 226.893C144.705 226.826 144.839 226.826 144.973 226.893C145.106 226.96 145.173 227.094 145.24 227.228C145.307 227.362 145.307 227.563 145.374 227.697C145.508 228.299 145.307 228.969 144.772 229.371C143.834 230.107 141.692 230.442 139.482 230.442ZM125.958 215.578C125.824 215.779 125.757 215.913 125.69 216.047C125.355 216.716 126.56 218.055 127.765 219.26C128.837 220.399 130.042 221.671 130.711 223.077C131.18 224.081 132.184 226.157 133.657 228.098C134.059 228.634 135.331 229.103 137.072 229.304C139.951 229.638 143.232 229.304 144.169 228.567C144.37 228.433 144.437 228.232 144.437 228.031C141.424 228.902 135.197 228.634 133.791 226.759C132.251 224.751 131.247 222.608 130.711 221.537C130.176 220.332 128.971 219.06 127.966 217.988C127.096 217.118 126.359 216.315 125.958 215.578Z" fill="#151F36"/>
<path d="M175.035 159.471L158.43 154.851L160.238 143.737L178.985 149.227L175.035 159.471Z" fill="#151F36"/>
<path d="M175.102 157.261C174.901 158.266 174.499 160.207 173.963 161.279C173.83 161.546 173.562 161.68 173.294 161.613C170.281 161.212 160.506 158.065 157.024 156.458C156.622 156.257 156.422 155.855 156.555 155.454C156.756 154.65 156.89 153.847 157.024 153.244C157.158 152.775 157.627 152.441 158.095 152.575C164.121 154.181 168.473 155.32 174.566 156.458C174.901 156.525 175.169 156.86 175.102 157.261Z" fill="#151F36"/>
<path d="M177.713 141.125C179.32 146.95 184.743 171.054 186.551 180.227C186.952 182.235 186.015 184.378 186.618 186.319C186.618 186.319 195.589 211.963 199.071 222.943C200.879 228.5 195.322 231.178 193.179 226.96C191.037 222.809 177.512 199.509 176.106 196.228C175.302 194.287 175.035 191.475 174.968 189.466C174.901 187.993 175.369 181.03 174.767 179.691C171.888 173.196 163.452 154.248 160.639 148.022C157.292 140.59 175.838 134.095 177.713 141.125Z" fill="url(#paint2_linear)"/>
<path d="M175.235 79.595C173.963 77.8542 173.494 74.7743 173.227 70.6901C174.967 71.5605 178.918 72.6987 180.324 71.6275C182.265 70.1545 182.265 60.9818 181.261 60.1784C181.596 58.9732 181.127 57.0315 180.658 55.3577C179.654 51.7422 173.093 43.9755 163.987 50.9387C156.823 56.362 164.857 64.7982 165.46 68.9493C166.062 73.0335 164.255 76.0464 161.644 77.3855C170.481 86.6921 173.963 87.2277 175.235 79.595Z" fill="url(#paint3_linear)"/>
<path d="M201.682 103.096C201.682 103.096 218.89 103.765 220.898 103.564C222.907 103.364 225.049 101.69 226.121 101.154C227.192 100.685 228.464 100.485 230.004 100.618C231.544 100.752 232.749 100.953 232.749 100.953C232.749 100.953 236.231 102.292 237.302 103.163C238.373 104.033 235.427 107.716 235.427 107.716L230.941 106.979C230.941 106.979 228.665 108.385 226.857 109.055C225.049 109.724 222.572 108.117 221.032 108.385C219.492 108.653 205.633 111.063 202.352 110.729C199.071 110.394 197.799 102.962 201.682 103.096Z" fill="url(#paint4_linear)"/>
<path d="M147.985 83.813C148.923 81.6035 150.463 80.2644 152.136 79.7288C152.471 79.5949 152.806 79.461 153.275 79.394C155.819 78.7914 162.313 77.7871 163.117 75.9794C166.599 79.8627 169.21 83.0765 171.419 83.0765C173.629 83.0765 174.633 79.1262 174.633 79.1262C175.972 80.6661 177.579 80.2644 179.119 80.867C179.989 81.0679 181.061 81.7374 182.132 83.0095C186.35 87.8972 200.209 101.891 200.209 101.891L198.335 110.327C198.335 110.327 190.97 105.305 184.274 99.8819C184.609 102.426 184.877 104.97 184.944 107.381C185.413 118.361 183.404 125.86 183.404 125.86C174.365 128.203 166.13 125.86 158.497 119.901C158.497 119.901 160.171 117.357 160.439 116.152C160.573 115.415 157.359 105.908 154.815 97.8063C151.065 105.573 146.713 115.013 146.713 115.013L140.286 111.398C140.286 111.331 144.035 92.9856 147.985 83.813Z" fill="white"/>
<mask id="mask0" mask-type="alpha" maskUnits="userSpaceOnUse" x="140" y="75" width="61" height="52">
<path d="M147.985 83.813C148.923 81.6035 150.463 80.2644 152.136 79.7288C152.471 79.5949 152.806 79.461 153.275 79.394C155.819 78.7914 162.313 77.7871 163.117 75.9794C166.599 79.8627 169.21 83.0765 171.419 83.0765C173.629 83.0765 174.633 79.1262 174.633 79.1262C175.972 80.6661 177.579 80.2644 179.119 80.867C179.989 81.0679 181.061 81.7374 182.132 83.0095C186.35 87.8972 200.209 101.891 200.209 101.891L198.335 110.327C198.335 110.327 190.97 105.305 184.274 99.8819C184.609 102.426 184.877 104.97 184.944 107.381C185.413 118.361 183.404 125.86 183.404 125.86C174.365 128.203 166.13 125.86 158.497 119.901C158.497 119.901 160.171 117.357 160.439 116.152C160.573 115.415 157.359 105.908 154.815 97.8063C151.065 105.573 146.713 115.013 146.713 115.013L140.286 111.398C140.286 111.331 144.035 92.9856 147.985 83.813Z" fill="white"/>
</mask>
<g mask="url(#mask0)">
<path d="M142.227 73.7023H141.691V129.609H142.227V73.7023Z" fill="#B5F3D8"/>
<path d="M150.328 73.7028H149.792V129.609H150.328V73.7028Z" fill="#B5F3D8"/>
<path d="M158.296 73.7028H157.76V129.609H158.296V73.7028Z" fill="#B5F3D8"/>
<path d="M166.264 73.7028H165.728V129.609H166.264V73.7028Z" fill="#B5F3D8"/>
<path d="M174.164 73.7028H173.628V129.609H174.164V73.7028Z" fill="#B5F3D8"/>
<path d="M182.131 73.7028H181.595V129.609H182.131V73.7028Z" fill="#B5F3D8"/>
<path d="M190.099 73.7028H189.563V129.609H190.099V73.7028Z" fill="#B5F3D8"/>
<path d="M197.999 73.7028H197.463V129.609H197.999V73.7028Z" fill="#B5F3D8"/>
<path d="M197.732 81.6035H141.959V82.1391H197.732V81.6035Z" fill="#B5F3D8"/>
<path d="M197.732 89.5709H141.959V90.1065H197.732V89.5709Z" fill="#B5F3D8"/>
<path d="M197.732 97.5385H141.959V98.0741H197.732V97.5385Z" fill="#B5F3D8"/>
<path d="M197.732 105.439H141.959V105.975H197.732V105.439Z" fill="#B5F3D8"/>
<path d="M197.732 113.406H141.959V113.942H197.732V113.406Z" fill="#B5F3D8"/>
<path d="M197.732 121.374H141.959V121.91H197.732V121.374Z" fill="#B5F3D8"/>
</g>
<path d="M203.021 102.158C203.021 102.158 202.753 108.586 203.289 111.264C203.557 112.603 202.151 112.938 200.276 111.867C199.272 111.264 197.598 111.8 197.263 109.858C196.995 108.117 198.2 104.636 199.74 100.953C200.008 100.217 203.021 101.489 203.021 102.158Z" fill="#5C9EFF"/>
<path d="M192.977 227.16C195.455 226.558 197.262 226.96 198.802 223.411C199.338 222.206 201.012 222.072 202.15 222.741C202.82 223.143 203.556 223.478 204.427 223.679C207.774 224.348 213.733 224.683 214.737 225.286C215.407 225.687 215.809 226.692 216.077 227.361C216.21 227.763 216.076 228.232 215.809 228.566C212.595 231.646 206.77 232.249 203.623 232.249C200.342 232.249 196.057 235.195 194.785 233.722C193.848 232.718 192.844 229.972 192.375 228.433C192.04 227.83 192.375 227.227 192.977 227.16Z" fill="white"/>
<path d="M195.79 234.526C195.187 234.526 194.719 234.392 194.317 233.923C193.38 232.919 192.442 230.375 191.773 228.5C191.639 228.098 191.706 227.697 191.907 227.362C192.108 227.027 192.442 226.759 192.844 226.625C193.246 226.558 193.647 226.425 194.049 226.358C195.924 226.023 197.129 225.822 198.267 223.077C198.535 222.474 199.004 222.073 199.673 221.872C200.544 221.604 201.548 221.738 202.352 222.206C203.088 222.608 203.758 222.943 204.427 223.077C205.9 223.345 207.775 223.613 209.583 223.813C212.462 224.148 214.202 224.416 214.872 224.751C215.474 225.086 216.01 225.889 216.412 227.161C216.613 227.764 216.479 228.433 216.01 228.902C212.462 232.317 206.168 232.718 203.557 232.718C203.557 232.718 203.557 232.718 203.49 232.718C202.151 232.718 200.544 233.254 199.138 233.723C197.866 234.124 196.727 234.526 195.79 234.526ZM200.678 222.809C200.477 222.809 200.276 222.809 200.075 222.876C199.807 222.943 199.472 223.144 199.272 223.546C197.866 226.759 196.192 227.027 194.25 227.362C193.848 227.429 193.514 227.496 193.112 227.563C192.978 227.563 192.844 227.697 192.777 227.764C192.71 227.898 192.71 228.031 192.777 228.098C193.647 230.643 194.518 232.517 195.12 233.187C195.656 233.723 197.263 233.187 198.87 232.651C200.343 232.116 202.017 231.58 203.557 231.58C205.498 231.58 211.993 231.312 215.341 228.098C215.541 227.898 215.608 227.63 215.541 227.429C215.207 226.492 214.805 225.822 214.47 225.621C214.001 225.353 211.658 225.086 209.583 224.818C207.708 224.617 205.833 224.349 204.293 224.081C203.49 223.947 202.686 223.613 201.883 223.144C201.481 222.876 201.079 222.809 200.678 222.809Z" fill="#151F36"/>
<path d="M202.486 226.224C202.419 226.224 202.352 226.224 202.285 226.157C202.017 226.023 201.883 225.755 202.017 225.487L202.888 223.278C203.022 223.01 203.289 222.876 203.557 223.01C203.825 223.144 203.959 223.412 203.825 223.68L202.955 225.889C202.821 226.09 202.62 226.224 202.486 226.224Z" fill="#151F36"/>
<path d="M204.427 226.692C204.36 226.692 204.294 226.692 204.227 226.625C203.959 226.492 203.825 226.224 203.959 225.956L204.829 223.746C204.963 223.479 205.231 223.345 205.499 223.479C205.767 223.613 205.9 223.88 205.767 224.148L204.896 226.358C204.762 226.559 204.628 226.692 204.427 226.692Z" fill="#151F36"/>
<path d="M206.503 226.826C206.436 226.826 206.369 226.826 206.302 226.759C206.034 226.625 205.901 226.358 206.034 226.09L206.905 223.88C207.039 223.612 207.307 223.479 207.574 223.612C207.842 223.746 207.976 224.014 207.842 224.282L206.972 226.491C206.905 226.692 206.704 226.826 206.503 226.826Z" fill="#151F36"/>
<path d="M215.942 227.294C215.808 226.96 215.674 226.558 215.473 226.156C215.406 226.223 215.406 226.29 215.339 226.357C211.925 229.638 205.698 230.24 202.417 230.24C199.471 230.24 195.722 232.517 193.847 232.182C194.115 232.785 194.45 233.253 194.718 233.588C195.99 235.061 200.275 232.115 203.555 232.115C206.635 232.115 212.527 231.579 215.741 228.433C216.009 228.165 216.143 227.696 215.942 227.294Z" fill="#151F36"/>
<path d="M195.79 234.526C195.188 234.526 194.719 234.392 194.317 233.923C193.983 233.589 193.715 233.053 193.38 232.383C193.313 232.25 193.313 232.049 193.447 231.848C193.581 231.714 193.715 231.647 193.916 231.647C194.719 231.781 196.058 231.312 197.464 230.844C199.071 230.308 200.812 229.705 202.419 229.705C204.494 229.705 211.391 229.438 215.006 225.956L215.073 225.889C215.14 225.755 215.341 225.621 215.542 225.688C215.742 225.688 215.876 225.755 215.943 225.956C216.211 226.425 216.345 226.893 216.479 227.161C216.68 227.764 216.546 228.433 216.077 228.902C212.529 232.317 206.235 232.718 203.624 232.718C203.624 232.718 203.624 232.718 203.557 232.718C202.218 232.718 200.611 233.254 199.205 233.723C197.866 234.124 196.728 234.526 195.79 234.526ZM194.652 232.718C194.786 232.986 194.92 233.187 195.054 233.321C195.589 233.923 197.196 233.321 198.803 232.785C200.276 232.25 201.95 231.714 203.49 231.714C205.432 231.714 211.926 231.446 215.274 228.232C215.475 228.031 215.542 227.764 215.475 227.563C215.408 227.429 215.408 227.295 215.341 227.094C211.524 230.442 205.097 230.777 202.419 230.777C202.419 230.777 202.419 230.777 202.352 230.777C200.946 230.777 199.205 231.379 197.732 231.848C196.594 232.25 195.522 232.584 194.652 232.718Z" fill="#151F36"/>
<path d="M185.412 106.845C182.6 107.247 176.039 106.778 171.955 106.109C171.352 106.042 170.883 106.51 170.95 107.113C171.687 113.273 174.834 119.165 172.758 121.508C170.683 123.851 162.38 119.299 158.832 117.692C157.024 119.633 153.877 124.119 153.007 128.337C152.136 132.488 161.443 151.102 165.259 159.404L181.73 154.115L179.521 147.218C179.521 147.218 181.864 141.46 184.073 127.668C185.145 121.106 185.479 116.219 185.613 110.26C185.613 109.055 185.814 108.184 185.948 107.515C186.082 107.113 185.814 106.778 185.412 106.845Z" fill="#2C80FC"/>
<path d="M173.428 105.038C173.093 104.368 160.171 83.8132 157.894 80.5994C156.555 78.7917 154.748 78.5238 154.748 78.5238C154.748 78.5238 157.894 77.9882 158.698 77.5195C159.97 77.7873 160.907 78.9925 161.912 80.5994C163.385 83.0767 173.495 105.038 173.428 105.038Z" fill="#2C80FC"/>
<path d="M180.993 92.1153C179.587 86.8259 177.445 82.8087 176.976 81.2687C176.574 79.9297 175.771 79.2601 175.771 79.2601C175.771 79.2601 177.311 79.7288 178.382 79.8627C179.654 80.1305 179.922 80.6662 180.458 82.1391C181.462 84.9512 182.466 87.3616 183.538 92.9187C184.073 95.6638 183.805 99.815 183.805 105.238C183.069 99.6141 182.266 96.9359 180.993 92.1153Z" fill="#2C80FC"/>
<path d="M172.156 82.8086C172.156 82.8086 171.554 84.6833 170.75 87.2276C166.599 84.3486 164.456 82.0721 161.845 77.1175C161.778 76.9167 161.778 76.7158 161.979 76.5819C162.649 76.1132 163.251 75.5776 163.72 74.9081C163.854 74.7072 164.189 74.7072 164.323 74.975C166.599 79.2601 169.344 81.9382 172.156 82.8086Z" fill="#5C9EFF"/>
<path d="M180.458 123.182C181.013 123.182 181.462 122.732 181.462 122.178C181.462 121.623 181.013 121.173 180.458 121.173C179.903 121.173 179.454 121.623 179.454 122.178C179.454 122.732 179.903 123.182 180.458 123.182Z" fill="#151F36"/>
<path d="M180.458 117.424C181.013 117.424 181.462 116.974 181.462 116.419C181.462 115.865 181.013 115.415 180.458 115.415C179.903 115.415 179.454 115.865 179.454 116.419C179.454 116.974 179.903 117.424 180.458 117.424Z" fill="#151F36"/>
<path d="M180.458 111.733C181.013 111.733 181.462 111.283 181.462 110.728C181.462 110.174 181.013 109.724 180.458 109.724C179.903 109.724 179.454 110.174 179.454 110.728C179.454 111.283 179.903 111.733 180.458 111.733Z" fill="#151F36"/>
<path d="M139.013 115.683C139.013 115.683 135.598 134.028 135.063 135.97C134.527 137.912 133.255 139.117 132.719 140.121C131.113 143.201 130.242 146.482 130.242 146.883C130.242 147.017 130.242 147.151 130.309 147.285C130.443 148.022 132.92 150.968 134.059 151.838C135.598 153.043 135.732 152.307 135.598 151.102C135.532 150.7 134.929 148.691 135.13 148.156C135.532 147.218 136.402 144.808 136.737 145.143C136.938 145.343 136.469 146.683 136.469 147.486C136.469 148.156 136.67 148.624 137.205 148.423C137.741 148.222 138.076 145.343 138.879 143.67C139.683 141.929 138.544 138.849 139.08 137.376C139.616 135.903 146.244 121.106 146.579 117.825C146.713 114.545 139.616 111.8 139.013 115.683Z" fill="url(#paint5_linear)"/>
<path d="M146.981 118.763C146.981 119.031 146.646 119.098 146.512 118.964C144.035 117.089 141.357 115.616 138.009 114.478C136.737 114.076 138.746 112.938 138.746 112.469C138.746 111.8 138.478 110.394 138.21 109.255C138.143 108.854 138.478 108.452 138.946 108.586C142.964 109.59 146.311 112.268 148.253 114.746C148.454 115.013 148.454 115.415 148.186 115.683C147.249 116.486 147.115 117.424 146.981 118.763Z" fill="#5C9EFF"/>
<path d="M181.663 152.307C181.998 153.311 182.667 155.186 182.734 156.391C182.734 156.659 182.6 156.927 182.333 157.061C179.454 158.266 169.344 160.542 165.46 160.944C165.059 161.011 164.657 160.743 164.523 160.341C164.255 159.538 163.987 158.734 163.786 158.132C163.653 157.663 163.92 157.128 164.389 156.994C170.482 155.32 174.834 154.048 180.793 151.905C181.127 151.771 181.529 151.972 181.663 152.307Z" fill="#5C9EFF"/>
<path d="M172.156 82.8087C172.156 82.8087 173.562 85.0851 174.7 86.6251C175.972 83.4113 176.173 82.8756 176.508 79.7958C176.508 79.6619 176.441 79.461 176.307 79.394C175.771 79.0593 175.236 78.7245 174.834 78.3228C174.767 78.2558 174.566 78.2558 174.566 78.3897C174.231 79.9297 173.361 82.2731 172.156 82.8087Z" fill="#5C9EFF"/>
<path d="M167.134 42.9712C159.636 37.3471 146.646 41.3643 148.387 51.6082C151.266 68.3467 174.633 48.6623 167.134 42.9712Z" fill="#151F36"/>
<path d="M171.218 53.1482C170.348 54.822 172.155 56.295 171.017 57.4332C169.745 58.7723 169.812 60.9148 169.812 60.9148C169.812 60.9148 168.004 59.0401 166.799 59.9105C165.594 60.7809 165.996 63.9277 167.803 64.8651C167.469 66.472 165.996 67.6102 165.192 68.0789C163.853 63.7269 157.225 55.9602 163.92 50.8717C169.611 46.5197 174.298 47.9258 177.244 50.47C174.432 50.47 172.021 51.6752 171.218 53.1482Z" fill="#151F36"/>
<path d="M135.666 220.265C135.398 220.265 135.197 220.064 135.197 219.796C135.197 219.528 135.398 219.261 135.666 219.261L138.009 219.194C138.277 219.194 138.545 219.395 138.545 219.662C138.545 219.93 138.344 220.198 138.076 220.198L135.666 220.265Z" fill="#151F36"/>
<path d="M136.067 222.274C135.799 222.274 135.599 222.073 135.599 221.805C135.599 221.537 135.799 221.269 136.067 221.269L138.411 221.202C138.679 221.202 138.946 221.403 138.946 221.671C138.946 221.939 138.745 222.207 138.478 222.207L136.067 222.274Z" fill="#151F36"/>
<path d="M136.737 224.215C136.469 224.215 136.269 224.014 136.269 223.747C136.269 223.479 136.469 223.211 136.737 223.211L139.081 223.144C139.348 223.144 139.616 223.345 139.616 223.613C139.616 223.881 139.415 224.148 139.148 224.148L136.737 224.215C136.804 224.215 136.804 224.215 136.737 224.215Z" fill="#151F36"/>
<path d="M69.5392 217.694C70.1418 214.614 72.2174 206.379 75.3642 200.621C78.9797 193.925 86.6125 183.548 82.8631 176.049C79.9171 170.157 69.4053 173.437 68.6019 171.161C66.6602 165.939 75.9668 153.619 70.8114 146.321C66.2585 139.961 56.0815 146.857 52.466 144.647C44.2977 139.693 43.5612 120.075 27.0905 114.652C9.4147 108.827 19.7925 125.298 23.0063 132.194C25.0819 136.613 19.5917 140.028 22.4037 147.794C25.2158 155.561 36.6649 154.222 34.7233 160.448C32.3799 167.813 31.0408 176.651 38.6066 181.673C43.4272 184.887 56.0815 187.833 55.8137 190.511C55.5459 192.653 50.1896 202.629 52.8677 207.651C56.0815 213.677 69.4723 217.761 69.5392 217.694Z" fill="#B5F3D8"/>
<path d="M68.1339 216.556C67.933 216.556 67.7991 216.422 67.7991 216.221C67.7321 215.752 63.9158 168.818 28.4302 127.44C28.2963 127.306 28.2963 127.106 28.4972 126.972C28.6311 126.838 28.832 126.838 28.9659 127.039C64.5853 168.617 68.4686 215.752 68.4686 216.221C68.5356 216.422 68.4017 216.556 68.1339 216.556C68.2008 216.556 68.2008 216.556 68.1339 216.556Z" fill="white"/>
<path d="M58.2245 177.388C48.0475 176.25 40.08 168.148 40.013 168.081C39.8791 167.948 39.8791 167.747 40.013 167.613C40.1469 167.479 40.3478 167.479 40.4817 167.613C40.5487 167.68 48.3823 175.58 58.2914 176.718C58.4923 176.718 58.6262 176.919 58.5592 177.12C58.5592 177.254 58.4253 177.388 58.2245 177.388Z" fill="white"/>
<path d="M55.6802 171.027C55.6132 171.027 55.4793 171.027 55.4793 170.96C55.3454 170.827 55.3454 170.626 55.4793 170.492C55.5463 170.425 61.5052 164.198 60.0322 155.561C60.0322 155.36 60.0991 155.226 60.3 155.159C60.5009 155.159 60.6348 155.226 60.7017 155.427C62.2417 164.399 56.0819 170.893 56.015 170.96C55.8811 170.96 55.8141 171.027 55.6802 171.027Z" fill="white"/>
<path d="M64.3179 196.336C64.2509 196.336 64.117 196.269 64.05 196.202C63.9161 196.068 63.9831 195.867 64.117 195.733C64.1839 195.666 70.0089 190.913 71.2141 182.409C71.2141 182.209 71.415 182.075 71.6158 182.142C71.8167 182.142 71.9506 182.342 71.8836 182.543C70.6785 191.314 64.5857 196.269 64.5187 196.269C64.4518 196.336 64.3848 196.336 64.3179 196.336Z" fill="white"/>
<path d="M42.2895 148.665C39.8792 148.665 35.3933 148.062 31.6439 144.447C31.51 144.313 31.51 144.112 31.6439 143.978C31.7778 143.844 31.9787 143.844 32.1126 143.978C37.268 148.999 43.8964 147.928 43.9634 147.861C44.1643 147.861 44.2982 147.928 44.3651 148.129C44.3651 148.33 44.2982 148.464 44.0973 148.531C44.0973 148.531 43.3608 148.665 42.2895 148.665Z" fill="white"/>
<path d="M65.7899 203.567C60.9692 203.567 56.6172 198.813 56.4163 198.612C56.2824 198.478 56.2824 198.277 56.4163 198.143C56.5503 198.009 56.7511 198.009 56.885 198.143C56.952 198.21 61.4379 203.098 66.0577 202.897C66.2586 202.897 66.3925 203.031 66.3925 203.232C66.3925 203.433 66.2586 203.567 66.0577 203.567C65.9907 203.567 65.8568 203.567 65.7899 203.567Z" fill="white"/>
<path opacity="0.8" d="M68.1337 214.614C70.8119 216.757 77.1055 215.551 81.7253 212.204C85.8765 209.191 89.9607 202.964 90.5632 198.143C90.8311 196.001 89.0233 193.791 86.546 191.984C83.8679 190.109 84.1357 185.891 87.0147 184.418C92.9736 181.271 98.2629 176.383 97.9951 169.889C97.5934 159.846 89.8937 151.41 88.4877 145.719C87.0816 139.961 92.7058 138.153 91.9023 131.39C90.2285 117.196 73.7578 121.682 70.9458 144.38C69.138 158.641 65.7234 157.369 59.0949 160.783C52.4665 164.198 50.7257 167.077 53.6047 169.822C56.4837 172.567 50.5918 171.764 51.1274 177.053C51.6631 182.409 65.8573 184.552 64.3173 188.837C62.6435 192.921 53.6717 203.098 68.1337 214.614Z" fill="url(#paint6_linear)"/>
<path d="M118.885 217.493C106.967 217.694 18.2534 217.694 18.2534 217.493C29.7025 217.493 43.3611 213.811 63.6481 213.811C86.7472 213.878 101.075 217.493 118.885 217.493Z" fill="#151F36"/>
<path d="M27.3584 217.292C45.1012 217.359 84.537 217.359 105.895 217.292C102.28 217.024 98.6642 216.623 94.9148 216.221C85.6082 215.217 75.9669 214.212 63.6474 214.212C52.1313 214.212 42.8247 215.418 34.5894 216.422C32.0452 216.757 29.6348 217.024 27.3584 217.292Z" fill="#151F36"/>
<path fill-rule="evenodd" clip-rule="evenodd" d="M81.8664 195.222L81.8588 195.13C81.8588 195.125 81.8558 195.093 81.8504 195.034L81.8504 195.034V195.034C81.7841 194.311 81.3583 189.661 81.7918 184.953C81.9927 182.074 83.1979 179.463 84.8717 178.057C85.7421 177.321 86.7464 176.986 87.6838 177.053C88.822 177.187 89.8263 177.923 90.3619 179.062C91.2993 181.07 90.7636 183.815 89.0228 186.359C86.3277 190.304 84.9233 192.247 82.5919 195.105C81.992 197.479 81.4787 199.783 81.0421 201.943C84.1544 197.111 89.7531 191.473 92.7058 192.051C93.844 192.251 94.7144 193.189 94.9823 194.461C95.2501 195.733 94.9153 197.675 93.0406 198.947C88.3207 202.055 82.4626 204.223 80.8692 204.813L80.8691 204.813C80.6373 204.899 80.4957 204.951 80.4611 204.968C79.944 207.808 79.5717 210.284 79.3158 212.186C82.5599 207.81 86.1571 204.93 89.6926 203.901C93.1073 202.897 96.455 203.701 97.9949 204.973C98.5975 205.508 98.9322 206.111 98.8653 206.714C98.5305 209.526 94.7811 212.204 88.8222 213.878C85.5415 214.748 82.3946 214.882 80.5199 214.882C79.8227 214.882 79.3013 214.857 78.9866 214.837C78.8895 215.701 78.8466 216.191 78.8466 216.221L78.177 216.154C78.177 216.124 78.2198 215.634 78.3166 214.768C71.3297 213.697 66.4998 207.935 64.7858 204.705C62.0407 199.683 63.3128 197.742 64.3171 197.072C66.3257 195.666 70.4769 196.871 72.6863 199.483C75.9194 203.265 77.8742 207.991 78.7026 211.688C78.9623 209.795 79.3297 207.392 79.8296 204.663C74.7001 200.573 72.5395 196.565 71.6154 193.858C70.4772 190.645 71.6823 188.301 73.2892 187.699C74.8961 187.096 77.1725 188.1 78.5786 191.716C79.4873 194.101 80.2033 198.173 80.5222 201.111C80.911 199.232 81.357 197.254 81.8664 195.222Z" fill="#151F36"/>
<path fill-rule="evenodd" clip-rule="evenodd" d="M216.905 169.321C231.568 169.321 243.419 157.604 243.419 143.209C243.419 128.814 231.568 117.097 216.905 117.097C202.242 117.097 190.391 128.814 190.391 143.209C190.324 157.604 202.242 169.321 216.905 169.321ZM216.905 161.956C227.417 161.956 235.987 153.52 235.987 143.142C235.987 132.764 227.417 124.328 216.905 124.328C206.393 124.328 197.823 132.764 197.823 143.142C197.823 153.52 206.326 161.956 216.905 161.956Z" fill="#B5F3D8"/>
<path fill-rule="evenodd" clip-rule="evenodd" d="M193.873 34.7762C199.497 34.7762 204.05 30.2903 204.05 24.8001C204.05 19.3099 199.497 14.824 193.873 14.824C188.249 14.824 183.696 19.3099 183.696 24.8001C183.696 30.3573 188.249 34.7762 193.873 34.7762ZM193.873 31.9642C197.891 31.9642 201.171 28.7504 201.171 24.8001C201.171 20.8498 197.891 17.636 193.873 17.636C189.856 17.636 186.575 20.8498 186.575 24.8001C186.575 28.7504 189.856 31.9642 193.873 31.9642Z" fill="#5C9EFF"/>
<path fill-rule="evenodd" clip-rule="evenodd" d="M111.854 148.196C114.867 148.196 117.345 145.786 117.345 142.773C117.345 139.76 114.867 137.349 111.854 137.349C108.841 137.349 106.364 139.76 106.364 142.773C106.297 145.719 108.774 148.196 111.854 148.196ZM111.854 146.656C114.064 146.656 115.805 144.915 115.805 142.773C115.805 140.63 114.064 138.889 111.854 138.889C109.645 138.889 107.904 140.63 107.904 142.773C107.904 144.915 109.645 146.656 111.854 146.656Z" fill="#151F36"/>
<defs>
<linearGradient id="paint0_linear" x1="0.376465" y1="48.2122" x2="68.0535" y2="48.2122" gradientUnits="userSpaceOnUse">
<stop offset="0.0138476" stop-color="#8592AC"/>
<stop offset="1" stop-color="#8592AC"/>
</linearGradient>
<linearGradient id="paint1_linear" x1="171.05" y1="147.893" x2="132.112" y2="213.763" gradientUnits="userSpaceOnUse">
<stop offset="0.0176918" stop-color="#8592AC"/>
<stop offset="0.9979" stop-color="#495875"/>
</linearGradient>
<linearGradient id="paint2_linear" x1="167.199" y1="147.091" x2="209.057" y2="239.894" gradientUnits="userSpaceOnUse">
<stop offset="0.0176918" stop-color="#8592AC"/>
<stop offset="1" stop-color="#495875"/>
</linearGradient>
<linearGradient id="paint3_linear" x1="181.927" y1="66.5076" x2="161.041" y2="66.5076" gradientUnits="userSpaceOnUse">
<stop offset="0.0176918" stop-color="#8592AC"/>
<stop offset="1" stop-color="#495875" stop-opacity="0.8"/>
</linearGradient>
<linearGradient id="paint4_linear" x1="237.527" y1="105.694" x2="199.291" y2="105.694" gradientUnits="userSpaceOnUse">
<stop offset="0.0176918" stop-color="#8592AC"/>
<stop offset="1" stop-color="#495875" stop-opacity="0.8"/>
</linearGradient>
<linearGradient id="paint5_linear" x1="146.404" y1="133.071" x2="130.221" y2="133.071" gradientUnits="userSpaceOnUse">
<stop offset="0.0176918" stop-color="#8592AC"/>
<stop offset="1" stop-color="#495875" stop-opacity="0.8"/>
</linearGradient>
<linearGradient id="paint6_linear" x1="51.0048" y1="169.422" x2="97.9584" y2="169.422" gradientUnits="userSpaceOnUse">
<stop offset="0.0138476" stop-color="#8592AC"/>
<stop offset="1" stop-color="#8592AC"/>
</linearGradient>
</defs>
</svg>
