<svg width="247" height="245" viewBox="0 0 247 245" fill="none" xmlns="http://www.w3.org/2000/svg">
<path d="M190.937 161.274C188.368 160.418 173.411 156.135 169.129 155.081C161.815 153.236 160.366 164.635 166.23 165.623C172.028 166.677 186.061 168.983 189.224 169.444C194.956 170.301 195.681 162.922 190.937 161.274Z" fill="#B5F3D8"/>
<path fill-rule="evenodd" clip-rule="evenodd" d="M45.5263 127.145C56.8587 127.145 66.0169 118.119 66.0169 106.984C66.0169 95.8494 56.8587 86.823 45.5263 86.823C34.1938 86.823 25.0356 95.8494 25.0356 106.984C25.1015 118.119 34.2597 127.145 45.5263 127.145ZM45.5263 121.479C53.6303 121.479 60.2189 114.956 60.2189 106.984C60.2189 98.9461 53.6303 92.4892 45.5263 92.4892C37.4223 92.4892 30.8336 99.012 30.8336 106.984C30.8336 115.022 37.4223 121.479 45.5263 121.479Z" fill="#B5F3D8"/>
<path fill-rule="evenodd" clip-rule="evenodd" d="M156.874 193.032C161.881 193.032 165.966 189.013 165.966 184.071C165.966 179.13 161.881 175.111 156.874 175.111C151.867 175.111 147.782 179.13 147.782 184.071C147.782 189.013 151.867 193.032 156.874 193.032ZM156.874 190.528C160.498 190.528 163.397 187.629 163.397 184.071C163.397 180.513 160.432 177.614 156.874 177.614C153.25 177.614 150.351 180.513 150.351 184.071C150.351 187.629 153.25 190.528 156.874 190.528Z" fill="#2C80FC"/>
<path fill-rule="evenodd" clip-rule="evenodd" d="M222.562 28.25C225.725 28.25 228.228 25.7463 228.228 22.6497C228.228 19.553 225.659 17.0493 222.562 17.0493C219.399 17.0493 216.896 19.553 216.896 22.6497C216.83 25.7463 219.399 28.25 222.562 28.25ZM222.562 26.6687C224.802 26.6687 226.647 24.8898 226.647 22.6497C226.647 20.4095 224.802 18.6306 222.562 18.6306C220.322 18.6306 218.477 20.4095 218.477 22.6497C218.477 24.8239 220.256 26.6687 222.562 26.6687Z" fill="#5C9EFF"/>
<path fill-rule="evenodd" clip-rule="evenodd" d="M140.994 118.119C172.027 118.119 197.195 93.3459 197.195 62.7747C197.195 32.2034 172.027 7.43018 140.994 7.43018C109.962 7.43018 84.7935 32.2034 84.7935 62.7747C84.7935 93.3459 109.962 118.119 140.994 118.119ZM140.994 102.57C163.33 102.57 181.449 84.7148 181.449 62.7747C181.449 40.7686 163.33 22.9793 140.994 22.9793C118.659 22.9793 100.54 40.8345 100.54 62.7747C100.606 84.7148 118.659 102.57 140.994 102.57Z" fill="#D9E1EE"/>
<path d="M147.912 113.373C145.079 129.318 144.222 150.797 144.222 150.797L143.629 156.067C143.432 157.649 145.079 161.734 148.307 162.524C159.442 165.357 173.014 168.652 174.398 168.981C178.351 170.035 179.405 156.463 176.309 155.409C176.309 155.409 163.659 151.192 163.132 150.862C162.604 150.533 163.725 149.874 163.725 149.018C163.725 148.161 162.209 148.161 162.539 146.909C162.868 145.657 167.678 127.275 170.247 116.733C172.817 106.192 149.691 103.358 147.912 113.373Z" fill="white"/>
<path d="M174.862 169.576C174.664 169.576 174.467 169.576 174.269 169.51C173.676 169.378 170.843 168.654 166.956 167.731C161.685 166.414 154.569 164.7 148.178 163.053C144.62 162.131 142.907 157.717 143.105 156.069L143.698 150.798C143.698 150.601 144.554 129.122 147.387 113.375C147.849 110.74 149.825 108.631 152.922 107.577C157.995 105.864 164.979 107.05 168.471 110.278C170.513 112.123 171.238 114.495 170.645 117.065C168.734 125.103 165.44 137.621 163.859 143.683C163.332 145.659 163.002 146.977 162.936 147.241C162.871 147.636 163.002 147.768 163.398 148.031C163.727 148.295 164.122 148.624 164.188 149.217C164.188 149.744 163.859 150.205 163.661 150.601C163.661 150.667 163.595 150.667 163.529 150.733C164.847 151.26 171.765 153.566 176.443 155.147C178.947 156.003 179.013 162.46 177.893 166.216C177.036 168.983 175.784 169.576 174.862 169.576ZM147.914 113.375L148.376 113.441C145.608 129.188 144.752 150.601 144.686 150.798L144.093 156.135C143.961 157.519 145.477 161.34 148.376 162.065C154.767 163.646 161.948 165.425 167.153 166.743C171.04 167.731 173.874 168.39 174.467 168.588C175.784 168.917 176.575 166.809 176.904 165.821C178.09 161.933 177.629 156.465 176.114 155.938C174.005 155.213 163.398 151.721 162.871 151.391C162.607 151.26 162.541 151.062 162.475 150.864C162.409 150.469 162.607 150.205 162.871 149.876C163.068 149.613 163.266 149.349 163.266 149.151C163.266 149.02 163.134 148.954 162.871 148.756C162.475 148.492 161.816 147.965 162.08 146.911C162.146 146.582 162.475 145.264 163.002 143.353C164.584 137.292 167.812 124.773 169.789 116.735C170.316 114.561 169.657 112.519 167.944 110.937C164.65 107.972 158.127 106.852 153.383 108.434C151.406 109.092 149.034 110.476 148.507 113.441L147.914 113.375Z" fill="#151F36"/>
<path d="M168.405 97.4958L149.034 96.9028L145.542 133.667C153.054 133.865 159.576 136.5 164.254 141.047L168.405 97.4958Z" fill="#151F36"/>
<path d="M164.188 141.377C164.122 141.377 163.99 141.377 163.99 141.311C159.246 136.699 152.855 134.195 145.542 133.997C145.476 133.997 145.344 133.931 145.278 133.865C145.212 133.8 145.212 133.734 145.212 133.602L148.704 96.8374C148.704 96.6397 148.902 96.5079 149.034 96.5079L168.404 97.1009C168.47 97.1009 168.602 97.1668 168.668 97.2327C168.734 97.2986 168.734 97.3645 168.734 97.4962L164.517 141.047C164.517 141.179 164.451 141.311 164.319 141.311C164.254 141.377 164.254 141.377 164.188 141.377ZM145.871 133.338C152.987 133.602 159.246 135.974 163.924 140.322L168.009 97.7598L149.297 97.2327L145.871 133.338Z" fill="#151F36"/>
<path d="M196.538 159.166C194.957 157.782 190.542 157.387 187.709 157.914C186.853 158.046 185.732 158.507 186.721 159.825C187.709 161.143 188.631 162.329 187.248 163.449C182.702 167.072 181.713 169.181 183.69 170.828C186.918 173.397 189.29 175.703 190.674 177.482C191.53 178.602 192.058 179.854 192.058 181.238C192.123 182.753 192.321 184.071 192.782 185.455C193.244 186.904 194.759 187.761 196.208 187.365C196.472 187.299 196.801 187.168 196.999 186.97C199.173 185.323 200.886 179.261 199.305 173.068C196.867 163.185 197.79 161.274 196.538 159.166Z" fill="#151F36"/>
<path d="M196.536 159.166C196.141 158.837 195.548 158.507 194.889 158.309C195.877 160.352 195.153 162.724 197.591 172.475C199.172 178.932 197.591 185.323 195.35 187.036C195.219 187.168 195.087 187.234 194.889 187.299C195.35 187.431 195.812 187.431 196.273 187.299C196.536 187.234 196.866 187.102 197.063 186.904C199.238 185.257 200.951 179.195 199.369 173.002C196.866 163.185 197.788 161.274 196.536 159.166Z" fill="#5C9EFF"/>
<path d="M93.6231 42.7446C92.1077 41.954 90.2629 39.4503 88.7475 37.342C87.3639 35.3654 89.4723 26.7343 92.7666 29.9627C94.5455 31.6757 99.2235 35.9584 99.2235 35.9584L97.4445 43.9306C97.4445 43.9306 95.1385 43.5353 93.6231 42.7446Z" fill="#B5F3D8"/>
<path d="M96.4547 4.20093H1.11719V69.2307H96.4547V4.20093Z" fill="white"/>
<path d="M75.8333 17.1809H31.8213V19.2893H75.8333V17.1809Z" fill="#8592AC"/>
<path d="M88.6812 26.0095H31.8213V28.1179H88.6812V26.0095Z" fill="#8592AC"/>
<path d="M59.1641 34.8386H31.8213V36.947H59.1641V34.8386Z" fill="#8592AC"/>
<path d="M75.8975 44.0625H8.89111V46.1709H75.8975V44.0625Z" fill="#8592AC"/>
<path d="M88.7453 52.8914H8.89111V54.9997H88.7453V52.8914Z" fill="#8592AC"/>
<path d="M59.2282 61.6541H8.89111V63.7624H59.2282V61.6541Z" fill="#8592AC"/>
<path d="M28.657 17.1809H8.89111V36.9468H28.657V17.1809Z" fill="#8592AC"/>
<path d="M96.4547 3.93774H1.11719V10.7899H96.4547V3.93774Z" fill="#8592AC"/>
<path d="M4.5423 8.74745C5.30645 8.74745 5.92592 8.12799 5.92592 7.36384C5.92592 6.59969 5.30645 5.98022 4.5423 5.98022C3.77816 5.98022 3.15869 6.59969 3.15869 7.36384C3.15869 8.12799 3.77816 8.74745 4.5423 8.74745Z" fill="white"/>
<path d="M8.69465 8.74745C9.4588 8.74745 10.0783 8.12799 10.0783 7.36384C10.0783 6.59969 9.4588 5.98022 8.69465 5.98022C7.9305 5.98022 7.31104 6.59969 7.31104 7.36384C7.31104 8.12799 7.9305 8.74745 8.69465 8.74745Z" fill="white"/>
<path d="M12.846 8.74745C13.6102 8.74745 14.2296 8.12799 14.2296 7.36384C14.2296 6.59969 13.6102 5.98022 12.846 5.98022C12.0819 5.98022 11.4624 6.59969 11.4624 7.36384C11.4624 8.12799 12.0819 8.74745 12.846 8.74745Z" fill="white"/>
<path d="M112.005 49.8605C112.005 49.8605 102.319 42.1518 101.726 41.0318C101.068 39.8458 102.056 34.3114 100.606 33.7843C99.2227 33.2572 96.5873 33.2572 94.0836 31.8077C93.0294 31.2147 92.5023 32.0712 92.7659 32.7301C93.6224 34.8385 96.3896 35.5632 96.3896 35.5632C96.3896 35.5632 94.7425 38.001 95.4013 40.2411C96.1261 42.4813 98.3003 45.1826 98.3003 45.1826L106.668 55.3291L112.005 49.8605Z" fill="#B5F3D8"/>
<path d="M101.463 50.5855L99.7501 48.6748C99.3548 48.2136 99.3548 47.6206 99.6842 47.1594C100.409 46.1711 101.727 44.5239 103.506 43.2062C103.967 42.8768 104.626 42.8768 105.021 43.2721C105.878 43.9968 106.668 44.6557 107.261 45.2487C107.788 45.7099 107.788 46.6323 107.261 47.0935L103.176 50.7172C102.715 51.1784 101.924 51.1126 101.463 50.5855Z" fill="#5C9EFF"/>
<path d="M145.673 40.7679C140.666 43.601 123.14 55.5924 122.349 56.0536C121.559 56.5148 122.349 54.7358 121.031 53.6158C120.57 53.2205 119.318 53.8793 118.791 53.484C115.497 50.7168 110.951 46.3683 107.657 44.7211C106.009 45.7094 102.847 48.2131 101.2 51.1121C101.2 51.1121 102.649 58.689 105.878 59.4796C109.106 60.2703 110.226 59.9409 111.214 63.1693C112.203 66.3977 121.031 70.5485 128.608 67.0566C136.185 63.5646 144.092 57.3054 148.111 54.6699C161.09 45.9071 153.382 36.4194 145.673 40.7679Z" fill="#2C80FC"/>
<path d="M148.044 99.0116C145.145 97.2986 147.254 94.136 147.319 90.7758C147.451 81.8153 146.858 66.5297 144.157 52.1006C143.169 46.6979 143.564 42.3494 146.924 40.0434C150.284 37.7374 153.315 36.4196 157.071 35.4313C160.497 34.5748 166.558 33.9818 169.391 34.9701C172.422 36.0243 179.604 38.1986 183.557 42.4812C186.654 45.8414 185.929 59.6116 186.456 69.3628C187.181 83.4624 184.216 91.9618 182.305 97.4303C180.394 102.899 158.454 105.271 148.044 99.0116Z" fill="#2C80FC"/>
<path d="M173.938 52.4299C173.938 52.4299 180.197 65.0142 185.929 83.4624C187.181 67.9791 185.929 53.2206 185.929 53.2206L173.938 52.4299Z" fill="#151F36"/>
<path d="M152.788 39.7143C151.404 39.0554 150.416 37.6059 153.381 34.8387C156.346 32.0714 168.469 30.8196 174.728 33.7845C180.987 36.6835 177.561 41.9544 172.29 43.5357C167.019 45.1169 158.19 45.5781 156.477 45.3805C154.896 45.1828 154.171 45.2487 153.71 43.6674C153.315 42.2179 153.447 40.0437 152.788 39.7143Z" fill="#5C9EFF"/>
<path d="M155.556 38.6596C155.622 36.8807 155.622 36.9466 155.951 32.5981C154.897 32.7957 152.459 32.7957 151.208 31.6757C148.177 28.9743 150.022 21.1997 150.878 19.0914C151.076 18.6302 151.142 18.169 151.142 17.6419C151.076 16.39 151.537 14.8088 151.932 13.3593C153.052 9.47197 160.168 1.30206 170.117 8.68133C177.891 14.4793 169.194 23.4399 168.536 27.7884C167.877 32.1369 169.392 36.4195 169.458 37.9348C169.524 41.8221 155.424 42.6128 155.556 38.6596Z" fill="#B5F3D8"/>
<path d="M160.826 16.1931C161.023 17.3132 160.101 18.3674 161.485 19.5533C162.539 20.4099 162.934 20.937 163.132 21.6617C163.198 21.8594 163.395 21.8594 163.527 21.7276C164.186 20.5416 165.306 18.4333 167.019 18.9604C168.6 19.4216 169.523 21.9911 166.69 24.1654C166.558 26.2738 167.546 27.9868 168.469 28.9092C169.918 24.2972 177.627 13.7554 170.313 8.28679C165.24 4.53127 157.532 4.92659 152.722 10.7905C151.602 12.1082 151.141 13.5577 149.955 14.9413C151.272 14.8095 152.326 15.2707 153.578 14.0189C153.447 15.4684 154.04 16.1931 153.974 16.852C156.214 16.259 157.268 15.2707 158.52 14.1507C158.124 15.139 158.652 15.8637 158.454 17.0497C159.245 16.9838 159.838 16.9838 160.826 16.1931Z" fill="white"/>
<path d="M170.645 8.15456C165.44 4.26727 158.917 3.41074 153.448 9.14285C160.235 9.73583 167.68 15.2044 170.842 22.2542C170.974 22.5178 171.303 22.5178 171.435 22.2542C173.741 17.7081 175.981 12.1077 170.645 8.15456Z" fill="#2C80FC"/>
<path d="M167.151 16.6539C167.151 16.6539 158.718 10.3947 152.261 10.3947C150.153 7.16627 149.428 2.55423 150.746 1.30239C152.063 0.0505507 158.191 -0.740085 160.694 1.56594C165.438 5.91443 167.151 16.6539 167.151 16.6539Z" fill="#151F36"/>
<path d="M155.885 32.5982C155.885 32.5982 162.869 32.0711 165.57 24.5601C167.349 33.1912 156.478 38.528 155.489 37.5397L155.885 32.5982Z" fill="#151F36"/>
<path d="M243.514 229.072H1.38207C1.11853 229.072 0.85498 228.874 0.85498 228.544C0.85498 228.215 1.05264 228.017 1.38207 228.017H243.58C243.844 228.017 244.107 228.215 244.107 228.544C244.107 228.874 243.844 229.072 243.514 229.072Z" fill="#151F36"/>
<path fill-rule="evenodd" clip-rule="evenodd" d="M195.022 244.093C179.012 245.214 167.745 245.279 149.165 244.291C136.317 243.632 129.992 240.404 147.847 239.086C166.164 237.768 178.287 238.23 192.782 238.625C203.258 238.954 218.28 242.446 195.022 244.093Z" fill="#DCE3F0"/>
<path d="M199.568 189.605C198.119 187.299 189.224 174.583 186.589 171.026C182.108 165.03 173.807 172.87 177.628 177.351C181.515 181.831 190.871 192.504 193.046 194.876C196.933 199.159 202.204 193.888 199.568 189.605Z" fill="#B5F3D8"/>
<path d="M206.024 190.528C205.234 188.617 201.544 186.179 198.777 185.388C197.92 185.125 196.734 184.993 196.998 186.574C197.261 188.156 197.591 189.671 195.812 190.066C190.08 191.186 188.235 192.636 189.289 195.008C191.002 198.829 192.056 201.926 192.452 204.166C192.715 205.484 192.583 206.867 191.99 208.119C191.332 209.503 190.936 210.755 190.739 212.204C190.541 213.72 191.463 215.169 192.913 215.499C193.176 215.564 193.506 215.564 193.769 215.499C196.471 215.037 200.753 210.359 202.203 204.232C204.509 194.217 206.222 192.9 206.024 190.528Z" fill="#151F36"/>
<path d="M206.025 190.528C205.828 190.067 205.432 189.539 204.971 189.012C204.905 191.318 203.192 193.097 200.886 202.848C199.371 209.305 195.022 214.247 192.255 214.774C192.057 214.84 191.926 214.84 191.728 214.774C192.057 215.037 192.453 215.301 192.914 215.367C193.178 215.433 193.507 215.433 193.77 215.367C196.472 214.906 200.754 210.228 202.204 204.1C204.51 194.217 206.223 192.9 206.025 190.528Z" fill="#5C9EFF"/>
<path d="M158.324 115.154C157.863 131.362 160.103 149.942 160.103 149.942L160.234 155.278C160.3 156.86 160.893 158.309 162.013 159.429C162.277 159.693 162.541 159.956 162.87 160.286C163.99 161.406 164.978 162.592 165.901 163.909C172.489 173.265 181.055 184.005 181.911 185.191C184.283 188.485 193.705 178.668 191.926 175.901C191.926 175.901 179.078 155.542 178.88 154.949C178.683 154.356 179.737 153.697 179.539 152.972C179.342 152.248 178.024 152.313 177.958 151.72C177.892 151.128 179.407 149.678 179.276 148.887C179.144 148.031 177.628 147.636 177.76 146.384C177.892 145.132 180 126.222 180.989 115.417C181.977 104.612 158.587 105.007 158.324 115.154Z" fill="white"/>
<path d="M183.227 186.377C182.304 186.377 181.711 185.916 181.448 185.521C181.25 185.257 180.525 184.335 179.603 183.083C176.638 179.261 170.445 171.289 165.437 164.239C164.581 162.987 163.527 161.801 162.473 160.681C162.143 160.352 161.88 160.088 161.616 159.825C160.43 158.639 159.771 156.992 159.705 155.345L159.574 150.008C159.574 149.876 157.268 131.23 157.795 115.154C157.861 112.453 159.508 110.147 162.473 108.631C167.216 106.193 174.332 106.391 178.285 109.092C180.591 110.608 181.645 112.848 181.382 115.483C180.591 123.719 179.208 136.633 178.483 142.826C178.285 144.803 178.088 146.121 178.088 146.45C178.022 146.911 178.351 147.241 178.812 147.636C179.142 147.965 179.537 148.295 179.603 148.822C179.735 149.481 179.274 150.14 178.812 150.864C178.615 151.128 178.351 151.589 178.285 151.721C178.351 151.721 178.549 151.853 178.681 151.919C179.076 152.116 179.669 152.314 179.867 152.907C180.064 153.5 179.735 154.027 179.471 154.356C179.405 154.488 179.208 154.752 179.208 154.818C179.471 155.476 187.114 167.599 192.187 175.638C193.571 177.878 189.552 182.951 186.323 185.125C185.006 186.048 184.017 186.377 183.227 186.377ZM158.322 115.154H158.849C158.388 131.098 160.628 149.678 160.628 149.876L160.76 155.279C160.825 156.728 161.352 158.112 162.341 159.1C162.604 159.364 162.868 159.627 163.197 159.957C164.317 161.077 165.372 162.329 166.294 163.646C171.301 170.696 177.429 178.668 180.394 182.49C181.382 183.808 182.041 184.664 182.238 184.928C183.029 186.048 185.006 184.862 185.862 184.335C189.222 182.094 192.319 177.548 191.463 176.165C188.432 171.355 178.615 155.74 178.351 155.147C178.153 154.62 178.483 154.159 178.681 153.763C178.812 153.5 179.01 153.236 178.944 153.104C178.878 152.973 178.615 152.841 178.351 152.775C177.956 152.643 177.363 152.38 177.297 151.787C177.231 151.326 177.561 150.864 177.956 150.271C178.219 149.876 178.615 149.217 178.615 148.954C178.615 148.756 178.351 148.558 178.088 148.295C177.626 147.834 176.968 147.241 177.099 146.252C177.099 145.923 177.297 144.605 177.495 142.629C178.154 136.435 179.603 123.522 180.394 115.286C180.591 113.046 179.669 111.135 177.692 109.817C174.003 107.314 167.348 107.182 162.934 109.422C161.089 110.344 158.915 112.123 158.783 115.088L158.322 115.154Z" fill="#151F36"/>
<path d="M246.544 66.5271H151.206V131.557H246.544V66.5271Z" fill="white"/>
<path d="M225.923 79.5096H181.911V81.618H225.923V79.5096Z" fill="#8592AC"/>
<path d="M238.771 88.3384H181.911V90.4467H238.771V88.3384Z" fill="#8592AC"/>
<path d="M209.253 97.1666H181.911V99.275H209.253V97.1666Z" fill="#8592AC"/>
<path d="M225.988 106.391H158.981V108.499H225.988V106.391Z" fill="#8592AC"/>
<path d="M238.836 115.22H158.981V117.328H238.836V115.22Z" fill="#8592AC"/>
<path d="M209.319 124.048H158.981V126.157H209.319V124.048Z" fill="#8592AC"/>
<path d="M178.747 79.5096H158.981V99.2755H178.747V79.5096Z" fill="#8592AC"/>
<path d="M246.545 66.2661H151.207V73.1183H246.545V66.2661Z" fill="#8592AC"/>
<path d="M154.633 71.1419C155.397 71.1419 156.016 70.5224 156.016 69.7583C156.016 68.9941 155.397 68.3746 154.633 68.3746C153.868 68.3746 153.249 68.9941 153.249 69.7583C153.249 70.5224 153.868 71.1419 154.633 71.1419Z" fill="white"/>
<path d="M158.784 71.1419C159.548 71.1419 160.167 70.5224 160.167 69.7583C160.167 68.9941 159.548 68.3746 158.784 68.3746C158.019 68.3746 157.4 68.9941 157.4 69.7583C157.4 70.5224 158.019 71.1419 158.784 71.1419Z" fill="white"/>
<path d="M162.934 71.1419C163.698 71.1419 164.318 70.5224 164.318 69.7583C164.318 68.9941 163.698 68.3746 162.934 68.3746C162.17 68.3746 161.55 68.9941 161.55 69.7583C161.55 70.5224 162.17 71.1419 162.934 71.1419Z" fill="white"/>
<path d="M183.494 81.3542C183.494 81.3542 170.053 86.2957 168.538 86.2298C167.418 86.1639 164.321 86.5593 162.081 86.4275C161.356 86.3616 157.798 86.8887 157.139 87.2181C155.558 87.877 152.791 89.2606 151.012 90.5783C150.221 91.1713 150.617 92.1596 151.539 91.7643C153.12 91.1054 156.48 89.8536 157.469 89.5242C157.535 89.59 157.535 89.7877 157.535 89.7877C157.535 89.7877 152.659 91.6325 150.88 92.9502C149.958 93.6091 150.814 94.6633 151.407 94.3997C153.252 93.5432 157.996 91.9619 157.996 91.9619C157.996 91.9619 158.062 92.0937 158.128 92.2914C157.403 92.489 153.779 93.9385 152 95.0586C151.539 95.3221 151.803 96.5081 152.725 96.1787C153.45 95.9151 158.457 94.1362 158.457 94.1362C158.457 94.1362 158.523 94.2021 158.523 94.4656C157.073 94.9927 155.492 95.5198 154.109 96.3763C153.252 96.9034 153.845 97.8258 154.504 97.694C154.833 97.6282 156.942 96.9034 159.182 96.2446C161.29 95.6516 164.255 94.9927 165.77 94.9268C167.483 94.8609 168.669 93.8726 169.394 93.1479C169.921 92.6208 170.646 92.2255 171.371 92.1596L185.602 90.183L183.494 81.3542Z" fill="#B5F3D8"/>
<path d="M183.427 90.4467L173.873 92.3574C173.544 92.4233 173.214 92.2256 173.083 91.9621C172.621 90.9079 171.501 88.2724 171.37 85.5052C171.37 85.1758 171.567 84.9122 171.831 84.7805C174.664 83.7922 180.989 81.8815 180.989 81.8815L183.427 90.4467Z" fill="#5C9EFF"/>
<path d="M174.731 54.0773C177.828 59.2823 189.621 73.2502 189.885 73.5138C190.083 73.7773 189.16 73.382 188.501 74.1726C188.172 74.5679 188.699 75.4903 188.238 75.7539C184.878 77.4669 179.409 80.1024 176.51 82.079C176.115 82.3425 175.917 82.8037 175.983 83.2649C176.378 85.1097 177.432 88.6676 178.882 91.0395C179.277 91.6325 179.936 92.0278 180.661 92.0937C182.44 92.2255 185.998 92.2913 188.501 91.8301C191.4 91.2372 195.946 90.7101 203.985 85.1756C206.884 83.199 208.465 79.2459 204.512 71.4054C200.624 63.5649 191.137 50.8489 188.238 46.698C178.75 33.389 169.921 46.1051 174.731 54.0773Z" fill="#2C80FC"/>
<path d="M192.518 204.496C192.321 204.496 192.123 204.364 192.057 204.232C191.925 203.969 192.057 203.705 192.321 203.573L196.01 201.926C196.274 201.795 196.537 201.926 196.669 202.19C196.801 202.453 196.669 202.717 196.406 202.849L192.716 204.496C192.716 204.43 192.65 204.496 192.518 204.496Z" fill="#2C80FC"/>
<path d="M191.661 201.399C191.464 201.399 191.266 201.268 191.2 201.136C191.068 200.872 191.2 200.609 191.464 200.477L195.153 198.83C195.417 198.698 195.68 198.83 195.812 199.093C195.944 199.357 195.812 199.62 195.549 199.752L191.859 201.399C191.793 201.399 191.727 201.399 191.661 201.399Z" fill="#2C80FC"/>
<path d="M190.607 198.368C190.409 198.368 190.212 198.237 190.146 198.105C190.014 197.841 190.146 197.578 190.409 197.446L194.099 195.799C194.363 195.667 194.626 195.799 194.758 196.062C194.89 196.326 194.758 196.589 194.494 196.721L190.805 198.368C190.739 198.368 190.673 198.368 190.607 198.368Z" fill="#2C80FC"/>
<path d="M83.6095 195.536C85.5202 183.544 86.6403 175.506 106.208 161.67C132.497 143.156 114.971 128.463 98.7634 144.935C81.1058 162.856 81.6988 176.099 80.447 194.811C80.3152 195.997 83.4118 196.787 83.6095 195.536Z" fill="#DCE3F0"/>
<path d="M79.3251 188.486C74.3836 160.089 65.0278 142.102 58.5709 128.793C44.8666 100.528 69.9034 94.7296 76.3602 110.674C85.7161 133.668 83.8713 160.418 81.7629 192.768C81.4335 198.764 80.8405 197.051 79.3251 188.486Z" fill="#2C80FC"/>
<path d="M78.074 193.098C73.5938 181.106 67.8617 173.595 49.3476 164.305C27.2757 153.237 43.1543 137.885 56.661 148.361C68.4546 157.585 77.2834 172.937 80.3142 189.672C82.2908 200.345 79.1941 195.997 78.074 193.098Z" fill="#5C9EFF"/>
<path d="M79.5228 193.428C79.3251 193.428 79.1933 193.296 79.1933 193.098C79.1933 183.347 64.6325 164.701 48.6221 154.093C48.4903 153.962 48.4244 153.764 48.5562 153.632C48.688 153.5 48.8856 153.435 49.0174 153.566C65.1595 164.306 79.8522 183.215 79.8522 193.164C79.8522 193.296 79.7204 193.428 79.5228 193.428Z" fill="white"/>
<path d="M58.3733 161.538C58.3074 161.538 58.3074 161.538 58.2415 161.538C58.0439 161.473 57.978 161.275 58.0439 161.143C59.4934 157.519 57.3191 152.051 57.2532 151.985C57.1873 151.787 57.2532 151.656 57.4509 151.59C57.6485 151.524 57.7803 151.59 57.8462 151.787C57.9121 152.051 60.1522 157.585 58.6368 161.407C58.6368 161.473 58.5051 161.538 58.3733 161.538Z" fill="white"/>
<path d="M51.983 161.802C50.5994 161.802 49.5453 161.604 49.4794 161.604C49.2817 161.538 49.2158 161.407 49.2158 161.209C49.2817 161.011 49.4135 160.945 49.6111 160.945C49.677 160.945 54.2891 161.868 56.7269 159.759C56.8586 159.628 57.0563 159.628 57.1881 159.825C57.3198 159.957 57.3198 160.155 57.1222 160.287C55.6727 161.472 53.6302 161.802 51.983 161.802Z" fill="white"/>
<path d="M68.1912 171.553C68.1253 171.553 68.1253 171.553 68.1912 171.553C67.9276 171.487 67.8618 171.355 67.8618 171.158C67.8618 171.092 68.5865 167.402 67.8618 164.964C67.7959 164.767 67.9277 164.635 68.0594 164.569C68.2571 164.503 68.3889 164.635 68.4547 164.767C69.2454 167.336 68.5206 171.158 68.4547 171.289C68.4547 171.487 68.323 171.553 68.1912 171.553Z" fill="white"/>
<path d="M64.5014 169.576C63.3155 169.576 62.0636 169.181 61.9978 169.181C61.8001 169.115 61.7342 168.918 61.8001 168.786C61.866 168.588 62.0636 168.522 62.1954 168.588C62.9202 168.786 65.0285 169.247 65.885 168.654C66.0168 168.522 66.2145 168.588 66.3463 168.72C66.478 168.852 66.4121 169.049 66.2804 169.181C65.8192 169.445 65.1603 169.576 64.5014 169.576Z" fill="white"/>
<path d="M80.5775 192.637C80.3798 192.637 80.2481 192.505 80.2481 192.307C78.7327 143.156 67.2685 118.976 67.1367 118.778C67.0708 118.646 67.1367 118.449 67.2685 118.317C67.4002 118.251 67.5979 118.317 67.7297 118.449C67.8614 118.712 79.3257 142.958 80.9069 192.241C80.9069 192.505 80.7093 192.637 80.5775 192.637Z" fill="white"/>
<path d="M72.6065 134.13C65.2273 133.01 60.8788 125.235 60.6811 124.906C60.6152 124.774 60.6811 124.576 60.8129 124.444C60.9447 124.378 61.1423 124.444 61.2741 124.576C61.34 124.642 65.6885 132.351 72.6724 133.471C72.8701 133.471 73.0019 133.668 72.936 133.866C72.936 133.998 72.8042 134.13 72.6065 134.13Z" fill="white"/>
<path d="M70.1012 125.828C70.0353 125.828 69.9694 125.828 69.9035 125.762C69.7717 125.631 69.7717 125.433 69.9035 125.301C69.9694 125.235 74.9109 119.635 73.7249 114.232C73.659 114.035 73.7908 113.903 73.9885 113.837C74.1861 113.771 74.3179 113.903 74.3838 114.101C75.6356 119.833 70.6283 125.499 70.4306 125.762C70.2329 125.762 70.1671 125.828 70.1012 125.828Z" fill="white"/>
<path d="M76.0973 149.481C76.0973 149.481 76.0314 149.481 76.0973 149.481C72.0782 148.822 68.9157 145.198 68.7839 145.067C68.6521 144.935 68.6521 144.737 68.7839 144.605C68.9157 144.474 69.1133 144.474 69.2451 144.605C69.2451 144.671 72.4076 148.163 76.1632 148.756C76.3608 148.756 76.4926 148.954 76.4267 149.152C76.4267 149.349 76.229 149.481 76.0973 149.481Z" fill="white"/>
<path d="M77.2162 155.806C77.0844 155.806 76.9526 155.74 76.9526 155.609C76.8867 155.477 76.9526 155.279 77.0844 155.147C77.0844 155.147 79.5222 153.896 80.7081 151.59C80.774 151.458 80.9717 151.392 81.1693 151.458C81.3011 151.524 81.367 151.721 81.3011 151.919C79.9834 154.357 77.4797 155.674 77.4138 155.74C77.282 155.806 77.2162 155.806 77.2162 155.806Z" fill="white"/>
<path d="M81.763 193.098C81.5654 193.098 81.4336 192.901 81.4336 192.769C83.8714 161.802 108.249 146.912 108.513 146.78C108.645 146.714 108.842 146.714 108.974 146.912C109.04 147.044 109.04 147.241 108.842 147.373C108.579 147.505 84.5302 162.263 82.0925 192.901C82.0925 192.966 81.9607 193.098 81.763 193.098Z" fill="white"/>
<path d="M104.429 156.729C101.134 156.729 98.6305 155.872 98.4987 155.806C98.3011 155.74 98.2352 155.543 98.3011 155.411C98.367 155.213 98.5646 155.147 98.6964 155.213C98.7623 155.213 104.363 157.19 109.699 155.213C109.897 155.147 110.029 155.213 110.095 155.411C110.161 155.609 110.095 155.74 109.897 155.806C108.052 156.465 106.142 156.729 104.429 156.729Z" fill="white"/>
<path d="M97.7073 156.729C97.5755 156.729 97.5097 156.663 97.4438 156.531C95.7307 153.435 98.9591 148.559 99.0909 148.361C99.2227 148.23 99.4204 148.164 99.5521 148.295C99.6839 148.427 99.7498 148.625 99.618 148.757C99.618 148.823 96.5214 153.5 98.0367 156.268C98.1026 156.399 98.0367 156.597 97.905 156.729C97.8391 156.729 97.7732 156.729 97.7073 156.729Z" fill="white"/>
<path d="M93.6896 167.205C92.6354 167.205 91.4495 167.007 90.2635 166.414C90.1317 166.348 90 166.15 90.1317 165.953C90.1976 165.821 90.3953 165.689 90.5929 165.821C93.7555 167.336 97.1816 165.821 97.2475 165.821C97.4451 165.755 97.5769 165.821 97.7087 165.953C97.7745 166.15 97.7087 166.282 97.5769 166.414C97.3133 166.48 95.7321 167.205 93.6896 167.205Z" fill="white"/>
<path d="M93.7543 228.742L99.75 194.745H61.0747L67.0704 228.742C67.0704 228.742 93.5567 228.61 93.7543 228.742Z" fill="#151F36"/>
<path d="M80.3794 197.117C91.0411 197.117 99.6841 196.055 99.6841 194.745C99.6841 193.435 91.0411 192.373 80.3794 192.373C69.7177 192.373 61.0747 193.435 61.0747 194.745C61.0747 196.055 69.7177 197.117 80.3794 197.117Z" fill="#151F36"/>
<path fill-rule="evenodd" clip-rule="evenodd" d="M215.908 38.2648C220.915 38.2648 225 34.2458 225 29.3043C225 24.3628 220.915 20.3438 215.908 20.3438C210.9 20.3438 206.815 24.3628 206.815 29.3043C206.749 34.2458 210.834 38.2648 215.908 38.2648ZM215.908 35.7611C219.531 35.7611 222.43 32.8621 222.43 29.3043C222.43 25.7464 219.465 22.8474 215.908 22.8474C212.35 22.8474 209.385 25.7464 209.385 29.3043C209.319 32.8621 212.284 35.7611 215.908 35.7611Z" fill="#151F36"/>
</svg>
