<svg width="204" height="180" viewBox="0 0 204 180" fill="none" xmlns="http://www.w3.org/2000/svg">
<g clip-path="url(#clip0)">
<path d="M172.835 66.9435C163.134 28.7271 129.612 1.14016 90.2637 0.0336758C69.4618 -0.551288 47.5723 6.36 31.6351 30.5451C3.14571 73.7786 33.3858 103.654 54.4685 117.851C64.6539 124.723 73.8316 132.986 81.7357 142.402C95.9763 159.33 123.372 180.367 155.999 147.406C179.647 123.516 179.298 92.3994 172.835 66.9435Z" fill="#F6F8FC"/>
<path d="M101.975 169.224C158.294 169.224 203.949 166.912 203.949 164.06C203.949 161.208 158.294 158.896 101.975 158.896C45.6556 158.896 0 161.208 0 164.06C0 166.912 45.6556 169.224 101.975 169.224Z" fill="#3F3D56"/>
<path d="M164.097 174.612C186.134 174.612 204 173.707 204 172.591C204 171.475 186.134 170.57 164.097 170.57C142.059 170.57 124.193 171.475 124.193 172.591C124.193 173.707 142.059 174.612 164.097 174.612Z" fill="#3F3D56"/>
<path d="M88.7645 180C110.802 180 128.668 179.096 128.668 177.98C128.668 176.864 110.802 175.959 88.7645 175.959C66.7266 175.959 48.8613 176.864 48.8613 177.98C48.8613 179.096 66.7266 180 88.7645 180Z" fill="#3F3D56"/>
<path d="M152.711 78.618C152.711 78.618 159.49 78.5189 158.045 80.5608C156.601 82.6028 150.998 82.4602 150.998 82.4602L152.711 78.618Z" fill="#FFB9B9"/>
<path d="M131.859 53.4375L138.719 62.7679L144.651 69.8665C144.651 69.8665 150.796 76.2883 151.481 77.1765C152.167 78.0646 154.18 77.8106 153.752 79.1642C153.323 80.5177 152.684 82.7724 152.015 83.0067C151.346 83.2411 148.202 82.8379 147.971 82.3922C147.74 81.9465 133.05 73.6287 127.807 67.6428L122.818 64.2503L122.743 58.5107L131.859 53.4375Z" fill="#6C63FF"/>
<path d="M131.859 53.4375L138.719 62.7679L144.651 69.8665C144.651 69.8665 150.796 76.2883 151.481 77.1765C152.167 78.0646 154.18 77.8106 153.752 79.1642C153.323 80.5177 152.684 82.7724 152.015 83.0067C151.346 83.2411 148.202 82.8379 147.971 82.3922C147.74 81.9465 133.05 73.6287 127.807 67.6428L122.818 64.2503L122.743 58.5107L131.859 53.4375Z" fill="#FF6584"/>
<path opacity="0.1" d="M131.859 53.4375L138.719 62.7679L144.651 69.8665C144.651 69.8665 150.796 76.2883 151.481 77.1765C152.167 78.0646 154.18 77.8106 153.752 79.1642C153.323 80.5177 152.684 82.7724 152.015 83.0067C151.346 83.2411 148.202 82.8379 147.971 82.3922C147.74 81.9465 133.05 73.6287 127.807 67.6428L122.818 64.2503L122.743 58.5107L131.859 53.4375Z" fill="black"/>
<path d="M134.696 49.107L136.122 52.4747H137.385L135.592 43.9431C135.592 38.467 132.954 33.8398 127.487 33.8398H127.487C125.654 33.8399 123.896 34.5693 122.6 35.8677C121.304 37.166 120.576 38.927 120.576 40.7632V49.1304C120.576 50.0174 120.928 50.868 121.554 51.4952C122.18 52.1224 123.029 52.4747 123.915 52.4747H133.715L134.696 49.107Z" fill="#2F2E41"/>
<path d="M111.5 135.209C111.5 135.209 109.483 137.903 109.483 138.577C109.483 139.25 108.362 139.475 107.69 140.148C107.018 140.822 106.345 140.597 106.793 141.271C107.242 141.944 101.19 145.986 101.19 145.986L95.3633 153.619L96.9321 154.966L101.415 150.252L100.742 158.559L107.018 164.396C107.018 164.396 109.707 164.845 109.931 164.396C110.155 163.947 107.69 159.457 107.69 159.457C107.69 159.457 107.914 155.415 109.259 153.844C110.093 152.861 110.843 151.81 111.5 150.701C111.5 150.701 110.828 149.803 112.396 149.578C113.965 149.354 112.845 148.006 112.845 148.006C112.845 148.006 113.293 147.782 114.638 147.782C115.982 147.782 122.034 141.271 122.034 141.271L111.5 135.209Z" fill="#2F2E41"/>
<path d="M136.601 142.169C136.601 142.169 135.704 145.313 137.273 147.109C138.842 148.905 137.273 148.456 137.273 148.456C137.273 148.456 137.497 149.803 136.601 150.476C135.704 151.15 135.704 152.497 135.704 152.497C135.704 152.497 134.584 154.742 134.808 156.089C135.032 157.436 135.032 164.172 135.032 164.172H137.273V158.335L141.756 164.172H152.962C152.962 164.172 152.738 163.049 151.617 162.825C150.496 162.6 147.135 162.825 146.462 158.11C146.462 158.11 146.238 155.416 145.79 154.967C145.342 154.518 144.893 152.946 145.342 151.824C145.79 150.701 145.342 150.252 146.014 149.803C146.686 149.354 146.91 148.007 146.462 147.333C146.014 146.66 144.669 145.537 146.238 144.864C147.807 144.19 147.807 140.822 147.807 140.822L136.601 142.169Z" fill="#2F2E41"/>
<path d="M121.81 88.2858C121.81 88.2858 119.344 90.3065 122.482 98.6136C125.62 106.921 126.964 117.697 126.964 117.697C126.964 117.697 123.827 120.392 123.827 121.739C123.827 123.086 109.931 131.618 110.828 135.434C111.724 139.251 128.085 146.436 129.654 145.987C131.223 145.538 138.843 123.984 138.843 123.984C138.843 123.984 135.929 100.185 135.705 99.9607C135.481 99.7362 128.757 88.7348 128.757 88.7348L124.723 80.4277L121.81 88.2858Z" fill="#2F2E41"/>
<path opacity="0.1" d="M121.81 88.2858C121.81 88.2858 119.344 90.3065 122.482 98.6136C125.62 106.921 126.964 117.697 126.964 117.697C126.964 117.697 123.827 120.392 123.827 121.739C123.827 123.086 109.931 131.618 110.828 135.434C111.724 139.251 128.085 146.436 129.654 145.987C131.223 145.538 138.843 123.984 138.843 123.984C138.843 123.984 135.929 100.185 135.705 99.9607C135.481 99.7362 128.757 88.7348 128.757 88.7348L124.723 80.4277L121.81 88.2858Z" fill="black"/>
<path d="M121.586 83.1207C121.586 83.1207 119.793 89.6317 124.051 96.3672C128.309 103.103 133.24 117.023 133.24 117.023C133.24 117.023 137.946 131.616 135.929 142.169C135.929 142.169 135.257 143.516 137.05 143.516C138.843 143.516 157.669 143.067 156.1 138.352C154.531 133.637 147.584 111.634 147.584 111.634L138.619 89.4072L138.171 82.6717L134.809 77.5078H127.861L121.586 83.1207Z" fill="#2F2E41"/>
<path d="M90.2331 89.8574C90.2331 89.8574 83.4536 89.8574 84.9274 91.8781C86.4012 93.8987 92.0017 93.6742 92.0017 93.6742L90.2331 89.8574Z" fill="#FFB9B9"/>
<path d="M125.731 43.4941C125.731 43.4941 126.18 46.6374 124.611 47.0864C123.042 47.5354 130.886 50.9032 130.886 50.9032C130.886 50.9032 132.455 45.5148 133.127 44.8412C133.8 44.1677 125.731 43.4941 125.731 43.4941Z" fill="#FFB9B9"/>
<path opacity="0.1" d="M125.731 43.4941C125.731 43.4941 126.18 46.6374 124.611 47.0864C123.042 47.5354 130.886 50.9032 130.886 50.9032C130.886 50.9032 132.455 45.5148 133.127 44.8412C133.8 44.1677 125.731 43.4941 125.731 43.4941Z" fill="black"/>
<path d="M132.007 48.6591C132.007 48.6591 125.059 46.6384 124.835 45.9649C124.611 45.2913 123.042 46.8629 122.37 47.9855C121.697 49.1081 120.353 50.4552 119.68 50.4552C119.008 50.4552 114.077 53.3739 112.957 58.5378C112.444 60.9017 111.696 62.2776 111.036 63.0746C110.54 63.7256 110.238 64.5042 110.166 65.3201C110.162 65.3578 110.149 65.394 110.128 65.4251C110.106 65.4563 110.077 65.4813 110.043 65.4978C109.595 65.7223 119.456 75.152 119.456 75.152C119.456 75.152 123.266 74.254 123.939 75.152C124.611 76.0501 123.49 77.6217 122.818 78.5198C122.146 79.4178 120.577 83.9082 121.473 84.5817C122.37 85.2553 127.076 78.5198 129.766 79.8669C132.455 81.214 135.145 80.0914 135.145 80.0914C135.145 80.0914 136.265 83.6836 138.058 83.6836C139.851 83.6836 140.299 80.7649 139.627 79.8669C138.955 78.9688 136.265 77.1727 137.61 74.703C138.955 72.2333 139.403 67.743 139.403 67.743C139.403 67.743 142.989 63.4772 136.489 58.3133C136.489 58.3133 134.248 52.0268 133.576 51.5778C132.903 51.1288 131.783 50.9042 131.783 50.4552C131.783 50.0062 132.007 48.6591 132.007 48.6591Z" fill="#FF6584"/>
<path d="M110.716 64.373L103.992 73.8027L98.1649 80.9873C98.1649 80.9873 92.1136 87.4982 91.4413 88.3963C90.7689 89.2944 88.7518 89.0699 89.2001 90.417C89.6483 91.7641 90.3207 94.0092 90.993 94.2337C91.6654 94.4583 94.8031 94.0092 95.0272 93.5602C95.2513 93.1112 109.819 84.5795 114.974 78.5176L119.913 75.0526L119.905 69.3124L110.716 64.373Z" fill="#FF6584"/>
<path d="M124.296 75.3928L137.287 75.8081C137.434 75.8125 137.573 75.8739 137.675 75.9794C137.777 76.0848 137.834 76.226 137.834 76.373V76.5806C137.834 76.657 137.819 76.7325 137.789 76.8027C137.759 76.8729 137.715 76.9363 137.66 76.989C137.605 77.0418 137.54 77.0828 137.469 77.1097C137.397 77.1365 137.321 77.1486 137.245 77.1451L124.254 76.5222C124.109 76.5157 123.972 76.4534 123.871 76.3482C123.771 76.2431 123.715 76.1032 123.715 75.9577V75.9577C123.715 75.882 123.73 75.8072 123.759 75.7375C123.789 75.6679 123.832 75.6048 123.886 75.5522C123.94 75.4995 124.004 75.4583 124.075 75.4309C124.145 75.4035 124.22 75.3906 124.296 75.3928Z" fill="#2F2E41"/>
<path d="M137.61 77.8447C137.734 77.8447 137.834 77.2918 137.834 76.6098C137.834 75.9279 137.734 75.375 137.61 75.375C137.486 75.375 137.386 75.9279 137.386 76.6098C137.386 77.2918 137.486 77.8447 137.61 77.8447Z" fill="#2F2E41"/>
<path d="M130.214 47.0866C133.68 47.0866 136.489 44.272 136.489 40.8001C136.489 37.3282 133.68 34.5137 130.214 34.5137C126.748 34.5137 123.938 37.3282 123.938 40.8001C123.938 44.272 126.748 47.0866 130.214 47.0866Z" fill="#FFB9B9"/>
<path d="M132.837 34.1401C131.621 33.8313 128.738 33.8399 128.316 33.8399C127.3 33.8399 126.293 34.0404 125.354 34.43C124.415 34.8196 123.562 35.3907 122.843 36.1106C122.125 36.8305 121.555 37.6852 121.166 38.6258C120.777 39.5665 120.577 40.5746 120.577 41.5927L117.663 52.4747H123.334L124.387 48.4334L125.881 52.4747H128.736L128.981 50.0463L129.947 52.4747H133.127C130.746 47.0765 129.479 42.1558 132.608 39.1187C134.721 39.407 136.503 38.8401 136.793 37.6926C137.128 36.3704 135.356 34.7799 132.837 34.1401Z" fill="#2F2E41"/>
<path d="M7.37335 72.5913C6.82146 72.5934 6.27875 72.4499 5.79988 72.175C5.32102 71.9002 4.92292 71.5037 4.64569 71.0257C4.36845 70.5476 4.22187 70.0048 4.22071 69.452C4.21955 68.8991 4.36385 68.3557 4.63908 67.8765C8.62842 61.141 20.7533 45.4023 47.2443 45.4023C58.7193 45.4023 68.7823 48.4558 77.142 54.4728C84.0225 59.4122 87.8774 65.0026 89.7152 67.6968C89.9482 68.0367 90.1117 68.4195 90.1961 68.823C90.2806 69.2266 90.2844 69.6429 90.2073 70.0479C90.1302 70.4529 89.9737 70.8386 89.7469 71.1827C89.5201 71.5267 89.2275 71.8224 88.8859 72.0525C88.1913 72.5188 87.3415 72.6931 86.5198 72.5377C85.6981 72.3823 84.9703 71.9097 84.4932 71.2217C81.1538 66.3722 71.0235 51.6439 47.2443 51.6439C24.0255 51.6439 13.5367 65.2047 10.1076 71.0197C9.83432 71.5031 9.43633 71.904 8.9553 72.1805C8.47427 72.457 7.92788 72.5989 7.37335 72.5913V72.5913Z" fill="#4247DC"/>
<path d="M60.5796 134.199C60.3154 134.202 60.0518 134.172 59.7952 134.109C40.5881 129.282 33.4162 109.839 33.1249 109.03L33.08 108.851C32.9232 108.289 29.0683 94.9531 34.9851 87.1399C37.6969 83.5701 41.8207 81.7515 47.2669 81.7515C52.332 81.7515 55.9851 83.3456 58.4953 86.646C60.5572 89.3402 61.3864 92.663 62.1933 95.8736C63.8742 102.542 65.0844 106.044 72.077 106.403C75.1474 106.561 77.1645 104.742 78.3075 103.193C81.4004 98.9719 81.9383 92.0793 79.6074 86.0173C76.6042 78.1593 65.9809 63.3636 47.2444 63.3636C39.2433 63.3636 31.8922 65.968 25.9978 70.8625C21.112 74.9262 17.2347 80.6514 15.3745 86.5337C11.9231 97.4901 16.4503 114.711 16.4951 114.868C16.6005 115.266 16.626 115.681 16.5701 116.089C16.5143 116.497 16.3782 116.89 16.1697 117.245C15.9613 117.6 15.6847 117.91 15.3558 118.157C15.027 118.404 14.6524 118.583 14.2539 118.684C13.4458 118.898 12.5861 118.785 11.8607 118.369C11.1352 117.953 10.6022 117.268 10.3767 116.462C10.175 115.676 5.33396 97.3105 9.3233 84.6478C13.6712 70.9298 27.0736 57.0996 47.2444 57.0996C56.5678 57.0996 65.3758 60.3102 72.7269 66.3721C78.4196 71.087 83.0813 77.4184 85.5018 83.7497C88.5947 91.8323 87.7654 100.903 83.3951 106.83C80.4815 110.782 76.3353 112.847 71.7408 112.623C59.7728 112.016 57.6212 103.552 56.0524 97.3779C54.4387 91.0465 53.4078 87.9931 47.2444 87.9931C43.8602 87.9931 41.4846 88.9361 40.0054 90.8893C37.9883 93.5611 37.8314 97.7371 38.0555 100.768C38.0578 100.8 38.06 100.831 38.0624 100.863C38.3589 104.719 39.5244 108.457 41.4713 111.797C44.5826 117.171 50.8935 125.413 61.364 128.047C61.7638 128.144 62.1405 128.319 62.4723 128.563C62.804 128.807 63.0843 129.114 63.2968 129.466C63.5094 129.819 63.65 130.211 63.7107 130.618C63.7713 131.026 63.7507 131.442 63.6501 131.841C63.468 132.517 63.0686 133.115 62.5136 133.541C61.9585 133.967 61.2789 134.198 60.5796 134.199V134.199Z" fill="#4247DC"/>
<path d="M35.9271 132.763C35.4956 132.763 35.0686 132.676 34.6718 132.506C34.275 132.336 33.9167 132.087 33.6186 131.775C25.9313 123.602 21.5834 114.465 19.9473 103.037V102.969C19.0284 95.4032 20.3731 84.6938 26.9622 77.3296C31.8257 71.8963 38.6613 69.1348 47.2451 69.1348C57.3978 69.1348 65.3765 73.917 70.3519 82.9425C72.6005 87.0934 74.074 91.6204 74.6999 96.3013C74.7737 97.1314 74.5184 97.9574 73.9891 98.6004C73.4598 99.2435 72.6991 99.652 71.8715 99.7375C71.0438 99.8231 70.2159 99.5789 69.5666 99.0576C68.9174 98.5364 68.4991 97.7801 68.4021 96.9524C67.8569 93.0386 66.6037 89.2572 64.7041 85.7939C60.8492 78.9012 54.9773 75.3988 47.2227 75.3988C40.5215 75.3988 35.2771 77.4419 31.6688 81.4832C26.4692 87.2981 25.4606 96.2564 26.1778 102.184C27.6122 112.287 31.4447 120.325 38.2131 127.509C38.4957 127.808 38.716 128.161 38.8612 128.546C39.0065 128.931 39.0738 129.342 39.0592 129.753C39.0446 130.165 38.9484 130.57 38.7762 130.944C38.604 131.318 38.3592 131.654 38.0562 131.932C37.4738 132.464 36.715 132.76 35.9271 132.763V132.763Z" fill="#4247DC"/>
<path d="M47.289 103.44C49.517 103.44 51.3232 101.631 51.3232 99.3987C51.3232 97.1668 49.517 95.3574 47.289 95.3574C45.061 95.3574 43.2549 97.1668 43.2549 99.3987C43.2549 101.631 45.061 103.44 47.289 103.44Z" fill="#4247DC"/>
</g>
<defs>
<clipPath id="clip0">
<rect width="204" height="180" fill="white"/>
</clipPath>
</defs>
</svg>
