<svg width="48" height="48" viewBox="0 0 48 48" fill="none" xmlns="http://www.w3.org/2000/svg">
<circle cx="24" cy="24" r="23" stroke="#1CADC3" stroke-width="2"/>
<path d="M20.8293 36C20.5338 36.0006 20.2411 35.9412 19.968 35.8252C19.6949 35.7092 19.4467 35.5389 19.2378 35.324L9.68837 25.5014C9.47322 25.288 9.30155 25.0327 9.18338 24.7503C9.06521 24.468 9.00291 24.1642 9.0001 23.8568C8.99729 23.5495 9.05404 23.2446 9.16704 22.96C9.28003 22.6754 9.44701 22.4168 9.65822 22.1993C9.86944 21.9818 10.1207 21.8097 10.3972 21.6931C10.6738 21.5765 10.9702 21.5177 11.2691 21.5202C11.568 21.5226 11.8635 21.5863 12.1382 21.7074C12.4129 21.8285 12.6614 22.0047 12.8693 22.2256L20.8271 30.4092L35.1557 15.6788C35.5778 15.2444 36.1504 15.0002 36.7476 15C37.3448 14.9998 37.9175 15.2435 38.34 15.6776C38.7624 16.1117 38.9998 16.7006 39 17.3147C39.0002 17.9288 38.7632 18.5178 38.3411 18.9522L22.4209 35.324C22.212 35.5389 21.9638 35.7092 21.6907 35.8252C21.4176 35.9412 21.1248 36.0006 20.8293 36Z" fill="#1CADC3"/>
</svg>
