<svg width="20" height="26" viewBox="0 0 20 26" fill="none" xmlns="http://www.w3.org/2000/svg">
<path d="M15.9678 21.0556C19.6671 17.7879 20.1758 11.9923 16.9081 8.29296C16.9081 8.29296 15.8445 7.09069 15.2588 6.58203" stroke="#1B65D0" stroke-width="1.5" stroke-linecap="round" stroke-linejoin="round"/>
<path d="M10.5264 22.582L13.8249 19.6688C16.7535 17.0792 17.031 12.5938 14.4415 9.66522C14.4415 9.66522 13.6708 8.78663 13.1159 8.32422" stroke="#1B65D0" stroke-width="1.5" stroke-linecap="round" stroke-linejoin="round"/>
<path d="M5.62494 20.0382L9.3859 16.7088C10.1258 16.0614 10.6344 15.3061 10.6344 14.3967C10.6344 13.9343 10.5882 13.2561 10.0641 12.655C9.54004 12.0538 9.63252 11.2831 10.172 10.8053C10.7115 10.3275 11.5438 10.3737 12.0217 10.9132L12.0679 10.9595C13.9484 13.0866 13.748 16.3543 11.6209 18.2348L4.05273 25.0014" stroke="#1B65D0" stroke-width="1.5" stroke-linecap="round" stroke-linejoin="round"/>
<path d="M6.73461 3.52344L3.52855 6.31333C0.430375 9.0724 0.137513 13.8198 2.88117 16.9334L3.77517 17.9507" stroke="#1B65D0" stroke-width="1.5" stroke-linecap="round" stroke-linejoin="round"/>
<path d="M11.2664 2.89453L5.56329 8.04273C3.43618 9.92322 3.23581 13.1909 5.11629 15.318L5.87156 16.1812" stroke="#1B65D0" stroke-width="1.5" stroke-linecap="round" stroke-linejoin="round"/>
<path d="M17.2926 1L7.7977 9.43134C6.4567 10.6182 6.33339 12.6836 7.52025 14.0246L7.6898 14.2096" stroke="#1B65D0" stroke-width="1.5" stroke-linecap="round" stroke-linejoin="round"/>
</svg>
