<svg width="144" height="144" viewBox="0 0 144 144" fill="none" xmlns="http://www.w3.org/2000/svg">
<g filter="url(#filter0_ddi)">
<circle cx="72" cy="72" r="58" fill="#F6F8FC"/>
</g>
<circle cx="72" cy="72" r="45" fill="#151F35"/>
<path d="M72.0128 93.9991H72C67.5679 93.9982 63.2953 92.6864 59.6452 90.2051C57.8861 89.0089 56.3103 87.566 54.9619 85.9179C53.6034 84.257 52.4988 82.4145 51.6784 80.4409C51.4841 79.9744 51.7059 79.4363 52.1725 79.2429C52.2853 79.1961 52.4035 79.1723 52.5245 79.1723C52.8958 79.1723 53.2285 79.3941 53.3706 79.737C56.512 87.2874 63.8233 92.1658 71.9973 92.1658H72.011H72.0119C72.2448 92.1658 72.4657 92.2529 72.6362 92.4105L72.6435 92.4179C72.6444 92.4179 72.6444 92.4188 72.6444 92.4188L72.6463 92.4206C72.6481 92.4215 72.649 92.4234 72.6508 92.4243C72.6518 92.4252 72.6527 92.4261 72.6527 92.4261C72.6536 92.427 72.6554 92.4289 72.6572 92.4307L72.6701 92.4435C72.671 92.4454 72.6737 92.4472 72.6756 92.4499L72.6765 92.4509C72.6994 92.4747 72.7205 92.4994 72.7398 92.5251C72.7517 92.5398 72.7617 92.5544 72.7727 92.5691C72.7727 92.57 72.7728 92.5709 72.7737 92.5709L72.7755 92.5737C72.7764 92.5755 72.7773 92.5774 72.7783 92.5792L72.7755 92.5829L72.7801 92.5801L72.7874 92.592C72.7883 92.5939 72.7892 92.5957 72.7902 92.5975C72.792 92.5994 72.7929 92.6012 72.7938 92.603C72.7948 92.6039 72.7957 92.6058 72.7966 92.6067L72.8003 92.614C72.8012 92.6149 72.8012 92.6159 72.8021 92.6159C72.8846 92.7552 72.9286 92.9156 72.9295 93.0788V93.0815C72.9295 93.0834 72.9295 93.0843 72.9295 93.0852C72.9286 93.3244 72.836 93.5508 72.6682 93.7223C72.6682 93.7232 72.6673 93.7241 72.6664 93.7241C72.6646 93.7259 72.6628 93.7278 72.6618 93.7296L72.6563 93.7351C72.6554 93.736 72.6536 93.7369 72.6527 93.7378C72.4822 93.9056 72.2558 93.9982 72.0165 93.9991H72.0128ZM76.1232 93.5958C75.6878 93.5958 75.3101 93.285 75.2257 92.8579C75.1781 92.6177 75.2267 92.373 75.3623 92.1695C75.4989 91.966 75.7061 91.8275 75.9462 91.7799C76.0049 91.768 76.0654 91.7625 76.1259 91.7625C76.5613 91.7625 76.939 92.0732 77.0233 92.5004C77.1214 92.9963 76.7987 93.4803 76.3028 93.5783C76.2432 93.5903 76.1837 93.5958 76.1232 93.5958ZM80.0786 92.3959C79.7064 92.3959 79.3746 92.174 79.2316 91.8312C79.1381 91.6048 79.1372 91.3555 79.2316 91.1291C79.3242 90.9026 79.5011 90.7267 79.7266 90.6322C87.2845 87.4936 92.1676 80.1797 92.1667 71.9995C92.1667 71.9913 92.1667 71.984 92.1667 71.9757C92.1667 71.9675 92.1667 71.9601 92.1667 71.9519C92.1658 71.4468 92.5755 71.0343 93.0806 71.0334H93.0833C93.5875 71.0334 93.9982 71.4431 94 71.9473V71.9995C93.9991 76.4334 92.6864 80.7077 90.2023 84.3587C89.0051 86.1196 87.5613 87.6953 85.9113 89.0437C84.2485 90.4022 82.4051 91.5067 80.4297 92.3262C80.3178 92.372 80.1996 92.3959 80.0786 92.3959ZM51.3218 77.053C50.8864 77.053 50.5088 76.7423 50.4235 76.3151C50.3758 76.075 50.4244 75.8302 50.5601 75.6267C50.6958 75.4232 50.9029 75.2848 51.1431 75.2371C51.2027 75.2252 51.2632 75.2197 51.3237 75.2197C51.7591 75.2197 52.1367 75.5296 52.2211 75.9576C52.2687 76.1978 52.2202 76.4416 52.0845 76.6451C51.9488 76.8486 51.7417 76.987 51.5015 77.0356C51.4419 77.0466 51.3814 77.053 51.3218 77.053ZM50.9176 72.9409H50.9167C50.4116 72.9409 50.0009 72.5303 50 72.0252V71.9995C50.0009 67.5694 51.3108 63.2996 53.7904 59.6505C54.9858 57.8914 56.4268 56.3157 58.074 54.9673C59.7332 53.6088 61.5747 52.5043 63.5465 51.683C63.6593 51.6362 63.7775 51.6124 63.8985 51.6124C64.2697 51.6124 64.6025 51.8342 64.7446 52.177C64.9389 52.6436 64.718 53.1808 64.2514 53.3751C56.7063 56.5192 51.8324 63.8295 51.8333 71.9995V72.0234C51.8333 72.2681 51.7389 72.4982 51.5657 72.6714C51.3924 72.8456 51.1623 72.9409 50.9176 72.9409ZM92.6718 68.7555C92.2373 68.7555 91.8596 68.4457 91.7743 68.0185C91.7734 68.0185 91.7734 68.0176 91.7734 68.0176C91.7257 67.7775 91.7743 67.5336 91.91 67.3301C92.0457 67.1266 92.2528 66.9882 92.493 66.9396C92.5526 66.9277 92.6131 66.9222 92.6736 66.9222C93.1081 66.9222 93.4857 67.2321 93.5719 67.6592C93.6709 68.1542 93.3483 68.6382 92.8523 68.7372C92.7937 68.7491 92.7323 68.7555 92.6718 68.7555ZM91.4663 64.8039C91.0951 64.8039 90.7623 64.5829 90.6203 64.2401C87.4743 56.7034 80.1666 51.8333 72.0028 51.8333H71.9624C71.4583 51.8333 71.0467 51.4226 71.0457 50.9185C71.0457 50.6737 71.1402 50.4427 71.3134 50.2695C71.4858 50.0962 71.7158 50.0009 71.9597 50C71.9606 50 71.9606 50 71.9606 50H71.9652H71.9725C71.9826 50 71.9908 50 72 50C76.4275 50.0009 80.6955 51.3099 84.3438 53.7867C86.1029 54.9811 87.6777 56.4202 89.0262 58.0665C90.3847 59.7238 91.4902 61.5635 92.3115 63.5343C92.5067 64.0009 92.2849 64.538 91.8193 64.7333C91.7065 64.78 91.5873 64.8039 91.4663 64.8039ZM67.8512 52.2412C67.4148 52.2412 67.0372 51.9314 66.9519 51.5042C66.9042 51.2641 66.9528 51.0193 67.0885 50.8158C67.2242 50.6123 67.4313 50.4739 67.6715 50.4253C67.7311 50.4134 67.7916 50.4079 67.8521 50.4079C68.2875 50.4079 68.6652 50.7177 68.7504 51.1458C68.8494 51.6408 68.5258 52.1248 68.0308 52.2238C67.9713 52.2357 67.9108 52.2412 67.8512 52.2412Z" fill="white"/>
<path d="M72.0092 88.4993C71.5032 88.4993 71.0925 88.0877 71.0925 87.5827C71.0925 87.3379 71.1869 87.1078 71.3602 86.9346C71.5334 86.7613 71.7635 86.666 72.0082 86.666C80.0914 86.6623 86.6676 80.0827 86.6667 71.9997V71.9676C86.6658 71.7219 86.7611 71.4918 86.9334 71.3186C87.1067 71.1444 87.3368 71.0491 87.5815 71.0482H87.5833C88.0875 71.0482 88.4991 71.4588 88.5 71.963V71.9997C88.5 74.2262 88.0637 76.3867 87.2038 78.4199C86.7904 79.3979 86.2789 80.3402 85.684 81.222C85.0937 82.0956 84.4163 82.9169 83.6701 83.6631C82.9239 84.4101 82.1026 85.0875 81.2299 85.6779C80.3481 86.2737 79.4058 86.7861 78.4286 87.1995C76.3954 88.0602 74.2358 88.4975 72.0092 88.4993ZM67.9768 87.975C67.897 87.975 67.8173 87.9649 67.7403 87.9438C67.2517 87.8137 66.9602 87.3104 67.0903 86.8218C67.1976 86.4213 67.5615 86.1408 67.9758 86.1408C68.0547 86.1408 68.1344 86.1518 68.2123 86.1719C68.7009 86.3021 68.9915 86.8063 68.8623 87.2939C68.755 87.6954 68.3911 87.975 67.9768 87.975ZM64.2166 86.4194C64.0562 86.4194 63.8985 86.3773 63.7583 86.2966C61.2943 84.874 59.2263 82.8243 57.7788 80.3705C57.0464 79.1293 56.4799 77.7965 56.0968 76.4106C55.7008 74.9806 55.5 73.4965 55.5 71.9997C55.5 70.5312 55.6934 69.0737 56.0747 67.6676C56.4451 66.3036 56.9914 64.991 57.6982 63.7654C57.8613 63.4831 58.1666 63.3071 58.4929 63.3071C58.6533 63.3071 58.811 63.3493 58.9503 63.4299C59.163 63.5518 59.3143 63.7498 59.3775 63.9863C59.4417 64.2228 59.4087 64.4694 59.2867 64.6821C58.0089 66.8976 57.3333 69.4275 57.3333 71.9997C57.3333 77.2209 60.1457 82.091 64.674 84.709C64.6749 84.709 64.6749 84.709 64.6758 84.709C64.9591 84.8731 65.1342 85.1783 65.1342 85.5055C65.1333 85.665 65.0911 85.8227 65.0113 85.9611C64.8472 86.2444 64.5429 86.4194 64.2166 86.4194ZM87.0471 68.8501C86.6346 68.8501 86.2707 68.5723 86.1625 68.1736C86.1625 68.1727 86.1625 68.1727 86.1625 68.1727C86.0305 67.6841 86.3211 67.1799 86.8088 67.0488C86.8876 67.0278 86.9673 67.0168 87.048 67.0168C87.4614 67.0168 87.8253 67.2954 87.9326 67.6951C88.0637 68.1827 87.774 68.6869 87.2863 68.8189C87.2075 68.84 87.1268 68.8501 87.0471 68.8501ZM85.4832 65.0964C85.1569 65.0964 84.8535 64.9222 84.6894 64.6408C82.0677 60.1337 77.2057 57.3333 72.0009 57.3333C69.4141 57.3333 66.8722 58.0153 64.6483 59.3059C64.509 59.3866 64.3495 59.4297 64.1891 59.4297C63.8627 59.4297 63.5593 59.2546 63.3953 58.9732C63.3155 58.8348 63.2724 58.6771 63.2715 58.5176C63.2706 58.1904 63.4447 57.8842 63.728 57.7201C64.9572 57.0061 66.2763 56.4551 67.6458 56.0812C69.0584 55.6952 70.5233 55.5 71.9991 55.5H72C73.4932 55.5 74.9737 55.6998 76.4 56.0931C77.7823 56.4753 79.1124 57.0381 80.3517 57.7669C82.8011 59.2069 84.8489 61.2657 86.2743 63.7196C86.5283 64.1568 86.3798 64.7187 85.9425 64.9726C85.8032 65.0542 85.6437 65.0964 85.4832 65.0964ZM60.967 61.9119C60.7222 61.9119 60.4922 61.8166 60.3189 61.6443C59.9614 61.2868 59.9605 60.7056 60.318 60.3481C60.4913 60.174 60.7213 60.0787 60.967 60.0787C61.2108 60.0787 61.4409 60.1731 61.6142 60.3463C61.7874 60.5186 61.8828 60.7487 61.8837 60.9935C61.8837 61.2391 61.7883 61.4692 61.616 61.6425C61.4428 61.8157 61.2118 61.9119 60.967 61.9119Z" fill="white"/>
<path d="M67.4167 81.1671C67.2581 81.1671 67.1004 81.1258 66.9583 81.0442C66.6751 80.8802 66.5 80.5777 66.5 80.2504V63.077C66.5 62.7498 66.6751 62.4473 66.9583 62.2832C67.2416 62.1191 67.5908 62.1191 67.875 62.2832L82.7479 70.8704C83.0312 71.0344 83.2062 71.3369 83.2062 71.6642C83.2062 71.9914 83.0312 72.2939 82.7479 72.458L67.875 81.0442C67.7329 81.1258 67.5752 81.1671 67.4167 81.1671ZM68.3333 64.6647V78.6628L80.4562 71.6642L68.3333 64.6647Z" fill="white"/>
<defs>
<filter id="filter0_ddi" x="0" y="0" width="144" height="144" filterUnits="userSpaceOnUse" color-interpolation-filters="sRGB">
<feFlood flood-opacity="0" result="BackgroundImageFix"/>
<feColorMatrix in="SourceAlpha" type="matrix" values="0 0 0 0 0 0 0 0 0 0 0 0 0 0 0 0 0 0 127 0"/>
<feOffset dx="4" dy="4"/>
<feGaussianBlur stdDeviation="5"/>
<feColorMatrix type="matrix" values="0 0 0 0 0.764706 0 0 0 0 0.815686 0 0 0 0 0.894118 0 0 0 1 0"/>
<feBlend mode="normal" in2="BackgroundImageFix" result="effect1_dropShadow"/>
<feColorMatrix in="SourceAlpha" type="matrix" values="0 0 0 0 0 0 0 0 0 0 0 0 0 0 0 0 0 0 127 0"/>
<feOffset dx="-4" dy="-4"/>
<feGaussianBlur stdDeviation="5"/>
<feColorMatrix type="matrix" values="0 0 0 0 1 0 0 0 0 1 0 0 0 0 1 0 0 0 1 0"/>
<feBlend mode="normal" in2="effect1_dropShadow" result="effect2_dropShadow"/>
<feBlend mode="normal" in="SourceGraphic" in2="effect2_dropShadow" result="shape"/>
<feColorMatrix in="SourceAlpha" type="matrix" values="0 0 0 0 0 0 0 0 0 0 0 0 0 0 0 0 0 0 127 0" result="hardAlpha"/>
<feOffset dx="2" dy="2"/>
<feGaussianBlur stdDeviation="5"/>
<feComposite in2="hardAlpha" operator="arithmetic" k2="-1" k3="1"/>
<feColorMatrix type="matrix" values="0 0 0 0 0.85098 0 0 0 0 0.882353 0 0 0 0 0.937255 0 0 0 0.1 0"/>
<feBlend mode="normal" in2="shape" result="effect3_innerShadow"/>
</filter>
</defs>
</svg>
