<svg width="144" height="145" viewBox="0 0 144 145" fill="none" xmlns="http://www.w3.org/2000/svg">
<g filter="url(#filter0_ddi)">
<circle cx="72" cy="72.9727" r="58" fill="#F6F8FC"/>
</g>
<circle cx="72" cy="72.9727" r="45" fill="#8793AB"/>
<g clip-path="url(#clip0)">
<path d="M93.0086 72.4319C92.4893 72.4319 92.0172 72.8617 92.0172 73.4349C92.0172 84.6116 83.0472 93.7345 71.9528 93.7345C60.8584 93.7345 51.9356 84.6116 51.9356 73.4349C51.9356 62.7358 60.1974 53.9473 70.5837 53.2308L69.6867 53.8995C69.2618 54.2339 69.1674 54.8548 69.4979 55.2847C69.6867 55.5235 69.97 55.6668 70.2532 55.6668C70.4421 55.6668 70.6781 55.619 70.867 55.4757L74.0773 52.992C74.3133 52.8009 74.4549 52.5144 74.4549 52.18C74.4549 51.8457 74.2661 51.5591 74.03 51.4158L70.8197 49.2187C70.3949 48.8366 69.7811 48.9798 69.4979 49.4575C69.2146 49.8874 69.309 50.5083 69.7811 50.8426L70.4421 51.2725C59.0172 52.0367 50 61.685 50 73.4349C50 85.7102 59.867 95.6928 72 95.6928C84.133 95.6928 94 85.7102 94 73.4349C94 72.8617 93.5279 72.4319 93.0086 72.4319Z" fill="white"/>
<path d="M92.3004 69.4702C92.9522 69.4702 93.4806 68.9356 93.4806 68.2761C93.4806 67.6166 92.9522 67.082 92.3004 67.082C91.6485 67.082 91.1201 67.6166 91.1201 68.2761C91.1201 68.9356 91.6485 69.4702 92.3004 69.4702Z" fill="white"/>
<path d="M90.6954 64.9819C91.3472 64.9819 91.8757 64.4473 91.8757 63.7878C91.8757 63.1284 91.3472 62.5938 90.6954 62.5938C90.0436 62.5938 89.5151 63.1284 89.5151 63.7878C89.5151 64.4473 90.0436 64.9819 90.6954 64.9819Z" fill="white"/>
<path d="M87.8624 60.8257C88.5142 60.8257 89.0426 60.2911 89.0426 59.6316C89.0426 58.9721 88.5142 58.4375 87.8624 58.4375C87.2105 58.4375 86.6821 58.9721 86.6821 59.6316C86.6821 60.2911 87.2105 60.8257 87.8624 60.8257Z" fill="white"/>
<path d="M83.9444 57.2437C84.5963 57.2437 85.1247 56.709 85.1247 56.0496C85.1247 55.3901 84.5963 54.8555 83.9444 54.8555C83.2926 54.8555 82.7642 55.3901 82.7642 56.0496C82.7642 56.709 83.2926 57.2437 83.9444 57.2437Z" fill="white"/>
<path d="M79.2232 54.7124C79.8751 54.7124 80.4035 54.1778 80.4035 53.5183C80.4035 52.8588 79.8751 52.3242 79.2232 52.3242C78.5714 52.3242 78.043 52.8588 78.043 53.5183C78.043 54.1778 78.5714 54.7124 79.2232 54.7124Z" fill="white"/>
<path d="M79.3647 84.8047H65.2016C64.8712 84.8047 64.5879 85.0913 64.5879 85.4256C64.5879 85.76 64.8712 86.0465 65.2016 86.0465H79.3647C79.6952 86.0465 79.9784 85.76 79.9784 85.4256C79.9784 85.0913 79.6952 84.8047 79.3647 84.8047Z" fill="white"/>
<path d="M63.2186 66.8435C64.0684 66.8435 64.7765 66.1271 64.7765 65.2673C64.7765 65.1718 64.7765 65.0285 64.7293 64.933H71.6692V82.7966H67.5619C67.2315 82.7966 66.9482 83.0832 66.9482 83.4176C66.9482 83.7519 67.2315 84.0385 67.5619 84.0385H77.004C77.3345 84.0385 77.6177 83.7519 77.6177 83.4176C77.6177 83.0832 77.3345 82.7966 77.004 82.7966H72.8495V64.933H79.7894C79.7894 65.0285 79.7422 65.1718 79.7422 65.2673C79.7422 66.1271 80.4503 66.8435 81.3001 66.8435C82.1499 66.8435 82.8581 66.1271 82.8581 65.2673C82.8581 64.4553 82.2443 63.7866 81.4418 63.7389C81.3946 63.7389 81.3473 63.7389 81.3001 63.7389H72.8495V60.9686C72.8495 60.6342 72.5662 60.3477 72.2358 60.3477C71.9053 60.3477 71.622 60.6342 71.622 60.9686V63.7389H63.2186C63.1714 63.7389 63.1242 63.7389 63.077 63.7389C62.2744 63.7866 61.6606 64.4553 61.6606 65.2673C61.6606 66.1271 62.3688 66.8435 63.2186 66.8435Z" fill="white"/>
<path d="M67.0428 75.2993C67.0428 75.2516 67.0428 75.2516 67.0428 75.2038V75.1561V75.1083C67.0428 75.1083 67.0428 75.0605 66.9956 75.0605L63.7853 67.9437C63.6909 67.7049 63.4548 67.6094 63.2187 67.6094C62.9827 67.6094 62.7466 67.7527 62.6522 67.9437L59.3003 75.0605V75.1083V75.1561V75.2038V75.2516C59.3003 76.9711 60.9527 78.3562 63.0299 78.4518C63.0771 78.4518 63.0771 78.4518 63.1243 78.4518C63.1715 78.4518 63.2187 78.4518 63.266 78.4518C63.3132 78.4518 63.3132 78.4518 63.3604 78.4518C65.3432 78.4518 67.0428 77.0188 67.0428 75.2993ZM63.1715 69.6632L65.4376 74.7262H60.7638L63.1715 69.6632Z" fill="white"/>
<path d="M85.219 75.2985V75.2507V75.2029V75.1552V75.1074L81.9143 67.9906C81.8199 67.7518 81.5839 67.6562 81.3478 67.6562C81.1118 67.6562 80.8757 67.7995 80.7813 67.9906L77.4766 75.1074V75.1552V75.2029V75.2507V75.2985C77.4766 77.018 79.1289 78.4031 81.2062 78.4986C81.2534 78.4986 81.2534 78.4986 81.3006 78.4986C81.3478 78.4986 81.395 78.4986 81.4422 78.4986C81.4894 78.4986 81.4894 78.4986 81.5366 78.4986C83.5667 78.4509 85.219 77.018 85.219 75.2985ZM81.3006 69.6623L83.6139 74.7253H78.9873L81.3006 69.6623Z" fill="white"/>
</g>
<defs>
<filter id="filter0_ddi" x="0" y="0.972656" width="144" height="144" filterUnits="userSpaceOnUse" color-interpolation-filters="sRGB">
<feFlood flood-opacity="0" result="BackgroundImageFix"/>
<feColorMatrix in="SourceAlpha" type="matrix" values="0 0 0 0 0 0 0 0 0 0 0 0 0 0 0 0 0 0 127 0"/>
<feOffset dx="4" dy="4"/>
<feGaussianBlur stdDeviation="5"/>
<feColorMatrix type="matrix" values="0 0 0 0 0.764706 0 0 0 0 0.815686 0 0 0 0 0.894118 0 0 0 1 0"/>
<feBlend mode="normal" in2="BackgroundImageFix" result="effect1_dropShadow"/>
<feColorMatrix in="SourceAlpha" type="matrix" values="0 0 0 0 0 0 0 0 0 0 0 0 0 0 0 0 0 0 127 0"/>
<feOffset dx="-4" dy="-4"/>
<feGaussianBlur stdDeviation="5"/>
<feColorMatrix type="matrix" values="0 0 0 0 1 0 0 0 0 1 0 0 0 0 1 0 0 0 1 0"/>
<feBlend mode="normal" in2="effect1_dropShadow" result="effect2_dropShadow"/>
<feBlend mode="normal" in="SourceGraphic" in2="effect2_dropShadow" result="shape"/>
<feColorMatrix in="SourceAlpha" type="matrix" values="0 0 0 0 0 0 0 0 0 0 0 0 0 0 0 0 0 0 127 0" result="hardAlpha"/>
<feOffset dx="2" dy="2"/>
<feGaussianBlur stdDeviation="5"/>
<feComposite in2="hardAlpha" operator="arithmetic" k2="-1" k3="1"/>
<feColorMatrix type="matrix" values="0 0 0 0 0.85098 0 0 0 0 0.882353 0 0 0 0 0.937255 0 0 0 0.1 0"/>
<feBlend mode="normal" in2="shape" result="effect3_innerShadow"/>
</filter>
<clipPath id="clip0">
<rect x="50" y="49" width="44" height="46.6939" fill="white"/>
</clipPath>
</defs>
</svg>
