<svg width="144" height="144" viewBox="0 0 144 144" fill="none" xmlns="http://www.w3.org/2000/svg">
<g filter="url(#filter0_ddi)">
<circle cx="72" cy="72" r="58" fill="#F6F8FC"/>
</g>
<circle cx="73" cy="73" r="45" fill="#4B5773"/>
<path fill-rule="evenodd" clip-rule="evenodd" d="M69.3686 53.685C69.491 53.1157 69.5831 52.4747 69.5831 51.7941C69.5831 51.1114 69.4867 50.4329 69.2952 49.7679C69.9365 50.3641 70.3274 51.0341 70.4598 51.7658L70.4606 51.7707C70.3562 52.3422 69.9229 52.981 69.3686 53.685ZM76.5242 61.5518C75.4747 61.1314 74.2604 60.9088 72.9993 60.9081C72.5005 60.9088 72.0067 60.9449 71.5288 61.013C71.2243 60.3444 71.0695 59.6915 71.0695 59.069C71.0695 57.5284 71.9506 56.199 72.8532 54.9697C73.1433 54.5712 73.4622 54.1685 73.7717 53.7786L74.0999 53.3638C74.354 53.0384 74.611 52.7073 74.8543 52.3705C74.9939 52.1763 75.1321 51.9778 75.2631 51.7771C75.4287 51.5233 75.577 51.2752 75.718 51.0192C75.9109 50.6661 76.0707 50.3209 76.1981 49.9777C76.35 50.6229 76.427 51.2702 76.427 51.9111C76.427 52.1486 76.4184 52.3663 76.4004 52.5761C76.3759 52.9179 76.3097 53.2504 76.1945 53.619C76.1226 53.8573 76.0333 54.0962 75.9217 54.3507C75.7792 54.6747 75.6108 54.9853 75.4791 55.2199C75.3524 55.4496 75.2185 55.6715 75.0832 55.8892C74.955 56.1026 74.8255 56.3054 74.7002 56.5011C74.1956 57.2923 73.7602 57.975 73.7357 58.667C73.735 58.7691 73.7465 58.8627 73.7688 58.9605C73.8645 59.3192 73.9941 59.8014 74.6045 59.8737C74.9507 59.863 75.1854 59.7007 75.3394 59.3937C75.4366 59.1909 75.4848 58.9626 75.4848 58.7124C75.4848 58.3891 75.4042 58.048 75.2516 57.7205C75.4719 57.3376 75.7612 56.886 76.0419 56.4479C76.2032 56.187 76.3824 55.8899 76.5573 55.5673C77.2059 56.7265 77.5334 57.8091 77.532 58.7904C77.5283 59.7928 77.198 60.6982 76.5242 61.5518ZM69.2678 61.6369C68.8424 61.1307 68.1421 60.0672 68.1435 58.5543C68.1435 58.3479 68.1557 58.1445 68.1809 57.9481C68.3134 56.8258 69.0685 55.814 69.897 54.7903L70.0654 54.579C70.8162 53.6389 71.5928 52.6662 71.6058 51.4999C71.6065 51.3624 71.5979 51.2482 71.5784 51.139C71.5172 50.6973 71.4863 50.3053 71.4863 49.9479C71.4957 48.7405 71.8181 47.787 72.494 47C72.489 47.0872 72.4868 47.173 72.4883 47.2567C72.4962 48.8965 73.293 50.4464 74.0171 51.636C73.668 52.1309 73.2872 52.6123 72.8863 53.1206C72.5696 53.5219 72.25 53.9267 71.9419 54.3436C70.9364 55.7233 69.9531 57.2242 69.9524 59.069C69.9524 59.7687 70.1079 60.4976 70.4167 61.2413C70.0179 61.3469 69.6328 61.4795 69.2678 61.6369ZM85.524 63.6057C85.4872 63.5044 85.4426 63.4037 85.393 63.3058C85.2072 62.9464 84.9373 62.6295 84.6062 62.3806L89.1403 50.8611C89.2382 50.8476 89.3368 50.8413 89.4368 50.8413C90.161 50.8413 90.8743 51.1816 91.3954 51.775C91.823 52.2621 92.0735 52.8689 92.1044 53.4907L85.524 63.6057ZM53.8928 53.4907C53.9237 52.8711 54.1749 52.2649 54.6032 51.775C55.1251 51.1823 55.8391 50.842 56.5647 50.842C56.664 50.842 56.7619 50.8483 56.8591 50.8618L61.3939 62.3806C61.0649 62.6274 60.7943 62.9443 60.6057 63.3051C60.5553 63.4037 60.5107 63.5044 60.4733 63.6072L53.8928 53.4907ZM86.4525 65.8617C86.2092 65.6795 85.9393 65.5363 85.655 65.4385L92.8897 54.3138C93.6376 54.4046 94.3279 54.8661 94.7548 55.5687C95.1636 56.2423 95.2745 57.0342 95.0628 57.7503L86.4525 65.8617ZM50.938 57.7531C50.7213 57.0363 50.8322 56.2437 51.2439 55.5687C51.6722 54.8661 52.3625 54.4046 53.1096 54.3138L60.3458 65.4378C60.0608 65.5356 59.793 65.6774 59.5461 65.8617L50.938 57.7531ZM48.5338 62.3657C48.1898 61.6653 48.1905 60.8046 48.5396 60.0474C48.8829 59.3107 49.5149 58.7804 50.247 58.6117L58.8047 66.6707C58.7795 66.7068 58.7551 66.7444 58.7335 66.7862C58.5363 67.1627 58.4362 67.5697 58.4362 67.9965C58.4362 68.0021 58.4362 68.0078 58.4362 68.0128L48.5338 62.3657ZM87.5617 67.995C87.5617 67.5725 87.4631 67.1662 87.2666 66.7862C87.245 66.7444 87.2205 66.7075 87.1961 66.6714L95.751 58.6117C96.4823 58.7769 97.115 59.3065 97.4569 60.0474C97.806 60.7982 97.8089 61.6596 97.467 62.3664L87.5617 68.0156V67.995ZM87.6359 70.3992C87.507 70.0752 87.322 69.7831 87.091 69.5371L98.0594 63.2832C98.6568 63.5731 99.1189 64.1247 99.337 64.8139C99.5919 65.6185 99.4738 66.4835 99.0232 67.1457L87.6359 70.3992ZM46.9754 67.1457C46.5256 66.4828 46.4082 65.6178 46.663 64.8139C46.8797 64.1254 47.3418 63.5731 47.94 63.2832L58.9091 69.5385C58.6773 69.7817 58.4923 70.0738 58.3628 70.3992L46.9754 67.1457ZM87.4754 72.7048C87.6978 72.3269 87.8209 71.9079 87.836 71.4691L99.1384 68.2375C99.6746 68.6714 99.9942 69.3917 100 70.1886C100.001 70.9246 99.7322 71.6286 99.2579 72.1327L87.4754 72.7048ZM46.7429 72.1362C46.2664 71.6272 45.9958 70.9224 46 70.1886C46.0023 69.3974 46.3219 68.6771 46.8603 68.2382L58.1584 71.4924C58.1785 71.9207 58.3038 72.3361 58.5211 72.7048L46.7429 72.1362ZM87.6891 75.0948C87.6812 74.6325 87.5524 74.1915 87.312 73.7931L99.296 73.216C99.6854 73.708 99.8582 74.3837 99.7718 75.0884C99.6674 75.9186 99.2248 76.6595 98.5791 77.0884L87.6891 75.0948ZM47.4196 77.0884C46.7753 76.6602 46.3327 75.9193 46.2268 75.0877C46.1397 74.3837 46.3147 73.7087 46.707 73.216L58.686 73.7931C58.4456 74.1915 58.3167 74.6347 58.3081 75.0948L47.4196 77.0884ZM48.9009 81.3055C48.2697 81.0282 47.7679 80.4136 47.5822 79.6783C47.444 79.126 47.5059 78.5794 47.7564 78.1278L58.5175 76.1583C58.6737 76.5269 58.9134 76.8609 59.2157 77.1331L48.9009 81.3055ZM86.7829 77.1331C87.0867 76.8609 87.3271 76.5255 87.4811 76.154L98.2465 78.1321C98.4942 78.5808 98.5553 79.126 98.4171 79.6791C98.2321 80.4157 97.7276 81.0304 97.0934 81.3055L86.7829 77.1331ZM86.644 79.8216C86.8045 79.477 86.8858 79.109 86.8858 78.729C86.8858 78.5986 86.8743 78.466 86.8534 78.3334L96.4096 82.1966C96.5982 82.6986 96.55 83.2977 96.2728 83.8557C95.9813 84.4434 95.4666 84.9064 94.8829 85.1113L86.644 79.8216ZM51.1165 85.112C50.5334 84.9064 50.0195 84.4448 49.7265 83.8592C49.448 83.2998 49.399 82.6993 49.5876 82.1981L59.1474 78.332C59.1265 78.4639 59.1171 78.5957 59.1171 78.729C59.1128 79.109 59.1942 79.4791 59.3604 79.8315L51.1165 85.112ZM53.8006 88.2861C53.1485 88.1833 52.5295 87.7792 52.1293 87.1893C51.8795 86.827 51.7391 86.4271 51.719 86.0251L60.0176 80.7042C60.3422 80.9978 60.7266 81.2119 61.1477 81.3352C61.142 81.3572 61.1369 81.3799 61.1333 81.4012L53.8006 88.2861ZM84.8653 81.399C84.861 81.3771 84.856 81.3558 84.8509 81.3345C85.2684 81.2119 85.6528 80.9978 85.9803 80.7042L94.279 86.0223C94.2617 86.4229 94.122 86.8242 93.8723 87.1886C93.4677 87.7799 92.848 88.184 92.1987 88.2868L84.8653 81.399ZM56.9534 90.7299C56.3272 90.7094 55.7024 90.4371 55.228 89.9763C54.9394 89.7019 54.7292 89.3779 54.614 89.0312L61.2118 82.8369C61.3161 83.1417 61.4781 83.4296 61.6868 83.6834C61.7264 83.7302 61.7689 83.7727 61.8128 83.8124L56.9534 90.7299ZM84.1851 83.8131C84.2297 83.7727 84.2708 83.7302 84.3104 83.6834C84.5205 83.4303 84.6818 83.1431 84.7876 82.8369L91.3853 89.0312C91.2716 89.3772 91.0622 89.7012 90.7742 89.9756C90.2984 90.4371 89.6722 90.7094 89.0438 90.7299L84.1851 83.8131ZM85.7852 92.7193C85.6643 92.7193 85.5456 92.7101 85.4304 92.6924L81.809 84.7468C81.8054 84.7412 81.8026 84.7348 81.8004 84.7298C81.8018 84.7192 81.8033 84.7093 81.8054 84.6986C81.8976 84.7079 81.9854 84.7121 82.0718 84.7121C82.4777 84.7121 82.8909 84.6192 83.2789 84.4434L88.1225 91.3368C87.9533 91.6693 87.687 91.9707 87.3451 92.2138C86.883 92.54 86.3287 92.7193 85.7852 92.7193ZM60.212 92.72C59.6707 92.72 59.1179 92.54 58.6543 92.2138C58.3131 91.9707 58.0468 91.67 57.8776 91.3368L62.7198 84.4441C63.1085 84.6199 63.5209 84.7121 63.9254 84.7121C64.0176 84.7121 64.1061 84.7086 64.1925 84.7008C64.1947 84.7114 64.1961 84.7227 64.1975 84.7334C64.1939 84.7433 60.5719 92.6924 60.5719 92.6924C60.4553 92.7101 60.3343 92.72 60.212 92.72ZM63.3928 94.2018C63.0768 94.2018 62.7529 94.1373 62.4549 94.0139C62.059 93.8516 61.7315 93.5949 61.522 93.2844L64.8144 86.0563C64.8785 86.1322 64.944 86.201 65.0109 86.2641C65.2391 86.481 65.5033 86.6561 65.7977 86.7852L64.2278 94.0345C63.9809 94.1444 63.6944 94.2018 63.3928 94.2018ZM82.6059 94.2018C82.305 94.2018 82.0178 94.1444 81.7702 94.0345L80.201 86.7845C80.5011 86.6519 80.7653 86.4768 80.9899 86.2619C81.0568 86.1995 81.1209 86.1322 81.1828 86.0585L84.4788 93.2844C84.2686 93.5949 83.9418 93.8516 83.5474 94.0139C83.2472 94.1373 82.9211 94.2018 82.6059 94.2018ZM66.8968 94.6882C66.832 94.6882 66.7658 94.686 66.6989 94.6804C66.1561 94.6385 65.676 94.4202 65.3636 94.0777L66.8882 87.034C66.9227 87.0361 66.9558 87.0376 66.9897 87.0376C67.4532 87.0376 67.9254 86.9213 68.3559 86.7065L68.0039 94.4244C67.6785 94.5953 67.2898 94.6882 66.8968 94.6882ZM79.1011 94.6882C78.7031 94.6882 78.323 94.5974 77.9948 94.4244L77.6414 86.7079C78.0718 86.9241 78.5361 87.0376 79.0076 87.0376C79.0421 87.0376 79.0774 87.0361 79.1119 87.0326L80.6365 94.082C80.3248 94.4216 79.8432 94.6385 79.2991 94.6804C79.2321 94.686 79.1666 94.6882 79.1011 94.6882ZM72.3493 108L72.3047 105.477C72.2997 105.29 72.1931 105.115 72.0254 105.019C71.3884 104.672 71.0098 104.061 71.0098 103.384C71.0098 102.724 71.3668 102.12 71.9657 101.769C72.1377 101.67 72.2414 101.489 72.2363 101.298C72.16 97.0399 72.0744 93.6594 71.9045 91.0057C71.8102 89.5126 71.6965 88.3648 71.5576 87.4949C71.3841 86.4796 71.2336 85.8926 70.8975 85.4969C70.5081 85.0659 70.0625 84.8411 69.6047 84.8411C68.9821 84.8525 68.561 85.219 68.3098 85.4374C67.929 85.7805 67.4669 85.9592 66.9897 85.9592C66.5383 85.9592 66.1122 85.7926 65.7897 85.4899C65.4586 85.18 65.2765 84.7617 65.2765 84.3108C65.2765 84.2406 65.2816 84.1704 65.2895 84.0995C65.3147 83.9088 65.2333 83.7181 65.0771 83.6061C64.9771 83.5345 64.8547 83.4948 64.7331 83.4948C64.6661 83.4948 64.6013 83.5061 64.5402 83.5288C64.3365 83.5976 64.127 83.633 63.9254 83.633C63.3849 83.6288 62.886 83.4012 62.5585 83.007C62.3124 82.7114 62.1828 82.3547 62.1828 81.9769C62.1828 81.6961 62.2569 81.4196 62.3987 81.1764C62.493 81.0063 62.4909 80.8077 62.3951 80.6411C62.2994 80.4774 62.118 80.3739 61.9222 80.3717C61.2902 80.3505 60.7158 80.0116 60.4286 79.4862C60.2983 79.2515 60.2336 78.997 60.2336 78.729C60.2336 78.3008 60.4135 77.8768 60.7281 77.567C60.8619 77.4323 60.9174 77.248 60.8778 77.0728C60.8332 76.8935 60.7093 76.7552 60.5366 76.6872C59.8578 76.4291 59.4223 75.8229 59.4252 75.1423C59.4259 74.5815 59.7218 74.0639 60.2156 73.7506C60.3826 73.647 60.4826 73.4606 60.4704 73.2755C60.4653 73.094 60.3559 72.9182 60.1832 72.8268C59.616 72.5226 59.2769 71.9802 59.2769 71.3762C59.2805 70.8338 59.5505 70.3425 60.0191 70.0256C60.1501 69.9426 60.2415 69.7916 60.2566 69.6271C60.2681 69.4655 60.2062 69.3095 60.086 69.1954C59.7462 68.8806 59.5519 68.4438 59.5519 67.9965C59.5548 67.7384 59.6145 67.4952 59.7297 67.2754C60.0248 66.7068 60.6302 66.3545 61.3104 66.3545C61.5163 66.3545 61.7056 66.2424 61.8042 66.0631C61.9042 65.8738 61.8848 65.6512 61.7574 65.4916C61.5458 65.2052 61.427 64.8564 61.427 64.5147C61.427 64.2637 61.486 64.0205 61.6048 63.7922C61.8574 63.3058 62.3455 62.967 62.9105 62.8861C63.0581 62.8649 63.1934 62.7847 63.2812 62.6663C63.3683 62.5494 63.4029 62.4076 63.3791 62.2672C63.341 62.0049 63.1099 61.8106 62.8306 61.8106C62.8011 61.8106 62.7709 61.8127 62.7406 61.8184C62.6298 61.834 62.5139 61.8581 62.3951 61.8907L57.8438 50.3202C58.0036 49.5304 58.5492 48.8015 59.3129 48.362C59.793 48.0869 60.3199 47.9401 60.8353 47.9401C61.2888 47.9401 61.7135 48.0528 62.0691 48.2662L62.1857 48.9731C62.922 53.4446 64.646 63.9163 65.0059 65.5427C65.0599 65.7759 65.0865 65.9808 65.0865 66.1538C65.0843 66.5778 64.9281 66.8217 64.5855 67.357L64.4898 67.508C63.9981 68.2829 63.472 69.2322 62.9451 70.916C62.6521 71.8554 62.5024 72.8941 62.5024 74.003C62.5139 77.6762 64.0421 81.1686 66.3066 82.6936C67.2106 83.2913 68.0125 83.582 68.7604 83.582C69.6047 83.582 70.3396 83.1658 70.7902 82.4405C71.1984 81.7925 71.4057 80.9247 71.4057 79.8641C71.4057 79.7592 71.405 79.6571 71.4006 79.5479C71.374 78.8467 71.3646 77.8761 71.3553 76.7517C71.3445 75.6187 71.333 74.334 71.2999 73.1054C71.2336 71.0245 71.1379 68.9047 70.7643 67.7987L70.7672 67.7816L70.7283 67.6824C70.7103 67.637 70.688 67.5845 70.6621 67.5321V67.4988L70.6362 67.4718C70.2122 66.6941 69.3917 66.1198 68.1306 65.7199C68.1162 65.5094 68.109 65.2988 68.109 65.0925C68.109 64.6267 68.1442 64.1354 68.2141 63.6334C69.1152 62.6323 70.9731 61.9879 72.9734 61.9879H73.0288C74.2259 61.9879 75.4114 62.2282 76.3695 62.6642C76.4184 62.6961 76.4746 62.7209 76.5379 62.738C77.0526 62.9896 77.4808 63.2966 77.7817 63.6291C77.8523 64.1198 77.8897 64.6231 77.8897 65.0896C77.8897 65.2832 77.8811 65.4952 77.8652 65.7199C76.6041 66.1212 75.7843 66.6962 75.3617 67.4754L75.3502 67.4966L75.343 67.5207C75.3214 67.5569 75.2912 67.6257 75.2602 67.7015C75.2494 67.7285 75.243 67.7582 75.2394 67.7902C74.8946 68.7685 74.7765 70.5523 74.6988 73.1047C74.6642 74.3369 74.6542 75.6237 74.6441 76.7588C74.634 77.8804 74.6261 78.8495 74.5995 79.5514C74.5951 79.6549 74.5915 79.7592 74.5915 79.8591C74.5915 80.9247 74.7996 81.7932 75.2099 82.4419C75.6597 83.1658 76.3968 83.582 77.2296 83.582C77.9825 83.5792 78.8046 83.2807 79.687 82.6943C81.9559 81.1679 83.4855 77.6755 83.4934 74.003C83.4934 72.8969 83.3451 71.8583 83.0521 70.9168C82.5339 69.2528 82.0034 68.2949 81.506 67.508L81.4009 67.3421C81.0648 66.8146 80.9122 66.5735 80.9122 66.1538C80.9122 65.9922 80.9374 65.7922 80.9899 65.5434C81.3707 63.8326 83.2832 52.1876 83.9116 48.3612L83.9281 48.2662C84.283 48.0528 84.7077 47.9401 85.1612 47.9401C85.678 47.9401 86.2042 48.0869 86.6828 48.362C87.4444 48.7973 87.9922 49.5254 88.1577 50.3194L83.6028 61.8907C83.4855 61.8581 83.3703 61.8333 83.2558 61.8163C83.2278 61.812 83.199 61.8092 83.1702 61.8092C82.8916 61.8092 82.6591 62.0042 82.6174 62.2707C82.5958 62.4111 82.6339 62.5579 82.7218 62.6727C82.8124 62.7904 82.9442 62.8656 83.0939 62.884C83.6525 62.967 84.1405 63.3066 84.3946 63.7929C84.5119 64.0198 84.5717 64.2616 84.5717 64.5118C84.5717 64.8564 84.4529 65.2052 84.2355 65.4923L84.1909 65.5519V65.5881C84.1441 65.7036 84.1247 65.793 84.1304 65.8674L84.1218 65.8794L84.1585 65.9844C84.2261 66.1772 84.4003 66.3162 84.6148 66.3488L84.6811 66.3545C84.6868 66.3545 84.712 66.3538 84.748 66.3502C85.3829 66.363 85.9753 66.7168 86.2639 67.2747C86.3848 67.4973 86.4453 67.7384 86.4453 67.995C86.4453 68.4438 86.2502 68.8791 85.9119 69.189C85.7888 69.3024 85.7284 69.4619 85.7435 69.6271C85.7529 69.7824 85.8385 69.9291 85.9782 70.0242C86.4396 70.3368 86.7095 70.8175 86.7217 71.3457L86.721 71.3762C86.721 71.971 86.3755 72.5254 85.8184 72.8246C85.6463 72.9104 85.5333 73.0862 85.5283 73.2805C85.5189 73.4677 85.6168 73.6506 85.7852 73.7527C86.274 74.059 86.5698 74.5765 86.5734 75.1352V75.1416C86.5734 75.825 86.1387 76.4312 85.4642 76.685C85.2828 76.7588 85.1597 76.8998 85.1216 77.0743C85.0827 77.2472 85.1367 77.4309 85.2677 77.5642C85.5887 77.8804 85.7637 78.293 85.7637 78.729C85.7637 78.9984 85.6996 79.253 85.5729 79.4869C85.285 80.0066 84.7091 80.3462 84.0692 80.3717C83.8828 80.3739 83.7028 80.4767 83.6057 80.6383C83.5071 80.8063 83.5042 81.0056 83.5978 81.1729C83.7417 81.4161 83.8159 81.6926 83.8159 81.9769C83.8159 82.354 83.6863 82.7092 83.4401 83.0056C83.109 83.4012 82.6102 83.6281 82.0718 83.6281C81.8609 83.6281 81.6514 83.5948 81.4499 83.526C81.3966 83.5061 81.3304 83.4941 81.2627 83.4941C81.1403 83.4941 81.0194 83.5345 80.9222 83.6089C80.7696 83.7174 80.6854 83.906 80.7063 84.0953C80.7171 84.1719 80.7207 84.2428 80.7207 84.3108C80.7207 84.7646 80.5393 85.1836 80.2096 85.4884C79.885 85.7926 79.4589 85.9592 79.0076 85.9592C78.5303 85.9592 78.0682 85.7805 77.7076 85.4551C77.4319 85.2155 77.0115 84.8496 76.3954 84.8419C75.9347 84.8411 75.4891 85.0659 75.1048 85.4913C74.7643 85.8933 74.6095 86.5037 74.4425 87.492C73.9948 90.2904 73.8617 95.8438 73.763 101.292C73.7609 101.489 73.8617 101.666 74.033 101.767C74.639 102.118 74.9997 102.722 74.9997 103.384C74.9997 104.057 74.6103 104.684 73.9833 105.022C73.8077 105.116 73.6975 105.295 73.6954 105.486L73.6536 108H72.3493Z" fill="white"/>
<defs>
<filter id="filter0_ddi" x="0" y="0" width="144" height="144" filterUnits="userSpaceOnUse" color-interpolation-filters="sRGB">
<feFlood flood-opacity="0" result="BackgroundImageFix"/>
<feColorMatrix in="SourceAlpha" type="matrix" values="0 0 0 0 0 0 0 0 0 0 0 0 0 0 0 0 0 0 127 0"/>
<feOffset dx="4" dy="4"/>
<feGaussianBlur stdDeviation="5"/>
<feColorMatrix type="matrix" values="0 0 0 0 0.764706 0 0 0 0 0.815686 0 0 0 0 0.894118 0 0 0 1 0"/>
<feBlend mode="normal" in2="BackgroundImageFix" result="effect1_dropShadow"/>
<feColorMatrix in="SourceAlpha" type="matrix" values="0 0 0 0 0 0 0 0 0 0 0 0 0 0 0 0 0 0 127 0"/>
<feOffset dx="-4" dy="-4"/>
<feGaussianBlur stdDeviation="5"/>
<feColorMatrix type="matrix" values="0 0 0 0 1 0 0 0 0 1 0 0 0 0 1 0 0 0 1 0"/>
<feBlend mode="normal" in2="effect1_dropShadow" result="effect2_dropShadow"/>
<feBlend mode="normal" in="SourceGraphic" in2="effect2_dropShadow" result="shape"/>
<feColorMatrix in="SourceAlpha" type="matrix" values="0 0 0 0 0 0 0 0 0 0 0 0 0 0 0 0 0 0 127 0" result="hardAlpha"/>
<feOffset dx="2" dy="2"/>
<feGaussianBlur stdDeviation="5"/>
<feComposite in2="hardAlpha" operator="arithmetic" k2="-1" k3="1"/>
<feColorMatrix type="matrix" values="0 0 0 0 0.85098 0 0 0 0 0.882353 0 0 0 0 0.937255 0 0 0 0.1 0"/>
<feBlend mode="normal" in2="shape" result="effect3_innerShadow"/>
</filter>
</defs>
</svg>
