<svg width="144" height="144" viewBox="0 0 144 144" fill="none" xmlns="http://www.w3.org/2000/svg">
<g filter="url(#filter0_ddi)">
<circle cx="72" cy="72" r="58" fill="#F6F8FC"/>
</g>
<circle cx="72" cy="72" r="45" fill="#4B5773"/>
<path d="M73.2042 54.5676C72.9572 50.2407 70.5083 48.233 70.3979 48.1462C70.0849 47.9134 69.6384 47.9639 69.3887 48.2603C69.1391 48.5568 69.1764 48.9923 69.473 49.2445C69.5623 49.316 71.5173 50.9508 71.7485 54.5676C62.3899 54.9664 55.0107 62.4525 55 71.5584C55 71.9506 55.327 72.2685 55.7305 72.2685H57.985V77.6171C57.9693 84.2382 62.6968 89.9773 69.3468 91.41C69.6199 92.8984 70.9448 93.9866 72.5 94C74.0667 93.9765 75.4042 92.8935 75.711 91.3998C82.3319 89.9418 87.0279 84.2162 87.015 77.6171V72.2685H89.2695C89.673 72.2685 90 71.9506 90 71.5584C89.9882 62.4354 82.5814 54.9426 73.2042 54.5676ZM85.9429 63.0579L83.5098 65.4282L79.0375 61.0809L81.5128 58.6697C83.2709 59.8362 84.7762 61.3272 85.9429 63.0579ZM72.5 67.4307L76.021 70.8483H68.9842L72.5 67.4307ZM66.9977 70.7768L62.5255 66.4295L66.9977 62.0822L71.47 66.4295L66.9977 70.7768ZM73.53 66.4295L78.0023 62.0822L82.4745 66.4295L78.0023 70.7768L73.53 66.4295ZM80.2252 57.9085L77.9917 60.0745L73.8243 56.0235C76.071 56.2053 78.2525 56.8478 80.2252 57.9085ZM72.5 56.7336L76.9722 61.0809L72.5 65.4282L68.0278 61.0809L72.5 56.7336ZM71.1652 56.0235L66.9977 60.0745L64.7643 57.9085C66.737 56.8478 68.9185 56.2053 71.1652 56.0235ZM63.4872 58.6697L65.9625 61.0809L61.4955 65.4282L59.0571 63.0579C60.2238 61.3272 61.7291 59.8362 63.4872 58.6697ZM58.295 64.335L60.4602 66.4397L56.5188 70.2711C56.6913 68.1959 57.2956 66.1764 58.295 64.335ZM57.9745 70.8483L61.4955 67.4307L65.0113 70.8483H57.9745ZM85.5541 77.6171C85.5555 83.7241 81.0817 88.966 74.9069 90.092C74.5602 90.1515 74.3075 90.4445 74.3078 90.7868C74.2859 91.7509 73.4916 92.5298 72.5 92.5594C71.5284 92.5209 70.7621 91.7422 70.7658 90.797C70.766 90.4547 70.5134 90.1617 70.1667 90.1022C63.9576 89.0078 59.4438 83.7512 59.4459 77.6171V72.2685H85.5541V77.6171ZM79.994 70.8483L83.5098 67.4307L87.0255 70.8483H79.994ZM84.5398 66.4295L86.705 64.335C87.703 66.1733 88.3073 68.1892 88.4812 70.2609L84.5398 66.4295Z" fill="white" stroke="white"/>
<defs>
<filter id="filter0_ddi" x="0" y="0" width="144" height="144" filterUnits="userSpaceOnUse" color-interpolation-filters="sRGB">
<feFlood flood-opacity="0" result="BackgroundImageFix"/>
<feColorMatrix in="SourceAlpha" type="matrix" values="0 0 0 0 0 0 0 0 0 0 0 0 0 0 0 0 0 0 127 0"/>
<feOffset dx="4" dy="4"/>
<feGaussianBlur stdDeviation="5"/>
<feColorMatrix type="matrix" values="0 0 0 0 0.764706 0 0 0 0 0.815686 0 0 0 0 0.894118 0 0 0 1 0"/>
<feBlend mode="normal" in2="BackgroundImageFix" result="effect1_dropShadow"/>
<feColorMatrix in="SourceAlpha" type="matrix" values="0 0 0 0 0 0 0 0 0 0 0 0 0 0 0 0 0 0 127 0"/>
<feOffset dx="-4" dy="-4"/>
<feGaussianBlur stdDeviation="5"/>
<feColorMatrix type="matrix" values="0 0 0 0 1 0 0 0 0 1 0 0 0 0 1 0 0 0 1 0"/>
<feBlend mode="normal" in2="effect1_dropShadow" result="effect2_dropShadow"/>
<feBlend mode="normal" in="SourceGraphic" in2="effect2_dropShadow" result="shape"/>
<feColorMatrix in="SourceAlpha" type="matrix" values="0 0 0 0 0 0 0 0 0 0 0 0 0 0 0 0 0 0 127 0" result="hardAlpha"/>
<feOffset dx="2" dy="2"/>
<feGaussianBlur stdDeviation="5"/>
<feComposite in2="hardAlpha" operator="arithmetic" k2="-1" k3="1"/>
<feColorMatrix type="matrix" values="0 0 0 0 0.85098 0 0 0 0 0.882353 0 0 0 0 0.937255 0 0 0 0.1 0"/>
<feBlend mode="normal" in2="shape" result="effect3_innerShadow"/>
</filter>
</defs>
</svg>
