<svg width="432" height="421" viewBox="0 0 432 421" fill="none" xmlns="http://www.w3.org/2000/svg">
<path fill-rule="evenodd" clip-rule="evenodd" d="M210.411 143.434C250.623 143.434 283.238 111.332 283.238 71.7169C283.238 32.1018 250.623 0 210.411 0C170.198 0 137.584 32.1018 137.584 71.7169C137.584 111.332 170.198 143.434 210.411 143.434ZM210.411 123.285C239.354 123.285 262.832 100.147 262.832 71.7169C262.832 43.2009 239.354 20.149 210.411 20.149C181.468 20.149 157.989 43.2863 157.989 71.7169C158.075 100.147 181.468 123.285 210.411 123.285Z" fill="#5C9EFF"/>
<path opacity="0.8" d="M354.532 212.47C356.441 207.624 341.316 205.194 341.072 199.132C340.797 193.143 347.07 194.068 344.147 190.955C341.225 187.842 345.746 183.927 350.557 180.752C355.368 177.577 358.914 164.061 361.907 155.709C371.061 130.107 386.422 131.54 387.405 147.581C387.872 155.225 381.741 157.254 382.92 163.765C384.107 170.195 391.877 179.732 391.748 191.089C391.668 198.419 385.709 203.949 379.142 207.509C375.958 209.177 375.445 213.935 378.21 216.055C380.766 218.114 382.573 220.589 382.171 223.034C381.235 228.486 376.523 235.524 371.883 238.912C366.744 242.679 359.922 244.052 357.156 241.623C342.296 228.568 352.506 217.098 354.532 212.47Z" fill="url(#paint0_linear)"/>
<path d="M375.638 267.929C378.487 262.913 371.257 252.535 370.776 250.258C370.279 247.417 385.153 245.52 390.67 242.578C399.341 238.007 397.128 228.59 393.831 220.647C391.077 213.919 404.842 216.401 407.646 208.5C410.45 200.599 403.681 196.495 405.837 192.045C409.18 185.104 420.417 168.769 399.744 173.223C380.475 177.365 380.966 197.923 371.584 202.368C367.436 204.347 354.821 196.138 349.819 202.411C344.176 209.604 356.132 223.414 354.191 228.724C353.393 231.041 340.623 226.613 337.513 232.522C333.562 240.043 343.391 251.675 348.15 259.054C352.313 265.395 355.457 273.229 356.492 279.408C361.341 277.485 372.228 273.952 375.638 267.929Z" fill="#B5F3D8"/>
<path d="M357.912 276.46C357.585 276.435 357.412 276.278 357.474 276.079C357.455 275.588 358.803 226.402 398.375 186.049C398.522 185.864 398.763 185.874 398.937 186.031C399.171 186.19 399.194 186.404 399.041 186.535C359.592 226.692 358.315 275.658 358.273 276.145C358.297 276.359 358.144 276.491 357.912 276.46C357.817 276.466 357.817 276.466 357.912 276.46Z" fill="white"/>
<path d="M366.574 235.912C366.49 235.695 366.612 235.498 366.853 235.509C378.598 235.253 387.377 227.665 387.467 227.605C387.62 227.473 387.851 227.504 388.025 227.661C388.198 227.817 388.197 228.02 388.044 228.151C387.979 228.223 379.027 235.985 366.981 236.227C366.775 236.208 366.602 236.051 366.574 235.912Z" fill="white"/>
<path d="M369.19 229.673C369.098 229.605 361.312 222.191 362.51 212.911C362.572 212.712 362.721 212.654 362.962 212.665C363.2 212.75 363.288 212.892 363.312 213.106C362.148 222.046 369.708 229.153 369.765 229.23C369.938 229.387 369.936 229.589 369.783 229.72C369.779 229.795 369.634 229.778 369.548 229.763C369.427 229.758 369.336 229.69 369.19 229.673Z" fill="white"/>
<path d="M360.819 255.474C360.734 255.46 353.141 249.682 351.07 240.356C350.986 240.139 351.108 239.942 351.349 239.953C351.584 239.91 351.828 240.048 351.852 240.262C353.868 249.309 361.17 254.851 361.252 254.94C361.425 255.096 361.509 255.313 361.356 255.444C361.292 255.516 361.117 255.562 361.057 255.559C360.996 255.556 360.901 255.563 360.819 255.474Z" fill="white"/>
<path d="M381.848 207.228C381.61 207.144 381.523 207.001 381.499 206.788C381.561 206.588 381.71 206.531 381.951 206.541C382.043 206.609 390.027 208.361 395.817 203.569C395.971 203.437 396.202 203.468 396.376 203.625C396.549 203.781 396.548 203.983 396.394 204.115C392.182 207.56 386.853 207.776 384.007 207.546C382.735 207.437 381.848 207.228 381.848 207.228Z" fill="white"/>
<path d="M359.475 263.013C359.234 263.003 359.06 262.846 359.037 262.633C359.013 262.419 359.166 262.287 359.407 262.298C364.926 262.931 369.935 258.233 370.025 258.173C370.178 258.041 370.41 258.073 370.583 258.229C370.756 258.386 370.755 258.588 370.602 258.719C370.384 258.923 365.519 263.51 359.767 263.047C359.716 263.024 359.57 263.007 359.475 263.013Z" fill="white"/>
<path d="M227.834 48.0941C228.021 44.3686 231.096 41.4436 234.826 41.4436H358.573C366.008 41.4436 371.928 47.6674 371.557 55.0928L359.966 286.92C359.779 290.646 356.705 293.571 352.974 293.571H222.919C218.916 293.571 215.728 290.219 215.928 286.221L227.834 48.0941Z" fill="#151F36"/>
<path d="M220.445 51.8943C220.738 46.04 225.57 41.4436 231.431 41.4436H357.682C361.685 41.4436 364.873 44.7949 364.673 48.7932L352.766 286.92C352.58 290.646 349.505 293.571 345.775 293.571H215.72C211.717 293.571 208.529 290.219 208.729 286.221L220.445 51.8943Z" fill="#C1C8D5"/>
<path d="M0 420.043H148.994L355.199 293.571H208.36L0 420.043Z" fill="url(#paint1_linear)"/>
<path d="M231.049 61.5333C231.235 57.8077 234.31 54.8826 238.04 54.8826H344.317C348.32 54.8826 351.508 58.2336 351.308 62.2318L341.808 252.405C341.622 256.131 338.547 259.056 334.817 259.056H228.54C224.537 259.056 221.349 255.705 221.549 251.707L231.049 61.5333Z" fill="#9CA7BA"/>
<path d="M232.08 62.4179C232.266 58.6917 235.341 55.7656 239.072 55.7656H344.32C348.323 55.7656 351.51 59.1158 351.311 63.1134L341.896 252.404C341.71 256.13 338.635 259.056 334.904 259.056H229.656C225.653 259.056 222.465 255.706 222.664 251.708L232.08 62.4179Z" fill="white"/>
<path d="M229.393 209.713C229.578 205.987 232.653 203.061 236.384 203.061H332.193C336.195 203.061 339.383 206.411 339.184 210.409L337.575 242.765C337.389 246.491 334.314 249.417 330.583 249.417H234.775C230.772 249.417 227.585 246.067 227.783 242.069L229.393 209.713Z" fill="url(#paint2_linear)"/>
<path d="M229.359 209.713C229.544 205.987 232.619 203.061 236.35 203.061H332.189C336.191 203.061 339.379 206.411 339.18 210.409L339.036 213.311H229.18L229.359 209.713Z" fill="#CED7E8"/>
<path d="M267.238 117.419C267.423 113.693 270.498 110.767 274.229 110.767H371.798C375.8 110.767 378.988 114.117 378.789 118.115L375.831 177.585C375.645 181.311 372.57 184.237 368.839 184.237H271.271C267.268 184.237 264.081 180.887 264.28 176.89L267.238 117.419Z" fill="url(#paint3_linear)"/>
<path d="M240.351 74.0707C240.536 70.3445 243.612 67.4185 247.342 67.4185H291.277C295.279 67.4185 298.467 70.7686 298.268 74.7662L295.31 134.236C295.125 137.963 292.049 140.889 288.319 140.889H244.384C240.382 140.889 237.194 137.539 237.393 133.541L240.351 74.0707Z" fill="url(#paint4_linear)"/>
<path d="M267.227 117.419C267.412 113.693 270.487 110.767 274.218 110.767H371.799C375.801 110.767 378.989 114.117 378.79 118.115L378.577 122.405H266.979L267.227 117.419Z" fill="#CED7E8"/>
<path d="M277.843 48.5079C277.9 47.9665 278.357 47.5557 278.901 47.5557H303.286C303.918 47.5557 304.411 48.1032 304.344 48.7317C304.287 49.2731 303.831 49.6839 303.286 49.6839H278.901C278.269 49.6839 277.777 49.1364 277.843 48.5079Z" fill="#8592AC"/>
<path fill-rule="evenodd" clip-rule="evenodd" d="M319.331 255.449C318.453 251.996 316.931 247.235 315.455 244.53C313.172 240.43 310.294 239.599 308.454 240.582C306.642 241.567 305.588 244.575 307.473 248.225C309.02 251.315 312.279 255.748 319.084 259.799C318.924 263.137 318.887 266.068 318.895 268.397C317.304 264.1 314.184 258.767 309.678 254.789C306.613 252.034 301.431 251.268 299.257 253.282C298.158 254.261 296.955 256.772 301.082 262.328C303.655 265.917 310.396 272.021 318.914 272.152C318.936 273.194 318.972 273.8 318.971 273.827L319.8 273.827C319.801 273.8 319.759 273.165 319.737 272.123C320.121 272.108 320.754 272.046 321.579 271.935C323.809 271.622 327.557 270.945 331.334 269.365C338.197 266.375 342.236 262.556 342.179 259.156C342.147 258.415 341.647 257.769 340.842 257.223C338.799 255.953 334.646 255.548 330.727 257.315C326.669 259.133 322.842 263.178 319.673 268.943C319.664 266.613 319.704 263.6 319.869 260.125C319.897 260.098 320.064 260.021 320.343 259.866C322.154 258.909 328.816 255.337 333.945 250.84C335.976 249.013 336.051 246.631 335.522 245.162C334.993 243.693 333.791 242.696 332.395 242.652C328.756 242.455 323.007 250.112 320.068 256.404C320.234 253.751 320.46 250.908 320.8 247.959C323.112 244.168 324.48 241.608 327.055 236.427C328.722 233.109 328.911 229.717 327.447 227.479C326.61 226.192 325.289 225.492 323.919 225.504C322.793 225.578 321.652 226.145 320.715 227.157C318.955 229.102 317.946 232.441 318.165 235.901C318.424 241.609 319.703 247.103 319.896 247.958C319.921 248.014 319.92 248.069 319.92 248.069L319.943 248.179C319.699 250.72 319.485 253.152 319.331 255.449Z" fill="#151F36"/>
<path d="M368.316 284.04C361.153 283.615 363.276 273.225 357.586 269.375C349.234 263.713 342.722 267.45 338.334 272.489C336.097 275.037 331.737 277.33 328.793 275.688C322.961 272.432 317.129 272.319 313.194 275.688C307.673 280.416 308.607 288.428 299.463 288.428C290.318 288.428 286.893 291.741 286.893 293.581H382.896C382.896 293.609 384.679 285.003 368.316 284.04Z" fill="#151F36"/>
<path d="M235.671 348.913L159.363 394.887H90.7793L236.236 334.971L235.671 348.913Z" fill="url(#paint5_linear)"/>
<path d="M158.99 331.955L90.4067 394.886H15.5214L138.264 328.563L158.99 331.955Z" fill="url(#paint6_linear)"/>
<path d="M178.031 251.392C178.922 252.107 174.89 252.567 166.311 250.881C157.732 249.195 156.935 248.582 157.122 248.071C157.357 247.56 160.123 246.18 167.577 247.918C175.031 249.655 177.093 250.677 178.031 251.392Z" fill="#B5F3D8"/>
<path d="M122.943 136.339C120.311 140.567 118.556 144.289 116.339 147.368C113.891 150.769 108.95 154.124 105.948 160.007C100.591 170.485 93.8478 187.995 92.3699 191.947C92.2875 192.193 92.253 192.318 92.139 192.545C92.139 192.545 86.874 202.701 86.9202 204.723C86.9664 206.745 87.2897 212.582 88.2134 214.053C89.137 215.523 93.7092 220.303 94.4943 220.349C95.3256 220.395 95.5104 219.384 96.0646 218.143C96.7111 217.637 96.9882 216.81 96.8497 215.477C96.7111 214.144 94.1249 210.836 94.402 209.641C94.6791 208.446 96.0646 204.218 96.0646 204.218L97.1268 204.585C97.1268 204.585 96.434 209.181 96.9421 210.882C97.4501 212.582 99.4822 211.847 99.5283 211.249C99.5745 210.652 100.36 207.297 100.729 206.148C101.099 204.999 102.53 201.093 101.884 199.484C101.039 197.384 100.236 194.779 99.7131 192.958C99.1127 191.028 119.48 167.084 120.588 164.694C121.696 162.305 123.451 157.893 125.16 155.549C126.869 153.205 130.748 146.725 133.797 141.991C136.845 137.258 125.576 132.111 122.943 136.339Z" fill="#151F36"/>
<path d="M138.229 254.542C138.229 254.542 149.406 316.079 149.637 317.687C149.821 319.296 145.757 324.581 142.94 325.592C140.077 326.603 133.38 331.061 134.996 332.669C136.428 334.094 149.406 333.956 156.056 332.21C157.534 331.796 158.458 330.417 158.273 328.901C156.98 320.077 157.026 319.617 157.58 315.895C158.181 311.851 160.213 292.824 159.427 285.931C158.596 279.037 153.932 269.937 153.932 269.937L154.347 253.76L138.229 254.542Z" fill="#151F36"/>
<path fill-rule="evenodd" clip-rule="evenodd" d="M138.345 255.175C138.269 254.761 138.229 254.54 138.229 254.54L150.016 253.969L138.345 255.175ZM147.453 321.814C146.102 323.48 144.362 325.08 142.94 325.59C140.077 326.601 133.38 331.059 134.996 332.668C135.02 332.691 135.046 332.714 135.075 332.736C135.709 330.708 140.515 327.249 142.833 326.286C144.347 325.647 146.165 323.702 147.453 321.814ZM158.066 327.476C156.987 320.013 157.057 319.405 157.58 315.893C158.181 311.849 160.213 292.823 159.427 285.929C158.977 282.191 157.399 277.805 156.049 274.572C154.759 271.484 153.977 268.183 154.063 264.838L154.347 253.759L150.306 253.955L150.67 266.546C150.737 268.888 151.403 271.17 152.462 273.259C154.078 276.447 156.378 281.506 157.133 285.784C158.293 292.625 157.301 311.734 156.923 315.805C156.59 319.36 156.554 319.957 158.066 327.476Z" fill="#8592AC"/>
<path d="M157.445 247.785C158.23 250.175 158.831 252.105 159.293 253.208C160.724 257.022 160.309 263.916 161.648 267.96C166.266 282.115 170.7 295.673 170.885 296.408C171.3 297.97 169.361 306.84 168.576 310.379C167.883 313.32 170.7 319.938 172.547 321.317C174.395 322.695 181.276 314.929 181.692 310.103C182.107 305.232 177.674 298.2 177.72 294.11C177.766 290.02 181.784 270.35 180.075 263.64C178.32 256.931 172.824 249.026 172.824 249.026C172.824 249.026 161.14 245.671 157.445 247.785Z" fill="#8592AC"/>
<path d="M134.116 204.723C134.116 204.723 131.53 232.574 134.301 257.345C135.409 258.907 156.1 259.642 156.33 257.069C156.561 254.495 156.7 248.842 156.7 248.842C156.561 245.35 171.617 247.785 177.852 250.865C182.932 238.318 189.028 220.487 188.613 214.65C188.197 208.768 185.38 199.071 185.38 199.071C185.38 199.071 134.532 192.591 134.116 204.723Z" fill="white" stroke="#B5F3D8" stroke-miterlimit="10"/>
<path d="M134.904 144.243C131.856 143.599 122.296 139.142 119.063 133.581C118.832 133.167 118.925 132.616 119.294 132.294C122.204 129.674 134.766 118.461 137.583 115.703C140.77 112.578 145.85 111.705 148.667 112.302C151.53 112.854 152.223 119.748 147.974 126.457C143.864 133.029 137.537 141.715 135.967 143.829C135.689 144.197 135.274 144.335 134.904 144.243Z" fill="#2C80FC"/>
<path d="M225.24 282.437C225.24 282.437 224.732 299.074 225.702 301.831C226.672 304.589 226.118 310.15 226.949 314.929C227.781 319.709 231.244 334.921 231.244 334.921H235.539C235.539 334.921 235.539 313.091 236.232 308.771C236.925 304.451 238.911 285.654 238.911 285.654C238.911 285.654 228.15 281.518 225.24 282.437Z" fill="#8592AC"/>
<path d="M226.863 340.757C228.156 337.724 228.803 336.437 229.634 334.277C230.373 332.439 231.297 329.911 230.881 327.568C230.789 326.97 231.251 326.465 231.851 326.511C233.745 326.602 235.915 325.316 237.162 324.213C237.624 323.799 238.317 323.983 238.594 324.488C239.795 326.878 241.781 331.29 242.289 332.761C243.074 336.116 241.088 340.436 239.379 342.366C237.855 344.756 230.466 344.664 228.988 344.204C227.51 343.836 226.863 340.757 226.863 340.757Z" fill="#C1C8D5"/>
<path d="M254.203 254.128C254.804 255.552 256.051 257.896 258.175 259.918C261.269 262.906 268.89 269.937 269.675 270.764C270.46 271.637 272.769 275.038 274.201 275.222C275.633 275.406 276.926 275.268 277.526 274.763C278.034 274.349 277.988 273.889 277.388 273.797C276.787 273.706 274.894 273.889 274.663 273.246C274.432 272.603 274.801 272.051 274.801 271.546C274.847 271.086 277.711 272.327 278.496 273.338C279.281 274.349 279.651 275.728 280.02 275.682C280.389 275.636 281.683 274.303 281.821 273.797C281.96 273.292 279.881 267.777 278.588 267.363C275.171 266.169 272.631 267.869 271.845 267.134C271.014 266.398 263.994 256.793 261.685 253.346C261.177 252.565 253.972 237.307 252.171 234.274C249.031 228.989 246.26 236.296 247.507 239.651C247.414 239.651 253.557 252.703 254.203 254.128Z" fill="#8592AC"/>
<path d="M235.636 280.829C235.22 280.645 231.664 295.811 230.971 301.188C230.279 306.565 230.879 327.797 230.463 329.865C230.048 331.933 229.586 336.851 228.385 338.367C225.845 341.584 225.614 348.524 227.508 349.627C229.447 350.73 237.391 346.134 235.728 343.239C234.066 340.344 236.236 335.748 236.236 335.748C236.236 335.748 238.869 325.867 240.809 320.904C242.748 315.94 243.857 305.646 243.995 304.451C244.134 303.21 250.045 290.434 251.292 287.171C252.539 283.908 237.576 281.656 235.636 280.829Z" fill="#8592AC"/>
<path d="M217.487 344.893C219.473 344.342 226.031 337.218 227.093 336.023C228.156 334.828 230.557 336.253 232.635 336.851C233.328 337.08 233.975 337.31 234.529 337.494C236.007 338.045 237.069 339.424 237.254 341.033C237.392 342.549 237.485 344.066 237.485 345.491C237.439 347.191 236.284 348.708 234.575 349.075C232.312 349.627 229.079 350.362 227.14 350.592C224.507 350.959 218.688 350.638 215.363 349.765C214.116 349.443 213.515 347.972 214.208 346.869C214.901 345.766 216.148 345.215 217.487 344.893Z" fill="#C1C8D5"/>
<path d="M135.602 327.66C138.004 327.016 145.855 318.468 147.102 317.044C148.349 315.619 151.074 317.136 153.06 318.193C154.584 318.974 156.293 319.158 157.678 319.479C158.417 319.663 158.925 320.353 159.017 321.134C159.341 323.662 159.572 326.097 159.525 328.487C159.479 330.555 158.094 332.347 156.062 332.807C153.337 333.45 146.225 334.324 143.915 334.645C140.729 335.059 136.803 334.967 133.016 333.68C131.538 333.175 130.799 331.52 131.631 330.233C132.508 328.763 133.986 328.119 135.602 327.66Z" fill="#2C80FC"/>
<path d="M214.255 228.713L201.878 215.431C201.324 214.88 201.278 214.007 201.786 213.409C203.217 211.617 204.279 210.054 205.111 208.951C205.988 207.757 203.263 201.782 200.954 202.977C199.523 203.712 195.735 206.745 195.181 208.676C194.95 209.503 195.966 216.58 197.306 218.556C198.645 220.533 202.802 228.345 205.342 231.057C215.918 242.408 219.151 236.434 214.255 228.713Z" fill="#8592AC"/>
<path d="M249.675 266.812C249.675 266.812 254.571 280.691 251.015 293.697C251.015 293.697 242.332 287.63 233.511 288.917L232.218 294.34C232.218 294.34 226.63 295.305 224.228 293.651C224.228 293.651 221.642 272.878 223.027 265.709C224.32 258.677 247.505 257.069 249.675 266.812Z" fill="#B5F3D8"/>
<path d="M243.118 206.654C243.903 207.711 245.15 208.4 246.166 208.354C246.027 209.503 245.889 210.698 246.35 211.939C246.812 213.18 248.198 214.375 249.122 214.053C249.306 215.799 249.953 217.638 251.015 219.292C251.338 219.798 251.754 220.349 252.262 220.579C253.417 221.13 254.156 219.798 253.971 218.511C253.786 217.224 253.186 215.845 253.278 214.65C254.571 214.421 254.756 212.352 253.647 211.066C254.109 211.295 254.571 211.295 254.894 211.066C254.894 212.123 256.418 213.318 257.111 212.766C257.573 214.237 258.358 215.661 259.328 216.902C259.698 217.362 260.113 217.775 260.575 217.959C261.314 218.189 261.822 217.5 261.822 216.718C261.776 215.937 261.36 215.064 260.944 214.283C261.591 213.547 261.591 212.215 260.944 211.02C260.298 209.825 259.143 208.952 258.035 208.86C258.635 208.768 258.635 207.803 258.22 207.159C257.804 206.516 257.111 206.056 256.465 205.735C255.818 205.413 255.125 205.137 254.571 204.632C255.726 205.137 256.973 204.999 257.665 204.264C257.989 204.999 258.543 205.827 259.236 206.056C259.928 206.286 260.575 205.597 260.113 204.907C260.714 205.505 261.314 206.102 262.053 206.378C262.792 206.654 263.531 206.47 263.623 205.781C263.715 204.999 262.977 204.08 262.238 203.483C260.714 202.242 258.959 201.369 257.25 201.139C257.25 199.806 255.91 198.381 254.664 197.968C253.417 197.508 252.216 197.784 251.107 198.014C251.431 197.554 251.061 196.635 250.507 196.13C249.953 195.624 249.26 195.486 248.613 195.44C246.628 195.302 244.873 196.13 243.857 197.646C243.025 196.267 241.178 196.359 240.67 197.462C239.792 199.255 240.901 200.312 241.917 202.012C242.979 203.575 241.778 204.861 243.118 206.654Z" fill="#151F36"/>
<path fill-rule="evenodd" clip-rule="evenodd" d="M250.61 250.713C250.495 255.526 250.477 260.995 250.83 267.134C250.876 267.915 250.322 268.604 249.675 269.018C243.625 273.016 230.047 275.176 222.981 269.018C222.565 268.65 222.196 268.145 222.196 267.593C221.837 256.528 222.82 243.922 224.521 236.422C220.95 237.335 217.275 238.081 214.807 238.319C213.837 238.457 212.959 235.7 213.006 232.942C213.052 230.461 213.929 227.887 214.807 227.841C222.15 227.519 231.525 227.152 231.525 227.152C232.008 227.113 232.465 227.109 232.892 227.137C237.325 226.286 242.73 227.151 245.519 228.438C245.676 228.509 245.854 228.586 246.048 228.671C246.954 229.066 248.2 229.609 249.188 230.301C250.42 230.511 251.797 231.622 252.815 233.631C252.815 233.631 257.341 241.765 260.898 248.199C261.313 248.98 259.604 251.048 257.434 252.427C255.078 253.898 252.307 254.587 251.892 253.714C251.484 252.876 251.05 251.852 250.61 250.713Z" fill="white"/>
<mask id="mask0" mask-type="alpha" maskUnits="userSpaceOnUse" x="213" y="226" width="48" height="47">
<path d="M250.61 250.713C250.495 255.525 250.477 260.995 250.83 267.134C250.876 267.915 250.322 268.604 249.675 269.018C243.625 273.016 230.047 275.176 222.981 269.018C222.566 268.65 222.196 268.145 222.196 267.593C221.837 256.527 222.82 243.921 224.521 236.421C220.95 237.334 217.275 238.08 214.807 238.318C213.837 238.456 212.959 235.699 213.006 232.941C213.052 230.46 213.929 227.886 214.807 227.84C222.15 227.518 231.525 227.151 231.525 227.151C232.01 227.112 232.467 227.109 232.895 227.137C237.328 226.287 242.731 227.151 245.519 228.438C245.676 228.509 245.854 228.586 246.048 228.671C246.954 229.066 248.2 229.609 249.188 230.301C250.421 230.511 251.797 231.622 252.816 233.631C252.816 233.631 257.342 241.765 260.898 248.199C261.314 248.981 259.605 251.049 257.434 252.427C255.079 253.898 252.308 254.587 251.892 253.714C251.485 252.876 251.05 251.852 250.61 250.713Z" fill="white"/>
</mask>
<g mask="url(#mask0)">
<path fill-rule="evenodd" clip-rule="evenodd" d="M248.227 233.809C250.622 233.809 252.518 231.913 252.518 229.568C252.518 227.223 250.572 225.327 248.227 225.327C245.832 225.327 243.936 227.223 243.936 229.568C243.887 231.913 245.832 233.809 248.227 233.809ZM248.227 232.612C249.924 232.612 251.321 231.265 251.321 229.568C251.321 227.872 249.924 226.525 248.227 226.525C246.531 226.525 245.134 227.872 245.134 229.568C245.134 231.215 246.481 232.612 248.227 232.612Z" fill="#5C9EFF"/>
<path fill-rule="evenodd" clip-rule="evenodd" d="M233.358 242.117C235.753 242.117 237.649 240.221 237.649 237.876C237.649 235.531 235.703 233.635 233.358 233.635C230.963 233.635 229.067 235.531 229.067 237.876C229.017 240.221 230.963 242.117 233.358 242.117ZM233.358 240.919C235.055 240.919 236.452 239.572 236.452 237.876C236.452 236.179 235.055 234.832 233.358 234.832C231.662 234.832 230.265 236.179 230.265 237.876C230.265 239.522 231.612 240.919 233.358 240.919Z" fill="#5C9EFF"/>
<path fill-rule="evenodd" clip-rule="evenodd" d="M223.181 252.668C225.575 252.668 227.471 250.772 227.471 248.427C227.471 246.082 225.526 244.186 223.181 244.186C220.786 244.186 218.89 246.082 218.89 248.427C218.84 250.772 220.786 252.668 223.181 252.668ZM223.181 251.47C224.877 251.47 226.274 250.123 226.274 248.427C226.274 246.73 224.877 245.383 223.181 245.383C221.484 245.383 220.087 246.73 220.087 248.427C220.087 250.073 221.434 251.47 223.181 251.47Z" fill="#5C9EFF"/>
<path fill-rule="evenodd" clip-rule="evenodd" d="M225.069 231C227.464 231 229.36 229.104 229.36 226.759C229.36 224.414 227.414 222.518 225.069 222.518C222.674 222.518 220.778 224.414 220.778 226.759C220.728 229.104 222.674 231 225.069 231ZM225.069 229.802C226.766 229.802 228.163 228.455 228.163 226.759C228.163 225.062 226.766 223.715 225.069 223.715C223.373 223.715 221.976 225.062 221.976 226.759C221.976 228.405 223.323 229.802 225.069 229.802Z" fill="#5C9EFF"/>
<path fill-rule="evenodd" clip-rule="evenodd" d="M215.643 241.551C218.038 241.551 219.934 239.655 219.934 237.31C219.934 234.965 217.988 233.069 215.643 233.069C213.248 233.069 211.353 234.965 211.353 237.31C211.303 239.655 213.248 241.551 215.643 241.551ZM215.643 240.353C217.34 240.353 218.737 239.006 218.737 237.31C218.737 235.613 217.34 234.266 215.643 234.266C213.947 234.266 212.55 235.613 212.55 237.31C212.55 238.956 213.897 240.353 215.643 240.353Z" fill="#5C9EFF"/>
<path fill-rule="evenodd" clip-rule="evenodd" d="M255.981 246.773C258.376 246.773 260.272 244.877 260.272 242.532C260.272 240.187 258.326 238.291 255.981 238.291C253.586 238.291 251.69 240.187 251.69 242.532C251.64 244.877 253.586 246.773 255.981 246.773ZM255.981 245.576C257.678 245.576 259.075 244.228 259.075 242.532C259.075 240.836 257.678 239.488 255.981 239.488C254.285 239.488 252.888 240.836 252.888 242.532C252.888 244.179 254.235 245.576 255.981 245.576Z" fill="#5C9EFF"/>
<path fill-rule="evenodd" clip-rule="evenodd" d="M240.919 251.858C243.314 251.858 245.21 249.962 245.21 247.617C245.21 245.271 243.264 243.375 240.919 243.375C238.524 243.375 236.628 245.271 236.628 247.617C236.578 249.962 238.524 251.858 240.919 251.858ZM240.919 250.66C242.615 250.66 244.012 249.313 244.012 247.617C244.012 245.92 242.615 244.573 240.919 244.573C239.222 244.573 237.825 245.92 237.825 247.617C237.825 249.263 239.173 250.66 240.919 250.66Z" fill="#5C9EFF"/>
<path fill-rule="evenodd" clip-rule="evenodd" d="M261.886 262.28C264.281 262.28 266.177 260.384 266.177 258.039C266.177 255.694 264.231 253.798 261.886 253.798C259.491 253.798 257.595 255.694 257.595 258.039C257.545 260.384 259.491 262.28 261.886 262.28ZM261.886 261.083C263.582 261.083 264.979 259.736 264.979 258.039C264.979 256.343 263.582 254.996 261.886 254.996C260.189 254.996 258.792 256.343 258.792 258.039C258.792 259.686 260.139 261.083 261.886 261.083Z" fill="#5C9EFF"/>
<path fill-rule="evenodd" clip-rule="evenodd" d="M247.782 264.948C250.177 264.948 252.073 263.052 252.073 260.707C252.073 258.362 250.127 256.466 247.782 256.466C245.387 256.466 243.491 258.362 243.491 260.707C243.441 263.052 245.387 264.948 247.782 264.948ZM247.782 263.751C249.479 263.751 250.876 262.404 250.876 260.707C250.876 259.011 249.479 257.664 247.782 257.664C246.086 257.664 244.689 259.011 244.689 260.707C244.689 262.354 246.036 263.751 247.782 263.751Z" fill="#5C9EFF"/>
<path fill-rule="evenodd" clip-rule="evenodd" d="M230.485 264.984C232.88 264.984 234.776 263.088 234.776 260.743C234.776 258.398 232.83 256.502 230.485 256.502C228.09 256.502 226.194 258.398 226.194 260.743C226.144 263.088 228.09 264.984 230.485 264.984ZM230.485 263.786C232.182 263.786 233.579 262.439 233.579 260.743C233.579 259.046 232.182 257.699 230.485 257.699C228.789 257.699 227.392 259.046 227.392 260.743C227.392 262.389 228.739 263.786 230.485 263.786Z" fill="#5C9EFF"/>
<path fill-rule="evenodd" clip-rule="evenodd" d="M235.536 277.326C237.931 277.326 239.827 275.43 239.827 273.085C239.827 270.74 237.881 268.844 235.536 268.844C233.141 268.844 231.245 270.74 231.245 273.085C231.195 275.43 233.141 277.326 235.536 277.326ZM235.536 276.129C237.232 276.129 238.629 274.781 238.629 273.085C238.629 271.389 237.232 270.041 235.536 270.041C233.84 270.041 232.443 271.389 232.443 273.085C232.443 274.732 233.79 276.129 235.536 276.129Z" fill="#5C9EFF"/>
<path fill-rule="evenodd" clip-rule="evenodd" d="M257.696 274.989C260.091 274.989 261.987 273.093 261.987 270.748C261.987 268.403 260.041 266.507 257.696 266.507C255.301 266.507 253.405 268.403 253.405 270.748C253.355 273.093 255.301 274.989 257.696 274.989ZM257.696 273.792C259.393 273.792 260.79 272.445 260.79 270.748C260.79 269.052 259.393 267.705 257.696 267.705C256 267.705 254.603 269.052 254.603 270.748C254.603 272.395 255.95 273.792 257.696 273.792Z" fill="#5C9EFF"/>
</g>
<path d="M242.517 228.53C241.317 225.634 241.64 222.923 242.24 220.901C242.841 218.833 250.784 214.926 248.66 208.079C245.843 199.163 231.526 198.474 228.339 207.205C226.954 210.928 225.891 218.097 227.693 219.338C229.725 220.763 230.972 220.579 232.126 221.039C234.112 221.866 233.05 226.553 232.819 228.484C232.865 231.701 243.58 231.149 242.517 228.53Z" fill="#8592AC"/>
<path d="M248.61 208.078C246.994 202.885 241.406 200.495 236.418 201.139C236.649 201.184 236.88 201.276 237.065 201.368C238.081 201.874 238.727 202.333 239.004 203.436C239.281 204.539 239.143 205.688 239.05 206.837C239.004 207.573 238.958 208.354 239.143 209.043C239.235 209.549 239.836 209.779 240.251 209.549C240.944 209.181 241.868 209.089 242.607 209.457C243.623 209.916 244.223 211.157 243.992 212.26C243.761 213.409 242.745 214.236 242.191 215.293C241.36 216.81 241.637 218.786 242.699 220.119C244.592 217.867 250.504 214.144 248.61 208.078Z" fill="#151F36"/>
<path d="M184.413 198.84C184.413 198.84 163.538 207.94 136.844 205.366C137.306 185.466 146.311 124.021 149.498 114.141C159.428 114.141 184.598 123.378 192.495 125.538C190.047 137.027 181.965 173.472 184.413 198.84Z" fill="#C1C8D5"/>
<path d="M197.53 204.953C196.744 204.723 196.514 203.758 197.022 203.161C199.608 200.357 203.995 198.611 204.734 197.554C205.843 195.899 196.006 175.219 195.636 172.645C195.267 170.071 196.19 166.579 196.19 166.579L191.941 144.243L201.779 142.405C201.779 142.405 211.616 192.223 212.17 194.613C212.724 197.002 212.355 202.196 210.877 204.953C209.399 207.71 208.845 211.801 207.182 212.352C206.027 212.72 202.748 212.766 199.423 212.766C198.084 212.766 197.114 212.26 196.467 211.203C195.821 210.146 198.361 208.262 199.285 206.975C200.208 205.504 198.961 205.367 197.53 204.953Z" fill="#151F36"/>
<path d="M188.935 162.35C190.413 163.682 207.639 164.28 206.577 159.96C206.577 159.96 202.882 139.279 202.328 134.867C201.774 130.455 198.31 126.641 195.724 125.354C193.138 124.067 186.626 129.904 186.81 137.854C186.995 146.357 188.935 162.35 188.935 162.35Z" fill="#2C80FC"/>
<path d="M195.682 125.078C195.682 125.078 186.999 158.581 187.184 172.414C187.369 186.247 188.569 200.816 188.569 200.816C185.798 203.298 171.066 207.526 165.293 207.572C165.293 207.572 168.803 158.122 180.118 117.357L195.682 125.078Z" fill="#2C80FC"/>
<path d="M151.763 208.859C151.763 208.859 152.963 145.392 165.202 114.141C165.202 114.141 154.21 111.246 146.451 112.165C138.693 113.084 132.55 193.372 133.335 205.642C138.508 208.4 146.128 209.135 151.763 208.859Z" fill="#2C80FC"/>
<path d="M168.03 106.88C169.092 102.927 170.108 99.6184 170.108 99.6184L184.092 103.571C184.092 103.571 180.859 115.428 180.72 116.347C180.535 117.312 180.487 120.943 182.196 122.551C179.84 125.584 174.298 127.652 169.588 129.031C165.755 125.952 162.672 122.551 160.363 117.542C160.409 117.588 167.014 110.832 168.03 106.88Z" fill="#151F36"/>
<path d="M176.936 129.676C176.89 129.63 177.536 128.757 178.091 127.516C178.46 126.781 179.43 126.643 179.984 127.24C181.323 128.711 183.309 130.825 183.448 130.457C183.633 129.906 186.173 120.438 186.173 120.438C184.371 118.692 183.633 116.67 182.894 113.866C182.432 113.085 181.323 113.269 181 114.142C179.938 116.762 178.229 122.92 176.936 129.676Z" fill="#5C9EFF"/>
<path d="M160.26 130.824C160.306 130.824 160.214 129.721 160.352 128.388C160.445 127.561 159.66 126.964 158.874 127.194C156.981 127.791 154.164 128.572 154.256 128.205C154.395 127.653 158.274 114.05 158.274 114.05C160.722 113.452 162.384 112.12 164.463 110.097C165.248 109.684 166.264 110.419 165.941 111.292C164.971 114.234 161.876 123.701 160.26 130.824Z" fill="#5C9EFF"/>
<path d="M169.036 87.9639C167.004 94.398 167.604 102.027 168.436 104.187C169.775 107.588 175.271 112.137 177.534 113.93C178.18 114.435 178.919 114.757 179.704 114.849L183.353 115.4C184.092 115.492 184.831 115.125 185.2 114.481C187.417 110.483 191.527 101.521 192.22 97.3852C192.959 92.7894 194.853 85.4363 186.493 81.7597C178.596 78.3129 171.022 81.6218 169.036 87.9639Z" fill="#151F36"/>
<path d="M170.372 94.629C170.372 94.629 171.065 92.6069 172.958 91.2742C174.852 89.9414 174.251 89.252 175.267 86.9082C176.283 84.5644 178.5 84.2427 182.426 85.8052C186.351 87.3678 190.785 88.1491 192.355 87.6435C194.11 87.0461 194.295 84.1508 189.353 80.1984C184.689 76.4759 175.868 76.9814 171.757 80.1065C168.155 82.818 167.555 92.0554 167.555 94.1695C167.555 96.2835 169.125 96.835 170.372 94.629Z" fill="#8592AC"/>
<path d="M168.426 100.949C169.973 100.789 171.025 98.7155 170.776 96.317C170.526 93.9185 169.069 92.1036 167.521 92.2632C165.973 92.4228 164.921 94.4966 165.171 96.8951C165.421 99.2935 166.878 101.108 168.426 100.949Z" fill="#151F36"/>
<path d="M160.585 256.978C160.4 255.415 162.202 257.116 166.404 256.38C168.991 255.921 170.468 253.669 171.669 254.542C174.579 256.748 179.059 267.41 177.858 276.326C176.796 284.231 176.934 296.133 176.657 296.823C176.149 298.064 171.808 298.339 171.069 296.455C170.468 294.939 162.987 272.236 161.786 267.778C160.539 263.274 160.908 259.597 160.585 256.978Z" fill="#151F36"/>
<path d="M176.33 321.043C177.993 318.975 182.242 314.425 182.658 310.886C183.073 307.347 179.009 297.926 178.778 296.318C178.593 294.709 176.423 297.926 174.114 297.65C171.805 297.375 169.542 294.985 169.542 297.88C169.588 300.775 167.048 306.934 167.279 310.886C167.509 314.425 169.449 318.791 170.742 321.135C171.989 323.386 174.806 322.927 176.33 321.043Z" fill="#2C80FC"/>
<path d="M157.124 248.016C157.124 248.016 160.634 223.475 160.634 222.234C160.634 219.338 151.675 213.502 152.968 217.868C154.261 222.234 158.464 234.734 156.108 234.137C152.321 233.172 148.811 230.966 144.84 228.668C142.392 227.243 142.438 229.403 144.47 232.804C147.841 238.457 152.645 245.718 152.922 247.878C153.199 250.084 148.811 248.062 148.58 250.084C148.349 252.106 156.524 256.15 156.616 254.496C156.57 252.428 156.755 250.038 157.124 248.016Z" fill="#B5F3D8"/>
<g style="mix-blend-mode:multiply">
<path d="M231.893 254.909C229.307 259.413 244.086 250.406 243.116 252.474C242.146 254.542 230.831 261.481 230.877 265.066C230.969 268.651 241.638 265.572 245.425 262.263C242.931 266.858 239.236 270.167 234.987 272.879C240.622 272.925 246.302 271.27 249.674 269.018C250.32 268.605 250.875 267.915 250.828 267.134C250.089 254.312 250.967 244.431 251.013 237.354C243.809 244.477 233.971 251.325 231.893 254.909Z" fill="#C1C8D5"/>
</g>
<defs>
<linearGradient id="paint0_linear" x1="389.271" y1="138.614" x2="372.867" y2="199.062" gradientUnits="userSpaceOnUse">
<stop stop-color="#8592AC"/>
<stop offset="1" stop-color="#5D6473"/>
</linearGradient>
<linearGradient id="paint1_linear" x1="177.599" y1="293.571" x2="177.599" y2="394.452" gradientUnits="userSpaceOnUse">
<stop stop-color="#E2E8F3"/>
<stop offset="1" stop-color="#E2E8F3" stop-opacity="0"/>
</linearGradient>
<linearGradient id="paint2_linear" x1="283.484" y1="203.061" x2="283.484" y2="249.417" gradientUnits="userSpaceOnUse">
<stop stop-color="#DFE6F2"/>
<stop offset="1" stop-color="#DFE6F2" stop-opacity="0.3"/>
</linearGradient>
<linearGradient id="paint3_linear" x1="321.534" y1="110.767" x2="321.534" y2="184.237" gradientUnits="userSpaceOnUse">
<stop stop-color="#DFE6F2"/>
<stop offset="1" stop-color="#DFE6F2" stop-opacity="0.22"/>
</linearGradient>
<linearGradient id="paint4_linear" x1="294.647" y1="67.4185" x2="294.647" y2="140.889" gradientUnits="userSpaceOnUse">
<stop stop-color="#DFE6F2"/>
<stop offset="1" stop-color="#DFE6F2" stop-opacity="0.22"/>
</linearGradient>
<linearGradient id="paint5_linear" x1="169.36" y1="334.956" x2="169.36" y2="373.447" gradientUnits="userSpaceOnUse">
<stop stop-color="#E2E8F3"/>
<stop offset="1" stop-color="#E2E8F3" stop-opacity="0"/>
</linearGradient>
<linearGradient id="paint6_linear" x1="71.388" y1="337.493" x2="71.388" y2="391.266" gradientUnits="userSpaceOnUse">
<stop stop-color="#E2E8F3"/>
<stop offset="1" stop-color="#E2E8F3" stop-opacity="0"/>
</linearGradient>
</defs>
</svg>
