<svg width="308" height="250" viewBox="0 0 308 250" fill="none" xmlns="http://www.w3.org/2000/svg">
<g clip-path="url(#clip0)">
<path d="M207.51 229.588C193.175 229.627 178.853 228.688 164.645 226.778C164.181 226.718 163.711 226.652 163.244 226.582C159.756 226.086 156.267 225.519 152.875 224.896C137.609 222.103 123.214 218.022 110.089 212.768C66.4103 195.284 38.9478 199.005 23.6014 205.205C6.99314 211.916 0.608865 222.894 0.546288 223.004L0 222.694C0.0633384 222.582 6.52998 211.44 23.3196 204.641C33.1637 200.655 44.5837 198.913 57.265 199.462C73.0944 200.148 90.9454 204.428 110.322 212.184C123.408 217.423 137.763 221.492 152.988 224.278C156.372 224.899 159.853 225.465 163.334 225.96C163.799 226.03 164.265 226.095 164.727 226.155C203.241 231.456 240.396 228.259 264.784 224.644C284.885 221.664 297.821 218.18 297.95 218.145L298.114 218.752C297.986 218.787 285.017 222.28 264.876 225.266C245.884 228.096 226.711 229.541 207.51 229.588Z" fill="#3F3D56"/>
<path d="M207.553 49.1805C196.48 49.1806 185.7 48.662 175.299 47.6255C151.4 45.2435 129.46 40.1043 110.089 32.3505C66.4103 14.8664 38.9478 18.5872 23.6014 24.7877C6.99314 31.4976 0.608865 42.4761 0.546288 42.5861L0 42.2758C0.0633384 42.1641 6.52998 31.0225 23.3196 24.2237C33.1638 20.2374 44.5837 18.4945 57.265 19.0443C73.0944 19.7301 90.9454 24.0105 110.322 31.7667C154.069 49.2781 202.749 49.9662 235.883 47.462C271.797 44.7464 297.693 37.7971 297.95 37.7273L298.114 38.3338C297.857 38.404 271.914 45.3668 235.944 48.0877C226.313 48.8163 216.83 49.1805 207.553 49.1805Z" fill="#3F3D56"/>
<path d="M205.927 3.03928C205.927 3.03928 193.578 -1.37419 185.639 16.2797C177.701 33.9336 165.352 53.3529 165.352 53.3529L172.408 55.1183C172.408 55.1183 174.172 42.7606 178.583 40.9952L176.818 56.8837C176.818 56.8837 229.743 75.4203 253.558 55.1183L252.676 48.9395C252.676 48.9395 256.205 49.8221 256.205 55.1183L258.851 52.4702C258.851 52.4702 256.205 47.1741 248.266 40.1125C243.055 35.4776 241.265 26.6597 240.65 21.1467C240.189 16.5432 238.348 12.1866 235.369 8.6483C230.094 2.52983 220.481 -3.97324 205.927 3.03928Z" fill="#2F2E41"/>
<path d="M280.876 102.938C280.876 102.938 304.114 122.772 307.532 134.4C310.949 146.027 294.546 147.395 294.546 147.395L259.005 150.815C259.005 150.815 258.322 167.23 252.17 169.282C246.019 171.333 250.921 142.137 250.921 142.137L285.66 132.348L269.941 115.933L280.876 102.938Z" fill="#FBBEBE"/>
<path d="M172.205 123.453L169.471 159.703L154.435 221.259C154.435 221.259 140.765 249.302 152.384 249.986C164.003 250.67 163.32 223.311 163.32 223.311L185.191 165.175L187.242 125.505L172.205 123.453Z" fill="#FBBEBE"/>
<path d="M210.48 59.8445C222.937 59.8445 233.035 49.7392 233.035 37.2738C233.035 24.8084 222.937 14.7031 210.48 14.7031C198.024 14.7031 187.926 24.8084 187.926 37.2738C187.926 49.7392 198.024 59.8445 210.48 59.8445Z" fill="#FBBEBE"/>
<path d="M200.229 48.2188C200.229 48.2188 208.43 77.629 195.444 85.1526C182.458 92.6762 228.251 98.1478 240.554 75.5772C240.554 75.5772 218.682 68.0536 224.834 48.2188H200.229Z" fill="#FBBEBE"/>
<path d="M184.505 88.571L180.405 87.2031C180.405 87.2031 172.203 90.6229 172.203 96.7786C172.203 102.934 170.836 127.557 170.836 127.557L189.29 129.609L184.505 88.571Z" fill="#6C63FF"/>
<path d="M264.829 224.957C239.598 228.697 202.824 231.718 164.687 226.469C164.684 226.092 164.684 225.724 164.684 225.366C164.684 223.231 164.765 221.121 164.929 219.035C166.882 193.349 180.105 171.935 185.222 164.514C185.48 164.137 185.718 163.797 185.932 163.496C186.758 162.336 187.239 161.723 187.239 161.723C187.239 161.723 226.88 161.075 247.384 169.282C248.373 169.698 249.277 170.29 250.054 171.03C257.699 178.089 262.19 201.009 264.829 224.957Z" fill="#2F2E41"/>
<path d="M250.12 78.9986C250.12 78.9986 259.006 74.2109 267.891 84.4703L285.661 104.989L271.992 120.036L246.02 104.305L250.12 78.9986Z" fill="#6C63FF"/>
<path d="M186.107 37.4181C194.092 31.6355 200.555 24.9751 204.83 17.0522C204.83 17.0522 219.483 33.3449 228.438 34.1596C237.393 34.9742 229.252 14.6083 229.252 14.6083L212.971 10.5352L197.504 12.1644L185.293 20.3108L186.107 37.4181Z" fill="#2F2E41"/>
<path d="M237.135 74.2109C237.135 74.2109 227.57 89.3446 198.862 82.1197L182.571 86.6095L180.406 87.2062C180.406 87.2062 182.457 128.244 187.924 135.767C193.392 143.291 192.025 147.395 190.658 148.079C189.291 148.763 185.874 147.395 187.924 150.814C189.975 154.234 192.709 152.182 189.975 154.234C187.241 156.286 185.874 163.81 185.874 163.81L250.121 172.017C250.121 172.017 248.07 145.343 253.538 131.664C259.006 117.984 260.373 112.513 260.373 112.513L256.272 78.3147L237.135 74.2109Z" fill="#6C63FF"/>
<path d="M103.61 60.8203H15.6641V170.831H103.61V60.8203Z" fill="#E6E6E6"/>
<path d="M40.6346 70.0938H21.7891V82.6663H40.6346V70.0938Z" fill="white"/>
<path d="M94.8146 94.6094H21.9453V99.0098H94.8146V94.6094Z" fill="white"/>
<path d="M94.8146 106.238H21.9453V110.639H94.8146V106.238Z" fill="white"/>
<path d="M94.8146 117.867H21.9453V122.268H94.8146V117.867Z" fill="white"/>
<path d="M94.8146 129.5H21.9453V133.9H94.8146V129.5Z" fill="white"/>
<path d="M94.8146 141.129H21.9453V145.529H94.8146V141.129Z" fill="white"/>
<path d="M120.887 170.673C120.883 174.825 119.382 178.835 116.66 181.968C113.938 185.101 110.177 187.145 106.07 187.726C101.962 188.307 97.7829 187.385 94.3002 185.129C90.8175 182.873 88.2652 179.436 87.1122 175.448C85.9593 171.46 86.2832 167.189 88.0244 163.421C89.7656 159.653 92.8071 156.641 96.5901 154.937C100.373 153.233 104.643 152.952 108.617 154.147C112.59 155.341 115.999 157.931 118.217 161.439C119.961 164.202 120.887 167.404 120.887 170.673Z" fill="#6C63FF"/>
<path d="M118.216 161.438L101.211 178.451C100.142 176.796 94.1875 169.101 94.1875 169.101C94.9506 168.329 95.7649 167.609 96.6249 166.947L101.562 173.535L116.224 158.863C116.968 159.656 117.634 160.518 118.216 161.438Z" fill="white"/>
</g>
<defs>
<clipPath id="clip0">
<rect width="308" height="250" fill="white"/>
</clipPath>
</defs>
</svg>
