<svg width="379" height="389" viewBox="0 0 379 389" fill="none" xmlns="http://www.w3.org/2000/svg">
<path fill-rule="evenodd" clip-rule="evenodd" d="M157.855 143.121C197.98 143.121 230.523 111.089 230.523 71.5603C230.523 32.0317 197.98 0 157.855 0C117.73 0 85.1875 32.0317 85.1875 71.5603C85.1875 111.089 117.73 143.121 157.855 143.121ZM157.855 123.016C186.735 123.016 210.162 99.9288 210.162 71.5603C210.162 43.1065 186.735 20.105 157.855 20.105C128.976 20.105 105.548 43.1917 105.548 71.5603C105.633 99.9288 128.976 123.016 157.855 123.016Z" fill="#5C9EFF"/>
<path opacity="0.8" d="M301.672 212.009C303.577 207.173 288.486 204.748 288.241 198.7C287.967 192.724 294.226 193.647 291.31 190.541C288.394 187.435 292.906 183.528 297.706 180.36C302.507 177.192 306.045 163.706 309.031 155.371C318.166 129.825 333.493 131.256 334.474 147.261C334.94 154.889 328.822 156.914 329.998 163.41C331.183 169.826 338.935 179.343 338.807 190.675C338.727 197.989 332.781 203.507 326.228 207.059C323.051 208.723 322.539 213.471 325.299 215.586C327.849 217.641 329.652 220.11 329.251 222.55C328.317 227.99 323.615 235.013 318.986 238.393C313.858 242.152 307.05 243.522 304.29 241.098C289.463 228.072 299.651 216.626 301.672 212.009Z" fill="url(#paint0_linear)"/>
<path d="M322.73 267.348C325.573 262.343 318.359 251.988 317.879 249.716C317.383 246.881 332.224 244.988 337.729 242.053C346.382 237.492 344.173 228.095 340.883 220.169C338.135 213.456 351.871 215.933 354.669 208.049C357.467 200.165 350.712 196.07 352.863 191.63C356.199 184.704 367.412 168.405 346.783 172.849C327.557 176.982 328.046 197.495 318.685 201.93C314.547 203.906 301.958 195.714 296.968 201.974C291.337 209.15 303.267 222.93 301.33 228.229C300.534 230.541 287.792 226.122 284.688 232.018C280.747 239.523 290.554 251.13 295.302 258.492C299.456 264.82 302.594 272.637 303.626 278.802C308.464 276.884 319.328 273.358 322.73 267.348Z" fill="#B5F3D8"/>
<path d="M305.047 275.86C304.721 275.835 304.548 275.679 304.609 275.48C304.591 274.991 305.936 225.912 345.421 185.647C345.568 185.462 345.809 185.473 345.982 185.629C346.215 185.787 346.239 186.001 346.086 186.132C306.723 226.201 305.449 275.06 305.407 275.547C305.431 275.76 305.278 275.892 305.047 275.86C304.952 275.867 304.952 275.867 305.047 275.86Z" fill="white"/>
<path d="M313.685 235.403C313.601 235.187 313.723 234.99 313.964 235.001C325.682 234.746 334.442 227.174 334.532 227.114C334.685 226.983 334.916 227.014 335.089 227.17C335.262 227.326 335.26 227.528 335.107 227.659C335.043 227.731 326.111 235.476 314.091 235.718C313.885 235.698 313.712 235.542 313.685 235.403Z" fill="white"/>
<path d="M316.299 229.175C316.207 229.108 308.438 221.709 309.633 212.45C309.695 212.251 309.844 212.194 310.085 212.204C310.322 212.289 310.409 212.431 310.433 212.644C309.272 221.565 316.816 228.656 316.872 228.733C317.045 228.889 317.044 229.091 316.891 229.222C316.887 229.297 316.741 229.28 316.656 229.265C316.536 229.26 316.444 229.192 316.299 229.175Z" fill="white"/>
<path d="M307.945 254.922C307.859 254.907 300.283 249.142 298.217 239.836C298.133 239.62 298.255 239.424 298.495 239.434C298.73 239.391 298.973 239.529 298.997 239.742C301.008 248.77 308.295 254.3 308.376 254.388C308.549 254.544 308.633 254.76 308.48 254.892C308.416 254.963 308.242 255.009 308.182 255.006C308.121 255.003 308.026 255.01 307.945 254.922Z" fill="white"/>
<path d="M328.922 206.782C328.685 206.697 328.597 206.555 328.574 206.342C328.635 206.143 328.785 206.086 329.025 206.096C329.117 206.164 337.083 207.912 342.861 203.13C343.014 202.999 343.245 203.03 343.418 203.186C343.591 203.342 343.59 203.544 343.437 203.675C339.233 207.113 333.916 207.328 331.077 207.098C329.807 206.99 328.922 206.782 328.922 206.782Z" fill="white"/>
<path d="M306.601 262.445C306.361 262.435 306.188 262.279 306.164 262.065C306.14 261.852 306.293 261.72 306.534 261.731C312.041 262.363 317.039 257.675 317.128 257.615C317.281 257.484 317.512 257.515 317.685 257.671C317.858 257.827 317.857 258.029 317.704 258.16C317.487 258.363 312.632 262.941 306.892 262.479C306.842 262.456 306.696 262.438 306.601 262.445Z" fill="white"/>
<path d="M175.242 48.0044C175.429 44.279 178.504 41.354 182.234 41.354H305.667C313.101 41.354 319.022 47.5778 318.65 55.0032L307.087 286.28C306.9 290.006 303.825 292.93 300.095 292.93H170.355C166.352 292.93 163.164 289.579 163.364 285.581L175.242 48.0044Z" fill="#151F36"/>
<path d="M167.865 51.8047C168.158 45.9504 172.99 41.354 178.851 41.354H304.787C308.79 41.354 311.978 44.7053 311.778 48.7036L299.899 286.28C299.713 290.006 296.638 292.93 292.908 292.93H163.167C159.164 292.93 155.976 289.579 156.176 285.581L167.865 51.8047Z" fill="#C1C8D5"/>
<g style="mix-blend-mode:multiply" opacity="0.52">
<path d="M0 388.999H148.668L302.328 292.928H155.811L0 388.999Z" fill="url(#paint1_linear)"/>
</g>
<path d="M178.45 61.4144C178.637 57.6888 181.711 54.7637 185.442 54.7637H291.456C295.459 54.7637 298.647 58.1148 298.447 62.1129L288.969 251.841C288.783 255.566 285.708 258.491 281.978 258.491H175.964C171.961 258.491 168.773 255.14 168.973 251.142L178.45 61.4144Z" fill="#9CA7BA"/>
<path d="M179.474 62.2968C179.659 58.5706 182.735 55.6445 186.465 55.6445H291.454C295.456 55.6445 298.644 58.9947 298.445 62.9923L289.051 251.839C288.866 255.565 285.791 258.491 282.06 258.491H177.072C173.069 258.491 169.881 255.141 170.08 251.143L179.474 62.2968Z" fill="white"/>
<path d="M176.798 209.271C176.983 205.545 180.059 202.619 183.789 202.619H279.358C283.361 202.619 286.548 205.969 286.349 209.967L284.745 242.222C284.56 245.948 281.484 248.874 277.754 248.874H182.185C178.182 248.874 174.995 245.524 175.194 241.526L176.798 209.271Z" fill="url(#paint2_linear)"/>
<path d="M176.764 209.271C176.949 205.545 180.024 202.619 183.755 202.619H279.354C283.356 202.619 286.544 205.969 286.345 209.966L286.202 212.847H176.586L176.764 209.271Z" fill="#CED7E8"/>
<path d="M214.558 117.18C214.743 113.453 217.818 110.527 221.549 110.527H318.874C322.877 110.527 326.064 113.877 325.865 117.875L322.915 177.185C322.73 180.911 319.655 183.837 315.924 183.837H218.599C214.596 183.837 211.409 180.487 211.608 176.489L214.558 117.18Z" fill="url(#paint3_linear)"/>
<path d="M187.734 73.9237C187.919 70.1975 190.994 67.2715 194.725 67.2715H238.533C242.536 67.2715 245.723 70.6216 245.524 74.6193L242.574 133.929C242.389 137.655 239.314 140.581 235.583 140.581H191.775C187.772 140.581 184.585 137.231 184.783 133.233L187.734 73.9237Z" fill="url(#paint4_linear)"/>
<path d="M214.548 117.18C214.733 113.453 217.808 110.527 221.539 110.527H318.876C322.879 110.527 326.066 113.877 325.867 117.875L325.655 122.14H214.301L214.548 117.18Z" fill="#CED7E8"/>
<path d="M215.18 272.41C215.251 270.986 216.427 269.867 217.853 269.867H244.044C245.575 269.867 246.794 271.149 246.717 272.677C246.646 274.102 245.47 275.22 244.044 275.22H217.853C216.322 275.22 215.103 273.939 215.18 272.41Z" fill="#8592AC"/>
<path d="M225.136 48.4013C225.193 47.8612 225.649 47.4512 226.192 47.4512H250.523C251.154 47.4512 251.646 47.9975 251.579 48.6246C251.522 49.1648 251.067 49.5748 250.523 49.5748H226.192C225.561 49.5748 225.069 49.0285 225.136 48.4013Z" fill="#8592AC"/>
<path d="M145.218 256.142L148.459 265.592C150.142 270.498 149.996 275.85 149.586 281.02C149.396 283.42 149.388 286.242 149.796 289.302C150.957 298.282 159.382 305.83 161.548 316.446C161.862 318.061 160.916 320.271 161.318 325.237C161.438 326.958 165.138 328.039 166.166 326.615C170.367 320.67 176.598 322.041 179.024 318.587C180.841 315.947 179.113 312.367 175.943 312.153C173.665 312 170.354 312.876 169.48 311.136C167.733 304.957 166.461 285.938 166.45 282.091C166.44 278.243 166.946 272.759 166.832 270.001C166.639 265.323 161.798 249.736 161.798 249.736C156.342 236 139.861 242.402 145.218 256.142Z" fill="#151F36"/>
<path d="M156.393 255.847L156.294 272.606C156.294 272.606 150.223 276.894 145.584 284.83C140.994 292.716 135.615 305.877 133.295 310.51C132.555 311.989 130.778 313.221 129.347 314.01C127.817 314.848 126.978 316.524 127.274 318.249C128.014 322.685 130.482 325.692 134.233 327.614C137.095 329.093 140.451 326.924 140.254 323.72C140.106 321.453 140.106 318.988 140.402 317.164C141.192 312.778 161.575 291.731 163.598 288.477C165.622 285.224 169.866 280.64 171.248 278.274C173.568 274.183 174.061 255.847 174.061 255.847C174.061 241.109 156.393 241.109 156.393 255.847Z" fill="#151F36"/>
<path d="M146.131 201.728C145.489 205.178 131.769 209.269 130.634 202.418C129.499 195.567 131.275 173.484 135.816 165.894C140.307 158.303 147.019 164.07 146.032 172.844C145.045 181.617 146.822 198.278 146.131 201.728Z" fill="#151F36"/>
<path d="M150.662 261.149L150.653 259.842L149.28 259.744C146.795 259.565 144.669 257.874 144.028 255.467C141.805 247.12 139.863 236.733 138.906 224.869C140.425 211.118 177.263 201.417 177.919 215.443C178.494 227.071 177.925 248.656 175.392 261.541C175.253 262.248 174.735 262.819 174.038 263.004C168.045 264.594 159.648 264.723 152.162 263.043C151.28 262.845 150.669 262.053 150.662 261.149Z" fill="white" stroke="#B5F3D8" stroke-miterlimit="10"/>
<path d="M150.67 259.893L151.395 248.153C149.199 247.237 147.991 246.587 145.93 244.946" stroke="#B5F3D8" stroke-linecap="round"/>
<path d="M140.994 192.509C140.994 192.509 131.271 192.509 127.422 186.791C129.495 176.638 134.282 160.076 138.773 152.485C143.264 144.895 149.977 150.661 148.99 159.435C148.002 168.258 140.994 192.509 140.994 192.509Z" fill="#2C80FC"/>
<g style="mix-blend-mode:multiply" opacity="0.52">
<path d="M142.525 346.592L91.1983 388.999H16.4766L154.863 320.024L166.412 321.601L134.727 346.592H142.525Z" fill="url(#paint5_linear)"/>
</g>
<path d="M143.573 149.676C137.859 155.492 137.349 166.681 138.556 180.482C139.717 193.544 138.278 218.534 136.605 226.371C141.204 230.314 168.608 232.631 181.799 229.328C184.539 213.21 179.848 166.089 174.925 156.872C169.119 146.127 149.797 143.366 143.573 149.676Z" fill="#2C80FC"/>
<path fill-rule="evenodd" clip-rule="evenodd" d="M142.697 151.228C142.974 150.841 143.265 150.471 143.571 150.118C147.262 145.881 155.56 145.256 162.913 147.987C156.017 147.346 148.177 148.585 142.697 151.228ZM167.265 230.871C172.72 230.785 177.894 230.307 181.819 229.328C184.189 213.54 180.984 179.711 176.889 164.106C176.679 164.64 176.436 165.187 176.16 165.75C163.891 190.735 157.868 207.69 170.137 203.674C175.099 202.05 173.347 205.863 170.799 211.409C168.03 217.435 164.322 225.506 167.265 230.871Z" fill="#5C9EFF"/>
<path d="M171.496 174.469C172.236 177.377 176.826 191.277 188.177 204.931C190.99 208.332 199.183 207.1 199.232 200.84C199.232 196.108 201.108 192.263 198.295 187.088C193.754 178.61 188.967 172.941 180.478 162.788C173.963 157.021 168.633 163.576 171.496 174.469Z" fill="#151F36"/>
<path fill-rule="evenodd" clip-rule="evenodd" d="M197.135 205.307C198.368 204.321 199.212 202.836 199.228 200.84C199.228 199.466 199.386 198.168 199.541 196.89C199.922 193.764 200.287 190.761 198.29 187.088C193.833 178.766 189.139 173.151 180.94 163.345C180.785 163.161 180.63 162.975 180.473 162.788C176.077 158.896 172.221 160.616 171.057 165.492C172.584 165.155 174.459 165.599 176.519 167.025C176.693 167.188 176.865 167.35 177.035 167.511C186.11 176.057 191.306 180.949 196.475 188.413C198.787 191.706 198.655 194.567 198.517 197.545C198.461 198.763 198.404 200 198.513 201.294C198.638 202.96 198.076 204.303 197.135 205.307Z" fill="#8592AC"/>
<path d="M175.983 191.031C175.983 191.031 187.729 191.278 192.319 181.962C185.459 169.738 178.697 157.76 177.069 155.641C172.726 150.021 164.089 154.507 166.655 165.055C169.419 176.343 175.983 191.031 175.983 191.031Z" fill="#2C80FC"/>
<path fill-rule="evenodd" clip-rule="evenodd" d="M167.34 156.522C170.192 155.151 173.854 155.738 176.099 158.563C177.761 160.667 184.334 172.174 191.071 184.055C191.53 183.418 191.952 182.722 192.326 181.962C185.466 169.738 178.704 157.76 177.076 155.641C174.218 151.943 169.501 152.621 167.34 156.522Z" fill="#5C9EFF"/>
<path d="M172.649 155.072C172.569 152.922 172.569 153.002 172.171 147.747C173.445 147.986 176.391 147.986 177.904 146.632C181.566 143.368 179.337 133.973 178.302 131.425C178.063 130.868 177.983 130.31 177.983 129.673C178.063 128.16 177.506 126.25 177.028 124.498C175.674 119.8 167.075 109.927 155.053 118.845C145.657 125.851 156.167 136.68 156.964 141.935C157.76 147.19 155.928 152.365 155.849 154.196C155.769 158.894 172.808 159.849 172.649 155.072Z" fill="#151F36"/>
<path d="M138.378 142.384C138.378 142.384 136.108 149.679 140.599 156.136C144.992 162.395 152.839 164.466 173.913 157.023C176.726 156.037 178.108 156.924 178.997 158.6C179.786 160.079 180.872 161.755 180.872 161.755C180.872 161.755 183.241 158.206 185.067 154.41C188.177 148.003 184.969 144.207 178.602 143.567C169.077 142.63 153.333 143.074 138.378 142.384Z" fill="#B5F3D8"/>
<path fill-rule="evenodd" clip-rule="evenodd" d="M138.125 143.453C138.256 142.774 138.377 142.384 138.377 142.384C144.951 142.687 151.677 142.772 157.96 142.85C165.971 142.951 173.263 143.042 178.601 143.567C184.968 144.208 188.176 148.003 185.066 154.411C183.24 158.206 180.871 161.755 180.871 161.755C180.871 161.755 180.583 161.311 180.196 160.678C180.919 159.444 181.744 157.953 182.48 156.422C185.589 150.014 181.649 145.151 175.282 144.51C169.944 143.986 162.652 143.894 154.641 143.794C149.332 143.727 143.707 143.657 138.125 143.453Z" fill="white" fill-opacity="0.68"/>
<path d="M165.57 80.4257C162.313 78.602 157.871 78.5034 154.614 81.0665C151.258 83.7775 150.912 89.0023 152.245 92.8962C152.837 94.6707 153.824 96.2973 154.268 98.121C154.466 98.9589 154.565 99.8955 154.367 100.783C154.268 101.473 153.874 102.754 152.985 104.134C151.406 106.55 162.017 108.768 161.622 105.761C161.474 104.627 161.573 103.346 161.869 101.818C161.968 101.374 162.412 101.078 162.856 101.128C163.547 101.276 166.261 102.212 166.854 101.867C167.347 101.621 167.742 101.177 168.087 100.783C170.506 97.8745 171.69 93.8327 171.493 89.7416C171.295 85.6998 168.927 82.003 165.57 80.4257Z" fill="#8592AC"/>
<path d="M160.685 99.6978C162.857 98.1698 162.166 96.346 163.4 93.7829C163.696 93.1914 164.831 92.1563 167.348 92.2056C171.79 92.2549 173.27 86.2908 171.296 83.3826C169.569 80.7702 161.672 75.2497 154.565 80.4252C148.149 85.1571 152.443 94.9166 153.973 97.9233C154.319 98.5641 154.812 99.057 155.503 99.3035C156.638 99.7471 159.501 100.536 160.685 99.6978Z" fill="#151F36"/>
<path d="M152.046 87.9659C150.861 88.1138 149.627 87.5223 148.986 86.5365C148.393 87.6209 147.703 88.7545 146.617 89.346C145.531 89.9375 143.853 89.6911 143.409 88.5081C142.175 89.7896 140.596 90.7262 138.819 91.1205C138.276 91.2191 137.684 91.3177 137.19 91.0219C136.055 90.3811 136.4 88.6067 137.338 87.6701C138.276 86.7336 139.559 86.1914 140.201 85.107C139.51 83.7269 140.645 81.7553 142.224 81.706C141.78 81.4596 141.484 81.0159 141.385 80.523C140.694 81.4595 138.967 80.9666 138.819 79.8823C137.585 80.6709 136.154 81.1638 134.722 81.2624C134.229 81.3117 133.637 81.2624 133.242 80.9667C132.6 80.4737 132.699 79.3894 133.242 78.7486C133.785 78.1078 134.574 77.8121 135.315 77.5163C135.364 76.3333 136.203 75.1997 137.338 74.8053C138.473 74.411 139.855 74.8053 140.596 75.6926C140.25 75.0518 140.842 74.2631 141.533 74.066C142.224 73.9181 142.965 74.1646 143.606 74.5096C144.248 74.8546 144.84 75.249 145.58 75.3968C144.495 74.756 143.754 73.4745 143.804 72.1929C143.113 72.538 142.274 72.6858 141.632 72.2422C140.99 71.7986 141.04 70.6156 141.78 70.4185C141.04 70.3199 140.25 70.2706 139.608 69.827C138.967 69.3834 138.572 68.4962 138.967 67.8554C139.411 67.116 140.447 67.0667 141.336 67.2639C143.162 67.6582 144.84 68.5947 146.123 69.9749C146.962 68.8905 148.739 68.9398 149.825 69.7284C150.96 70.5171 151.552 71.8479 152.144 73.0802C152.243 72.3901 153.033 71.9465 153.724 72.0944C154.415 72.1929 154.958 72.7351 155.402 73.2773C156.833 75.0025 157.475 77.3684 157.129 79.5865C158.511 79.2415 159.695 81.0159 159.35 82.3961C158.807 84.7127 157.425 84.5649 155.648 85.0578C154.069 85.5014 154.069 87.7194 152.046 87.9659Z" fill="#151F36"/>
<path d="M170.704 117.097C170.704 117.097 175.739 137.947 177.022 143.418C173.962 143.221 172.185 143.171 170.112 143.024C168.632 138.637 166.657 134.989 165.67 131.145C161.525 115.027 166.559 108.225 170.704 117.097Z" fill="#8592AC"/>
<path fill-rule="evenodd" clip-rule="evenodd" d="M167.736 134.365C167.51 138.327 167.46 142.745 167.743 147.707C167.793 148.544 167.201 149.284 166.51 149.727C160.044 154.016 145.534 156.332 137.983 149.727C137.539 149.333 137.144 148.791 137.144 148.199C136.7 134.447 139.809 115.323 143.264 108.718C144.646 106.056 146.077 104.331 150.173 103.641C155.356 102.754 162.166 104.824 165.276 106.894C165.459 107.018 165.671 107.156 165.902 107.305C166.434 107.651 167.067 108.062 167.681 108.522C168.939 109.012 170.132 110.516 170.706 112.907C170.706 112.907 173.47 122.519 175.592 130.109C175.839 130.996 173.519 132.771 171.002 133.658C169.889 134.048 168.737 134.284 167.736 134.365Z" fill="white"/>
<path d="M167.736 134.366C167.51 138.327 167.46 142.746 167.743 147.707C167.793 148.544 167.201 149.284 166.51 149.727C160.044 154.016 145.534 156.332 137.983 149.727C137.539 149.333 137.144 148.791 137.144 148.199C136.7 134.447 139.809 115.323 143.264 108.718C144.646 106.056 146.077 104.331 150.173 103.641C155.356 102.754 162.166 104.824 165.276 106.894C165.459 107.018 165.671 107.156 165.902 107.305C166.435 107.652 167.068 108.063 167.684 108.524C168.94 109.015 170.132 110.518 170.705 112.907C170.705 112.907 173.469 122.519 175.591 130.11C175.838 130.997 173.518 132.771 171.001 133.659C169.888 134.049 168.737 134.284 167.736 134.366Z" fill="white"/>
<mask id="mask0" mask-type="alpha" maskUnits="userSpaceOnUse" x="137" y="103" width="39" height="51">
<path d="M167.736 134.366C167.51 138.327 167.46 142.746 167.743 147.707C167.793 148.544 167.201 149.284 166.51 149.727C160.044 154.016 145.534 156.332 137.983 149.727C137.539 149.333 137.144 148.791 137.144 148.199C136.7 134.447 139.809 115.323 143.264 108.718C144.646 106.056 146.077 104.331 150.173 103.641C155.356 102.754 162.166 104.824 165.276 106.894C165.459 107.018 165.671 107.156 165.902 107.305C166.435 107.652 167.068 108.063 167.684 108.524C168.94 109.015 170.132 110.518 170.705 112.907C170.705 112.907 173.469 122.519 175.591 130.11C175.838 130.997 173.518 132.771 171.001 133.659C169.888 134.049 168.737 134.284 167.736 134.366Z" fill="white"/>
</mask>
<g mask="url(#mask0)">
<path fill-rule="evenodd" clip-rule="evenodd" d="M169.731 120.297C171.874 120.297 173.571 118.6 173.571 116.502C173.571 114.403 171.83 112.707 169.731 112.707C167.588 112.707 165.891 114.403 165.891 116.502C165.847 118.6 167.588 120.297 169.731 120.297ZM169.731 119.225C171.249 119.225 172.499 118.02 172.499 116.502C172.499 114.984 171.249 113.778 169.731 113.778C168.213 113.778 166.963 114.984 166.963 116.502C166.963 117.975 168.169 119.225 169.731 119.225Z" fill="#5C9EFF"/>
<path fill-rule="evenodd" clip-rule="evenodd" d="M162.341 109.776C164.484 109.776 166.18 108.079 166.18 105.981C166.18 103.882 164.439 102.186 162.341 102.186C160.197 102.186 158.501 103.882 158.501 105.981C158.456 108.079 160.197 109.776 162.341 109.776ZM162.341 108.705C163.859 108.705 165.109 107.499 165.109 105.981C165.109 104.463 163.859 103.257 162.341 103.257C160.823 103.257 159.572 104.463 159.572 105.981C159.572 107.454 160.778 108.705 162.341 108.705Z" fill="#5C9EFF"/>
<path fill-rule="evenodd" clip-rule="evenodd" d="M153.755 119.329C155.898 119.329 157.594 117.633 157.594 115.534C157.594 113.436 155.853 111.739 153.755 111.739C151.612 111.739 149.915 113.436 149.915 115.534C149.87 117.633 151.612 119.329 153.755 119.329ZM153.755 118.258C155.273 118.258 156.523 117.052 156.523 115.534C156.523 114.016 155.273 112.811 153.755 112.811C152.237 112.811 150.986 114.016 150.986 115.534C150.986 117.008 152.192 118.258 153.755 118.258Z" fill="#5C9EFF"/>
<path fill-rule="evenodd" clip-rule="evenodd" d="M146.02 110.059C148.163 110.059 149.86 108.363 149.86 106.264C149.86 104.166 148.119 102.469 146.02 102.469C143.877 102.469 142.181 104.166 142.181 106.264C142.136 108.363 143.877 110.059 146.02 110.059ZM146.02 108.988C147.538 108.988 148.789 107.782 148.789 106.264C148.789 104.746 147.538 103.541 146.02 103.541C144.502 103.541 143.252 104.746 143.252 106.264C143.252 107.738 144.458 108.988 146.02 108.988Z" fill="#5C9EFF"/>
<path fill-rule="evenodd" clip-rule="evenodd" d="M140.446 125.415C142.589 125.415 144.286 123.718 144.286 121.62C144.286 119.521 142.545 117.824 140.446 117.824C138.303 117.824 136.606 119.521 136.606 121.62C136.562 123.718 138.303 125.415 140.446 125.415ZM140.446 124.343C141.964 124.343 143.214 123.138 143.214 121.62C143.214 120.102 141.964 118.896 140.446 118.896C138.928 118.896 137.678 120.102 137.678 121.62C137.678 123.093 138.883 124.343 140.446 124.343Z" fill="#5C9EFF"/>
<path fill-rule="evenodd" clip-rule="evenodd" d="M160.696 130.93C162.839 130.93 164.536 129.233 164.536 127.135C164.536 125.036 162.795 123.34 160.696 123.34C158.553 123.34 156.856 125.036 156.856 127.135C156.812 129.233 158.553 130.93 160.696 130.93ZM160.696 129.859C162.214 129.859 163.464 128.653 163.464 127.135C163.464 125.617 162.214 124.411 160.696 124.411C159.178 124.411 157.928 125.617 157.928 127.135C157.928 128.608 159.133 129.859 160.696 129.859Z" fill="#5C9EFF"/>
<path fill-rule="evenodd" clip-rule="evenodd" d="M174.341 133.717C176.484 133.717 178.18 132.02 178.18 129.922C178.18 127.823 176.439 126.126 174.341 126.126C172.197 126.126 170.501 127.823 170.501 129.922C170.456 132.02 172.197 133.717 174.341 133.717ZM174.341 132.645C175.859 132.645 177.109 131.44 177.109 129.922C177.109 128.404 175.859 127.198 174.341 127.198C172.823 127.198 171.572 128.404 171.572 129.922C171.572 131.395 172.778 132.645 174.341 132.645Z" fill="#5C9EFF"/>
<path fill-rule="evenodd" clip-rule="evenodd" d="M147.212 135.479C149.355 135.479 151.052 133.783 151.052 131.684C151.052 129.586 149.31 127.889 147.212 127.889C145.069 127.889 143.372 129.586 143.372 131.684C143.327 133.783 145.069 135.479 147.212 135.479ZM147.212 134.408C148.73 134.408 149.98 133.202 149.98 131.684C149.98 130.166 148.73 128.96 147.212 128.96C145.694 128.96 144.444 130.166 144.444 131.684C144.444 133.157 145.649 134.408 147.212 134.408Z" fill="#5C9EFF"/>
<path fill-rule="evenodd" clip-rule="evenodd" d="M165.981 144.806C168.124 144.806 169.821 143.109 169.821 141.01C169.821 138.912 168.08 137.215 165.981 137.215C163.838 137.215 162.141 138.912 162.141 141.01C162.097 143.109 163.838 144.806 165.981 144.806ZM165.981 143.734C167.499 143.734 168.749 142.529 168.749 141.01C168.749 139.492 167.499 138.287 165.981 138.287C164.463 138.287 163.213 139.492 163.213 141.01C163.213 142.484 164.419 143.734 165.981 143.734Z" fill="#5C9EFF"/>
<path fill-rule="evenodd" clip-rule="evenodd" d="M153.352 147.196C155.495 147.196 157.192 145.499 157.192 143.401C157.192 141.302 155.451 139.606 153.352 139.606C151.209 139.606 149.513 141.302 149.513 143.401C149.468 145.499 151.209 147.196 153.352 147.196ZM153.352 146.124C154.87 146.124 156.121 144.919 156.121 143.401C156.121 141.883 154.87 140.677 153.352 140.677C151.834 140.677 150.584 141.883 150.584 143.401C150.584 144.874 151.79 146.124 153.352 146.124Z" fill="#5C9EFF"/>
<path fill-rule="evenodd" clip-rule="evenodd" d="M137.204 145.034C139.347 145.034 141.044 143.337 141.044 141.239C141.044 139.14 139.302 137.444 137.204 137.444C135.061 137.444 133.364 139.14 133.364 141.239C133.319 143.337 135.061 145.034 137.204 145.034ZM137.204 143.962C138.722 143.962 139.972 142.757 139.972 141.239C139.972 139.721 138.722 138.515 137.204 138.515C135.686 138.515 134.436 139.721 134.436 141.239C134.436 142.712 135.641 143.962 137.204 143.962Z" fill="#5C9EFF"/>
<path fill-rule="evenodd" clip-rule="evenodd" d="M143.915 157.09C146.058 157.09 147.755 155.393 147.755 153.295C147.755 151.196 146.013 149.5 143.915 149.5C141.772 149.5 140.075 151.196 140.075 153.295C140.03 155.393 141.772 157.09 143.915 157.09ZM143.915 156.018C145.433 156.018 146.683 154.813 146.683 153.295C146.683 151.777 145.433 150.571 143.915 150.571C142.397 150.571 141.147 151.777 141.147 153.295C141.147 154.768 142.352 156.018 143.915 156.018Z" fill="#5C9EFF"/>
<path fill-rule="evenodd" clip-rule="evenodd" d="M162.227 156.178C164.37 156.178 166.067 154.482 166.067 152.383C166.067 150.285 164.326 148.588 162.227 148.588C160.084 148.588 158.388 150.285 158.388 152.383C158.343 154.482 160.084 156.178 162.227 156.178ZM162.227 155.107C163.745 155.107 164.996 153.901 164.996 152.383C164.996 150.865 163.745 149.66 162.227 149.66C160.709 149.66 159.459 150.865 159.459 152.383C159.459 153.857 160.665 155.107 162.227 155.107Z" fill="#5C9EFF"/>
</g>
<g style="mix-blend-mode:multiply">
<path fill-rule="evenodd" clip-rule="evenodd" d="M166.42 144.566C166.147 139.799 166.196 135.552 166.413 131.746C167.374 131.668 168.481 131.441 169.55 131.066C170.591 130.7 171.596 130.175 172.385 129.628C172.383 129.613 172.379 129.598 172.375 129.584C170.336 122.289 167.68 113.052 167.68 113.052C167.129 110.756 165.984 109.311 164.776 108.84C164.185 108.397 163.576 108.001 163.064 107.668L163.063 107.668C162.842 107.525 162.638 107.392 162.462 107.273C159.474 105.284 152.929 103.294 147.949 104.147C145.891 104.493 144.533 105.112 143.516 105.989C143.302 106.337 143.098 106.707 142.895 107.098C139.575 113.445 136.587 131.824 137.013 145.04C137.013 145.608 137.393 146.129 137.82 146.508C145.076 152.856 159.021 150.629 165.234 146.508C165.898 146.082 166.467 145.372 166.42 144.566Z" fill="#C1C8D5"/>
</g>
<path d="M130.136 311.695C131.222 312.188 131.468 316.427 132.11 318.891C132.998 322.243 140.895 320.074 141.092 322.588C141.29 325.102 142.08 335.058 142.721 335.749C143.363 336.488 148.002 334.763 148.989 337.572C150.42 341.565 139.414 349.205 135.713 350.289C132.011 351.324 130.284 348.86 128.853 345.853C127.619 343.191 122.042 324.362 121.252 320.37C120.413 316.377 121.647 315.687 123.177 314.554C124.904 313.321 128.803 311.103 130.136 311.695Z" fill="#2C80FC"/>
<path d="M132.009 345.854C131.071 343.193 129.393 330.476 127.37 322.442C125.741 315.985 123.274 315.344 121.595 316.034C121.053 316.872 120.855 318.055 121.299 320.371C122.138 324.364 127.666 343.193 128.9 345.854C130.331 348.91 132.059 351.375 135.76 350.291C135.809 350.291 135.908 350.241 135.957 350.241C134.526 349.847 132.749 348.023 132.009 345.854Z" fill="#151F36"/>
<path d="M180.585 308.872C178.759 309.316 173.304 311.342 171.181 311.046C168.664 310.701 175.816 316.202 168.395 319.273C165.878 318.78 161.979 317.104 161.041 317.892C159.906 318.829 159.61 324.645 160.745 327.553C161.387 329.278 165.828 330.166 168.888 327.948C171.603 325.976 173.922 323.314 176.637 322.526C185.373 319.963 186.853 317.597 188.679 314.294C190.302 309.818 183.796 307.782 180.585 308.872Z" fill="#2C80FC"/>
<path fill-rule="evenodd" clip-rule="evenodd" d="M266.541 254.889C265.665 251.444 264.147 246.693 262.673 243.994C260.396 239.903 257.524 239.074 255.688 240.055C253.88 241.037 252.828 244.039 254.71 247.68C256.253 250.764 259.504 255.187 266.295 259.229C266.135 262.56 266.098 265.485 266.107 267.809C264.519 263.521 261.406 258.2 256.909 254.23C253.851 251.482 248.68 250.717 246.511 252.727C245.414 253.704 244.214 256.209 248.332 261.753C250.899 265.334 257.626 271.425 266.125 271.556C266.147 272.596 266.183 273.2 266.182 273.227L267.01 273.227C267.01 273.2 266.969 272.567 266.947 271.527C267.33 271.512 267.961 271.45 268.785 271.339C271.009 271.026 274.749 270.351 278.518 268.775C285.366 265.791 289.396 261.98 289.339 258.588C289.308 257.849 288.808 257.204 288.005 256.659C285.967 255.392 281.823 254.988 277.912 256.751C273.863 258.565 270.044 262.601 266.883 268.353C266.874 266.029 266.914 263.022 267.078 259.555C267.106 259.528 267.272 259.451 267.551 259.296C269.358 258.341 276.006 254.777 281.124 250.29C283.15 248.467 283.225 246.091 282.697 244.625C282.169 243.159 280.97 242.164 279.576 242.12C275.946 241.923 270.209 249.563 267.277 255.842C267.442 253.195 267.668 250.358 268.007 247.416C270.314 243.633 271.679 241.078 274.249 235.909C275.912 232.598 276.1 229.213 274.639 226.98C273.805 225.696 272.487 224.998 271.119 225.01C269.996 225.084 268.857 225.649 267.923 226.659C266.166 228.6 265.159 231.931 265.378 235.383C265.636 241.079 266.913 246.561 267.105 247.415C267.13 247.47 267.129 247.525 267.129 247.525L267.153 247.635C266.909 250.17 266.695 252.597 266.541 254.889Z" fill="#151F36"/>
<path d="M315.413 283.418C308.266 282.995 310.385 272.627 304.707 268.785C296.373 263.135 289.876 266.864 285.497 271.893C283.265 274.435 278.915 276.723 275.977 275.085C270.158 271.836 264.338 271.723 260.412 275.085C254.903 279.802 255.835 287.797 246.711 287.797C237.586 287.797 234.168 291.102 234.168 292.938H329.962C329.962 292.967 331.741 284.379 315.413 283.418Z" fill="#151F36"/>
<defs>
<linearGradient id="paint0_linear" x1="336.335" y1="138.315" x2="319.968" y2="198.63" gradientUnits="userSpaceOnUse">
<stop stop-color="#8592AC"/>
<stop offset="1" stop-color="#5D6473"/>
</linearGradient>
<linearGradient id="paint1_linear" x1="125.105" y1="292.928" x2="125.105" y2="393.589" gradientUnits="userSpaceOnUse">
<stop stop-color="#E2E8F3"/>
<stop offset="1" stop-color="#E2E8F3" stop-opacity="0"/>
</linearGradient>
<linearGradient id="paint2_linear" x1="230.771" y1="202.619" x2="230.771" y2="248.874" gradientUnits="userSpaceOnUse">
<stop stop-color="#DFE6F2"/>
<stop offset="1" stop-color="#DFE6F2" stop-opacity="0.3"/>
</linearGradient>
<linearGradient id="paint3_linear" x1="268.737" y1="110.527" x2="268.737" y2="183.837" gradientUnits="userSpaceOnUse">
<stop stop-color="#DFE6F2"/>
<stop offset="1" stop-color="#DFE6F2" stop-opacity="0.22"/>
</linearGradient>
<linearGradient id="paint4_linear" x1="241.912" y1="67.2715" x2="241.912" y2="140.581" gradientUnits="userSpaceOnUse">
<stop stop-color="#DFE6F2"/>
<stop offset="1" stop-color="#DFE6F2" stop-opacity="0.22"/>
</linearGradient>
<linearGradient id="paint5_linear" x1="75.4803" y1="335.294" x2="75.4803" y2="388.95" gradientUnits="userSpaceOnUse">
<stop stop-color="#E2E8F3"/>
<stop offset="1" stop-color="#E2E8F3" stop-opacity="0"/>
</linearGradient>
</defs>
</svg>
