<svg width="320" height="219" viewBox="0 0 320 219" fill="none" xmlns="http://www.w3.org/2000/svg">
<g clip-path="url(#clip0)">
<path d="M155.763 10.974H155.392V10.323H155.67C155.719 10.323 155.767 10.3034 155.801 10.2685C155.836 10.2336 155.856 10.1863 155.856 10.137V6.78899C155.856 6.73966 155.836 6.69236 155.801 6.65747C155.767 6.62259 155.719 6.603 155.67 6.60299H155.392V4.70162C155.392 4.16968 155.288 3.64295 155.085 3.15151C154.882 2.66006 154.585 2.21352 154.21 1.83739C153.835 1.46125 153.39 1.16289 152.9 0.959327C152.41 0.755766 151.885 0.650996 151.355 0.650999H150.943V0.186C150.943 0.13667 150.924 0.0893598 150.889 0.054478C150.854 0.0195963 150.807 0 150.758 0H147.421C147.372 0 147.325 0.0195963 147.29 0.054478C147.255 0.0893598 147.236 0.13667 147.236 0.186V0.650999H86.9472C86.417 0.650996 85.8921 0.755766 85.4023 0.959327C84.9125 1.16289 84.4674 1.46125 84.0926 1.83739C83.7177 2.21352 83.4203 2.66006 83.2175 3.15151C83.0146 3.64295 82.9102 4.16968 82.9102 4.70162V90.9023C82.9102 91.4342 83.0146 91.961 83.2174 92.4524C83.4203 92.9439 83.7177 93.3904 84.0926 93.7665C84.4674 94.1427 84.9125 94.441 85.4023 94.6446C85.8921 94.8482 86.417 94.9529 86.9472 94.9529H151.355C151.885 94.9529 152.41 94.8482 152.9 94.6446C153.39 94.441 153.835 94.1427 154.21 93.7665C154.585 93.3904 154.882 92.9439 155.085 92.4524C155.288 91.961 155.392 91.4342 155.392 90.9023V14.694H155.763C155.812 14.694 155.859 14.6744 155.894 14.6395C155.929 14.6046 155.948 14.5573 155.948 14.508V11.16C155.948 11.1107 155.929 11.0633 155.894 11.0285C155.859 10.9936 155.812 10.974 155.763 10.974Z" fill="#3F3D56"/>
<path d="M152.611 3.30029H86.2461V91.6521H152.611V3.30029Z" fill="#F6F8FC"/>
<path d="M320 184.654H0V185.207H320V184.654Z" fill="#3F3D56"/>
<path d="M74.7317 157.08C75.3495 178.308 62.9878 186.087 47.4741 186.542C47.1137 186.553 46.755 186.559 46.3979 186.561C45.6785 186.567 44.966 186.555 44.2605 186.525C30.23 185.941 19.124 178.468 18.5494 158.726C17.9547 138.296 43.2282 111.751 45.1244 109.787C45.1261 109.787 45.1261 109.787 45.1278 109.785C45.1998 109.71 45.2367 109.673 45.2367 109.673C45.2367 109.673 74.1138 135.854 74.7317 157.08Z" fill="#2C80FC"/>
<path d="M46.3564 183.325L56.2112 168.62L46.3766 184.907L46.3971 186.561C45.6777 186.567 44.9653 186.555 44.2598 186.525L44.7486 165.256L44.7352 165.092L44.7532 165.06L44.8 163.05L34.0078 147.329L44.7873 161.546L44.8255 161.971L45.1947 145.902L35.8732 129.602L45.2212 143.079L45.1237 109.787L45.1239 109.676L45.127 109.785L45.7458 136.023L54.2413 125.365L45.7736 138.284L45.959 152.658L53.7766 138.629L45.9878 154.771L46.091 162.763L57.4598 143.222L46.1255 165.552L46.3564 183.325Z" fill="#3F3D56"/>
<path d="M238.86 29.3921H238.45V18.1118C238.45 17.2544 238.281 16.4054 237.954 15.6133C237.627 14.8212 237.148 14.1015 236.544 13.4952C235.94 12.889 235.222 12.4081 234.433 12.08C233.644 11.7519 232.797 11.583 231.943 11.583H208.124C207.27 11.583 206.423 11.7519 205.634 12.08C204.845 12.4081 204.127 12.889 203.523 13.4952C202.919 14.1015 202.439 14.8212 202.112 15.6133C201.785 16.4054 201.617 17.2544 201.617 18.1118V79.9967C201.617 80.8541 201.785 81.703 202.112 82.4951C202.439 83.2872 202.919 84.007 203.523 84.6132C204.127 85.2195 204.845 85.7004 205.634 86.0285C206.423 86.3566 207.27 86.5255 208.124 86.5255H231.943C232.797 86.5255 233.644 86.3566 234.433 86.0285C235.222 85.7004 235.94 85.2195 236.544 84.6132C237.148 84.007 237.627 83.2872 237.954 82.4951C238.281 81.703 238.45 80.8541 238.45 79.9967V37.4217H238.86V29.3921Z" fill="#3F3D56"/>
<path d="M237.065 18.4965V80.2911C237.065 81.5842 236.553 82.8245 235.642 83.739C234.731 84.6536 233.495 85.1675 232.206 85.1677H208.273C206.984 85.1675 205.748 84.6536 204.837 83.739C203.926 82.8245 203.414 81.5842 203.414 80.2911V18.4965C203.414 17.2036 203.926 15.9637 204.837 15.0495C205.748 14.1354 206.984 13.6217 208.273 13.6216H211.176C211.033 13.9733 210.979 14.3548 211.018 14.7327C211.056 15.1105 211.187 15.473 211.398 15.7881C211.609 16.1033 211.895 16.3616 212.229 16.5402C212.563 16.7187 212.935 16.8121 213.314 16.8121H226.96C227.338 16.8121 227.711 16.7187 228.045 16.5402C228.379 16.3616 228.664 16.1034 228.875 15.7882C229.087 15.473 229.217 15.1105 229.256 14.7327C229.295 14.3548 229.24 13.9733 229.097 13.6216H232.206C233.495 13.6217 234.731 14.1354 235.642 15.0495C236.553 15.9637 237.065 17.2036 237.065 18.4965Z" fill="#F6F8FC"/>
<path d="M233.553 21.8364H213.332V22.5903H233.553V21.8364Z" fill="#CCCCCC"/>
<path d="M233.553 24.2251H213.332V24.979H233.553V24.2251Z" fill="#CCCCCC"/>
<path d="M233.553 26.6113H213.332V27.3652H233.553V26.6113Z" fill="#CCCCCC"/>
<path d="M211.503 22.3037H206.922V26.9004H211.503V22.3037Z" fill="#CCCCCC"/>
<path d="M233.553 75.4653H213.332V76.2192H233.553V75.4653Z" fill="#CCCCCC"/>
<path d="M233.553 77.8516H213.332V78.6054H233.553V77.8516Z" fill="#CCCCCC"/>
<path d="M233.553 80.2393H213.332V80.9932H233.553V80.2393Z" fill="#CCCCCC"/>
<path d="M211.503 75.9302H206.922V80.5269H211.503V75.9302Z" fill="#CCCCCC"/>
<path d="M231.394 105.199H173.891V104.01H147.817V105.199H90.0771C89.5663 105.199 89.0606 105.3 88.5886 105.496C88.1167 105.692 87.6879 105.98 87.3267 106.342C86.9656 106.704 86.6791 107.135 86.4836 107.608C86.2881 108.082 86.1875 108.589 86.1875 109.102V188.106C86.1875 189.141 86.5973 190.133 87.3267 190.865C88.0562 191.597 89.0455 192.008 90.0771 192.008H231.394C232.425 192.008 233.415 191.597 234.144 190.865C234.874 190.133 235.284 189.141 235.284 188.106V109.102C235.284 108.589 235.183 108.082 234.987 107.608C234.792 107.135 234.505 106.704 234.144 106.342C233.783 105.98 233.354 105.692 232.882 105.496C232.41 105.3 231.905 105.199 231.394 105.199Z" fill="#3F3D56"/>
<path d="M230.069 112.097H91.4023V190.582H230.069V112.097Z" fill="#F6F8FC"/>
<path d="M160.618 109.957C161.403 109.957 162.04 109.318 162.04 108.53C162.04 107.742 161.403 107.103 160.618 107.103C159.832 107.103 159.195 107.742 159.195 108.53C159.195 109.318 159.832 109.957 160.618 109.957Z" fill="#6C63FF"/>
<path d="M239.177 189.154H225.644V188.176C225.644 188.15 225.639 188.125 225.629 188.102C225.62 188.078 225.605 188.057 225.588 188.039C225.57 188.021 225.548 188.006 225.525 187.997C225.501 187.987 225.476 187.982 225.451 187.982H220.811C220.786 187.982 220.76 187.987 220.737 187.997C220.714 188.006 220.692 188.021 220.674 188.039C220.656 188.057 220.642 188.078 220.632 188.102C220.623 188.125 220.618 188.15 220.618 188.176V189.154H217.718V188.176C217.718 188.15 217.713 188.125 217.703 188.102C217.693 188.078 217.679 188.057 217.661 188.039C217.643 188.021 217.622 188.006 217.598 187.997C217.575 187.987 217.55 187.982 217.524 187.982H212.885C212.859 187.982 212.834 187.987 212.811 187.997C212.787 188.006 212.766 188.021 212.748 188.039C212.73 188.057 212.716 188.078 212.706 188.102C212.696 188.125 212.691 188.15 212.691 188.176V189.154H209.791V188.176C209.791 188.15 209.786 188.125 209.777 188.102C209.767 188.078 209.753 188.057 209.735 188.039C209.717 188.021 209.695 188.006 209.672 187.997C209.648 187.987 209.623 187.982 209.598 187.982H204.958C204.933 187.982 204.908 187.987 204.884 187.997C204.861 188.006 204.839 188.021 204.821 188.039C204.803 188.057 204.789 188.078 204.779 188.102C204.77 188.125 204.765 188.15 204.765 188.176V189.154H201.865V188.176C201.865 188.15 201.86 188.125 201.85 188.102C201.84 188.078 201.826 188.057 201.808 188.039C201.79 188.021 201.769 188.006 201.745 187.997C201.722 187.987 201.697 187.982 201.672 187.982H197.032C197.006 187.982 196.981 187.987 196.958 187.997C196.934 188.006 196.913 188.021 196.895 188.039C196.877 188.057 196.863 188.078 196.853 188.102C196.843 188.125 196.838 188.15 196.838 188.176V189.154H193.938V188.176C193.938 188.15 193.933 188.125 193.924 188.102C193.914 188.078 193.9 188.057 193.882 188.039C193.864 188.021 193.843 188.006 193.819 187.997C193.796 187.987 193.77 187.982 193.745 187.982H189.105C189.08 187.982 189.055 187.987 189.031 187.997C189.008 188.006 188.986 188.021 188.968 188.039C188.951 188.057 188.936 188.078 188.927 188.102C188.917 188.125 188.912 188.15 188.912 188.176V189.154H186.012V188.176C186.012 188.15 186.007 188.125 185.997 188.102C185.988 188.078 185.973 188.057 185.955 188.039C185.937 188.021 185.916 188.006 185.893 187.997C185.869 187.987 185.844 187.982 185.819 187.982H181.179C181.153 187.982 181.128 187.987 181.105 187.997C181.081 188.006 181.06 188.021 181.042 188.039C181.024 188.057 181.01 188.078 181 188.102C180.99 188.125 180.985 188.15 180.985 188.176V189.154H178.086V188.176C178.086 188.15 178.081 188.125 178.071 188.102C178.061 188.078 178.047 188.057 178.029 188.039C178.011 188.021 177.99 188.006 177.966 187.997C177.943 187.987 177.918 187.982 177.892 187.982H141.547C141.521 187.982 141.496 187.987 141.473 187.997C141.449 188.006 141.428 188.021 141.41 188.039C141.392 188.057 141.378 188.078 141.368 188.102C141.358 188.125 141.353 188.15 141.353 188.176V189.154H138.453V188.176C138.453 188.15 138.448 188.125 138.439 188.102C138.429 188.078 138.415 188.057 138.397 188.039C138.379 188.021 138.357 188.006 138.334 187.997C138.311 187.987 138.285 187.982 138.26 187.982H133.62C133.595 187.982 133.57 187.987 133.546 187.997C133.523 188.006 133.501 188.021 133.483 188.039C133.465 188.057 133.451 188.078 133.442 188.102C133.432 188.125 133.427 188.15 133.427 188.176V189.154H130.527V188.176C130.527 188.15 130.522 188.125 130.512 188.102C130.502 188.078 130.488 188.057 130.47 188.039C130.452 188.021 130.431 188.006 130.408 187.997C130.384 187.987 130.359 187.982 130.334 187.982H125.694C125.668 187.982 125.643 187.987 125.62 187.997C125.596 188.006 125.575 188.021 125.557 188.039C125.539 188.057 125.525 188.078 125.515 188.102C125.505 188.125 125.5 188.15 125.5 188.176V189.154H122.6V188.176C122.6 188.15 122.595 188.125 122.586 188.102C122.576 188.078 122.562 188.057 122.544 188.039C122.526 188.021 122.505 188.006 122.481 187.997C122.458 187.987 122.433 187.982 122.407 187.982H117.767C117.742 187.982 117.717 187.987 117.693 187.997C117.67 188.006 117.649 188.021 117.631 188.039C117.613 188.057 117.598 188.078 117.589 188.102C117.579 188.125 117.574 188.15 117.574 188.176V189.154H114.674V188.176C114.674 188.15 114.669 188.125 114.659 188.102C114.65 188.078 114.635 188.057 114.617 188.039C114.599 188.021 114.578 188.006 114.555 187.997C114.531 187.987 114.506 187.982 114.481 187.982H109.841C109.815 187.982 109.79 187.987 109.767 187.997C109.743 188.006 109.722 188.021 109.704 188.039C109.686 188.057 109.672 188.078 109.662 188.102C109.653 188.125 109.648 188.15 109.648 188.176V189.154H106.748V188.176C106.748 188.15 106.743 188.125 106.733 188.102C106.723 188.078 106.709 188.057 106.691 188.039C106.673 188.021 106.652 188.006 106.628 187.997C106.605 187.987 106.58 187.982 106.554 187.982H101.914C101.889 187.982 101.864 187.987 101.84 187.997C101.817 188.006 101.796 188.021 101.778 188.039C101.76 188.057 101.746 188.078 101.736 188.102C101.726 188.125 101.721 188.15 101.721 188.176V189.154H98.8212V188.176C98.8212 188.15 98.8162 188.125 98.8065 188.102C98.7967 188.078 98.7825 188.057 98.7645 188.039C98.7466 188.021 98.7253 188.006 98.7018 187.997C98.6784 187.987 98.6532 187.982 98.6278 187.982H93.988C93.9626 187.982 93.9375 187.987 93.914 187.997C93.8905 188.006 93.8692 188.021 93.8513 188.039C93.8333 188.057 93.8191 188.078 93.8094 188.102C93.7996 188.125 93.7946 188.15 93.7946 188.176V189.154H84.9016C83.671 189.154 82.4908 189.645 81.6207 190.518C80.7506 191.391 80.2617 192.575 80.2617 193.81V195.915C80.2617 197.15 80.7506 198.334 81.6207 199.207C82.4909 200.08 83.671 200.57 84.9016 200.57H239.177C240.408 200.57 241.588 200.08 242.458 199.207C243.328 198.334 243.817 197.15 243.817 195.915V193.81C243.817 193.198 243.697 192.593 243.464 192.028C243.231 191.463 242.889 190.95 242.458 190.518C242.027 190.086 241.516 189.743 240.953 189.509C240.39 189.275 239.786 189.154 239.177 189.154Z" fill="#3F3D56"/>
<path d="M186.248 118.243H147.336V119.694H186.248V118.243Z" fill="#E6E6E6"/>
<path d="M186.248 122.838H147.336V124.289H186.248V122.838Z" fill="#E6E6E6"/>
<path d="M186.248 127.432H147.336V128.883H186.248V127.432Z" fill="#E6E6E6"/>
<path d="M186.248 118.243H147.336V119.694H186.248V118.243Z" fill="#CCCCCC"/>
<path d="M186.248 122.838H147.336V124.289H186.248V122.838Z" fill="#CCCCCC"/>
<path d="M186.248 127.432H147.336V128.883H186.248V127.432Z" fill="#CCCCCC"/>
<path d="M143.812 119.141H134.996V127.986H143.812V119.141Z" fill="#CCCCCC"/>
<path d="M186.248 169.935H147.336V171.386H186.248V169.935Z" fill="#CCCCCC"/>
<path d="M186.248 174.53H147.336V175.981H186.248V174.53Z" fill="#CCCCCC"/>
<path d="M186.248 179.124H147.336V180.574H186.248V179.124Z" fill="#CCCCCC"/>
<path d="M143.812 170.833H134.996V179.679H143.812V170.833Z" fill="#CCCCCC"/>
<path d="M254.636 85.4291C252.35 82.9309 249.274 81.3021 245.929 80.8188L247.361 79.5207L245.777 79.4404L243.816 81.218L245.588 83.1847L247.172 83.265L245.985 81.948C249.36 82.4947 252.406 84.2967 254.516 86.9951C256.626 89.6935 257.646 93.0903 257.373 96.5093C257.099 99.9282 255.552 103.118 253.04 105.445C250.528 107.771 247.235 109.062 243.817 109.062V110.168C246.672 110.168 249.466 109.333 251.857 107.766C254.247 106.199 256.131 103.968 257.279 101.344C258.426 98.7203 258.788 95.8181 258.318 92.9919C257.849 90.1657 256.569 87.5378 254.636 85.4291Z" fill="#3F3D56"/>
<path d="M64.3938 85.4291C66.6795 82.9309 69.7557 81.3021 73.1012 80.8188L71.6691 79.5207L73.2534 79.4404L75.2134 81.218L73.4418 83.1847L71.8575 83.265L73.0446 81.948C69.6699 82.4947 66.6242 84.2967 64.5139 86.9951C62.4037 89.6935 61.3838 93.0903 61.6573 96.5093C61.9308 99.9282 63.4776 103.118 65.9897 105.445C68.5018 107.771 71.7949 109.062 75.2133 109.062V110.168C72.3578 110.168 69.564 109.333 67.1733 107.766C64.7826 106.199 62.8984 103.968 61.751 101.344C60.6035 98.7203 60.2423 95.8181 60.7116 92.9919C61.181 90.1657 62.4604 87.5378 64.3938 85.4291Z" fill="#3F3D56"/>
<path d="M145.056 7.67188H106.145V9.12263H145.056V7.67188Z" fill="#CCCCCC"/>
<path d="M145.056 12.2671H106.145V13.7178H145.056V12.2671Z" fill="#CCCCCC"/>
<path d="M145.056 16.8604H106.145V18.3111H145.056V16.8604Z" fill="#CCCCCC"/>
<path d="M102.621 8.56934H93.8047V17.415H102.621V8.56934Z" fill="#CCCCCC"/>
<path d="M144.92 76.5034H106.008V77.9542H144.92V76.5034Z" fill="#CCCCCC"/>
<path d="M144.92 81.0967H106.008V82.5474H144.92V81.0967Z" fill="#CCCCCC"/>
<path d="M144.92 85.6919H106.008V87.1427H144.92V85.6919Z" fill="#CCCCCC"/>
<path d="M102.488 77.3989H93.6719V86.2446H102.488V77.3989Z" fill="#CCCCCC"/>
<path d="M266.279 90.6466L275.066 77.8464C275.066 77.8464 282.718 71.6906 280.525 70.4919C278.332 69.2933 272.59 74.9127 272.59 74.9127C272.59 74.9127 256.026 87.6542 258.757 89.4325C261.489 91.2107 266.279 90.6466 266.279 90.6466Z" fill="#FFB8B8"/>
<path d="M267.559 73.8363H278.938C279.714 69.332 279.714 64.7274 278.938 60.2231H267.559C268.841 64.6697 268.841 69.3897 267.559 73.8363Z" fill="#2C80FC"/>
<path d="M297.141 74.487C293.721 68.6895 286.956 68.4193 286.956 68.4193C286.956 68.4193 280.363 67.5735 276.134 76.4031C272.193 84.6331 266.752 92.5793 275.259 94.5059L276.795 89.7076L277.747 94.8631C278.958 94.9505 280.173 94.9713 281.386 94.9255C290.495 94.6304 299.171 95.0118 298.891 91.732C298.52 87.3719 300.431 80.0654 297.141 74.487Z" fill="#2F2E41"/>
<path d="M278.959 110.223L274.578 120.332L289.91 122.749C289.91 122.749 297.138 112.86 297.795 112.201L278.959 110.223Z" fill="#FFB8B8"/>
<path d="M286.19 88.2463C290.666 88.2463 294.294 84.6059 294.294 80.1151C294.294 75.6244 290.666 71.9839 286.19 71.9839C281.714 71.9839 278.086 75.6244 278.086 80.1151C278.086 84.6059 281.714 88.2463 286.19 88.2463Z" fill="#FFB8B8"/>
<path d="M284.219 86.0492C284.219 86.0492 287.942 94.4002 287.504 95.2793C287.066 96.1583 295.389 90.6642 295.389 90.6642C295.389 90.6642 291.885 84.7306 292.104 83.8516L284.219 86.0492Z" fill="#FFB8B8"/>
<path d="M296.481 89.5655C296.481 89.5655 303.052 85.8295 306.775 96.1583C306.775 96.1583 319.041 110.663 316.851 113.3C314.66 115.937 306.337 106.927 306.337 106.927L301.081 101.433C301.081 101.433 293.634 99.4548 294.291 95.2793C294.948 91.1038 296.481 89.5655 296.481 89.5655Z" fill="#FFB8B8"/>
<path d="M281.151 94.6197L265.819 90.2245C265.819 90.2245 257.715 86.928 257.934 88.9059C258.153 90.8838 272.828 102.092 277.646 101.432C282.465 100.773 281.151 94.6197 281.151 94.6197Z" fill="#FFB8B8"/>
<path d="M289.912 93.0813C289.912 93.0813 284.875 92.422 283.78 93.5208C282.685 94.6196 280.604 93.6307 280.604 93.6307L277.099 100.004C277.099 100.004 274.581 103.63 276.552 107.146C278.523 110.662 275.676 115.277 275.676 115.277C275.676 115.277 291.446 115.277 294.731 117.035C298.016 118.794 301.976 102.366 301.976 102.366C301.976 102.366 297.907 97.3666 299.002 94.29C300.097 91.2133 299.44 88.7959 299.44 88.7959L294.622 89.2354L289.912 93.0813Z" fill="#D0CDE1"/>
<path d="M271.074 190.217L272.827 207.138L279.616 203.622L277.426 188.898L271.074 190.217Z" fill="#FFB8B8"/>
<path d="M296.699 189.997L302.401 205.294L307.876 201.339L301.08 186.48L296.699 189.997Z" fill="#FFB8B8"/>
<path d="M279.616 197.908C279.271 199.146 278.755 200.33 278.083 201.424C276.988 203.182 274.359 202.303 274.359 202.303C274.359 202.303 271.293 199.886 270.636 200.984C269.979 202.083 266.474 207.577 266.474 207.577C266.474 207.577 254.866 217.247 264.722 218.785C274.578 220.323 276.55 213.071 276.55 213.071C276.55 213.071 283.996 210.434 284.215 207.797C284.434 205.16 279.616 197.908 279.616 197.908Z" fill="#2F2E41"/>
<path d="M302.616 201.113C302.616 201.113 299.111 200.014 299.33 201.772C299.549 203.53 300.863 210.562 300.863 210.562C300.863 210.562 298.454 220.452 305.244 218.693C312.034 216.935 312.253 207.486 312.253 207.486C312.253 207.486 315.757 194.959 313.129 194.739C310.5 194.52 304.149 193.86 304.149 193.86C304.149 193.86 308.091 200.233 302.616 201.113Z" fill="#2F2E41"/>
<path d="M295.628 73.9279L288.945 70.415L279.714 71.8522L277.805 80.315L282.558 80.1315L283.886 77.0225V80.0803L286.08 79.9955L287.353 75.0458L288.149 80.315L295.947 80.1552L295.628 73.9279Z" fill="#2F2E41"/>
<path d="M292.322 122.091L273.924 117.915C273.924 117.915 264.725 133.738 263.411 146.924C262.097 160.109 256.183 191.755 265.601 192.195C275.019 192.634 280.495 192.634 280.933 191.755C281.371 190.876 276.334 156.154 276.334 156.154C276.334 156.154 287.066 198.788 292.98 195.931C298.893 193.074 305.464 189.338 305.245 187.14C305.026 184.943 290.789 161.648 290.789 161.648L292.761 141.43C292.761 141.43 295.17 133.298 291.008 125.827L292.322 122.091Z" fill="#2F2E41"/>
<path d="M279.062 116.596H290.442C291.218 112.092 291.218 107.487 290.442 102.983H279.062C280.344 107.429 280.344 112.149 279.062 116.596Z" fill="#2C80FC"/>
<path d="M312.254 106.707L292.98 106.267C292.98 106.267 284.438 99.6745 284.219 103.63C284 107.586 293.199 109.784 293.199 109.784C293.199 109.784 312.975 116.904 316.009 113.783L312.254 106.707Z" fill="#FFB8B8"/>
<path d="M103.551 54.7039C107.182 54.7039 110.125 51.7505 110.125 48.1073C110.125 44.4641 107.182 41.5107 103.551 41.5107C99.9201 41.5107 96.9766 44.4641 96.9766 48.1073C96.9766 51.7505 99.9201 54.7039 103.551 54.7039Z" fill="#2C80FC"/>
<path d="M121.083 53.497C124.05 53.497 126.455 51.0837 126.455 48.1067C126.455 45.1296 124.05 42.7163 121.083 42.7163C118.116 42.7163 115.711 45.1296 115.711 48.1067C115.711 51.0837 118.116 53.497 121.083 53.497Z" fill="#2C80FC"/>
<path d="M138.616 51.386C140.421 51.386 141.885 49.9178 141.885 48.1066C141.885 46.2954 140.421 44.8271 138.616 44.8271C136.811 44.8271 135.348 46.2954 135.348 48.1066C135.348 49.9178 136.811 51.386 138.616 51.386Z" fill="#2C80FC"/>
<path d="M211.852 52.3986C213.76 52.3986 215.306 50.8471 215.306 48.9332C215.306 47.0193 213.76 45.4678 211.852 45.4678C209.945 45.4678 208.398 47.0193 208.398 48.9332C208.398 50.8471 209.945 52.3986 211.852 52.3986Z" fill="#2C80FC"/>
<path d="M221.066 51.6896C222.583 51.6896 223.812 50.456 223.812 48.9344C223.812 47.4127 222.583 46.1792 221.066 46.1792C219.55 46.1792 218.32 47.4127 218.32 48.9344C218.32 50.456 219.55 51.6896 221.066 51.6896Z" fill="#2C80FC"/>
<path d="M230.273 50.7407C231.268 50.7407 232.074 49.9317 232.074 48.9338C232.074 47.9359 231.268 47.127 230.273 47.127C229.279 47.127 228.473 47.9359 228.473 48.9338C228.473 49.9317 229.279 50.7407 230.273 50.7407Z" fill="#2C80FC"/>
<path d="M160.616 164.207C169.136 164.207 176.044 157.276 176.044 148.727C176.044 140.178 169.136 133.247 160.616 133.247C152.095 133.247 145.188 140.178 145.188 148.727C145.188 157.276 152.095 164.207 160.616 164.207Z" fill="#2C80FC"/>
<path d="M166.359 152.132L160.604 140.47L154.879 152.147L158.114 152.142V156.985H163.121V152.136L166.359 152.132Z" fill="#F6F8FC"/>
</g>
<defs>
<clipPath id="clip0">
<rect width="320" height="219" fill="white"/>
</clipPath>
</defs>
</svg>
