<svg width="320" height="282" viewBox="0 0 320 282" fill="none" xmlns="http://www.w3.org/2000/svg">
<g clip-path="url(#clip0)">
<path d="M271.115 104.878C255.897 45.0058 203.313 1.78626 141.591 0.0527587C108.961 -0.863685 74.6244 9.96399 49.6249 47.854C4.93567 115.586 52.3712 162.392 85.442 184.633C101.419 195.399 115.816 208.345 128.214 223.096C150.552 249.617 193.526 282.574 244.706 230.936C281.801 193.509 281.252 144.759 271.115 104.878Z" fill="#F6F8FC"/>
<path d="M159.96 265.117C248.304 265.117 319.921 261.495 319.921 257.027C319.921 252.559 248.304 248.937 159.96 248.937C71.6167 248.937 0 252.559 0 257.027C0 261.495 71.6167 265.117 159.96 265.117Z" fill="#3F3D56"/>
<path d="M257.406 273.558C291.975 273.558 319.999 272.141 319.999 270.393C319.999 268.644 291.975 267.227 257.406 267.227C222.836 267.227 194.812 268.644 194.812 270.393C194.812 272.141 222.836 273.558 257.406 273.558Z" fill="#3F3D56"/>
<path d="M139.238 282C173.807 282 201.831 280.583 201.831 278.835C201.831 277.086 173.807 275.669 139.238 275.669C104.668 275.669 76.6445 277.086 76.6445 278.835C76.6445 280.583 104.668 282 139.238 282Z" fill="#3F3D56"/>
<path d="M239.546 123.168C239.546 123.168 250.179 123.012 247.914 126.212C245.649 129.411 236.859 129.187 236.859 129.187L239.546 123.168Z" fill="#FFB9B9"/>
<path d="M206.839 83.7178L217.6 98.3354L226.904 109.457C226.904 109.457 236.544 119.517 237.619 120.909C238.694 122.3 241.852 121.902 241.18 124.023C240.508 126.143 239.504 129.676 238.455 130.043C237.406 130.41 232.474 129.778 232.112 129.08C231.75 128.382 208.706 115.351 200.483 105.973L192.656 100.658L192.539 91.6657L206.839 83.7178Z" fill="#6C63FF"/>
<path d="M206.839 83.7178L217.6 98.3354L226.904 109.457C226.904 109.457 236.544 119.517 237.619 120.909C238.694 122.3 241.852 121.902 241.18 124.023C240.508 126.143 239.504 129.676 238.455 130.043C237.406 130.41 232.474 129.778 232.112 129.08C231.75 128.382 208.706 115.351 200.483 105.973L192.656 100.658L192.539 91.6657L206.839 83.7178Z" fill="#FF6584"/>
<path opacity="0.1" d="M206.839 83.7178L217.6 98.3354L226.904 109.457C226.904 109.457 236.544 119.517 237.619 120.909C238.694 122.3 241.852 121.902 241.18 124.023C240.508 126.143 239.504 129.676 238.455 130.043C237.406 130.41 232.474 129.778 232.112 129.08C231.75 128.382 208.706 115.351 200.483 105.973L192.656 100.658L192.539 91.6657L206.839 83.7178Z" fill="black"/>
<path d="M211.289 76.9341L213.526 82.2103H215.508L212.695 68.844C212.695 60.2648 208.557 53.0156 199.982 53.0156H199.982C197.106 53.0156 194.349 54.1584 192.316 56.1925C190.283 58.2266 189.141 60.9855 189.141 63.8622V76.9708C189.141 78.3604 189.692 79.6931 190.674 80.6757C191.656 81.6583 192.988 82.2103 194.377 82.2103H209.751L211.289 76.9341Z" fill="#2F2E41"/>
<path d="M174.902 211.827C174.902 211.827 171.738 216.048 171.738 217.103C171.738 218.159 169.98 218.51 168.926 219.565C167.871 220.621 166.816 220.269 167.519 221.324C168.223 222.379 158.73 228.711 158.73 228.711L149.59 240.67L152.051 242.781L159.082 235.394L158.027 248.408L167.871 257.554C167.871 257.554 172.09 258.257 172.441 257.554C172.793 256.85 168.926 249.815 168.926 249.815C168.926 249.815 169.277 243.484 171.387 241.022C172.695 239.482 173.871 237.835 174.902 236.097C174.902 236.097 173.848 234.69 176.309 234.339C178.769 233.987 177.012 231.876 177.012 231.876C177.012 231.876 177.715 231.525 179.824 231.525C181.934 231.525 191.426 221.324 191.426 221.324L174.902 211.827Z" fill="#2F2E41"/>
<path d="M214.277 222.732C214.277 222.732 212.871 227.656 215.332 230.47C217.793 233.284 215.332 232.58 215.332 232.58C215.332 232.58 215.683 234.691 214.277 235.746C212.871 236.801 212.871 238.912 212.871 238.912C212.871 238.912 211.113 242.429 211.464 244.54C211.816 246.65 211.816 257.202 211.816 257.202H215.332V248.057L222.363 257.202H239.941C239.941 257.202 239.589 255.444 237.832 255.092C236.074 254.74 230.8 255.092 229.746 247.705C229.746 247.705 229.394 243.484 228.691 242.781C227.988 242.077 227.285 239.615 227.988 237.856C228.691 236.098 227.988 235.394 229.043 234.691C230.097 233.987 230.449 231.877 229.746 230.822C229.043 229.766 226.933 228.008 229.394 226.952C231.855 225.897 231.855 220.621 231.855 220.621L214.277 222.732Z" fill="#2F2E41"/>
<path d="M191.073 138.314C191.073 138.314 187.206 141.48 192.128 154.494C197.05 167.509 199.159 184.392 199.159 184.392C199.159 184.392 194.237 188.613 194.237 190.724C194.237 192.834 172.44 206.2 173.846 212.18C175.253 218.16 200.917 229.415 203.378 228.712C205.839 228.008 217.792 194.241 217.792 194.241C217.792 194.241 213.221 156.956 212.87 156.605C212.518 156.253 201.971 139.017 201.971 139.017L195.643 126.003L191.073 138.314Z" fill="#2F2E41"/>
<path opacity="0.1" d="M191.073 138.314C191.073 138.314 187.206 141.48 192.128 154.494C197.05 167.509 199.159 184.392 199.159 184.392C199.159 184.392 194.237 188.613 194.237 190.724C194.237 192.834 172.44 206.2 173.846 212.18C175.253 218.16 200.917 229.415 203.378 228.712C205.839 228.008 217.792 194.241 217.792 194.241C217.792 194.241 213.221 156.956 212.87 156.605C212.518 156.253 201.971 139.017 201.971 139.017L195.643 126.003L191.073 138.314Z" fill="black"/>
<path d="M190.721 130.223C190.721 130.223 187.908 140.423 194.588 150.976C201.267 161.528 209.002 183.336 209.002 183.336C209.002 183.336 216.385 206.199 213.221 222.731C213.221 222.731 212.166 224.842 214.978 224.842C217.791 224.842 247.322 224.138 244.861 216.751C242.4 209.365 231.502 174.894 231.502 174.894L217.439 140.072L216.736 129.519L211.463 121.429H200.564L190.721 130.223Z" fill="#2F2E41"/>
<path d="M141.542 140.776C141.542 140.776 130.908 140.776 133.219 143.942C135.531 147.107 144.316 146.756 144.316 146.756L141.542 140.776Z" fill="#FFB9B9"/>
<path d="M197.228 68.1411C197.228 68.1411 197.931 73.0655 195.47 73.769C193.009 74.4725 205.314 79.7486 205.314 79.7486C205.314 79.7486 207.775 71.3068 208.829 70.2516C209.884 69.1963 197.228 68.1411 197.228 68.1411Z" fill="#FFB9B9"/>
<path opacity="0.1" d="M197.228 68.1411C197.228 68.1411 197.931 73.0655 195.47 73.769C193.009 74.4725 205.314 79.7486 205.314 79.7486C205.314 79.7486 207.775 71.3068 208.829 70.2516C209.884 69.1963 197.228 68.1411 197.228 68.1411Z" fill="black"/>
<path d="M207.07 76.2318C207.07 76.2318 196.172 73.0661 195.82 72.0109C195.469 70.9556 193.008 73.4178 191.953 75.1765C190.898 76.9353 188.789 79.0457 187.734 79.0457C186.679 79.0457 178.945 83.6184 177.187 91.7084C176.383 95.4119 175.21 97.5674 174.174 98.8161C173.396 99.836 172.922 101.056 172.809 102.334C172.804 102.393 172.783 102.45 172.75 102.499C172.716 102.547 172.67 102.587 172.617 102.612C171.914 102.964 187.383 117.737 187.383 117.737C187.383 117.737 193.359 116.33 194.414 117.737C195.469 119.144 193.711 121.607 192.656 123.014C191.601 124.42 189.14 131.455 190.547 132.511C191.953 133.566 199.336 123.014 203.554 125.124C207.773 127.234 211.992 125.476 211.992 125.476C211.992 125.476 213.75 131.104 216.562 131.104C219.375 131.104 220.078 126.531 219.023 125.124C217.968 123.717 213.75 120.903 215.859 117.034C217.968 113.165 218.672 106.13 218.672 106.13C218.672 106.13 224.297 99.4468 214.101 91.3567C214.101 91.3567 210.586 81.5079 209.531 80.8044C208.476 80.1009 206.718 79.7492 206.718 79.0457C206.718 78.3422 207.07 76.2318 207.07 76.2318Z" fill="#FF6584"/>
<path d="M173.671 100.852L163.124 115.625L153.984 126.881C153.984 126.881 144.492 137.082 143.437 138.489C142.382 139.895 139.218 139.544 139.921 141.654C140.624 143.765 141.679 147.282 142.734 147.634C143.788 147.986 148.71 147.282 149.062 146.579C149.413 145.875 172.265 132.509 180.351 123.012L188.099 117.583L188.085 108.59L173.671 100.852Z" fill="#FF6584"/>
<path d="M194.974 118.116L215.352 118.766C215.582 118.773 215.801 118.869 215.961 119.035C216.121 119.2 216.211 119.421 216.211 119.651V119.976C216.211 120.096 216.187 120.214 216.14 120.324C216.093 120.434 216.024 120.534 215.937 120.616C215.851 120.699 215.749 120.763 215.637 120.805C215.525 120.847 215.406 120.866 215.286 120.861L194.908 119.885C194.68 119.875 194.465 119.777 194.308 119.612C194.15 119.448 194.063 119.228 194.062 119.001C194.063 118.882 194.086 118.765 194.132 118.656C194.179 118.547 194.246 118.448 194.331 118.365C194.416 118.283 194.517 118.218 194.627 118.175C194.738 118.132 194.855 118.112 194.974 118.116Z" fill="#2F2E41"/>
<path d="M215.859 121.957C216.054 121.957 216.211 121.091 216.211 120.022C216.211 118.954 216.054 118.088 215.859 118.088C215.665 118.088 215.508 118.954 215.508 120.022C215.508 121.091 215.665 121.957 215.859 121.957Z" fill="#2F2E41"/>
<path d="M204.258 73.7689C209.694 73.7689 214.101 69.3594 214.101 63.9201C214.101 58.4807 209.694 54.0713 204.258 54.0713C198.821 54.0713 194.414 58.4807 194.414 63.9201C194.414 69.3594 198.821 73.7689 204.258 73.7689Z" fill="#FFB9B9"/>
<path d="M208.372 53.486C206.465 53.0023 201.942 53.0157 201.281 53.0157C199.686 53.0157 198.108 53.3298 196.635 53.9402C195.162 54.5506 193.824 55.4453 192.696 56.5732C191.569 57.7011 190.675 59.04 190.065 60.5137C189.455 61.9873 189.141 63.5668 189.141 65.1618L184.57 82.2103H193.466L195.117 75.8789L197.461 82.2103H201.939L202.324 78.4057L203.84 82.2103H208.828C205.092 73.753 203.105 66.044 208.013 61.2859C211.327 61.7376 214.123 60.8494 214.578 59.0515C215.103 56.9802 212.324 54.4884 208.372 53.486Z" fill="#2F2E41"/>
<path d="M11.5664 113.726C10.7007 113.73 9.8494 113.505 9.09824 113.074C8.34708 112.644 7.72261 112.023 7.28773 111.274C6.85285 110.525 6.62292 109.674 6.6211 108.808C6.61929 107.942 6.84564 107.091 7.27737 106.34C13.5352 95.7875 32.5546 71.1304 74.1092 71.1304C92.1091 71.1304 107.894 75.9141 121.007 85.3408C131.8 93.0791 137.847 101.838 140.73 106.058C141.096 106.591 141.352 107.191 141.485 107.823C141.617 108.455 141.623 109.107 141.502 109.742C141.381 110.376 141.136 110.981 140.78 111.52C140.424 112.059 139.965 112.522 139.429 112.882C138.34 113.613 137.007 113.886 135.718 113.642C134.429 113.399 133.287 112.659 132.539 111.581C127.3 103.983 111.41 80.9088 74.1092 80.9088C37.6874 80.9088 21.2344 102.154 15.8555 111.264C15.4268 112.022 14.8025 112.65 14.0479 113.083C13.2933 113.516 12.4363 113.738 11.5664 113.726Z" fill="#2C80FC"/>
<path d="M95.0271 210.245C94.6126 210.25 94.1992 210.203 93.7966 210.104C63.6678 202.542 52.4178 172.081 51.9608 170.815L51.8905 170.533C51.6444 169.654 45.5976 148.76 54.8788 136.52C59.1327 130.927 65.6014 128.078 74.1443 128.078C82.0896 128.078 87.8201 130.575 91.7575 135.746C94.9919 139.967 96.2927 145.173 97.5583 150.202C100.195 160.649 102.093 166.136 113.062 166.699C117.879 166.945 121.043 164.096 122.836 161.669C127.687 155.057 128.531 144.258 124.875 134.761C120.164 122.45 103.5 99.2702 74.1092 99.2702C61.5584 99.2702 50.0272 103.35 40.7812 111.018C33.1171 117.385 27.0351 126.354 24.1172 135.57C18.7031 152.735 25.8047 179.714 25.875 179.96C26.0402 180.584 26.0802 181.234 25.9926 181.873C25.9049 182.512 25.6915 183.128 25.3645 183.684C25.0376 184.24 24.6036 184.726 24.0878 185.113C23.5719 185.5 22.9845 185.781 22.3594 185.94C21.0916 186.274 19.7432 186.097 18.6052 185.445C17.4673 184.794 16.6311 183.72 16.2773 182.457C15.9609 181.226 8.36722 152.454 14.625 132.615C21.4453 111.124 42.4687 89.4565 74.1092 89.4565C88.7341 89.4565 102.55 94.4865 114.082 103.984C123.011 111.37 130.324 121.289 134.121 131.208C138.972 143.871 137.671 158.082 130.816 167.368C126.246 173.558 119.742 176.794 112.535 176.442C93.7615 175.493 90.3865 162.232 87.9255 152.559C85.3943 142.64 83.7771 137.856 74.1092 137.856C68.8006 137.856 65.074 139.334 62.7537 142.394C59.5897 146.58 59.3436 153.122 59.6952 157.87C59.6987 157.92 59.7023 157.97 59.7059 158.019C60.171 164.06 61.9993 169.917 65.0533 175.149C69.9337 183.569 79.8332 196.481 96.2575 200.607C96.8847 200.759 97.4755 201.034 97.9959 201.416C98.5163 201.797 98.9559 202.279 99.2894 202.831C99.6228 203.384 99.8434 203.997 99.9385 204.636C100.034 205.275 100.001 205.926 99.8435 206.552C99.5578 207.611 98.9313 208.547 98.0607 209.215C97.1901 209.882 96.1239 210.244 95.0271 210.245Z" fill="#2C80FC"/>
<path d="M56.3551 207.994C55.6783 207.995 55.0085 207.858 54.3861 207.592C53.7637 207.326 53.2017 206.936 52.734 206.447C40.6755 193.643 33.8552 179.327 31.2888 161.424V161.318C29.8474 149.464 31.9568 132.686 42.2927 121.149C49.9215 112.637 60.6441 108.311 74.1089 108.311C90.0347 108.311 102.55 115.803 110.355 129.943C113.882 136.446 116.193 143.538 117.175 150.871C117.291 152.172 116.891 153.466 116.06 154.473C115.23 155.481 114.037 156.121 112.738 156.255C111.44 156.389 110.141 156.006 109.123 155.19C108.105 154.373 107.448 153.188 107.296 151.891C106.441 145.76 104.475 139.836 101.496 134.41C95.4487 123.611 86.2378 118.124 74.0738 118.124C63.5621 118.124 55.3356 121.325 49.6754 127.656C41.5192 136.767 39.9372 150.801 41.0622 160.087C43.3122 175.915 49.3239 188.508 59.941 199.764C60.3843 200.232 60.7299 200.785 60.9577 201.388C61.1856 201.992 61.2911 202.635 61.2682 203.28C61.2453 203.925 61.0944 204.559 60.8243 205.145C60.5542 205.73 60.1703 206.257 59.6949 206.693C58.7813 207.526 57.5911 207.99 56.3551 207.994Z" fill="#2C80FC"/>
<path d="M74.1797 162.056C77.6746 162.056 80.5077 159.221 80.5077 155.724C80.5077 152.228 77.6746 149.393 74.1797 149.393C70.6847 149.393 67.8516 152.228 67.8516 155.724C67.8516 159.221 70.6847 162.056 74.1797 162.056Z" fill="#2C80FC"/>
</g>
<defs>
<clipPath id="clip0">
<rect width="320" height="282" fill="white"/>
</clipPath>
</defs>
</svg>
