<svg width="308" height="250" viewBox="0 0 308 250" fill="none" xmlns="http://www.w3.org/2000/svg">
<g clip-path="url(#clip0)">
<path d="M207.51 229.59C193.175 229.628 178.853 228.689 164.645 226.779C164.181 226.72 163.711 226.654 163.244 226.584C159.756 226.088 156.267 225.52 152.875 224.898C137.609 222.104 123.214 218.024 110.089 212.77C66.4103 195.286 38.9478 199.007 23.6014 205.207C6.99314 211.917 0.608865 222.895 0.546288 223.005L0 222.695C0.0633384 222.583 6.52998 211.442 23.3196 204.643C33.1637 200.657 44.5837 198.915 57.265 199.463C73.0944 200.149 90.9454 204.43 110.322 212.186C123.408 217.424 137.763 221.493 152.988 224.279C156.372 224.9 159.853 225.467 163.334 225.962C163.799 226.031 164.265 226.097 164.727 226.156C203.241 231.458 240.396 228.26 264.784 224.645C284.885 221.665 297.821 218.181 297.95 218.146L298.114 218.753C297.986 218.788 285.017 222.281 264.876 225.267C245.884 228.098 226.711 229.542 207.51 229.59Z" fill="#3F3D56"/>
<path d="M207.553 49.1819C196.48 49.1821 185.7 48.6635 175.299 47.6269C151.4 45.245 129.46 40.1058 110.089 32.3519C66.4103 14.8679 38.9478 18.5887 23.6014 24.7892C6.99314 31.4991 0.608865 42.4776 0.546288 42.5876L0 42.2773C0.0633384 42.1655 6.52998 31.0239 23.3196 24.2252C33.1638 20.2388 44.5837 18.496 57.265 19.0457C73.0944 19.7316 90.9454 24.012 110.322 31.7681C154.069 49.2795 202.749 49.9677 235.883 47.4635C271.797 44.7479 297.693 37.7986 297.95 37.7288L298.114 38.3353C297.857 38.4054 271.914 45.3682 235.944 48.0892C226.313 48.8177 216.83 49.1819 207.553 49.1819Z" fill="#3F3D56"/>
<path d="M205.927 3.03928C205.927 3.03928 193.578 -1.37419 185.639 16.2797C177.701 33.9336 165.352 53.3529 165.352 53.3529L172.408 55.1183C172.408 55.1183 174.172 42.7606 178.583 40.9952L176.818 56.8837C176.818 56.8837 229.743 75.4203 253.558 55.1183L252.676 48.9395C252.676 48.9395 256.205 49.8221 256.205 55.1183L258.851 52.4702C258.851 52.4702 256.205 47.1741 248.266 40.1125C243.055 35.4776 241.265 26.6597 240.65 21.1467C240.189 16.5432 238.348 12.1866 235.369 8.6483C230.094 2.52983 220.481 -3.97324 205.927 3.03928Z" fill="#2F2E41"/>
<path d="M280.876 102.936C280.876 102.936 304.114 122.771 307.532 134.398C310.949 146.026 294.546 147.393 294.546 147.393L259.005 150.813C259.005 150.813 258.322 167.228 252.17 169.28C246.019 171.332 250.921 142.136 250.921 142.136L285.66 132.346L269.941 115.931L280.876 102.936Z" fill="#FBBEBE"/>
<path d="M172.205 123.455L169.471 159.704L154.435 221.261C154.435 221.261 140.765 249.303 152.384 249.987C164.003 250.671 163.32 223.313 163.32 223.313L185.191 165.176L187.242 125.506L172.205 123.455Z" fill="#FBBEBE"/>
<path d="M210.48 59.8464C222.937 59.8464 233.035 49.7412 233.035 37.2758C233.035 24.8103 222.937 14.7051 210.48 14.7051C198.024 14.7051 187.926 24.8103 187.926 37.2758C187.926 49.7412 198.024 59.8464 210.48 59.8464Z" fill="#FBBEBE"/>
<path d="M200.229 48.2197C200.229 48.2197 208.43 77.63 195.444 85.1536C182.458 92.6771 228.251 98.1488 240.554 75.5781C240.554 75.5781 218.682 68.0546 224.834 48.2197H200.229Z" fill="#FBBEBE"/>
<path d="M184.505 88.572L180.405 87.2041C180.405 87.2041 172.203 90.6239 172.203 96.7796C172.203 102.935 170.836 127.558 170.836 127.558L189.29 129.61L184.505 88.572Z" fill="#2C80FC"/>
<path d="M264.829 224.956C239.598 228.697 202.824 231.717 164.687 226.468C164.684 226.091 164.684 225.723 164.684 225.365C164.684 223.231 164.765 221.121 164.929 219.035C166.882 193.349 180.105 171.935 185.222 164.514C185.48 164.136 185.718 163.797 185.932 163.495C186.758 162.335 187.239 161.722 187.239 161.722C187.239 161.722 226.88 161.075 247.384 169.282C248.373 169.697 249.277 170.289 250.054 171.029C257.699 178.089 262.19 201.009 264.829 224.956Z" fill="#2F2E41"/>
<path d="M250.12 78.9972C250.12 78.9972 259.006 74.2094 267.891 84.4688L285.661 104.988L271.992 120.035L246.02 104.304L250.12 78.9972Z" fill="#2C80FC"/>
<path d="M186.107 37.4191C194.092 31.6365 200.555 24.9761 204.83 17.0532C204.83 17.0532 219.483 33.3459 228.438 34.1605C237.393 34.9752 229.252 14.6093 229.252 14.6093L212.971 10.5361L197.504 12.1654L185.293 20.3117L186.107 37.4191Z" fill="#2F2E41"/>
<path d="M237.135 74.21C237.135 74.21 227.57 89.3436 198.862 82.1188L182.571 86.6085L180.406 87.2052C180.406 87.2052 182.457 128.243 187.924 135.766C193.392 143.29 192.025 147.394 190.658 148.078C189.291 148.762 185.874 147.394 187.924 150.813C189.975 154.233 192.709 152.181 189.975 154.233C187.241 156.285 185.874 163.809 185.874 163.809L250.121 172.016C250.121 172.016 248.07 145.342 253.538 131.663C259.006 117.983 260.373 112.512 260.373 112.512L256.272 78.3137L237.135 74.21Z" fill="#2C80FC"/>
<path d="M103.61 60.8203H15.6641V170.831H103.61V60.8203Z" fill="#E6E6E6"/>
<path d="M40.6346 70.0928H21.7891V82.6654H40.6346V70.0928Z" fill="white"/>
<path d="M94.8146 94.6084H21.9453V99.0088H94.8146V94.6084Z" fill="white"/>
<path d="M94.8146 106.239H21.9453V110.64H94.8146V106.239Z" fill="white"/>
<path d="M94.8146 117.868H21.9453V122.268H94.8146V117.868Z" fill="white"/>
<path d="M94.8146 129.499H21.9453V133.899H94.8146V129.499Z" fill="white"/>
<path d="M94.8146 141.127H21.9453V145.527H94.8146V141.127Z" fill="white"/>
<path d="M120.887 170.674C120.883 174.826 119.382 178.836 116.66 181.969C113.938 185.102 110.177 187.146 106.07 187.727C101.962 188.308 97.7829 187.386 94.3002 185.13C90.8175 182.874 88.2652 179.437 87.1122 175.449C85.9593 171.461 86.2832 167.19 88.0244 163.422C89.7656 159.654 92.8071 156.642 96.5901 154.938C100.373 153.234 104.643 152.953 108.617 154.148C112.59 155.342 115.999 157.931 118.217 161.44C119.961 164.203 120.887 167.405 120.887 170.674Z" fill="#2C80FC"/>
<path d="M118.216 161.439L101.211 178.453C100.142 176.798 94.1875 169.102 94.1875 169.102C94.9506 168.331 95.7649 167.611 96.6249 166.949L101.562 173.537L116.224 158.865C116.968 159.658 117.634 160.52 118.216 161.439Z" fill="white"/>
</g>
<defs>
<clipPath id="clip0">
<rect width="308" height="250" fill="white"/>
</clipPath>
</defs>
</svg>
