<svg width="144" height="145" viewBox="0 0 144 145" fill="none" xmlns="http://www.w3.org/2000/svg">
<g filter="url(#filter0_ddi)">
<circle cx="72" cy="72.9727" r="58" fill="#F6F8FC"/>
</g>
<circle cx="72" cy="72.9727" r="45" fill="#151F35"/>
<g clip-path="url(#clip0)">
<path d="M63.2501 62.872V63.7269C63.2501 64.9716 64.2551 65.9764 65.5001 65.9764H67.7501C68.1626 65.9764 68.5001 66.3138 68.5001 66.7262V68.2259C68.5001 68.6383 68.8376 68.9758 69.2501 68.9758C69.6626 68.9758 70.0001 68.6383 70.0001 68.2259V66.7262C70.0001 65.4815 68.9951 64.4767 67.7501 64.4767H65.5001C65.0876 64.4767 64.7501 64.1393 64.7501 63.7269V62.872C66.3551 62.4596 67.3226 60.825 66.9026 59.2203C66.4901 57.6156 64.8551 56.6558 63.2501 57.0682C61.6451 57.4807 60.6776 59.1153 61.0976 60.72C61.3676 61.7773 62.1926 62.6021 63.2501 62.872ZM64.0001 58.478C64.8251 58.478 65.5001 59.1528 65.5001 59.9776C65.5001 60.8025 64.8251 61.4773 64.0001 61.4773C63.1751 61.4773 62.5001 60.8025 62.5001 59.9776C62.5001 59.1528 63.1751 58.478 64.0001 58.478Z" fill="white"/>
<path d="M72.2501 62.872V68.2259C72.2501 68.6383 72.5876 68.9758 73.0001 68.9758C73.4126 68.9758 73.7501 68.6383 73.7501 68.2259V62.872C75.3551 62.4596 76.3226 60.825 75.9026 59.2203C75.4901 57.6156 73.8551 56.6558 72.2501 57.0682C70.6451 57.4807 69.6776 59.1153 70.0976 60.72C70.3676 61.7773 71.1926 62.6021 72.2501 62.872ZM73.0001 58.478C73.8251 58.478 74.5001 59.1528 74.5001 59.9776C74.5001 60.8025 73.8251 61.4773 73.0001 61.4773C72.1751 61.4773 71.5001 60.8025 71.5001 59.9776C71.5001 59.1528 72.1751 58.478 73.0001 58.478Z" fill="white"/>
<path d="M76 68.2259C76 68.6383 76.3375 68.9758 76.75 68.9758C77.1625 68.9758 77.5 68.6383 77.5 68.2259V66.7262C77.5 66.3138 77.8375 65.9764 78.25 65.9764H80.5C81.745 65.9764 82.75 64.9716 82.75 63.7269V62.872C84.355 62.4596 85.3225 60.825 84.9025 59.2203C84.4825 57.6156 82.855 56.6558 81.25 57.0682C79.645 57.4807 78.6775 59.1153 79.0975 60.72C79.3675 61.7773 80.1925 62.6021 81.25 62.872V63.7269C81.25 64.1393 80.9125 64.4767 80.5 64.4767H78.25C77.005 64.4767 76 65.4815 76 66.7262V68.2259ZM80.5 59.9776C80.5 59.1528 81.175 58.478 82 58.478C82.825 58.478 83.5 59.1528 83.5 59.9776C83.5 60.8025 82.825 61.4773 82 61.4773C81.175 61.4773 80.5 60.81 80.5 59.9776Z" fill="white"/>
<path d="M73.7498 81.5872C74.9198 81.1748 75.5348 79.8851 75.1223 78.7153C74.7098 77.5456 73.4198 76.9307 72.2498 77.3431C71.0798 77.7555 70.4648 79.0453 70.8773 80.215C71.1023 80.8524 71.6048 81.3623 72.2498 81.5872V82.4721C72.2498 82.8845 72.5873 83.2219 72.9998 83.2219C73.4123 83.2219 73.7498 82.8845 73.7498 82.4721V81.5872ZM72.9998 78.7228C73.4123 78.7228 73.7498 79.0603 73.7498 79.4727C73.7498 79.8851 73.4123 80.2225 72.9998 80.2225C72.5873 80.2225 72.2498 79.8851 72.2498 79.4727C72.2498 79.0603 72.5873 78.7228 72.9998 78.7228Z" fill="white"/>
<path d="M87.25 60.7266C86.8375 60.7266 86.5 61.064 86.5 61.4764C86.5 61.8888 86.8375 62.2263 87.25 62.2263C88.495 62.2263 89.5 63.231 89.5 64.4758V82.472C89.5 83.7168 88.495 84.7216 87.25 84.7216H77.7025C78.4075 84.1067 78.955 83.3344 79.3075 82.472H85C86.245 82.472 87.25 81.4672 87.25 80.2225V66.7253C87.25 65.4806 86.245 64.4758 85 64.4758C84.5875 64.4758 84.25 64.8132 84.25 65.2256C84.25 65.638 84.5875 65.9755 85 65.9755C85.4125 65.9755 85.75 66.3129 85.75 66.7253V80.2225C85.75 80.6349 85.4125 80.9723 85 80.9723H79.6975C79.9225 79.2702 79.3975 77.5531 78.25 76.2708V74.9736C78.25 72.0717 75.9025 69.7247 73 69.7247C70.0975 69.7247 67.75 72.0717 67.75 74.9736V76.2708C66.6025 77.5531 66.0775 79.2702 66.3025 80.9723H61C60.5875 80.9723 60.25 80.6349 60.25 80.2225V66.7253C60.25 66.3129 60.5875 65.9755 61 65.9755C61.4125 65.9755 61.75 65.638 61.75 65.2256C61.75 64.8132 61.4125 64.4758 61 64.4758C59.755 64.4758 58.75 65.4806 58.75 66.7253V80.2225C58.75 81.4672 59.755 82.472 61 82.472H66.6925C67.045 83.3344 67.5925 84.1067 68.2975 84.7216H58.75C57.505 84.7216 56.5 83.7168 56.5 82.472V64.4758C56.5 63.231 57.505 62.2263 58.75 62.2263C59.1625 62.2263 59.5 61.8888 59.5 61.4764C59.5 61.064 59.1625 60.7266 58.75 60.7266C56.68 60.7266 55 62.4062 55 64.4758V82.472C55 84.5416 56.68 86.2213 58.75 86.2213H67V88.5308C65.485 88.7632 64.3 89.9555 64.0825 91.4702H62.5C62.0875 91.4702 61.75 91.8076 61.75 92.22C61.75 92.6324 62.0875 92.9698 62.5 92.9698H83.5C83.9125 92.9698 84.25 92.6324 84.25 92.22C84.25 91.8076 83.9125 91.4702 83.5 91.4702H81.9175C81.7 89.9555 80.515 88.7632 79 88.5308V86.2213H87.25C89.32 86.2213 91 84.5416 91 82.472V64.4758C91 62.4062 89.32 60.7266 87.25 60.7266ZM73 71.2244C75.07 71.2244 76.75 72.904 76.75 74.9736V75.0336C75.8425 74.5012 74.8075 74.2238 73.75 74.2238H72.25C71.1925 74.2238 70.1575 74.5012 69.25 75.0336V74.9736C69.25 72.904 70.93 71.2244 73 71.2244ZM67.75 80.2225C67.75 77.7405 69.7675 75.7234 72.25 75.7234H73.75C76.2325 75.7234 78.25 77.7405 78.25 80.2225C78.25 82.7045 76.2325 84.7216 73.75 84.7216H72.25C69.7675 84.7216 67.75 82.712 67.75 80.2225ZM77.5 88.4708H73.75C73.3375 88.4708 73 88.8082 73 89.2206C73 89.633 73.3375 89.9705 73.75 89.9705H78.25C79.2325 89.8805 80.1325 90.5179 80.38 91.4702H65.62C65.8675 90.5179 66.7675 89.8805 67.75 89.9705C68.1625 89.9705 68.5 89.633 68.5 89.2206V86.2213H77.5V88.4708Z" fill="white"/>
</g>
<defs>
<filter id="filter0_ddi" x="0" y="0.972656" width="144" height="144" filterUnits="userSpaceOnUse" color-interpolation-filters="sRGB">
<feFlood flood-opacity="0" result="BackgroundImageFix"/>
<feColorMatrix in="SourceAlpha" type="matrix" values="0 0 0 0 0 0 0 0 0 0 0 0 0 0 0 0 0 0 127 0"/>
<feOffset dx="4" dy="4"/>
<feGaussianBlur stdDeviation="5"/>
<feColorMatrix type="matrix" values="0 0 0 0 0.764706 0 0 0 0 0.815686 0 0 0 0 0.894118 0 0 0 1 0"/>
<feBlend mode="normal" in2="BackgroundImageFix" result="effect1_dropShadow"/>
<feColorMatrix in="SourceAlpha" type="matrix" values="0 0 0 0 0 0 0 0 0 0 0 0 0 0 0 0 0 0 127 0"/>
<feOffset dx="-4" dy="-4"/>
<feGaussianBlur stdDeviation="5"/>
<feColorMatrix type="matrix" values="0 0 0 0 1 0 0 0 0 1 0 0 0 0 1 0 0 0 1 0"/>
<feBlend mode="normal" in2="effect1_dropShadow" result="effect2_dropShadow"/>
<feBlend mode="normal" in="SourceGraphic" in2="effect2_dropShadow" result="shape"/>
<feColorMatrix in="SourceAlpha" type="matrix" values="0 0 0 0 0 0 0 0 0 0 0 0 0 0 0 0 0 0 127 0" result="hardAlpha"/>
<feOffset dx="2" dy="2"/>
<feGaussianBlur stdDeviation="5"/>
<feComposite in2="hardAlpha" operator="arithmetic" k2="-1" k3="1"/>
<feColorMatrix type="matrix" values="0 0 0 0 0.85098 0 0 0 0 0.882353 0 0 0 0 0.937255 0 0 0 0.1 0"/>
<feBlend mode="normal" in2="shape" result="effect3_innerShadow"/>
</filter>
<clipPath id="clip0">
<rect x="55" y="56.9727" width="36" height="36" fill="white"/>
</clipPath>
</defs>
</svg>
