<?xml version="1.0" encoding="UTF-8"?><svg id="Layer_2" xmlns="http://www.w3.org/2000/svg" viewBox="0 0 769.14 216.32"><defs><style>.cls-1{fill:#292327;}.cls-2{fill:#dd8243;}.cls-3{fill:#7ebbcd;}.cls-4{fill:#f7d57e;}</style></defs><g id="Layer_1-2"><rect class="cls-1" x="14.25" y="14.25" width="187.82" height="187.82" rx="59.51" ry="59.51" transform="translate(108.16 -44.8) rotate(45)"/><path class="cls-1" d="m251.28,59.74h41.56v18.95h-11.24v69.48h-18.95v-69.48h-11.37v-18.95Z"/><path class="cls-1" d="m336.04,59.74l9.47,88.42h-19.83l-.88-12.25h-9.47l-.88,12.25h-18.95l9.47-88.42h31.07Zm-19.45,59.75h7.07l-2.91-40.8h-1.26l-2.91,40.8Z"/><path class="cls-1" d="m396.16,148.16h-17.68v-33.35l-8.97-20.59v53.94h-17.68V59.74h17.68l8.97,18.32v-18.32h17.68v88.42Z"/><path class="cls-1" d="m422.81,79.44v49.14c0,1.26,0,4.42,3.16,4.42s3.16-3.16,3.16-4.42v-17.43h-3.66l1.26-13.9h20.97v30.19c0,18.95-8.72,21.98-21.98,21.98s-21.85-3.03-21.85-21.98v-46.99c0-18.95,8.72-21.98,21.85-21.98s21.98,3.03,21.98,21.98v6.06l-18.57,1.77v-8.84c0-1.26-.13-4.29-3.16-4.29s-3.16,3.03-3.16,4.29Z"/><path class="cls-1" d="m455.27,148.16V59.74h18.95v68.21h17.68v20.21h-36.63Z"/><path class="cls-1" d="m499.47,59.74h37.9v18.95h-18.95v16.42h16.42v17.68h-16.42v16.42h18.95v18.95h-37.9V59.74Z"/><path class="cls-1" d="m576.52,148.16V59.74h18.95v68.21h17.68v20.21h-36.63Z"/><path class="cls-1" d="m658.75,59.74l9.47,88.42h-19.83l-.88-12.25h-9.47l-.88,12.25h-18.95l9.47-88.42h31.07Zm-19.45,59.75h7.07l-2.91-40.8h-1.26l-2.91,40.8Z"/><path class="cls-1" d="m674.54,148.16V59.74h21.35c20.21,0,22.36,14.27,22.36,25.26,0,9.35-3.41,17.31-10.61,18.32v.25c8.59,1.01,11.24,10.61,11.24,17.56,0,13.01-2.78,27.03-22.99,27.03h-21.35Zm18.95-53.69h1.26c4.17,0,5.18-3.54,5.18-9.47s-1.01-8.84-5.18-8.84h-1.26v18.32Zm1.14,15.16h-1.14v23.37h1.14c4.04,0,5.94-1.26,5.94-11.87s-2.78-11.37-5.94-11.5Z"/><path class="cls-1" d="m747.16,58.47c13.14,0,21.98,5.56,21.98,21.98v4.67l-18.7,1.64v-7.33c0-1.26,0-4.29-3.16-4.29s-3.16,3.03-3.16,4.29c0,19.96,25.01,24.51,25.01,48,0,16.42-8.84,21.98-22.11,21.98s-21.85-5.56-21.85-21.98v-5.31l18.7-2.15v8.59c0,1.26,0,4.42,3.16,4.42s3.16-3.16,3.16-4.42c0-16.42-25.01-24.63-25.01-48.13,0-16.42,8.84-21.98,21.98-21.98Z"/><path class="cls-2" d="m197.07,74.5c0,2.18-.04,4.23-.2,6.27-.98,12.56-13.03,25.13-24.03,25.21-14.8.11-29.63-.57-44.38.23-15.05.82-23.28-8.13-31.58-19.44-26.56,0-53.46-.36-80.34.21-1.25.03-2.47.16-3.64.38-6.5,14.73-5.75,31.87,2.23,46.04,3.85-15.09,16.17-22.03,32.75-21.39,11.42.44,22.88-.19,34.3.2,8.64.29,16.27,3.35,22.85,9.46,5.4,5.02,11.8,9.35,19.54,9.41,25.39.21,50.77.03,76.16-.03,1.24,0,2.49-.18,3.74-.49,8.76-18.1,6.29-40.26-7.4-56.07Z"/><path class="cls-3" d="m200.56,137.28c-20.74,0-41.13-.06-61.52.03-11.13.05-22.27.39-32.23-6.56v77.9c9.3.4,18.69-1.71,27.06-6.33.17-.94.29-1.89.29-2.84.03-7.06-.04-14.13.03-21.19.11-11.52,5.54-16.64,17.1-16.23,8.11-.02,16.22-.05,24.32-.07.6.01,1.14-.07,1.66-.2l17.26-17.26c2.27-2.27,4.27-4.71,6.03-7.26Z"/><path class="cls-3" d="m43.39,119.38c-12.44-.09-22.25,4.22-22.62,22.11.89,1.04,1.81,2.07,2.8,3.06l19.82,19.82v-44.98Z"/><path class="cls-3" d="m99.89,124.81c-6.76-5.8-14.04-6.5-22.03-5.23,0,26.34,0,52.39,0,78.44,0,.04,0,.09,0,.13,6.81,5.2,14.61,8.48,22.68,9.82-.1-27.98.67-55.75-.65-83.17Z"/><path class="cls-3" d="m71.82,118.56h-22.33v51.91l22.28,22.28c.08-13.04.04-26.09.04-39.13,0-11.68,0-23.35,0-35.06Z"/><path class="cls-4" d="m157.45,34.67l-12.01-12.01c-3.02-3.02-6.33-5.58-9.83-7.69v84.7h21.83V34.67Z"/><path class="cls-4" d="m70.83,52.27c7.13.14,13.43,2.45,19.25,6.94,7.5,5.8,8.44,14.61,11.56,22.41,4.59,11.46,17.17,19.95,27.07,17.5V11.49c-10.44-4.31-22.01-5.03-32.84-2.18.12,3.11-.08,6.26-.29,9.36-.46,6.66-3.77,10.56-10.93,10.18-4.38.02-8.76.03-13.14.05-1.78.11-3.56.21-5.42.33l-23,23c9.87-.01,18.81-.13,27.73.05Z"/><path class="cls-2" d="m16.61,80.41h76.89c.86-8.47-4.75-17.05-12.82-19.88-14.98-5.25-30.39-1.42-43.42-2.47l-13.7,13.7c-2.68,2.68-4.99,5.59-6.96,8.66Z"/><path class="cls-4" d="m164.2,99.82c10.34.76,18.68-2.2,23.74-10.97,3.75-6.51,3.68-13.5,3.16-20.52l-26.9-26.91v58.4Z"/></g></svg>