<svg width="144" height="144" viewBox="0 0 144 144" fill="none" xmlns="http://www.w3.org/2000/svg">
<g filter="url(#filter0_ddi)">
<circle cx="72" cy="72" r="58" fill="#F6F8FC"/>
</g>
<circle cx="72" cy="72" r="45" fill="#8793AB"/>
<g clip-path="url(#clip0)">
<path d="M67.2969 74.3438H67.1406C64.5547 74.3477 62.457 76.4453 62.4531 79.0312V82.9375C62.4531 83.3672 62.8047 83.7188 63.2344 83.7188C63.6641 83.7188 64.0156 83.3672 64.0156 82.9375V79.0312C64.0195 77.3047 65.4141 75.9102 67.1406 75.9062H68.8594C68.8242 75.8711 68.7852 75.8398 68.75 75.8047L67.2969 74.3438Z" fill="white"/>
<path d="M78.8594 74.3438H78.7031L77.2539 75.8047C77.2188 75.8398 77.1797 75.8711 77.1406 75.9062H78.8594C80.5859 75.9102 81.9805 77.3047 81.9844 79.0312V82.9375C81.9844 83.3672 82.3359 83.7188 82.7656 83.7188C83.1953 83.7188 83.5469 83.3672 83.5469 82.9375V79.0312C83.543 76.4414 81.4453 74.3477 78.8594 74.3438Z" fill="white"/>
<path d="M78.2891 72.5156C78.918 71.6367 79.2539 70.582 79.25 69.5039V66.2187C79.2579 63.3828 76.9688 61.0742 74.1329 61.0625H71.8672C69.0313 61.0781 66.7422 63.3828 66.75 66.2187V69.5039C66.7461 70.582 67.086 71.6367 67.711 72.5156C67.7618 72.5859 67.8164 72.6484 67.875 72.7109L69.8555 74.707C70.6172 75.4766 71.6563 75.9102 72.7383 75.9102H73.2579C74.3399 75.9141 75.3789 75.4805 76.1407 74.707L78.1211 72.7109C78.1836 72.6484 78.2383 72.582 78.2891 72.5156ZM77.6875 69.5039C77.6875 70.2578 77.4532 70.9922 77.0157 71.6094L75.0352 73.6055C74.5664 74.0781 73.9297 74.3437 73.2618 74.3477H72.7422C72.0743 74.3477 71.4375 74.082 70.9688 73.6055L68.9844 71.6094C68.5469 70.9922 68.3125 70.2578 68.3125 69.5039V66.2187C68.3008 64.2461 69.8907 62.6367 71.8672 62.625H74.1368C76.1094 62.6367 77.7032 64.2461 77.6914 66.2187V69.5039H77.6875Z" fill="white"/>
<path d="M91.9012 65.7557C89.9129 59.7752 85.2215 55.0838 79.2411 53.0916C79.159 49.6424 76.2957 46.9159 72.8504 46.9979C69.5184 47.0799 66.8387 49.7596 66.7567 53.0916C60.7762 55.0838 56.0848 59.7752 54.0926 65.7557C50.6473 65.8377 47.9168 68.701 47.9989 72.1463C48.077 75.4784 50.7606 78.1581 54.0926 78.2401C56.0809 84.2206 60.7723 88.912 66.7528 90.9041C66.8348 94.3534 69.6981 97.0799 73.1434 96.9979C76.4754 96.9198 79.1551 94.2362 79.2371 90.9041C85.2176 88.9159 89.909 84.2206 91.8973 78.2401C95.3465 78.1581 98.0731 75.2987 97.9911 71.8495C97.9168 68.5174 95.2332 65.8338 91.9012 65.7557ZM72.9989 48.5604C75.5887 48.5604 77.6864 50.6581 77.6864 53.2479C77.6864 55.8377 75.5887 57.9354 72.9989 57.9354C70.409 57.9354 68.3114 55.8377 68.3114 53.2479C68.3153 50.6581 70.409 48.5643 72.9989 48.5604ZM49.5614 71.9979C49.5614 69.4081 51.659 67.3104 54.2489 67.3104C56.8387 67.3104 58.9364 69.4081 58.9364 71.9979C58.9364 74.5877 56.8387 76.6854 54.2489 76.6854C51.659 76.6815 49.5653 74.5838 49.5614 71.9979ZM72.9989 95.4354C70.409 95.4354 68.3114 93.3377 68.3114 90.7479C68.3114 88.158 70.409 86.0604 72.9989 86.0604C75.5887 86.0604 77.6864 88.158 77.6864 90.7479C77.6825 93.3338 75.5848 95.4315 72.9989 95.4354ZM79.077 89.3143C78.2879 85.9588 74.9286 83.8768 71.5731 84.6659C69.2684 85.2088 67.4637 87.0096 66.9247 89.3143C61.6707 87.4549 57.5418 83.326 55.6825 78.076C59.0379 77.287 61.12 73.9276 60.3309 70.5721C59.7879 68.2674 57.9872 66.4666 55.6825 65.9237C57.5418 60.6698 61.6707 56.5409 66.9207 54.6815C67.7098 58.037 71.0692 60.119 74.4247 59.3299C76.7293 58.787 78.534 56.9862 79.0731 54.6815C84.327 56.5409 88.4559 60.6698 90.3153 65.9198C86.9598 66.7088 84.8778 70.0682 85.6668 73.4237C86.2098 75.7284 88.0106 77.5331 90.3153 78.0721C88.4559 83.326 84.327 87.4549 79.077 89.3143ZM91.7489 76.6854C89.159 76.6854 87.0614 74.5877 87.0614 71.9979C87.0614 69.4081 89.159 67.3104 91.7489 67.3104C94.3387 67.3104 96.4364 69.4081 96.4364 71.9979C96.4325 74.5838 94.3348 76.6815 91.7489 76.6854Z" fill="white"/>
<path d="M73 55.9844C74.5117 55.9844 75.7344 54.7617 75.7344 53.25C75.7344 51.7383 74.5117 50.5156 73 50.5156C71.4883 50.5156 70.2656 51.7383 70.2656 53.25C70.2656 54.7578 71.4922 55.9805 73 55.9844ZM73 52.0781C73.6484 52.0781 74.1719 52.6016 74.1719 53.25C74.1719 53.8984 73.6484 54.4219 73 54.4219C72.3516 54.4219 71.8281 53.8984 71.8281 53.25C71.8281 52.6016 72.3516 52.0781 73 52.0781Z" fill="white"/>
<path d="M75.1133 88.6348C74.8086 88.3301 74.3125 88.3301 74.0078 88.6348L73 89.6426L71.9883 88.6309C71.6836 88.3262 71.1875 88.3262 70.8828 88.6309C70.5781 88.9355 70.5781 89.4277 70.8828 89.7324L71.8945 90.7441L70.8828 91.7559C70.5781 92.0605 70.5781 92.5566 70.8828 92.8613C71.1875 93.166 71.6836 93.166 71.9883 92.8613L73 91.8496L74.0117 92.8613C74.3164 93.166 74.8125 93.166 75.1172 92.8574C75.4219 92.5527 75.4219 92.0605 75.1172 91.7559L74.1055 90.748L75.1172 89.7363C75.4336 89.4434 75.4648 88.9629 75.168 88.6504C75.1563 88.6387 75.1445 88.627 75.1133 88.6348Z" fill="white"/>
<path d="M93.3125 69.6562H90.1875C89.7578 69.6562 89.4062 70.0078 89.4062 70.4375V73.5625C89.4062 73.9922 89.7578 74.3438 90.1875 74.3438H93.3125C93.7422 74.3438 94.0938 73.9922 94.0938 73.5625V70.4375C94.0938 70.0039 93.7422 69.6562 93.3125 69.6562ZM92.5312 72.7812H90.9688V71.2188H92.5312V72.7812Z" fill="white"/>
<path d="M54.8008 69.2402C54.4961 68.9355 54 68.9355 53.6953 69.2402L51.4844 71.4512C51.1797 71.7559 51.1797 72.252 51.4844 72.5566L53.6953 74.7676C54 75.0723 54.4961 75.0723 54.8008 74.7676L57.0117 72.5566C57.3164 72.252 57.3164 71.7559 57.0117 71.4512L54.8008 69.2402ZM54.25 73.1074L53.1445 72.002L54.25 70.8965L55.3555 72.002L54.25 73.1074Z" fill="white"/>
</g>
<defs>
<filter id="filter0_ddi" x="0" y="0" width="144" height="144" filterUnits="userSpaceOnUse" color-interpolation-filters="sRGB">
<feFlood flood-opacity="0" result="BackgroundImageFix"/>
<feColorMatrix in="SourceAlpha" type="matrix" values="0 0 0 0 0 0 0 0 0 0 0 0 0 0 0 0 0 0 127 0"/>
<feOffset dx="4" dy="4"/>
<feGaussianBlur stdDeviation="5"/>
<feColorMatrix type="matrix" values="0 0 0 0 0.764706 0 0 0 0 0.815686 0 0 0 0 0.894118 0 0 0 1 0"/>
<feBlend mode="normal" in2="BackgroundImageFix" result="effect1_dropShadow"/>
<feColorMatrix in="SourceAlpha" type="matrix" values="0 0 0 0 0 0 0 0 0 0 0 0 0 0 0 0 0 0 127 0"/>
<feOffset dx="-4" dy="-4"/>
<feGaussianBlur stdDeviation="5"/>
<feColorMatrix type="matrix" values="0 0 0 0 1 0 0 0 0 1 0 0 0 0 1 0 0 0 1 0"/>
<feBlend mode="normal" in2="effect1_dropShadow" result="effect2_dropShadow"/>
<feBlend mode="normal" in="SourceGraphic" in2="effect2_dropShadow" result="shape"/>
<feColorMatrix in="SourceAlpha" type="matrix" values="0 0 0 0 0 0 0 0 0 0 0 0 0 0 0 0 0 0 127 0" result="hardAlpha"/>
<feOffset dx="2" dy="2"/>
<feGaussianBlur stdDeviation="5"/>
<feComposite in2="hardAlpha" operator="arithmetic" k2="-1" k3="1"/>
<feColorMatrix type="matrix" values="0 0 0 0 0.85098 0 0 0 0 0.882353 0 0 0 0 0.937255 0 0 0 0.1 0"/>
<feBlend mode="normal" in2="shape" result="effect3_innerShadow"/>
</filter>
<clipPath id="clip0">
<rect x="48" y="47" width="50" height="50" fill="white"/>
</clipPath>
</defs>
</svg>
