<svg width="135" height="59" viewBox="0 0 135 59" fill="none" xmlns="http://www.w3.org/2000/svg">
<g clip-path="url(#clip0)">
<path d="M59.5508 38.419C62.0417 40.9059 65.6878 42.5998 70.7779 42.5998C77.9257 42.5998 81.3552 38.9597 81.3552 34.1301C81.3552 28.2914 75.7958 26.9578 71.4638 25.9847C68.3953 25.2639 66.1932 24.7232 66.1932 22.9212C66.1932 21.3353 67.5289 20.2181 70.092 20.2181C72.6551 20.2181 75.507 21.1191 77.673 23.1014L80.8137 18.9926C78.2145 16.5779 74.7128 15.3164 70.5252 15.3164C64.316 15.3164 60.4894 18.8845 60.4894 23.2816C60.4894 29.1924 66.0488 30.3457 70.3447 31.3549C73.4132 32.0757 75.6875 32.7245 75.6875 34.7068C75.6875 36.2205 74.1713 37.6622 71.1028 37.6622C67.4567 37.6622 64.5687 36.0403 62.6915 34.094L59.5508 38.419Z" fill="white"/>
<path d="M83.7739 32.546C83.7739 38.6731 88.1781 42.6016 93.9903 42.6016C96.9505 42.6016 99.9829 41.7006 101.86 39.9345L99.658 36.6908C98.4306 37.8802 96.3368 38.601 94.5318 38.601C91.2827 38.601 89.3333 36.5827 89.0084 34.1679H103.232V33.0866C103.232 26.8514 99.3331 22.5625 93.6293 22.5625C87.8532 22.5625 83.7739 27.0317 83.7739 32.546ZM93.7015 26.5631C97.0227 26.5631 98.2862 28.9779 98.4306 30.78H89.0084C89.225 28.8698 90.5607 26.5631 93.7015 26.5631Z" fill="white"/>
<path d="M106.914 42.1324H111.932V15.75H106.914V42.1324Z" fill="white"/>
<path d="M121.895 42.1333H127.31L135 23.0312H129.585L124.603 36.3306L119.621 23.0312H114.242L121.895 42.1333Z" fill="white"/>
<path d="M36.4826 49.7733C36.0819 49.7733 35.6848 49.6075 35.3996 49.2867C34.8725 48.6884 34.9267 47.7802 35.5259 47.2503C39.4572 43.7831 41.8471 38.9644 42.2622 33.6771C42.6774 28.3646 41.024 23.3115 37.6017 19.4443C37.5764 19.4191 35.1577 16.6907 33.8761 15.577C33.2733 15.0544 33.2083 14.1462 33.7317 13.5443C34.2552 12.9424 35.1685 12.8775 35.7678 13.4001C37.1937 14.6363 39.6594 17.4151 39.7641 17.5341C43.7062 21.9924 45.6159 27.8023 45.1394 33.9005C44.6665 39.9375 41.9301 45.4483 37.4356 49.4128C37.1649 49.6543 36.8219 49.7733 36.4826 49.7733Z" fill="#8493AD"/>
<path d="M23.7393 53.3434C23.3386 53.3434 22.9415 53.1776 22.6563 52.8568C22.1293 52.2585 22.1834 51.3503 22.7827 50.8204L30.5081 44.0086C33.5369 41.3343 35.3419 37.6401 35.591 33.6034C35.8401 29.5668 34.5044 25.6779 31.8258 22.654C31.8041 22.6288 30.0749 20.6645 28.88 19.6697C28.2663 19.1616 28.1833 18.2497 28.6959 17.6406C29.2049 17.0279 30.1182 16.945 30.7283 17.4568C32.1001 18.5957 33.916 20.6609 33.9954 20.751C37.1794 24.3479 38.7714 28.9757 38.4754 33.7836C38.1794 38.5879 36.0278 42.9886 32.4214 46.1747L24.696 52.9829C24.4216 53.2244 24.0787 53.3434 23.7393 53.3434Z" fill="#8493AD"/>
<path d="M8.57745 58.9983C8.18035 58.9983 7.78686 58.8361 7.50167 58.5189C6.971 57.9243 7.02154 57.0124 7.61719 56.4826L25.3423 40.6604C29.7285 36.7895 30.1509 30.0966 26.299 25.7103L26.2232 25.6346C26.2015 25.613 26.1835 25.5914 26.1618 25.5698C25.8766 25.249 25.4831 25.058 25.0463 25.0364C24.6095 25.0111 24.1908 25.1553 23.8659 25.4436C23.1366 26.0888 23.0897 26.9898 23.7431 27.7431C25.2593 29.4803 25.4362 31.4409 25.4362 32.7637C25.4362 35.0883 24.2882 37.2725 22.0175 39.2547L13.2163 47.0325C12.6207 47.5587 11.7073 47.5046 11.1767 46.91C10.646 46.3153 10.7037 45.4034 11.2994 44.8736L20.1078 37.0886C21.7504 35.6542 22.5446 34.2414 22.5446 32.7637C22.5446 31.7221 22.4255 30.6264 21.5627 29.6389C19.8732 27.7034 20.0392 24.9751 21.9453 23.2883C22.8442 22.4918 24.003 22.0954 25.2052 22.1638C26.3965 22.2323 27.4867 22.7513 28.2845 23.6307L28.3639 23.71C28.3856 23.7316 28.4036 23.7533 28.4253 23.7749C33.3602 29.3505 32.8367 37.8924 27.252 42.8229L9.53411 58.6379C9.26336 58.8758 8.9204 58.9983 8.57745 58.9983Z" fill="#8493AD"/>
<path d="M7.92737 42.5287C7.52666 42.5287 7.12595 42.3629 6.84076 42.0386L4.74695 39.6598C-2.17705 31.8136 -1.44061 19.7613 6.38951 12.7981L13.9092 6.26373C14.512 5.74113 15.4218 5.80601 15.9452 6.4043C16.4687 7.00619 16.4037 7.91444 15.8044 8.43704L8.2956 14.9606C1.664 20.8642 1.03586 31.0928 6.91657 37.7532L9.01038 40.132C9.53744 40.7303 9.47607 41.6421 8.88042 42.1683C8.60606 42.4098 8.26672 42.5287 7.92737 42.5287Z" fill="#8493AD"/>
<path d="M12.8371 38.3848C12.4364 38.3848 12.0357 38.219 11.7505 37.8911L9.98162 35.8727C5.05034 30.3043 5.5774 21.7589 11.1585 16.832L24.5047 4.80493C25.0967 4.27151 26.0101 4.31837 26.5444 4.90945C27.0786 5.50053 27.0317 6.41238 26.4397 6.9458L13.0826 18.9837C8.68201 22.8689 8.26686 29.5871 12.1512 33.9697L13.9238 35.9953C14.4508 36.5936 14.3894 37.5054 13.7866 38.028C13.5158 38.2659 13.1765 38.3848 12.8371 38.3848Z" fill="#8493AD"/>
<path d="M17.0972 33.771C16.7074 33.771 16.3175 33.6124 16.0323 33.3024L15.6352 32.8699C12.3031 29.1108 12.6497 23.3802 16.3933 20.0752L38.631 0.36045C39.2266 -0.16936 40.14 -0.115298 40.6706 0.482991C41.2013 1.07768 41.1471 1.98953 40.5479 2.51934L18.3102 22.2341C15.7615 24.4867 15.5233 28.3936 17.7831 30.9417L18.1622 31.3562C18.7001 31.9436 18.6604 32.8555 18.0756 33.3925C17.7976 33.6448 17.4474 33.771 17.0972 33.771Z" fill="#8493AD"/>
</g>
<defs>
<clipPath id="clip0">
<rect width="135" height="59" fill="white"/>
</clipPath>
</defs>
</svg>
